<svg width="276" height="159" viewBox="0 0 276 159" fill="none" xmlns="http://www.w3.org/2000/svg">
<path d="M1.50877 143.408L5.83626 140.909C6.97895 140.25 8.17255 139.907 9.41705 139.881C10.6729 139.848 11.7816 140.109 12.7433 140.665C13.3542 141.017 13.7332 141.425 13.8803 141.889C14.0161 142.346 13.9143 142.771 13.5748 143.163C14.3329 142.895 15.1701 142.797 16.0865 142.869C17.0029 142.928 17.8231 143.166 18.5472 143.584C19.5315 144.152 20.001 144.815 19.9558 145.573C19.8992 146.324 19.3109 147.023 18.1908 147.67L13.5409 150.354L1.50877 143.408ZM8.78914 144.946L10.4523 143.986C10.984 143.679 11.2668 143.359 11.3008 143.026C11.3347 142.693 11.1198 142.392 10.6559 142.124C10.192 141.857 9.67727 141.736 9.11158 141.762C8.5459 141.775 7.98587 141.941 7.4315 142.262L5.78535 143.212L8.78914 144.946ZM13.8973 147.895L15.798 146.798C16.3637 146.471 16.6691 146.138 16.7144 145.798C16.7596 145.446 16.539 145.129 16.0525 144.848C15.5661 144.567 15.0173 144.433 14.4064 144.446C13.8068 144.453 13.2241 144.619 12.6584 144.946L10.7238 146.063L13.8973 147.895Z" fill="#444444"/>
<path d="M23.6254 141.73C24.4626 141.73 25.1754 141.56 25.7637 141.221C26.352 140.881 26.6405 140.473 26.6292 139.996C26.6292 139.513 26.2558 139.056 25.5091 138.624C24.7624 138.193 23.9705 137.978 23.1332 137.978C22.3073 137.971 21.6002 138.138 21.0119 138.478C20.4236 138.817 20.1295 139.229 20.1295 139.712C20.1408 140.189 20.5198 140.643 21.2665 141.074C22.0132 141.505 22.7995 141.724 23.6254 141.73ZM17.0748 139.83C17.0748 138.863 17.7027 138.017 18.9585 137.292C20.2143 136.567 21.6738 136.208 23.3369 136.214C25.0113 136.214 26.4878 136.583 27.7662 137.321C29.0447 138.06 29.6839 138.912 29.6839 139.879C29.6952 140.839 29.0729 141.681 27.8171 142.406C26.5613 143.131 25.0962 143.494 23.4217 143.494C21.7586 143.487 20.2878 143.115 19.0094 142.377C17.7309 141.639 17.0861 140.79 17.0748 139.83Z" fill="#444444"/>
<path d="M30.4303 130.924L32.7044 132.237C32.4328 132.341 32.1839 132.459 31.9577 132.59C31.3128 132.962 30.979 133.37 30.9564 133.814C30.9225 134.252 31.3241 134.712 32.1613 135.196L35.9797 137.4L33.7226 138.703L25.3731 133.883L27.5623 132.619L28.8011 133.334C28.3373 132.596 28.6937 131.887 29.8703 131.208C29.9947 131.136 30.1814 131.042 30.4303 130.924Z" fill="#444444"/>
<path d="M35.9911 123.207L46.7674 129.428C47.3218 129.748 47.8479 130.026 48.3457 130.261L46.1904 131.505C45.851 131.375 45.5003 131.205 45.1382 130.996C45.2966 131.309 45.274 131.649 45.0704 132.015C44.878 132.374 44.5103 132.71 43.9673 133.024C42.7793 133.71 41.3877 134.036 39.7925 134.004C38.1973 133.958 36.7661 133.569 35.499 132.838C34.2658 132.126 33.6039 131.313 33.5134 130.398C33.4342 129.477 33.9773 128.681 35.1426 128.008C36.3418 127.315 37.4732 127.061 38.5367 127.244L33.768 124.491L35.9911 123.207ZM37.773 131.525C38.5084 131.949 39.2834 132.175 40.098 132.201C40.9012 132.221 41.6084 132.054 42.2193 131.701C42.8189 131.355 43.0961 130.947 43.0509 130.477C43.0056 130.006 42.6153 129.559 41.8799 129.134C41.1558 128.716 40.3978 128.501 39.6058 128.488C38.8026 128.468 38.1011 128.632 37.5015 128.978C36.9019 129.324 36.6134 129.732 36.636 130.202C36.6699 130.666 37.0489 131.107 37.773 131.525Z" fill="#444444"/>
<path d="M47.2474 124.978L50.9809 122.822C50.4944 122.568 49.9344 122.44 49.3008 122.44C48.6785 122.434 48.0676 122.604 47.468 122.95C46.9249 123.263 46.6534 123.616 46.6534 124.008C46.6534 124.4 46.8514 124.723 47.2474 124.978ZM53.3737 123.949L55.8175 123.185C56.3605 123.76 56.5472 124.383 56.3775 125.056C56.2191 125.722 55.6478 126.34 54.6635 126.908C53.4642 127.6 52.0444 127.956 50.4039 127.976C48.7521 127.989 47.2474 127.603 45.8897 126.82C44.5999 126.075 43.9551 125.232 43.9551 124.292C43.9438 123.345 44.4925 122.551 45.6012 121.911C46.891 121.167 48.2826 120.807 49.776 120.834C51.2807 120.853 52.7062 121.252 54.0526 122.029C54.1431 122.081 54.2392 122.143 54.3411 122.215C54.4542 122.28 54.5447 122.333 54.6126 122.372L54.7144 122.45L48.7408 125.899C49.3065 126.199 49.974 126.336 50.7433 126.31C51.5126 126.284 52.1801 126.108 52.7458 125.781C53.7075 125.226 53.9168 124.615 53.3737 123.949Z" fill="#444444"/>
<path d="M56.8142 115.693L59.0883 117.005C58.8168 117.11 58.5679 117.228 58.3416 117.358C57.6967 117.73 57.363 118.139 57.3403 118.583C57.3064 119.02 57.708 119.481 58.5452 119.964L62.3636 122.169L60.1065 123.472L51.757 118.651L53.9462 117.388L55.1851 118.103C54.7212 117.365 55.0776 116.656 56.2542 115.977C56.3787 115.905 56.5653 115.81 56.8142 115.693Z" fill="#444444"/>
<path d="M62.8676 109.357L65.3622 110.797L67.0423 109.827L69.0448 110.983L67.3648 111.953L70.8607 113.971C71.2114 114.174 71.5395 114.272 71.845 114.265C72.1505 114.259 72.4729 114.158 72.8123 113.962C73.1178 113.785 73.3271 113.638 73.4402 113.521L75.307 114.598C75.1147 114.866 74.7583 115.15 74.2378 115.451C73.4233 115.921 72.5521 116.163 71.6244 116.176C70.6853 116.182 69.8142 115.954 69.0109 115.49L65.1246 113.246L63.6143 114.118L61.6117 112.962L62.036 112.717C62.4546 112.476 62.6526 112.224 62.63 111.963C62.6073 111.689 62.398 111.437 62.0021 111.209L60.8311 110.533L62.8676 109.357Z" fill="#444444"/>
<path d="M74.2474 109.645L79.1519 112.477L76.8948 113.78L64.6081 106.687L66.8652 105.384L71.4982 108.058C71.3963 107.412 71.8432 106.801 72.8388 106.226C73.8571 105.638 74.9375 105.374 76.0802 105.433C77.2229 105.478 78.2807 105.782 79.2537 106.344L84.5146 109.381L82.2575 110.684L77.3869 107.872C76.8891 107.585 76.3574 107.428 75.7917 107.402C75.2373 107.369 74.6999 107.503 74.1795 107.803C73.7156 108.071 73.495 108.375 73.5176 108.715C73.5516 109.048 73.7948 109.358 74.2474 109.645Z" fill="#444444"/>
<path d="M89.0624 106.755L86.8053 108.058L78.4558 103.238L80.7129 101.935L89.0624 106.755ZM75.452 101.818C75.0674 101.596 74.875 101.328 74.875 101.014C74.8637 100.694 75.0504 100.423 75.4351 100.201C75.8197 99.979 76.2836 99.868 76.8266 99.868C77.3697 99.868 77.8392 99.9823 78.2352 100.211C78.6086 100.426 78.7952 100.691 78.7952 101.004C78.7952 101.318 78.6029 101.586 78.2182 101.808C77.8336 102.03 77.3697 102.141 76.8266 102.141C76.2836 102.141 75.8254 102.033 75.452 101.818Z" fill="#444444"/>
<path d="M88.7127 99.4331C88.113 99.7792 87.8189 100.191 87.8302 100.668C87.8415 101.144 88.2092 101.592 88.9333 102.01C89.6574 102.428 90.438 102.643 91.2752 102.656C92.1124 102.656 92.8309 102.483 93.4305 102.137C93.9622 101.83 94.2507 101.507 94.296 101.167C94.3299 100.821 94.2111 100.504 93.9396 100.217L96.587 99.4527C97.1527 100.014 97.3733 100.651 97.2489 101.363C97.1244 102.075 96.5418 102.731 95.5009 103.332C94.2564 104.051 92.7913 104.413 91.1055 104.42C89.4198 104.413 87.9433 104.044 86.6762 103.313C85.3978 102.575 84.7529 101.726 84.7416 100.765C84.7416 99.7988 85.3525 98.9628 86.5744 98.2574C87.6379 97.6435 88.7862 97.3006 90.0194 97.2287C91.2413 97.1503 92.3387 97.281 93.3117 97.6206L91.971 99.1783C90.7605 98.793 89.6743 98.8779 88.7127 99.4331Z" fill="#444444"/>
<path d="M100.555 90.4804L100.725 94.4385L108.972 95.2614L106.206 96.8583L100.809 96.2901L100.86 97.3972L103.066 98.6708L100.809 99.9738L88.5227 92.8807L90.7798 91.5777L97.8225 95.6435L97.6019 92.1851L100.555 90.4804Z" fill="#444444"/>
<path d="M107.743 90.4256L112.546 93.1982L110.289 94.5012L101.94 89.681L104.129 88.4172L105.164 89.0148C104.994 88.6425 105.022 88.267 105.249 87.8882C105.475 87.5093 105.831 87.1795 106.318 86.8987C107.302 86.3304 108.36 86.079 109.491 86.1443C110.623 86.1965 111.675 86.5035 112.648 87.0652L117.909 90.1023L115.652 91.4053L110.781 88.5936C110.283 88.3062 109.752 88.1494 109.186 88.1233C108.632 88.0906 108.094 88.2245 107.574 88.525C107.099 88.7993 106.884 89.1128 106.929 89.4655C106.974 89.8182 107.246 90.1382 107.743 90.4256Z" fill="#444444"/>
<path d="M116.721 84.8708L120.454 82.7155C119.968 82.4607 119.408 82.3334 118.774 82.3334C118.152 82.3268 117.541 82.4966 116.941 82.8428C116.398 83.1563 116.127 83.509 116.127 83.9009C116.127 84.2928 116.325 84.6161 116.721 84.8708ZM122.847 83.8421L125.291 83.0779C125.834 83.6527 126.02 84.2765 125.851 84.9492C125.692 85.6154 125.121 86.2326 124.137 86.8008C122.937 87.4932 121.518 87.8491 119.877 87.8687C118.225 87.8818 116.721 87.4964 115.363 86.7127C114.073 85.9681 113.428 85.1255 113.428 84.185C113.417 83.238 113.966 82.4444 115.074 81.8043C116.364 81.0597 117.756 80.7005 119.249 80.7266C120.754 80.7462 122.179 81.1446 123.526 81.9219C123.616 81.9741 123.712 82.0362 123.814 82.108C123.927 82.1733 124.018 82.2256 124.086 82.2648L124.188 82.3432L118.214 85.7917C118.78 86.0922 119.447 86.2293 120.217 86.2032C120.986 86.1771 121.653 86.0007 122.219 85.6742C123.181 85.119 123.39 84.5083 122.847 83.8421Z" fill="#444444"/>
<path d="M126.542 82.4339L128.052 81.0721C128.437 81.2681 128.884 81.3628 129.393 81.3563C129.902 81.3367 130.389 81.193 130.853 80.9252C131.203 80.7227 131.396 80.5202 131.43 80.3178C131.464 80.1153 131.362 79.9455 131.124 79.8083C130.705 79.5667 130.134 79.583 129.41 79.8573L128.052 80.3471C127.102 80.6998 126.208 80.8631 125.371 80.837C124.545 80.8043 123.827 80.6117 123.216 80.259C122.458 79.8214 122.107 79.2793 122.164 78.6327C122.232 77.9795 122.712 77.395 123.606 76.879C124.172 76.5524 124.754 76.314 125.354 76.1638C125.942 76.007 126.485 75.9352 126.983 75.9483C127.47 75.9548 127.905 75.9972 128.29 76.0756C128.675 76.154 129.008 76.2552 129.291 76.3793L127.832 77.7117C127.492 77.568 127.096 77.4962 126.644 77.4962C126.203 77.4897 125.767 77.6105 125.337 77.8587C125.043 78.0285 124.868 78.2212 124.811 78.4367C124.766 78.6457 124.862 78.8188 125.1 78.956C125.507 79.1911 126.01 79.1878 126.61 78.9462L128.052 78.4073C129.025 78.0416 129.947 77.8685 130.819 77.8881C131.701 77.9011 132.459 78.0906 133.093 78.4563C133.839 78.8874 134.201 79.423 134.179 80.063C134.156 80.7031 133.63 81.3203 132.601 81.9147C132.012 82.2543 131.401 82.509 130.768 82.6789C130.123 82.8421 129.535 82.9205 129.003 82.914C128.471 82.8944 128.002 82.8454 127.594 82.767C127.187 82.6756 126.836 82.5646 126.542 82.4339Z" fill="#444444"/>
<path d="M134.364 77.9181L135.875 76.5563C136.259 76.7522 136.706 76.8469 137.215 76.8404C137.725 76.8208 138.211 76.6771 138.675 76.4093C139.026 76.2069 139.218 76.0044 139.252 75.8019C139.286 75.5994 139.184 75.4296 138.946 75.2925C138.528 75.0508 137.957 75.0671 137.232 75.3414L135.875 75.8313C134.924 76.184 134.031 76.3473 133.193 76.3212C132.368 76.2885 131.649 76.0958 131.038 75.7431C130.28 75.3055 129.929 74.7634 129.986 74.1168C130.054 73.4637 130.535 72.8791 131.429 72.3631C131.994 72.0366 132.577 71.7982 133.176 71.6479C133.765 71.4912 134.308 71.4193 134.806 71.4324C135.292 71.4389 135.728 71.4814 136.112 71.5598C136.497 71.6381 136.831 71.7394 137.114 71.8635L135.654 73.1959C135.315 73.0522 134.919 72.9803 134.466 72.9803C134.025 72.9738 133.589 73.0946 133.16 73.3428C132.865 73.5127 132.69 73.7053 132.633 73.9209C132.588 74.1299 132.684 74.3029 132.922 74.4401C133.329 74.6752 133.833 74.672 134.432 74.4303L135.875 73.8915C136.848 73.5257 137.77 73.3526 138.641 73.3722C139.523 73.3853 140.281 73.5747 140.915 73.9405C141.662 74.3715 142.024 74.9071 142.001 75.5472C141.979 76.1873 141.452 76.8045 140.423 77.3988C139.835 77.7385 139.224 77.9932 138.59 78.163C137.945 78.3263 137.357 78.4047 136.825 78.3981C136.293 78.3785 135.824 78.3296 135.417 78.2512C135.009 78.1597 134.659 78.0487 134.364 77.9181Z" fill="#444444"/>
<path d="M149.231 69.2182C150.068 69.2182 150.781 69.0484 151.369 68.7087C151.957 68.3691 152.246 67.9609 152.235 67.4841C152.235 67.0008 151.861 66.5436 151.114 66.1125C150.368 65.6814 149.576 65.4659 148.739 65.4659C147.913 65.4594 147.206 65.6259 146.617 65.9655C146.029 66.3052 145.735 66.7166 145.735 67.2C145.746 67.6768 146.125 68.1307 146.872 68.5618C147.619 68.9928 148.405 69.2116 149.231 69.2182ZM142.68 67.3175C142.68 66.3509 143.308 65.5051 144.564 64.7801C145.82 64.0551 147.279 63.6959 148.942 63.7024C150.617 63.7024 152.093 64.0714 153.372 64.8095C154.65 65.5475 155.289 66.3999 155.289 67.3665C155.301 68.3266 154.678 69.1692 153.422 69.8942C152.167 70.6192 150.702 70.9817 149.027 70.9817C147.364 70.9751 145.893 70.6028 144.615 69.8648C143.336 69.1267 142.691 68.2777 142.68 67.3175Z" fill="#444444"/>
<path d="M152.777 57.9419C152.461 58.1247 152.274 58.337 152.217 58.5787C152.161 58.8073 152.342 59.0424 152.76 59.2841L153.677 59.8131L155.561 58.7256L157.495 59.8425L155.611 60.93L162.026 64.6333L159.752 65.9461L153.337 62.2428L151.946 63.0462L150.011 61.9293L151.403 61.1259L150.452 60.5773C149.513 60.0352 149.033 59.4441 149.01 58.804C148.999 58.1574 149.457 57.5663 150.385 57.0307C150.882 56.7433 151.312 56.5605 151.674 56.4821L153.575 57.5794C153.326 57.6577 153.06 57.7786 152.777 57.9419Z" fill="#444444"/>
<path d="M167.109 56.0558L164.445 55.7129L164.852 52.617L160.033 55.3994L158.013 54.2335L165.803 49.7366L167.686 50.8241L167.211 53.8416C168.116 53.3583 169.191 53.1166 170.435 53.1166C171.68 53.1036 172.789 53.3779 173.762 53.9396C174.757 54.5143 175.232 55.2328 175.187 56.0949C175.131 56.9506 174.463 57.7474 173.185 58.4854C171.952 59.1974 170.611 59.5795 169.163 59.6317C167.703 59.6774 166.453 59.439 165.412 58.9165L167.228 57.3588C167.816 57.6723 168.473 57.829 169.197 57.829C169.932 57.8225 170.588 57.6527 171.165 57.3196C171.731 56.993 172.025 56.6403 172.048 56.2615C172.07 55.8827 171.844 55.5561 171.369 55.2818C170.86 54.9879 170.294 54.8572 169.672 54.8899C169.05 54.9095 168.473 55.0728 167.941 55.3798C167.59 55.5822 167.313 55.8076 167.109 56.0558Z" fill="#444444"/>
<path d="M184.365 55.4598L182.108 56.7628L170.534 50.0812L172.724 48.8174L173.742 49.4052C173.606 49.0917 173.651 48.739 173.878 48.3471C174.093 47.9487 174.5 47.5764 175.099 47.2303C176.287 46.5445 177.634 46.2375 179.138 46.3093C180.632 46.3746 182.018 46.7763 183.296 47.5144C184.575 48.2524 185.259 49.0721 185.35 49.9734C185.452 50.8682 184.92 51.652 183.754 52.3247C182.646 52.9648 181.503 53.2326 180.326 53.1281L184.365 55.4598ZM182.227 50.1498C182.193 49.673 181.814 49.2256 181.09 48.8076C180.366 48.3896 179.597 48.174 178.782 48.161C177.979 48.1414 177.277 48.3047 176.678 48.6508C176.078 48.997 175.795 49.4085 175.829 49.8853C175.852 50.3555 176.22 50.7964 176.932 51.2079C177.645 51.6194 178.414 51.8349 179.24 51.8545C180.066 51.8741 180.779 51.7108 181.379 51.3646C181.978 51.0185 182.261 50.6135 182.227 50.1498Z" fill="#444444"/>
<path d="M187.959 49.6624L186.737 45.528L179.609 44.8422L182.291 43.2943C182.551 43.3269 183.247 43.4086 184.378 43.5392C185.509 43.6568 186.194 43.7319 186.432 43.7645L185.6 41.3838L188.163 39.9045L189.334 43.9507L196.614 44.6659L193.966 46.1942L189.656 45.7239C189.69 45.8089 189.769 46.044 189.894 46.4293C190.029 46.8082 190.154 47.1674 190.267 47.507C190.38 47.8336 190.459 48.0622 190.504 48.1928L187.959 49.6624Z" fill="#444444"/>
<path d="M197.874 43.5468C197.342 43.5402 196.872 43.4194 196.465 43.1843C196.058 42.9492 195.865 42.6683 195.888 42.3417C195.911 42.0152 196.143 41.7245 196.584 41.4698C197.093 41.1759 197.687 41.0485 198.366 41.0877C199.033 41.1204 199.65 41.3 200.215 41.6265C201.347 42.2797 201.913 42.9655 201.913 43.6839C201.924 44.3959 201.596 44.9968 200.928 45.4866L199.842 44.8596C200.159 44.5722 200.306 44.2326 200.283 43.8407C200.272 43.4553 200.051 43.132 199.622 42.8708C199.599 42.9622 199.486 43.0667 199.282 43.1843C198.864 43.4259 198.394 43.5468 197.874 43.5468Z" fill="#444444"/>
<path d="M204.706 32.4702C204.106 32.8164 203.812 33.2279 203.823 33.7047C203.835 34.1815 204.202 34.6289 204.926 35.0469C205.65 35.4649 206.431 35.6804 207.268 35.6935C208.106 35.6935 208.824 35.5204 209.424 35.1742C209.955 34.8672 210.244 34.544 210.289 34.2043C210.323 33.8582 210.204 33.5414 209.933 33.254L212.58 32.4898C213.146 33.0515 213.366 33.6883 213.242 34.4003C213.118 35.1122 212.535 35.7686 211.494 36.3695C210.25 37.0879 208.784 37.4504 207.099 37.457C205.413 37.4504 203.936 37.0814 202.669 36.3499C201.391 35.6118 200.746 34.7628 200.735 33.8026C200.735 32.836 201.346 32 202.568 31.2946C203.631 30.6806 204.779 30.3377 206.013 30.2659C207.234 30.1875 208.332 30.3181 209.305 30.6578L207.964 32.2155C206.754 31.8302 205.667 31.9151 204.706 32.4702Z" fill="#444444"/>
<path d="M216.533 30.3646C217.37 30.3646 218.083 30.1948 218.671 29.8552C219.26 29.5155 219.548 29.1073 219.537 28.6305C219.537 28.1472 219.163 27.69 218.417 27.2589C217.67 26.8279 216.878 26.6123 216.041 26.6123C215.215 26.6058 214.508 26.7723 213.919 27.112C213.331 27.4516 213.037 27.8631 213.037 28.3464C213.048 28.8232 213.427 29.2771 214.174 29.7082C214.921 30.1393 215.707 30.3581 216.533 30.3646ZM209.982 28.464C209.982 27.4973 210.61 26.6515 211.866 25.9265C213.122 25.2015 214.581 24.8423 216.244 24.8488C217.919 24.8488 219.395 25.2179 220.674 25.9559C221.952 26.694 222.591 27.5463 222.591 28.513C222.603 29.4731 221.981 30.3156 220.725 31.0406C219.469 31.7656 218.004 32.1281 216.329 32.1281C214.666 32.1216 213.195 31.7493 211.917 31.0112C210.639 30.2732 209.994 29.4241 209.982 28.464Z" fill="#444444"/>
<path d="M228.887 26.0345L226.63 27.3375L214.343 20.2444L216.601 18.9413L228.887 26.0345Z" fill="#444444"/>
<path d="M231.117 21.9452C231.954 21.9452 232.667 21.7754 233.255 21.4358C233.844 21.0961 234.132 20.6879 234.121 20.2111C234.121 19.7278 233.747 19.2706 233.001 18.8395C232.254 18.4085 231.462 18.1929 230.625 18.1929C229.799 18.1864 229.092 18.353 228.504 18.6926C227.915 19.0322 227.621 19.4437 227.621 19.927C227.632 20.4038 228.011 20.8578 228.758 21.2888C229.505 21.7199 230.291 21.9387 231.117 21.9452ZM224.566 20.0446C224.566 19.0779 225.194 18.2321 226.45 17.5071C227.706 16.7822 229.165 16.4229 230.829 16.4295C232.503 16.4295 233.979 16.7985 235.258 17.5365C236.536 18.2746 237.176 19.1269 237.176 20.0936C237.187 21.0537 236.565 21.8962 235.309 22.6212C234.053 23.3462 232.588 23.7087 230.913 23.7087C229.25 23.7022 227.779 23.3299 226.501 22.5918C225.223 21.8538 224.578 21.0047 224.566 20.0446Z" fill="#444444"/>
<path d="M237.922 11.1392L240.196 12.452C239.924 12.5565 239.676 12.6741 239.449 12.8047C238.804 13.177 238.471 13.5852 238.448 14.0293C238.414 14.4669 238.816 14.9274 239.653 15.4107L243.471 17.6151L241.214 18.9181L232.865 14.0979L235.054 12.8341L236.293 13.5493C235.829 12.8112 236.185 12.1026 237.362 11.4233C237.486 11.3514 237.673 11.2567 237.922 11.1392Z" fill="#444444"/>
<path d="M254.293 11.3675L252.036 12.6705L243.687 7.85033L245.944 6.54732L254.293 11.3675ZM240.683 6.42975C240.298 6.20768 240.106 5.9399 240.106 5.62639C240.095 5.30635 240.281 5.0353 240.666 4.81323C241.051 4.59116 241.515 4.48013 242.058 4.48013C242.601 4.48013 243.07 4.59442 243.466 4.82302C243.84 5.03856 244.026 5.30309 244.026 5.61659C244.026 5.9301 243.834 6.19789 243.449 6.41996C243.065 6.64202 242.601 6.75306 242.058 6.75306C241.515 6.75306 241.056 6.64528 240.683 6.42975Z" fill="#444444"/>
<path d="M248.649 2.10539L251.144 3.54557L252.824 2.57566L254.826 3.73172L253.146 4.70163L256.642 6.71983C256.993 6.9223 257.321 7.02028 257.626 7.01374C257.932 7.00721 258.254 6.90598 258.594 6.71003C258.899 6.53369 259.108 6.38674 259.221 6.26917L261.088 7.34685C260.896 7.61464 260.54 7.89875 260.019 8.1992C259.205 8.66946 258.333 8.91112 257.406 8.92418C256.467 8.93071 255.595 8.70211 254.792 8.23838L250.906 5.99484L249.396 6.86679L247.393 5.71073L247.817 5.4658C248.236 5.22414 248.434 4.97269 248.411 4.71143C248.389 4.43711 248.179 4.18565 247.783 3.95705L246.612 3.28105L248.649 2.10539Z" fill="#444444"/>
<path d="M29.7025 157.352L27.5133 158.616L15.2266 151.523L17.4498 150.24L22.3034 153.042C22.1902 152.741 22.2468 152.402 22.4731 152.023C22.6993 151.631 23.1066 151.265 23.695 150.925C24.8829 150.24 26.2292 149.933 27.7339 150.004C29.2387 150.076 30.6303 150.481 31.9087 151.219C33.1872 151.957 33.8829 152.777 33.9961 153.678C34.0979 154.573 33.5605 155.36 32.3839 156.039C31.2412 156.699 30.008 156.941 28.6843 156.764L29.7025 157.352ZM30.8226 153.884C30.7886 153.407 30.404 152.957 29.6686 152.532C28.9332 152.108 28.1582 151.889 27.3436 151.876C26.5404 151.856 25.8389 152.019 25.2393 152.366C24.6396 152.712 24.3511 153.12 24.3738 153.59C24.3964 154.06 24.7754 154.508 25.5108 154.932C26.2462 155.357 27.0268 155.579 27.8527 155.599C28.6786 155.605 29.3857 155.439 29.9741 155.099C30.5737 154.753 30.8565 154.348 30.8226 153.884Z" fill="#444444"/>
<path d="M40.1616 151.314L37.9045 152.617L25.6178 145.524L27.8749 144.221L40.1616 151.314Z" fill="#444444"/>
<path d="M48.0094 146.784C47.7379 146.679 47.4154 146.519 47.0421 146.304C47.2005 146.643 47.1609 146.993 46.9233 147.352C46.6857 147.698 46.3293 148.008 45.8541 148.283C44.8698 148.851 43.7837 149.119 42.5958 149.086C41.3965 149.047 40.3274 148.756 39.3883 148.214L34.1105 145.167L36.3676 143.864L41.1872 146.647C41.685 146.934 42.2224 147.094 42.7994 147.127C43.3651 147.153 43.8969 147.022 44.3947 146.735C44.8812 146.454 45.1187 146.147 45.1074 145.814C45.0848 145.474 44.8246 145.161 44.3268 144.873L39.4732 142.071L41.7303 140.768L48.5694 144.717C49.1012 145.024 49.6329 145.298 50.1647 145.54L48.0094 146.784Z" fill="#444444"/>
<path d="M48.9765 140.308L52.71 138.153C52.2235 137.898 51.6635 137.771 51.0299 137.771C50.4076 137.764 49.7967 137.934 49.1971 138.28C48.654 138.594 48.3825 138.946 48.3825 139.338C48.3825 139.73 48.5805 140.053 48.9765 140.308ZM55.1028 139.279L57.5466 138.515C58.0896 139.09 58.2763 139.714 58.1066 140.386C57.9482 141.053 57.3769 141.67 56.3926 142.238C55.1933 142.93 53.7735 143.286 52.133 143.306C50.4812 143.319 48.9765 142.934 47.6188 142.15C46.329 141.405 45.6842 140.563 45.6842 139.622C45.6728 138.675 46.2216 137.882 47.3303 137.242C48.6201 136.497 50.0117 136.138 51.5051 136.164C53.0098 136.183 54.4353 136.582 55.7816 137.359C55.8722 137.411 55.9683 137.473 56.0701 137.545C56.1833 137.611 56.2738 137.663 56.3417 137.702L56.4435 137.78L50.4699 141.229C51.0355 141.529 51.7031 141.667 52.4724 141.64C53.2417 141.614 53.9092 141.438 54.4749 141.111C55.4366 140.556 55.6459 139.946 55.1028 139.279Z" fill="#444444"/>
</svg>
