<svg id="eFh4Q2Wslqc1" xmlns="http://www.w3.org/2000/svg" xmlns:xlink="http://www.w3.org/1999/xlink" viewBox="0 0 1000 202" shape-rendering="geometricPrecision" text-rendering="geometricPrecision">
<style><![CDATA[
#eFh4Q2Wslqc2 {animation: eFh4Q2Wslqc2_c_o 10000ms linear infinite normal forwards}@keyframes eFh4Q2Wslqc2_c_o { 0% {opacity: 0;animation-timing-function: cubic-bezier(0.85,0.015,0.16,0.98)} 3% {opacity: 1} 95% {opacity: 1} 100% {opacity: 0}} #eFh4Q2Wslqc5_to {animation: eFh4Q2Wslqc5_to__to 10000ms linear infinite normal forwards}@keyframes eFh4Q2Wslqc5_to__to { 0% {transform: translate(80.072502px,267.658001px)} 6% {transform: translate(80.072502px,267.658001px);animation-timing-function: cubic-bezier(0.85,0.015,0.16,0.98)} 10% {transform: translate(80.072502px,67.658001px)} 100% {transform: translate(80.072502px,67.658001px)}} #eFh4Q2Wslqc5_ts {animation: eFh4Q2Wslqc5_ts__ts 10000ms linear infinite normal forwards}@keyframes eFh4Q2Wslqc5_ts__ts { 0% {transform: scale(0,0)} 6% {transform: scale(0,0)} 10% {transform: scale(1,1)} 100% {transform: scale(1,1)}} #eFh4Q2Wslqc5 {animation: eFh4Q2Wslqc5_c_o 10000ms linear infinite normal forwards}@keyframes eFh4Q2Wslqc5_c_o { 0% {opacity: 0} 6% {opacity: 0;animation-timing-function: cubic-bezier(0.85,0.015,0.16,0.98)} 10% {opacity: 1} 95% {opacity: 1} 100% {opacity: 0}} #eFh4Q2Wslqc15_to {animation: eFh4Q2Wslqc15_to__to 10000ms linear infinite normal forwards}@keyframes eFh4Q2Wslqc15_to__to { 0% {transform: translate(247.791001px,225.010199px)} 14.9% {transform: translate(247.791001px,225.010199px);animation-timing-function: cubic-bezier(0.85,0.015,0.16,0.98)} 19% {transform: translate(247.791001px,55.010199px)} 100% {transform: translate(247.791001px,55.010199px)}} #eFh4Q2Wslqc15_ts {animation: eFh4Q2Wslqc15_ts__ts 10000ms linear infinite normal forwards}@keyframes eFh4Q2Wslqc15_ts__ts { 0% {transform: scale(0,1)} 15% {transform: scale(0,1);animation-timing-function: cubic-bezier(0.85,0.015,0.16,0.98)} 19% {transform: scale(1,1)} 100% {transform: scale(1,1)}} #eFh4Q2Wslqc15 {animation: eFh4Q2Wslqc15_c_o 10000ms linear infinite normal forwards}@keyframes eFh4Q2Wslqc15_c_o { 0% {opacity: 0} 15% {opacity: 0;animation-timing-function: cubic-bezier(0.85,0.015,0.16,0.98)} 19% {opacity: 1} 95% {opacity: 1} 100% {opacity: 0}} #eFh4Q2Wslqc25_to {animation: eFh4Q2Wslqc25_to__to 10000ms linear infinite normal forwards}@keyframes eFh4Q2Wslqc25_to__to { 0% {transform: translate(415.500504px,259.658001px)} 32% {transform: translate(415.500504px,259.658001px);animation-timing-function: cubic-bezier(0.85,0.015,0.16,0.98)} 36% {transform: translate(415.500504px,67.658001px)} 100% {transform: translate(415.500504px,67.658001px)}} #eFh4Q2Wslqc25_ts {animation: eFh4Q2Wslqc25_ts__ts 10000ms linear infinite normal forwards}@keyframes eFh4Q2Wslqc25_ts__ts { 0% {transform: scale(0,1)} 32% {transform: scale(0,1);animation-timing-function: cubic-bezier(0.85,0.015,0.16,0.98)} 36% {transform: scale(1,1)} 100% {transform: scale(1,1)}} #eFh4Q2Wslqc25 {animation: eFh4Q2Wslqc25_c_o 10000ms linear infinite normal forwards}@keyframes eFh4Q2Wslqc25_c_o { 0% {opacity: 0} 32% {opacity: 0;animation-timing-function: cubic-bezier(0.85,0.015,0.16,0.98)} 36% {opacity: 1} 95% {opacity: 1} 100% {opacity: 0}} #eFh4Q2Wslqc38_to {animation: eFh4Q2Wslqc38_to__to 10000ms linear infinite normal forwards}@keyframes eFh4Q2Wslqc38_to__to { 0% {transform: translate(746.729004px,259.658001px)} 61% {transform: translate(746.729004px,259.658001px);animation-timing-function: cubic-bezier(0.85,0.015,0.16,0.98)} 66% {transform: translate(746.729004px,67.658001px)} 100% {transform: translate(746.729004px,67.658001px)}} #eFh4Q2Wslqc38_ts {animation: eFh4Q2Wslqc38_ts__ts 10000ms linear infinite normal forwards}@keyframes eFh4Q2Wslqc38_ts__ts { 0% {transform: scale(0,1)} 61% {transform: scale(0,1);animation-timing-function: cubic-bezier(0.85,0.015,0.16,0.98)} 66% {transform: scale(1,1)} 100% {transform: scale(1,1)}} #eFh4Q2Wslqc38 {animation: eFh4Q2Wslqc38_c_o 10000ms linear infinite normal forwards}@keyframes eFh4Q2Wslqc38_c_o { 0% {opacity: 0} 61% {opacity: 0;animation-timing-function: cubic-bezier(0.85,0.015,0.16,0.98)} 66% {opacity: 1} 95% {opacity: 1} 100% {opacity: 0}} #eFh4Q2Wslqc51 {animation: eFh4Q2Wslqc51_c_o 10000ms linear infinite normal forwards}@keyframes eFh4Q2Wslqc51_c_o { 0% {opacity: 0} 28% {opacity: 0;animation-timing-function: cubic-bezier(0.85,0.015,0.16,0.98)} 32% {opacity: 1} 95% {opacity: 1} 100% {opacity: 0}} #eFh4Q2Wslqc54 {animation: eFh4Q2Wslqc54_c_o 10000ms linear infinite normal forwards}@keyframes eFh4Q2Wslqc54_c_o { 0% {opacity: 0} 57% {opacity: 0;animation-timing-function: cubic-bezier(0.85,0.015,0.16,0.98)} 61% {opacity: 1} 95% {opacity: 1} 100% {opacity: 0}} #eFh4Q2Wslqc57_to {animation: eFh4Q2Wslqc57_to__to 10000ms linear infinite normal forwards}@keyframes eFh4Q2Wslqc57_to__to { 0% {transform: translate(574.928009px,230.010199px)} 43% {transform: translate(574.928009px,230.010199px);animation-timing-function: cubic-bezier(0.85,0.015,0.16,0.98)} 47% {transform: translate(574.928009px,55.010199px)} 100% {transform: translate(574.928009px,55.010199px)}} #eFh4Q2Wslqc57_ts {animation: eFh4Q2Wslqc57_ts__ts 10000ms linear infinite normal forwards}@keyframes eFh4Q2Wslqc57_ts__ts { 0% {transform: scale(0,1)} 43% {transform: scale(0,1);animation-timing-function: cubic-bezier(0.85,0.015,0.16,0.98)} 47% {transform: scale(1,1)} 100% {transform: scale(1,1)}} #eFh4Q2Wslqc57 {animation: eFh4Q2Wslqc57_c_o 10000ms linear infinite normal forwards}@keyframes eFh4Q2Wslqc57_c_o { 0% {opacity: 0} 43% {opacity: 0;animation-timing-function: cubic-bezier(0.85,0.015,0.16,0.98)} 47% {opacity: 1} 95% {opacity: 1} 100% {opacity: 0}} #eFh4Q2Wslqc67 {animation: eFh4Q2Wslqc67_c_o 10000ms linear infinite normal forwards}@keyframes eFh4Q2Wslqc67_c_o { 0% {opacity: 0} 78% {opacity: 0} 90% {opacity: 1} 95% {opacity: 1} 100% {opacity: 0}} #eFh4Q2Wslqc78 {animation: eFh4Q2Wslqc78_c_o 10000ms linear infinite normal forwards}@keyframes eFh4Q2Wslqc78_c_o { 0% {opacity: 0} 69% {opacity: 0} 80% {opacity: 1} 95% {opacity: 1} 100% {opacity: 0}} #eFh4Q2Wslqc80 {animation: eFh4Q2Wslqc80_c_o 10000ms linear infinite normal forwards}@keyframes eFh4Q2Wslqc80_c_o { 0% {opacity: 0} 48% {opacity: 0;animation-timing-function: cubic-bezier(0.85,0.015,0.16,0.98)} 52% {opacity: 1} 95% {opacity: 1} 100% {opacity: 0}} #eFh4Q2Wslqc89 {animation: eFh4Q2Wslqc89_c_o 10000ms linear infinite normal forwards}@keyframes eFh4Q2Wslqc89_c_o { 0% {opacity: 0} 78% {opacity: 0} 90% {opacity: 1} 95% {opacity: 1} 100% {opacity: 0}} #eFh4Q2Wslqc95 {animation: eFh4Q2Wslqc95_c_o 10000ms linear infinite normal forwards}@keyframes eFh4Q2Wslqc95_c_o { 0% {opacity: 0} 19% {opacity: 0;animation-timing-function: cubic-bezier(0.85,0.015,0.16,0.98)} 23% {opacity: 1} 95% {opacity: 1} 100% {opacity: 0}}
]]></style>
<defs><linearGradient id="eFh4Q2Wslqc3-fill" x1="125.46" y1="125.3" x2="68.9481" y2="203.044" spreadMethod="pad" gradientUnits="userSpaceOnUse" gradientTransform="translate(0 0)"><stop id="eFh4Q2Wslqc3-fill-0" offset="0%" stop-color="#003e06"/><stop id="eFh4Q2Wslqc3-fill-1" offset="100%" stop-color="#00cb14"/></linearGradient><linearGradient id="eFh4Q2Wslqc4-fill" x1="125.46" y1="125.3" x2="68.9481" y2="203.044" spreadMethod="pad" gradientUnits="userSpaceOnUse" gradientTransform="translate(0 0)"><stop id="eFh4Q2Wslqc4-fill-0" offset="0%" stop-color="#003e06"/><stop id="eFh4Q2Wslqc4-fill-1" offset="100%" stop-color="#00cb14"/></linearGradient><linearGradient id="eFh4Q2Wslqc6-fill" x1="142.909" y1="22.6303" x2="100.446" y2="111.042" spreadMethod="pad" gradientUnits="userSpaceOnUse" gradientTransform="translate(0 0)"><stop id="eFh4Q2Wslqc6-fill-0" offset="0%" stop-color="#003e06"/><stop id="eFh4Q2Wslqc6-fill-1" offset="100%" stop-color="#00cb14"/></linearGradient><linearGradient id="eFh4Q2Wslqc7-fill" x1="142.909" y1="22.6303" x2="100.446" y2="111.042" spreadMethod="pad" gradientUnits="userSpaceOnUse" gradientTransform="translate(0 0)"><stop id="eFh4Q2Wslqc7-fill-0" offset="0%" stop-color="#003e06"/><stop id="eFh4Q2Wslqc7-fill-1" offset="100%" stop-color="#00cb14"/></linearGradient><linearGradient id="eFh4Q2Wslqc8-fill" x1="142.909" y1="22.6303" x2="100.446" y2="111.042" spreadMethod="pad" gradientUnits="userSpaceOnUse" gradientTransform="translate(0 0)"><stop id="eFh4Q2Wslqc8-fill-0" offset="0%" stop-color="#003e06"/><stop id="eFh4Q2Wslqc8-fill-1" offset="100%" stop-color="#00cb14"/></linearGradient><linearGradient id="eFh4Q2Wslqc9-fill" x1="142.909" y1="22.6303" x2="100.446" y2="111.042" spreadMethod="pad" gradientUnits="userSpaceOnUse" gradientTransform="translate(0 0)"><stop id="eFh4Q2Wslqc9-fill-0" offset="0%" stop-color="#003e06"/><stop id="eFh4Q2Wslqc9-fill-1" offset="100%" stop-color="#00cb14"/></linearGradient><linearGradient id="eFh4Q2Wslqc10-fill" x1="142.909" y1="22.6303" x2="100.446" y2="111.042" spreadMethod="pad" gradientUnits="userSpaceOnUse" gradientTransform="translate(0 0)"><stop id="eFh4Q2Wslqc10-fill-0" offset="0%" stop-color="#003e06"/><stop id="eFh4Q2Wslqc10-fill-1" offset="100%" stop-color="#00cb14"/></linearGradient><linearGradient id="eFh4Q2Wslqc11-fill" x1="142.909" y1="22.6303" x2="100.446" y2="111.042" spreadMethod="pad" gradientUnits="userSpaceOnUse" gradientTransform="translate(0 0)"><stop id="eFh4Q2Wslqc11-fill-0" offset="0%" stop-color="#003e06"/><stop id="eFh4Q2Wslqc11-fill-1" offset="100%" stop-color="#00cb14"/></linearGradient><linearGradient id="eFh4Q2Wslqc12-fill" x1="142.909" y1="22.6303" x2="100.446" y2="111.042" spreadMethod="pad" gradientUnits="userSpaceOnUse" gradientTransform="translate(0 0)"><stop id="eFh4Q2Wslqc12-fill-0" offset="0%" stop-color="#003e06"/><stop id="eFh4Q2Wslqc12-fill-1" offset="100%" stop-color="#00cb14"/></linearGradient><linearGradient id="eFh4Q2Wslqc13-fill" x1="142.909" y1="22.6303" x2="100.446" y2="111.042" spreadMethod="pad" gradientUnits="userSpaceOnUse" gradientTransform="translate(0 0)"><stop id="eFh4Q2Wslqc13-fill-0" offset="0%" stop-color="#003e06"/><stop id="eFh4Q2Wslqc13-fill-1" offset="100%" stop-color="#00cb14"/></linearGradient><linearGradient id="eFh4Q2Wslqc14-stroke" x1="150.249" y1="10" x2="13.6361" y2="116.226" spreadMethod="pad" gradientUnits="userSpaceOnUse" gradientTransform="translate(0 0)"><stop id="eFh4Q2Wslqc14-stroke-0" offset="0%" stop-color="#015809"/><stop id="eFh4Q2Wslqc14-stroke-1" offset="100%" stop-color="#01c414"/></linearGradient><linearGradient id="eFh4Q2Wslqc16-fill" x1="210.02" y1="80.0093" x2="290.913" y2="69.1132" spreadMethod="pad" gradientUnits="userSpaceOnUse" gradientTransform="translate(0 0)"><stop id="eFh4Q2Wslqc16-fill-0" offset="0%" stop-color="#c85400"/><stop id="eFh4Q2Wslqc16-fill-1" offset="100%" stop-color="#c00000"/></linearGradient><linearGradient id="eFh4Q2Wslqc17-fill" x1="210.02" y1="80.0093" x2="290.913" y2="69.1132" spreadMethod="pad" gradientUnits="userSpaceOnUse" gradientTransform="translate(0 0)"><stop id="eFh4Q2Wslqc17-fill-0" offset="0%" stop-color="#c85400"/><stop id="eFh4Q2Wslqc17-fill-1" offset="100%" stop-color="#c00000"/></linearGradient><linearGradient id="eFh4Q2Wslqc18-fill" x1="210.02" y1="80.0093" x2="290.913" y2="69.1132" spreadMethod="pad" gradientUnits="userSpaceOnUse" gradientTransform="translate(0 0)"><stop id="eFh4Q2Wslqc18-fill-0" offset="0%" stop-color="#c85400"/><stop id="eFh4Q2Wslqc18-fill-1" offset="100%" stop-color="#c00000"/></linearGradient><linearGradient id="eFh4Q2Wslqc19-fill" x1="210.02" y1="80.0093" x2="290.913" y2="69.1132" spreadMethod="pad" gradientUnits="userSpaceOnUse" gradientTransform="translate(0 0)"><stop id="eFh4Q2Wslqc19-fill-0" offset="0%" stop-color="#c85400"/><stop id="eFh4Q2Wslqc19-fill-1" offset="100%" stop-color="#c00000"/></linearGradient><linearGradient id="eFh4Q2Wslqc20-fill" x1="210.02" y1="80.0093" x2="290.913" y2="69.1132" spreadMethod="pad" gradientUnits="userSpaceOnUse" gradientTransform="translate(0 0)"><stop id="eFh4Q2Wslqc20-fill-0" offset="0%" stop-color="#c85400"/><stop id="eFh4Q2Wslqc20-fill-1" offset="100%" stop-color="#c00000"/></linearGradient><linearGradient id="eFh4Q2Wslqc21-fill" x1="210.02" y1="80.0093" x2="290.913" y2="69.1132" spreadMethod="pad" gradientUnits="userSpaceOnUse" gradientTransform="translate(0 0)"><stop id="eFh4Q2Wslqc21-fill-0" offset="0%" stop-color="#c85400"/><stop id="eFh4Q2Wslqc21-fill-1" offset="100%" stop-color="#c00000"/></linearGradient><linearGradient id="eFh4Q2Wslqc22-fill" x1="210.02" y1="80.0093" x2="290.913" y2="69.1132" spreadMethod="pad" gradientUnits="userSpaceOnUse" gradientTransform="translate(0 0)"><stop id="eFh4Q2Wslqc22-fill-0" offset="0%" stop-color="#c85400"/><stop id="eFh4Q2Wslqc22-fill-1" offset="100%" stop-color="#c00000"/></linearGradient><linearGradient id="eFh4Q2Wslqc23-fill" x1="210.02" y1="80.0093" x2="290.913" y2="69.1132" spreadMethod="pad" gradientUnits="userSpaceOnUse" gradientTransform="translate(0 0)"><stop id="eFh4Q2Wslqc23-fill-0" offset="0%" stop-color="#c85400"/><stop id="eFh4Q2Wslqc23-fill-1" offset="100%" stop-color="#c00000"/></linearGradient><linearGradient id="eFh4Q2Wslqc24-fill" x1="210.02" y1="80.0093" x2="290.913" y2="69.1132" spreadMethod="pad" gradientUnits="userSpaceOnUse" gradientTransform="translate(0 0)"><stop id="eFh4Q2Wslqc24-fill-0" offset="0%" stop-color="#c85400"/><stop id="eFh4Q2Wslqc24-fill-1" offset="100%" stop-color="#c00000"/></linearGradient><linearGradient id="eFh4Q2Wslqc26-fill" x1="376.672" y1="80.0093" x2="459.612" y2="68.544" spreadMethod="pad" gradientUnits="userSpaceOnUse" gradientTransform="translate(0 0)"><stop id="eFh4Q2Wslqc26-fill-0" offset="0%" stop-color="#c85400"/><stop id="eFh4Q2Wslqc26-fill-1" offset="100%" stop-color="#c00000"/></linearGradient><linearGradient id="eFh4Q2Wslqc27-fill" x1="376.672" y1="80.0093" x2="459.612" y2="68.544" spreadMethod="pad" gradientUnits="userSpaceOnUse" gradientTransform="translate(0 0)"><stop id="eFh4Q2Wslqc27-fill-0" offset="0%" stop-color="#c85400"/><stop id="eFh4Q2Wslqc27-fill-1" offset="100%" stop-color="#c00000"/></linearGradient><linearGradient id="eFh4Q2Wslqc28-fill" x1="376.672" y1="80.0093" x2="459.612" y2="68.544" spreadMethod="pad" gradientUnits="userSpaceOnUse" gradientTransform="translate(0 0)"><stop id="eFh4Q2Wslqc28-fill-0" offset="0%" stop-color="#c85400"/><stop id="eFh4Q2Wslqc28-fill-1" offset="100%" stop-color="#c00000"/></linearGradient><linearGradient id="eFh4Q2Wslqc29-fill" x1="376.672" y1="80.0093" x2="459.612" y2="68.544" spreadMethod="pad" gradientUnits="userSpaceOnUse" gradientTransform="translate(0 0)"><stop id="eFh4Q2Wslqc29-fill-0" offset="0%" stop-color="#c85400"/><stop id="eFh4Q2Wslqc29-fill-1" offset="100%" stop-color="#c00000"/></linearGradient><linearGradient id="eFh4Q2Wslqc30-fill" x1="376.672" y1="80.0093" x2="459.612" y2="68.544" spreadMethod="pad" gradientUnits="userSpaceOnUse" gradientTransform="translate(0 0)"><stop id="eFh4Q2Wslqc30-fill-0" offset="0%" stop-color="#c85400"/><stop id="eFh4Q2Wslqc30-fill-1" offset="100%" stop-color="#c00000"/></linearGradient><linearGradient id="eFh4Q2Wslqc31-fill" x1="376.672" y1="80.0093" x2="459.612" y2="68.544" spreadMethod="pad" gradientUnits="userSpaceOnUse" gradientTransform="translate(0 0)"><stop id="eFh4Q2Wslqc31-fill-0" offset="0%" stop-color="#c85400"/><stop id="eFh4Q2Wslqc31-fill-1" offset="100%" stop-color="#c00000"/></linearGradient><linearGradient id="eFh4Q2Wslqc32-fill" x1="376.672" y1="80.0093" x2="459.612" y2="68.544" spreadMethod="pad" gradientUnits="userSpaceOnUse" gradientTransform="translate(0 0)"><stop id="eFh4Q2Wslqc32-fill-0" offset="0%" stop-color="#c85400"/><stop id="eFh4Q2Wslqc32-fill-1" offset="100%" stop-color="#c00000"/></linearGradient><linearGradient id="eFh4Q2Wslqc33-fill" x1="376.672" y1="80.0093" x2="459.612" y2="68.544" spreadMethod="pad" gradientUnits="userSpaceOnUse" gradientTransform="translate(0 0)"><stop id="eFh4Q2Wslqc33-fill-0" offset="0%" stop-color="#c85400"/><stop id="eFh4Q2Wslqc33-fill-1" offset="100%" stop-color="#c00000"/></linearGradient><linearGradient id="eFh4Q2Wslqc34-fill" x1="376.672" y1="80.0093" x2="459.612" y2="68.544" spreadMethod="pad" gradientUnits="userSpaceOnUse" gradientTransform="translate(0 0)"><stop id="eFh4Q2Wslqc34-fill-0" offset="0%" stop-color="#c85400"/><stop id="eFh4Q2Wslqc34-fill-1" offset="100%" stop-color="#c00000"/></linearGradient><linearGradient id="eFh4Q2Wslqc35-fill" x1="376.672" y1="80.0093" x2="459.612" y2="68.544" spreadMethod="pad" gradientUnits="userSpaceOnUse" gradientTransform="translate(0 0)"><stop id="eFh4Q2Wslqc35-fill-0" offset="0%" stop-color="#c85400"/><stop id="eFh4Q2Wslqc35-fill-1" offset="100%" stop-color="#c00000"/></linearGradient><linearGradient id="eFh4Q2Wslqc36-fill" x1="376.672" y1="80.0093" x2="459.612" y2="68.544" spreadMethod="pad" gradientUnits="userSpaceOnUse" gradientTransform="translate(0 0)"><stop id="eFh4Q2Wslqc36-fill-0" offset="0%" stop-color="#c85400"/><stop id="eFh4Q2Wslqc36-fill-1" offset="100%" stop-color="#c00000"/></linearGradient><linearGradient id="eFh4Q2Wslqc37-stroke" x1="333.61" y1="101.681" x2="566.32" y2="-38.5677" spreadMethod="pad" gradientUnits="userSpaceOnUse" gradientTransform="translate(0 0)"><stop id="eFh4Q2Wslqc37-stroke-0" offset="0%" stop-color="#c63b01"/><stop id="eFh4Q2Wslqc37-stroke-1" offset="100%" stop-color="#c10101"/></linearGradient><linearGradient id="eFh4Q2Wslqc39-fill" x1="708.032" y1="80.0093" x2="790.699" y2="68.6207" spreadMethod="pad" gradientUnits="userSpaceOnUse" gradientTransform="translate(0 0)"><stop id="eFh4Q2Wslqc39-fill-0" offset="0%" stop-color="#c85400"/><stop id="eFh4Q2Wslqc39-fill-1" offset="100%" stop-color="#c00000"/></linearGradient><linearGradient id="eFh4Q2Wslqc40-fill" x1="708.032" y1="80.0093" x2="790.699" y2="68.6207" spreadMethod="pad" gradientUnits="userSpaceOnUse" gradientTransform="translate(0 0)"><stop id="eFh4Q2Wslqc40-fill-0" offset="0%" stop-color="#c85400"/><stop id="eFh4Q2Wslqc40-fill-1" offset="100%" stop-color="#c00000"/></linearGradient><linearGradient id="eFh4Q2Wslqc41-fill" x1="708.032" y1="80.0093" x2="790.699" y2="68.6207" spreadMethod="pad" gradientUnits="userSpaceOnUse" gradientTransform="translate(0 0)"><stop id="eFh4Q2Wslqc41-fill-0" offset="0%" stop-color="#c85400"/><stop id="eFh4Q2Wslqc41-fill-1" offset="100%" stop-color="#c00000"/></linearGradient><linearGradient id="eFh4Q2Wslqc42-fill" x1="708.032" y1="80.0093" x2="790.699" y2="68.6207" spreadMethod="pad" gradientUnits="userSpaceOnUse" gradientTransform="translate(0 0)"><stop id="eFh4Q2Wslqc42-fill-0" offset="0%" stop-color="#c85400"/><stop id="eFh4Q2Wslqc42-fill-1" offset="100%" stop-color="#c00000"/></linearGradient><linearGradient id="eFh4Q2Wslqc43-fill" x1="708.032" y1="80.0093" x2="790.699" y2="68.6207" spreadMethod="pad" gradientUnits="userSpaceOnUse" gradientTransform="translate(0 0)"><stop id="eFh4Q2Wslqc43-fill-0" offset="0%" stop-color="#c85400"/><stop id="eFh4Q2Wslqc43-fill-1" offset="100%" stop-color="#c00000"/></linearGradient><linearGradient id="eFh4Q2Wslqc44-fill" x1="708.032" y1="80.0093" x2="790.699" y2="68.6207" spreadMethod="pad" gradientUnits="userSpaceOnUse" gradientTransform="translate(0 0)"><stop id="eFh4Q2Wslqc44-fill-0" offset="0%" stop-color="#c85400"/><stop id="eFh4Q2Wslqc44-fill-1" offset="100%" stop-color="#c00000"/></linearGradient><linearGradient id="eFh4Q2Wslqc45-fill" x1="708.032" y1="80.0093" x2="790.699" y2="68.6207" spreadMethod="pad" gradientUnits="userSpaceOnUse" gradientTransform="translate(0 0)"><stop id="eFh4Q2Wslqc45-fill-0" offset="0%" stop-color="#c85400"/><stop id="eFh4Q2Wslqc45-fill-1" offset="100%" stop-color="#c00000"/></linearGradient><linearGradient id="eFh4Q2Wslqc46-fill" x1="708.032" y1="80.0093" x2="790.699" y2="68.6207" spreadMethod="pad" gradientUnits="userSpaceOnUse" gradientTransform="translate(0 0)"><stop id="eFh4Q2Wslqc46-fill-0" offset="0%" stop-color="#c85400"/><stop id="eFh4Q2Wslqc46-fill-1" offset="100%" stop-color="#c00000"/></linearGradient><linearGradient id="eFh4Q2Wslqc47-fill" x1="708.032" y1="80.0093" x2="790.699" y2="68.6207" spreadMethod="pad" gradientUnits="userSpaceOnUse" gradientTransform="translate(0 0)"><stop id="eFh4Q2Wslqc47-fill-0" offset="0%" stop-color="#c85400"/><stop id="eFh4Q2Wslqc47-fill-1" offset="100%" stop-color="#c00000"/></linearGradient><linearGradient id="eFh4Q2Wslqc48-fill" x1="708.032" y1="80.0093" x2="790.699" y2="68.6207" spreadMethod="pad" gradientUnits="userSpaceOnUse" gradientTransform="translate(0 0)"><stop id="eFh4Q2Wslqc48-fill-0" offset="0%" stop-color="#c85400"/><stop id="eFh4Q2Wslqc48-fill-1" offset="100%" stop-color="#c00000"/></linearGradient><linearGradient id="eFh4Q2Wslqc49-fill" x1="708.032" y1="80.0093" x2="790.699" y2="68.6207" spreadMethod="pad" gradientUnits="userSpaceOnUse" gradientTransform="translate(0 0)"><stop id="eFh4Q2Wslqc49-fill-0" offset="0%" stop-color="#c85400"/><stop id="eFh4Q2Wslqc49-fill-1" offset="100%" stop-color="#c00000"/></linearGradient><linearGradient id="eFh4Q2Wslqc50-stroke" x1="664.839" y1="101.681" x2="897.548" y2="-38.5677" spreadMethod="pad" gradientUnits="userSpaceOnUse" gradientTransform="translate(0 0)"><stop id="eFh4Q2Wslqc50-stroke-0" offset="0%" stop-color="#c63b01"/><stop id="eFh4Q2Wslqc50-stroke-1" offset="100%" stop-color="#c10101"/></linearGradient><linearGradient id="eFh4Q2Wslqc52-fill" x1="387.524" y1="187.961" x2="448.026" y2="182.433" spreadMethod="pad" gradientUnits="userSpaceOnUse" gradientTransform="translate(0 0)"><stop id="eFh4Q2Wslqc52-fill-0" offset="0%" stop-color="#c85400"/><stop id="eFh4Q2Wslqc52-fill-1" offset="100%" stop-color="#c00000"/></linearGradient><linearGradient id="eFh4Q2Wslqc53-fill" x1="387.524" y1="187.961" x2="448.026" y2="182.433" spreadMethod="pad" gradientUnits="userSpaceOnUse" gradientTransform="translate(0 0)"><stop id="eFh4Q2Wslqc53-fill-0" offset="0%" stop-color="#c85400"/><stop id="eFh4Q2Wslqc53-fill-1" offset="100%" stop-color="#c00000"/></linearGradient><linearGradient id="eFh4Q2Wslqc55-fill" x1="718.75" y1="187.961" x2="779.252" y2="182.433" spreadMethod="pad" gradientUnits="userSpaceOnUse" gradientTransform="translate(0 0)"><stop id="eFh4Q2Wslqc55-fill-0" offset="0%" stop-color="#c85400"/><stop id="eFh4Q2Wslqc55-fill-1" offset="100%" stop-color="#c00000"/></linearGradient><linearGradient id="eFh4Q2Wslqc56-fill" x1="718.75" y1="187.961" x2="779.252" y2="182.433" spreadMethod="pad" gradientUnits="userSpaceOnUse" gradientTransform="translate(0 0)"><stop id="eFh4Q2Wslqc56-fill-0" offset="0%" stop-color="#c85400"/><stop id="eFh4Q2Wslqc56-fill-1" offset="100%" stop-color="#c00000"/></linearGradient><linearGradient id="eFh4Q2Wslqc58-fill" x1="537.168" y1="80.0093" x2="618.038" y2="69.1196" spreadMethod="pad" gradientUnits="userSpaceOnUse" gradientTransform="translate(0 0)"><stop id="eFh4Q2Wslqc58-fill-0" offset="0%" stop-color="#c85400"/><stop id="eFh4Q2Wslqc58-fill-1" offset="100%" stop-color="#c00000"/></linearGradient><linearGradient id="eFh4Q2Wslqc59-fill" x1="537.168" y1="80.0093" x2="618.038" y2="69.1196" spreadMethod="pad" gradientUnits="userSpaceOnUse" gradientTransform="translate(0 0)"><stop id="eFh4Q2Wslqc59-fill-0" offset="0%" stop-color="#c85400"/><stop id="eFh4Q2Wslqc59-fill-1" offset="100%" stop-color="#c00000"/></linearGradient><linearGradient id="eFh4Q2Wslqc60-fill" x1="537.168" y1="80.0093" x2="618.038" y2="69.1196" spreadMethod="pad" gradientUnits="userSpaceOnUse" gradientTransform="translate(0 0)"><stop id="eFh4Q2Wslqc60-fill-0" offset="0%" stop-color="#c85400"/><stop id="eFh4Q2Wslqc60-fill-1" offset="100%" stop-color="#c00000"/></linearGradient><linearGradient id="eFh4Q2Wslqc61-fill" x1="537.168" y1="80.0093" x2="618.038" y2="69.1196" spreadMethod="pad" gradientUnits="userSpaceOnUse" gradientTransform="translate(0 0)"><stop id="eFh4Q2Wslqc61-fill-0" offset="0%" stop-color="#c85400"/><stop id="eFh4Q2Wslqc61-fill-1" offset="100%" stop-color="#c00000"/></linearGradient><linearGradient id="eFh4Q2Wslqc62-fill" x1="537.168" y1="80.0093" x2="618.038" y2="69.1196" spreadMethod="pad" gradientUnits="userSpaceOnUse" gradientTransform="translate(0 0)"><stop id="eFh4Q2Wslqc62-fill-0" offset="0%" stop-color="#c85400"/><stop id="eFh4Q2Wslqc62-fill-1" offset="100%" stop-color="#c00000"/></linearGradient><linearGradient id="eFh4Q2Wslqc63-fill" x1="537.168" y1="80.0093" x2="618.038" y2="69.1196" spreadMethod="pad" gradientUnits="userSpaceOnUse" gradientTransform="translate(0 0)"><stop id="eFh4Q2Wslqc63-fill-0" offset="0%" stop-color="#c85400"/><stop id="eFh4Q2Wslqc63-fill-1" offset="100%" stop-color="#c00000"/></linearGradient><linearGradient id="eFh4Q2Wslqc64-fill" x1="537.168" y1="80.0093" x2="618.038" y2="69.1196" spreadMethod="pad" gradientUnits="userSpaceOnUse" gradientTransform="translate(0 0)"><stop id="eFh4Q2Wslqc64-fill-0" offset="0%" stop-color="#c85400"/><stop id="eFh4Q2Wslqc64-fill-1" offset="100%" stop-color="#c00000"/></linearGradient><linearGradient id="eFh4Q2Wslqc65-fill" x1="537.168" y1="80.0093" x2="618.038" y2="69.1196" spreadMethod="pad" gradientUnits="userSpaceOnUse" gradientTransform="translate(0 0)"><stop id="eFh4Q2Wslqc65-fill-0" offset="0%" stop-color="#c85400"/><stop id="eFh4Q2Wslqc65-fill-1" offset="100%" stop-color="#c00000"/></linearGradient><linearGradient id="eFh4Q2Wslqc66-fill" x1="537.168" y1="80.0093" x2="618.038" y2="69.1196" spreadMethod="pad" gradientUnits="userSpaceOnUse" gradientTransform="translate(0 0)"><stop id="eFh4Q2Wslqc66-fill-0" offset="0%" stop-color="#c85400"/><stop id="eFh4Q2Wslqc66-fill-1" offset="100%" stop-color="#c00000"/></linearGradient><linearGradient id="eFh4Q2Wslqc68-fill" x1="913.964" y1="87.3151" x2="986.731" y2="78.7018" spreadMethod="pad" gradientUnits="userSpaceOnUse" gradientTransform="translate(0 0)"><stop id="eFh4Q2Wslqc68-fill-0" offset="0%" stop-color="#c85400"/><stop id="eFh4Q2Wslqc68-fill-1" offset="100%" stop-color="#c00000"/></linearGradient><linearGradient id="eFh4Q2Wslqc69-fill" x1="913.964" y1="87.3151" x2="986.731" y2="78.7018" spreadMethod="pad" gradientUnits="userSpaceOnUse" gradientTransform="translate(0 0)"><stop id="eFh4Q2Wslqc69-fill-0" offset="0%" stop-color="#c85400"/><stop id="eFh4Q2Wslqc69-fill-1" offset="100%" stop-color="#c00000"/></linearGradient><linearGradient id="eFh4Q2Wslqc70-fill" x1="913.964" y1="87.3151" x2="986.731" y2="78.7018" spreadMethod="pad" gradientUnits="userSpaceOnUse" gradientTransform="translate(0 0)"><stop id="eFh4Q2Wslqc70-fill-0" offset="0%" stop-color="#c85400"/><stop id="eFh4Q2Wslqc70-fill-1" offset="100%" stop-color="#c00000"/></linearGradient><linearGradient id="eFh4Q2Wslqc71-fill" x1="913.964" y1="87.3151" x2="986.731" y2="78.7018" spreadMethod="pad" gradientUnits="userSpaceOnUse" gradientTransform="translate(0 0)"><stop id="eFh4Q2Wslqc71-fill-0" offset="0%" stop-color="#c85400"/><stop id="eFh4Q2Wslqc71-fill-1" offset="100%" stop-color="#c00000"/></linearGradient><linearGradient id="eFh4Q2Wslqc72-fill" x1="913.964" y1="87.3151" x2="986.731" y2="78.7018" spreadMethod="pad" gradientUnits="userSpaceOnUse" gradientTransform="translate(0 0)"><stop id="eFh4Q2Wslqc72-fill-0" offset="0%" stop-color="#c85400"/><stop id="eFh4Q2Wslqc72-fill-1" offset="100%" stop-color="#c00000"/></linearGradient><linearGradient id="eFh4Q2Wslqc73-fill" x1="913.964" y1="87.3151" x2="986.731" y2="78.7018" spreadMethod="pad" gradientUnits="userSpaceOnUse" gradientTransform="translate(0 0)"><stop id="eFh4Q2Wslqc73-fill-0" offset="0%" stop-color="#c85400"/><stop id="eFh4Q2Wslqc73-fill-1" offset="100%" stop-color="#c00000"/></linearGradient><linearGradient id="eFh4Q2Wslqc74-fill" x1="913.964" y1="87.3151" x2="986.731" y2="78.7018" spreadMethod="pad" gradientUnits="userSpaceOnUse" gradientTransform="translate(0 0)"><stop id="eFh4Q2Wslqc74-fill-0" offset="0%" stop-color="#c85400"/><stop id="eFh4Q2Wslqc74-fill-1" offset="100%" stop-color="#c00000"/></linearGradient><linearGradient id="eFh4Q2Wslqc75-fill" x1="913.964" y1="87.3151" x2="986.731" y2="78.7018" spreadMethod="pad" gradientUnits="userSpaceOnUse" gradientTransform="translate(0 0)"><stop id="eFh4Q2Wslqc75-fill-0" offset="0%" stop-color="#c85400"/><stop id="eFh4Q2Wslqc75-fill-1" offset="100%" stop-color="#c00000"/></linearGradient><linearGradient id="eFh4Q2Wslqc76-fill" x1="913.964" y1="87.3151" x2="986.731" y2="78.7018" spreadMethod="pad" gradientUnits="userSpaceOnUse" gradientTransform="translate(0 0)"><stop id="eFh4Q2Wslqc76-fill-0" offset="0%" stop-color="#c85400"/><stop id="eFh4Q2Wslqc76-fill-1" offset="100%" stop-color="#c00000"/></linearGradient><linearGradient id="eFh4Q2Wslqc77-fill" x1="913.964" y1="87.3151" x2="986.731" y2="78.7018" spreadMethod="pad" gradientUnits="userSpaceOnUse" gradientTransform="translate(0 0)"><stop id="eFh4Q2Wslqc77-fill-0" offset="0%" stop-color="#c85400"/><stop id="eFh4Q2Wslqc77-fill-1" offset="100%" stop-color="#c00000"/></linearGradient><linearGradient id="eFh4Q2Wslqc81-fill" x1="561.493" y1="161.182" x2="590.641" y2="159.194" spreadMethod="pad" gradientUnits="userSpaceOnUse" gradientTransform="translate(0 0)"><stop id="eFh4Q2Wslqc81-fill-0" offset="0%" stop-color="#c85400"/><stop id="eFh4Q2Wslqc81-fill-1" offset="100%" stop-color="#c00000"/></linearGradient><linearGradient id="eFh4Q2Wslqc82-fill" x1="561.493" y1="161.182" x2="590.641" y2="159.194" spreadMethod="pad" gradientUnits="userSpaceOnUse" gradientTransform="translate(0 0)"><stop id="eFh4Q2Wslqc82-fill-0" offset="0%" stop-color="#c85400"/><stop id="eFh4Q2Wslqc82-fill-1" offset="100%" stop-color="#c00000"/></linearGradient><linearGradient id="eFh4Q2Wslqc83-fill" x1="561.493" y1="161.182" x2="590.641" y2="159.194" spreadMethod="pad" gradientUnits="userSpaceOnUse" gradientTransform="translate(0 0)"><stop id="eFh4Q2Wslqc83-fill-0" offset="0%" stop-color="#c85400"/><stop id="eFh4Q2Wslqc83-fill-1" offset="100%" stop-color="#c00000"/></linearGradient><linearGradient id="eFh4Q2Wslqc84-fill" x1="561.493" y1="161.182" x2="590.641" y2="159.194" spreadMethod="pad" gradientUnits="userSpaceOnUse" gradientTransform="translate(0 0)"><stop id="eFh4Q2Wslqc84-fill-0" offset="0%" stop-color="#c85400"/><stop id="eFh4Q2Wslqc84-fill-1" offset="100%" stop-color="#c00000"/></linearGradient><linearGradient id="eFh4Q2Wslqc85-fill" x1="561.493" y1="161.182" x2="590.641" y2="159.194" spreadMethod="pad" gradientUnits="userSpaceOnUse" gradientTransform="translate(0 0)"><stop id="eFh4Q2Wslqc85-fill-0" offset="0%" stop-color="#c85400"/><stop id="eFh4Q2Wslqc85-fill-1" offset="100%" stop-color="#c00000"/></linearGradient><linearGradient id="eFh4Q2Wslqc86-fill" x1="561.493" y1="161.182" x2="590.641" y2="159.194" spreadMethod="pad" gradientUnits="userSpaceOnUse" gradientTransform="translate(0 0)"><stop id="eFh4Q2Wslqc86-fill-0" offset="0%" stop-color="#c85400"/><stop id="eFh4Q2Wslqc86-fill-1" offset="100%" stop-color="#c00000"/></linearGradient><linearGradient id="eFh4Q2Wslqc87-fill" x1="561.493" y1="161.182" x2="590.641" y2="159.194" spreadMethod="pad" gradientUnits="userSpaceOnUse" gradientTransform="translate(0 0)"><stop id="eFh4Q2Wslqc87-fill-0" offset="0%" stop-color="#c85400"/><stop id="eFh4Q2Wslqc87-fill-1" offset="100%" stop-color="#c00000"/></linearGradient><linearGradient id="eFh4Q2Wslqc88-fill" x1="484.746" y1="175.689" x2="681.59" y2="122.408" spreadMethod="pad" gradientUnits="userSpaceOnUse" gradientTransform="translate(0 0)"><stop id="eFh4Q2Wslqc88-fill-0" offset="0%" stop-color="#c85400"/><stop id="eFh4Q2Wslqc88-fill-1" offset="100%" stop-color="#c00000"/></linearGradient><linearGradient id="eFh4Q2Wslqc90-fill" x1="947.805" y1="120.634" x2="947.805" y2="183.487" spreadMethod="pad" gradientUnits="userSpaceOnUse" gradientTransform="translate(0 0)"><stop id="eFh4Q2Wslqc90-fill-0" offset="0%" stop-color="#f00"/><stop id="eFh4Q2Wslqc90-fill-1" offset="100%" stop-color="#690000"/></linearGradient><linearGradient id="eFh4Q2Wslqc91-fill" x1="947.805" y1="120.634" x2="947.805" y2="183.487" spreadMethod="pad" gradientUnits="userSpaceOnUse" gradientTransform="translate(0 0)"><stop id="eFh4Q2Wslqc91-fill-0" offset="0%" stop-color="#f00"/><stop id="eFh4Q2Wslqc91-fill-1" offset="100%" stop-color="#690000"/></linearGradient><linearGradient id="eFh4Q2Wslqc92-fill" x1="947.805" y1="120.634" x2="947.805" y2="183.487" spreadMethod="pad" gradientUnits="userSpaceOnUse" gradientTransform="translate(0 0)"><stop id="eFh4Q2Wslqc92-fill-0" offset="0%" stop-color="#f00"/><stop id="eFh4Q2Wslqc92-fill-1" offset="100%" stop-color="#690000"/></linearGradient><linearGradient id="eFh4Q2Wslqc93-fill" x1="947.805" y1="120.634" x2="947.805" y2="183.487" spreadMethod="pad" gradientUnits="userSpaceOnUse" gradientTransform="translate(0 0)"><stop id="eFh4Q2Wslqc93-fill-0" offset="0%" stop-color="#f00"/><stop id="eFh4Q2Wslqc93-fill-1" offset="100%" stop-color="#690000"/></linearGradient><linearGradient id="eFh4Q2Wslqc94-fill" x1="947.805" y1="120.634" x2="947.805" y2="183.487" spreadMethod="pad" gradientUnits="userSpaceOnUse" gradientTransform="translate(0 0)"><stop id="eFh4Q2Wslqc94-fill-0" offset="0%" stop-color="#f00"/><stop id="eFh4Q2Wslqc94-fill-1" offset="100%" stop-color="#690000"/></linearGradient><linearGradient id="eFh4Q2Wslqc96-fill" x1="228.989" y1="161.198" x2="258.382" y2="159.193" spreadMethod="pad" gradientUnits="userSpaceOnUse" gradientTransform="translate(0 0)"><stop id="eFh4Q2Wslqc96-fill-0" offset="0%" stop-color="#c85400"/><stop id="eFh4Q2Wslqc96-fill-1" offset="100%" stop-color="#c00000"/></linearGradient><linearGradient id="eFh4Q2Wslqc97-fill" x1="228.989" y1="161.198" x2="258.382" y2="159.193" spreadMethod="pad" gradientUnits="userSpaceOnUse" gradientTransform="translate(0 0)"><stop id="eFh4Q2Wslqc97-fill-0" offset="0%" stop-color="#c85400"/><stop id="eFh4Q2Wslqc97-fill-1" offset="100%" stop-color="#c00000"/></linearGradient><linearGradient id="eFh4Q2Wslqc98-fill" x1="228.989" y1="161.198" x2="258.382" y2="159.193" spreadMethod="pad" gradientUnits="userSpaceOnUse" gradientTransform="translate(0 0)"><stop id="eFh4Q2Wslqc98-fill-0" offset="0%" stop-color="#c85400"/><stop id="eFh4Q2Wslqc98-fill-1" offset="100%" stop-color="#c00000"/></linearGradient><linearGradient id="eFh4Q2Wslqc99-fill" x1="228.989" y1="161.198" x2="258.382" y2="159.193" spreadMethod="pad" gradientUnits="userSpaceOnUse" gradientTransform="translate(0 0)"><stop id="eFh4Q2Wslqc99-fill-0" offset="0%" stop-color="#c85400"/><stop id="eFh4Q2Wslqc99-fill-1" offset="100%" stop-color="#c00000"/></linearGradient><linearGradient id="eFh4Q2Wslqc100-fill" x1="228.989" y1="161.198" x2="258.382" y2="159.193" spreadMethod="pad" gradientUnits="userSpaceOnUse" gradientTransform="translate(0 0)"><stop id="eFh4Q2Wslqc100-fill-0" offset="0%" stop-color="#c85400"/><stop id="eFh4Q2Wslqc100-fill-1" offset="100%" stop-color="#c00000"/></linearGradient><linearGradient id="eFh4Q2Wslqc101-fill" x1="228.989" y1="161.198" x2="258.382" y2="159.193" spreadMethod="pad" gradientUnits="userSpaceOnUse" gradientTransform="translate(0 0)"><stop id="eFh4Q2Wslqc101-fill-0" offset="0%" stop-color="#c85400"/><stop id="eFh4Q2Wslqc101-fill-1" offset="100%" stop-color="#c00000"/></linearGradient><linearGradient id="eFh4Q2Wslqc102-fill" x1="228.989" y1="161.198" x2="258.382" y2="159.193" spreadMethod="pad" gradientUnits="userSpaceOnUse" gradientTransform="translate(0 0)"><stop id="eFh4Q2Wslqc102-fill-0" offset="0%" stop-color="#c85400"/><stop id="eFh4Q2Wslqc102-fill-1" offset="100%" stop-color="#c00000"/></linearGradient><linearGradient id="eFh4Q2Wslqc103-fill" x1="151.784" y1="175.689" x2="348.626" y2="122.409" spreadMethod="pad" gradientUnits="userSpaceOnUse" gradientTransform="translate(0 0)"><stop id="eFh4Q2Wslqc103-fill-0" offset="0%" stop-color="#c85400"/><stop id="eFh4Q2Wslqc103-fill-1" offset="100%" stop-color="#c00000"/></linearGradient></defs><g id="eFh4Q2Wslqc2" transform="translate(.000001 0)" opacity="0"><path d="M96.9045,174.904l-8.8418-4.421c-.8339-.417-1.3522-1.256-1.3522-2.188v-3.13c.2119-.259.435-.554.6654-.88c1.1468-1.62,2.0659-3.423,2.7341-5.367c1.306-.599,2.1538-1.89,2.1538-3.348v-3.702c0-.891-.3332-1.755-.9256-2.43v-4.923c.0518-.509.2555-3.539-1.9362-6.039-1.9011-2.168-4.986-3.268-9.1704-3.268s-7.2692,1.1-9.1703,3.267c-1.3282,1.515-1.7752,3.222-1.9103,4.447-1.5864-.82-3.456-1.235-5.5792-1.235-9.6156,0-10.1755,8.196-10.1811,8.33v4.238c-.5997.653-.9255,1.408-.9255,2.156v3.197c0,.999.447,1.93,1.2134,2.559.7635,2.879,2.6415,5.054,3.3727,5.817v2.539c0,.729-.3962,1.397-1.0839,1.773l-6.1576,3.862c-2.3583,1.287-3.8235,3.755-3.8235,6.441v3.514h55.5327v-3.742c0-3.182-1.7685-6.044-4.6145-7.467ZM58.944,182.191v2.071h-11.1066v-1.663c0-2.009,1.0959-3.854,2.9072-4.844l6.1567-3.862c1.2338-.673,2.0001-1.963,2.0001-3.37v-3.323l-.2943-.275c-.0241-.022-2.4832-2.346-3.2098-5.512l-.0842-.366-.3166-.204c-.4257-.276-.6802-.738-.6802-1.235v-3.197c0-.333.2267-.729.621-1.086l.3045-.275-.0018-4.98c.0166-.265.4988-6.532,8.3318-6.532c2.2148,0,4.0798.512,5.5532,1.522v4.378c-.5923.675-.9255,1.539-.9255,2.43v3.702c0,.281.0324.558.0935.827.0153.066.0402.128.065.191.0155.039.031.078.0442.118.0128.039.0249.078.037.117.0362.118.0725.235.1259.346.0009.001.0018.002.0028.004.2369.489.5821.926,1.0171,1.275.0026.009.0054.019.0083.028.0012.003.0024.007.0036.011.001.004.002.007.003.011.0555.212.1138.423.1767.629l.075.242c.008.026.017.052.026.079.0056.016.0112.033.0166.049l.0218.068c.0248.077.0496.153.0754.229.0555.162.1138.33.1814.512.0161.043.0331.083.0502.124.0133.031.0266.063.0395.095.0759.194.1518.381.2314.566.0093.021.018.043.0267.066.0094.023.0187.047.0289.07l.0518.117c.0128.028.0259.055.039.082.0114.024.0229.048.0341.072.0907.198.1796.39.2721.575.0046.009.009.018.0134.028.0028.006.0056.012.0084.018.0071.015.0143.031.0217.046.0454.09.0907.176.1361.262l.0389.074c.0999.19.198.37.2961.544.0482.085.0954.168.1426.249.1332.227.26.437.3831.631.0127.02.0252.04.0376.06.0137.022.0275.044.0411.065.224.347.4184.628.5794.848.0426.058.0796.108.1157.157.0204.027.0481.066.0657.09v3.063c0,.895-.4887,1.717-1.2745,2.147l-2.449,1.335-.4266-.038-.174.366-5.2072,2.841c-2.6841,1.466-4.351,4.274-4.351,7.332Zm1.8511,0v2.071h38.8731v-1.891c0-2.477-1.3763-4.704-3.5921-5.812l-8.8418-4.421c-1.4651-.733-2.3749-2.205-2.3749-3.843v-3.818l.2304-.263c.2323-.264.4998-.609.7747-.999c1.1218-1.583,2.0038-3.361,2.623-5.288l.1481-.458.4609-.141c.7868-.243,1.3162-.95,1.3162-1.758v-3.702c0-.519-.2203-1.003-.6202-1.364l-.3054-.276.0083-5.886.0003-.002c.0098-.096.2735-2.656-1.5024-4.663-1.5355-1.738-4.1474-2.618-7.7617-2.618-3.6272,0-6.2446.887-7.7783,2.637-1.4938,1.704-1.5336,3.752-1.5021,4.42l.0249.02v6.092l-.3054.275c-.3998.362-.6201.846-.6201,1.365v3.702c0,.626.3202,1.206.8571,1.552l.3156.204.0842.366c.0703.308.1536.607.2406.899.0056.02.0121.038.0176.057l.0509.164c.0852.271.174.534.2684.786.0458.123.0894.233.1321.341.0057.014.0113.028.0169.042.0062.016.0124.031.0185.047.0124.031.0247.062.0371.092.0518.125.1027.246.1536.362.0079.018.016.036.0241.054.0081.017.0162.035.024.053.1148.259.2324.507.3499.743c0,.001.0009.001.0009.001.2212.44.4434.837.6525,1.188.0074.013.0149.025.0223.037.0981.164.1943.318.285.46.0023.003.0044.007.0065.01.0021.004.0042.007.0065.01.1925.3.3656.549.5035.741.0004.001.0009.001.0014.002.0004.001.0009.001.0014.002.0657.092.1231.169.1721.233.0065.007.012.015.0176.022.0732.096.1243.159.1439.183.0054.007.0084.011.0088.011l.0352.042.1795.215v3.719c0,1.573-.8579,3.02-2.2398,3.774l-8.2568,4.504c-2.089,1.138-3.3866,3.325-3.3866,5.705Z" clip-rule="evenodd" fill="url(#eFh4Q2Wslqc3-fill)" fill-rule="evenodd"/><path d="M63.2442,174.904l8.8418-4.421c.8339-.417,1.3522-1.256,1.3522-2.188v-3.13c-.2119-.259-.435-.554-.6654-.88-1.1468-1.62-2.0659-3.423-2.7341-5.367-1.306-.599-2.1538-1.89-2.1538-3.348v-3.702c0-.891.3332-1.755.9256-2.43v-4.923c-.0519-.509-.2555-3.539,1.9362-6.039c1.9011-2.168,4.986-3.268,9.1704-3.268s7.2692,1.1,9.1703,3.267c1.3282,1.515,1.7752,3.222,1.9103,4.447c1.5864-.82,3.456-1.235,5.5792-1.235c9.6151,0,10.1751,8.196,10.1811,8.33v4.238c.6.653.926,1.408.926,2.156v3.197c0,.999-.448,1.93-1.214,2.559-.763,2.879-2.641,5.054-3.373,5.817v2.539c0,.729.397,1.397,1.084,1.773l6.158,3.862c2.358,1.287,3.823,3.755,3.823,6.441v3.514h-55.5326v-3.742c0-3.182,1.7688-6.044,4.6148-7.467Zm37.9608,7.287v2.071h11.106v-1.663c0-2.009-1.096-3.854-2.907-4.844l-6.157-3.862c-1.233-.673-2-1.963-2-3.37v-3.323l.295-.275c.024-.022,2.483-2.346,3.209-5.512l.085-.366.316-.204c.426-.276.68-.738.68-1.235v-3.197c0-.333-.226-.729-.621-1.086l-.304-.275.002-4.98c-.017-.265-.499-6.532-8.3321-6.532-2.2148,0-4.0798.512-5.5533,1.522v4.378c.5924.675.9256,1.539.9256,2.43v3.702c0,.281-.0324.558-.0935.827-.0154.066-.0402.128-.065.191-.0155.039-.031.078-.0442.118-.0128.039-.0249.078-.037.117-.0362.118-.0726.235-.1259.346-.0009.001-.0018.002-.0028.004-.2369.489-.5821.926-1.0171,1.275-.0026.009-.0055.019-.0083.028-.0012.003-.0024.007-.0036.011-.001.004-.002.007-.003.011-.0555.212-.1138.423-.1767.629l-.075.242c-.008.026-.017.052-.026.079-.0056.016-.0113.033-.0166.049l-.0218.068c-.0248.077-.0496.153-.0754.229-.0555.162-.1138.33-.1814.512-.0161.043-.0331.083-.0502.124-.0133.031-.0266.063-.0395.095-.0759.194-.1518.381-.2314.566-.0094.021-.018.043-.0267.066-.0094.023-.0188.047-.0289.07l-.0518.117c-.0128.028-.0259.055-.039.082-.0115.024-.0229.048-.0341.072-.0907.198-.1796.39-.2721.575-.0046.009-.009.018-.0134.028-.0028.006-.0056.012-.0084.018-.0071.015-.0143.031-.0217.046-.0454.09-.0907.176-.1361.262l-.0389.074c-.0999.19-.198.37-.2961.544-.0482.085-.0954.168-.1426.249-.1333.227-.2601.437-.3831.631-.0127.02-.0252.04-.0376.06-.0137.022-.0275.044-.0411.065-.224.347-.4184.628-.5794.848-.0426.058-.0796.108-.1157.157-.0204.027-.0481.066-.0657.09v3.063c0,.895.4887,1.717,1.2745,2.147l2.449,1.335.4266-.038.174.366l5.2072,2.841c2.6841,1.466,4.3513,4.274,4.3513,7.332Zm-1.8514,0v2.071h-38.8731v-1.891c0-2.477,1.3763-4.704,3.5921-5.812l8.8418-4.421c1.4651-.733,2.3749-2.205,2.3749-3.843v-3.818l-.2304-.263c-.2324-.264-.4998-.609-.7747-.999-1.1218-1.583-2.0038-3.361-2.623-5.288l-.1481-.458-.4609-.141c-.7868-.243-1.3162-.95-1.3162-1.758v-3.702c0-.519.2203-1.003.6201-1.364l.3055-.276-.0084-5.886-.0002-.002c-.0098-.096-.2735-2.656,1.5024-4.663c1.5355-1.738,4.1474-2.618,7.7617-2.618c3.6272,0,6.2446.887,7.7783,2.637c1.4938,1.704,1.5336,3.752,1.5021,4.42l-.0249.02v6.092l.3054.275c.3998.362.6201.846.6201,1.365v3.702c0,.626-.3202,1.206-.8571,1.552l-.3156.204-.0842.366c-.0703.308-.1536.607-.2406.899-.0056.02-.0121.038-.0176.057l-.0509.164c-.0852.271-.174.534-.2684.786-.0458.123-.0894.233-.1321.341-.0057.014-.0113.028-.0169.042-.0062.016-.0124.031-.0185.047-.0124.031-.0247.062-.0371.092-.0518.125-.1027.246-.1536.362-.0079.018-.016.036-.0241.054-.0081.017-.0162.035-.0241.053-.1147.259-.2323.507-.3498.743c0,.001-.0009.001-.0009.001-.2212.44-.4434.837-.6525,1.188-.0074.013-.0149.025-.0223.037-.0981.164-.1943.318-.285.46-.0023.003-.0044.007-.0065.01-.0021.004-.0042.007-.0065.01-.1925.3-.3656.549-.5035.741-.0004.001-.0009.001-.0014.002-.0004.001-.0009.001-.0014.002-.0657.092-.1231.169-.1721.233-.0065.007-.012.015-.0176.022-.0732.096-.1243.159-.1439.183-.0054.007-.0084.011-.0088.011l-.0352.042-.1795.215v3.719c0,1.573.8579,3.02,2.2398,3.774l8.2568,4.504c2.089,1.138,3.3866,3.325,3.3866,5.705Z" clip-rule="evenodd" fill="url(#eFh4Q2Wslqc4-fill)" fill-rule="evenodd"/></g><g id="eFh4Q2Wslqc5_to" transform="translate(80.072502,267.658001)"><g id="eFh4Q2Wslqc5_ts" transform="scale(0,0)"><g id="eFh4Q2Wslqc5" transform="translate(-80.072502,-67.658001)" opacity="0"><path d="M79.1656,42.1644v-10.4615h-2.8356v10.489c0,.2478-.0551.4956-.1377.7709-.1101.2753-.1927.468-.3028.6332s-.2478.413-.413.6883c-.1927.3028-.3304.4955-.3854.6056L73.8797,43.128c-.2753-.3854-.3854-.7433-.3854-1.0186v-6.2219h-2.753v6.2219c0,.3303-.2478.8534-.7158,1.5141-.468.6883-.7433,1.1563-.7984,1.3765-.0826-.1101-.2202-.3028-.4129-.6332-.2203-.3028-.3579-.5506-.4681-.7157s-.1927-.413-.3028-.6883-.1376-.5231-.1376-.7709v-10.489h-2.8357v10.4615c0,.881.3304,1.817.9911,2.7806l1.817,2.7255h2.5053l1.7344-2.7806l1.7619,2.7806h2.4778L78.202,44.945c.6332-.9911.9636-1.8996.9636-2.7806Z" fill="url(#eFh4Q2Wslqc6-fill)"/><path d="M95.0747,43.3758v-3.3312c0-1.0462-.3854-1.9271-1.1012-2.6154-.7434-.6883-1.6794-1.0462-2.8081-1.0462h-3.6891c-1.1563,0-2.0923.3579-2.8081,1.0462-.7433.6883-1.1012,1.5692-1.1012,2.6154v3.9644c0,1.0736.3579,1.9546,1.1012,2.6429.7158.6882,1.6518,1.0186,2.8081,1.0186h6.1393v-2.4502h-6.332c-.2753,0-.4956-.0826-.6883-.2753-.1927-.1652-.2753-.3854-.2753-.6332v-.936h8.7547Zm-2.7531-2.3952h-6.0016v-1.1563c0-.2202.0826-.4405.2753-.6332.1927-.1651.413-.2753.6883-.2753h4.0745c.2753,0,.4955.1102.6882.2753.1652.1652.2753.3855.2753.6332v1.1563Z" fill="url(#eFh4Q2Wslqc7-fill)"/><path d="M46.8631,72.8114v-10.4615h-2.8356v10.489c0,.2478-.0551.4956-.1377.7709-.1101.2753-.1927.468-.3028.6332s-.2478.4129-.4129.6883c-.1928.3028-.3304.4955-.3855.6056L41.5773,73.775c-.2753-.3854-.3854-.7433-.3854-1.0186v-6.2219h-2.7531v6.2219c0,.3303-.2477.8534-.7158,1.5141-.468.6883-.7433,1.1563-.7983,1.3765-.0826-.1101-.2203-.3028-.413-.6332-.2202-.3028-.3579-.5506-.468-.7157-.1101-.1652-.1927-.413-.3028-.6883-.1102-.2753-.1377-.5231-.1377-.7709v-10.489h-2.8356v10.4615c0,.881.3303,1.817.9911,2.7806l1.817,2.7255h2.5052l1.7344-2.7806l1.762,2.7806h2.4777l1.8446-2.7255c.6332-.9911.9635-1.8996.9635-2.7806Z" fill="url(#eFh4Q2Wslqc8-fill)"/><path d="M62.2216,70.5264c0-.936-.3854-1.7619-1.1012-2.4502-.7433-.6883-1.6243-1.0462-2.6704-1.0462h-5.6988v2.5328h5.2032c.6057,0,.9911.0826,1.2113.2478.1928.1652.3029.468.3029.9085v.6883l-4.8729.0275c-1.1012,0-2.0372.3304-2.7806.9911-.7433.6607-1.1012,1.4316-1.1012,2.3401c0,.9911.3579,1.817,1.1012,2.5052.7158.7158,1.6519,1.0462,2.8081,1.0462h7.5984v-7.7911Zm-2.753,5.3409h-5.0656c-.2753,0-.4956-.0826-.6883-.3028-.1927-.1928-.2753-.4405-.2753-.7158s.1102-.5231.3304-.7158.468-.3029.7433-.3029h4.9555v2.0373Z" fill="url(#eFh4Q2Wslqc9-fill)"/><path d="M78.1511,78.3175v-7.7636c0-1.0461-.3578-1.872-1.0736-2.5328s-1.6243-.9911-2.7255-.9911h-2.0373c-.2202,0-.4129.0276-.6332.0826s-.3854.1102-.5231.1652c-.1376.0551-.3028.1652-.4955.3028-.2203.1652-.3579.2754-.4405.3304s-.2478.1927-.468.3854c-.2203.2203-.3579.3304-.3854.3579v-1.6243h-2.7531v11.2875h2.7531v-6.6348l2.0372-1.6794c.2203-.2202.413-.3579.5506-.4129.1101-.0551.3304-.0826.6607-.0826h1.8171c.2477,0,.468.1101.6607.2753.1927.1927.3028.4129.3028.6332v7.9012h2.753Z" fill="url(#eFh4Q2Wslqc10-fill)"/><path d="M94.0665,74.6009v-1.1288h-2.8081v1.3766c0,.2477-.1101.468-.3028.6332-.1928.1927-.413.2753-.6608.2753h-2.2575c-.2753,0-.4955-.0826-.6882-.2753-.1927-.1652-.2753-.3855-.2753-.6332v-5.5336h2.753v-2.5053h-2.753v-4.4599h-2.7531v4.4599h-2.3125v2.5053h2.3125v5.2858c0,1.0737.3579,1.9546,1.1013,2.6704.7157.7158,1.6518,1.0462,2.7805,1.0462h1.9547c1.1287,0,2.0648-.3304,2.8081-1.0462.7158-.7158,1.1012-1.5967,1.1012-2.6704Z" fill="url(#eFh4Q2Wslqc11-fill)"/><path d="M118.973,65.9564v-3.6065h-2.836v3.4413c0,.4129-.192.7708-.523,1.0461l-2.395,2.0648-3.028-2.1749c-.193-.1101-.303-.2478-.33-.3579-.056-.1101-.056-.3028-.056-.5781v-3.4413h-2.808v3.5239c0,1.2113.413,2.0923,1.294,2.6979l2.23,1.6519-2.285,1.8996c-.495.4404-.826.8534-.991,1.2664-.165.4404-.248.991-.248,1.7068v3.2211h2.808v-3.1109c0-.4405.028-.7158.083-.8535.055-.1376.193-.3028.413-.4955l2.45-2.0648l2.863,2.0648c.221.1651.358.3303.413.4405.055.1101.083.3854.083.7983v3.2211h2.836v-3.4413c0-.6883-.111-1.2389-.276-1.6518-.192-.3855-.523-.7709-.991-1.1288l-2.23-1.6243l2.175-1.817c.468-.3854.798-.7708,1.019-1.1562.22-.3855.33-.881.33-1.5417Z" fill="url(#eFh4Q2Wslqc12-fill)"/><path d="M127.252,62.3499h-3.744v4.1571l.523,7.4056h2.698l.523-7.4056v-4.1571Zm-.275,15.9676v-3.0834h-3.249v3.0834h3.249Z" fill="url(#eFh4Q2Wslqc13-fill)"/><path d="M10,18c0-4.4183,3.5817-8,8-8h124.145c4.419,0,8,3.5817,8,8v73.6168c0,4.4183-3.581,8-8,8h-42.2647L80.0727,125.316L60.6656,99.6168h-42.6656c-4.4183,0-8-3.5817-8-8L10,18Z" clip-rule="evenodd" fill="none" fill-rule="evenodd" stroke="url(#eFh4Q2Wslqc14-stroke)" stroke-width="3"/></g></g></g><g id="eFh4Q2Wslqc15_to" transform="translate(247.791001,225.010199)"><g id="eFh4Q2Wslqc15_ts" transform="scale(0,1)"><g id="eFh4Q2Wslqc15" transform="translate(-247.791,-55.010198)" opacity="0"><path d="M237.97,35.9701v-4.2672h-2.781v4.1571c0,.3303-.027.523-.055.6056-.055.1102-.137.2203-.302.3855l-2.864,2.8906-2.835-2.8906c-.165-.1652-.276-.2753-.303-.3855-.055-.0826-.055-.2753-.055-.6056v-4.1571h-2.753v4.2672c0,.5781.055,1.0461.22,1.4316.138.3854.413.7433.826,1.1287l3.524,3.4964v5.6437h2.808v-5.6437l3.524-3.4964c.385-.3854.661-.7433.826-1.1287.137-.3855.22-.8535.22-1.4316Z" fill="url(#eFh4Q2Wslqc16-fill)"/><path d="M253.986,43.9814v-3.9093c0-1.0461-.386-1.8996-1.156-2.6154-.771-.7158-1.707-1.0737-2.809-1.0737h-3.964c-1.129,0-2.065.3579-2.836,1.0737-.77.7158-1.128,1.5693-1.128,2.6154v3.9093c0,1.0462.358,1.9271,1.128,2.6429.771.7158,1.707,1.0462,2.836,1.0462h3.964c1.102,0,2.038-.3304,2.809-1.0462.77-.7158,1.156-1.5967,1.156-2.6429Zm-2.753.2753c0,.2753-.11.4956-.276.6608-.192.1651-.412.2477-.688.2477h-4.46c-.275,0-.495-.0826-.688-.2753-.193-.1652-.275-.3854-.275-.6332v-4.4599c0-.2202.082-.4405.275-.6332.193-.1652.413-.2753.688-.2753h4.46c.276,0,.496.1101.688.2753.166.1652.276.3854.276.6332v4.4599Z" fill="url(#eFh4Q2Wslqc17-fill)"/><path d="M269.548,47.6705v-11.2875h-2.753v6.3596l-1.982,2.0097c-.221.2202-.413.3579-.524.4129-.11.0551-.357.0551-.688.0551h-1.762c-.275,0-.495-.0826-.688-.2753-.193-.1652-.275-.3854-.275-.6332v-7.9288h-2.753v7.626c0,1.0736.358,1.9546,1.101,2.6429.716.6882,1.652,1.0186,2.808,1.0186h1.872c.413,0,.798-.0826,1.184-.2753.385-.1652.661-.3304.826-.4956.165-.1376.468-.4129.881-.8259v1.5968h2.753Z" fill="url(#eFh4Q2Wslqc18-fill)"/><path d="M213.444,74.5458v-1.9822c0-.9911-.358-1.7619-1.073-2.3125.715-.5506,1.073-1.3765,1.073-2.5053v-1.6243c0-1.0736-.385-1.9821-1.156-2.6979s-1.707-1.0737-2.808-1.0737h-7.709v15.9676h7.709c1.101,0,2.037-.3579,2.808-1.0737s1.156-1.5968,1.156-2.698Zm-2.808-6.8275c0,.4955-.082.8534-.248,1.0186-.165.1652-.495.2478-.991.2478h-4.9v-4.1571h5.176c.22,0,.44.1377.66.3579.193.2202.303.468.303.7433v1.7895Zm0,7.0478c0,.2753-.11.5506-.303.7708-.22.2203-.44.3304-.66.3304h-5.176v-4.3773h5.011c.44,0,.715.1101.88.2753.166.1927.248.5506.248,1.0461v1.9547Z" fill="url(#eFh4Q2Wslqc19-fill)"/><path d="M229.274,78.3175v-11.2875h-2.753v6.3596l-1.982,2.0097c-.221.2202-.413.3579-.523.4129-.111.0551-.358.0551-.689.0551h-1.762c-.275,0-.495-.0826-.688-.2753-.193-.1652-.275-.3854-.275-.6332v-7.9288h-2.753v7.6259c0,1.0737.358,1.9547,1.101,2.643.716.6882,1.652,1.0186,2.808,1.0186h1.872c.413,0,.799-.0826,1.184-.2753.385-.1652.661-.3304.826-.4956.165-.1376.468-.4129.881-.8259v1.5968h2.753Z" fill="url(#eFh4Q2Wslqc20-fill)"/><path d="M238.805,65.1304v-2.7805h-2.918v2.7805h2.918Zm2.312,13.1871v-2.4502h-2.367v-9.0575h-5.066v2.4777h2.313v6.5798h-2.313v2.4502h7.433Z" fill="url(#eFh4Q2Wslqc21-fill)"/><path d="M252.409,78.3175v-2.4502h-2.34v-13.5174h-5.093v2.4502h2.34v11.0672h-2.34v2.4502h7.433Z" fill="url(#eFh4Q2Wslqc22-fill)"/><path d="M267.806,78.3175v-15.9676h-2.753v5.9741c-.385-.3304-.661-.6057-.853-.7709-.221-.1652-.496-.3303-.881-.4955-.386-.1652-.771-.2478-1.157-.2478h-2.12c-1.128,0-2.064.3304-2.808,1.0461-.743.7158-1.101,1.6243-1.101,2.6705v4.0745c0,1.0737.358,1.9546,1.101,2.6704.716.7158,1.652,1.0462,2.808,1.0462h7.764Zm-2.753-2.4502h-5.203c-.276,0-.496-.0826-.688-.2753-.193-.1652-.276-.3854-.276-.6607v-4.7077c0-.2203.083-.4405.276-.6332.192-.1652.412-.2753.688-.2753h2.009c.331,0,.551.0275.661.0826.11.055.303.1927.578.4129l1.955,1.7069v4.3498Z" fill="url(#eFh4Q2Wslqc23-fill)"/><path d="M293.811,65.9564v-3.6065h-2.836v3.4413c0,.4129-.192.7708-.523,1.0461l-2.395,2.0648-3.028-2.1749c-.193-.1101-.303-.2478-.33-.3579-.056-.1101-.056-.3028-.056-.5781v-3.4413h-2.808v3.5239c0,1.2113.413,2.0923,1.294,2.6979l2.23,1.6519-2.285,1.8996c-.495.4404-.826.8534-.991,1.2664-.165.4404-.248.991-.248,1.7068v3.2211h2.808v-3.1109c0-.4405.028-.7158.083-.8535.055-.1376.193-.3028.413-.4955l2.45-2.0648l2.863,2.0648c.221.1651.358.3303.413.4405.055.1101.083.3854.083.7983v3.2211h2.836v-3.4413c0-.6883-.111-1.2389-.276-1.6518-.192-.3855-.523-.7709-.991-1.1288l-2.23-1.6243l2.175-1.817c.468-.3854.798-.7708,1.019-1.1562.22-.3855.33-.881.33-1.5417Z" fill="url(#eFh4Q2Wslqc24-fill)"/></g></g></g><g id="eFh4Q2Wslqc25_to" transform="translate(415.500504,259.658001)"><g id="eFh4Q2Wslqc25_ts" transform="scale(0,1)"><g id="eFh4Q2Wslqc25" transform="translate(-415.500503,-67.658001)" opacity="0"><path d="M387.214,47.6705v-15.9676h-2.808v7.1854l-6.828-7.1854h-2.367v15.9676h2.808v-11.5077l6.387,6.6623v4.8454h2.808Z" fill="url(#eFh4Q2Wslqc26-fill)"/><path d="M403.228,43.9814v-3.9093c0-1.0461-.385-1.8996-1.156-2.6154s-1.707-1.0737-2.808-1.0737h-3.964c-1.129,0-2.065.3579-2.836,1.0737s-1.129,1.5693-1.129,2.6154v3.9093c0,1.0462.358,1.9271,1.129,2.6429s1.707,1.0462,2.836,1.0462h3.964c1.101,0,2.037-.3304,2.808-1.0462s1.156-1.5967,1.156-2.6429Zm-2.753.2753c0,.2753-.11.4956-.275.6608-.193.1651-.413.2477-.688.2477h-4.46c-.275,0-.496-.0826-.688-.2753-.193-.1652-.276-.3854-.276-.6332v-4.4599c0-.2202.083-.4405.276-.6332.192-.1652.413-.2753.688-.2753h4.46c.275,0,.495.1101.688.2753.165.1652.275.3854.275.6332v4.4599Z" fill="url(#eFh4Q2Wslqc27-fill)"/><path d="M411.33,46.6519v-1.8996c0-.1652-.111-.2753-.276-.2753h-2.808c-.193,0-.275.1101-.275.2753v2.4777c0,.1927.082.2753.275.2753h.936v.2202l-1.349,2.1749.909.6332l2.175-2.6429c.275-.2753.413-.6882.413-1.2388Z" fill="url(#eFh4Q2Wslqc28-fill)"/><path d="M439.877,42.1644v-10.4615h-2.836v10.489c0,.2478-.055.4956-.137.7709-.11.2753-.193.468-.303.6332s-.248.413-.413.6883c-.193.3028-.33.4955-.385.6056l-1.212-1.7619c-.275-.3854-.385-.7433-.385-1.0186v-6.2219h-2.753v6.2219c0,.3303-.248.8534-.716,1.5141-.468.6883-.743,1.1563-.798,1.3765-.083-.1101-.221-.3028-.413-.6332-.221-.3028-.358-.5506-.468-.7157-.111-.1652-.193-.413-.303-.6883s-.138-.5231-.138-.7709v-10.489h-2.836v10.4615c0,.881.331,1.817.992,2.7806l1.817,2.7255h2.505l1.734-2.7806l1.762,2.7806h2.478l1.844-2.7255c.634-.9911.964-1.8996.964-2.7806Z" fill="url(#eFh4Q2Wslqc29-fill)"/><path d="M455.786,43.3758v-3.3312c0-1.0462-.385-1.9271-1.101-2.6154-.743-.6883-1.679-1.0462-2.808-1.0462h-3.689c-1.157,0-2.093.3579-2.808,1.0462-.744.6883-1.102,1.5692-1.102,2.6154v3.9644c0,1.0736.358,1.9546,1.102,2.6429.715.6882,1.651,1.0186,2.808,1.0186h6.139v-2.4502h-6.332c-.275,0-.496-.0826-.688-.2753-.193-.1652-.276-.3854-.276-.6332v-.936h8.755Zm-2.753-2.3952h-6.002v-1.1563c0-.2202.083-.4405.276-.6332.192-.1651.413-.2753.688-.2753h4.075c.275,0,.495.1102.688.2753.165.1652.275.3855.275.6332v1.1563Z" fill="url(#eFh4Q2Wslqc30-fill)"/><path d="M382.303,72.8114v-10.4615h-2.836v10.489c0,.2478-.055.4956-.138.7709-.11.2753-.192.468-.303.6332-.11.1652-.247.4129-.412.6883-.193.3028-.331.4955-.386.6056l-1.211-1.7619c-.276-.3854-.386-.7433-.386-1.0186v-6.2219h-2.753v6.2219c0,.3303-.247.8534-.716,1.5141-.468.6883-.743,1.1563-.798,1.3765-.082-.1101-.22-.3028-.413-.6332-.22-.3028-.358-.5506-.468-.7157-.11-.1652-.193-.413-.303-.6883s-.137-.5231-.137-.7709v-10.489h-2.836v10.4615c0,.881.33,1.817.991,2.7806l1.817,2.7255h2.505l1.735-2.7806l1.762,2.7806h2.477l1.845-2.7255c.633-.9911.964-1.8996.964-2.7806Z" fill="url(#eFh4Q2Wslqc31-fill)"/><path d="M397.661,70.5264c0-.936-.385-1.7619-1.101-2.4502-.743-.6883-1.624-1.0462-2.671-1.0462h-5.698v2.5328h5.203c.606,0,.991.0826,1.211.2478.193.1652.303.468.303.9085v.6883l-4.873.0275c-1.101,0-2.037.3304-2.78.9911-.744.6607-1.102,1.4316-1.102,2.3401c0,.9911.358,1.817,1.102,2.5052.715.7158,1.651,1.0462,2.808,1.0462h7.598v-7.7911Zm-2.753,5.3409h-5.066c-.275,0-.495-.0826-.688-.3028-.193-.1928-.275-.4405-.275-.7158s.11-.5231.33-.7158.468-.3029.744-.3029h4.955v2.0373Z" fill="url(#eFh4Q2Wslqc32-fill)"/><path d="M413.591,78.3175v-7.7636c0-1.0461-.358-1.872-1.074-2.5328s-1.624-.9911-2.726-.9911h-2.037c-.22,0-.413.0276-.633.0826s-.385.1102-.523.1652c-.138.0551-.303.1652-.496.3028-.22.1652-.358.2754-.44.3304-.083.0551-.248.1927-.468.3854-.22.2203-.358.3304-.386.3579v-1.6243h-2.753v11.2875h2.753v-6.6348l2.038-1.6794c.22-.2202.413-.3579.55-.4129.11-.0551.331-.0826.661-.0826h1.817c.248,0,.468.1101.661.2753.192.1927.303.4129.303.6332v7.9012h2.753Z" fill="url(#eFh4Q2Wslqc33-fill)"/><path d="M429.506,74.6009v-1.1288h-2.808v1.3766c0,.2477-.11.468-.303.6332-.193.1927-.413.2753-.661.2753h-2.257c-.276,0-.496-.0826-.688-.2753-.193-.1652-.276-.3855-.276-.6332v-5.5336h2.753v-2.5053h-2.753v-4.4599h-2.753v4.4599h-2.312v2.5053h2.312v5.2858c0,1.0737.358,1.9546,1.101,2.6704.716.7158,1.652,1.0462,2.781,1.0462h1.955c1.128,0,2.064-.3304,2.808-1.0462.716-.7158,1.101-1.5967,1.101-2.6704Z" fill="url(#eFh4Q2Wslqc34-fill)"/><path d="M454.385,66.6171v-4.2672h-2.781v4.1571c0,.3303-.027.523-.055.6056-.055.1102-.137.2203-.302.3855l-2.864,2.8906-2.835-2.8906c-.165-.1652-.276-.2753-.303-.3855-.055-.0826-.055-.2753-.055-.6056v-4.1571h-2.753v4.2672c0,.5781.055,1.0461.22,1.4316.138.3854.413.7433.826,1.1287l3.524,3.4964v5.6437h2.808v-5.6437l3.524-3.4964c.385-.3854.661-.7433.826-1.1287.137-.3855.22-.8535.22-1.4316Z" fill="url(#eFh4Q2Wslqc35-fill)"/><path d="M462.665,62.3499h-3.744v4.1571l.523,7.4056h2.698l.523-7.4056v-4.1571Zm-.276,15.9676v-3.0834h-3.248v3.0834h3.248Z" fill="url(#eFh4Q2Wslqc36-fill)"/><path d="M345.428,18c0-4.4183,3.581-8,8-8h124.145c4.418,0,8,3.5817,8,8v73.6168c0,4.4183-3.582,8-8,8h-42.265L415.5,125.316L396.093,99.6168h-42.665c-4.419,0-8-3.5817-8-8v-73.6168Z" clip-rule="evenodd" fill="none" fill-rule="evenodd" stroke="url(#eFh4Q2Wslqc37-stroke)" stroke-width="3"/></g></g></g><g id="eFh4Q2Wslqc38_to" transform="translate(746.729004,259.658001)"><g id="eFh4Q2Wslqc38_ts" transform="scale(0,1)"><g id="eFh4Q2Wslqc38" transform="translate(-746.729004,-67.658001)" opacity="0"><path d="M718.441,47.6705v-15.9676h-2.808v7.1854l-6.827-7.1854h-2.368v15.9676h2.808v-11.5077l6.387,6.6623v4.8454h2.808Z" fill="url(#eFh4Q2Wslqc39-fill)"/><path d="M734.456,43.9814v-3.9093c0-1.0461-.386-1.8996-1.157-2.6154-.77-.7158-1.706-1.0737-2.808-1.0737h-3.964c-1.129,0-2.065.3579-2.836,1.0737s-1.128,1.5693-1.128,2.6154v3.9093c0,1.0462.357,1.9271,1.128,2.6429s1.707,1.0462,2.836,1.0462h3.964c1.102,0,2.038-.3304,2.808-1.0462.771-.7158,1.157-1.5967,1.157-2.6429Zm-2.753.2753c0,.2753-.11.4956-.276.6608-.192.1651-.413.2477-.688.2477h-4.46c-.275,0-.495-.0826-.688-.2753-.193-.1652-.275-.3854-.275-.6332v-4.4599c0-.2202.082-.4405.275-.6332.193-.1652.413-.2753.688-.2753h4.46c.275,0,.496.1101.688.2753.166.1652.276.3854.276.6332v4.4599Z" fill="url(#eFh4Q2Wslqc40-fill)"/><path d="M742.557,46.6519v-1.8996c0-.1652-.11-.2753-.275-.2753h-2.808c-.193,0-.276.1101-.276.2753v2.4777c0,.1927.083.2753.276.2753h.936v.2202l-1.349,2.1749.908.6332l2.175-2.6429c.275-.2753.413-.6882.413-1.2388Z" fill="url(#eFh4Q2Wslqc41-fill)"/><path d="M771.104,42.1644v-10.4615h-2.835v10.489c0,.2478-.055.4956-.138.7709-.11.2753-.193.468-.303.6332s-.247.413-.413.6883c-.192.3028-.33.4955-.385.6056l-1.211-1.7619c-.276-.3854-.386-.7433-.386-1.0186v-6.2219h-2.753v6.2219c0,.3303-.248.8534-.716,1.5141-.468.6883-.743,1.1563-.798,1.3765-.083-.1101-.22-.3028-.413-.6332-.22-.3028-.358-.5506-.468-.7157s-.193-.413-.303-.6883-.138-.5231-.138-.7709v-10.489h-2.835v10.4615c0,.881.33,1.817.991,2.7806l1.817,2.7255h2.505l1.735-2.7806l1.762,2.7806h2.477l1.845-2.7255c.633-.9911.963-1.8996.963-2.7806Z" fill="url(#eFh4Q2Wslqc42-fill)"/><path d="M787.014,43.3758v-3.3312c0-1.0462-.386-1.9271-1.102-2.6154-.743-.6883-1.679-1.0462-2.808-1.0462h-3.689c-1.156,0-2.092.3579-2.808,1.0462-.743.6883-1.101,1.5692-1.101,2.6154v3.9644c0,1.0736.358,1.9546,1.101,2.6429.716.6882,1.652,1.0186,2.808,1.0186h6.139v-2.4502h-6.332c-.275,0-.495-.0826-.688-.2753-.193-.1652-.275-.3854-.275-.6332v-.936h8.755Zm-2.754-2.3952h-6.001v-1.1563c0-.2202.082-.4405.275-.6332.193-.1651.413-.2753.688-.2753h4.075c.275,0,.495.1102.688.2753.165.1652.275.3855.275.6332v1.1563Z" fill="url(#eFh4Q2Wslqc43-fill)"/><path d="M713.691,72.8114v-10.4615h-2.835v10.489c0,.2478-.055.4956-.138.7709-.11.2753-.193.468-.303.6332s-.248.4129-.413.6883c-.193.3028-.33.4955-.385.6056l-1.212-1.7619c-.275-.3854-.385-.7433-.385-1.0186v-6.2219h-2.753v6.2219c0,.3303-.248.8534-.716,1.5141-.468.6883-.743,1.1563-.798,1.3765-.083-.1101-.22-.3028-.413-.6332-.22-.3028-.358-.5506-.468-.7157-.11-.1652-.193-.413-.303-.6883s-.138-.5231-.138-.7709v-10.489h-2.835v10.4615c0,.881.33,1.817.991,2.7806l1.817,2.7255h2.505l1.734-2.7806l1.762,2.7806h2.478l1.845-2.7255c.633-.9911.963-1.8996.963-2.7806Z" fill="url(#eFh4Q2Wslqc44-fill)"/><path d="M729.05,70.5264c0-.936-.386-1.7619-1.101-2.4502-.744-.6883-1.625-1.0462-2.671-1.0462h-5.699v2.5328h5.204c.605,0,.991.0826,1.211.2478.193.1652.303.468.303.9085v.6883l-4.873.0275c-1.101,0-2.037.3304-2.781.9911-.743.6607-1.101,1.4316-1.101,2.3401c0,.9911.358,1.817,1.101,2.5052.716.7158,1.652,1.0462,2.808,1.0462h7.599v-7.7911Zm-2.753,5.3409h-5.066c-.275,0-.495-.0826-.688-.3028-.193-.1928-.275-.4405-.275-.7158s.11-.5231.33-.7158.468-.3029.743-.3029h4.956v2.0373Z" fill="url(#eFh4Q2Wslqc45-fill)"/><path d="M744.979,78.3175v-7.7636c0-1.0461-.358-1.872-1.073-2.5328-.716-.6607-1.625-.9911-2.726-.9911h-2.037c-.22,0-.413.0276-.633.0826-.221.0551-.386.1102-.523.1652-.138.0551-.303.1652-.496.3028-.22.1652-.358.2754-.44.3304-.083.0551-.248.1927-.468.3854-.221.2203-.358.3304-.386.3579v-1.6243h-2.753v11.2875h2.753v-6.6348l2.037-1.6794c.221-.2202.413-.3579.551-.4129.11-.0551.33-.0826.661-.0826h1.817c.247,0,.468.1101.66.2753.193.1927.303.4129.303.6332v7.9012h2.753Z" fill="url(#eFh4Q2Wslqc46-fill)"/><path d="M760.895,74.6009v-1.1288h-2.808v1.3766c0,.2477-.111.468-.303.6332-.193.1927-.413.2753-.661.2753h-2.258c-.275,0-.495-.0826-.688-.2753-.193-.1652-.275-.3855-.275-.6332v-5.5336h2.753v-2.5053h-2.753v-4.4599h-2.753v4.4599h-2.313v2.5053h2.313v5.2858c0,1.0737.358,1.9546,1.101,2.6704.716.7158,1.652,1.0462,2.781,1.0462h1.954c1.129,0,2.065-.3304,2.808-1.0462.716-.7158,1.102-1.5967,1.102-2.6704Z" fill="url(#eFh4Q2Wslqc47-fill)"/><path d="M785.443,78.3175v-2.5603h-7.791l7.791-11.3976v-2.0097h-11.618v2.5603h7.792l-7.792,11.3976v2.0097h11.618Z" fill="url(#eFh4Q2Wslqc48-fill)"/><path d="M793.731,62.3499h-3.744v4.1571l.523,7.4056h2.698l.523-7.4056v-4.1571Zm-.276,15.9676v-3.0834h-3.248v3.0834h3.248Z" fill="url(#eFh4Q2Wslqc49-fill)"/><path d="M676.656,14.1555c0-2.295,1.861-4.1555,4.156-4.1555h131.834c2.295,0,4.156,1.8605,4.156,4.1555v81.3058c0,2.295-1.861,4.1555-4.156,4.1555h-46.109L746.729,125.316L727.322,99.6168h-46.51c-2.295,0-4.156-1.8605-4.156-4.1555v-81.3058Z" clip-rule="evenodd" fill="none" fill-rule="evenodd" stroke="url(#eFh4Q2Wslqc50-stroke)" stroke-width="3"/></g></g></g><g id="eFh4Q2Wslqc51" transform="translate(.000001 0)" opacity="0"><path d="M432.332,174.904l-8.842-4.421c-.833-.417-1.352-1.256-1.352-2.188v-3.13c.212-.259.435-.554.666-.88c1.146-1.62,2.065-3.423,2.734-5.367c1.306-.599,2.153-1.89,2.153-3.348v-3.702c0-.891-.333-1.755-.925-2.43v-4.923c.052-.509.255-3.539-1.936-6.039-1.901-2.168-4.986-3.268-9.171-3.268-4.184,0-7.269,1.1-9.17,3.267-1.328,1.515-1.775,3.222-1.91,4.447-1.587-.82-3.456-1.235-5.58-1.235-9.615,0-10.175,8.196-10.181,8.33v4.238c-.599.653-.925,1.408-.925,2.156v3.197c0,.999.447,1.93,1.213,2.559.764,2.879,2.642,5.054,3.373,5.817v2.539c0,.729-.396,1.397-1.084,1.773l-6.157,3.862c-2.359,1.287-3.824,3.755-3.824,6.441v3.514h55.533v-3.742c0-3.182-1.769-6.044-4.615-7.467Zm-37.96,7.287v2.071h-11.107v-1.663c0-2.009,1.096-3.854,2.907-4.844l6.157-3.862c1.234-.673,2-1.963,2-3.37v-3.323l-.294-.275c-.024-.022-2.483-2.346-3.21-5.512l-.084-.366-.317-.204c-.425-.276-.68-.738-.68-1.235v-3.197c0-.333.227-.729.621-1.086l.305-.275-.002-4.98c.016-.265.499-6.532,8.331-6.532c2.215,0,4.08.512,5.554,1.522v4.378c-.593.675-.926,1.539-.926,2.43v3.702c0,.281.033.558.094.827.015.066.04.128.065.191.015.039.031.078.044.118.013.039.025.078.037.117.036.118.072.235.126.346.001.001.002.002.003.004.237.489.582.926,1.017,1.275.002.009.005.019.008.028.001.003.002.007.004.011.001.004.002.007.003.011.055.212.113.423.176.629l.075.242c.008.026.017.052.026.079.006.016.012.033.017.049l.022.068c.025.077.049.153.075.229.056.162.114.33.182.512.016.043.033.083.05.124.013.031.026.063.039.095.076.194.152.381.232.566.009.021.018.043.026.066.01.023.019.047.029.07l.052.117c.013.028.026.055.039.082.011.024.023.048.034.072.091.198.18.39.272.575.005.009.009.018.014.028.002.006.005.012.008.018.007.015.014.031.022.046.045.09.09.176.136.262l.039.074c.1.19.198.37.296.544.048.085.095.168.142.249.134.227.26.437.384.631.012.02.025.04.037.06.014.022.028.044.041.065.224.347.419.628.58.848.042.058.079.108.115.157.021.027.048.066.066.09v3.063c0,.895-.489,1.717-1.274,2.147l-2.449,1.335-.427-.038-.174.366-5.207,2.841c-2.684,1.466-4.351,4.274-4.351,7.332Zm1.851,0v2.071h38.873v-1.891c0-2.477-1.376-4.704-3.592-5.812l-8.842-4.421c-1.465-.733-2.375-2.205-2.375-3.843v-3.818l.231-.263c.232-.264.499-.609.774-.999c1.122-1.583,2.004-3.361,2.623-5.288l.148-.458.461-.141c.787-.243,1.316-.95,1.316-1.758v-3.702c0-.519-.22-1.003-.62-1.364l-.305-.276.008-5.886v-.002c.01-.096.274-2.656-1.502-4.663-1.535-1.738-4.147-2.618-7.762-2.618-3.627,0-6.244.887-7.778,2.637-1.494,1.704-1.534,3.752-1.502,4.42l.025.02v6.092l-.306.275c-.399.362-.62.846-.62,1.365v3.702c0,.626.321,1.206.857,1.552l.316.204.084.366c.071.308.154.607.241.899.005.02.012.038.017.057l.051.164c.086.271.174.534.269.786.046.123.089.233.132.341.005.014.011.028.017.042.006.016.012.031.018.047.013.031.025.062.037.092.052.125.103.246.154.362.008.018.016.036.024.054.008.017.016.035.024.053.115.259.232.507.35.743c0,.001.001.001.001.001.221.44.443.837.652,1.188.008.013.015.025.023.037.098.164.194.318.285.46.002.003.004.007.006.01.002.004.004.007.007.01.192.3.365.549.503.741.001.001.001.001.002.002c0,.001,0,.001.001.002.066.092.123.169.172.233.007.007.012.015.018.022.073.096.124.159.144.183.005.007.008.011.008.011l.036.042.179.215v3.719c0,1.573-.858,3.02-2.24,3.774l-8.257,4.504c-2.089,1.138-3.386,3.325-3.386,5.705Z" clip-rule="evenodd" fill="url(#eFh4Q2Wslqc52-fill)" fill-rule="evenodd"/><path d="M398.672,174.904l8.842-4.421c.834-.417,1.352-1.256,1.352-2.188v-3.13c-.212-.259-.435-.554-.666-.88-1.146-1.62-2.065-3.423-2.734-5.367-1.306-.599-2.153-1.89-2.153-3.348v-3.702c0-.891.333-1.755.925-2.43v-4.923c-.052-.509-.255-3.539,1.936-6.039c1.902-2.168,4.986-3.268,9.171-3.268c4.184,0,7.269,1.1,9.17,3.267c1.328,1.515,1.775,3.222,1.91,4.447c1.587-.82,3.456-1.235,5.58-1.235c9.615,0,10.175,8.196,10.181,8.33v4.238c.599.653.925,1.408.925,2.156v3.197c0,.999-.447,1.93-1.213,2.559-.764,2.879-2.642,5.054-3.373,5.817v2.539c0,.729.396,1.397,1.084,1.773l6.158,3.862c2.358,1.287,3.823,3.755,3.823,6.441v3.514h-55.533v-3.742c0-3.182,1.769-6.044,4.615-7.467Zm37.96,7.287v2.071h11.107v-1.663c0-2.009-1.096-3.854-2.907-4.844l-6.157-3.862c-1.234-.673-2-1.963-2-3.37v-3.323l.294-.275c.024-.022,2.484-2.346,3.21-5.512l.084-.366.317-.204c.426-.276.68-.738.68-1.235v-3.197c0-.333-.227-.729-.621-1.086l-.304-.275.001-4.98c-.016-.265-.498-6.532-8.331-6.532-2.215,0-4.08.512-5.554,1.522v4.378c.593.675.926,1.539.926,2.43v3.702c0,.281-.032.558-.094.827-.015.066-.04.128-.065.191-.015.039-.031.078-.044.118-.013.039-.025.078-.037.117-.036.118-.072.235-.126.346-.001.001-.002.002-.002.004-.237.489-.583.926-1.018,1.275-.002.009-.005.019-.008.028-.001.003-.002.007-.003.011s-.002.007-.003.011c-.056.212-.114.423-.177.629l-.075.242c-.008.026-.017.052-.026.079-.006.016-.011.033-.017.049l-.022.068c-.024.077-.049.153-.075.229-.055.162-.114.33-.181.512-.016.043-.034.083-.051.124-.013.031-.026.063-.039.095-.076.194-.152.381-.232.566-.009.021-.018.043-.026.066-.01.023-.019.047-.029.07l-.052.117c-.013.028-.026.055-.039.082-.011.024-.023.048-.034.072-.091.198-.18.39-.272.575-.005.009-.009.018-.013.028-.003.006-.006.012-.009.018-.007.015-.014.031-.022.046-.045.09-.09.176-.136.262l-.039.074c-.099.19-.198.37-.296.544-.048.085-.095.168-.142.249-.134.227-.26.437-.383.631-.013.02-.026.04-.038.06-.014.022-.027.044-.041.065-.224.347-.418.628-.579.848-.043.058-.08.108-.116.157-.021.027-.048.066-.066.09v3.063c0,.895.489,1.717,1.275,2.147l2.449,1.335.426-.038.174.366l5.207,2.841c2.685,1.466,4.351,4.274,4.351,7.332Zm-1.851,0v2.071h-38.873v-1.891c0-2.477,1.377-4.704,3.592-5.812l8.842-4.421c1.465-.733,2.375-2.205,2.375-3.843v-3.818l-.23-.263c-.233-.264-.5-.609-.775-.999-1.122-1.583-2.004-3.361-2.623-5.288l-.148-.458-.461-.141c-.787-.243-1.316-.95-1.316-1.758v-3.702c0-.519.22-1.003.62-1.364l.305-.276-.008-5.886v-.002c-.01-.096-.274-2.656,1.502-4.663c1.536-1.738,4.148-2.618,7.762-2.618c3.627,0,6.244.887,7.778,2.637c1.494,1.704,1.534,3.752,1.502,4.42l-.025.02v6.092l.306.275c.4.362.62.846.62,1.365v3.702c0,.626-.32,1.206-.857,1.552l-.316.204-.084.366c-.07.308-.154.607-.241.899-.005.02-.012.038-.017.057l-.051.164c-.085.271-.174.534-.269.786-.045.123-.089.233-.132.341-.005.014-.011.028-.017.042-.006.016-.012.031-.018.047-.012.031-.025.062-.037.092-.052.125-.103.246-.154.362-.008.018-.016.036-.024.054-.008.017-.016.035-.024.053-.115.259-.232.507-.35.743c0,.001-.001.001-.001.001-.221.44-.443.837-.652,1.188-.008.013-.015.025-.022.037-.099.164-.195.318-.285.46-.003.003-.005.007-.007.01-.002.004-.004.007-.006.01-.193.3-.366.549-.504.741c0,.001-.001.001-.001.002-.001.001-.001.001-.002.002-.065.092-.123.169-.172.233-.006.007-.012.015-.017.022-.074.096-.125.159-.144.183-.006.007-.009.011-.009.011l-.035.042-.18.215v3.719c0,1.573.858,3.02,2.24,3.774l8.257,4.504c2.089,1.138,3.386,3.325,3.386,5.705Z" clip-rule="evenodd" fill="url(#eFh4Q2Wslqc53-fill)" fill-rule="evenodd"/></g><g id="eFh4Q2Wslqc54" opacity="0"><path d="M763.559,174.904l-8.842-4.421c-.834-.417-1.352-1.256-1.352-2.188v-3.13c.212-.259.435-.554.665-.88c1.147-1.62,2.066-3.423,2.734-5.367c1.306-.599,2.154-1.89,2.154-3.348v-3.702c0-.891-.333-1.755-.925-2.43v-4.923c.051-.509.255-3.539-1.937-6.039-1.901-2.168-4.986-3.268-9.17-3.268s-7.269,1.1-9.17,3.267c-1.329,1.515-1.776,3.222-1.911,4.447-1.586-.82-3.456-1.235-5.579-1.235-9.615,0-10.175,8.196-10.181,8.33v4.238c-.6.653-.926,1.408-.926,2.156v3.197c0,.999.448,1.93,1.214,2.559.763,2.879,2.641,5.054,3.373,5.817v2.539c0,.729-.397,1.397-1.084,1.773l-6.158,3.862c-2.358,1.287-3.823,3.755-3.823,6.441v3.514h55.533v-3.742c0-3.182-1.769-6.044-4.615-7.467Zm-37.961,7.287v2.071h-11.106v-1.663c0-2.009,1.096-3.854,2.907-4.844l6.157-3.862c1.233-.673,2-1.963,2-3.37v-3.323l-.295-.275c-.024-.022-2.483-2.346-3.209-5.512l-.085-.366-.316-.204c-.426-.276-.68-.738-.68-1.235v-3.197c0-.333.226-.729.621-1.086l.304-.275-.002-4.98c.017-.265.499-6.532,8.332-6.532c2.215,0,4.08.512,5.553,1.522v4.378c-.592.675-.925,1.539-.925,2.43v3.702c0,.281.032.558.093.827.016.066.04.128.065.191.016.039.031.078.044.118.013.039.025.078.038.117.036.118.072.235.125.346.001.001.002.002.003.004.237.489.582.926,1.017,1.275.003.009.006.019.009.028.001.003.002.007.003.011s.002.007.003.011c.056.212.114.423.177.629l.075.242c.008.026.017.052.026.079.006.016.011.033.016.049l.022.068c.025.077.05.153.076.229.055.162.113.33.181.512.016.043.033.083.05.124.014.031.027.063.04.095.076.194.152.381.231.566.01.021.018.043.027.066s.019.047.029.07l.052.117c.012.028.026.055.039.082.011.024.022.048.034.072.09.198.179.39.272.575.004.009.009.018.013.028.003.006.006.012.009.018.007.015.014.031.021.046.046.09.091.176.136.262l.039.074c.1.19.198.37.296.544.049.085.096.168.143.249.133.227.26.437.383.631.013.02.025.04.038.06.013.022.027.044.041.065.224.347.418.628.579.848.043.058.08.108.116.157.02.027.048.066.066.09v3.063c0,.895-.489,1.717-1.275,2.147l-2.449,1.335-.427-.038-.174.366-5.207,2.841c-2.684,1.466-4.351,4.274-4.351,7.332Zm1.851,0v2.071h38.873v-1.891c0-2.477-1.376-4.704-3.592-5.812l-8.841-4.421c-1.466-.733-2.375-2.205-2.375-3.843v-3.818l.23-.263c.232-.264.5-.609.775-.999c1.122-1.583,2.004-3.361,2.623-5.288l.148-.458.461-.141c.787-.243,1.316-.95,1.316-1.758v-3.702c0-.519-.22-1.003-.62-1.364l-.306-.276.009-5.886v-.002c.01-.096.273-2.656-1.502-4.663-1.536-1.738-4.148-2.618-7.762-2.618-3.627,0-6.245.887-7.778,2.637-1.494,1.704-1.534,3.752-1.503,4.42l.025.02v6.092l-.305.275c-.4.362-.62.846-.62,1.365v3.702c0,.626.32,1.206.857,1.552l.316.204.084.366c.07.308.153.607.24.899.006.02.012.038.018.057l.051.164c.085.271.174.534.268.786.046.123.09.233.132.341.006.014.012.028.017.042.007.016.013.031.019.047.012.031.025.062.037.092.052.125.103.246.154.362.007.018.015.036.024.054.008.017.016.035.024.053.114.259.232.507.35.743c0,.001,0,.001,0,.001.222.44.444.837.653,1.188.007.013.015.025.022.037.098.164.195.318.285.46.003.003.005.007.007.01.002.004.004.007.006.01.193.3.366.549.504.741c0,.001.001.001.001.002.001.001.001.001.001.002.066.092.124.169.173.233.006.007.012.015.017.022.073.096.125.159.144.183.005.007.009.011.009.011l.035.042.18.215v3.719c0,1.573-.858,3.02-2.24,3.774l-8.257,4.504c-2.089,1.138-3.387,3.325-3.387,5.705Z" clip-rule="evenodd" fill="url(#eFh4Q2Wslqc55-fill)" fill-rule="evenodd"/><path d="M729.899,174.904l8.841-4.421c.834-.417,1.353-1.256,1.353-2.188v-3.13c-.212-.259-.435-.554-.666-.88-1.147-1.62-2.066-3.423-2.734-5.367-1.306-.599-2.154-1.89-2.154-3.348v-3.702c0-.891.333-1.755.926-2.43v-4.923c-.052-.509-.256-3.539,1.936-6.039c1.901-2.168,4.986-3.268,9.17-3.268c4.185,0,7.27,1.1,9.171,3.267c1.328,1.515,1.775,3.222,1.91,4.447c1.586-.82,3.456-1.235,5.579-1.235c9.616,0,10.176,8.196,10.181,8.33v4.238c.6.653.926,1.408.926,2.156v3.197c0,.999-.447,1.93-1.214,2.559-.763,2.879-2.641,5.054-3.372,5.817v2.539c0,.729.396,1.397,1.084,1.773l6.157,3.862c2.359,1.287,3.824,3.755,3.824,6.441v3.514h-55.533v-3.742c0-3.182,1.768-6.044,4.615-7.467Zm37.96,7.287v2.071h11.107v-1.663c0-2.009-1.096-3.854-2.908-4.844l-6.156-3.862c-1.234-.673-2-1.963-2-3.37v-3.323l.294-.275c.024-.022,2.483-2.346,3.21-5.512l.084-.366.316-.204c.426-.276.681-.738.681-1.235v-3.197c0-.333-.227-.729-.621-1.086l-.305-.275.002-4.98c-.017-.265-.499-6.532-8.332-6.532-2.215,0-4.08.512-5.553,1.522v4.378c.592.675.925,1.539.925,2.43v3.702c0,.281-.032.558-.093.827-.015.066-.04.128-.065.191-.016.039-.031.078-.044.118-.013.039-.025.078-.037.117-.036.118-.073.235-.126.346-.001.001-.002.002-.003.004-.237.489-.582.926-1.017,1.275-.003.009-.005.019-.008.028-.001.003-.003.007-.004.011s-.002.007-.003.011c-.055.212-.114.423-.177.629l-.075.242c-.008.026-.017.052-.026.079-.005.016-.011.033-.016.049l-.022.068c-.025.077-.05.153-.075.229-.056.162-.114.33-.182.512-.016.043-.033.083-.05.124-.013.031-.027.063-.04.095-.075.194-.151.381-.231.566-.009.021-.018.043-.027.066s-.018.047-.028.07l-.052.117c-.013.028-.026.055-.039.082-.012.024-.023.048-.034.072-.091.198-.18.39-.273.575-.004.009-.009.018-.013.028-.003.006-.005.012-.008.018-.007.015-.015.031-.022.046-.045.09-.091.176-.136.262l-.039.074c-.1.19-.198.37-.296.544-.048.085-.095.168-.143.249-.133.227-.26.437-.383.631-.013.02-.025.04-.037.06-.014.022-.028.044-.042.065-.224.347-.418.628-.579.848-.042.058-.08.108-.116.157-.02.027-.048.066-.065.09v3.063c0,.895.488,1.717,1.274,2.147l2.449,1.335.427-.038.174.366l5.207,2.841c2.684,1.466,4.351,4.274,4.351,7.332Zm-1.851,0v2.071h-38.873v-1.891c0-2.477,1.376-4.704,3.592-5.812l8.842-4.421c1.465-.733,2.375-2.205,2.375-3.843v-3.818l-.231-.263c-.232-.264-.5-.609-.775-.999-1.121-1.583-2.003-3.361-2.623-5.288l-.148-.458-.461-.141c-.786-.243-1.316-.95-1.316-1.758v-3.702c0-.519.221-1.003.62-1.364l.306-.276-.008-5.886-.001-.002c-.01-.096-.273-2.656,1.503-4.663c1.535-1.738,4.147-2.618,7.761-2.618c3.628,0,6.245.887,7.779,2.637c1.494,1.704,1.533,3.752,1.502,4.42l-.025.02v6.092l.305.275c.4.362.62.846.62,1.365v3.702c0,.626-.32,1.206-.857,1.552l-.315.204-.084.366c-.071.308-.154.607-.241.899-.006.02-.012.038-.018.057l-.051.164c-.085.271-.174.534-.268.786-.046.123-.089.233-.132.341-.006.014-.011.028-.017.042-.006.016-.012.031-.019.047-.012.031-.024.062-.037.092-.051.125-.102.246-.153.362-.008.018-.016.036-.024.054-.008.017-.016.035-.024.053-.115.259-.233.507-.35.743c0,.001-.001.001-.001.001-.221.44-.443.837-.653,1.188-.007.013-.014.025-.022.037-.098.164-.194.318-.285.46-.002.003-.004.007-.006.01-.002.004-.005.007-.007.01-.192.3-.365.549-.503.741-.001.001-.001.001-.002.002c0,.001-.001.001-.001.002-.066.092-.123.169-.172.233-.007.007-.012.015-.018.022-.073.096-.124.159-.144.183-.005.007-.008.011-.009.011l-.035.042-.179.215v3.719c0,1.573.858,3.02,2.239,3.774l8.257,4.504c2.089,1.138,3.387,3.325,3.387,5.705Z" clip-rule="evenodd" fill="url(#eFh4Q2Wslqc56-fill)" fill-rule="evenodd"/></g><g id="eFh4Q2Wslqc57_to" transform="translate(574.928009,230.010199)"><g id="eFh4Q2Wslqc57_ts" transform="scale(0,1)"><g id="eFh4Q2Wslqc57" transform="translate(-574.928009,-55.010198)" opacity="0"><path d="M565.107,35.9701v-4.2672h-2.781v4.1571c0,.3303-.027.523-.055.6056-.055.1102-.137.2203-.302.3855l-2.864,2.8906-2.835-2.8906c-.165-.1652-.276-.2753-.303-.3855-.055-.0826-.055-.2753-.055-.6056v-4.1571h-2.753v4.2672c0,.5781.055,1.0461.22,1.4316.138.3854.413.7433.826,1.1287l3.524,3.4964v5.6437h2.808v-5.6437l3.524-3.4964c.385-.3854.661-.7433.826-1.1287.137-.3855.22-.8535.22-1.4316Z" fill="url(#eFh4Q2Wslqc58-fill)"/><path d="M581.123,43.9814v-3.9093c0-1.0461-.386-1.8996-1.157-2.6154-.77-.7158-1.706-1.0737-2.808-1.0737h-3.964c-1.129,0-2.065.3579-2.836,1.0737-.77.7158-1.128,1.5693-1.128,2.6154v3.9093c0,1.0462.358,1.9271,1.128,2.6429.771.7158,1.707,1.0462,2.836,1.0462h3.964c1.102,0,2.038-.3304,2.808-1.0462.771-.7158,1.157-1.5967,1.157-2.6429Zm-2.753.2753c0,.2753-.11.4956-.276.6608-.192.1651-.413.2477-.688.2477h-4.46c-.275,0-.495-.0826-.688-.2753-.193-.1652-.275-.3854-.275-.6332v-4.4599c0-.2202.082-.4405.275-.6332.193-.1652.413-.2753.688-.2753h4.46c.275,0,.496.1101.688.2753.166.1652.276.3854.276.6332v4.4599Z" fill="url(#eFh4Q2Wslqc59-fill)"/><path d="M596.685,47.6705v-11.2875h-2.753v6.3596l-1.982,2.0097c-.221.2202-.413.3579-.524.4129-.11.0551-.357.0551-.688.0551h-1.762c-.275,0-.495-.0826-.688-.2753-.193-.1652-.275-.3854-.275-.6332v-7.9288h-2.753v7.626c0,1.0736.358,1.9546,1.101,2.6429.716.6882,1.652,1.0186,2.808,1.0186h1.872c.413,0,.798-.0826,1.184-.2753.385-.1652.661-.3304.826-.4956.165-.1376.468-.4129.881-.8259v1.5968h2.753Z" fill="url(#eFh4Q2Wslqc60-fill)"/><path d="M540.595,74.5458v-1.9822c0-.9911-.358-1.7619-1.074-2.3125.716-.5506,1.074-1.3765,1.074-2.5053v-1.6243c0-1.0736-.386-1.9821-1.157-2.6979-.77-.7158-1.706-1.0737-2.808-1.0737h-7.708v15.9676h7.708c1.102,0,2.038-.3579,2.808-1.0737.771-.7158,1.157-1.5968,1.157-2.698Zm-2.808-6.8275c0,.4955-.083.8534-.248,1.0186s-.496.2478-.991.2478h-4.901v-4.1571h5.176c.22,0,.441.1377.661.3579.193.2202.303.468.303.7433v1.7895Zm0,7.0478c0,.2753-.11.5506-.303.7708-.22.2203-.441.3304-.661.3304h-5.176v-4.3773h5.011c.44,0,.716.1101.881.2753.165.1927.248.5506.248,1.0461v1.9547Z" fill="url(#eFh4Q2Wslqc61-fill)"/><path d="M556.424,78.3175v-11.2875h-2.753v6.3596l-1.982,2.0097c-.22.2202-.413.3579-.523.4129s-.358.0551-.688.0551h-1.762c-.276,0-.496-.0826-.688-.2753-.193-.1652-.276-.3854-.276-.6332v-7.9288h-2.753v7.6259c0,1.0737.358,1.9547,1.101,2.643.716.6882,1.652,1.0186,2.808,1.0186h1.873c.413,0,.798-.0826,1.183-.2753.386-.1652.661-.3304.826-.4956.165-.1376.468-.4129.881-.8259v1.5968h2.753Z" fill="url(#eFh4Q2Wslqc62-fill)"/><path d="M565.955,65.1304v-2.7805h-2.918v2.7805h2.918Zm2.313,13.1871v-2.4502h-2.368v-9.0575h-5.065v2.4777h2.312v6.5798h-2.312v2.4502h7.433Z" fill="url(#eFh4Q2Wslqc63-fill)"/><path d="M579.559,78.3175v-2.4502h-2.34v-13.5174h-5.093v2.4502h2.34v11.0672h-2.34v2.4502h7.433Z" fill="url(#eFh4Q2Wslqc64-fill)"/><path d="M594.956,78.3175v-15.9676h-2.753v5.9741c-.385-.3304-.66-.6057-.853-.7709-.22-.1652-.496-.3303-.881-.4955s-.771-.2478-1.156-.2478h-2.12c-1.129,0-2.065.3304-2.808,1.0461-.744.7158-1.101,1.6243-1.101,2.6705v4.0745c0,1.0737.357,1.9546,1.101,2.6704.716.7158,1.652,1.0462,2.808,1.0462h7.763Zm-2.753-2.4502h-5.203c-.275,0-.495-.0826-.688-.2753-.193-.1652-.275-.3854-.275-.6607v-4.7077c0-.2203.082-.4405.275-.6332.193-.1652.413-.2753.688-.2753h2.01c.33,0,.55.0275.661.0826.11.055.302.1927.578.4129l1.954,1.7069v4.3498Z" fill="url(#eFh4Q2Wslqc65-fill)"/><path d="M620.934,66.6171v-4.2672h-2.781v4.1571c0,.3303-.027.523-.055.6056-.055.1102-.137.2203-.303.3855l-2.863,2.8906-2.835-2.8906c-.166-.1652-.276-.2753-.303-.3855-.055-.0826-.055-.2753-.055-.6056v-4.1571h-2.753v4.2672c0,.5781.055,1.0461.22,1.4316.138.3854.413.7433.826,1.1287l3.524,3.4964v5.6437h2.808v-5.6437l3.524-3.4964c.385-.3854.66-.7433.826-1.1287.137-.3855.22-.8535.22-1.4316Z" fill="url(#eFh4Q2Wslqc66-fill)"/></g></g></g><g id="eFh4Q2Wslqc67" transform="translate(.000001 0)" opacity="0"><path d="M918.522,43.2428v-4.2672h-2.78v4.1571c0,.3304-.028.5231-.055.6057-.055.1101-.138.2202-.303.3854l-2.863,2.8907-2.836-2.8907c-.165-.1652-.275-.2753-.303-.3854-.055-.0826-.055-.2753-.055-.6057v-4.1571h-2.753v4.2672c0,.5782.055,1.0462.22,1.4316.138.3854.413.7433.826,1.1288l3.524,3.4963v5.6437h2.808v-5.6437l3.524-3.4963c.386-.3855.661-.7434.826-1.1288.138-.3854.22-.8534.22-1.4316Z" fill="url(#eFh4Q2Wslqc68-fill)"/><path d="M934.538,51.2542v-3.9093c0-1.0462-.385-1.8996-1.156-2.6154s-1.707-1.0737-2.808-1.0737h-3.965c-1.128,0-2.064.3579-2.835,1.0737s-1.129,1.5692-1.129,2.6154v3.9093c0,1.0461.358,1.9271,1.129,2.6429s1.707,1.0461,2.835,1.0461h3.965c1.101,0,2.037-.3303,2.808-1.0461s1.156-1.5968,1.156-2.6429Zm-2.753.2753c0,.2753-.11.4955-.275.6607-.193.1652-.413.2478-.688.2478h-4.46c-.276,0-.496-.0826-.689-.2753-.192-.1652-.275-.3854-.275-.6332v-4.4599c0-.2203.083-.4405.275-.6332.193-.1652.413-.2753.689-.2753h4.46c.275,0,.495.1101.688.2753.165.1651.275.3854.275.6332v4.4599Z" fill="url(#eFh4Q2Wslqc69-fill)"/><path d="M950.1,54.9432v-11.2874h-2.753v6.3595l-1.982,2.0097c-.22.2203-.413.3579-.523.413-.11.055-.358.055-.688.055h-1.762c-.276,0-.496-.0825-.689-.2753-.192-.1651-.275-.3854-.275-.6332v-7.9287h-2.753v7.6259c0,1.0737.358,1.9547,1.101,2.6429.716.6883,1.652,1.0186,2.808,1.0186h1.872c.413,0,.799-.0825,1.184-.2753.386-.1651.661-.3303.826-.4955.165-.1377.468-.413.881-.8259v1.5967h2.753Z" fill="url(#eFh4Q2Wslqc70-fill)"/><path d="M958.42,40.242v-1.8996c0-.1651-.11-.2753-.276-.2753h-2.808c-.192,0-.275.1102-.275.2753v2.4778c0,.1927.083.2753.275.2753h.936v.2202l-1.349,2.1749.909.6332l2.175-2.6429c.275-.2753.413-.6883.413-1.2389Z" fill="url(#eFh4Q2Wslqc71-fill)"/><path d="M974.095,48.391v-1.1012c0-1.0461-.385-1.8996-1.129-2.6154-.743-.6882-1.679-1.0186-2.78-1.0186h-1.432c-.22,0-.385.0275-.551.0275-.165.0276-.33.0826-.468.1377-.165.055-.275.1101-.385.1652s-.22.1376-.358.2477c-.137.1102-.248.1928-.303.2478-.055.0551-.165.1927-.33.3579s-.303.2753-.358.3304v-1.5142h-2.753v11.2874h2.753v-6.6072l1.845-1.6794c.247-.2202.44-.3304.55-.3854.11-.0551.331-.0826.688-.0826h1.239c.248,0,.468.1101.661.2753.193.1927.303.413.303.6332v1.2939h2.808Z" fill="url(#eFh4Q2Wslqc72-fill)"/><path d="M989.032,50.6485v-3.3312c0-1.0461-.386-1.9271-1.102-2.6153-.743-.6883-1.679-1.0462-2.808-1.0462h-3.689c-1.156,0-2.092.3579-2.808,1.0462-.743.6882-1.101,1.5692-1.101,2.6153v3.9644c0,1.0737.358,1.9547,1.101,2.6429.716.6883,1.652,1.0186,2.808,1.0186h6.14v-2.4502h-6.332c-.276,0-.496-.0825-.689-.2753-.192-.1651-.275-.3854-.275-.6332v-.936h8.755Zm-2.753-2.3951h-6.002v-1.1563c0-.2202.083-.4405.275-.6332.193-.1652.413-.2753.689-.2753h4.074c.275,0,.496.1101.688.2753.166.1652.276.3854.276.6332v1.1563Z" fill="url(#eFh4Q2Wslqc73-fill)"/><path d="M930.194,81.8736v-8.5344c0-1.0461-.385-1.9271-1.101-2.6429-.743-.7158-1.679-1.0737-2.808-1.0737h-8.204v15.9676h8.204c1.129,0,2.065-.3303,2.808-1.0461.716-.7158,1.101-1.5968,1.101-2.6705Zm-2.808.1377c0,.2753-.11.5231-.303.7158-.192.2202-.412.3028-.66.3028h-5.589v-10.8469h5.589c.248,0,.468.1101.66.3028.193.2202.303.4405.303.7158v8.8097Z" fill="url(#eFh4Q2Wslqc74-fill)"/><path d="M946.096,81.2955v-3.3312c0-1.0461-.385-1.9271-1.101-2.6154-.743-.6882-1.679-1.0461-2.808-1.0461h-3.689c-1.156,0-2.092.3579-2.808,1.0461-.744.6883-1.101,1.5693-1.101,2.6154v3.9644c0,1.0737.357,1.9547,1.101,2.6429.716.6883,1.652,1.0186,2.808,1.0186h6.139v-2.4502h-6.332c-.275,0-.495-.0826-.688-.2753-.193-.1651-.275-.3854-.275-.6332v-.936h8.754Zm-2.753-2.3951h-6.001v-1.1563c0-.2203.082-.4405.275-.6332.193-.1652.413-.2753.688-.2753h4.075c.275,0,.495.1101.688.2753.165.1652.275.3854.275.6332v1.1563Z" fill="url(#eFh4Q2Wslqc75-fill)"/><path d="M961.462,77.7991c0-.936-.386-1.7619-1.102-2.4502-.743-.6882-1.624-1.0461-2.67-1.0461h-5.699v2.5328h5.203c.606,0,.991.0826,1.212.2478.192.1651.303.468.303.9085v.6882l-4.873.0276c-1.102,0-2.038.3303-2.781.991s-1.101,1.4316-1.101,2.3401c0,.9911.358,1.817,1.101,2.5053.716.7158,1.652,1.0461,2.808,1.0461h7.599v-7.7911ZM958.709,83.14h-5.066c-.275,0-.496-.0826-.688-.3028-.193-.1927-.276-.4405-.276-.7158s.111-.5231.331-.7158.468-.3028.743-.3028h4.956v2.0372Z" fill="url(#eFh4Q2Wslqc76-fill)"/><path d="M977.529,85.5902v-15.9676h-2.753v5.9741c-.386-.3303-.661-.6056-.854-.7708-.22-.1652-.495-.3304-.881-.4956-.385-.1652-.771-.2477-1.156-.2477h-2.12c-1.129,0-2.065.3303-2.808,1.0461s-1.101,1.6243-1.101,2.6704v4.0745c0,1.0737.358,1.9547,1.101,2.6705.716.7158,1.652,1.0461,2.808,1.0461h7.764ZM974.776,83.14h-5.204c-.275,0-.495-.0826-.688-.2753-.192-.1651-.275-.3854-.275-.6607v-4.7077c0-.2202.083-.4405.275-.6332.193-.1652.413-.2753.688-.2753h2.01c.331,0,.551.0275.661.0826s.303.1927.578.413l1.955,1.7068v4.3498Z" fill="url(#eFh4Q2Wslqc77-fill)"/></g><g id="eFh4Q2Wslqc78" transform="translate(.000001 0)" opacity="0"><path d="M878.068,133.853c-.746-.36-1.643-.048-2.004.697-.36.746-.048,1.643.697,2.004l11.835,5.725h-80.184c-.828,0-1.5.672-1.5,1.5s.672,1.5,1.5,1.5h79.975l-11.607,5.423c-.751.351-1.075,1.243-.724,1.994.35.75,1.243,1.075,1.994.724l17.726-8.282l2.858-1.336-2.84-1.373-17.726-8.576Z" clip-rule="evenodd" fill="#e10000" fill-rule="evenodd"/></g><g id="eFh4Q2Wslqc80" transform="translate(.000001 0.000001)" opacity="0"><path d="M589.255,127.27h-28.664c-1.122,0-2.03.908-2.03,2.026v28.671c0,1.119.908,2.027,2.03,2.027h28.664c1.122,0,2.03-.908,2.03-2.027v-28.671c0-1.118-.908-2.026-2.03-2.026Zm-.514,2.544v5.056h-27.636v-5.056h27.636Zm-27.636,7.61v20.026h27.639v-20.026h-27.639Z" clip-rule="evenodd" fill="url(#eFh4Q2Wslqc81-fill)" fill-rule="evenodd"/><path d="M580.616,153.847c-.287,0-.571-.11-.791-.328-.437-.437-.437-1.145,0-1.582l4.314-4.315-4.314-4.314c-.437-.437-.437-1.145,0-1.583.437-.437,1.145-.437,1.583,0l5.897,5.897-5.897,5.897c-.221.218-.508.328-.792.328Z" fill="url(#eFh4Q2Wslqc82-fill)"/><path d="M569.229,153.847c-.287,0-.571-.11-.791-.328l-5.894-5.897l5.897-5.897c.438-.437,1.146-.437,1.583,0c.438.438.438,1.146,0,1.583l-4.317,4.314l4.314,4.315c.437.437.437,1.145,0,1.582-.217.218-.504.328-.792.328Z" fill="url(#eFh4Q2Wslqc83-fill)"/><path d="M572.973,152.999c-.157,0-.314-.034-.464-.104-.561-.257-.808-.922-.551-1.483l3.9-8.511c.257-.561.922-.808,1.483-.551s.808.921.551,1.482l-3.901,8.512c-.19.411-.594.655-1.018.655Z" fill="url(#eFh4Q2Wslqc84-fill)"/><path d="M563.586,132.288c0,.571.464,1.036,1.035,1.036s1.035-.465,1.035-1.036-.464-1.035-1.035-1.035-1.035.461-1.035,1.035Z" fill="url(#eFh4Q2Wslqc85-fill)"/><path d="M567.683,132.288c0,.571.465,1.036,1.036,1.036s1.035-.465,1.035-1.036-.464-1.035-1.035-1.035c-.571-.003-1.032.461-1.036,1.035c0-.003,0-.003,0,0Z" fill="url(#eFh4Q2Wslqc86-fill)"/><path d="M571.784,132.288c0,.571.464,1.036,1.035,1.036s1.035-.465,1.035-1.036-.464-1.035-1.035-1.035c-.571-.003-1.035.461-1.035,1.035c0-.003,0-.003,0,0Z" fill="url(#eFh4Q2Wslqc87-fill)"/><path d="M542.257,129.027c0-7.456,6.044-13.5,13.5-13.5h38.333c7.455,0,13.5,6.045,13.5,13.5v13.488h80.213l-12.324-5.961c-.746-.361-1.058-1.258-.697-2.004s1.258-1.058,2.003-.697l17.727,8.575l2.84,1.374-2.859,1.335-17.726,8.282c-.75.351-1.643.027-1.994-.724-.35-.75-.026-1.643.724-1.994l11.1-5.186h-79.007v13.015c0,7.456-6.045,13.5-13.5,13.5h-38.333c-7.456,0-13.5-6.044-13.5-13.5v-12.755h-75.669c-.829,0-1.5-.671-1.5-1.5c0-.828.671-1.5,1.5-1.5h75.669v-13.748Zm13.5-10.5c-5.799,0-10.5,4.701-10.5,10.5v29.503c0,5.799,4.701,10.5,10.5,10.5h38.333c5.799,0,10.5-4.701,10.5-10.5v-29.503c0-5.799-4.701-10.5-10.5-10.5h-38.333Z" clip-rule="evenodd" fill="url(#eFh4Q2Wslqc88-fill)" fill-rule="evenodd"/></g><g id="eFh4Q2Wslqc89" transform="translate(.000001 0)" opacity="0"><path d="M932.385,136.926c-.419-8.079,6.182-15.628,14.186-16.243c5.714-.444,11.034,2.18,14.187,6.982c1.736,2.635,2.598,5.726,2.463,8.768-.123,2.586-1.071,4.889-3.128,7.61l-.813,1.072-.024,1.909c-.024,2.007-.221,3.066-.813,4.211-.369.727-1.182,1.552-1.896,1.921-.517.283-.763.333-1.601.32-1.108,0-1.76-.234-2.783-.985l-.591-.431-.566.431c-.949.715-1.601.973-2.636,1.035-1.133.061-1.946-.209-2.931-.948l-.64-.493-.529.443c-.887.74-1.959,1.183-2.919,1.195-2.266.012-3.67-1.761-4.261-5.406-.099-.615-.185-1.453-.185-1.872v-.751l-.936-1.158c-2.488-3.041-3.461-5.086-3.584-7.61Zm28.311-4.126c-1.404-5.048-5.184-8.669-10.184-9.74-1.207-.271-3.608-.321-4.766-.123-6.366,1.133-11.181,6.884-11.181,13.374c0,2.364.64,3.805,3.041,6.772l1.343,1.663.147,1.785c.308,3.596,1.059,5.173,2.414,5c.665-.074,1.663-.8,2.488-1.81.381-.469.726-.85.763-.85.025,0,.492.468,1.022,1.034c1.921,2.056,3.091,1.995,4.926-.222.419-.517.8-.935.837-.923.038,0,.395.394.789.85.947,1.145,1.674,1.625,2.512,1.699.628.05.677.037,1.12-.419.751-.751,1.035-1.662,1.108-3.473.049-1.231.013-1.613-.16-2.069l-.209-.554.357-.431c2.316-2.906,3.412-4.79,3.793-6.526.283-1.219.197-3.744-.16-5.037Z" clip-rule="evenodd" fill="url(#eFh4Q2Wslqc90-fill)" fill-rule="evenodd"/><path d="M941.362,132.714c-.825.296-1.465.813-1.921,1.552-.295.468-.369.751-.418,1.539-.05.838-.013,1.059.246,1.626.616,1.354,1.748,2.081,3.251,2.081.677,0,.997-.061,1.502-.32c1.65-.825,2.389-2.685,1.749-4.409-.665-1.749-2.66-2.684-4.409-2.069Z" fill="url(#eFh4Q2Wslqc91-fill)"/><path d="M952.076,132.665c-3.042.997-3.35,5.11-.492,6.527c1.268.64,3.004.345,4.027-.677c1.255-1.256,1.342-3.424.184-4.766-.837-.985-2.512-1.478-3.719-1.084Z" fill="url(#eFh4Q2Wslqc92-fill)"/><path d="M946.658,142.923c-.554,1.194-.985,2.192-.961,2.216.025.025.973.025,2.131.013l2.081-.038-1.047-2.192c-.579-1.195-1.084-2.18-1.12-2.18-.037.014-.518.987-1.084,2.181Z" fill="url(#eFh4Q2Wslqc93-fill)"/><path d="M922.497,152.221c-1.293-2.672.147-5.616,3.14-6.392.862-.221,2.426-.111,3.324.222c1.576.578,2.857,1.699,3.535,3.066.332.665.406.973.443,1.872.025.591,0,1.232-.074,1.441-.099.295-.087.394.074.542.209.184,14.753,7.105,14.937,7.105.136,0,14.359-6.723,14.704-6.945.259-.173.284-.234.161-.653-.062-.246-.099-.899-.074-1.44.024-.838.11-1.146.443-1.836.751-1.527,2.118-2.648,3.879-3.189c1.256-.382,2.808-.283,3.916.234c1.084.504,1.749,1.133,2.216,2.069.616,1.268.616,2.758-.024,4.027l-.234.456.713.197c2.401.69,3.78,2.993,3.177,5.332-.283,1.122-.628,1.712-1.539,2.624-1.331,1.317-2.919,1.92-4.766,1.809-1.478-.098-2.278-.456-3.264-1.453-.812-.825-.824-.825-1.231-.689-.899.308-8.472,3.953-8.386,4.039.209.21,8.472,4.039,8.694,4.027.16,0,.406-.21.628-.518.739-1.009,2.352-1.711,3.94-1.711c4.089,0,7.205,4.039,5.678,7.364-.53,1.145-1.835,2.192-3.03,2.45-.233.05-.467.111-.517.136-.048.037.05.345.222.714c1.084,2.376-.135,5.16-2.659,6.046-3.005,1.059-6.847-.862-7.709-3.867-.234-.763-.259-2.117-.062-2.623.099-.258.074-.356-.086-.504-.11-.099-3.484-1.737-7.499-3.621l-7.279-3.449-7.315,3.448c-4.014,1.884-7.426,3.546-7.573,3.682-.222.21-.247.308-.148.579.185.468.148,1.971-.061,2.549-.9,2.549-3.141,4.126-5.862,4.126-2.168,0-3.695-.911-4.544-2.71-.456-.972-.456-2.45,0-3.546l.32-.751-.554-.148c-2.463-.615-3.917-3.005-3.301-5.418.395-1.527,1.466-2.857,2.993-3.658c2.401-1.28,5.172-.911,6.797.912.542.603.604.641.949.542.419-.123,8.436-3.916,8.571-4.052.111-.111-8.497-4.211-8.842-4.211-.135,0-.356.196-.517.431-.554.862-1.81,1.563-3.189,1.785-1.182.198-2.315,0-3.583-.628-1.712-.837-2.882-2.278-3.227-3.99-.468-2.29.961-4.544,3.264-5.123.223-.055.42-.111.535-.144.062-.018.101-.028.105-.028.025-.013-.074-.246-.209-.529Zm8.201-.16c.492-1.367-.394-3.017-2.044-3.793-.85-.395-2.291-.493-2.956-.198-.935.431-1.477,1.195-1.477,2.118.012,1.133.788,2.229,2.081,2.931.344.197.616.407.578.48-.603,1.454-.874,1.921-1.046,1.848-1.614-.665-2.685-.726-3.719-.21-2.008,1.023-1.454,3.806.985,4.951.973.455,2.402.468,3.214.012.295-.172.677-.504.825-.739.48-.713.775-.973,1.305-1.12c1.022-.284,1.626-.062,7.229,2.585l5.234,2.488l2.18-1.022c1.194-.567,2.143-1.059,2.093-1.109-.049-.048-3.079-1.502-6.724-3.226-6.871-3.251-7.228-3.46-7.721-4.408-.283-.554-.296-.886-.037-1.588Zm39.407-3.818c.283.123.665.443.862.702.32.407.357.554.357,1.342c0,.801-.037.948-.407,1.49-.345.493-1.034,1.133-1.65,1.54-.062.037.099.504.357,1.022.394.8.505.936.715.874c1.071-.296,1.872-.345,2.549-.135c1.219.357,1.823,1.084,1.823,2.228c0,.751-.247,1.293-.924,2.008-.764.825-1.81,1.293-2.894,1.293-1.243,0-2.019-.407-2.672-1.428-.407-.641-.985-.875-2.008-.801-.751.062-1.773.517-17.462,7.918-9.162,4.322-16.834,7.993-17.055,8.165-1.059.825-1.355,1.601-1.01,2.684.345,1.109.111,1.934-.813,2.944-1.354,1.465-3.953,1.674-5.123.406-1.133-1.219-.357-3.423,1.551-4.396.271-.148.517-.308.567-.37.049-.098-.665-1.736-.862-1.958-.012-.012-.468.111-.998.296-.788.258-1.108.308-1.686.246-2.02-.209-2.944-1.724-2.131-3.46.591-1.293,2.057-2.155,3.62-2.155c1.097,0,1.762.332,2.427,1.219.689.9.997,1.047,2.142.961.875-.049,1.109-.135,3.522-1.281c1.428-.677,8.903-4.211,16.625-7.856c8.632-4.064,14.235-6.773,14.556-7.032.271-.234.628-.665.776-.973.283-.591.283-.825,0-1.921-.123-.467-.123-.665.037-1.231.591-2.033,3.226-3.215,5.209-2.341Zm-4.471,22.548c-.295-.074-2.807-1.206-5.603-2.524-2.795-1.318-5.135-2.402-5.198-2.39-.073,0-1.096.455-2.266.997l-2.13,1.01.345.185c.181.097,3.088,1.473,6.488,3.083l.199.094c6.539,3.091,6.908,3.313,7.401,4.249.283.554.295.887.037,1.588-.677,1.885,1.133,4.003,3.547,4.15.849.05,1.034.025,1.638-.27.948-.468,1.342-1.145,1.268-2.167-.061-.937-.542-1.725-1.477-2.427l-.702-.529.419-.9c.382-.812.444-.887.764-.849c2.204.197,2.413.184,3.115-.185c2.02-1.059,1.502-3.719-.96-4.926-.592-.282-.862-.344-1.688-.344-.85,0-1.059.049-1.551.332-.345.21-.727.579-.961.949-.578.899-1.404,1.17-2.685.874Z" clip-rule="evenodd" fill="url(#eFh4Q2Wslqc94-fill)" fill-rule="evenodd"/></g><g id="eFh4Q2Wslqc95" transform="translate(0 0.000001)" opacity="0"><path d="M256.984,127h-28.905c-1.132,0-2.048.916-2.048,2.044v28.912c0,1.128.916,2.044,2.048,2.044h28.905c1.131,0,2.047-.916,2.047-2.044v-28.912c0-1.128-.916-2.044-2.047-2.044Zm-.519,2.566v5.098h-27.868v-5.098h27.868Zm-27.868,7.674v20.194h27.872v-20.194h-27.872Z" clip-rule="evenodd" fill="url(#eFh4Q2Wslqc96-fill)" fill-rule="evenodd"/><path d="M248.273,153.801c-.29,0-.576-.111-.798-.33-.442-.441-.442-1.155,0-1.596l4.35-4.351-4.35-4.351c-.442-.441-.442-1.155,0-1.596.441-.441,1.155-.441,1.596,0l5.946,5.947-5.946,5.947c-.223.219-.512.33-.798.33Z" fill="url(#eFh4Q2Wslqc97-fill)"/><path d="M236.79,153.801c-.29,0-.576-.111-.798-.33l-5.944-5.947l5.947-5.947c.441-.441,1.155-.441,1.596,0s.441,1.155,0,1.596l-4.354,4.351l4.351,4.351c.441.441.441,1.155,0,1.596-.219.219-.508.33-.798.33Z" fill="url(#eFh4Q2Wslqc98-fill)"/><path d="M240.565,152.945c-.159,0-.317-.033-.468-.104-.566-.259-.815-.929-.556-1.495l3.933-8.583c.259-.566.929-.815,1.495-.556s.815.929.556,1.495l-3.933,8.583c-.192.415-.6.66-1.027.66Z" fill="url(#eFh4Q2Wslqc99-fill)"/><path d="M235.231,132.061c0,.576.468,1.044,1.044,1.044s1.044-.468,1.044-1.044-.468-1.044-1.044-1.044c-.576-.003-1.041.465-1.044,1.044c0-.003,0-.003,0,0Z" fill="url(#eFh4Q2Wslqc100-fill)"/><path d="M231.099,132.061c0,.576.468,1.044,1.044,1.044s1.044-.468,1.044-1.044-.468-1.044-1.044-1.044-1.044.465-1.044,1.044Z" fill="url(#eFh4Q2Wslqc101-fill)"/><path d="M239.366,132.061c0,.576.468,1.044,1.044,1.044s1.044-.468,1.044-1.044-.468-1.044-1.044-1.044c-.576-.003-1.044.465-1.044,1.044c0-.003,0-.003,0,0Z" fill="url(#eFh4Q2Wslqc102-fill)"/><path d="M209.294,129.027c0-7.456,6.044-13.5,13.5-13.5h38.333c7.456,0,13.5,6.045,13.5,13.5v13.488h80.211l-12.324-5.961c-.746-.361-1.058-1.258-.697-2.004s1.258-1.058,2.003-.697l17.727,8.575l2.84,1.374-2.859,1.335-17.726,8.282c-.75.351-1.643.027-1.994-.724-.35-.75-.026-1.643.724-1.994l11.1-5.186h-79.005v13.015c0,7.456-6.044,13.5-13.5,13.5h-38.333c-7.456,0-13.5-6.044-13.5-13.5v-12.755h-75.667c-.828,0-1.5-.671-1.5-1.5c0-.828.672-1.5,1.5-1.5h75.667v-13.748Zm13.5-10.5c-5.799,0-10.5,4.701-10.5,10.5v29.503c0,5.799,4.701,10.5,10.5,10.5h38.333c5.799,0,10.5-4.701,10.5-10.5v-29.503c0-5.799-4.701-10.5-10.5-10.5h-38.333Z" clip-rule="evenodd" fill="url(#eFh4Q2Wslqc103-fill)" fill-rule="evenodd"/></g></svg>
