<svg width="278" height="161" viewBox="0 0 278 161" fill="none" xmlns="http://www.w3.org/2000/svg">
<rect x="4.33022" width="259.91" height="50.5206" rx="25.2603" transform="matrix(0.866044 -0.499967 0.866044 0.499967 0.580058 134.611)" fill="url(#paint0_linear_1065_4479)" stroke="white" stroke-width="5"/>
<g clip-path="url(#clip0_1065_4479)">
<path d="M52.7316 128.029L59.777 127.941L60.1802 117.095" stroke="white" stroke-width="3" stroke-linecap="round" stroke-linejoin="round"/>
<path d="M67.0738 121.075L73.9681 125.056C74.5776 125.407 74.9094 125.891 74.8905 126.399C74.8716 126.908 74.5036 127.4 73.8674 127.767L59.4741 136.076C58.8379 136.444 57.9856 136.656 57.1047 136.667C56.2239 136.678 55.3866 136.486 54.7771 136.134L40.9885 128.174C40.379 127.822 40.0472 127.339 40.0661 126.831C40.085 126.322 40.4531 125.83 41.0893 125.463L51.8843 119.231" stroke="white" stroke-width="4" stroke-linecap="round" stroke-linejoin="round"/>
</g>
<path d="M102.452 108.35C100.332 109.574 97.8382 110.198 94.9698 110.222C92.1015 110.246 89.5241 109.598 87.2378 108.278C84.9653 106.966 83.8498 105.474 83.8914 103.802C83.9468 102.122 84.9999 100.69 87.0507 99.5062C88.9352 98.4183 90.9237 97.8223 93.016 97.7184C95.1222 97.6064 97.0137 97.8423 98.6903 98.4263L96.8405 100.478C95.8012 100.118 94.665 99.9662 93.4317 100.022C92.1846 100.07 90.9791 100.43 89.8151 101.102C88.6096 101.798 87.9791 102.658 87.9237 103.682C87.8821 104.698 88.6442 105.658 90.21 106.562C91.7066 107.426 93.3347 107.854 95.0945 107.846C96.8682 107.83 98.3855 107.458 99.6465 106.73C100.797 106.066 101.413 105.366 101.496 104.63C101.593 103.886 101.351 103.21 100.769 102.602L104.261 101.522C104.704 101.954 105.037 102.434 105.258 102.962C105.494 103.482 105.591 104.042 105.549 104.642C105.508 105.242 105.224 105.87 104.697 106.526C104.185 107.174 103.436 107.782 102.452 108.35ZM107.688 98.0315L113.695 101.499L110.931 103.095L95.8824 94.4077L98.6468 92.8118L104.321 96.0876C104.196 95.2956 104.744 94.5477 105.963 93.8437C107.21 93.1238 108.534 92.7998 109.933 92.8718C111.333 92.9278 112.628 93.2998 113.82 93.9877L120.263 97.7075L117.499 99.3034L111.534 95.8596C110.924 95.5076 110.273 95.3156 109.58 95.2836C108.901 95.2436 108.243 95.4076 107.605 95.7756C107.037 96.1036 106.767 96.4756 106.795 96.8915C106.836 97.2995 107.134 97.6795 107.688 98.0315ZM119.66 94.8399C118.787 94.3359 118.372 93.7679 118.413 93.136C118.455 92.504 118.857 91.888 119.619 91.2881L121.759 89.6202C122.203 89.2842 122.217 88.9962 121.801 88.7563C121.413 88.5323 120.942 88.4363 120.388 88.4683C119.847 88.4923 119.3 88.6643 118.746 88.9842C118.164 89.3202 117.859 89.6802 117.831 90.0642C117.817 90.4401 118.025 90.7761 118.455 91.0721L115.482 92.188C114.693 91.6201 114.346 90.9161 114.443 90.0762C114.54 89.2362 115.226 88.4483 116.501 87.7123C118.025 86.8324 119.515 86.3964 120.97 86.4044C122.411 86.4044 123.699 86.7324 124.836 87.3883L129.866 90.2922C130.475 90.6441 131.057 90.9321 131.612 91.1561L129.076 92.62C128.702 92.484 128.258 92.268 127.746 91.972C128.106 92.932 127.607 93.8039 126.249 94.5879C125.196 95.1958 124.039 95.5118 122.778 95.5358C121.531 95.5518 120.492 95.3198 119.66 94.8399ZM124.773 93.064C125.425 92.688 125.778 92.276 125.833 91.8281C125.889 91.3641 125.494 90.8881 124.649 90.4001L124.191 90.1362L122.238 91.6721C121.517 92.232 121.524 92.724 122.258 93.148C122.591 93.34 122.993 93.4359 123.464 93.4359C123.921 93.4279 124.358 93.304 124.773 93.064ZM131.156 84.6278L137.038 88.0235L134.273 89.6194L124.047 83.7158L126.728 82.1679L127.996 82.8999C127.788 82.4439 127.823 81.9839 128.1 81.52C128.377 81.056 128.814 80.652 129.41 80.3081C130.615 79.6121 131.911 79.3041 133.296 79.3841C134.682 79.4481 135.971 79.8241 137.163 80.512L143.606 84.2318L140.841 85.8277L134.876 82.3839C134.266 82.0319 133.615 81.84 132.922 81.808C132.243 81.768 131.585 81.9319 130.948 82.2999C130.366 82.6359 130.103 83.0199 130.158 83.4518C130.213 83.8838 130.546 84.2758 131.156 84.6278ZM146.245 83.356L148.074 81.5322C148.739 81.8041 149.467 81.9201 150.257 81.8801C151.047 81.8401 151.76 81.6362 152.398 81.2682C154.213 80.2202 154.171 79.1483 152.273 78.0524L151.525 77.6204C151.663 77.9724 151.615 78.3604 151.379 78.7843C151.144 79.2083 150.679 79.6203 149.987 80.0203C148.629 80.8042 147.021 81.1882 145.164 81.1722C143.321 81.1482 141.686 80.7242 140.259 79.9003C138.873 79.1003 138.146 78.1604 138.077 77.0804C138.007 76.0005 138.659 75.0646 140.031 74.2726C140.779 73.8407 141.541 73.5607 142.317 73.4327C143.079 73.2967 143.751 73.2847 144.333 73.3967L143.128 72.7007L145.788 71.1648L154.913 76.4325C156.451 77.3204 157.282 78.3124 157.407 79.4083C157.545 80.5122 156.714 81.5842 154.913 82.6241C153.569 83.4 152.079 83.844 150.444 83.956C148.823 84.06 147.423 83.86 146.245 83.356ZM148.095 78.3764C148.802 77.9684 149.141 77.5004 149.114 76.9725C149.1 76.4365 148.698 75.9405 147.908 75.4846C147.132 75.0366 146.273 74.8126 145.331 74.8126C144.402 74.8046 143.599 74.9966 142.92 75.3886C142.213 75.7965 141.86 76.2725 141.86 76.8165C141.873 77.3524 142.268 77.8444 143.044 78.2924C143.834 78.7483 144.693 78.9803 145.622 78.9883C146.55 78.9963 147.375 78.7923 148.095 78.3764ZM154.553 70.6647L159.125 68.0249C158.53 67.7129 157.844 67.5569 157.068 67.5569C156.306 67.5489 155.557 67.7569 154.823 68.1809C154.158 68.5648 153.825 68.9968 153.825 69.4768C153.825 69.9568 154.068 70.3527 154.553 70.6647ZM162.056 69.4048L165.049 68.4689C165.714 69.1728 165.943 69.9368 165.735 70.7607C165.541 71.5767 164.841 72.3326 163.636 73.0286C162.167 73.8765 160.428 74.3125 158.419 74.3365C156.396 74.3525 154.553 73.8805 152.89 72.9206C151.31 72.0086 150.52 70.9767 150.52 69.8248C150.506 68.6648 151.179 67.6929 152.536 66.909C154.116 65.997 155.821 65.557 157.65 65.589C159.493 65.613 161.238 66.101 162.887 67.0529C162.998 67.1169 163.116 67.1929 163.241 67.2809C163.379 67.3609 163.49 67.4249 163.573 67.4729L163.698 67.5689L156.382 71.7926C157.075 72.1606 157.892 72.3286 158.834 72.2966C159.777 72.2646 160.594 72.0486 161.287 71.6486C162.465 70.9687 162.721 70.2207 162.056 69.4048ZM165.002 54.505L178.201 62.1245C178.879 62.5164 179.524 62.8564 180.134 63.1444L177.494 64.6683C177.078 64.5083 176.649 64.3003 176.205 64.0443C176.399 64.4283 176.371 64.8443 176.122 65.2922C175.886 65.7322 175.436 66.1442 174.771 66.5282C173.316 67.3681 171.612 67.7681 169.658 67.7281C167.704 67.6721 165.951 67.1961 164.399 66.3002C162.889 65.4282 162.078 64.4323 161.967 63.3124C161.87 62.1845 162.536 61.2085 163.963 60.3846C165.432 59.5366 166.817 59.2246 168.12 59.4486L162.279 56.0769L165.002 54.505ZM167.184 64.6923C168.085 65.2123 169.034 65.4882 170.032 65.5202C171.016 65.5442 171.882 65.3402 172.63 64.9083C173.365 64.4843 173.704 63.9843 173.649 63.4084C173.593 62.8324 173.115 62.2844 172.214 61.7645C171.328 61.2525 170.399 60.9885 169.429 60.9725C168.445 60.9485 167.586 61.1485 166.852 61.5725C166.117 61.9965 165.764 62.4964 165.792 63.0724C165.833 63.6404 166.298 64.1803 167.184 64.6923ZM195.376 54.7047C193.256 55.9286 190.762 56.5526 187.894 56.5766C185.025 56.6006 182.448 55.9526 180.162 54.6327C177.889 53.3208 176.774 51.8289 176.815 50.157C176.871 48.4771 177.924 47.0452 179.975 45.8613C181.859 44.7734 183.847 44.1774 185.94 44.0734C188.046 43.9614 189.938 44.1974 191.614 44.7814L189.764 46.8332C188.725 46.4733 187.589 46.3213 186.356 46.3773C185.108 46.4253 183.903 46.7852 182.739 47.4572C181.533 48.1531 180.903 49.0131 180.848 50.037C180.806 51.053 181.568 52.0129 183.134 52.9168C184.63 53.7808 186.259 54.2088 188.018 54.2008C189.792 54.1848 191.309 53.8128 192.57 53.0848C193.72 52.4209 194.337 51.7209 194.42 50.985C194.517 50.241 194.275 49.5651 193.693 48.9571L197.185 47.8772C197.628 48.3091 197.961 48.7891 198.182 49.3171C198.418 49.837 198.515 50.397 198.473 50.997C198.432 51.5969 198.148 52.2249 197.621 52.8808C197.108 53.5288 196.36 54.1368 195.376 54.7047ZM203.484 46.2324C204.509 46.2324 205.382 46.0244 206.103 45.6085C206.823 45.1925 207.177 44.6925 207.163 44.1086C207.163 43.5166 206.706 42.9566 205.791 42.4287C204.877 41.9007 203.907 41.6367 202.881 41.6367C201.87 41.6287 201.004 41.8327 200.283 42.2487C199.562 42.6647 199.202 43.1686 199.202 43.7606C199.216 44.3446 199.68 44.9005 200.595 45.4285C201.509 45.9564 202.472 46.2244 203.484 46.2324ZM195.461 43.9046C195.461 42.7207 196.23 41.6847 197.768 40.7968C199.306 39.9088 201.094 39.4689 203.131 39.4769C205.181 39.4769 206.99 39.9288 208.555 40.8328C210.121 41.7367 210.904 42.7807 210.904 43.9646C210.918 45.1405 210.156 46.1724 208.618 47.0604C207.08 47.9483 205.285 48.3923 203.234 48.3923C201.198 48.3843 199.396 47.9283 197.83 47.0244C196.265 46.1204 195.475 45.0805 195.461 43.9046ZM222.564 43.2088L219.8 44.8047L205.624 36.6212L208.306 35.0733L209.553 35.7933C209.387 35.4093 209.442 34.9774 209.719 34.4974C209.982 34.0094 210.481 33.5534 211.216 33.1295C212.671 32.2895 214.32 31.9136 216.162 32.0015C217.992 32.0815 219.689 32.5735 221.255 33.4774C222.821 34.3814 223.659 35.3853 223.77 36.4893C223.895 37.5852 223.243 38.5451 221.816 39.3691C220.458 40.153 219.059 40.481 217.617 40.353L222.564 43.2088ZM219.945 36.7052C219.904 36.1213 219.44 35.5733 218.553 35.0613C217.666 34.5494 216.724 34.2854 215.726 34.2694C214.742 34.2454 213.883 34.4454 213.149 34.8694C212.414 35.2933 212.068 35.7973 212.109 36.3813C212.137 36.9572 212.587 37.4972 213.46 38.0012C214.333 38.5051 215.276 38.7691 216.287 38.7931C217.299 38.8171 218.172 38.6171 218.906 38.1931C219.641 37.7692 219.987 37.2732 219.945 36.7052ZM235.656 35.7469L232.725 37.4388L229.816 32.9751L216.534 30.3232L219.631 28.5354L228.34 30.4192L224.869 25.5116L227.82 23.8077L235.656 35.7469Z" fill="white"/>
<defs>
<linearGradient id="paint0_linear_1065_4479" x1="-7.33935e-07" y1="55.5205" x2="273.436" y2="43.9991" gradientUnits="userSpaceOnUse">
<stop stop-color="#7A2FD2"/>
<stop offset="1" stop-color="#EC7D60"/>
</linearGradient>
<clipPath id="clip0_1065_4479">
<rect width="33.2391" height="31.8427" fill="white" transform="matrix(0.866044 -0.499967 0.866044 0.499967 29.2969 126.964)"/>
</clipPath>
</defs>
</svg>
