<svg id="ecFXsDbGBK21" xmlns="http://www.w3.org/2000/svg" xmlns:xlink="http://www.w3.org/1999/xlink" viewBox="0 0 1000 1000" shape-rendering="geometricPrecision" text-rendering="geometricPrecision">
<style><![CDATA[
#ecFXsDbGBK24 {animation: ecFXsDbGBK24_c_o 13000ms linear infinite normal forwards}@keyframes ecFXsDbGBK24_c_o { 0% {opacity: 0;animation-timing-function: cubic-bezier(0.755,0.02,0.23,1.025)} 4.615385% {opacity: 0.8;animation-timing-function: cubic-bezier(0.755,0.02,0.23,1.025)} 67.692308% {opacity: 0.8;animation-timing-function: cubic-bezier(0.755,0.02,0.23,1.025)} 76.923077% {opacity: 0} 100% {opacity: 0}} #ecFXsDbGBK214 {animation: ecFXsDbGBK214_c_o 13000ms linear infinite normal forwards}@keyframes ecFXsDbGBK214_c_o { 0% {opacity: 0;animation-timing-function: cubic-bezier(0.755,0.02,0.23,1.025)} 4.615385% {opacity: 0.8;animation-timing-function: cubic-bezier(0.755,0.02,0.23,1.025)} 67.692308% {opacity: 0.8;animation-timing-function: cubic-bezier(0.755,0.02,0.23,1.025)} 76.923077% {opacity: 0} 100% {opacity: 0}} #ecFXsDbGBK220_to {animation: ecFXsDbGBK220_to__to 13000ms linear infinite normal forwards}@keyframes ecFXsDbGBK220_to__to { 0% {transform: translate(449.897949px,235.148786px);animation-timing-function: cubic-bezier(0.755,0.02,0.23,1.025)} 4.615385% {transform: translate(449.897949px,480.875763px)} 100% {transform: translate(449.897949px,480.875763px)}} #ecFXsDbGBK220 {animation: ecFXsDbGBK220_c_o 13000ms linear infinite normal forwards}@keyframes ecFXsDbGBK220_c_o { 0% {opacity: 0;animation-timing-function: cubic-bezier(0.755,0.02,0.23,1.025)} 4.615385% {opacity: 1;animation-timing-function: cubic-bezier(0.755,0.02,0.23,1.025)} 67.692308% {opacity: 1;animation-timing-function: cubic-bezier(0.755,0.02,0.23,1.025)} 76.923077% {opacity: 0} 100% {opacity: 0}} #ecFXsDbGBK270_to {animation: ecFXsDbGBK270_to__to 13000ms linear infinite normal forwards}@keyframes ecFXsDbGBK270_to__to { 0% {transform: translate(451.211075px,756.44104px)} 67.692308% {transform: translate(451.211075px,756.44104px);animation-timing-function: cubic-bezier(0.755,0.02,0.23,1.025)} 76.923077% {transform: translate(501.47555px,544.146869px)} 100% {transform: translate(501.47555px,544.146869px)}} #ecFXsDbGBK270 {animation: ecFXsDbGBK270_c_o 13000ms linear infinite normal forwards}@keyframes ecFXsDbGBK270_c_o { 0% {opacity: 0} 4.615385% {opacity: 0;animation-timing-function: cubic-bezier(0.755,0.02,0.23,1.025)} 7.692308% {opacity: 1;animation-timing-function: cubic-bezier(0.755,0.02,0.23,1.025)} 96.153846% {opacity: 1;animation-timing-function: cubic-bezier(0.755,0.02,0.23,1.025)} 100% {opacity: 0}} #ecFXsDbGBK271 {animation: ecFXsDbGBK271_s_o 13000ms linear infinite normal forwards}@keyframes ecFXsDbGBK271_s_o { 0% {stroke-opacity: 0.2} 67.692308% {stroke-opacity: 0.2;animation-timing-function: cubic-bezier(0.755,0.02,0.23,1.025)} 70.769231% {stroke-opacity: 1;animation-timing-function: cubic-bezier(0.755,0.02,0.23,1.025)} 73.846154% {stroke-opacity: 0.2;animation-timing-function: cubic-bezier(0.755,0.02,0.23,1.025)} 76.923077% {stroke-opacity: 1;animation-timing-function: cubic-bezier(0.755,0.02,0.23,1.025)} 80% {stroke-opacity: 0.2;animation-timing-function: cubic-bezier(0.755,0.02,0.23,1.025)} 83.076923% {stroke-opacity: 1;animation-timing-function: cubic-bezier(0.755,0.02,0.23,1.025)} 86.153846% {stroke-opacity: 0.2} 100% {stroke-opacity: 0.2}} #ecFXsDbGBK272 {animation: ecFXsDbGBK272_c_o 13000ms linear infinite normal forwards}@keyframes ecFXsDbGBK272_c_o { 0% {opacity: 1} 67.692308% {opacity: 1;animation-timing-function: cubic-bezier(0.755,0.02,0.23,1.025)} 70.769231% {opacity: 0.2;animation-timing-function: cubic-bezier(0.755,0.02,0.23,1.025)} 73.846154% {opacity: 1;animation-timing-function: cubic-bezier(0.755,0.02,0.23,1.025)} 76.923077% {opacity: 0.2;animation-timing-function: cubic-bezier(0.755,0.02,0.23,1.025)} 80% {opacity: 1;animation-timing-function: cubic-bezier(0.755,0.02,0.23,1.025)} 83.076923% {opacity: 0.2;animation-timing-function: cubic-bezier(0.755,0.02,0.23,1.025)} 86.153846% {opacity: 1} 100% {opacity: 1}} #ecFXsDbGBK277 {animation-name: ecFXsDbGBK277__fl, ecFXsDbGBK277_f_p, ecFXsDbGBK277_f_o;animation-duration: 13000ms;animation-fill-mode: forwards;animation-timing-function: linear;animation-direction: normal;animation-iteration-count: infinite;}@keyframes ecFXsDbGBK277__fl { 0% {filter: drop-shadow(0px 2px 7.071068px rgba(255,139,34,0))} 30% {filter: drop-shadow(0px 2px 7.071068px rgba(255,139,34,0));animation-timing-function: cubic-bezier(0.755,0.02,0.23,1.025)} 33.076923% {filter: drop-shadow(0px 2px 7.071068px #ff8b22);animation-timing-function: cubic-bezier(0.755,0.02,0.23,1.025)} 36.153846% {filter: drop-shadow(0px 2px 7.071068px rgba(255,139,34,0));animation-timing-function: cubic-bezier(0.755,0.02,0.23,1.025)} 48.461538% {filter: drop-shadow(0px 2px 7.071068px rgba(255,139,34,0));animation-timing-function: cubic-bezier(0.755,0.02,0.23,1.025)} 52.307692% {filter: drop-shadow(0px 2px 7.071068px #ff8b22);animation-timing-function: cubic-bezier(0.755,0.02,0.23,1.025)} 56.153846% {filter: drop-shadow(0px 2px 7.071068px rgba(255,139,34,0))} 100% {filter: drop-shadow(0px 2px 7.071068px rgba(255,139,34,0))}}@keyframes ecFXsDbGBK277_f_p { 0% {fill: #fff} 30% {fill: #fff;animation-timing-function: cubic-bezier(0.755,0.02,0.23,1.025)} 33.076923% {fill: #ff8b22;animation-timing-function: cubic-bezier(0.755,0.02,0.23,1.025)} 36.153846% {fill: #fff;animation-timing-function: cubic-bezier(0.755,0.02,0.23,1.025)} 48.461538% {fill: #fff;animation-timing-function: cubic-bezier(0.755,0.02,0.23,1.025)} 52.307692% {fill: #ff8b22;animation-timing-function: cubic-bezier(0.755,0.02,0.23,1.025)} 56.153846% {fill: #fff} 100% {fill: #fff}}@keyframes ecFXsDbGBK277_f_o { 0% {fill-opacity: 0.2} 30% {fill-opacity: 0.2;animation-timing-function: cubic-bezier(0.755,0.02,0.23,1.025)} 33.076923% {fill-opacity: 1;animation-timing-function: cubic-bezier(0.755,0.02,0.23,1.025)} 36.153846% {fill-opacity: 0.2;animation-timing-function: cubic-bezier(0.755,0.02,0.23,1.025)} 48.461538% {fill-opacity: 0.2;animation-timing-function: cubic-bezier(0.755,0.02,0.23,1.025)} 52.307692% {fill-opacity: 1;animation-timing-function: cubic-bezier(0.755,0.02,0.23,1.025)} 56.153846% {fill-opacity: 0.2} 100% {fill-opacity: 0.2}} #ecFXsDbGBK278 {animation-name: ecFXsDbGBK278__fl, ecFXsDbGBK278_f_p, ecFXsDbGBK278_f_o;animation-duration: 13000ms;animation-fill-mode: forwards;animation-timing-function: linear;animation-direction: normal;animation-iteration-count: infinite;}@keyframes ecFXsDbGBK278__fl { 0% {filter: drop-shadow(0px 2px 7.071068px rgba(255,139,34,0))} 30% {filter: drop-shadow(0px 2px 7.071068px rgba(255,139,34,0));animation-timing-function: cubic-bezier(0.755,0.02,0.23,1.025)} 33.076923% {filter: drop-shadow(0px 2px 7.071068px #ff8b22);animation-timing-function: cubic-bezier(0.755,0.02,0.23,1.025)} 36.153846% {filter: drop-shadow(0px 2px 7.071068px rgba(255,139,34,0))} 100% {filter: drop-shadow(0px 2px 7.071068px rgba(255,139,34,0))}}@keyframes ecFXsDbGBK278_f_p { 0% {fill: #fff} 30% {fill: #fff;animation-timing-function: cubic-bezier(0.755,0.02,0.23,1.025)} 33.076923% {fill: #ff8b22;animation-timing-function: cubic-bezier(0.755,0.02,0.23,1.025)} 36.153846% {fill: #fff;animation-timing-function: cubic-bezier(0.755,0.02,0.23,1.025)} 48.461538% {fill: #fff;animation-timing-function: cubic-bezier(0.755,0.02,0.23,1.025)} 52.307692% {fill: #ff8b22;animation-timing-function: cubic-bezier(0.755,0.02,0.23,1.025)} 56.153846% {fill: #fff} 100% {fill: #fff}}@keyframes ecFXsDbGBK278_f_o { 0% {fill-opacity: 0.2} 30% {fill-opacity: 0.2;animation-timing-function: cubic-bezier(0.755,0.02,0.23,1.025)} 33.076923% {fill-opacity: 1;animation-timing-function: cubic-bezier(0.755,0.02,0.23,1.025)} 36.153846% {fill-opacity: 0.2;animation-timing-function: cubic-bezier(0.755,0.02,0.23,1.025)} 48.461538% {fill-opacity: 0.2;animation-timing-function: cubic-bezier(0.755,0.02,0.23,1.025)} 52.307692% {fill-opacity: 1;animation-timing-function: cubic-bezier(0.755,0.02,0.23,1.025)} 56.153846% {fill-opacity: 0.2} 100% {fill-opacity: 0.2}} #ecFXsDbGBK281 {animation: ecFXsDbGBK281_f_o 13000ms linear infinite normal forwards}@keyframes ecFXsDbGBK281_f_o { 0% {fill-opacity: 0.4} 30% {fill-opacity: 0.4;animation-timing-function: cubic-bezier(0.755,0.02,0.23,1.025)} 33.076923% {fill-opacity: 1;animation-timing-function: cubic-bezier(0.755,0.02,0.23,1.025)} 36.153846% {fill-opacity: 0.4;animation-timing-function: cubic-bezier(0.755,0.02,0.23,1.025)} 48.461538% {fill-opacity: 0.4;animation-timing-function: cubic-bezier(0.755,0.02,0.23,1.025)} 52.307692% {fill-opacity: 1;animation-timing-function: cubic-bezier(0.755,0.02,0.23,1.025)} 56.153846% {fill-opacity: 0.4} 100% {fill-opacity: 0.4}} #ecFXsDbGBK283 {animation-name: ecFXsDbGBK283_f_o, ecFXsDbGBK283_s_o;animation-duration: 13000ms;animation-fill-mode: forwards;animation-timing-function: linear;animation-direction: normal;animation-iteration-count: infinite;}@keyframes ecFXsDbGBK283_f_o { 0% {fill-opacity: 0} 13.076923% {fill-opacity: 0;animation-timing-function: cubic-bezier(0.755,0.02,0.23,1.025)} 16.153846% {fill-opacity: 1;animation-timing-function: cubic-bezier(0.755,0.02,0.23,1.025)} 19.230769% {fill-opacity: 0;animation-timing-function: cubic-bezier(0.755,0.02,0.23,1.025)} 22.307692% {fill-opacity: 0;animation-timing-function: cubic-bezier(0.755,0.02,0.23,1.025)} 25.384615% {fill-opacity: 1;animation-timing-function: cubic-bezier(0.755,0.02,0.23,1.025)} 28.461538% {fill-opacity: 0;animation-timing-function: cubic-bezier(0.755,0.02,0.23,1.025)} 37.692308% {fill-opacity: 0;animation-timing-function: cubic-bezier(0.755,0.02,0.23,1.025)} 41.538462% {fill-opacity: 1;animation-timing-function: cubic-bezier(0.755,0.02,0.23,1.025)} 45.384615% {fill-opacity: 0;animation-timing-function: cubic-bezier(0.755,0.02,0.23,1.025)} 59.230769% {fill-opacity: 0;animation-timing-function: cubic-bezier(0.755,0.02,0.23,1.025)} 62.307692% {fill-opacity: 1;animation-timing-function: cubic-bezier(0.755,0.02,0.23,1.025)} 65.384615% {fill-opacity: 0;animation-timing-function: cubic-bezier(0.755,0.02,0.23,1.025)} 86.153846% {fill-opacity: 0;animation-timing-function: cubic-bezier(0.755,0.02,0.23,1.025)} 89.230769% {fill-opacity: 1} 100% {fill-opacity: 1}}@keyframes ecFXsDbGBK283_s_o { 0% {stroke-opacity: 0.2} 13.076923% {stroke-opacity: 0.2;animation-timing-function: cubic-bezier(0.755,0.02,0.23,1.025)} 16.153846% {stroke-opacity: 0;animation-timing-function: cubic-bezier(0.755,0.02,0.23,1.025)} 19.230769% {stroke-opacity: 0.2;animation-timing-function: cubic-bezier(0.755,0.02,0.23,1.025)} 22.307692% {stroke-opacity: 0.2;animation-timing-function: cubic-bezier(0.755,0.02,0.23,1.025)} 25.384615% {stroke-opacity: 0;animation-timing-function: cubic-bezier(0.755,0.02,0.23,1.025)} 28.461538% {stroke-opacity: 0.2;animation-timing-function: cubic-bezier(0.755,0.02,0.23,1.025)} 37.692308% {stroke-opacity: 0.2;animation-timing-function: cubic-bezier(0.755,0.02,0.23,1.025)} 41.538462% {stroke-opacity: 0;animation-timing-function: cubic-bezier(0.755,0.02,0.23,1.025)} 45.384615% {stroke-opacity: 0.2;animation-timing-function: cubic-bezier(0.755,0.02,0.23,1.025)} 59.230769% {stroke-opacity: 0.2;animation-timing-function: cubic-bezier(0.755,0.02,0.23,1.025)} 62.307692% {stroke-opacity: 0;animation-timing-function: cubic-bezier(0.755,0.02,0.23,1.025)} 65.384615% {stroke-opacity: 0.2} 100% {stroke-opacity: 0.2}} #ecFXsDbGBK286 {animation: ecFXsDbGBK286_f_o 13000ms linear infinite normal forwards}@keyframes ecFXsDbGBK286_f_o { 0% {fill-opacity: 0.4} 13.076923% {fill-opacity: 0.4;animation-timing-function: cubic-bezier(0.755,0.02,0.23,1.025)} 16.153846% {fill-opacity: 1;animation-timing-function: cubic-bezier(0.755,0.02,0.23,1.025)} 19.230769% {fill-opacity: 0.4;animation-timing-function: cubic-bezier(0.755,0.02,0.23,1.025)} 22.307692% {fill-opacity: 0.4;animation-timing-function: cubic-bezier(0.755,0.02,0.23,1.025)} 25.384615% {fill-opacity: 1;animation-timing-function: cubic-bezier(0.755,0.02,0.23,1.025)} 28.461538% {fill-opacity: 0.4;animation-timing-function: cubic-bezier(0.755,0.02,0.23,1.025)} 37.692308% {fill-opacity: 0.4;animation-timing-function: cubic-bezier(0.755,0.02,0.23,1.025)} 41.538462% {fill-opacity: 1;animation-timing-function: cubic-bezier(0.755,0.02,0.23,1.025)} 45.384615% {fill-opacity: 0.4;animation-timing-function: cubic-bezier(0.755,0.02,0.23,1.025)} 59.230769% {fill-opacity: 0.4;animation-timing-function: cubic-bezier(0.755,0.02,0.23,1.025)} 62.307692% {fill-opacity: 1;animation-timing-function: cubic-bezier(0.755,0.02,0.23,1.025)} 65.384615% {fill-opacity: 0.4;animation-timing-function: cubic-bezier(0.755,0.02,0.23,1.025)} 86.153846% {fill-opacity: 0.4;animation-timing-function: cubic-bezier(0.755,0.02,0.23,1.025)} 89.230769% {fill-opacity: 1} 100% {fill-opacity: 1}} #ecFXsDbGBK292_ts {animation: ecFXsDbGBK292_ts__ts 13000ms linear infinite normal forwards}@keyframes ecFXsDbGBK292_ts__ts { 0% {transform: translate(544.177px,731.066px) rotate(-29.99783deg) skewX(30.00434deg) skewY(0deg) scale(1,0.865987)} 30% {transform: translate(544.177px,731.066px) rotate(-29.99783deg) skewX(30.00434deg) skewY(0deg) scale(1,0.865987);animation-timing-function: cubic-bezier(0.755,0.02,0.23,1.025)} 33.076923% {transform: translate(544.177px,731.066px) rotate(-29.99783deg) skewX(30.00434deg) skewY(0deg) scale(1,-8.87);animation-timing-function: cubic-bezier(0.755,0.02,0.23,1.025)} 59.230769% {transform: translate(544.177px,731.066px) rotate(-29.99783deg) skewX(30.00434deg) skewY(0deg) scale(1,-8.87);animation-timing-function: cubic-bezier(0.755,0.02,0.23,1.025)} 62.307692% {transform: translate(544.177px,731.066px) rotate(-29.99783deg) skewX(30.00434deg) skewY(0deg) scale(1,-7.87)} 100% {transform: translate(544.177px,731.066px) rotate(-29.99783deg) skewX(30.00434deg) skewY(0deg) scale(1,-7.87)}} #ecFXsDbGBK293_ts {animation: ecFXsDbGBK293_ts__ts 13000ms linear infinite normal forwards}@keyframes ecFXsDbGBK293_ts__ts { 0% {transform: translate(582px,709px) rotate(-29.99783deg) skewX(30.00434deg) skewY(0deg) scale(1,0.865987)} 13.076923% {transform: translate(582px,709px) rotate(-29.99783deg) skewX(30.00434deg) skewY(0deg) scale(1,0.865987);animation-timing-function: cubic-bezier(0.755,0.02,0.23,1.025)} 16.153846% {transform: translate(582px,709px) rotate(-29.99783deg) skewX(30.00434deg) skewY(0deg) scale(1,-5);animation-timing-function: cubic-bezier(0.755,0.02,0.23,1.025)} 37.692308% {transform: translate(582px,709px) rotate(-29.99783deg) skewX(30.00434deg) skewY(0deg) scale(1,-5);animation-timing-function: cubic-bezier(0.755,0.02,0.23,1.025)} 41.538462% {transform: translate(582px,709px) rotate(-29.99783deg) skewX(30.00434deg) skewY(0deg) scale(1,-18.45);animation-timing-function: cubic-bezier(0.755,0.02,0.23,1.025)} 48.461538% {transform: translate(582px,709px) rotate(-29.99783deg) skewX(30.00434deg) skewY(0deg) scale(1,-18.45);animation-timing-function: cubic-bezier(0.755,0.02,0.23,1.025)} 52.307692% {transform: translate(582px,709px) rotate(-29.99783deg) skewX(30.00434deg) skewY(0deg) scale(1,-16.45);animation-timing-function: cubic-bezier(0.755,0.02,0.23,1.025)} 59.230769% {transform: translate(582px,709px) rotate(-29.99783deg) skewX(30.00434deg) skewY(0deg) scale(1,-16.45);animation-timing-function: cubic-bezier(0.755,0.02,0.23,1.025)} 62.307692% {transform: translate(582px,709px) rotate(-29.99783deg) skewX(30.00434deg) skewY(0deg) scale(1,-15.45)} 100% {transform: translate(582px,709px) rotate(-29.99783deg) skewX(30.00434deg) skewY(0deg) scale(1,-15.45)}} #ecFXsDbGBK294_ts {animation: ecFXsDbGBK294_ts__ts 13000ms linear infinite normal forwards}@keyframes ecFXsDbGBK294_ts__ts { 0% {transform: translate(620.124px,687.358px) rotate(-29.99783deg) skewX(30.00434deg) skewY(0deg) scale(1,0.865987)} 22.307692% {transform: translate(620.124px,687.358px) rotate(-29.99783deg) skewX(30.00434deg) skewY(0deg) scale(1,0.865987);animation-timing-function: cubic-bezier(0.755,0.02,0.23,1.025)} 24.615385% {transform: translate(620.124px,687.358px) rotate(-29.99783deg) skewX(30.00434deg) skewY(0deg) scale(1,-10.87);animation-timing-function: cubic-bezier(0.755,0.02,0.23,1.025)} 37.692308% {transform: translate(620.124px,687.358px) rotate(-29.99783deg) skewX(30.00434deg) skewY(0deg) scale(1,-10.87);animation-timing-function: cubic-bezier(0.755,0.02,0.23,1.025)} 41.538462% {transform: translate(620.124px,687.358px) rotate(-29.99783deg) skewX(30.00434deg) skewY(0deg) scale(1,-7.87);animation-timing-function: cubic-bezier(0.755,0.02,0.23,1.025)} 59.230769% {transform: translate(620.124px,687.358px) rotate(-29.99783deg) skewX(30.00434deg) skewY(0deg) scale(1,-7.87);animation-timing-function: cubic-bezier(0.755,0.02,0.23,1.025)} 62.307692% {transform: translate(620.124px,687.358px) rotate(-29.99783deg) skewX(30.00434deg) skewY(0deg) scale(1,-13.87)} 100% {transform: translate(620.124px,687.358px) rotate(-29.99783deg) skewX(30.00434deg) skewY(0deg) scale(1,-13.87)}} #ecFXsDbGBK295_ts {animation: ecFXsDbGBK295_ts__ts 13000ms linear infinite normal forwards}@keyframes ecFXsDbGBK295_ts__ts { 0% {transform: translate(658.305px,665.624px) rotate(-29.99783deg) skewX(30.00434deg) skewY(0deg) scale(1,0.865987)} 37.692308% {transform: translate(658.305px,665.624px) rotate(-29.99783deg) skewX(30.00434deg) skewY(0deg) scale(1,0.865987);animation-timing-function: cubic-bezier(0.755,0.02,0.23,1.025)} 41.538462% {transform: translate(658.305px,665.624px) rotate(-29.99783deg) skewX(30.00434deg) skewY(0deg) scale(1,-3);animation-timing-function: cubic-bezier(0.755,0.02,0.23,1.025)} 48.461538% {transform: translate(658.305px,665.624px) rotate(-29.99783deg) skewX(30.00434deg) skewY(0deg) scale(1,-3);animation-timing-function: cubic-bezier(0.755,0.02,0.23,1.025)} 51.538462% {transform: translate(658.305px,665.624px) rotate(-29.99783deg) skewX(30.00434deg) skewY(0deg) scale(1,-6);animation-timing-function: cubic-bezier(0.755,0.02,0.23,1.025)} 59.230769% {transform: translate(658.305px,665.624px) rotate(-29.99783deg) skewX(30.00434deg) skewY(0deg) scale(1,-6);animation-timing-function: cubic-bezier(0.755,0.02,0.23,1.025)} 62.307692% {transform: translate(658.305px,665.624px) rotate(-29.99783deg) skewX(30.00434deg) skewY(0deg) scale(1,-8)} 100% {transform: translate(658.305px,665.624px) rotate(-29.99783deg) skewX(30.00434deg) skewY(0deg) scale(1,-8)}} #ecFXsDbGBK296_to {animation: ecFXsDbGBK296_to__to 13000ms linear infinite normal forwards}@keyframes ecFXsDbGBK296_to__to { 0% {transform: translate(538.216362px,539.290688px)} 13.076923% {transform: translate(538.216362px,539.290688px);animation-timing-function: cubic-bezier(0.755,0.02,0.23,1.025)} 16.153846% {transform: translate(493.216362px,508.290688px);animation-timing-function: cubic-bezier(0.755,0.02,0.23,1.025)} 22.307692% {transform: translate(493.216362px,508.290688px);animation-timing-function: cubic-bezier(0.755,0.02,0.23,1.025)} 24.692308% {transform: translate(443.216362px,476.290688px);animation-timing-function: cubic-bezier(0.755,0.02,0.23,1.025)} 30% {transform: translate(443.216362px,476.290688px);animation-timing-function: cubic-bezier(0.755,0.02,0.23,1.025)} 33.076923% {transform: translate(393.216362px,446.290688px);animation-timing-function: cubic-bezier(0.755,0.02,0.23,1.025)} 37.692308% {transform: translate(393.216362px,446.290688px);animation-timing-function: cubic-bezier(0.755,0.02,0.23,1.025)} 41.538462% {transform: translate(333.216362px,406.290688px);animation-timing-function: cubic-bezier(0.755,0.02,0.23,1.025)} 48.461538% {transform: translate(333.216362px,406.290688px);animation-timing-function: cubic-bezier(0.755,0.02,0.23,1.025)} 52.307692% {transform: translate(256.216362px,372.290688px);animation-timing-function: cubic-bezier(0.755,0.02,0.23,1.025)} 59.230769% {transform: translate(256.216362px,372.290688px);animation-timing-function: cubic-bezier(0.755,0.02,0.23,1.025)} 62.307692% {transform: translate(186.216362px,332.290688px)} 100% {transform: translate(186.216362px,332.290688px)}} #ecFXsDbGBK296 {animation: ecFXsDbGBK296_c_o 13000ms linear infinite normal forwards}@keyframes ecFXsDbGBK296_c_o { 0% {opacity: 1} 67.692308% {opacity: 1;animation-timing-function: cubic-bezier(0.755,0.02,0.23,1.025)} 76.923077% {opacity: 0} 100% {opacity: 0}} #ecFXsDbGBK297 {animation: ecFXsDbGBK297_c_o 13000ms linear infinite normal forwards}@keyframes ecFXsDbGBK297_c_o { 0% {opacity: 0} 30% {opacity: 0;animation-timing-function: cubic-bezier(0.755,0.02,0.23,1.025)} 33.076923% {opacity: 1;animation-timing-function: cubic-bezier(0.755,0.02,0.23,1.025)} 59.230769% {opacity: 1;animation-timing-function: cubic-bezier(0.755,0.02,0.23,1.025)} 62.307692% {opacity: 0.6} 100% {opacity: 0.6}} #ecFXsDbGBK2106 {animation: ecFXsDbGBK2106_c_o 13000ms linear infinite normal forwards}@keyframes ecFXsDbGBK2106_c_o { 0% {opacity: 0} 10.769231% {opacity: 0;animation-timing-function: cubic-bezier(0.755,0.02,0.23,1.025)} 22.307692% {opacity: 0;animation-timing-function: cubic-bezier(0.755,0.02,0.23,1.025)} 24.615385% {opacity: 1;animation-timing-function: cubic-bezier(0.755,0.02,0.23,1.025)} 48.461538% {opacity: 1;animation-timing-function: cubic-bezier(0.755,0.02,0.23,1.025)} 52.307692% {opacity: 0.6;animation-timing-function: cubic-bezier(0.755,0.02,0.23,1.025)} 59.230769% {opacity: 0.6;animation-timing-function: cubic-bezier(0.755,0.02,0.23,1.025)} 62.307692% {opacity: 0.2} 100% {opacity: 0.2}} #ecFXsDbGBK2118 {animation: ecFXsDbGBK2118_c_o 13000ms linear infinite normal forwards}@keyframes ecFXsDbGBK2118_c_o { 0% {opacity: 0} 13.076923% {opacity: 0;animation-timing-function: cubic-bezier(0.755,0.02,0.23,1.025)} 16.153846% {opacity: 1;animation-timing-function: cubic-bezier(0.755,0.02,0.23,1.025)} 37.692308% {opacity: 1;animation-timing-function: cubic-bezier(0.755,0.02,0.23,1.025)} 41.538462% {opacity: 0.6;animation-timing-function: cubic-bezier(0.755,0.02,0.23,1.025)} 48.461538% {opacity: 0.6;animation-timing-function: cubic-bezier(0.755,0.02,0.23,1.025)} 52.307692% {opacity: 0.2;animation-timing-function: cubic-bezier(0.755,0.02,0.23,1.025)} 59.230769% {opacity: 0.2;animation-timing-function: cubic-bezier(0.755,0.02,0.23,1.025)} 62.307692% {opacity: 0} 100% {opacity: 0}} #ecFXsDbGBK2127 {animation: ecFXsDbGBK2127_c_o 13000ms linear infinite normal forwards}@keyframes ecFXsDbGBK2127_c_o { 0% {opacity: 0} 37.692308% {opacity: 0;animation-timing-function: cubic-bezier(0.755,0.02,0.23,1.025)} 41.538462% {opacity: 1} 100% {opacity: 1}} #ecFXsDbGBK2135 {animation: ecFXsDbGBK2135_c_o 13000ms linear infinite normal forwards}@keyframes ecFXsDbGBK2135_c_o { 0% {opacity: 0} 48.461538% {opacity: 0;animation-timing-function: cubic-bezier(0.755,0.02,0.23,1.025)} 51.538462% {opacity: 1} 100% {opacity: 1}} #ecFXsDbGBK2143 {animation: ecFXsDbGBK2143_c_o 13000ms linear infinite normal forwards}@keyframes ecFXsDbGBK2143_c_o { 0% {opacity: 0} 59.230769% {opacity: 0;animation-timing-function: cubic-bezier(0.755,0.02,0.23,1.025)} 62.307692% {opacity: 1} 100% {opacity: 1}}
]]></style>
<defs><filter id="ecFXsDbGBK220-filter" x="-150%" width="400%" y="-150%" height="400%"><feGaussianBlur id="ecFXsDbGBK220-filter-drop-shadow-0-blur" in="SourceAlpha" stdDeviation="5,5"/><feOffset id="ecFXsDbGBK220-filter-drop-shadow-0-offset" dx="0" dy="5" result="tmp"/><feFlood id="ecFXsDbGBK220-filter-drop-shadow-0-flood" flood-color="rgba(85,201,124,0)"/><feComposite id="ecFXsDbGBK220-filter-drop-shadow-0-composite" operator="in" in2="tmp"/><feMerge id="ecFXsDbGBK220-filter-drop-shadow-0-merge"><feMergeNode id="ecFXsDbGBK220-filter-drop-shadow-0-merge-node-1"/><feMergeNode id="ecFXsDbGBK220-filter-drop-shadow-0-merge-node-2" in="SourceGraphic"/></feMerge></filter><linearGradient id="ecFXsDbGBK221-fill" x1="-2.82353" y1="121.353" x2="128.4" y2="156.458" spreadMethod="pad" gradientUnits="userSpaceOnUse" gradientTransform="translate(0 0)"><stop id="ecFXsDbGBK221-fill-0" offset="0%" stop-color="#54c97c"/><stop id="ecFXsDbGBK221-fill-1" offset="100%" stop-color="#6cff9f"/></linearGradient><linearGradient id="ecFXsDbGBK274-fill" x1="327.232" y1="-106.967" x2="-150.842" y2="443.459" spreadMethod="pad" gradientUnits="userSpaceOnUse" gradientTransform="translate(0 0)"><stop id="ecFXsDbGBK274-fill-0" offset="0%" stop-color="#5a1e8f"/><stop id="ecFXsDbGBK274-fill-1" offset="100%" stop-color="rgba(249,249,249,0.81)"/></linearGradient><filter id="ecFXsDbGBK297-filter" x="-150%" width="400%" y="-150%" height="400%"><feGaussianBlur id="ecFXsDbGBK297-filter-drop-shadow-0-blur" in="SourceAlpha" stdDeviation="3,3"/><feOffset id="ecFXsDbGBK297-filter-drop-shadow-0-offset" dx="0" dy="4" result="tmp"/><feFlood id="ecFXsDbGBK297-filter-drop-shadow-0-flood" flood-color="rgba(0,0,0,0.4)"/><feComposite id="ecFXsDbGBK297-filter-drop-shadow-0-composite" operator="in" in2="tmp"/><feMerge id="ecFXsDbGBK297-filter-drop-shadow-0-merge"><feMergeNode id="ecFXsDbGBK297-filter-drop-shadow-0-merge-node-1"/><feMergeNode id="ecFXsDbGBK297-filter-drop-shadow-0-merge-node-2" in="SourceGraphic"/></feMerge></filter><filter id="ecFXsDbGBK2106-filter" x="-150%" width="400%" y="-150%" height="400%"><feGaussianBlur id="ecFXsDbGBK2106-filter-drop-shadow-0-blur" in="SourceAlpha" stdDeviation="3,3"/><feOffset id="ecFXsDbGBK2106-filter-drop-shadow-0-offset" dx="0" dy="4" result="tmp"/><feFlood id="ecFXsDbGBK2106-filter-drop-shadow-0-flood" flood-color="rgba(0,0,0,0.4)"/><feComposite id="ecFXsDbGBK2106-filter-drop-shadow-0-composite" operator="in" in2="tmp"/><feMerge id="ecFXsDbGBK2106-filter-drop-shadow-0-merge"><feMergeNode id="ecFXsDbGBK2106-filter-drop-shadow-0-merge-node-1"/><feMergeNode id="ecFXsDbGBK2106-filter-drop-shadow-0-merge-node-2" in="SourceGraphic"/></feMerge></filter><filter id="ecFXsDbGBK2119-filter" x="-150%" width="400%" y="-150%" height="400%"><feGaussianBlur id="ecFXsDbGBK2119-filter-drop-shadow-0-blur" in="SourceAlpha" stdDeviation="3,3"/><feOffset id="ecFXsDbGBK2119-filter-drop-shadow-0-offset" dx="2" dy="3" result="tmp"/><feFlood id="ecFXsDbGBK2119-filter-drop-shadow-0-flood" flood-color="rgba(0,0,0,0.4)"/><feComposite id="ecFXsDbGBK2119-filter-drop-shadow-0-composite" operator="in" in2="tmp"/><feMerge id="ecFXsDbGBK2119-filter-drop-shadow-0-merge"><feMergeNode id="ecFXsDbGBK2119-filter-drop-shadow-0-merge-node-1"/><feMergeNode id="ecFXsDbGBK2119-filter-drop-shadow-0-merge-node-2" in="SourceGraphic"/></feMerge></filter><filter id="ecFXsDbGBK2123-filter" x="-150%" width="400%" y="-150%" height="400%"><feGaussianBlur id="ecFXsDbGBK2123-filter-drop-shadow-0-blur" in="SourceAlpha" stdDeviation="3,3"/><feOffset id="ecFXsDbGBK2123-filter-drop-shadow-0-offset" dx="0" dy="4" result="tmp"/><feFlood id="ecFXsDbGBK2123-filter-drop-shadow-0-flood" flood-color="rgba(0,0,0,0.4)"/><feComposite id="ecFXsDbGBK2123-filter-drop-shadow-0-composite" operator="in" in2="tmp"/><feMerge id="ecFXsDbGBK2123-filter-drop-shadow-0-merge"><feMergeNode id="ecFXsDbGBK2123-filter-drop-shadow-0-merge-node-1"/><feMergeNode id="ecFXsDbGBK2123-filter-drop-shadow-0-merge-node-2" in="SourceGraphic"/></feMerge></filter><filter id="ecFXsDbGBK2127-filter" x="-150%" width="400%" y="-150%" height="400%"><feGaussianBlur id="ecFXsDbGBK2127-filter-drop-shadow-0-blur" in="SourceAlpha" stdDeviation="3,3"/><feOffset id="ecFXsDbGBK2127-filter-drop-shadow-0-offset" dx="0" dy="4" result="tmp"/><feFlood id="ecFXsDbGBK2127-filter-drop-shadow-0-flood" flood-color="rgba(0,0,0,0.4)"/><feComposite id="ecFXsDbGBK2127-filter-drop-shadow-0-composite" operator="in" in2="tmp"/><feMerge id="ecFXsDbGBK2127-filter-drop-shadow-0-merge"><feMergeNode id="ecFXsDbGBK2127-filter-drop-shadow-0-merge-node-1"/><feMergeNode id="ecFXsDbGBK2127-filter-drop-shadow-0-merge-node-2" in="SourceGraphic"/></feMerge></filter><filter id="ecFXsDbGBK2135-filter" x="-150%" width="400%" y="-150%" height="400%"><feGaussianBlur id="ecFXsDbGBK2135-filter-drop-shadow-0-blur" in="SourceAlpha" stdDeviation="3,3"/><feOffset id="ecFXsDbGBK2135-filter-drop-shadow-0-offset" dx="0" dy="4" result="tmp"/><feFlood id="ecFXsDbGBK2135-filter-drop-shadow-0-flood" flood-color="rgba(0,0,0,0.4)"/><feComposite id="ecFXsDbGBK2135-filter-drop-shadow-0-composite" operator="in" in2="tmp"/><feMerge id="ecFXsDbGBK2135-filter-drop-shadow-0-merge"><feMergeNode id="ecFXsDbGBK2135-filter-drop-shadow-0-merge-node-1"/><feMergeNode id="ecFXsDbGBK2135-filter-drop-shadow-0-merge-node-2" in="SourceGraphic"/></feMerge></filter><filter id="ecFXsDbGBK2143-filter" x="-150%" width="400%" y="-150%" height="400%"><feGaussianBlur id="ecFXsDbGBK2143-filter-drop-shadow-0-blur" in="SourceAlpha" stdDeviation="3,3"/><feOffset id="ecFXsDbGBK2143-filter-drop-shadow-0-offset" dx="0" dy="4" result="tmp"/><feFlood id="ecFXsDbGBK2143-filter-drop-shadow-0-flood" flood-color="rgba(0,0,0,0.4)"/><feComposite id="ecFXsDbGBK2143-filter-drop-shadow-0-composite" operator="in" in2="tmp"/><feMerge id="ecFXsDbGBK2143-filter-drop-shadow-0-merge"><feMergeNode id="ecFXsDbGBK2143-filter-drop-shadow-0-merge-node-1"/><feMergeNode id="ecFXsDbGBK2143-filter-drop-shadow-0-merge-node-2" in="SourceGraphic"/></feMerge></filter></defs><g transform="translate(0-49.921829)" clip-path="url(#ecFXsDbGBK2150)"><g><g id="ecFXsDbGBK24" transform="translate(.000001 0.000001)" opacity="0"><rect width="672.75" height="481.925" rx="11" ry="11" transform="matrix(.866044-.499967 0.866044 0.499967 0 499.311)" fill="#979797"/><rect width="660.028" height="448.251" rx="8" ry="8" transform="matrix(.866044-.499967 0.866044 0.499967 29.1631 510.161)" fill="#f8f8f8"/><circle r="7.10915" transform="matrix(.866044-.499967 0.866044 0.499967 23.331274 499.684998)" fill="#f00"/><circle r="7.10915" transform="matrix(.866044-.499967 0.866044 0.499967 39.533374 490.330998)" fill="#fdad00"/><circle r="7.10915" transform="matrix(.866044-.499967 0.866044 0.499967 55.735574 480.977998)" fill="#01cd46"/><rect width="508.117" height="14.2183" rx="6" ry="6" transform="matrix(.866044-.499967 0.866044 0.499967 65.457 468.257)" fill="#c0c0c0"/><line x1="2.5" y1="-2.5" x2="25.1883" y2="-2.5" transform="matrix(.866044-.499967 0.866044 0.499967 79.7158 469.005)" fill="none" stroke="#8a8a8a" stroke-width="5" stroke-linecap="round"/><line x1="2.5" y1="-2.5" x2="25.1883" y2="-2.5" transform="matrix(.866044-.499967 0.866044 0.499967 254 368.843)" fill="none" stroke="#8a8a8a" stroke-width="5" stroke-linecap="round"/><line x1="2.5" y1="-2.5" x2="162.881" y2="-2.5" transform="matrix(.866044-.499967 0.866044 0.499967 106.935 453.291)" fill="none" stroke="#8a8a8a" stroke-width="5" stroke-linecap="round"/></g><g id="ecFXsDbGBK214" opacity="0"><rect width="340.673" height="124.838" rx="6" ry="6" transform="matrix(.866044-.499967 0.866044 0.499967 50 509.964)" fill="#d9d9d9"/><rect width="276.75" height="124.838" rx="6" ry="6" transform="matrix(.866044-.499967 0.866044 0.499967 359.367 331.366)" fill="#d9d9d9"/><rect width="163.944" height="124.838" rx="6" ry="6" transform="matrix(.866044-.499967 0.866044 0.499967 171.792 580.274)" fill="#d9d9d9"/><rect width="276.75" height="124.838" rx="6" ry="6" transform="matrix(.866044-.499967 0.866044 0.499967 481.159 401.678)" fill="#d9d9d9"/><rect width="633.967" height="124.838" rx="6" ry="6" transform="matrix(.866044-.499967 0.866044 0.499967 293.586 650.585)" fill="#d9d9d9"/></g><g id="ecFXsDbGBK220_to" transform="translate(449.897949,235.148786)"><g id="ecFXsDbGBK220" transform="translate(-449.897949,-482.141128)" opacity="0" filter="url(#ecFXsDbGBK220-filter)"><rect width="163.944" height="124.838" rx="6" ry="6" transform="matrix(.866044-.499967 0.866044 0.499967 324.849 491.917)" fill="url(#ecFXsDbGBK221-fill)"/><g clip-path="url(#ecFXsDbGBK268)"><g><g mask="url(#ecFXsDbGBK266)"><g><g mask="url(#ecFXsDbGBK264)"><g><g mask="url(#ecFXsDbGBK262)"><g><path d="M477.372,495.986c1.486.858,1.492,2.246.013,3.1-1.479.853-3.883.85-5.369-.008-1.487-.858-1.493-2.246-.013-3.1c1.479-.854,3.883-.85,5.369.008Z" fill="#e6e6e6"/><path d="M432.665,472.433c-.209.112-.411.22-.612.336-.194.112-.38.229-.574.349-9.317,5.829-6.066,16.087,6.98,18.674l.606.117c6.211.958,8.139-1.366,12.621,1.222l3.171,1.831l15.712-9.071-3.208-1.852c-4.461-2.575-.868-3.602-2.415-7.045l-.249-.41c-4.57-7.489-21.966-9.512-32.032-4.151Z" fill="#fff9e9"/><path d="M432.665,472.434c-.209.112-.41.219-.612.336-.194.111-.38.228-.574.348-4.095,2.564-5.764,5.976-5.234,9.219.378-2.521,2.088-5.005,5.243-6.982.187-.117.373-.233.574-.349.202-.116.403-.224.612-.336c10.074-5.357,27.47-3.342,32.04,4.146l.249.41c.121.268.211.519.265.756.161-.803.284-1.739-.274-2.992l-.249-.41c-4.578-7.484-21.974-9.507-32.04-4.146Z" fill="#d3ffc8"/><path d="M480.527,494.164l-11.243,6.491c-.903.521-3.01.924-3.872.426l-11.372-6.565c-.607-.35-.61-.912-.005-1.261l13.675-7.894c.604-.349,1.576-.348,2.183.003l11.328,6.539.045.026c.862.498.156,1.718-.739,2.235Z" fill="#ccc"/><path d="M470.718,485.805l-14.792,10.894c-.626.465-1.792.541-2.602.178l-.284-.13c-.81-.364-.947-1.038-.321-1.503l14.792-10.894c.627-.465,1.793-.541,2.602-.178l.285.13c.809.364.946,1.038.32,1.503Z" fill="#e6e6e6"/><path d="M476.045,488.217l-14.792,10.894c-.626.465-1.792.541-2.601.178l-.285-.13c-.809-.364-.947-1.038-.32-1.503l14.792-10.894c.626-.465,1.792-.541,2.601-.178l.285.13c.802.368.954,1.042.32,1.503Z" fill="#e6e6e6"/><path d="M481.372,490.638L466.58,501.532c-.626.465-1.792.541-2.601.178l-.285-.13c-.809-.364-.947-1.038-.32-1.503l14.792-10.894c.626-.465,1.792-.541,2.601-.178l.285.13c.809.364.947,1.038.32,1.503Z" fill="#e6e6e6"/><path d="M461.581,498.87l.907.523l13.935-10.26-.907-.524-13.935,10.261Z" fill="#b3b3b3"/><path d="M470.606,485.887l-13.845,10.2.907.523l13.845-10.199c.023-.022.045-.044.068-.065l-.908-.524c-.022.022-.037.039-.067.065Z" fill="#b3b3b3"/><path d="M466.901,501.295c.875-.064,1.846-.33,2.383-.64l.485-.28l11.482-8.455-.03-.017-.877-.507-13.443,9.899Z" fill="#b3b3b3"/><path d="M444.916,495.209l-.595,4.463-2.625-.12.595-4.463l2.625.12Z" clip-rule="evenodd" fill="#fff9e9" fill-rule="evenodd"/><path d="M444.916,495.209l-.595,4.463-2.625-.12.595-4.463l2.625.12Z" clip-rule="evenodd" fill="#fff9e9" fill-rule="evenodd"/><path d="M434.04,493.599l-3.873,3.863-2.279-.764l3.873-3.863l2.279.764Z" clip-rule="evenodd" fill="#fff9e9" fill-rule="evenodd"/><path d="M434.04,493.599l-3.873,3.863-2.279-.764l3.873-3.863l2.279.764Z" clip-rule="evenodd" fill="#fff9e9" fill-rule="evenodd"/><path d="M425.423,489.426l-6.384,2.517-1.489-1.256l6.384-2.517l1.489,1.256Z" clip-rule="evenodd" fill="#fff9e9" fill-rule="evenodd"/><path d="M425.423,489.426l-6.384,2.517-1.489-1.256l6.384-2.517l1.489,1.256Z" clip-rule="evenodd" fill="#fff9e9" fill-rule="evenodd"/><path d="M420.738,483.534l-7.655.663-.397-1.503l7.656-.663.396,1.503Z" clip-rule="evenodd" fill="#fff9e9" fill-rule="evenodd"/><path d="M420.738,483.534l-7.655.663-.397-1.503l7.656-.663.396,1.503Z" clip-rule="evenodd" fill="#fff9e9" fill-rule="evenodd"/><path d="M420.919,477.056l-7.416-1.301.759-1.454l7.417,1.301-.76,1.454Z" clip-rule="evenodd" fill="#fff9e9" fill-rule="evenodd"/><path d="M420.919,477.056l-7.416-1.301.759-1.454l7.417,1.301-.76,1.454Z" clip-rule="evenodd" fill="#fff9e9" fill-rule="evenodd"/><path d="M425.93,471.28l-5.734-3.026l1.774-1.12l5.733,3.026-1.773,1.12Z" clip-rule="evenodd" fill="#fff9e9" fill-rule="evenodd"/><path d="M425.93,471.28l-5.734-3.026l1.774-1.12l5.733,3.026-1.773,1.12Z" clip-rule="evenodd" fill="#fff9e9" fill-rule="evenodd"/><path d="M434.773,467.318l-2.926-4.144l2.438-.571l2.926,4.145-2.438.57Z" clip-rule="evenodd" fill="#fff9e9" fill-rule="evenodd"/><path d="M434.773,467.318l-2.926-4.144l2.438-.571l2.926,4.145-2.438.57Z" clip-rule="evenodd" fill="#fff9e9" fill-rule="evenodd"/><path d="M445.735,465.97l.445-4.463l2.629.091-.446,4.464-2.628-.092Z" clip-rule="evenodd" fill="#fff9e9" fill-rule="evenodd"/><path d="M445.735,465.97l.445-4.463l2.629.091-.446,4.464-2.628-.092Z" clip-rule="evenodd" fill="#fff9e9" fill-rule="evenodd"/><path d="M456.645,467.473l3.76-3.902l2.302.742-3.761,3.902-2.301-.742Z" clip-rule="evenodd" fill="#fff9e9" fill-rule="evenodd"/><path d="M456.645,467.473l3.76-3.902l2.302.742-3.761,3.902-2.301-.742Z" clip-rule="evenodd" fill="#fff9e9" fill-rule="evenodd"/><path d="M465.212,471.483l6.578-2.344l1.387,1.294-6.579,2.344-1.386-1.294Z" clip-rule="evenodd" fill="#fff9e9" fill-rule="evenodd"/><path d="M465.212,471.483l6.578-2.344l1.387,1.294-6.579,2.344-1.386-1.294Z" clip-rule="evenodd" fill="#fff9e9" fill-rule="evenodd"/><path d="M470.316,477.69l7.413-1.277.758,1.457-7.413,1.276-.758-1.456Z" clip-rule="evenodd" fill="#fff9e9" fill-rule="evenodd"/><path d="M470.316,477.69l7.413-1.277.758,1.457-7.413,1.276-.758-1.456Z" clip-rule="evenodd" fill="#fff9e9" fill-rule="evenodd"/></g><mask id="ecFXsDbGBK262" mask-type="luminance" x="-150%" y="-150%" height="400%" width="400%"><path d="M398.1,480.127l46.889-27.07l56.387,32.553-46.89,27.069L398.1,480.127Z" clip-rule="evenodd" fill="#fff" fill-rule="evenodd"/></mask></g></g><mask id="ecFXsDbGBK264" mask-type="luminance" x="-150%" y="-150%" height="400%" width="400%"><path d="M398.1,480.127l46.889-27.07l56.387,32.553-46.89,27.069L398.1,480.127Z" clip-rule="evenodd" fill="#fff" fill-rule="evenodd"/></mask></g></g><mask id="ecFXsDbGBK266" mask-type="luminance" x="-150%" y="-150%" height="400%" width="400%"><path d="M398,480.185L445.089,453l56.387,32.552-47.089,27.185L398,480.185Z" clip-rule="evenodd" fill="#fff" fill-rule="evenodd"/></mask></g></g><clipPath id="ecFXsDbGBK268"><rect width="54.3724" height="65.1083" rx="0" ry="0" transform="matrix(.866044-.499967 0.866044 0.499967 398 480.185)" fill="#fff"/></clipPath></g></g></g><g id="ecFXsDbGBK270_to" transform="translate(451.211075,756.44104)"><g id="ecFXsDbGBK270" transform="translate(-451.211075,-756.44104)" opacity="0"><rect id="ecFXsDbGBK271" width="479.517" height="154.173" rx="19" ry="19" transform="matrix(.866044-.499967 0.866044 0.499967 173.732067 859.804012)" fill="none" stroke="#c380ff" stroke-width="2" stroke-opacity="0.2"/><rect id="ecFXsDbGBK272" width="486.048" height="147.456" rx="19" ry="19" transform="matrix(.866044-.499967 0.866044 0.499967 176.136067 841.357012)" fill="none" stroke="#c380ff" stroke-width="2" stroke-opacity="0.6"/><g><rect width="490.166" height="147.863" rx="20" ry="20" transform="matrix(.866047-.499964 0.866047 0.499964 176.127 821.062)" fill="url(#ecFXsDbGBK274-fill)"/></g><g opacity="0.85"><g mask="url(#ecFXsDbGBK279)"><path id="ecFXsDbGBK277" style="filter:drop-shadow(0px 2px 7.071068px rgba(255,139,34,0))" d="M424.749,796.62l1.499,2.598-1.499-2.598Zm-31.178,0l-1.5,2.598l1.5-2.598Zm84.783-48.946l-1.499,2.599l1.499-2.599Zm0,17.999l-1.499-2.598l1.499,2.598Zm-84.783-48.945l-1.5-2.598l1.5,2.598Zm31.177,0l1.5-2.598-1.5,2.598Zm-84.783,30.946l1.5,2.599-1.5-2.599Zm0,17.999l1.5-2.598-1.5,2.598Zm1.5-15.4l53.606-30.947-3-5.196-53.606,30.946l3,5.197Zm81.784-30.947l53.606,30.947l2.999-5.197-53.606-30.946-2.999,5.196Zm53.606,43.749l-53.606,30.947l2.999,5.196l53.606-30.947-2.999-5.196Zm-81.784,30.947l-53.606-30.947-3,5.196l53.606,30.947l3-5.196Zm28.178,0c-3.742,2.16-8.834,3.326-14.089,3.326s-10.348-1.166-14.089-3.326l-3,5.196c4.868,2.81,11.06,4.13,17.089,4.13s12.22-1.32,17.088-4.13l-2.999-5.196Zm53.606-43.749c3.758,2.169,4.957,4.593,4.957,6.401c0,1.807-1.199,4.231-4.957,6.401l2.999,5.196c4.852-2.8,7.958-6.89,7.958-11.597s-3.106-8.797-7.958-11.598l-2.999,5.197Zm-81.784-30.947c3.741-2.16,8.834-3.326,14.089-3.326s10.347,1.166,14.089,3.326l2.999-5.196c-4.868-2.811-11.059-4.13-17.088-4.13s-12.221,1.319-17.089,4.13l3,5.196Zm-56.606,25.75c-4.851,2.801-7.957,6.891-7.957,11.598s3.106,8.797,7.957,11.597l3-5.196c-3.758-2.17-4.957-4.594-4.957-6.401c0-1.808,1.199-4.232,4.957-6.401l-3-5.197Z" fill="#fff" fill-opacity="0.2"/><path id="ecFXsDbGBK278" style="filter:drop-shadow(0px 2px 7.071068px rgba(255,139,34,0))" d="M424.749,796.62l1.499,2.598-1.499-2.598Zm-31.178,0l-1.5,2.598l1.5-2.598Zm84.783-48.946l-1.499,2.599l1.499-2.599Zm0,17.999l-1.499-2.598l1.499,2.598Zm-84.783-48.945l-1.5-2.598l1.5,2.598Zm31.177,0l1.5-2.598-1.5,2.598Zm-84.783,30.946l1.5,2.599-1.5-2.599Zm0,17.999l1.5-2.598-1.5,2.598Zm1.5-15.4l53.606-30.947-3-5.196-53.606,30.946l3,5.197Zm81.784-30.947l53.606,30.947l2.999-5.197-53.606-30.946-2.999,5.196Zm53.606,43.749l-53.606,30.947l2.999,5.196l53.606-30.947-2.999-5.196Zm-81.784,30.947l-53.606-30.947-3,5.196l53.606,30.947l3-5.196Zm28.178,0c-3.742,2.16-8.834,3.326-14.089,3.326s-10.348-1.166-14.089-3.326l-3,5.196c4.868,2.81,11.06,4.13,17.089,4.13s12.22-1.32,17.088-4.13l-2.999-5.196Zm53.606-43.749c3.758,2.169,4.957,4.593,4.957,6.401c0,1.807-1.199,4.231-4.957,6.401l2.999,5.196c4.852-2.8,7.958-6.89,7.958-11.597s-3.106-8.797-7.958-11.598l-2.999,5.197Zm-81.784-30.947c3.741-2.16,8.834-3.326,14.089-3.326s10.347,1.166,14.089,3.326l2.999-5.196c-4.868-2.811-11.059-4.13-17.088-4.13s-12.221,1.319-17.089,4.13l3,5.196Zm-56.606,25.75c-4.851,2.801-7.957,6.891-7.957,11.598s3.106,8.797,7.957,11.597l3-5.196c-3.758-2.17-4.957-4.594-4.957-6.401c0-1.808,1.199-4.232,4.957-6.401l-3-5.197Z" fill="#fff" fill-opacity="0.2"/><mask id="ecFXsDbGBK279" mask-type="luminance" x="-150%" y="-150%" height="400%" width="400%"><path d="M339.965,765.673c-8.61-4.97-8.61-13.028,0-17.999l53.606-30.946c8.609-4.971,22.568-4.971,31.177,0l53.606,30.946c8.61,4.971,8.61,13.029,0,17.999L424.749,796.62c-8.61,4.97-22.569,4.97-31.178,0l-53.606-30.947Z" fill="#fff"/></mask></g><path id="ecFXsDbGBK281" d="M419.464,733.495l19.012,10.976c.5.288.781.668.779,1.102-.001.434-.253.796-.787,1.104l-8.603,4.967c-.503.29-1.162.454-1.914.455s-1.378-.143-1.909-.45L407.03,740.673c-.501-.289-.781-.668-.78-1.102.002-.434.254-.797.788-1.105l8.603-4.967c.503-.29,1.161-.453,1.913-.454s1.378.143,1.91.45Zm-14.318,8.266l19.043,10.994c.5.288.75.65.748,1.048.03.416-.222.778-.693,1.086-.44.29-.599,1.068-.51,2.316.09,1.248.273,2.514.582,3.816.369,1.773.553,3.039.55,3.798-.001.398.185.869.528,1.357s.624.867.905,1.138.749.687,1.374,1.265c.656.524,1.124.939,1.437,1.264.343.307.624.723.935,1.229.312.506.467.995.465,1.429-.001.434-.253.796-.787,1.104-.911.526-1.821.943-2.762,1.234-.941.29-1.788.49-2.572.582-.783.091-1.598.092-2.381.002-.814-.107-1.503-.215-2.067-.359-.563-.144-1.158-.342-1.815-.649-.688-.289-1.157-.523-1.502-.686l-1.157-.667c-.75-.434-1.406-.921-1.968-1.463s-.968-.994-1.218-1.356c-.249-.361-.529-.849-.84-1.428-.063-.108-.125-.253-.249-.47-.125-.217-.218-.416-.343-.56-.094-.163-.281-.343-.468-.56l-8.258,4.767c-1.539.888-3.452,1.343-5.708,1.346-2.256.002-4.166-.448-5.698-1.332-1.689-.975-2.656-2.15-2.808-3.506-1.158-.342-2.065-.685-2.691-1.046-1.563-.83-2.5-1.878-2.777-3.09-1.44-.433-2.629-1.119-3.471-2.004-.843-.813-1.216-1.681-1.182-2.531-2.409-1.173-3.689-2.492-3.903-3.957-.213-1.61.952-3.185,3.558-4.726l3.831-2.211c1.319-.761,2.888-1.487,4.771-2.213c1.851-.707,3.357-1.252,4.486-1.579c1.161-.345,2.73-.817,4.768-1.38c3.294-.927,5.302-1.581,6.024-1.961.533-.272,1.192-.436,1.944-.437.721-.055,1.347.089,1.879.396Z" fill="#fff" fill-opacity="0.4"/></g><g opacity="0.85"><rect id="ecFXsDbGBK283" width="94.8975" height="94.8975" rx="16.5" ry="16.5" transform="matrix(.866044-.499967 0.866044 0.499967 222.598096 813.94602)" fill="#54c97c" fill-opacity="0" stroke="#fff" stroke-width="3" stroke-opacity="0.2"/><g clip-path="url(#ecFXsDbGBK287)"><g><path id="ecFXsDbGBK286" d="M297.087,837.551l-20.42-11.788c-.538-.311-.84-.718-.84-1.183-.001-.465.268-.853.838-1.182l9.197-5.309c.537-.31,1.242-.485,2.048-.485s1.478.156,2.049.485l20.42,11.789c.537.31.84.717.84,1.182c0,.466-.268.853-.839,1.183l-9.197,5.309c-.537.31-1.242.484-2.048.484s-1.477-.155-2.048-.485Zm15.306-8.836l-20.454-11.808c-.538-.31-.806-.698-.807-1.124-.033-.446.235-.834.738-1.163.47-.31.638-1.144.536-2.481-.101-1.337-.303-2.694-.64-4.09-.404-1.9-.606-3.256-.606-4.071c0-.426-.202-.93-.572-1.453-.369-.524-.672-.931-.974-1.222s-.806-.736-1.478-1.357c-.706-.562-1.209-1.008-1.545-1.357-.37-.33-.672-.775-1.008-1.318s-.505-1.066-.505-1.532c0-.465.268-.852.839-1.182.973-.562,1.947-1.007,2.954-1.317s1.913-.523,2.753-.62c.839-.097,1.712-.097,2.552,0c.873.117,1.611.233,2.216.388.604.156,1.242.369,1.948.699.738.31,1.242.562,1.612.736l1.242.718c.806.465,1.512.989,2.116,1.57.605.582,1.042,1.066,1.311,1.454.268.388.571.911.907,1.532.067.116.134.271.269.504.134.232.235.446.369.601.101.174.303.368.504.601l8.828-5.097c1.645-.949,3.693-1.433,6.11-1.433c2.418,0,4.466.485,6.112,1.435c1.813,1.048,2.855,2.308,3.024,3.761c1.242.369,2.216.737,2.888,1.125c1.679.892,2.687,2.016,2.99,3.315c1.544.466,2.821,1.202,3.728,2.152.907.873,1.31,1.803,1.277,2.714c2.586,1.261,3.963,2.676,4.199,4.246.236,1.725-1.005,3.411-3.791,5.058l-4.095,2.364c-1.41.814-3.088,1.589-5.102,2.364-1.981.756-3.592,1.337-4.801,1.686-1.242.368-2.92.871-5.103,1.472-3.525.988-5.673,1.685-6.445,2.092-.571.291-1.276.465-2.081.465-.773.058-1.444-.097-2.015-.427Z" fill="#fbfbfb" fill-opacity="0.4" stroke-opacity="0.2"/></g><clipPath id="ecFXsDbGBK287"><rect width="65.4998" height="61.274" rx="0" ry="0" transform="matrix(.866044-.499967 0.866044 0.499967 249.329 813.275)" fill="#fff"/></clipPath></g></g><g opacity="0.2"><line x1="1.5" y1="-1.5" x2="128.508" y2="-1.5" transform="matrix(.866044 0.499967-.866044 0.499967 420 686.997)" fill="none" stroke="#fff" stroke-width="3" stroke-linecap="round"/></g><g><g id="ecFXsDbGBK292_ts" transform="translate(544.177,731.066) rotate(-29.99783) skewX(30.00434) skewY(0) scale(1,0.865987)"><rect width="25.2063" height="4.90683" rx="0" ry="0" transform="translate(0,0)" fill="#fff" fill-opacity="0.75"/></g><g id="ecFXsDbGBK293_ts" transform="translate(582,709) rotate(-29.99783) skewX(30.00434) skewY(0) scale(1,0.865987)"><rect width="25.2063" height="4.47731" rx="0" ry="0" transform="translate(0,0)" fill="#fff" fill-opacity="0.75"/></g><g id="ecFXsDbGBK294_ts" transform="translate(620.124,687.358) rotate(-29.99783) skewX(30.00434) skewY(0) scale(1,0.865987)"><rect width="25.2063" height="4.77141" rx="0" ry="0" transform="translate(0,0)" fill="#fff" fill-opacity="0.75"/></g><g id="ecFXsDbGBK295_ts" transform="translate(658.305,665.624) rotate(-29.99783) skewX(30.00434) skewY(0) scale(1,0.865987)"><rect width="25.2063" height="4.46326" rx="0" ry="0" transform="translate(0,0)" fill="#fff" fill-opacity="0.75"/></g></g></g></g><g id="ecFXsDbGBK296_to" transform="translate(538.216362,539.290688)"><g id="ecFXsDbGBK296" transform="scale(1.176234,1.176234) translate(-234.879871,-345.647636)"><g id="ecFXsDbGBK297" transform="translate(.000001 0)" opacity="0" filter="url(#ecFXsDbGBK297-filter)"><g><line x1="2" y1="-2" x2="111.114" y2="-2" transform="matrix(.866044-.499967 0.866044 0.499967 188.066 343.786)" fill="none" stroke="#fff" stroke-width="4" stroke-linecap="round"/><line x1="2" y1="-2" x2="84.8229" y2="-2" transform="matrix(.866044-.499967 0.866044 0.499967 197.068 348.982)" fill="none" stroke="#fff" stroke-width="4" stroke-linecap="round"/><line x1="2" y1="-2" x2="31.0171" y2="-2" transform="matrix(.866044-.499967 0.866044 0.499967 206.071 354.179)" fill="none" stroke="#fff" stroke-width="4" stroke-linecap="round"/></g><g transform="translate(.000001 0.000001)"><path d="M184.89,374.355c10.528-6.078,10.528-15.932,0-22.01s-27.598-6.078-38.126,0-10.528,15.932,0,22.01c10.528,6.077,27.598,6.077,38.126,0Z" fill="#ff8b20"/><path d="M165.97,360.285c-4.77.45-8.135,1.015-12.218,3.241.001.001.001.003.003.004.224.343.522.692.888,1.049.039.038.078.076.119.115.108.101.22.203.339.306.111.095.229.191.349.287.127.101.26.203.396.306.153.113.309.228.476.343.082.058.165.115.25.173.254.17.515.342.797.518l.715.443-.856.368c-.061.026-.121.054-.176.086-.033.019-.063.038-.091.06-.217.169-.321.356-.294.527.026.162.166.299.417.404l.075.036c.022.011,2.386,1.206,3.63.494l.673-.385.66.381c.13.075.266.145.407.214.015.007.03.013.044.02.034.015.067.029.101.045.096.043.192.087.292.128.059.024.121.046.181.069.092.035.185.07.281.103.067.023.137.045.206.067.095.031.19.06.286.087.068.02.138.039.208.058.1.027.202.053.305.078.07.017.14.033.211.049.106.024.213.046.321.068l.064.013c.049.009.098.018.147.028.114.021.229.04.344.06.053.008.106.017.159.025.014.002.028.005.043.007.128.02.256.037.386.054.016.002.032.005.048.006.041.005.082.012.122.016.147.018.296.034.446.049l.045.005c.024.003.048.005.071.007.245.024.492.043.739.059.005,0,.01,0,.015.001.235.015.47.026.706.035.019,0,.038.001.057.002.488.017.976.021,1.455.015.017,0,.033,0,.05-.001.181-.002.362-.006.541-.011.004,0,.006-.001.009-.001h.007c.189-.006.377-.013.562-.022c1.255-.059,2.402-.181,3.296-.318.004-.001.009-.002.014-.002.21-.033.404-.067.584-.1.019-.003.037-.007.056-.01.168-.033.321-.065.458-.097.018-.004.036-.008.055-.013.131-.032.247-.063.343-.093.011-.004.02-.007.031-.01.095-.032.175-.062.229-.091.042-.027.089-.067.136-.112.009-.009.018-.017.026-.026.047-.048.094-.104.142-.168.008-.011.017-.022.024-.033.051-.069.101-.144.152-.228l.002-.002c.052-.087.104-.184.156-.286.005-.012.013-.025.019-.037.052-.105.102-.215.151-.333.002-.004.003-.009.005-.013.102-.246.196-.52.276-.812.001-.006.003-.011.005-.017.361-1.345.409-3.093-.546-4.513-.003-.002-.004-.004-.006-.007-.088-.13-.185-.258-.29-.382-.005-.005-.01-.012-.015-.018-.109-.126-.226-.249-.353-.368-.006-.004-.011-.009-.016-.013-.002-.002-.005-.004-.007-.007-.01-.009-.024-.018-.034-.028-2.707-1.476-5.583-2.361-9.904-1.952Z" clip-rule="evenodd" fill="#fff" fill-rule="evenodd"/><path d="M170.728,366.587c-.791.456-.604,1.305.417,1.895c1.022.589,2.492.697,3.282.241.791-.457.604-1.305-.417-1.895-1.022-.59-2.492-.698-3.282-.241Zm-3.94-3.712l.63-.021c-.022-.316.071-.612.262-.874.036.069.094.136.178.195.341.241.961.274,1.384.073.424-.2.492-.559.15-.8-.169-.12-.407-.188-.655-.202.479-.181,1.029-.265,1.567-.225l.091-.361c-.861-.063-1.747.109-2.432.472-.793.43-1.224,1.047-1.175,1.743Zm9.12-.61c.002.002.005.004.007.006.005.005.01.009.015.014.128.118.245.242.354.368.005.006.009.012.015.018.105.124.202.252.29.382.002.002.003.004.006.007.955,1.42.907,3.167.545,4.513-.001.005-.003.011-.004.016-.08.293-.174.566-.276.812-.002.005-.003.009-.005.014-.049.117-.099.228-.151.332-.006.013-.014.025-.019.038-.052.102-.104.198-.157.286l-.001.002c-.051.084-.101.159-.152.228-.007.011-.016.022-.024.033-.048.063-.096.12-.142.167-.008.009-.017.018-.026.026-.047.046-.094.086-.137.113-.053.028-.133.059-.229.09-.01.004-.019.007-.03.01-.096.031-.212.062-.343.093-.019.005-.037.009-.055.014-.137.032-.29.064-.458.096-.019.004-.038.007-.056.011-.18.033-.374.067-.584.099-.005.001-.01.002-.015.002-.893.138-2.041.259-3.295.318-.185.01-.373.016-.562.022l-.007.001c-.003,0-.006,0-.009,0-.179.006-.36.009-.541.012-.017,0-.034.001-.05.001-.479.006-.967.001-1.456-.016-.018,0-.037-.001-.056-.002-.236-.008-.472-.02-.707-.035-.004,0-.009,0-.014-.001-.247-.015-.494-.035-.739-.058-.023-.002-.047-.005-.071-.007l-.045-.005c-.15-.015-.299-.031-.446-.049-.04-.005-.081-.011-.122-.016-.016-.002-.032-.004-.048-.006-.13-.017-.259-.035-.387-.055-.014-.002-.028-.004-.043-.006-.053-.009-.105-.017-.158-.026-.115-.019-.23-.039-.344-.06-.049-.009-.098-.019-.148-.028l-.063-.013c-.108-.021-.215-.044-.321-.068-.071-.016-.142-.032-.211-.049-.103-.024-.205-.051-.306-.078-.069-.019-.139-.037-.207-.057-.096-.028-.191-.057-.286-.087-.069-.022-.139-.044-.206-.067-.096-.033-.189-.069-.281-.104-.061-.022-.122-.044-.182-.069-.099-.04-.195-.084-.291-.128-.034-.015-.067-.03-.101-.045-.014-.007-.03-.013-.044-.02-.141-.068-.277-.139-.407-.214l-.66-.381-.674.386c-1.243.711-3.607-.483-3.629-.494l-.076-.036c-.25-.106-.39-.242-.416-.405-.027-.171.077-.358.294-.526.028-.022.058-.042.09-.06.055-.032.116-.06.177-.087l.856-.367-.715-.444c-.282-.175-.543-.347-.797-.518-.085-.058-.168-.115-.25-.172-.167-.116-.323-.23-.476-.344-.137-.102-.269-.204-.396-.306-.12-.095-.238-.192-.349-.286-.119-.103-.231-.205-.339-.306-.041-.039-.08-.077-.12-.116-.365-.356-.663-.706-.888-1.049-.001-.001-.001-.002-.003-.003c4.084-2.227,7.448-2.791,12.219-3.242.447-.042.876-.067,1.293-.083-.028.014-.056.023-.084.038-1.119.579-1.673,1.507-1.903,2.01l.609.087c.17-.373.677-1.296,1.709-1.828.28-.145.549-.243.804-.317c3.035.065,5.31.865,7.476,2.046.01.009.023.018.034.028Zm1.254-5.765c-4.421-2.292-15.729-5.072-24.279.119-4.064,2.467-8.372,8.913,3.02,14.322c6.151,2.921,12.516,4.633,12.516,4.633s1.679-.587,2.275-3.226c.076-.288.132-.581.178-.877c1.948-.084,3.717-.316,4.946-.581.002,0,.003-.001.004-.001.244-.052.466-.106.664-.16.005-.001.007-.002.011-.003.195-.054.369-.107.514-.161l.006-.002c.146-.054.265-.107.355-.158.053-.031.108-.07.163-.113.016-.012.032-.026.047-.04.041-.034.083-.071.125-.112.015-.015.032-.031.047-.048.049-.05.099-.104.148-.162.006-.008.013-.015.02-.024.119-.144.237-.311.351-.496l.016-.027c.055-.09.108-.185.161-.284.001-.002.002-.005.004-.008.112-.211.218-.441.314-.686c0,.029.001.046.001.046s11.081-5.37-1.607-11.951Zm-12.977,7.877c-1.205-.028-2.269.22-3.018.678-.629.396-.927.908-.817,1.404l.626-.052c-.07-.311.075-.628.388-.905.025.143.142.28.35.378.418.197,1.039.158,1.387-.086.347-.244.29-.602-.127-.799-.103-.049-.218-.082-.339-.103.454-.111.966-.164,1.514-.151l.036-.364Zm5.322,1.57c.55-.318.599-.805.111-1.087l-.449.26c.245.141.198.398-.104.572s-.746.201-.991.06l-.449.259c.487.282,1.332.253,1.882-.064Zm-6.256-2.091l-.15-.351c-.87.132-2.475.453-3.481,1.098-1.42.917-.964,1.755-.944,1.79l.599-.117c-.014-.028-.352-.683.811-1.434.931-.597,2.521-.888,3.165-.986Z" clip-rule="evenodd" fill="#310855" fill-rule="evenodd"/></g></g><g id="ecFXsDbGBK2106" opacity="0" filter="url(#ecFXsDbGBK2106-filter)"><g clip-path="url(#ecFXsDbGBK2112)"><g><path d="M132.175,344.399c10.709-6.183,10.709-16.207,0-22.39-10.71-6.182-28.074-6.182-38.7835,0-10.7096,6.183-10.7096,16.207,0,22.39s28.0735,6.183,38.7835,0Z" fill="#54c97c"/><path d="M118.009,327.633c-.004.003-.006.005-.011.008l-3.981-2.298c-2.527-1.46-8.409-.429-12.061,1.679-3.6512,2.108-5.1245,5.324-2.5971,6.783l3.9811,2.298c-.004.003-.009.004-.014.006-1.082.625-1.016,1.677.149,2.35c1.165.672,2.988.711,4.07.086.004-.003.007-.006.011-.008c0,0,2.273,1.639,3.844,2.545c1.571.907,10.267-.633,10.267-.633l1.916-1.046l1.854-1.071c0,0,2.71-5.105,1.14-6.011-1.57-.907-4.363-2.246-4.363-2.246.004-.003.009-.004.014-.007c1.082-.625,1.016-1.677-.149-2.349-1.165-.673-2.987-.711-4.07-.086Z" clip-rule="evenodd" fill="#fff" fill-rule="evenodd"/><path d="M121.601,329.652l-.809.467.802.385c.027.013,2.777,1.333,4.298,2.211.593.363-.028,2.881-1.302,5.329l-.995.574-2.402-1.386-1.369.79l2.383,1.376-1.025.56c-4.181.726-8.482,1.074-9.097.729-1.516-.875-3.752-2.485-3.775-2.501l-.663-.478-.816.471c-.71.381-1.894.333-2.67-.115-.775-.448-.861-1.129-.207-1.539l.243-.14c1.825.943,4.663.897,6.446-.132c1.004-.58,1.465-1.352,1.389-2.105l1.227.708c.262.152.567.265.893.34l-.916.529c-1.375.793-1.52,2.001-.324,2.692l3.521,2.033l1.37-.791-3.521-2.033c-.447-.257-.309-.772.3-1.124l4.013-2.317c-.075.304-.581.856-1.561,1.421-.814.471-1.754.822-2.393.895l.228.725c.902-.103,2.048-.516,3.063-1.102c1.096-.633,1.82-1.332,1.938-1.87l-1.256-.08.223-.129c.61-.352,1.502-.431,1.948-.173l3.521,2.033l1.37-.791-3.522-2.033c-1.196-.69-3.288-.607-4.663.187l-2.244,1.296c-.389.011-.782-.065-1.075-.235l-3.015-1.74.7-.405c1.828.837,4.524.756,6.241-.235c1.784-1.03,1.862-2.667.231-3.721l.396-.23c.709-.381,1.893-.332,2.67.116.774.447.86,1.129.206,1.538Zm-21.557,3.757c-.1805-.104-.3267-.225-.4555-.354.5505-.634.9775-1.583.9775-1.583l2.496-.272l1.783-2.199l3.515-.539.536-1.799l2.831-.145.581-1.143c.396.085.746.202,1.025.363l3.67,2.118c-1.193.003-2.69.602-3.82,1.255-1.293.746-2.463,1.769-2.108,2.489l-1.038.599c-1.247-.205-3.017.469-4.31,1.216-1.038.599-1.996,1.376-2.152,2.033l-3.531-2.039Zm22.72-6.085c-1.29-.745-3.217-.889-4.664-.415l-3.398-1.962c-3.093-1.785-9.555-.544-13.418,1.686-3.7948,2.191-5.7493,5.754-2.6095,7.567l3.3985,1.962c-.821.835-.572,1.947.718,2.692c1.266.731,3.147.883,4.585.44.784.551,2.221,1.538,3.34,2.183c1.78,1.028,8.439-.006,11.219-.499l.219-.039l2.083-1.138.01-.005l2.036-1.176.072-.134c.865-1.63,2.687-5.534.907-6.561-1.117-.645-2.806-1.488-3.742-1.947.775-.831.514-1.921-.756-2.654Z" clip-rule="evenodd" fill="#310855" fill-rule="evenodd"/></g><clipPath id="ecFXsDbGBK2112"><rect width="44.7819" height="44.7819" rx="0" ry="0" transform="matrix(.866044-.499967 0.866044 0.499967 74 333.204)" fill="#fff"/></clipPath></g><g><line x1="2" y1="-2" x2="113.065" y2="-2" transform="matrix(.866044-.499967 0.866044 0.499967 133.79 312.37)" fill="none" stroke="#fff" stroke-width="4" stroke-linecap="round"/><line x1="2" y1="-2" x2="86.3198" y2="-2" transform="matrix(.866044-.499967 0.866044 0.499967 142.947 317.656)" fill="none" stroke="#fff" stroke-width="4" stroke-linecap="round"/><line x1="2" y1="-2" x2="31.5864" y2="-2" transform="matrix(.866044-.499967 0.866044 0.499967 152.104 322.943)" fill="none" stroke="#fff" stroke-width="4" stroke-linecap="round"/></g></g><g id="ecFXsDbGBK2118" opacity="0"><g filter="url(#ecFXsDbGBK2119-filter)"><line x1="2" y1="-2" x2="111.97" y2="-2" transform="matrix(.866044-.499967 0.866044 0.499967 78.8223 277.756)" fill="none" stroke="#fff" stroke-width="4" stroke-linecap="round"/><line x1="2" y1="-2" x2="85.4793" y2="-2" transform="matrix(.866044-.499967 0.866044 0.499967 87.8916 282.993)" fill="none" stroke="#fff" stroke-width="4" stroke-linecap="round"/><line x1="2" y1="-2" x2="31.2668" y2="-2" transform="matrix(.866044-.499967 0.866044 0.499967 96.9619 288.229)" fill="none" stroke="#fff" stroke-width="4" stroke-linecap="round"/></g><g filter="url(#ecFXsDbGBK2123-filter)"><path d="M75.621,310.406c10.6078-6.124,10.6078-16.052,0-22.176-10.6077-6.124-27.8063-6.124-38.414,0s-10.6077,16.052,0,22.176s27.8063,6.124,38.414,0Z" fill="#54c97c"/><path d="M48.6739,302.729c-.0321.019-.0619.039-.0896.06-.2142.168-.3153.355-.2852.526.0292.163.1718.301.4251.408l.0769.037c.0224.011,2.4144,1.224,3.6486.518l.6687-.383.6684.386c4.0272,2.325,12.9718,1.223,13.9753.688.9265-.579,2.8321-5.741-1.195-8.066l-.6685-.386.6624-.386c1.2315-.718-.8751-2.092-.8966-2.106l-.0641-.044c-.1859-.147-.4244-.229-.7067-.246-.2976-.017-.6204.041-.9112.165-.1021.044-.1805.098-.2527.153l-.6293.492-.778-.419c-1.2843-.691-2.4979-1.228-3.6632-1.627-.3111.396-1.0166.839-2.4848,1.252-1.1016.802-2.793,1.837-5.0508,2.644-2.2243.795-4.5479,1.207-6.2764,1.421.3929,1.236,1.7596,2.548,4.1288,4.015l.7245.449-.8514.364c-.0606.026-.1204.054-.1752.085Z" clip-rule="evenodd" fill="#fff" fill-rule="evenodd"/><path d="M59.5872,296.412c-.7882.427-1.2084,1.043-1.1459,1.741l.6307-.017c-.028-.318.0602-.614.2473-.875.0364.07.0966.137.1817.197.3462.244.9686.281,1.3896.082.4214-.199.4821-.558.135-.802-.1716-.121-.4113-.191-.6598-.207.476-.178,1.0261-.259,1.5668-.215l.0839-.362c-.8642-.068-1.7494.098-2.4293.458Zm-.8035-.901c-1.112.575-1.6494,1.502-1.8713,2.004l.6133.092c.1634-.372.6539-1.296,1.6794-1.823c1.292-.665,2.4342-.463,2.4798-.454l.2006-.346c-.0617-.012-1.524-.284-3.1018.527Zm4.1593,6.632l-.9807.191c-.7735.75-1.702,1.414-1.702,1.414s3.1732.243,4.5287-.539c1.3555-.783.9343-2.615.9343-2.615s-1.15.536-2.4483.983l-.332.566Zm-1.7184-.893c.5452-.314.5858-.803.0915-1.088l-.4458.257c.2476.143.2057.4-.0934.573-.2995.173-.7452.197-.9928.054l-.4458.257c.4943.286,1.3408.262,1.8863-.053Zm4.3765-7.269l.0631.044c.0215.014,2.1286,1.388.8966,2.107l-.6623.386.6684.385c4.0272,2.325,2.122,7.487,1.1955,8.066-1.0035.535-9.9485,1.637-13.9757-.688l-.6685-.385-.6686.382c-1.2343.706-3.6262-.506-3.6486-.518l-.0765-.036c-.2537-.108-.3959-.246-.4251-.409-.0301-.171.0706-.358.2853-.526.0276-.021.057-.041.0891-.059.0548-.032.115-.06.1756-.086l.8519-.363-.7254-.449c-2.3688-1.468-3.7359-2.779-4.1288-4.016c1.7289-.214,4.0521-.626,6.2768-1.42c2.2583-.807,3.9492-1.843,5.0508-2.645c1.4678-.413,2.1732-.856,2.4853-1.252c1.1648.399,2.3779.936,3.6627,1.627l.778.419.6289-.492c.0721-.055.151-.108.2531-.153.2904-.124.6136-.182.9107-.164.2829.016.5208.099.7077.245Zm1.4917-.671c-.5031-.381-1.2174-.616-2.015-.663-.7306-.043-1.4815.075-2.1296.332-1.3303-.681-2.8611-1.353-4.5493-1.814-4.3804-3.229-11.8386-1.503-15.0148-.097-.656.291-1.4509.721-2.2229,1.271-1.5663.793-3.0262,1.969-4.2339,3.678c0,0,.5682-.245,1.5217-.551-.8745,2.137-.1939,4.878,4.4189,8.008-.2983-1.817-.0716-3.29.5595-4.483.7685,1.204,2.1535,2.286,3.5615,3.202-.4457.373-.6496.808-.5747,1.229.0813.46.488.873,1.1472,1.163c1.1535.6,3.3036,1.317,5.1456.889-.2075.404-.0279.869.5461,1.2.6339.366,1.5509.457,2.2945.272-.3191.43-.1621.959.4719,1.325.6366.368,1.5568.458,2.3034.27-.3249.431-.1687.963.4675,1.33.548.316,1.3078.425,1.9847.33l-.0379.022l1.4322,1.633l2.7939-1.613-2.7992-.817c.1928-.401.0111-.857-.554-1.183-.6362-.367-1.5572-.457-2.3025-.27.304-.405.1797-.897-.364-1.26c4.5002.337,9.176-.399,10.1619-.969.99-.571,2.2716-3.291,1.6679-5.899.632.33,1.5034.407,2.2184.228-.3245.43-.1688.962.4674,1.33.548.316,1.3079.424,1.9848.33l-.0379.022l1.4322,1.633l2.7939-1.613-2.7988-.818c.1924-.4.0106-.856-.5544-1.182-.6362-.367-1.5573-.458-2.3026-.27.3236-.431.1683-.962-.4683-1.33-.634-.366-1.5506-.456-2.295-.272.32-.429.1625-.959-.4714-1.325-.5798-.335-1.3951-.437-2.1004-.312.7219-1.06-.5149-2.293-1.5485-2.956Zm-12.1801,5.805l-.1577-.354c-.8701.128-2.4736.44-3.4714,1.08-1.4059.911-.9336,1.755-.9125,1.79l.5991-.114c-.0157-.028-.3658-.687.7857-1.433.9224-.593,2.5126-.875,3.1568-.969Zm-.5986,1.035c.4521-.108.9652-.159,1.5152-.142l.0289-.364c-1.2089-.036-2.2717.206-3.0142.661-.6234.393-.9123.904-.7929,1.402l.6266-.048c-.0758-.312.0641-.63.3727-.904.0264.143.1476.281.3575.38.4233.201,1.045.166,1.3899-.078.3439-.242.28-.602-.1425-.801-.1043-.05-.2196-.085-.3412-.106Z" clip-rule="evenodd" fill="#310855" fill-rule="evenodd"/></g></g><g id="ecFXsDbGBK2127" opacity="0" filter="url(#ecFXsDbGBK2127-filter)"><g><line x1="2" y1="-2" x2="109.175" y2="-2" transform="matrix(.866044-.499967 0.866044 0.499967 239.675 373.674)" fill="none" stroke="#fff" stroke-width="4" stroke-linecap="round"/><line x1="2" y1="-2" x2="83.3344" y2="-2" transform="matrix(.866044-.499967 0.866044 0.499967 248.522 378.782)" fill="none" stroke="#fff" stroke-width="4" stroke-linecap="round"/><line x1="2" y1="-2" x2="30.4511" y2="-2" transform="matrix(.866044-.499967 0.866044 0.499967 257.371 383.889)" fill="none" stroke="#fff" stroke-width="4" stroke-linecap="round"/></g><path d="M236.032,405.221c10.348-5.974,10.348-15.659,0-21.633-10.347-5.973-27.124-5.973-37.472,0-10.347,5.974-10.347,15.659,0,21.633c10.348,5.974,27.125,5.974,37.472,0Z" fill="#54c97c"/><path d="M222.324,389.787l-4.497-2.596c-1.903-1.098-7.026-.297-10.341,1.617-3.281,1.894-4.472,4.656-2.498,5.796l4.497,2.596-.719.414c-.633.396-.549,1.055.198,1.486.751.434,1.895.481,2.58.112l.789-.455.641.462c.021.015,2.183,1.571,3.648,2.416.594.333,4.748-.002,8.789-.705l1.68-.917l1.613-.931c1.23-2.366,1.83-4.799,1.258-5.149-1.47-.848-4.127-2.124-4.153-2.137l-.775-.372.782-.451c.632-.395.549-1.054-.2-1.486-.749-.433-1.894-.48-2.579-.112l-.713.412Z" clip-rule="evenodd" fill="#fff" fill-rule="evenodd"/><path d="M219.191,391.568c-.88.423-1.356,1.054-1.307,1.735l.618-.021c-.022-.311.092-.609.314-.872.034.046.076.092.135.133.334.237.943.269,1.358.072.416-.197.482-.549.147-.786-.113-.08-.257-.134-.414-.167.486-.15,1.017-.201,1.493-.137l.151-.348c-.82-.11-1.753.036-2.495.391Zm5.025,6.632c-.645.373-.894.845-.624,1.12l2.564-1.48c-.477-.156-1.294-.013-1.94.36Zm-4.987,1.156c0,0,2.81-.209,4.766-1.338c1.957-1.13,2.319-2.752,2.319-2.752l-3.377,2.141-3.708,1.949Zm1.069-9.183c.213.001.409.03.491.047l.437-.672c-.099-.021-.453-.088-.9-.089l-.028.714Zm5.517.8l-.782.451.775.371c.026.014,2.683,1.289,4.153,2.138.572.35-.028,2.782-1.259,5.148l-1.613.931-1.679.918c-4.041.702-8.195,1.038-8.79.705-1.464-.846-3.626-2.401-3.648-2.417l-.64-.462-.789.456c-.685.368-1.83.321-2.58-.112-.748-.432-.831-1.091-.198-1.487l.719-.414-4.497-2.596c-1.974-1.14-.783-3.902,2.497-5.796c3.316-1.914,8.439-2.715,10.342-1.616l4.497,2.596.713-.412c.685-.369,1.83-.321,2.58.112.748.432.831,1.09.199,1.486Zm1.124-2.25c-1.247-.72-3.109-.859-4.507-.401l-3.283-1.895c-2.988-1.725-9.232-.526-12.965,1.629-3.667,2.117-5.554,5.559-2.52,7.311l3.283,1.895c-.794.807-.553,1.882.693,2.602c1.224.706,3.041.853,4.43.425.758.532,2.146,1.485,3.227,2.109.444.256,1.203.378,2.127.413.462.017.965.012,1.494-.01c2.515-.106,5.571-.593,7.219-.884l.211-.038l2.013-1.1.01-.005l1.968-1.136.069-.13c.528-.994,1.421-2.859,1.578-4.352.033-.312.031-.605-.011-.873-.075-.483-.282-.878-.691-1.114-1.079-.623-2.711-1.438-3.616-1.881.75-.803.498-1.857-.729-2.565Zm-12.686,6.532c-.071-.034-.15-.058-.231-.078.457-.128.972-.194,1.512-.181l.035-.357c-1.18-.027-2.274.248-3.004.755-.616.428-.869.966-.678,1.44l.602-.087c-.111-.275-.021-.582.239-.862.056.091.15.174.289.239.41.194,1.019.156,1.361-.085.341-.239.285-.591-.125-.784Zm4.277-4.11l-.986-.422c-.887.684-1.827,1.47-1.836,1.478l1.015.398c.008-.007.934-.781,1.807-1.454Zm-4.174,2.821l-.691-.586c-.136.054-3.324,1.326-4.196,1.83-.891.514-.454,1.272-.4,1.356l1.164-.253c-.065-.103-.185-.437.103-.603.656-.379,3.124-1.387,4.02-1.744Zm5.387-3.686c.053-.031.114-.054.186-.071l-.447-.661c-.229.054-.433.131-.606.231l-.116.069.897.483.086-.051Zm-.463.305l-.957-.443c-.124.089-.257.187-.396.289l.974.431c.132-.099.26-.192.379-.277Zm2.07,6.066c.972-.561,1.059-1.425.193-1.925l-.882.509c.388.224.308.635-.178.916-.487.281-1.198.326-1.587.102l-.882.51c.867.5,2.363.45,3.336-.112Zm-3.446.073l-.522-.184c-.14.128-.211.275-.205.424.007.214.167.411.448.556.277.142.64.215,1.021.207.294-.006.577-.061.816-.158l-.35-.291c-.138.057-.303.089-.478.092-.223.005-.434-.038-.595-.119-.153-.079-.239-.185-.243-.3-.004-.079.033-.157.108-.227Z" clip-rule="evenodd" fill="#310855" fill-rule="evenodd"/></g><g id="ecFXsDbGBK2135" opacity="0" filter="url(#ecFXsDbGBK2135-filter)"><g><line x1="2" y1="-2" x2="111.97" y2="-2" transform="matrix(.866044-.499967 0.866044 0.499967 294.348 401.785)" fill="none" stroke="#fff" stroke-width="4" stroke-linecap="round"/><line x1="2" y1="-2" x2="85.4793" y2="-2" transform="matrix(.866044-.499967 0.866044 0.499967 303.417 407.022)" fill="none" stroke="#fff" stroke-width="4" stroke-linecap="round"/><line x1="2" y1="-2" x2="31.2668" y2="-2" transform="matrix(.866044-.499967 0.866044 0.499967 312.487 412.258)" fill="none" stroke="#fff" stroke-width="4" stroke-linecap="round"/></g><path d="M291.146,434.435c10.608-6.124,10.608-16.053,0-22.177-10.607-6.123-27.806-6.123-38.414,0-10.607,6.124-10.607,16.053,0,22.177c10.608,6.124,27.807,6.124,38.414,0Z" fill="#ff8b20"/><path d="M264.199,426.758c-.032.019-.062.039-.089.06-.215.168-.316.354-.286.526.03.163.172.301.426.408l.077.037c.022.011,2.414,1.223,3.648.518l.669-.383.668.386c4.027,2.325,12.972,1.223,13.975.687.927-.578,2.833-5.74-1.195-8.065l-.668-.386.662-.386c1.232-.718-.875-2.092-.896-2.106l-.064-.044c-.186-.147-.425-.229-.707-.246-.298-.017-.62.041-.911.165-.102.044-.181.097-.253.153l-.629.492-.778-.419c-1.285-.691-2.498-1.228-3.663-1.627-.312.396-1.017.839-2.485,1.251-1.102.803-2.793,1.838-5.051,2.645-2.224.794-4.548,1.207-6.276,1.421.393,1.236,1.759,2.548,4.128,4.015l.725.449-.851.364c-.061.026-.121.054-.176.085Z" clip-rule="evenodd" fill="#fff" fill-rule="evenodd"/><path d="M275.113,420.441c-.789.427-1.209,1.042-1.146,1.74l.63-.016c-.028-.318.061-.614.248-.875.036.07.096.137.181.197.347.244.969.281,1.39.082s.482-.558.135-.802c-.172-.122-.411-.192-.66-.207.476-.178,1.026-.259,1.567-.215l.084-.362c-.864-.069-1.75.098-2.429.458Zm-.804-.901c-1.112.574-1.649,1.502-1.871,2.004l.613.092c.163-.373.654-1.296,1.679-1.823c1.293-.665,2.435-.463,2.48-.454l.201-.346c-.062-.012-1.524-.284-3.102.527Zm4.159,6.632l-.98.191c-.774.75-1.702,1.414-1.702,1.414s3.173.243,4.528-.539c1.356-.783.935-2.615.935-2.615s-1.15.536-2.449.982l-.332.567Zm-1.718-.893c.545-.315.586-.803.091-1.089l-.445.258c.247.143.205.4-.094.573s-.745.197-.993.054l-.445.257c.494.286,1.34.262,1.886-.053Zm4.376-7.269l.064.044c.021.014,2.128,1.388.896,2.106l-.662.386.668.386c4.027,2.325,2.122,7.487,1.196,8.066-1.004.535-9.949,1.637-13.976-.688l-.668-.386-.669.383c-1.234.706-3.626-.506-3.649-.518l-.076-.036c-.254-.108-.396-.246-.425-.409-.03-.172.07-.358.285-.526.028-.021.057-.041.089-.06.055-.031.115-.059.176-.085l.852-.364-.726-.449c-2.369-1.467-3.736-2.779-4.129-4.015c1.729-.214,4.053-.626,6.277-1.421c2.259-.807,3.949-1.842,5.051-2.645c1.468-.412,2.173-.855,2.485-1.251c1.165.399,2.378.936,3.663,1.627l.778.419.629-.492c.072-.055.151-.109.253-.153.29-.124.614-.182.911-.165.283.017.521.099.707.246Zm1.492-.672c-.503-.38-1.217-.615-2.015-.662-.73-.043-1.481.075-2.129.332-1.331-.681-2.862-1.353-4.55-1.814-4.38-3.23-11.838-1.503-15.014-.097-.657.291-1.451.72-2.223,1.271-1.567.793-3.027,1.968-4.234,3.678c0,0,.568-.245,1.521-.551-.874,2.137-.194,4.878,4.419,8.008-.298-1.817-.071-3.29.56-4.484.768,1.205,2.153,2.286,3.561,3.203-.445.373-.649.807-.574,1.228.081.461.488.873,1.147,1.164c1.153.599,3.303,1.317,5.145.889-.207.404-.028.869.546,1.2.634.366,1.551.457,2.295.272-.319.43-.162.959.472,1.325.637.368,1.557.457,2.303.27-.325.431-.168.963.468,1.33.548.316,1.308.424,1.984.33l-.037.022l1.432,1.633l2.794-1.613-2.799-.818c.192-.4.011-.856-.554-1.182-.637-.367-1.558-.457-2.303-.27.304-.405.18-.897-.364-1.26c4.5.337,9.176-.4,10.162-.969.99-.571,2.271-3.291,1.668-5.899.632.33,1.503.407,2.218.228-.324.43-.169.962.468,1.329.548.317,1.307.425,1.984.331l-.038.021l1.433,1.634l2.794-1.613-2.799-.818c.192-.4.01-.856-.555-1.182-.636-.368-1.557-.458-2.302-.27.323-.431.168-.962-.469-1.33-.633-.366-1.55-.457-2.294-.272.319-.43.162-.959-.472-1.325-.58-.335-1.395-.437-2.1-.312.722-1.06-.515-2.294-1.549-2.957Zm-12.18,5.806l-.158-.354c-.87.128-2.473.44-3.471,1.08-1.406.911-.934,1.755-.912,1.79l.599-.114c-.016-.028-.366-.687.785-1.433.923-.593,2.513-.875,3.157-.969Zm-.599,1.035c.453-.108.966-.159,1.516-.142l.029-.364c-1.209-.036-2.272.205-3.015.661-.623.392-.912.903-.792,1.402l.626-.048c-.076-.312.064-.63.373-.905.026.144.147.282.357.381.424.2,1.045.166,1.39-.078.344-.242.28-.602-.142-.802-.105-.049-.22-.084-.342-.105Z" clip-rule="evenodd" fill="#310855" fill-rule="evenodd"/></g><g id="ecFXsDbGBK2143" opacity="0" filter="url(#ecFXsDbGBK2143-filter)"><line x1="2" y1="-2" x2="111.114" y2="-2" transform="matrix(.866044-.499967 0.866044 0.499967 346.011 435.393)" fill="none" stroke="#fff" stroke-width="4" stroke-linecap="round"/><line x1="2" y1="-2" x2="84.8229" y2="-2" transform="matrix(.866044-.499967 0.866044 0.499967 355.013 440.589)" fill="none" stroke="#fff" stroke-width="4" stroke-linecap="round"/><line x1="2" y1="-2" x2="31.0171" y2="-2" transform="matrix(.866044-.499967 0.866044 0.499967 364.016 445.786)" fill="none" stroke="#fff" stroke-width="4" stroke-linecap="round"/><path d="M342.834,465.962c10.528-6.078,10.528-15.932,0-22.01s-27.597-6.078-38.126,0c-10.528,6.078-10.528,15.932,0,22.01c10.529,6.078,27.598,6.078,38.126,0Z" fill="#54c97c"/><path d="M323.915,451.892c-4.771.451-8.135,1.015-12.219,3.242.001.001.002.002.003.003.224.343.523.692.888,1.049.039.039.079.077.119.116.109.101.22.203.339.306.111.094.229.19.349.286.127.101.26.203.396.306.153.114.31.228.476.344.082.057.165.114.25.172.254.171.515.343.797.518l.716.443-.857.368c-.061.027-.121.055-.176.087-.032.018-.062.038-.091.06-.217.168-.321.355-.293.526.025.163.165.299.416.405l.076.036c.022.011,2.385,1.205,3.629.494l.673-.386.66.381c.13.075.266.146.407.214.015.007.03.013.045.02.033.015.067.03.1.045.097.044.192.088.292.128.059.024.121.047.182.069.092.035.184.07.28.103.067.024.137.046.206.068.095.03.19.059.286.087.069.02.139.038.208.057.101.027.202.054.305.078.07.017.14.033.212.049.105.024.213.047.321.068l.063.013c.049.009.098.019.148.028.113.021.228.041.344.06.052.009.105.017.158.026.014.002.029.004.043.006.128.02.257.038.387.054.015.003.032.005.047.007.042.005.082.011.122.016.148.018.297.034.446.049l.045.004c.024.003.048.006.072.008.245.023.492.043.739.058.005,0,.009.001.014.001.235.015.47.026.706.035.02.001.038.002.057.002.489.017.977.022,1.455.016.017,0,.033-.001.05-.001.182-.003.362-.007.541-.012.004,0,.007,0,.01,0l.006-.001c.19-.006.377-.013.562-.022c1.255-.059,2.402-.18,3.296-.318.004,0,.009-.001.014-.002.211-.032.404-.066.584-.1.019-.003.038-.006.056-.01.168-.032.321-.064.458-.097.019-.004.037-.008.055-.013.131-.031.248-.062.343-.093.012-.004.02-.006.031-.01.096-.031.175-.062.229-.09.043-.027.089-.067.137-.113.008-.008.017-.017.026-.026.046-.048.093-.104.142-.167.008-.011.016-.023.023-.033.051-.069.102-.144.153-.228l.001-.003c.052-.087.104-.183.156-.286.006-.012.013-.024.019-.037.052-.104.103-.215.151-.332.002-.005.004-.009.006-.014.102-.246.195-.519.276-.812c0-.005.002-.011.004-.016.361-1.346.409-3.093-.546-4.513-.002-.003-.003-.005-.006-.007-.088-.131-.185-.258-.289-.382-.006-.006-.011-.012-.016-.019-.108-.126-.226-.249-.353-.368-.005-.004-.011-.008-.015-.013-.003-.002-.006-.004-.008-.006-.01-.01-.023-.019-.033-.028-2.708-1.476-5.584-2.362-9.904-1.953Z" clip-rule="evenodd" fill="#fff" fill-rule="evenodd"/><path d="M328.671,458.194c-.791.457-.604,1.305.418,1.895c1.021.59,2.491.697,3.282.241.79-.456.604-1.305-.418-1.895-1.021-.589-2.491-.697-3.282-.241Zm-3.94-3.712l.63-.021c-.022-.316.071-.612.262-.873.036.069.095.135.178.195.341.241.961.274,1.385.073.423-.201.491-.56.15-.801-.17-.12-.407-.188-.655-.202.478-.18,1.028-.264,1.567-.224l.09-.362c-.861-.063-1.747.11-2.432.472-.793.431-1.224,1.047-1.175,1.743Zm9.12-.61c.002.003.005.005.008.007.004.004.009.008.014.013.128.119.246.242.354.368.005.006.01.012.015.018.105.124.202.252.29.382.002.003.004.005.006.007.955,1.42.907,3.168.545,4.513-.001.005-.003.011-.003.017-.081.292-.174.566-.276.812-.002.004-.004.009-.006.013-.049.118-.099.228-.151.333-.006.012-.013.025-.019.037-.052.102-.104.199-.156.286l-.002.002c-.05.084-.101.159-.152.228-.007.011-.015.022-.023.033-.049.064-.097.12-.142.168-.009.009-.018.017-.027.025-.047.046-.094.086-.136.113-.054.029-.133.059-.229.09-.011.004-.019.007-.031.011-.096.03-.212.061-.343.093-.019.004-.036.009-.055.013-.137.032-.29.064-.458.097-.018.003-.037.007-.056.01-.18.033-.373.067-.584.099-.005.001-.01.002-.014.003-.894.137-2.041.259-3.296.318-.185.009-.372.016-.562.022h-.007c-.003,0-.006,0-.009,0-.179.006-.359.01-.541.012-.017,0-.033.001-.05.001-.479.006-.966.002-1.455-.015-.019-.001-.038-.002-.057-.002-.236-.009-.471-.02-.706-.035-.005-.001-.01-.001-.014-.001-.247-.016-.494-.035-.739-.059-.024-.002-.048-.004-.072-.007l-.045-.005c-.149-.015-.298-.031-.446-.049-.04-.004-.081-.011-.122-.016-.015-.001-.032-.004-.047-.006-.13-.017-.259-.035-.387-.054-.015-.002-.029-.005-.043-.007-.053-.008-.106-.017-.159-.025-.115-.02-.23-.039-.343-.06-.05-.01-.099-.019-.148-.029l-.063-.012c-.108-.022-.216-.044-.322-.068-.071-.016-.141-.032-.211-.049-.103-.025-.204-.051-.305-.078-.07-.019-.14-.038-.208-.058-.096-.027-.191-.057-.286-.087-.069-.022-.139-.044-.206-.067-.096-.033-.188-.068-.281-.103-.06-.023-.122-.045-.181-.069-.1-.041-.195-.085-.292-.128-.033-.016-.067-.03-.1-.045-.015-.007-.03-.014-.045-.02-.141-.069-.277-.14-.407-.215l-.66-.38-.673.385c-1.244.712-3.607-.483-3.63-.494l-.075-.036c-.251-.105-.391-.242-.417-.405-.027-.17.077-.357.294-.526.028-.022.058-.041.091-.06.055-.032.115-.06.176-.086l.857-.368-.716-.443c-.282-.176-.543-.348-.797-.518-.085-.058-.168-.116-.25-.173-.166-.115-.323-.23-.476-.343-.136-.103-.269-.205-.396-.306-.12-.096-.238-.192-.349-.287-.119-.103-.231-.205-.339-.306-.041-.039-.08-.077-.12-.115-.365-.357-.663-.706-.887-1.049-.002-.001-.002-.003-.003-.004c4.083-2.226,7.448-2.791,12.219-3.242.447-.042.875-.067,1.293-.082-.029.014-.056.022-.085.037-1.119.579-1.673,1.507-1.903,2.01l.61.087c.17-.372.676-1.296,1.708-1.827.28-.145.549-.243.804-.318c3.035.065,5.311.866,7.477,2.046.01.01.023.019.033.028Zm1.255-5.764c-4.421-2.293-15.729-5.073-24.28.118-4.063,2.467-8.372,8.914,3.02,14.323c6.151,2.92,12.516,4.632,12.516,4.632s1.68-.587,2.275-3.226c.076-.287.132-.58.178-.876c1.948-.084,3.718-.317,4.947-.582.001,0,.002,0,.004,0c.243-.053.465-.107.664-.16.004-.001.007-.002.011-.004.195-.053.368-.107.513-.16l.006-.003c.146-.053.266-.106.355-.158.053-.031.108-.07.163-.112.016-.013.032-.027.048-.04.041-.035.082-.072.124-.112.016-.016.032-.031.048-.048.049-.05.098-.104.147-.162.006-.008.013-.016.02-.025.119-.143.237-.31.351-.496l.016-.027c.055-.09.108-.184.161-.283.001-.003.003-.005.004-.008.112-.212.218-.441.314-.686.001.029.002.045.002.045s11.08-5.37-1.607-11.95Zm-12.978,7.877c-1.205-.029-2.269.219-3.018.678-.628.395-.926.907-.817,1.403l.626-.052c-.07-.311.076-.628.389-.904.024.143.142.28.349.378.418.197,1.039.158,1.387-.087.348-.244.291-.602-.127-.799-.103-.048-.217-.082-.338-.103.453-.11.966-.163,1.513-.151l.036-.363Zm5.322,1.569c.55-.317.599-.805.112-1.086l-.449.259c.244.141.197.398-.105.572-.302.175-.746.202-.991.06l-.449.26c.488.281,1.332.253,1.882-.065Zm-6.255-2.091l-.151-.351c-.87.132-2.474.454-3.481,1.098-1.42.917-.964,1.755-.944,1.791l.6-.118c-.015-.027-.352-.682.811-1.433.93-.598,2.521-.889,3.165-.987Z" clip-rule="evenodd" fill="#310855" fill-rule="evenodd"/></g></g></g></g><clipPath id="ecFXsDbGBK2150"><rect width="1000" height="1000" rx="0" ry="0" fill="#fff"/></clipPath></g></svg>
