<svg width="1000" height="1000" viewBox="0 0 1000 1000" fill="none" xmlns="http://www.w3.org/2000/svg">
<rect x="-8.66044" width="413.341" height="442.734" rx="18" transform="matrix(0.866044 -0.499967 0.866044 0.499967 143.801 476.01)" fill="#D9D9D9" stroke="url(#paint0_linear_1031_4518)" stroke-width="10"/>
<rect width="377.213" height="271.887" rx="8" transform="matrix(0.866044 -0.499967 0.866044 0.499967 166.881 479.116)" fill="url(#paint1_linear_1031_4518)"/>
<path d="M465.223 627.738L462.055 629.567L459.51 628.391C459.774 629.131 459.661 629.948 459.17 630.84C458.68 631.711 457.728 632.555 456.314 633.371C453.523 634.982 450.204 635.799 446.358 635.82C442.511 635.842 439.013 634.944 435.864 633.126C432.734 631.319 431.207 629.284 431.282 627.019C431.376 624.744 432.838 622.79 435.666 621.157C438.117 619.742 440.71 618.931 443.444 618.724C446.197 618.507 448.715 618.741 450.996 619.427L448.592 622.349C447.253 621.925 445.745 621.762 444.067 621.859C442.388 621.936 440.804 622.404 439.315 623.264C437.618 624.243 436.722 625.435 436.628 626.84C436.552 628.233 437.618 629.567 439.824 630.84C441.992 632.092 444.283 632.718 446.697 632.718C449.129 632.707 451.241 632.185 453.033 631.15C454.692 630.192 455.55 629.218 455.607 628.228C455.644 627.226 455.277 626.415 454.504 625.795L448.168 629.452L444.774 627.493L454.786 621.713L465.223 627.738Z" fill="#3E3E3E"/>
<path d="M463.081 619.112L469.303 615.52C468.492 615.095 467.559 614.883 466.503 614.883C465.466 614.872 464.448 615.155 463.448 615.732C462.543 616.255 462.091 616.843 462.091 617.496C462.091 618.149 462.421 618.688 463.081 619.112ZM473.291 617.398L477.364 616.124C478.269 617.082 478.58 618.122 478.298 619.243C478.034 620.353 477.081 621.382 475.441 622.329C473.442 623.483 471.076 624.076 468.342 624.109C465.589 624.131 463.081 623.488 460.818 622.182C458.668 620.941 457.594 619.537 457.594 617.969C457.575 616.391 458.489 615.068 460.337 614.001C462.487 612.76 464.806 612.162 467.295 612.205C469.803 612.238 472.179 612.902 474.423 614.197C474.574 614.284 474.734 614.388 474.904 614.508C475.092 614.616 475.243 614.704 475.356 614.769L475.526 614.899L465.57 620.647C466.513 621.148 467.625 621.376 468.907 621.333C470.189 621.289 471.302 620.995 472.245 620.451C473.848 619.526 474.196 618.508 473.291 617.398Z" fill="#3E3E3E"/>
<path d="M471.078 603.49L475.235 605.89L478.036 604.274L481.373 606.201L478.573 607.817L484.4 611.181C484.984 611.518 485.531 611.682 486.04 611.671C486.549 611.66 487.087 611.491 487.652 611.165C488.161 610.871 488.51 610.626 488.699 610.43L491.81 612.226C491.489 612.672 490.895 613.146 490.028 613.647C488.67 614.43 487.219 614.833 485.672 614.855C484.107 614.866 482.655 614.485 481.317 613.712L474.839 609.973L472.322 611.426L468.985 609.499L469.692 609.091C470.389 608.688 470.719 608.269 470.682 607.834C470.644 607.376 470.295 606.957 469.635 606.576L467.684 605.45L471.078 603.49Z" fill="#3E3E3E"/>
<path d="M500.751 588.352L494.415 592.009L510.764 601.447L506.832 603.717L490.484 594.279L484.148 597.937L480.443 595.798L497.046 586.213L500.751 588.352Z" fill="#3E3E3E"/>
<path d="M515.235 589.428L523.409 594.147L519.647 596.319L499.169 584.497L502.931 582.325L510.653 586.783C510.483 585.705 511.228 584.688 512.887 583.73C514.584 582.75 516.385 582.309 518.289 582.407C520.194 582.483 521.957 582.989 523.579 583.926L532.347 588.987L528.585 591.159L520.467 586.473C519.638 585.994 518.751 585.733 517.809 585.689C516.885 585.635 515.989 585.858 515.122 586.358C514.348 586.805 513.981 587.311 514.018 587.877C514.075 588.432 514.48 588.949 515.235 589.428Z" fill="#3E3E3E"/>
<path d="M530.366 580.268L536.589 576.676C535.778 576.251 534.845 576.039 533.789 576.039C532.752 576.028 531.733 576.311 530.734 576.888C529.829 577.411 529.376 577.999 529.376 578.652C529.376 579.305 529.706 579.844 530.366 580.268ZM540.577 578.554L544.65 577.28C545.555 578.238 545.866 579.278 545.583 580.399C545.319 581.509 544.367 582.538 542.727 583.485C540.728 584.639 538.361 585.232 535.627 585.265C532.874 585.287 530.366 584.644 528.104 583.338C525.954 582.097 524.879 580.693 524.879 579.125C524.86 577.547 525.775 576.224 527.623 575.157C529.772 573.916 532.092 573.318 534.581 573.361C537.089 573.394 539.464 574.058 541.708 575.353C541.859 575.44 542.019 575.544 542.189 575.664C542.378 575.772 542.529 575.86 542.642 575.925L542.811 576.055L532.855 581.803C533.798 582.304 534.911 582.532 536.193 582.489C537.475 582.445 538.588 582.151 539.53 581.607C541.133 580.682 541.482 579.664 540.577 578.554Z" fill="#3E3E3E"/>
<path d="M555.56 575.586L551.798 577.758L537.882 569.724L541.644 567.553L555.56 575.586ZM532.876 567.357C532.235 566.987 531.914 566.54 531.914 566.018C531.896 565.484 532.207 565.033 532.848 564.662C533.489 564.292 534.262 564.107 535.167 564.107C536.072 564.107 536.855 564.298 537.515 564.679C538.137 565.038 538.448 565.479 538.448 566.001C538.448 566.524 538.128 566.97 537.486 567.34C536.845 567.71 536.072 567.896 535.167 567.896C534.262 567.896 533.498 567.716 532.876 567.357Z" fill="#3E3E3E"/>
<path d="M554.1 560.296L557.89 562.484C557.438 562.659 557.023 562.855 556.646 563.072C555.571 563.693 555.015 564.373 554.977 565.113C554.921 565.843 555.59 566.61 556.985 567.416L563.349 571.09L559.588 573.261L545.672 565.228L549.32 563.121L551.385 564.313C550.612 563.083 551.206 561.902 553.167 560.77C553.374 560.65 553.686 560.492 554.1 560.296Z" fill="#3E3E3E"/>
<path d="M584.78 558.718L580.905 560.955L568.63 553.868L564.218 556.415L561.587 554.897C562.888 554.124 563.661 553.296 563.906 552.415C564.133 551.522 563.85 550.738 563.058 550.063L566.424 548.12L584.78 558.718Z" fill="#3E3E3E"/>
<path d="M579.356 545.88C579.733 546.859 580.959 547.948 583.033 549.145C585.107 550.343 586.993 551.05 588.69 551.268C590.311 551.486 591.735 551.241 592.961 550.533C594.168 549.837 594.582 549.02 594.205 548.084C593.866 547.104 592.65 546.01 590.557 544.802C588.464 543.594 586.569 542.891 584.871 542.696C583.25 542.478 581.836 542.717 580.629 543.414C579.403 544.122 578.979 544.943 579.356 545.88ZM587.276 554.24C584.56 553.913 581.845 552.966 579.13 551.399C576.414 549.831 574.774 548.264 574.208 546.696C573.529 544.715 574.519 542.957 577.178 541.422C579.837 539.887 582.873 539.321 586.286 539.724C589.039 540.05 591.763 540.992 594.46 542.549C597.156 544.105 598.787 545.678 599.353 547.268C600.051 549.238 599.07 550.99 596.411 552.525C593.753 554.06 590.707 554.632 587.276 554.24Z" fill="#3E3E3E"/>
<path d="M605.124 546.973L603.087 540.083L591.208 538.94L595.677 536.36C596.11 536.414 597.27 536.55 599.156 536.768C601.041 536.964 602.182 537.089 602.578 537.143L601.192 533.176L605.463 530.71L607.415 537.454L619.549 538.646L615.136 541.193L607.952 540.409C608.009 540.551 608.141 540.943 608.348 541.585C608.574 542.216 608.782 542.815 608.97 543.381C609.159 543.925 609.291 544.306 609.366 544.524L605.124 546.973Z" fill="#3E3E3E"/>
<path d="M633.049 530.852L629.117 533.122L609.064 521.545L621.735 514.23L625.44 516.369L616.672 521.431L621.622 524.288L629.428 519.781L633.02 521.855L625.242 526.345L633.049 530.852Z" fill="#3E3E3E"/>
<path d="M639.084 522.992C637.896 522.306 637.33 521.533 637.387 520.673C637.443 519.814 637.99 518.975 639.027 518.159L641.94 515.889C642.544 515.432 642.563 515.04 641.997 514.714C641.469 514.409 640.828 514.278 640.074 514.322C639.338 514.354 638.593 514.588 637.839 515.024C637.047 515.481 636.632 515.971 636.595 516.493C636.576 517.005 636.859 517.462 637.443 517.865L633.398 519.384C632.324 518.611 631.852 517.653 631.984 516.51C632.116 515.367 633.05 514.294 634.784 513.293C636.859 512.096 638.886 511.502 640.865 511.513C642.827 511.513 644.58 511.959 646.126 512.852L652.971 516.804C653.801 517.283 654.593 517.674 655.347 517.979L651.896 519.971C651.387 519.786 650.784 519.492 650.086 519.09C650.576 520.396 649.898 521.582 648.05 522.649C646.617 523.477 645.042 523.907 643.326 523.939C641.629 523.961 640.215 523.645 639.084 522.992ZM646.042 520.576C646.928 520.064 647.409 519.503 647.484 518.894C647.559 518.262 647.022 517.615 645.872 516.951L645.25 516.591L642.591 518.681C641.61 519.443 641.62 520.113 642.619 520.69C643.072 520.951 643.618 521.082 644.26 521.082C644.882 521.071 645.476 520.902 646.042 520.576Z" fill="#3E3E3E"/>
<path d="M653.906 514.337L656.424 512.067C657.065 512.394 657.81 512.552 658.658 512.541C659.507 512.508 660.317 512.269 661.091 511.822C661.675 511.485 661.996 511.148 662.052 510.81C662.109 510.473 661.939 510.19 661.543 509.961C660.845 509.558 659.893 509.585 658.686 510.043L656.424 510.859C654.84 511.447 653.35 511.719 651.955 511.675C650.578 511.621 649.381 511.3 648.363 510.712C647.099 509.983 646.515 509.079 646.609 508.002C646.722 506.913 647.523 505.939 649.013 505.079C649.956 504.534 650.927 504.137 651.926 503.887C652.907 503.625 653.812 503.506 654.642 503.528C655.453 503.538 656.178 503.609 656.82 503.74C657.461 503.87 658.017 504.039 658.488 504.246L656.056 506.467C655.49 506.227 654.83 506.107 654.076 506.107C653.341 506.097 652.615 506.298 651.898 506.712C651.408 506.995 651.116 507.316 651.021 507.675C650.946 508.023 651.106 508.312 651.502 508.54C652.181 508.932 653.02 508.927 654.019 508.524L656.424 507.626C658.045 507.016 659.582 506.728 661.034 506.761C662.505 506.782 663.768 507.098 664.824 507.708C666.069 508.426 666.672 509.319 666.634 510.386C666.597 511.452 665.72 512.481 664.004 513.472C663.023 514.038 662.005 514.462 660.949 514.745C659.874 515.017 658.894 515.148 658.008 515.137C657.121 515.104 656.339 515.023 655.66 514.892C654.981 514.74 654.397 514.555 653.906 514.337Z" fill="#3E3E3E"/>
<path d="M658.571 495.25L662.729 497.65L665.529 496.034L668.867 497.961L666.067 499.577L671.893 502.941C672.478 503.278 673.025 503.441 673.534 503.431C674.043 503.42 674.58 503.251 675.146 502.924C675.655 502.63 676.004 502.386 676.193 502.19L679.304 503.986C678.983 504.432 678.389 504.906 677.522 505.406C676.164 506.19 674.712 506.593 673.166 506.615C671.601 506.626 670.149 506.245 668.81 505.472L662.333 501.732L659.816 503.186L656.478 501.259L657.186 500.851C657.883 500.448 658.213 500.029 658.175 499.593C658.138 499.136 657.789 498.717 657.129 498.336L655.177 497.209L658.571 495.25Z" fill="#3E3E3E"/>
<path d="M676.704 495.787L682.927 492.195C682.116 491.77 681.183 491.558 680.127 491.558C679.09 491.547 678.071 491.83 677.072 492.407C676.167 492.93 675.714 493.518 675.714 494.171C675.714 494.824 676.044 495.363 676.704 495.787ZM686.915 494.073L690.988 492.799C691.893 493.757 692.204 494.797 691.921 495.918C691.657 497.028 690.705 498.057 689.065 499.004C687.066 500.158 684.699 500.751 681.965 500.784C679.212 500.806 676.704 500.163 674.442 498.857C672.292 497.616 671.217 496.212 671.217 494.644C671.198 493.066 672.113 491.743 673.961 490.676C676.11 489.436 678.43 488.837 680.919 488.88C683.427 488.913 685.802 489.577 688.046 490.872C688.197 490.96 688.357 491.063 688.527 491.183C688.716 491.292 688.867 491.379 688.98 491.444L689.149 491.575L679.193 497.322C680.136 497.823 681.249 498.052 682.531 498.008C683.813 497.964 684.926 497.671 685.868 497.126C687.471 496.201 687.82 495.183 686.915 494.073Z" fill="#3E3E3E"/>
<path d="M692.649 480.312L696.439 482.5C695.987 482.674 695.572 482.87 695.195 483.088C694.12 483.709 693.564 484.389 693.526 485.129C693.469 485.858 694.139 486.626 695.534 487.431L701.898 491.105L698.136 493.277L684.22 485.243L687.869 483.137L689.934 484.329C689.161 483.099 689.755 481.918 691.716 480.786C691.923 480.666 692.234 480.508 692.649 480.312Z" fill="#3E3E3E"/>
<path d="M694.606 472.161L707.646 480.733L704.902 482.317L690.053 474.79L694.606 472.161ZM710.389 485.714C709.522 485.714 708.777 485.534 708.155 485.175C707.532 484.816 707.221 484.386 707.221 483.885C707.202 483.373 707.495 482.943 708.098 482.595C708.72 482.236 709.475 482.061 710.361 482.072C711.247 482.061 712.001 482.236 712.624 482.595C713.246 482.954 713.548 483.39 713.529 483.901C713.529 484.402 713.218 484.832 712.595 485.191C711.992 485.539 711.257 485.714 710.389 485.714Z" fill="#3E3E3E"/>
<path d="M552 501.649L558.222 498.056C557.411 497.632 556.478 497.419 555.422 497.419C554.385 497.409 553.367 497.692 552.367 498.269C551.462 498.791 551.01 499.379 551.01 500.032C551.01 500.685 551.34 501.224 552 501.649ZM562.21 499.934L566.283 498.66C567.188 499.618 567.499 500.658 567.216 501.779C566.952 502.89 566 503.918 564.36 504.865C562.361 506.019 559.995 506.612 557.26 506.645C554.507 506.667 552 506.025 549.737 504.718C547.587 503.477 546.512 502.073 546.512 500.506C546.493 498.927 547.408 497.605 549.256 496.538C551.406 495.297 553.725 494.698 556.214 494.742C558.722 494.774 561.098 495.438 563.341 496.734C563.492 496.821 563.653 496.924 563.822 497.044C564.011 497.153 564.162 497.24 564.275 497.305L564.445 497.436L554.489 503.183C555.431 503.684 556.544 503.913 557.826 503.869C559.108 503.826 560.221 503.532 561.164 502.988C562.766 502.062 563.115 501.044 562.21 499.934Z" fill="#3E3E3E"/>
<path d="M567.944 486.173L571.734 488.362C571.282 488.536 570.867 488.732 570.49 488.949C569.415 489.57 568.859 490.25 568.821 490.99C568.765 491.72 569.434 492.487 570.829 493.293L577.193 496.967L573.431 499.138L559.516 491.105L563.164 488.998L565.229 490.19C564.456 488.96 565.05 487.779 567.011 486.647C567.218 486.527 567.529 486.369 567.944 486.173Z" fill="#3E3E3E"/>
<path d="M578.626 486.277L584.849 482.685C584.038 482.26 583.105 482.048 582.049 482.048C581.012 482.037 579.994 482.32 578.994 482.897C578.089 483.419 577.637 484.007 577.637 484.66C577.637 485.313 577.967 485.852 578.626 486.277ZM588.837 484.562L592.91 483.289C593.815 484.247 594.126 485.286 593.843 486.407C593.579 487.518 592.627 488.546 590.987 489.494C588.988 490.647 586.622 491.241 583.887 491.273C581.134 491.295 578.626 490.653 576.364 489.347C574.214 488.106 573.139 486.701 573.139 485.134C573.12 483.555 574.035 482.233 575.883 481.166C578.033 479.925 580.352 479.326 582.841 479.37C585.349 479.403 587.725 480.067 589.968 481.362C590.119 481.449 590.28 481.552 590.449 481.672C590.638 481.781 590.789 481.868 590.902 481.933L591.072 482.064L581.116 487.812C582.058 488.312 583.171 488.541 584.453 488.497C585.735 488.454 586.848 488.16 587.791 487.616C589.393 486.69 589.742 485.673 588.837 484.562Z" fill="#3E3E3E"/>
<line x1="4.5" y1="-4.5" x2="358.833" y2="-4.5" transform="matrix(0.866044 -0.499967 0.866044 0.499967 480.837 660.362)" stroke="#C1C1C1" stroke-width="9" stroke-linecap="round"/>
<line x1="4.5" y1="-4.5" x2="238.811" y2="-4.5" transform="matrix(0.866044 -0.499967 0.866044 0.499967 502.05 672.608)" stroke="#C1C1C1" stroke-width="9" stroke-linecap="round"/>
<defs>
<linearGradient id="paint0_linear_1031_4518" x1="-28.985" y1="458.045" x2="414.771" y2="2.87362e-06" gradientUnits="userSpaceOnUse">
<stop stop-color="#732CD8"/>
<stop offset="1" stop-color="#E2756D"/>
</linearGradient>
<linearGradient id="paint1_linear_1031_4518" x1="-14.2884" y1="282.093" x2="395.992" y2="2.11197e-05" gradientUnits="userSpaceOnUse">
<stop stop-color="#722AD9"/>
<stop offset="0.88475" stop-color="#EB785D"/>
<stop offset="1" stop-color="#EB7F61"/>
</linearGradient>
</defs>
</svg>
