<svg id="ejV7Nzn2DXy1" xmlns="http://www.w3.org/2000/svg" xmlns:xlink="http://www.w3.org/1999/xlink" viewBox="0 0 830 348" shape-rendering="geometricPrecision" text-rendering="geometricPrecision">
<style><![CDATA[
#ejV7Nzn2DXy2 {animation: ejV7Nzn2DXy2_c_o 9500ms linear infinite normal forwards}@keyframes ejV7Nzn2DXy2_c_o { 0% {opacity: 0;animation-timing-function: cubic-bezier(0.975,0.015,0.02,0.99)} 3.157895% {opacity: 1} 94.736842% {opacity: 1} 100% {opacity: 0}} #ejV7Nzn2DXy5_to {animation: ejV7Nzn2DXy5_to__to 9500ms linear infinite normal forwards}@keyframes ejV7Nzn2DXy5_to__to { 0% {transform: translate(66px,402.5px)} 3.157895% {transform: translate(66px,402.5px);animation-timing-function: cubic-bezier(0.72,0.01,0.29,0.985)} 7.368421% {transform: translate(66px,104.5px)} 100% {transform: translate(66px,104.5px)}} #ejV7Nzn2DXy5_ts {animation: ejV7Nzn2DXy5_ts__ts 9500ms linear infinite normal forwards}@keyframes ejV7Nzn2DXy5_ts__ts { 0% {transform: scale(0,0)} 3.157895% {transform: scale(0,0);animation-timing-function: cubic-bezier(0.72,0.01,0.29,0.985)} 7.368421% {transform: scale(1,1)} 100% {transform: scale(1,1)}} #ejV7Nzn2DXy5 {animation: ejV7Nzn2DXy5_c_o 9500ms linear infinite normal forwards}@keyframes ejV7Nzn2DXy5_c_o { 0% {opacity: 0} 3.157895% {opacity: 0;animation-timing-function: cubic-bezier(0.72,0.01,0.29,0.985)} 7.368421% {opacity: 1} 94.736842% {opacity: 1} 100% {opacity: 0}} #ejV7Nzn2DXy15 {animation: ejV7Nzn2DXy15_c_o 9500ms linear infinite normal forwards}@keyframes ejV7Nzn2DXy15_c_o { 0% {opacity: 0} 12.631579% {opacity: 0} 16.842105% {opacity: 1} 94.736842% {opacity: 1} 100% {opacity: 0}} #ejV7Nzn2DXy25 {animation: ejV7Nzn2DXy25_c_o 9500ms linear infinite normal forwards}@keyframes ejV7Nzn2DXy25_c_o { 0% {opacity: 1} 94.736842% {opacity: 1} 100% {opacity: 0}} #ejV7Nzn2DXy26 {animation: ejV7Nzn2DXy26_c_o 9500ms linear infinite normal forwards}@keyframes ejV7Nzn2DXy26_c_o { 0% {opacity: 0} 20% {opacity: 0} 23.157895% {opacity: 1} 100% {opacity: 1}} #ejV7Nzn2DXy27 {animation: ejV7Nzn2DXy27_c_o 9500ms linear infinite normal forwards}@keyframes ejV7Nzn2DXy27_c_o { 0% {opacity: 0} 23.157895% {opacity: 0} 26.315789% {opacity: 1} 100% {opacity: 1}} #ejV7Nzn2DXy28 {animation: ejV7Nzn2DXy28_c_o 9500ms linear infinite normal forwards}@keyframes ejV7Nzn2DXy28_c_o { 0% {opacity: 1} 94.736842% {opacity: 1} 100% {opacity: 0}} #ejV7Nzn2DXy29 {animation: ejV7Nzn2DXy29_c_o 9500ms linear infinite normal forwards}@keyframes ejV7Nzn2DXy29_c_o { 0% {opacity: 0} 31.578947% {opacity: 0} 34.736842% {opacity: 1} 100% {opacity: 1}} #ejV7Nzn2DXy30 {animation: ejV7Nzn2DXy30_c_o 9500ms linear infinite normal forwards}@keyframes ejV7Nzn2DXy30_c_o { 0% {opacity: 0} 34.736842% {opacity: 0} 37.894737% {opacity: 1} 100% {opacity: 1}} #ejV7Nzn2DXy31 {animation: ejV7Nzn2DXy31_c_o 9500ms linear infinite normal forwards}@keyframes ejV7Nzn2DXy31_c_o { 0% {opacity: 1} 94.736842% {opacity: 1} 100% {opacity: 0}} #ejV7Nzn2DXy32 {animation: ejV7Nzn2DXy32_c_o 9500ms linear infinite normal forwards}@keyframes ejV7Nzn2DXy32_c_o { 0% {opacity: 0} 41.052632% {opacity: 0} 44.210526% {opacity: 1} 100% {opacity: 1}} #ejV7Nzn2DXy33 {animation: ejV7Nzn2DXy33_c_o 9500ms linear infinite normal forwards}@keyframes ejV7Nzn2DXy33_c_o { 0% {opacity: 0} 44.210526% {opacity: 0} 48.421053% {opacity: 1} 100% {opacity: 1}} #ejV7Nzn2DXy34_to {animation: ejV7Nzn2DXy34_to__to 9500ms linear infinite normal forwards}@keyframes ejV7Nzn2DXy34_to__to { 0% {transform: translate(449px,-105.5px)} 48.421053% {transform: translate(449px,-105.5px);animation-timing-function: cubic-bezier(0.72,0.01,0.29,0.985)} 52.631579% {transform: translate(449px,104.5px)} 100% {transform: translate(449px,104.5px)}} #ejV7Nzn2DXy34_ts {animation: ejV7Nzn2DXy34_ts__ts 9500ms linear infinite normal forwards}@keyframes ejV7Nzn2DXy34_ts__ts { 0% {transform: scale(0,0)} 48.421053% {transform: scale(0,0);animation-timing-function: cubic-bezier(0.72,0.01,0.29,0.985)} 52.631579% {transform: scale(1,1)} 100% {transform: scale(1,1)}} #ejV7Nzn2DXy34 {animation: ejV7Nzn2DXy34_c_o 9500ms linear infinite normal forwards}@keyframes ejV7Nzn2DXy34_c_o { 0% {opacity: 0} 48.421053% {opacity: 0;animation-timing-function: cubic-bezier(0.72,0.01,0.29,0.985)} 52.631579% {opacity: 1} 94.736842% {opacity: 1} 100% {opacity: 0}} #ejV7Nzn2DXy48 {animation: ejV7Nzn2DXy48_c_o 9500ms linear infinite normal forwards}@keyframes ejV7Nzn2DXy48_c_o { 0% {opacity: 0} 57.894737% {opacity: 0} 62.105263% {opacity: 1} 94.736842% {opacity: 1} 100% {opacity: 0}} #ejV7Nzn2DXy57_to {animation: ejV7Nzn2DXy57_to__to 9500ms linear infinite normal forwards}@keyframes ejV7Nzn2DXy57_to__to { 0% {transform: translate(449px,-21px)} 48.421053% {transform: translate(449px,-21px);animation-timing-function: cubic-bezier(0.72,0.01,0.29,0.985)} 52.631579% {transform: translate(449px,189px)} 100% {transform: translate(449px,189px)}} #ejV7Nzn2DXy57_ts {animation: ejV7Nzn2DXy57_ts__ts 9500ms linear infinite normal forwards}@keyframes ejV7Nzn2DXy57_ts__ts { 0% {transform: scale(0,0)} 48.421053% {transform: scale(0,0);animation-timing-function: cubic-bezier(0.72,0.01,0.29,0.985)} 52.631579% {transform: scale(1,1)} 100% {transform: scale(1,1)}} #ejV7Nzn2DXy57 {animation: ejV7Nzn2DXy57_c_o 9500ms linear infinite normal forwards}@keyframes ejV7Nzn2DXy57_c_o { 0% {opacity: 0} 48.421053% {opacity: 0;animation-timing-function: cubic-bezier(0.72,0.01,0.29,0.985)} 52.631579% {opacity: 1} 94.736842% {opacity: 1} 100% {opacity: 0}} #ejV7Nzn2DXy60 {animation: ejV7Nzn2DXy60_c_o 9500ms linear infinite normal forwards}@keyframes ejV7Nzn2DXy60_c_o { 0% {opacity: 0} 57.894737% {opacity: 0} 62.105263% {opacity: 1} 94.736842% {opacity: 1} 100% {opacity: 0}} #ejV7Nzn2DXy70 {animation: ejV7Nzn2DXy70_c_o 9500ms linear infinite normal forwards}@keyframes ejV7Nzn2DXy70_c_o { 0% {opacity: 0} 68.421053% {opacity: 0} 73.684211% {opacity: 1} 94.736842% {opacity: 1} 100% {opacity: 0}} #ejV7Nzn2DXy72 {animation: ejV7Nzn2DXy72_c_o 9500ms linear infinite normal forwards}@keyframes ejV7Nzn2DXy72_c_o { 0% {opacity: 1} 94.736842% {opacity: 1} 100% {opacity: 0}} #ejV7Nzn2DXy73 {animation: ejV7Nzn2DXy73_c_o 9500ms linear infinite normal forwards}@keyframes ejV7Nzn2DXy73_c_o { 0% {opacity: 0} 49.473684% {opacity: 0} 53.684211% {opacity: 1} 100% {opacity: 1}}
]]></style>
<defs><linearGradient id="ejV7Nzn2DXy3-fill" x1="107.274" y1="190.047" x2="56.3088" y2="260.608" spreadMethod="pad" gradientUnits="userSpaceOnUse" gradientTransform="translate(0 0)"><stop id="ejV7Nzn2DXy3-fill-0" offset="0%" stop-color="#003e06"/><stop id="ejV7Nzn2DXy3-fill-1" offset="100%" stop-color="#00cb14"/></linearGradient><linearGradient id="ejV7Nzn2DXy4-fill" x1="107.274" y1="190.047" x2="56.3088" y2="260.608" spreadMethod="pad" gradientUnits="userSpaceOnUse" gradientTransform="translate(0 0)"><stop id="ejV7Nzn2DXy4-fill-0" offset="0%" stop-color="#003e06"/><stop id="ejV7Nzn2DXy4-fill-1" offset="100%" stop-color="#00cb14"/></linearGradient><linearGradient id="ejV7Nzn2DXy6-fill" x1="123.251" y1="95.6309" x2="83.7534" y2="176.775" spreadMethod="pad" gradientUnits="userSpaceOnUse" gradientTransform="translate(0 0)"><stop id="ejV7Nzn2DXy6-fill-0" offset="0%" stop-color="#003e06"/><stop id="ejV7Nzn2DXy6-fill-1" offset="100%" stop-color="#00cb14"/></linearGradient><linearGradient id="ejV7Nzn2DXy7-fill" x1="123.251" y1="95.6309" x2="83.7534" y2="176.775" spreadMethod="pad" gradientUnits="userSpaceOnUse" gradientTransform="translate(0 0)"><stop id="ejV7Nzn2DXy7-fill-0" offset="0%" stop-color="#003e06"/><stop id="ejV7Nzn2DXy7-fill-1" offset="100%" stop-color="#00cb14"/></linearGradient><linearGradient id="ejV7Nzn2DXy8-fill" x1="123.251" y1="95.6309" x2="83.7534" y2="176.775" spreadMethod="pad" gradientUnits="userSpaceOnUse" gradientTransform="translate(0 0)"><stop id="ejV7Nzn2DXy8-fill-0" offset="0%" stop-color="#003e06"/><stop id="ejV7Nzn2DXy8-fill-1" offset="100%" stop-color="#00cb14"/></linearGradient><linearGradient id="ejV7Nzn2DXy9-fill" x1="123.251" y1="95.6309" x2="83.7534" y2="176.775" spreadMethod="pad" gradientUnits="userSpaceOnUse" gradientTransform="translate(0 0)"><stop id="ejV7Nzn2DXy9-fill-0" offset="0%" stop-color="#003e06"/><stop id="ejV7Nzn2DXy9-fill-1" offset="100%" stop-color="#00cb14"/></linearGradient><linearGradient id="ejV7Nzn2DXy10-fill" x1="123.251" y1="95.6309" x2="83.7534" y2="176.775" spreadMethod="pad" gradientUnits="userSpaceOnUse" gradientTransform="translate(0 0)"><stop id="ejV7Nzn2DXy10-fill-0" offset="0%" stop-color="#003e06"/><stop id="ejV7Nzn2DXy10-fill-1" offset="100%" stop-color="#00cb14"/></linearGradient><linearGradient id="ejV7Nzn2DXy11-fill" x1="123.251" y1="95.6309" x2="83.7534" y2="176.775" spreadMethod="pad" gradientUnits="userSpaceOnUse" gradientTransform="translate(0 0)"><stop id="ejV7Nzn2DXy11-fill-0" offset="0%" stop-color="#003e06"/><stop id="ejV7Nzn2DXy11-fill-1" offset="100%" stop-color="#00cb14"/></linearGradient><linearGradient id="ejV7Nzn2DXy12-fill" x1="123.251" y1="95.6309" x2="83.7534" y2="176.775" spreadMethod="pad" gradientUnits="userSpaceOnUse" gradientTransform="translate(0 0)"><stop id="ejV7Nzn2DXy12-fill-0" offset="0%" stop-color="#003e06"/><stop id="ejV7Nzn2DXy12-fill-1" offset="100%" stop-color="#00cb14"/></linearGradient><linearGradient id="ejV7Nzn2DXy13-fill" x1="123.251" y1="95.6309" x2="83.7534" y2="176.775" spreadMethod="pad" gradientUnits="userSpaceOnUse" gradientTransform="translate(0 0)"><stop id="ejV7Nzn2DXy13-fill-0" offset="0%" stop-color="#003e06"/><stop id="ejV7Nzn2DXy13-fill-1" offset="100%" stop-color="#00cb14"/></linearGradient><linearGradient id="ejV7Nzn2DXy14-stroke" x1="130.095" y1="85" x2="5.60927" y2="182.093" spreadMethod="pad" gradientUnits="userSpaceOnUse" gradientTransform="translate(0 0)"><stop id="ejV7Nzn2DXy14-stroke-0" offset="0%" stop-color="#015809"/><stop id="ejV7Nzn2DXy14-stroke-1" offset="100%" stop-color="#01c414"/></linearGradient><linearGradient id="ejV7Nzn2DXy16-fill" x1="187.919" y1="44.5607" x2="301.861" y2="20.5186" spreadMethod="pad" gradientUnits="userSpaceOnUse" gradientTransform="translate(0 0)"><stop id="ejV7Nzn2DXy16-fill-0" offset="0%" stop-color="#c85400"/><stop id="ejV7Nzn2DXy16-fill-1" offset="100%" stop-color="#c00000"/></linearGradient><linearGradient id="ejV7Nzn2DXy17-fill" x1="187.919" y1="44.5607" x2="301.861" y2="20.5186" spreadMethod="pad" gradientUnits="userSpaceOnUse" gradientTransform="translate(0 0)"><stop id="ejV7Nzn2DXy17-fill-0" offset="0%" stop-color="#c85400"/><stop id="ejV7Nzn2DXy17-fill-1" offset="100%" stop-color="#c00000"/></linearGradient><linearGradient id="ejV7Nzn2DXy18-fill" x1="187.919" y1="44.5607" x2="301.861" y2="20.5186" spreadMethod="pad" gradientUnits="userSpaceOnUse" gradientTransform="translate(0 0)"><stop id="ejV7Nzn2DXy18-fill-0" offset="0%" stop-color="#c85400"/><stop id="ejV7Nzn2DXy18-fill-1" offset="100%" stop-color="#c00000"/></linearGradient><linearGradient id="ejV7Nzn2DXy19-fill" x1="187.919" y1="44.5607" x2="301.861" y2="20.5186" spreadMethod="pad" gradientUnits="userSpaceOnUse" gradientTransform="translate(0 0)"><stop id="ejV7Nzn2DXy19-fill-0" offset="0%" stop-color="#c85400"/><stop id="ejV7Nzn2DXy19-fill-1" offset="100%" stop-color="#c00000"/></linearGradient><linearGradient id="ejV7Nzn2DXy20-fill" x1="187.919" y1="44.5607" x2="301.861" y2="20.5186" spreadMethod="pad" gradientUnits="userSpaceOnUse" gradientTransform="translate(0 0)"><stop id="ejV7Nzn2DXy20-fill-0" offset="0%" stop-color="#c85400"/><stop id="ejV7Nzn2DXy20-fill-1" offset="100%" stop-color="#c00000"/></linearGradient><linearGradient id="ejV7Nzn2DXy21-fill" x1="187.919" y1="44.5607" x2="301.861" y2="20.5186" spreadMethod="pad" gradientUnits="userSpaceOnUse" gradientTransform="translate(0 0)"><stop id="ejV7Nzn2DXy21-fill-0" offset="0%" stop-color="#c85400"/><stop id="ejV7Nzn2DXy21-fill-1" offset="100%" stop-color="#c00000"/></linearGradient><linearGradient id="ejV7Nzn2DXy22-fill" x1="187.919" y1="44.5607" x2="301.861" y2="20.5186" spreadMethod="pad" gradientUnits="userSpaceOnUse" gradientTransform="translate(0 0)"><stop id="ejV7Nzn2DXy22-fill-0" offset="0%" stop-color="#c85400"/><stop id="ejV7Nzn2DXy22-fill-1" offset="100%" stop-color="#c00000"/></linearGradient><linearGradient id="ejV7Nzn2DXy23-fill" x1="187.919" y1="44.5607" x2="301.861" y2="20.5186" spreadMethod="pad" gradientUnits="userSpaceOnUse" gradientTransform="translate(0 0)"><stop id="ejV7Nzn2DXy23-fill-0" offset="0%" stop-color="#c85400"/><stop id="ejV7Nzn2DXy23-fill-1" offset="100%" stop-color="#c00000"/></linearGradient><linearGradient id="ejV7Nzn2DXy24-fill" x1="187.919" y1="44.5607" x2="301.861" y2="20.5186" spreadMethod="pad" gradientUnits="userSpaceOnUse" gradientTransform="translate(0 0)"><stop id="ejV7Nzn2DXy24-fill-0" offset="0%" stop-color="#c85400"/><stop id="ejV7Nzn2DXy24-fill-1" offset="100%" stop-color="#c00000"/></linearGradient><linearGradient id="ejV7Nzn2DXy26-fill" x1="237.075" y1="128.617" x2="247.789" y2="128.101" spreadMethod="pad" gradientUnits="userSpaceOnUse" gradientTransform="translate(0 0)"><stop id="ejV7Nzn2DXy26-fill-0" offset="0%" stop-color="#c85400"/><stop id="ejV7Nzn2DXy26-fill-1" offset="100%" stop-color="#c00000"/></linearGradient><linearGradient id="ejV7Nzn2DXy27-stroke" x1="-32.722" y1="16.523" x2="69.02" y2="-33.9314" spreadMethod="pad" gradientUnits="userSpaceOnUse" gradientTransform="translate(0 0)"><stop id="ejV7Nzn2DXy27-stroke-0" offset="0%" stop-color="#c63b01"/><stop id="ejV7Nzn2DXy27-stroke-1" offset="100%" stop-color="#c10101"/></linearGradient><linearGradient id="ejV7Nzn2DXy29-fill" x1="237.075" y1="213.581" x2="247.786" y2="213.033" spreadMethod="pad" gradientUnits="userSpaceOnUse" gradientTransform="translate(0 0)"><stop id="ejV7Nzn2DXy29-fill-0" offset="0%" stop-color="#c85400"/><stop id="ejV7Nzn2DXy29-fill-1" offset="100%" stop-color="#c00000"/></linearGradient><linearGradient id="ejV7Nzn2DXy30-stroke" x1="202.266" y1="220.678" x2="323.549" y2="157.758" spreadMethod="pad" gradientUnits="userSpaceOnUse" gradientTransform="translate(0 0)"><stop id="ejV7Nzn2DXy30-stroke-0" offset="0%" stop-color="#c63b01"/><stop id="ejV7Nzn2DXy30-stroke-1" offset="100%" stop-color="#c10101"/></linearGradient><linearGradient id="ejV7Nzn2DXy32-fill" x1="276" y1="257.5" x2="228.224" y2="284.131" spreadMethod="pad" gradientUnits="userSpaceOnUse" gradientTransform="translate(0 0)"><stop id="ejV7Nzn2DXy32-fill-0" offset="0%" stop-color="#003e06"/><stop id="ejV7Nzn2DXy32-fill-1" offset="100%" stop-color="#00cb14"/></linearGradient><linearGradient id="ejV7Nzn2DXy33-stroke" x1="393.132" y1="197" x2="245.448" y2="336.781" spreadMethod="pad" gradientUnits="userSpaceOnUse" gradientTransform="translate(0 0)"><stop id="ejV7Nzn2DXy33-stroke-0" offset="0%" stop-color="#015809"/><stop id="ejV7Nzn2DXy33-stroke-1" offset="100%" stop-color="#01c414"/></linearGradient><linearGradient id="ejV7Nzn2DXy35-fill" x1="506.416" y1="95.6309" x2="467.201" y2="177.132" spreadMethod="pad" gradientUnits="userSpaceOnUse" gradientTransform="translate(0 0)"><stop id="ejV7Nzn2DXy35-fill-0" offset="0%" stop-color="#003e06"/><stop id="ejV7Nzn2DXy35-fill-1" offset="100%" stop-color="#00cb14"/></linearGradient><linearGradient id="ejV7Nzn2DXy36-fill" x1="506.416" y1="95.6309" x2="467.201" y2="177.132" spreadMethod="pad" gradientUnits="userSpaceOnUse" gradientTransform="translate(0 0)"><stop id="ejV7Nzn2DXy36-fill-0" offset="0%" stop-color="#003e06"/><stop id="ejV7Nzn2DXy36-fill-1" offset="100%" stop-color="#00cb14"/></linearGradient><linearGradient id="ejV7Nzn2DXy37-fill" x1="506.416" y1="95.6309" x2="467.201" y2="177.132" spreadMethod="pad" gradientUnits="userSpaceOnUse" gradientTransform="translate(0 0)"><stop id="ejV7Nzn2DXy37-fill-0" offset="0%" stop-color="#003e06"/><stop id="ejV7Nzn2DXy37-fill-1" offset="100%" stop-color="#00cb14"/></linearGradient><linearGradient id="ejV7Nzn2DXy38-fill" x1="506.416" y1="95.6309" x2="467.201" y2="177.132" spreadMethod="pad" gradientUnits="userSpaceOnUse" gradientTransform="translate(0 0)"><stop id="ejV7Nzn2DXy38-fill-0" offset="0%" stop-color="#003e06"/><stop id="ejV7Nzn2DXy38-fill-1" offset="100%" stop-color="#00cb14"/></linearGradient><linearGradient id="ejV7Nzn2DXy39-fill" x1="506.416" y1="95.6309" x2="467.201" y2="177.132" spreadMethod="pad" gradientUnits="userSpaceOnUse" gradientTransform="translate(0 0)"><stop id="ejV7Nzn2DXy39-fill-0" offset="0%" stop-color="#003e06"/><stop id="ejV7Nzn2DXy39-fill-1" offset="100%" stop-color="#00cb14"/></linearGradient><linearGradient id="ejV7Nzn2DXy40-fill" x1="506.416" y1="95.6309" x2="467.201" y2="177.132" spreadMethod="pad" gradientUnits="userSpaceOnUse" gradientTransform="translate(0 0)"><stop id="ejV7Nzn2DXy40-fill-0" offset="0%" stop-color="#003e06"/><stop id="ejV7Nzn2DXy40-fill-1" offset="100%" stop-color="#00cb14"/></linearGradient><linearGradient id="ejV7Nzn2DXy41-fill" x1="506.416" y1="95.6309" x2="467.201" y2="177.132" spreadMethod="pad" gradientUnits="userSpaceOnUse" gradientTransform="translate(0 0)"><stop id="ejV7Nzn2DXy41-fill-0" offset="0%" stop-color="#003e06"/><stop id="ejV7Nzn2DXy41-fill-1" offset="100%" stop-color="#00cb14"/></linearGradient><linearGradient id="ejV7Nzn2DXy42-fill" x1="506.416" y1="95.6309" x2="467.201" y2="177.132" spreadMethod="pad" gradientUnits="userSpaceOnUse" gradientTransform="translate(0 0)"><stop id="ejV7Nzn2DXy42-fill-0" offset="0%" stop-color="#003e06"/><stop id="ejV7Nzn2DXy42-fill-1" offset="100%" stop-color="#00cb14"/></linearGradient><linearGradient id="ejV7Nzn2DXy43-fill" x1="506.416" y1="95.6309" x2="467.201" y2="177.132" spreadMethod="pad" gradientUnits="userSpaceOnUse" gradientTransform="translate(0 0)"><stop id="ejV7Nzn2DXy43-fill-0" offset="0%" stop-color="#003e06"/><stop id="ejV7Nzn2DXy43-fill-1" offset="100%" stop-color="#00cb14"/></linearGradient><linearGradient id="ejV7Nzn2DXy44-fill" x1="506.416" y1="95.6309" x2="467.201" y2="177.132" spreadMethod="pad" gradientUnits="userSpaceOnUse" gradientTransform="translate(0 0)"><stop id="ejV7Nzn2DXy44-fill-0" offset="0%" stop-color="#003e06"/><stop id="ejV7Nzn2DXy44-fill-1" offset="100%" stop-color="#00cb14"/></linearGradient><linearGradient id="ejV7Nzn2DXy45-fill" x1="506.416" y1="95.6309" x2="467.201" y2="177.132" spreadMethod="pad" gradientUnits="userSpaceOnUse" gradientTransform="translate(0 0)"><stop id="ejV7Nzn2DXy45-fill-0" offset="0%" stop-color="#003e06"/><stop id="ejV7Nzn2DXy45-fill-1" offset="100%" stop-color="#00cb14"/></linearGradient><linearGradient id="ejV7Nzn2DXy46-fill" x1="506.416" y1="95.6309" x2="467.201" y2="177.132" spreadMethod="pad" gradientUnits="userSpaceOnUse" gradientTransform="translate(0 0)"><stop id="ejV7Nzn2DXy46-fill-0" offset="0%" stop-color="#003e06"/><stop id="ejV7Nzn2DXy46-fill-1" offset="100%" stop-color="#00cb14"/></linearGradient><linearGradient id="ejV7Nzn2DXy47-stroke" x1="513.095" y1="85" x2="388.609" y2="182.093" spreadMethod="pad" gradientUnits="userSpaceOnUse" gradientTransform="translate(0 0)"><stop id="ejV7Nzn2DXy47-stroke-0" offset="0%" stop-color="#015809"/><stop id="ejV7Nzn2DXy47-stroke-1" offset="100%" stop-color="#01c414"/></linearGradient><linearGradient id="ejV7Nzn2DXy49-fill" x1="644.62" y1="184.373" x2="606.441" y2="223.591" spreadMethod="pad" gradientUnits="userSpaceOnUse" gradientTransform="translate(0 0)"><stop id="ejV7Nzn2DXy49-fill-0" offset="0%" stop-color="#003e06"/><stop id="ejV7Nzn2DXy49-fill-1" offset="100%" stop-color="#00cb14"/></linearGradient><linearGradient id="ejV7Nzn2DXy50-fill" x1="644.62" y1="184.373" x2="606.441" y2="223.591" spreadMethod="pad" gradientUnits="userSpaceOnUse" gradientTransform="translate(0 0)"><stop id="ejV7Nzn2DXy50-fill-0" offset="0%" stop-color="#003e06"/><stop id="ejV7Nzn2DXy50-fill-1" offset="100%" stop-color="#00cb14"/></linearGradient><linearGradient id="ejV7Nzn2DXy51-fill" x1="644.62" y1="184.373" x2="606.441" y2="223.591" spreadMethod="pad" gradientUnits="userSpaceOnUse" gradientTransform="translate(0 0)"><stop id="ejV7Nzn2DXy51-fill-0" offset="0%" stop-color="#003e06"/><stop id="ejV7Nzn2DXy51-fill-1" offset="100%" stop-color="#00cb14"/></linearGradient><linearGradient id="ejV7Nzn2DXy52-fill" x1="644.62" y1="184.373" x2="606.441" y2="223.591" spreadMethod="pad" gradientUnits="userSpaceOnUse" gradientTransform="translate(0 0)"><stop id="ejV7Nzn2DXy52-fill-0" offset="0%" stop-color="#003e06"/><stop id="ejV7Nzn2DXy52-fill-1" offset="100%" stop-color="#00cb14"/></linearGradient><linearGradient id="ejV7Nzn2DXy53-fill" x1="644.62" y1="184.373" x2="606.441" y2="223.591" spreadMethod="pad" gradientUnits="userSpaceOnUse" gradientTransform="translate(0 0)"><stop id="ejV7Nzn2DXy53-fill-0" offset="0%" stop-color="#003e06"/><stop id="ejV7Nzn2DXy53-fill-1" offset="100%" stop-color="#00cb14"/></linearGradient><linearGradient id="ejV7Nzn2DXy54-fill" x1="644.62" y1="184.373" x2="606.441" y2="223.591" spreadMethod="pad" gradientUnits="userSpaceOnUse" gradientTransform="translate(0 0)"><stop id="ejV7Nzn2DXy54-fill-0" offset="0%" stop-color="#003e06"/><stop id="ejV7Nzn2DXy54-fill-1" offset="100%" stop-color="#00cb14"/></linearGradient><linearGradient id="ejV7Nzn2DXy55-fill" x1="644.62" y1="184.373" x2="606.441" y2="223.591" spreadMethod="pad" gradientUnits="userSpaceOnUse" gradientTransform="translate(0 0)"><stop id="ejV7Nzn2DXy55-fill-0" offset="0%" stop-color="#003e06"/><stop id="ejV7Nzn2DXy55-fill-1" offset="100%" stop-color="#00cb14"/></linearGradient><linearGradient id="ejV7Nzn2DXy56-fill" x1="783.751" y1="168.003" x2="754.176" y2="292.885" spreadMethod="pad" gradientUnits="userSpaceOnUse" gradientTransform="translate(0 0)"><stop id="ejV7Nzn2DXy56-fill-0" offset="0%" stop-color="#003e06"/><stop id="ejV7Nzn2DXy56-fill-1" offset="100%" stop-color="#00cb14"/></linearGradient><linearGradient id="ejV7Nzn2DXy58-fill" x1="490.274" y1="190.047" x2="439.309" y2="260.608" spreadMethod="pad" gradientUnits="userSpaceOnUse" gradientTransform="translate(0 0)"><stop id="ejV7Nzn2DXy58-fill-0" offset="0%" stop-color="#003e06"/><stop id="ejV7Nzn2DXy58-fill-1" offset="100%" stop-color="#00cb14"/></linearGradient><linearGradient id="ejV7Nzn2DXy59-fill" x1="490.274" y1="190.047" x2="439.309" y2="260.608" spreadMethod="pad" gradientUnits="userSpaceOnUse" gradientTransform="translate(0 0)"><stop id="ejV7Nzn2DXy59-fill-0" offset="0%" stop-color="#003e06"/><stop id="ejV7Nzn2DXy59-fill-1" offset="100%" stop-color="#00cb14"/></linearGradient><linearGradient id="ejV7Nzn2DXy61-fill" x1="678.919" y1="95.6309" x2="638.851" y2="176.033" spreadMethod="pad" gradientUnits="userSpaceOnUse" gradientTransform="translate(0 0)"><stop id="ejV7Nzn2DXy61-fill-0" offset="0%" stop-color="#003e06"/><stop id="ejV7Nzn2DXy61-fill-1" offset="100%" stop-color="#00cb14"/></linearGradient><linearGradient id="ejV7Nzn2DXy62-fill" x1="678.919" y1="95.6309" x2="638.851" y2="176.033" spreadMethod="pad" gradientUnits="userSpaceOnUse" gradientTransform="translate(0 0)"><stop id="ejV7Nzn2DXy62-fill-0" offset="0%" stop-color="#003e06"/><stop id="ejV7Nzn2DXy62-fill-1" offset="100%" stop-color="#00cb14"/></linearGradient><linearGradient id="ejV7Nzn2DXy63-fill" x1="678.919" y1="95.6309" x2="638.851" y2="176.033" spreadMethod="pad" gradientUnits="userSpaceOnUse" gradientTransform="translate(0 0)"><stop id="ejV7Nzn2DXy63-fill-0" offset="0%" stop-color="#003e06"/><stop id="ejV7Nzn2DXy63-fill-1" offset="100%" stop-color="#00cb14"/></linearGradient><linearGradient id="ejV7Nzn2DXy64-fill" x1="678.919" y1="95.6309" x2="638.851" y2="176.033" spreadMethod="pad" gradientUnits="userSpaceOnUse" gradientTransform="translate(0 0)"><stop id="ejV7Nzn2DXy64-fill-0" offset="0%" stop-color="#003e06"/><stop id="ejV7Nzn2DXy64-fill-1" offset="100%" stop-color="#00cb14"/></linearGradient><linearGradient id="ejV7Nzn2DXy65-fill" x1="678.919" y1="95.6309" x2="638.851" y2="176.033" spreadMethod="pad" gradientUnits="userSpaceOnUse" gradientTransform="translate(0 0)"><stop id="ejV7Nzn2DXy65-fill-0" offset="0%" stop-color="#003e06"/><stop id="ejV7Nzn2DXy65-fill-1" offset="100%" stop-color="#00cb14"/></linearGradient><linearGradient id="ejV7Nzn2DXy66-fill" x1="678.919" y1="95.6309" x2="638.851" y2="176.033" spreadMethod="pad" gradientUnits="userSpaceOnUse" gradientTransform="translate(0 0)"><stop id="ejV7Nzn2DXy66-fill-0" offset="0%" stop-color="#003e06"/><stop id="ejV7Nzn2DXy66-fill-1" offset="100%" stop-color="#00cb14"/></linearGradient><linearGradient id="ejV7Nzn2DXy67-fill" x1="678.919" y1="95.6309" x2="638.851" y2="176.033" spreadMethod="pad" gradientUnits="userSpaceOnUse" gradientTransform="translate(0 0)"><stop id="ejV7Nzn2DXy67-fill-0" offset="0%" stop-color="#003e06"/><stop id="ejV7Nzn2DXy67-fill-1" offset="100%" stop-color="#00cb14"/></linearGradient><linearGradient id="ejV7Nzn2DXy68-fill" x1="678.919" y1="95.6309" x2="638.851" y2="176.033" spreadMethod="pad" gradientUnits="userSpaceOnUse" gradientTransform="translate(0 0)"><stop id="ejV7Nzn2DXy68-fill-0" offset="0%" stop-color="#003e06"/><stop id="ejV7Nzn2DXy68-fill-1" offset="100%" stop-color="#00cb14"/></linearGradient><linearGradient id="ejV7Nzn2DXy69-fill" x1="678.919" y1="95.6309" x2="638.851" y2="176.033" spreadMethod="pad" gradientUnits="userSpaceOnUse" gradientTransform="translate(0 0)"><stop id="ejV7Nzn2DXy69-fill-0" offset="0%" stop-color="#003e06"/><stop id="ejV7Nzn2DXy69-fill-1" offset="100%" stop-color="#00cb14"/></linearGradient><linearGradient id="ejV7Nzn2DXy71-fill" x1="841.518" y1="167.22" x2="778.998" y2="248.3" spreadMethod="pad" gradientUnits="userSpaceOnUse" gradientTransform="translate(0 0)"><stop id="ejV7Nzn2DXy71-fill-0" offset="0%" stop-color="#003e06"/><stop id="ejV7Nzn2DXy71-fill-1" offset="100%" stop-color="#00cb14"/></linearGradient><linearGradient id="ejV7Nzn2DXy73-fill" x1="117.908" y1="200.66" x2="288.969" y2="200.66" spreadMethod="pad" gradientUnits="userSpaceOnUse" gradientTransform="translate(0 0)"><stop id="ejV7Nzn2DXy73-fill-0" offset="0%" stop-color="#da1f0b"/><stop id="ejV7Nzn2DXy73-fill-1" offset="100%" stop-color="#ff8c5b"/></linearGradient></defs><g id="ejV7Nzn2DXy2" opacity="0"><path d="M81.3055,234.871l-8.0408-3.995c-.7584-.377-1.2297-1.135-1.2297-1.978v-2.827c.1927-.235.3956-.501.6051-.796c1.0429-1.463,1.8787-3.093,2.4864-4.85c1.1877-.541,1.9587-1.708,1.9587-3.025v-3.345c0-.806-.303-1.586-.8417-2.196v-4.449c.0471-.46.2323-3.198-1.7609-5.457C72.7538,199.994,69.9484,199,66.143,199c-3.8053,0-6.6107.994-8.3396,2.952-1.2078,1.369-1.6144,2.912-1.7372,4.019-1.4427-.741-3.143-1.116-5.0738-1.116-8.7445,0-9.2537,7.406-9.2588,7.527v3.83c-.5454.59-.8417,1.272-.8417,1.948v2.889c0,.902.4066,1.744,1.1035,2.313.6944,2.601,2.4022,4.566,3.0672,5.256v2.294c0,.659-.3603,1.262-.9857,1.602l-5.5998,3.49C36.3324,237.167,35,239.397,35,241.824v3.176h50.5022v-3.381c0-2.876-1.6085-5.462-4.1967-6.748Zm-34.5216,6.584v1.872h-10.1005v-1.503c0-1.815.9966-3.482,2.6438-4.376l5.599-3.491c1.122-.608,1.8189-1.773,1.8189-3.045v-3.003l-.2676-.248c-.0219-.021-2.2583-2.12-2.9191-4.981l-.0766-.331-.2878-.184c-.3872-.249-.6187-.667-.6187-1.116v-2.889c0-.301.2062-.659.5648-.982l.2769-.248-.0016-4.5c.0151-.24.4536-5.903,7.577-5.903c2.0142,0,3.7102.463,5.0502,1.375v3.957c-.5387.61-.8417,1.39-.8417,2.196v3.345c0,.254.0294.504.085.747.014.06.0366.116.0591.173.0141.035.0282.07.0402.106.0116.035.0227.071.0337.106.0329.106.0659.213.1145.312.0008.002.0016.003.0025.005.2155.441.5294.836.925,1.151.0023.009.0049.017.0075.026.0011.003.0022.007.0033.01.0009.003.0018.006.0027.009.0505.192.1035.383.1607.569l.0682.218c.0073.024.0155.048.0237.072.0051.015.0102.03.015.045l.0199.061c.0226.069.0451.139.0685.207.0505.147.1036.298.165.463.0147.038.0302.075.0457.111.0121.029.0242.057.0359.087.0691.175.1381.344.2105.511.0084.019.0163.039.0242.059.0086.022.0171.043.0263.064l.0471.105c.0117.026.0236.051.0355.075.0104.021.0208.043.031.065.0825.179.1633.352.2475.519.0041.008.0081.017.0121.025.0026.006.0051.011.0076.017.0066.014.0131.028.0198.041.0413.081.0825.159.1237.237l.0354.067c.0909.172.1801.334.2693.491.0438.077.0867.153.1297.225.1212.206.2365.395.3484.571.0116.018.0229.036.0342.054.0125.02.025.04.0374.059.2037.313.3804.568.5269.766.0387.053.0724.098.1052.142.0185.024.0438.059.0598.081v2.768c0,.809-.4445,1.552-1.1591,1.94l-2.2271,1.207-.388-.034-.1583.33-4.7354,2.567c-2.4409,1.325-3.9568,3.862-3.9568,6.625Zm1.6834,0v1.872h35.3515v-1.708c0-2.239-1.2516-4.252-3.2666-5.253l-8.0408-3.994c-1.3325-.663-2.1598-1.993-2.1598-3.474v-3.45l.2095-.237c.2113-.239.4546-.551.7045-.903c1.0202-1.43,1.8223-3.037,2.3854-4.778l.1347-.414.4192-.128c.7154-.219,1.1969-.858,1.1969-1.588v-3.345c0-.47-.2004-.907-.564-1.233l-.2777-.249.0075-5.319.0003-.002c.0089-.086.2487-2.4-1.3663-4.214-1.3964-1.57-3.7717-2.365-7.0586-2.365-3.2986,0-5.6789.801-7.0736,2.383-1.3586,1.539-1.3947,3.39-1.3661,3.994l.0227.018v5.505l-.2778.248c-.3636.327-.5639.764-.5639,1.234v3.345c0,.565.2912,1.09.7794,1.403l.287.184.0766.331c.064.277.1397.548.2189.812.005.017.0109.034.016.051l.0463.149c.0774.245.1582.482.244.71.0417.111.0813.21.1201.308.0052.012.0103.025.0155.038.0056.014.0112.028.0168.042.0112.028.0224.056.0337.084.0471.112.0934.222.1397.327.0071.016.0145.032.0219.048s.0147.032.0219.049c.1043.233.2112.457.3181.67c0,.001.0009.002.0009.002.2011.397.4031.756.5934,1.073.0067.012.0134.023.0202.034.0892.148.1767.287.2592.415.0021.003.004.006.0059.009.0019.004.0038.007.0059.01.1751.271.3325.496.4579.669.0004.001.0008.001.0012.002.0005,0,.0009.001.0013.002.0598.083.112.152.1566.21.0059.007.0109.013.016.02.0666.086.113.144.1308.166.0049.006.0077.009.008.01l.032.037.1633.194v3.362c0,1.421-.7802,2.728-2.0369,3.409l-7.5088,4.07c-1.8998,1.029-3.0798,3.005-3.0798,5.155Z" transform="translate(0-33)" clip-rule="evenodd" fill="url(#ejV7Nzn2DXy3-fill)" fill-rule="evenodd"/><path d="M50.6945,234.871l8.0408-3.995c.7584-.377,1.2297-1.135,1.2297-1.978v-2.827c-.1927-.235-.3956-.501-.6051-.796-1.0429-1.463-1.8787-3.093-2.4864-4.85-1.1877-.541-1.9587-1.708-1.9587-3.025v-3.345c0-.806.303-1.586.8417-2.196v-4.449c-.0471-.46-.2323-3.198,1.7609-5.457C59.2462,199.994,62.0516,199,65.857,199s6.6107.994,8.3396,2.952c1.2078,1.369,1.6144,2.912,1.7372,4.019c1.4427-.741,3.143-1.116,5.0738-1.116c8.7445,0,9.2537,7.406,9.2588,7.527v3.83c.5454.59.8417,1.272.8417,1.948v2.889c0,.902-.4066,1.744-1.1035,2.313-.6944,2.601-2.4022,4.566-3.0672,5.256v2.294c0,.659.3603,1.262.9857,1.602l5.5998,3.49C95.6676,237.167,97,239.397,97,241.824v3.176h-50.5022v-3.381c0-2.876,1.6085-5.462,4.1967-6.748Zm34.5216,6.584v1.872h10.1005v-1.503c0-1.815-.9966-3.482-2.6438-4.376l-5.599-3.491c-1.122-.608-1.8189-1.773-1.8189-3.045v-3.003l.2676-.248c.0219-.021,2.2583-2.12,2.9191-4.981l.0765-.331.2879-.184c.3872-.249.6187-.667.6187-1.116v-2.889c0-.301-.2063-.659-.5648-.982l-.2769-.248.0016-4.5c-.0151-.24-.4536-5.903-7.577-5.903-2.0142,0-3.7102.463-5.0502,1.375v3.957c.5387.61.8417,1.39.8417,2.196v3.345c0,.254-.0295.504-.085.747-.014.06-.0366.116-.0591.173-.0141.035-.0282.07-.0402.106-.0116.035-.0227.071-.0337.106-.0329.106-.066.213-.1145.312-.0008.002-.0016.003-.0025.005-.2155.441-.5294.836-.925,1.151-.0023.009-.0049.017-.0075.026-.0011.003-.0022.007-.0033.01-.0009.003-.0018.006-.0027.009-.0505.192-.1035.383-.1608.569l-.0681.218c-.0073.024-.0155.048-.0237.072-.0051.015-.0102.03-.015.045l-.0199.061c-.0226.069-.0451.139-.0685.207-.0505.147-.1036.298-.165.463-.0147.038-.0302.075-.0457.111-.0121.029-.0242.057-.0359.087-.0691.175-.1381.344-.2105.511-.0084.019-.0163.039-.0242.059-.0086.022-.0171.043-.0263.064l-.0471.105c-.0117.026-.0236.051-.0355.075-.0104.021-.0208.043-.031.065-.0825.179-.1633.352-.2475.519-.0041.008-.0081.017-.0121.025-.0026.006-.0051.011-.0076.017-.0066.014-.0131.028-.0198.041-.0413.081-.0825.159-.1237.237l-.0354.067c-.0909.172-.1801.334-.2694.491-.0437.077-.0867.153-.1296.225-.1212.206-.2365.395-.3484.571-.0116.018-.0229.036-.0342.054-.0125.02-.025.04-.0374.059-.2037.313-.3804.568-.5269.766-.0387.053-.0724.098-.1052.142-.0185.024-.0438.059-.0598.081v2.768c0,.809.4445,1.552,1.1591,1.94l2.2271,1.207.388-.034.1583.33l4.7354,2.567c2.4409,1.325,3.9568,3.862,3.9568,6.625Zm-1.6834,0v1.872h-35.3515v-1.708c0-2.239,1.2516-4.252,3.2666-5.253l8.0408-3.994c1.3325-.663,2.1598-1.993,2.1598-3.474v-3.45l-.2095-.237c-.2113-.239-.4546-.551-.7045-.903-1.0202-1.43-1.8223-3.037-2.3854-4.778l-.1347-.414-.4192-.128c-.7154-.219-1.1969-.858-1.1969-1.588v-3.345c0-.47.2003-.907.564-1.233l.2777-.249-.0075-5.319-.0003-.002c-.0089-.086-.2487-2.4,1.3663-4.214c1.3964-1.57,3.7717-2.365,7.0586-2.365c3.2986,0,5.6789.801,7.0736,2.383c1.3586,1.539,1.3947,3.39,1.3661,3.994l-.0227.018v5.505l.2778.248c.3636.327.5639.764.5639,1.234v3.345c0,.565-.2912,1.09-.7794,1.403l-.287.184-.0766.331c-.064.277-.1398.548-.2189.812-.005.017-.0109.034-.016.051l-.0463.149c-.0774.245-.1582.482-.2441.71-.0416.111-.0812.21-.12.308-.0052.012-.0103.025-.0155.038-.0056.014-.0112.028-.0168.042-.0112.028-.0224.056-.0337.084-.0471.112-.0934.222-.1397.327-.0071.016-.0145.032-.0219.048-.0073.016-.0147.032-.0219.049-.1043.233-.2112.457-.3181.67c0,.001-.0009.002-.0009.002-.2011.397-.4031.756-.5934,1.073-.0067.012-.0134.023-.0202.034-.0892.148-.1767.287-.2592.415-.0021.003-.004.006-.0059.009-.0019.004-.0038.007-.0059.01-.1751.271-.3325.496-.4579.669-.0004.001-.0008.001-.0012.002-.0005,0-.0009.001-.0013.002-.0598.083-.112.152-.1566.21-.0059.007-.0109.013-.016.02-.0666.086-.113.144-.1308.166-.0049.006-.0077.009-.008.01l-.032.037-.1633.194v3.362c0,1.421.7802,2.728,2.0369,3.409l7.5088,4.07c1.8998,1.029,3.0798,3.005,3.0798,5.155Z" transform="translate(0-33)" clip-rule="evenodd" fill="url(#ejV7Nzn2DXy4-fill)" fill-rule="evenodd"/></g><g id="ejV7Nzn2DXy5_to" transform="translate(66,402.5)"><g id="ejV7Nzn2DXy5_ts" transform="scale(0,0)"><g id="ejV7Nzn2DXy5" transform="translate(-66,-104.5)" opacity="0"><path d="M65.2315,113.65v-9.65h-2.581v9.676c0,.228-.0501.457-.1253.711-.1002.254-.1754.432-.2756.584s-.2255.381-.3759.635c-.1754.279-.3007.457-.3508.558l-1.1026-1.625c-.2505-.355-.3508-.686-.3508-.939v-5.74h-2.5058v5.74c0,.304-.2255.787-.6515,1.396-.426.635-.6766,1.067-.7267,1.27-.0752-.102-.2004-.279-.3759-.584-.2004-.279-.3257-.508-.4259-.66-.1003-.153-.1755-.381-.2757-.635s-.1253-.483-.1253-.711v-9.676h-2.581v9.65c0,.813.3007,1.676.9021,2.565l1.6539,2.514h2.2803l1.5786-2.565l1.6037,2.565h2.2553l1.6789-2.514c.5763-.914.877-1.752.877-2.565Z" transform="translate(0-33)" fill="url(#ejV7Nzn2DXy6-fill)"/><path d="M79.712,114.768v-3.073c0-.965-.3508-1.778-1.0023-2.413-.6766-.635-1.5286-.965-2.556-.965h-3.3578c-1.0524,0-1.9044.33-2.5559.965-.6766.635-1.0023,1.448-1.0023,2.413v3.657c0,.99.3257,1.803,1.0023,2.438.6515.635,1.5035.939,2.5559.939h5.588v-2.26h-5.7634c-.2505,0-.451-.076-.6264-.254-.1754-.152-.2506-.355-.2506-.584v-.863h7.9685Zm-2.5058-2.21h-5.4627v-1.066c0-.203.0752-.407.2506-.584.1754-.153.3759-.254.6264-.254h3.7086c.2506,0,.4511.101.6265.254.1503.152.2506.355.2506.584v1.066Z" transform="translate(0-33)" fill="url(#ejV7Nzn2DXy7-fill)"/><path d="M35.8298,141.921v-9.65h-2.581v9.675c0,.229-.0501.457-.1253.711-.1002.254-.1754.432-.2756.584-.1003.153-.2256.381-.3759.635-.1754.28-.3007.457-.3508.559l-1.1026-1.625c-.2506-.356-.3508-.686-.3508-.94v-5.739h-2.5058v5.739c0,.305-.2255.787-.6515,1.397-.426.635-.6766,1.066-.7267,1.27-.0752-.102-.2005-.28-.3759-.584-.2005-.28-.3257-.508-.426-.661-.1002-.152-.1754-.381-.2756-.635s-.1253-.482-.1253-.711v-9.675h-2.581v9.65c0,.813.3007,1.676.9021,2.565L25.5559,147h2.2803l1.5787-2.565L31.0186,147h2.2552l1.6789-2.514c.5764-.914.8771-1.752.8771-2.565Z" transform="translate(0-33)" fill="url(#ejV7Nzn2DXy8-fill)"/><path d="M49.8091,139.813c0-.863-.3508-1.625-1.0023-2.26-.6766-.635-1.4785-.965-2.4307-.965h-5.187v2.336h4.736c.5513,0,.9021.076,1.1025.229.1754.152.2757.431.2757.838v.635l-4.4353.025c-1.0023,0-1.8543.305-2.5309.914-.6766.61-1.0023,1.321-1.0023,2.159c0,.914.3257,1.676,1.0023,2.311.6515.66,1.5035.965,2.5559.965h6.9161v-7.187Zm-2.5058,4.927h-4.6107c-.2506,0-.4511-.076-.6265-.28-.1754-.177-.2506-.406-.2506-.66s.1003-.482.3007-.66.426-.279.6766-.279h4.5105v1.879Z" transform="translate(0-33)" fill="url(#ejV7Nzn2DXy9-fill)"/><path d="M64.3082,147v-7.162c0-.965-.3258-1.726-.9773-2.336-.6515-.609-1.4784-.914-2.4807-.914h-1.8543c-.2005,0-.3759.025-.5764.076s-.3508.102-.4761.152c-.1253.051-.2756.153-.451.28-.2005.152-.3258.254-.401.304-.0751.051-.2255.178-.426.356-.2004.203-.3257.305-.3508.33v-1.498h-2.5058v10.412h2.5058v-6.12l1.8543-1.549c.2005-.204.3759-.331.5012-.381.1002-.051.3007-.077.6014-.077h1.6538c.2256,0,.426.102.6014.254.1754.178.2757.381.2757.584v7.289h2.5058Z" transform="translate(0-33)" fill="url(#ejV7Nzn2DXy10-fill)"/><path d="M78.7943,143.572v-1.042h-2.5559v1.27c0,.229-.1002.432-.2756.584-.1754.178-.3759.254-.6014.254h-2.0548c-.2506,0-.451-.076-.6265-.254-.1754-.152-.2505-.355-.2505-.584v-5.104h2.5058v-2.311h-2.5058v-4.114h-2.5058v4.114h-2.1049v2.311h2.1049v4.876c0,.99.3257,1.803,1.0023,2.463.6515.66,1.5035.965,2.5309.965h1.7791c1.0274,0,1.8793-.305,2.5559-.965.6515-.66,1.0023-1.473,1.0023-2.463Z" transform="translate(0-33)" fill="url(#ejV7Nzn2DXy11-fill)"/><path d="M101.464,135.597v-3.326h-2.5806v3.174c0,.381-.1755.711-.4762.965l-2.18,1.905-2.7564-2.007c-.1754-.101-.2757-.228-.3007-.33-.0501-.101-.0501-.279-.0501-.533v-3.174h-2.556v3.25c0,1.118.3759,1.93,1.1778,2.489l2.0297,1.524-2.0798,1.752c-.4511.406-.7518.787-.9021,1.168-.1504.407-.2256.914-.2256,1.575v2.971h2.556v-2.87c0-.406.025-.66.0751-.787.0502-.127.1755-.279.3759-.457l2.2302-1.905l2.606,1.905c.2005.152.3258.305.3759.406.0501.102.0752.356.0752.737v2.971h2.5807v-3.174c0-.635-.1-1.143-.25-1.524-.176-.356-.476-.711-.902-1.041l-2.0301-1.499l1.9791-1.676c.426-.355.727-.711.928-1.066.2-.356.3-.813.3-1.423Z" transform="translate(0-33)" fill="url(#ejV7Nzn2DXy12-fill)"/><path d="M109,132.271h-3.408v3.834l.476,6.832h2.456l.476-6.832v-3.834ZM108.749,147v-2.844h-2.956v2.844h2.956Z" transform="translate(0-33)" fill="url(#ejV7Nzn2DXy13-fill)"/><path d="M2,88.7838C2,86.6941,3.69926,85,5.79539,85h120.40961c2.096,0,3.795,1.6941,3.795,3.7838v74.0322c0,2.09-1.699,3.784-3.795,3.784h-42.114L66,190L48.2748,166.6h-42.47941C3.69926,166.6,2,164.906,2,162.816v-74.0322Z" transform="translate(0-33)" clip-rule="evenodd" fill="none" fill-rule="evenodd" stroke="url(#ejV7Nzn2DXy14-stroke)" stroke-width="3"/></g></g></g><g id="ejV7Nzn2DXy15" transform="translate(.000001 0.000001)" opacity="0"><path d="M189.719,2.36179v-2.36179h-11.433v2.36179h4.368v12.36761h2.671v-12.36761h4.394Z" transform="translate(0 7)" fill="url(#ejV7Nzn2DXy16-fill)"/><path d="M201.901,10.7677v-3.07284c0-.96503-.349-1.77769-.998-2.41258-.674-.63489-1.523-.96503-2.547-.96503h-3.344c-1.049,0-1.898.33014-2.547.96503-.673.63489-.998,1.44755-.998,2.41258v3.65694c0,.9905.325,1.8031.998,2.438.649.6349,1.498.9396,2.547.9396h5.566v-2.2602h-5.741c-.25,0-.449-.0762-.624-.2539-.175-.1524-.25-.3556-.25-.5841v-.8635h7.938Zm-2.496-2.20939h-5.442v-1.06661c0-.20317.075-.40633.25-.5841.175-.15237.374-.25396.624-.25396h3.694c.25,0,.449.10159.624.25396.15.15237.25.35554.25.5841v1.06661Z" transform="translate(0 7)" fill="url(#ejV7Nzn2DXy17-fill)"/><path d="M215.908,11.5042c0-.8127-.35-1.52373-.999-2.13323-.674-.60949-1.498-.91424-2.496-.93963-.225,0-.599.02539-1.098.02539-.5,0-.924,0-1.223,0-.3,0-.649-.02539-.999-.07619-.374-.05079-.649-.12697-.824-.27935-.174-.15237-.249-.33014-.249-.5841s.075-.45712.249-.63489c.175-.15237.375-.25395.624-.25395h6.141v-2.311h-5.966c-1.048,0-1.897.33014-2.546.96503-.674.66029-.998,1.42216-.998,2.311s.349,1.62532,1.048,2.18402s1.598.8635,2.646.8888l3.22.1016c.649.0508.973.3048.973.8127c0,.2539-.099.4571-.274.6095s-.375.2285-.599.2285h-6.266v2.311h6.091c1.024,0,1.872-.3047,2.546-.9396.649-.6349.999-1.3968.999-2.2856Z" transform="translate(0 7)" fill="url(#ejV7Nzn2DXy18-fill)"/><path d="M229.959,11.301v-1.0412h-2.547v1.2698c0,.2286-.099.4317-.274.5841-.175.1778-.375.254-.599.254h-2.047c-.25,0-.449-.0762-.624-.254-.175-.1524-.25-.3555-.25-.5841v-5.10452h2.496v-2.31099h-2.496v-4.11409h-2.496v4.11409h-2.097v2.31099h2.097v4.87592c0,.9905.325,1.8031.999,2.4634.649.6603,1.497.965,2.521.965h1.772c1.023,0,1.872-.3047,2.546-.965.649-.6603.999-1.4729.999-2.4634Z" transform="translate(0 7)" fill="url(#ejV7Nzn2DXy19-fill)"/><path d="M248.423,14.7294v-2.311h-2.122v-10.1074h2.122v-2.311h-6.74v2.311h2.097v10.1074h-2.097v2.311h6.74Z" transform="translate(0 7)" fill="url(#ejV7Nzn2DXy20-fill)"/><path d="M262.993,14.7294v-14.7294h-2.497v5.51084c-.349-.30474-.599-.5587-.773-.71107-.2-.15238-.45-.30475-.799-.45712-.35-.15238-.699-.22856-1.049-.22856h-1.922c-1.023,0-1.872.30474-2.546.96503s-.998,1.49834-.998,2.46337v3.75851c0,.9905.324,1.8031.998,2.4634.649.6603,1.498.965,2.546.965h7.04Zm-2.497-2.2602h-4.717c-.25,0-.45-.0762-.624-.2539-.175-.1524-.25-.3556-.25-.6095v-4.34266c0-.20317.075-.40633.25-.5841.174-.15237.374-.25396.624-.25396h1.822c.299,0,.499.0254.599.07619s.274.17777.524.38093l1.772,1.57453v4.01247Z" transform="translate(0 7)" fill="url(#ejV7Nzn2DXy21-fill)"/><path d="M277.42,10.7677v-3.07284c0-.96503-.349-1.77769-.998-2.41258-.674-.63489-1.523-.96503-2.547-.96503h-3.344c-1.049,0-1.898.33014-2.547.96503-.674.63489-.998,1.44755-.998,2.41258v3.65694c0,.9905.324,1.8031.998,2.438.649.6349,1.498.9396,2.547.9396h5.566v-2.2602h-5.741c-.25,0-.449-.0762-.624-.2539-.175-.1524-.25-.3556-.25-.5841v-.8635h7.938Zm-2.496-2.20939h-5.442v-1.06661c0-.20317.075-.40633.25-.5841.175-.15237.374-.25396.624-.25396h3.694c.25,0,.449.10159.624.25396.15.15237.25.35554.25.5841v1.06661Z" transform="translate(0 7)" fill="url(#ejV7Nzn2DXy22-fill)"/><path d="M291.352,7.54249c0-.86345-.35-1.62532-.999-2.26021-.674-.63489-1.472-.96503-2.421-.96503h-5.167v2.33639h4.718c.549,0,.898.07619,1.098.22856.175.15238.275.43173.275.83806v.63489l-4.419.02539c-.998,0-1.847.30475-2.521.91424s-.998,1.32062-.998,2.15862c0,.9143.324,1.6761.998,2.311.649.6603,1.498.965,2.546.965h6.89v-7.18691Zm-2.496,4.92671h-4.593c-.25,0-.45-.0762-.624-.2793-.175-.1778-.25-.4063-.25-.6603s.1-.4825.3-.6603c.199-.1778.424-.2793.673-.2793h4.494v1.8792Z" transform="translate(0 7)" fill="url(#ejV7Nzn2DXy23-fill)"/><path d="M305.346,11.5042c0-.8127-.35-1.52373-.999-2.13323-.674-.60949-1.497-.91424-2.496-.93963-.225,0-.599.02539-1.098.02539s-.924,0-1.223,0c-.3,0-.649-.02539-.999-.07619-.374-.05079-.649-.12697-.824-.27935-.174-.15237-.249-.33014-.249-.5841s.075-.45712.249-.63489c.175-.15237.375-.25395.624-.25395h6.141v-2.311h-5.966c-1.048,0-1.897.33014-2.546.96503-.674.66029-.998,1.42216-.998,2.311s.349,1.62532,1.048,2.18402s1.598.8635,2.646.8888l3.22.1016c.649.0508.974.3048.974.8127c0,.2539-.1.4571-.275.6095s-.374.2285-.599.2285h-6.265v2.311h6.09c1.024,0,1.872-.3047,2.546-.9396.649-.6349.999-1.3968.999-2.2856Z" transform="translate(0 7)" fill="url(#ejV7Nzn2DXy24-fill)"/></g><g id="ejV7Nzn2DXy25"><path id="ejV7Nzn2DXy26" d="M248,114.84v-3.84h-2.841v3.664c0,.439-.193.82-.525,1.114l-2.4,2.198-3.034-2.316c-.193-.117-.303-.263-.331-.381-.055-.117-.055-.322-.055-.615v-3.664h-2.814v3.752c0,1.289.414,2.227,1.297,2.872l2.234,1.759-2.29,2.022c-.496.469-.827.909-.993,1.348-.165.469-.248,1.056-.248,1.818v3.429h2.814v-3.312c0-.469.027-.762.083-.909.055-.146.193-.322.413-.527l2.456-2.199l2.868,2.199c.221.176.359.351.414.469.055.117.083.41.083.85v3.429h2.841v-3.664c0-.733-.11-1.319-.275-1.758-.194-.411-.525-.821-.994-1.202l-2.234-1.729l2.179-1.935c.469-.41.8-.821,1.021-1.231s.331-.938.331-1.641Z" transform="translate(0-33)" opacity="0" fill="url(#ejV7Nzn2DXy26-fill)"/><circle id="ejV7Nzn2DXy27" r="28" transform="translate(242 86)" opacity="0" fill="none" stroke="url(#ejV7Nzn2DXy27-stroke)" stroke-width="3"/></g><g id="ejV7Nzn2DXy28"><path id="ejV7Nzn2DXy29" d="M248,201.276v-4.276h-2.793v4.166c0,.331-.027.524-.055.606-.055.111-.138.221-.304.387l-2.876,2.896-2.848-2.896c-.165-.166-.276-.276-.304-.387-.055-.082-.055-.275-.055-.606v-4.166h-2.765v4.276c0,.579.055,1.048.221,1.434.138.387.415.745.83,1.131l3.539,3.504v5.655h2.82c0,0,0-5.655,0-5.655s3.539-3.504,3.539-3.504c.387-.386.664-.744.83-1.131.138-.386.221-.855.221-1.434Z" transform="translate(0-33)" opacity="0" fill="url(#ejV7Nzn2DXy29-fill)"/><path id="ejV7Nzn2DXy30" d="M242,169l34,24.828L263.013,234h-42.026L208,193.828L242,169Z" transform="translate(0-33)" opacity="0" clip-rule="evenodd" fill="none" fill-rule="evenodd" stroke="url(#ejV7Nzn2DXy30-stroke)" stroke-width="3"/></g><g id="ejV7Nzn2DXy31"><path id="ejV7Nzn2DXy32" d="M248,298v-2.566h-8.047L248,284.014v-2.014h-12v2.566h8.047L236,295.986v2.014h12Z" transform="translate(0-33)" opacity="0" fill="url(#ejV7Nzn2DXy32-fill)"/><path id="ejV7Nzn2DXy33" d="M269.505,290.342h46.518c0,0,9.441.463,9.441-11.101c0-31.515,0-51.576,0-60.184c0-14.369,12.759-14.369,12.759-14.369h51.989M376.798,197L393,204.811l-16.202,7.545M214,262.684h55.505v55.316L214,318v-55.316Z" transform="translate(0-33)" opacity="0" fill="none" stroke="url(#ejV7Nzn2DXy33-stroke)" stroke-width="3"/></g><g id="ejV7Nzn2DXy34_to" transform="translate(449,-105.5)"><g id="ejV7Nzn2DXy34_ts" transform="scale(0,0)"><g id="ejV7Nzn2DXy34" transform="translate(-449,-104.5)" opacity="0"><path d="M415.861,107.936v-3.936h-2.528v3.835c0,.304-.025.482-.05.558-.05.102-.125.204-.275.356l-2.603,2.667-2.577-2.667c-.15-.152-.25-.254-.276-.356-.05-.076-.05-.254-.05-.558v-3.835h-2.502v3.936c0,.534.05.965.2,1.321.125.355.376.686.751,1.041l3.203,3.225v5.206h2.553v-5.206l3.203-3.225c.35-.355.6-.686.75-1.041.126-.356.201-.787.201-1.321Z" transform="translate(0-33)" fill="url(#ejV7Nzn2DXy35-fill)"/><path d="M430.319,114.768v-3.073c0-.965-.351-1.778-1.001-2.413-.676-.635-1.527-.965-2.553-.965h-3.353c-1.051,0-1.902.33-2.553.965-.675.635-1.001,1.448-1.001,2.413v3.657c0,.99.326,1.803,1.001,2.438.651.635,1.502.939,2.553.939h5.58v-2.26h-5.755c-.251,0-.451-.076-.626-.254-.175-.152-.25-.355-.25-.584v-.863h7.958Zm-2.503-2.21h-5.455v-1.066c0-.203.075-.407.25-.584.175-.153.375-.254.626-.254h3.703c.25,0,.451.101.626.254.15.152.25.355.25.584v1.066Z" transform="translate(0-33)" fill="url(#ejV7Nzn2DXy36-fill)"/><path d="M444.36,115.504c0-.812-.35-1.524-1.001-2.133-.675-.61-1.501-.914-2.502-.94-.225,0-.601.026-1.101.026-.501,0-.926,0-1.226,0-.301,0-.651-.026-1.001-.076-.376-.051-.651-.127-.826-.28-.175-.152-.25-.33-.25-.584s.075-.457.25-.635c.175-.152.375-.254.626-.254h6.156v-2.311h-5.981c-1.051,0-1.902.33-2.553.965-.675.661-1.001,1.422-1.001,2.311s.351,1.626,1.051,2.184c.701.559,1.602.864,2.653.889l3.228.102c.651.051.976.304.976.812c0,.254-.1.458-.275.61s-.376.228-.601.228h-6.281v2.311h6.106c1.026,0,1.877-.304,2.552-.939.651-.635,1.001-1.397,1.001-2.286Z" transform="translate(0-33)" fill="url(#ejV7Nzn2DXy37-fill)"/><path d="M451.59,117.79v-1.752c0-.153-.1-.254-.25-.254h-2.553c-.175,0-.25.101-.25.254v2.285c0,.178.075.254.25.254h.851v.203l-1.226,2.006.826.585l1.977-2.438c.25-.254.375-.635.375-1.143Z" transform="translate(0-33)" fill="url(#ejV7Nzn2DXy38-fill)"/><path d="M477.539,113.65v-9.65h-2.578v9.676c0,.228-.05.457-.125.711-.1.254-.175.432-.275.584s-.225.381-.375.635c-.175.279-.301.457-.351.558l-1.101-1.625c-.25-.355-.35-.686-.35-.939v-5.74h-2.503v5.74c0,.304-.225.787-.65,1.396-.426.635-.676,1.067-.726,1.27-.075-.102-.2-.279-.375-.584-.2-.279-.326-.508-.426-.66-.1-.153-.175-.381-.275-.635s-.125-.483-.125-.711v-9.676h-2.578v9.65c0,.813.301,1.676.901,2.565l1.652,2.514h2.277l1.577-2.565l1.601,2.565h2.252l1.677-2.514c.576-.914.876-1.752.876-2.565Z" transform="translate(0-33)" fill="url(#ejV7Nzn2DXy39-fill)"/><path d="M492,114.768v-3.073c0-.965-.35-1.778-1.001-2.413-.676-.635-1.526-.965-2.552-.965h-3.354c-1.051,0-1.902.33-2.552.965-.676.635-1.001,1.448-1.001,2.413v3.657c0,.99.325,1.803,1.001,2.438.65.635,1.501.939,2.552.939h5.581v-2.26h-5.756c-.25,0-.45-.076-.626-.254-.175-.152-.25-.355-.25-.584v-.863h7.958Zm-2.502-2.21h-5.456v-1.066c0-.203.075-.407.25-.584.176-.153.376-.254.626-.254h3.704c.25,0,.45.101.625.254.15.152.251.355.251.584v1.066Z" transform="translate(0-33)" fill="url(#ejV7Nzn2DXy40-fill)"/><path d="M418.472,141.921v-9.65h-2.577v9.675c0,.229-.05.457-.125.711-.1.254-.175.432-.276.584-.1.153-.225.381-.375.635-.175.28-.3.457-.35.559l-1.101-1.625c-.251-.356-.351-.686-.351-.94v-5.739h-2.502v5.739c0,.305-.225.787-.651,1.397-.425.635-.675,1.066-.725,1.27-.076-.102-.201-.28-.376-.584-.2-.28-.325-.508-.425-.661-.1-.152-.175-.381-.276-.635-.1-.254-.125-.482-.125-.711v-9.675h-2.577v9.65c0,.813.3,1.676.901,2.565L408.212,147h2.278l1.576-2.565L413.668,147h2.252l1.677-2.514c.575-.914.875-1.752.875-2.565Z" transform="translate(0-33)" fill="url(#ejV7Nzn2DXy41-fill)"/><path d="M432.433,139.813c0-.863-.35-1.625-1.001-2.26-.676-.635-1.477-.965-2.427-.965h-5.181v2.336h4.73c.551,0,.901.076,1.101.229.175.152.275.431.275.838v.635l-4.429.025c-1.001,0-1.852.305-2.527.914-.676.61-1.001,1.321-1.001,2.159c0,.914.325,1.676,1.001,2.311.65.66,1.501.965,2.552.965h6.907v-7.187Zm-2.503,4.927h-4.604c-.25,0-.45-.076-.626-.28-.175-.177-.25-.406-.25-.66s.1-.482.3-.66c.201-.178.426-.279.676-.279h4.504v1.879Z" transform="translate(0-33)" fill="url(#ejV7Nzn2DXy42-fill)"/><path d="M446.913,147v-7.162c0-.965-.326-1.726-.976-2.336-.651-.609-1.477-.914-2.478-.914h-1.852c-.2,0-.375.025-.575.076s-.351.102-.476.152c-.125.051-.275.153-.45.28-.2.152-.325.254-.401.304-.075.051-.225.178-.425.356-.2.203-.325.305-.35.33v-1.498h-2.503v10.412h2.503v-6.12l1.852-1.549c.2-.204.375-.331.5-.381.1-.051.3-.077.601-.077h1.651c.225,0,.426.102.601.254.175.178.275.381.275.584v7.289h2.503Z" transform="translate(0-33)" fill="url(#ejV7Nzn2DXy43-fill)"/><path d="M461.379,143.572v-1.042h-2.552v1.27c0,.229-.1.432-.276.584-.175.178-.375.254-.6.254h-2.052c-.25,0-.451-.076-.626-.254-.175-.152-.25-.355-.25-.584v-5.104h2.502v-2.311h-2.502v-4.114h-2.502v4.114h-2.103v2.311h2.103v4.876c0,.99.325,1.803,1.001,2.463.65.66,1.501.965,2.527.965h1.777c1.026,0,1.877-.305,2.552-.965.651-.66,1.001-1.473,1.001-2.463Z" transform="translate(0-33)" fill="url(#ejV7Nzn2DXy44-fill)"/><path d="M483.693,147v-2.362h-7.082l7.082-10.514v-1.853h-10.56v2.361h7.082l-7.082,10.514v1.854h10.56Z" transform="translate(0-33)" fill="url(#ejV7Nzn2DXy45-fill)"/><path d="M491.227,132.271h-3.404v3.834l.476,6.832h2.452l.476-6.832v-3.834ZM490.976,147v-2.844h-2.953v2.844h2.953Z" transform="translate(0-33)" fill="url(#ejV7Nzn2DXy46-fill)"/><path d="M385,85h128v81.6h-45.909L449,190l-17.725-23.4h-46.275v-81.6Z" transform="translate(0-33)" clip-rule="evenodd" fill="none" fill-rule="evenodd" stroke="url(#ejV7Nzn2DXy47-stroke)" stroke-width="3"/></g></g></g><g id="ejV7Nzn2DXy48" transform="translate(.000001 0.000001)" opacity="0"><path d="M637.167,190.742h-28.664c-1.122,0-2.03.908-2.03,2.027v28.671c0,1.119.908,2.027,2.03,2.027h28.664c1.122,0,2.03-.908,2.03-2.027v-28.671c0-1.119-.908-2.027-2.03-2.027Zm-.514,2.545v5.055h-27.636v-5.055h27.636Zm-27.636,7.61v20.025h27.639v-20.025h-27.639Z" transform="translate(0-33)" clip-rule="evenodd" fill="url(#ejV7Nzn2DXy49-fill)" fill-rule="evenodd"/><path d="M628.528,217.319c-.287,0-.571-.11-.791-.327-.437-.437-.437-1.145,0-1.583l4.314-4.314-4.314-4.314c-.437-.438-.437-1.146,0-1.583.438-.438,1.145-.438,1.583,0l5.897,5.897-5.897,5.897c-.221.217-.508.327-.792.327Z" transform="translate(0-33)" fill="url(#ejV7Nzn2DXy50-fill)"/><path d="M617.142,217.319c-.288,0-.571-.11-.792-.327l-5.894-5.897l5.898-5.897c.437-.438,1.145-.438,1.582,0c.438.437.438,1.145,0,1.583l-4.317,4.314l4.314,4.314c.437.438.437,1.146,0,1.583-.217.217-.504.327-.791.327Z" transform="translate(0-33)" fill="url(#ejV7Nzn2DXy51-fill)"/><path d="M620.885,216.471c-.157,0-.314-.033-.464-.103-.561-.257-.808-.922-.551-1.483l3.9-8.512c.257-.561.922-.808,1.483-.551s.808.922.551,1.483l-3.901,8.512c-.19.41-.594.654-1.018.654Z" transform="translate(0-33)" fill="url(#ejV7Nzn2DXy52-fill)"/><path d="M611.498,195.761c0,.571.464,1.035,1.035,1.035s1.036-.464,1.036-1.035-.465-1.035-1.036-1.035-1.035.461-1.035,1.035Z" transform="translate(0-33)" fill="url(#ejV7Nzn2DXy53-fill)"/><path d="M615.596,195.761c0,.571.464,1.035,1.035,1.035s1.035-.464,1.035-1.035-.464-1.035-1.035-1.035c-.571-.003-1.032.461-1.035,1.035c0-.003,0-.003,0,0Z" transform="translate(0-33)" fill="url(#ejV7Nzn2DXy54-fill)"/><path d="M619.696,195.761c0,.571.464,1.035,1.035,1.035s1.035-.464,1.035-1.035-.464-1.035-1.035-1.035c-.571-.003-1.035.461-1.035,1.035c0-.003,0-.003,0,0Z" transform="translate(0-33)" fill="url(#ejV7Nzn2DXy55-fill)"/><path d="M590.169,192.5c0-7.456,6.044-13.5,13.5-13.5h38.333c7.456,0,13.5,6.044,13.5,13.5v13.488h80.213l-12.324-5.962c-.746-.361-1.058-1.258-.697-2.003.361-.746,1.258-1.058,2.004-.697l17.726,8.575l2.84,1.374-2.858,1.335-17.727,8.282c-.75.351-1.643.027-1.994-.724-.35-.751-.026-1.643.724-1.994l11.1-5.186h-79.007v13.014c0,7.456-6.044,13.5-13.5,13.5h-38.333c-7.456,0-13.5-6.044-13.5-13.5v-12.754h-75.669c-.828,0-1.5-.671-1.5-1.5c0-.828.672-1.5,1.5-1.5h75.669v-13.748Zm13.5-10.5c-5.799,0-10.5,4.701-10.5,10.5v29.502c0,5.799,4.701,10.5,10.5,10.5h38.333c5.799,0,10.5-4.701,10.5-10.5v-29.502c0-5.799-4.701-10.5-10.5-10.5h-38.333Z" transform="translate(0-33)" clip-rule="evenodd" fill="url(#ejV7Nzn2DXy56-fill)" fill-rule="evenodd"/></g><g id="ejV7Nzn2DXy57_to" transform="translate(449,-21)"><g id="ejV7Nzn2DXy57_ts" transform="scale(0,0)"><g id="ejV7Nzn2DXy57" transform="translate(-449,-189)" opacity="0"><path d="M464.305,234.871l-8.04-3.995c-.759-.377-1.23-1.135-1.23-1.978v-2.827c.193-.235.396-.501.605-.796c1.043-1.463,1.879-3.093,2.487-4.85c1.187-.541,1.958-1.708,1.958-3.025v-3.345c0-.806-.303-1.586-.842-2.196v-4.449c.048-.46.233-3.198-1.76-5.457-1.729-1.959-4.535-2.953-8.34-2.953s-6.611.994-8.34,2.952c-1.207,1.369-1.614,2.912-1.737,4.019-1.443-.741-3.143-1.116-5.074-1.116-8.744,0-9.253,7.406-9.258,7.527v3.83c-.546.59-.842,1.272-.842,1.948v2.889c0,.902.406,1.744,1.103,2.313.695,2.601,2.403,4.566,3.068,5.256v2.294c0,.659-.361,1.262-.986,1.602l-5.6,3.49c-2.145,1.163-3.477,3.393-3.477,5.82v3.176h50.502v-3.381c0-2.876-1.608-5.462-4.197-6.748Zm-34.521,6.584v1.872h-10.101v-1.503c0-1.815.997-3.482,2.644-4.376l5.599-3.491c1.122-.608,1.819-1.773,1.819-3.045v-3.003l-.268-.248c-.021-.021-2.258-2.12-2.919-4.981l-.076-.331-.288-.184c-.387-.249-.619-.667-.619-1.116v-2.889c0-.301.207-.659.565-.982l.277-.248-.002-4.5c.016-.24.454-5.903,7.577-5.903c2.015,0,3.711.463,5.051,1.375v3.957c-.539.61-.842,1.39-.842,2.196v3.345c0,.254.029.504.085.747.014.06.036.116.059.173.014.035.028.07.04.106.012.035.023.071.034.106.033.106.066.213.114.312.001.002.002.003.003.005.215.441.529.836.925,1.151.002.009.005.017.007.026.001.003.003.007.004.01s.002.006.002.009c.051.192.104.383.161.569l.068.218c.008.024.016.048.024.072.005.015.01.03.015.045l.02.061c.022.069.045.139.068.207.051.147.104.298.165.463.015.038.031.075.046.111.012.029.024.057.036.087.069.175.138.344.21.511.009.019.017.039.025.059.008.022.017.043.026.064l.047.105c.012.026.024.051.036.075.01.021.02.043.031.065.082.179.163.352.247.519.004.008.008.017.012.025.003.006.005.011.008.017.006.014.013.028.02.041.041.081.082.159.123.237l.036.067c.091.172.18.334.269.491.044.077.087.153.13.225.121.206.236.395.348.571.012.018.023.036.034.054.013.02.025.04.038.059.203.313.38.568.527.766.038.053.072.098.105.142.018.024.044.059.06.081v2.768c0,.809-.445,1.552-1.159,1.94l-2.228,1.207-.388-.034-.158.33-4.735,2.567c-2.441,1.325-3.957,3.862-3.957,6.625Zm1.683,0v1.872h35.352v-1.708c0-2.239-1.252-4.252-3.267-5.253l-8.041-3.994c-1.332-.663-2.159-1.993-2.159-3.474v-3.45l.209-.237c.211-.239.455-.551.705-.903c1.02-1.43,1.822-3.037,2.385-4.778l.135-.414.419-.128c.715-.219,1.197-.858,1.197-1.588v-3.345c0-.47-.201-.907-.564-1.233l-.278-.249.008-5.319v-.002c.009-.086.249-2.4-1.366-4.214-1.397-1.57-3.772-2.365-7.059-2.365-3.299,0-5.679.801-7.074,2.383-1.358,1.539-1.394,3.39-1.366,3.994l.023.018v5.505l-.278.248c-.363.327-.564.764-.564,1.234v3.345c0,.565.292,1.09.78,1.403l.287.184.076.331c.064.277.14.548.219.812.005.017.011.034.016.051l.046.149c.078.245.159.482.245.71.041.111.081.21.12.308.005.012.01.025.015.038.006.014.011.028.017.042.011.028.022.056.034.084.047.112.093.222.139.327.007.016.015.032.022.048.008.016.015.032.022.049.104.233.211.457.318.67c0,.001.001.002.001.002.201.397.403.756.593,1.073.007.012.014.023.021.034.089.148.176.287.259.415.002.003.004.006.006.009.002.004.004.007.006.01.175.271.332.496.458.669c0,.001,0,.001.001.002c0,0,.001.001.001.002.06.083.112.152.157.21.006.007.011.013.016.02.066.086.113.144.131.166.004.006.007.009.008.01l.032.037.163.194v3.362c0,1.421-.78,2.728-2.037,3.409l-7.509,4.07c-1.9,1.029-3.08,3.005-3.08,5.155Z" transform="translate(0-33)" clip-rule="evenodd" fill="url(#ejV7Nzn2DXy58-fill)" fill-rule="evenodd"/><path d="M433.695,234.871l8.04-3.995c.759-.377,1.23-1.135,1.23-1.978v-2.827c-.193-.235-.396-.501-.605-.796-1.043-1.463-1.879-3.093-2.487-4.85-1.187-.541-1.958-1.708-1.958-3.025v-3.345c0-.806.303-1.586.842-2.196v-4.449c-.048-.46-.233-3.198,1.76-5.457c1.729-1.959,4.535-2.953,8.34-2.953s6.611.994,8.34,2.952c1.207,1.369,1.614,2.912,1.737,4.019c1.443-.741,3.143-1.116,5.074-1.116c8.744,0,9.253,7.406,9.258,7.527v3.83c.546.59.842,1.272.842,1.948v2.889c0,.902-.406,1.744-1.103,2.313-.695,2.601-2.403,4.566-3.068,5.256v2.294c0,.659.361,1.262.986,1.602l5.6,3.49c2.145,1.163,3.477,3.393,3.477,5.82v3.176h-50.502v-3.381c0-2.876,1.608-5.462,4.197-6.748Zm34.521,6.584v1.872h10.101v-1.503c0-1.815-.997-3.482-2.644-4.376l-5.599-3.491c-1.122-.608-1.819-1.773-1.819-3.045v-3.003l.268-.248c.021-.021,2.258-2.12,2.919-4.981l.076-.331.288-.184c.387-.249.619-.667.619-1.116v-2.889c0-.301-.207-.659-.565-.982l-.277-.248.002-4.5c-.016-.24-.454-5.903-7.577-5.903-2.015,0-3.711.463-5.051,1.375v3.957c.539.61.842,1.39.842,2.196v3.345c0,.254-.029.504-.085.747-.014.06-.036.116-.059.173-.014.035-.028.07-.04.106-.012.035-.023.071-.034.106-.033.106-.066.213-.114.312-.001.002-.002.003-.003.005-.215.441-.529.836-.925,1.151-.002.009-.005.017-.007.026-.001.003-.003.007-.004.01s-.002.006-.002.009c-.051.192-.104.383-.161.569l-.068.218c-.008.024-.016.048-.024.072-.005.015-.01.03-.015.045l-.02.061c-.022.069-.045.139-.068.207-.051.147-.104.298-.165.463-.015.038-.031.075-.046.111-.012.029-.024.057-.036.087-.069.175-.138.344-.21.511-.009.019-.017.039-.025.059-.008.022-.017.043-.026.064l-.047.105c-.012.026-.024.051-.036.075-.01.021-.02.043-.031.065-.082.179-.163.352-.247.519-.004.008-.008.017-.012.025-.003.006-.005.011-.008.017-.006.014-.013.028-.02.041-.041.081-.082.159-.123.237l-.036.067c-.091.172-.18.334-.269.491-.044.077-.087.153-.13.225-.121.206-.236.395-.348.571-.012.018-.023.036-.034.054-.013.02-.025.04-.038.059-.203.313-.38.568-.527.766-.038.053-.072.098-.105.142-.018.024-.044.059-.06.081v2.768c0,.809.445,1.552,1.159,1.94l2.228,1.207.388-.034.158.33l4.735,2.567c2.441,1.325,3.957,3.862,3.957,6.625Zm-1.683,0v1.872h-35.352v-1.708c0-2.239,1.252-4.252,3.267-5.253l8.041-3.994c1.332-.663,2.159-1.993,2.159-3.474v-3.45l-.209-.237c-.211-.239-.455-.551-.705-.903-1.02-1.43-1.822-3.037-2.385-4.778l-.135-.414-.419-.128c-.715-.219-1.197-.858-1.197-1.588v-3.345c0-.47.201-.907.564-1.233l.278-.249-.008-5.319v-.002c-.009-.086-.249-2.4,1.366-4.214c1.397-1.57,3.772-2.365,7.059-2.365c3.299,0,5.679.801,7.074,2.383c1.358,1.539,1.394,3.39,1.366,3.994l-.023.018v5.505l.278.248c.363.327.564.764.564,1.234v3.345c0,.565-.292,1.09-.78,1.403l-.287.184-.076.331c-.064.277-.14.548-.219.812-.005.017-.011.034-.016.051l-.046.149c-.078.245-.159.482-.245.71-.041.111-.081.21-.12.308-.005.012-.01.025-.015.038-.006.014-.011.028-.017.042-.011.028-.022.056-.034.084-.047.112-.093.222-.139.327-.007.016-.015.032-.022.048-.008.016-.015.032-.022.049-.104.233-.211.457-.318.67c0,.001-.001.002-.001.002-.201.397-.403.756-.593,1.073-.007.012-.014.023-.021.034-.089.148-.176.287-.259.415-.002.003-.004.006-.006.009-.002.004-.004.007-.006.01-.175.271-.332.496-.458.669c0,.001,0,.001-.001.002c0,0-.001.001-.001.002-.06.083-.112.152-.157.21-.006.007-.011.013-.016.02-.066.086-.113.144-.131.166-.004.006-.007.009-.008.01l-.032.037-.163.194v3.362c0,1.421.78,2.728,2.037,3.409l7.509,4.07c1.9,1.029,3.08,3.005,3.08,5.155Z" transform="translate(0-33)" clip-rule="evenodd" fill="url(#ejV7Nzn2DXy59-fill)" fill-rule="evenodd"/></g></g></g><g id="ejV7Nzn2DXy60" opacity="0"><path d="M614.005,107.936v-3.936h-2.547v3.835c0,.304-.025.482-.051.558-.05.102-.126.204-.277.356l-2.623,2.667-2.598-2.667c-.152-.152-.253-.254-.278-.356-.05-.076-.05-.254-.05-.558v-3.835h-2.523v3.936c0,.534.051.965.202,1.321.126.355.379.686.757,1.041l3.229,3.225v5.206h2.572v-5.206l3.229-3.225c.353-.355.605-.686.757-1.041.126-.356.201-.787.201-1.321Z" transform="translate(0-33)" fill="url(#ejV7Nzn2DXy61-fill)"/><path d="M628.679,115.326v-3.606c0-.965-.353-1.752-1.059-2.412-.706-.661-1.564-.991-2.573-.991h-3.632c-1.034,0-1.892.33-2.598.991-.706.66-1.034,1.447-1.034,2.412v3.606c0,.965.328,1.778,1.034,2.438.706.661,1.564.965,2.598.965h3.632c1.009,0,1.867-.304,2.573-.965.706-.66,1.059-1.473,1.059-2.438Zm-2.522.254c0,.254-.101.458-.252.61-.177.152-.379.228-.631.228h-4.086c-.252,0-.454-.076-.631-.254-.176-.152-.252-.355-.252-.584v-4.114c0-.203.076-.406.252-.584.177-.152.379-.254.631-.254h4.086c.252,0,.454.102.631.254.151.153.252.356.252.584v4.114Z" transform="translate(0-33)" fill="url(#ejV7Nzn2DXy62-fill)"/><path d="M642.937,118.729v-10.412h-2.522v5.867l-1.816,1.854c-.202.203-.378.33-.479.38-.101.051-.328.051-.631.051h-1.614c-.252,0-.454-.076-.631-.254-.176-.152-.252-.355-.252-.584v-7.314h-2.522v7.035c0,.99.328,1.803,1.009,2.438.655.635,1.513.939,2.572.939h1.716c.378,0,.731-.076,1.084-.254.353-.152.606-.304.757-.457.151-.127.429-.381.807-.762v1.473h2.522Z" transform="translate(0-33)" fill="url(#ejV7Nzn2DXy63-fill)"/><path d="M591.695,143.521v-1.829c0-.914-.328-1.625-.984-2.133.656-.508.984-1.27.984-2.311v-1.498c0-.991-.353-1.829-1.06-2.489-.706-.66-1.563-.99-2.572-.99h-7.063v14.729h7.063c1.009,0,1.866-.33,2.572-.99.707-.661,1.06-1.473,1.06-2.489Zm-2.573-6.298c0,.457-.076.787-.227.939-.151.153-.454.229-.908.229h-4.49v-3.835h4.742c.202,0,.404.127.606.33.176.203.277.432.277.686v1.651Zm0,6.501c0,.254-.101.508-.277.711-.202.203-.404.305-.606.305h-4.742v-4.038h4.591c.403,0,.656.101.807.254.151.178.227.508.227.965v1.803Z" transform="translate(0-33)" fill="url(#ejV7Nzn2DXy64-fill)"/><path d="M606.198,147v-10.412h-2.522v5.866l-1.816,1.854c-.202.203-.379.33-.48.381s-.328.051-.63.051h-1.615c-.252,0-.454-.076-.63-.254-.177-.153-.252-.356-.252-.584v-7.314h-2.523v7.034c0,.991.328,1.803,1.009,2.438.656.635,1.514.94,2.573.94h1.715c.379,0,.732-.076,1.085-.254.353-.152.605-.305.757-.457.151-.127.428-.381.807-.762v1.473h2.522Z" transform="translate(0-33)" fill="url(#ejV7Nzn2DXy65-fill)"/><path d="M614.93,134.836v-2.565h-2.673v2.565h2.673ZM617.049,147v-2.26h-2.169v-8.355h-4.641v2.285h2.119v6.07h-2.119v2.26h6.81Z" transform="translate(0-33)" fill="url(#ejV7Nzn2DXy66-fill)"/><path d="M627.395,147v-2.26h-2.144v-12.469h-4.667v2.26h2.144v10.209h-2.144v2.26h6.811Z" transform="translate(0-33)" fill="url(#ejV7Nzn2DXy67-fill)"/><path d="M641.502,147v-14.729h-2.523v5.51c-.353-.304-.605-.558-.782-.711-.201-.152-.454-.304-.807-.457-.353-.152-.706-.228-1.059-.228h-1.942c-1.034,0-1.892.304-2.573.965-.681.66-1.009,1.498-1.009,2.463v3.759c0,.99.328,1.803,1.009,2.463.656.66,1.513.965,2.573.965h7.113Zm-2.523-2.26h-4.767c-.252,0-.454-.076-.63-.254-.177-.153-.253-.356-.253-.61v-4.342c0-.203.076-.407.253-.584.176-.153.378-.254.63-.254h1.841c.303,0,.505.025.606.076s.277.178.53.381l1.79,1.574v4.013Z" transform="translate(0-33)" fill="url(#ejV7Nzn2DXy68-fill)"/><path d="M665,147v-2.362h-7.138L665,134.124v-1.853h-10.644v2.361h7.138l-7.138,10.514v1.854h10.644Z" transform="translate(0-33)" fill="url(#ejV7Nzn2DXy69-fill)"/></g><g id="ejV7Nzn2DXy70" transform="translate(.000001 0)" opacity="0"><path d="M828.271,200.963L790.16,178.955c-2.202-1.273-5.777-1.273-7.965,0L761.76,190.824c-2.188,1.273-2.174,3.346.028,4.619l38.111,22.009c2.202,1.272,5.778,1.272,7.966,0l20.421-11.87c2.202-1.273,2.188-3.346-.015-4.619Zm-48.379-8.709c1.344.772,3.504.772,4.834,0s1.315-2.031-.015-2.803c-1.344-.772-3.503-.772-4.833,0s-1.33,2.031.014,2.803Zm6.393.901c4.805-2.789,12.613-2.789,17.446,0c4.834,2.789,4.863,7.308.058,10.11-4.805,2.789-12.613,2.789-17.447,0-4.834-2.788-4.862-7.321-.057-10.11Zm14.608,4.591v-.001c.208-.067.415-.135.622-.2.286-.085.343-.214.186-.371-.2-.315-.472-.601-.815-.873-.217-.175-.328-.264-.322-.345.006-.085.138-.16.408-.313.371-.221.557-.332.556-.441s-.191-.216-.571-.431c-.057-.029-.11-.061-.164-.093v0v0c-.054-.032-.107-.064-.164-.093-.358-.2-.487-.2-.844,0-.157.086-.315.172-.472.272l-.022.012c-.206.119-.317.183-.435.201-.136.021-.282-.02-.598-.108l-.018-.005c-1.487-.4-2.888-.358-4.147.286-1.101.572-1.258,1.301-.915,2.102.143.334.375.642.607.95.116.154.232.309.337.466.129.186.229.357.257.558.086.586-.743.958-1.673.743-.357-.086-.672-.2-.944-.357-.024-.016-.049-.032-.075-.049v0v0v0v0v0v0c-.066-.042-.135-.086-.196-.137-.501-.386-.916-.787-1.159-1.244-.057-.1-.1-.158-.171-.201-.115-.057-.272-.042-.544.043-.186.057-.368.118-.55.179v0v0v0v0v0v0v0h-.001v0v0v0v0c-.182.061-.364.122-.55.179-.501.171-.543.243-.358.558.244.4.63.757,1.059,1.101.343.271.343.286-.072.529-.105.07-.216.135-.328.201v0c-.071.041-.143.083-.215.128-.229.143-.258.286-.014.429.057.036.114.068.171.1s.115.064.172.1c.086.043.168.089.25.136v0v0v0v0v0v0v0c.083.046.165.093.25.136.229.128.472.114.701-.015.053-.029.107-.059.162-.089.207-.114.418-.229.61-.354.243-.172.486-.172.815-.071.744.243,1.545.343,2.389.3c2.345-.129,3.803-1.459,3.131-2.803-.165-.354-.408-.689-.649-1.02v0c-.051-.07-.102-.14-.152-.21-.171-.243-.314-.472-.357-.729-.1-.501.615-.801,1.416-.615.229.057.4.129.586.229.086.043.172.085.243.128.558.315.973.701,1.244,1.144.058.086.115.143.172.186.114.058.272.043.529-.028.207-.065.415-.132.622-.2v0Zm9.288,9.209c-1.33.772-3.489.772-4.834,0-1.33-.772-1.344-2.031-.014-2.803s3.489-.772,4.834,0c1.344.772,1.358,2.031.014,2.803Zm-2.774,5.663c.343.2.629.415.872.643l12.341-7.15c-.4-.143-.786-.3-1.129-.5-2.246-1.287-2.246-3.39-.029-4.677.343-.2.701-.357,1.101-.5l-29.688-17.132c-.2.171-.414.329-.672.472-2.216,1.287-5.834,1.287-8.065,0-.243-.143-.458-.286-.644-.444l-12.198,7.094c.272.1.529.228.772.371c2.231,1.287,2.245,3.375.029,4.662-.258.143-.529.272-.815.386l29.587,17.09c.158-.115.301-.215.472-.315c2.217-1.287,5.835-1.287,8.066,0Zm-46.62-12.77c.972-.501,2.474-.429,3.403.114l39.842,22.995l21.536-12.527c.93-.543,2.46-.543,3.404,0s.944,1.43.014,1.973l-22.895,13.3c-1.116.658-2.946.658-4.076,0l-.801-.458-.557-.329-39.942-23.052c-.972-.558-.958-1.487.072-2.016Zm45.332,33.048l22.895-13.299c.944-.544.93-1.43-.014-1.959-.944-.544-2.46-.544-3.404,0L804.06,230.15l-39.827-22.995c-.93-.543-2.445-.615-3.404-.114-1.029.529-1.058,1.459-.085,2.016l39.941,23.053.572.329.786.457c1.13.658,2.961.658,4.076,0Z" transform="translate(0-33)" clip-rule="evenodd" fill="url(#ejV7Nzn2DXy71-fill)" fill-rule="evenodd"/></g><g id="ejV7Nzn2DXy72"><path id="ejV7Nzn2DXy73" d="M199.459,65.5c-3.009,0-5.29,2.5689-5.29,5.5362v133.9638L118,205c-.828,0-1.5.672-1.5,1.5s.672,1.5,1.5,1.5h76.169v133.964c0,2.967,2.281,5.536,5.29,5.536h85.751c3.009,0,5.29-2.569,5.29-5.536v-37.952-6.671-1.193h-3v1.193v6.671v37.952c0,1.491-1.113,2.536-2.29,2.536h-85.751c-1.177,0-2.29-1.045-2.29-2.536v-135.459-.005-.005-135.4588c0-1.491,1.113-2.5362,2.29-2.5362h85.751c1.242,0,2.29.9792,2.29,2.4029v.1734.1769.1804.1839.1874.1909.1943.1978.2012.2046.2081.2114.2148.2181.2215.2248.2281.2314.2347.238.2412.2444.2477.2509.254.2573.2604.2635.2667.2698.2729.276.279.2822.2851.2882.2912.2942.2972.3001.3031.3061.3089.3119.3148.3176.3205.3234.3262.329.3318.3346.3374.3401.3429.3456.3483.351.3538.3563.3591.3616.3643.367.3695.3721.3746.3772.3797.3823.3848.3872.3898.3922.3946.3971.3995.4019.4042.4067.409.4114.4136.416.4183.4206.4228.4251.4273.4296.4318.4339.4363.438.441.442.445.447.449.451.453.455.457.459.461.463.465.467.469.471.473.474.477.478.481.482.484.486.487.489.492.492.495.496.498.5.501.503.505.506.508.509.511.513.514.516.517.519.52.522.523.525.526.527.529.53.532.533.534.536.537.538.54.541.542.543.545.545.547.549.549.55.552.553.554.554.556.558.558.559.56.561.562.563.564.565.566.567.568.568.57.57.572.572.572.574.574.575.576.577.577.578.579.58.58.58.582.582.582.583.584.584.585.585.586.587.586.588.587.589.588.589.59.589.59.591.591.591.591.592.592.592.593.592.593.593.594.593.594.593.594.594.594.594.595.594.594.595.594.594.594.595.594.594.594.594.594.593.594.593.593.593.593.593.592.592.592.592.591.591.59.591.59.589.589.589.588.588.588.587.586.586.586.585.585.584.583.583.582.582.581.58.58.579.578.578.577.576.575.575.574.573.573.571.571.57.569.568.567.566.566.564.564.562.562.561.559.559.557.557.555.554.554.552.551.55.548.548.546.545.544.543.541.54.539.538.536.535.533.533.531.529.528.527.525.524.522.521.52.518.516.515.513.512.51.509.507.505.504.502.5.499.497.495.494.492.49.488.487.484.483.481.48.477.476.473.472.47.468.466.464.462.46.458.456.454.451.45.448.446.443.441.44.437.435.433.43.428.426.424.422.419.417.415.412.41.408.405.403.401.398.396.393.391.388.386.383.381.379.375.374.37.368.366.363.36.357.355.353.349.347.344.341.339.336.333.33.328.324.322.319.316.313.31.308.304.302.298.296.292.29.286.284.28.277.275.271.268.265.262.258.256.252.249.246.243.239.236.233.23.226.223.22.216.213.114h3v-.114-.213-.216-.22-.223-.226-.23-.233-.236-.239-.243-.246-.249-.252-.256-.258-.262-.265-.268-.271-.275-.277-.28-.284-.286-.29-.292-.296-.298-.302-.304-.308-.31-.313-.316-.319-.322-.324-.328-.33-.333-.336-.339-.341-.344-.347-.349-.353-.355-.357-.36-.363-.366-.368-.37-.374-.375-.379-.381-.383-.386-.388-.391-.393-.396-.398-.401-.403-.405-.408-.41-.412-.415-.417-.419-.422-.424-.426-.428-.43-.433-.435-.437-.44-.441-.443-.446-.448-.45-.451-.454-.456-.458-.46-.462-.464-.466-.468-.47-.472-.473-.476-.477-.48-.481-.483-.484-.487-.488-.49-.492-.494-.495-.497-.499-.5-.502-.504-.505-.507-.509-.51-.512-.513-.515-.516-.518-.52-.521-.522-.524-.525-.527-.528-.529-.531-.533-.533-.535-.536-.538-.539-.54-.541-.543-.544-.545-.546-.548-.548-.55-.551-.552-.554-.554-.555-.557-.557-.559-.559-.561-.562-.562-.564-.564-.566-.566-.567-.568-.569-.57-.571-.571-.573-.573-.574-.575-.575-.576-.577-.578-.578-.579-.58-.58-.581-.582-.582-.583-.583-.584-.585-.585-.586-.586-.586-.587-.588-.588-.588-.589-.589-.589-.59-.591-.59-.591-.591-.592-.592-.592-.592-.593-.593-.593-.593-.593-.594-.593-.594-.594-.594-.594-.594-.595-.594-.594-.594-.595-.594-.594-.595-.594-.594-.594-.594-.593-.594-.593-.594-.593-.593-.592-.593-.592-.592-.592-.591-.591-.591-.591-.59-.589-.59-.589-.588-.589-.587-.588-.586-.587-.586-.585-.585-.584-.584-.583-.582-.582-.582-.58-.58-.58-.579-.578-.577-.577-.576-.575-.574-.574-.572-.572-.572-.57-.57-.568-.568-.567-.566-.565-.564-.563-.562-.561-.56-.559-.558-.558-.556-.554-.554-.553-.552-.55-.549-.549-.547-.545-.545-.543-.542-.541-.54-.538-.537-.536-.534-.533-.532-.53-.529-.527-.526-.525-.523-.522-.52-.519-.517-.516-.514-.513-.511-.509-.508-.506-.505-.503-.501-.5-.498-.496-.495-.492-.492-.489-.487-.486-.484-.482-.481-.478-.477-.474-.473-.471-.469-.467-.465-.463-.461-.459-.457-.455-.453-.451-.449-.447-.445-.442-.441-.438-.4363-.4339-.4318-.4296-.4273-.4251-.4228-.4206-.4183-.416-.4136-.4114-.409-.4067-.4042-.4019-.3995-.3971-.3946-.3922-.3898-.3872-.3848-.3823-.3797-.3772-.3746-.3721-.3695-.367-.3643-.3616-.3591-.3563-.3538-.351-.3483-.3456-.3429-.3401-.3374-.3346-.3318-.329-.3262-.3234-.3205-.3176-.3148-.3119-.3089-.3061-.3031-.3001-.2972-.2942-.2912-.2882-.2851-.2822-.279-.276-.2729-.2698-.2667-.2635-.2604-.2573-.254-.2509-.2477-.2444-.2412-.238-.2347-.2314-.2281-.2248-.2215-.2181-.2148-.2114-.2081-.2046-.2012-.1978-.1943-.1909-.1874-.1839-.1804-.1769-.1734c0-3.0345-2.346-5.4029-5.29-5.4029h-85.751Z" transform="translate(0-33)" opacity="0" clip-rule="evenodd" fill="url(#ejV7Nzn2DXy73-fill)" fill-rule="evenodd"/></g></svg>
