<svg width="830" height="348" viewBox="0 0 830 348" fill="none" xmlns="http://www.w3.org/2000/svg">
<path fill-rule="evenodd" clip-rule="evenodd" d="M81.3055 234.871L73.2647 230.876C72.5063 230.499 72.035 229.741 72.035 228.898V226.071C72.2277 225.836 72.4306 225.57 72.6401 225.275C73.683 223.812 74.5188 222.182 75.1265 220.425C76.3142 219.884 77.0852 218.717 77.0852 217.4V214.055C77.0852 213.249 76.7822 212.469 76.2435 211.859V207.41C76.2906 206.95 76.4758 204.212 74.4826 201.953C72.7538 199.994 69.9484 199 66.143 199C62.3377 199 59.5323 199.994 57.8034 201.952C56.5956 203.321 56.189 204.864 56.0662 205.971C54.6235 205.23 52.9232 204.855 50.9924 204.855C42.2479 204.855 41.7387 212.261 41.7336 212.382V216.212C41.1882 216.802 40.8919 217.484 40.8919 218.16V221.049C40.8919 221.951 41.2985 222.793 41.9954 223.362C42.6898 225.963 44.3976 227.928 45.0626 228.618V230.912C45.0626 231.571 44.7023 232.174 44.0769 232.514L38.4771 236.004C36.3324 237.167 35 239.397 35 241.824V245H85.5022V241.619C85.5022 238.743 83.8937 236.157 81.3055 234.871ZM46.7839 241.455V243.327H36.6834V241.824C36.6834 240.009 37.68 238.342 39.3272 237.448L44.9262 233.957C46.0482 233.349 46.7451 232.184 46.7451 230.912V227.909L46.4775 227.661C46.4556 227.64 44.2192 225.541 43.5584 222.68L43.4818 222.349L43.194 222.165C42.8068 221.916 42.5753 221.498 42.5753 221.049V218.16C42.5753 217.859 42.7815 217.501 43.1401 217.178L43.417 216.93L43.4154 212.43C43.4305 212.19 43.869 206.527 50.9924 206.527C53.0066 206.527 54.7026 206.99 56.0426 207.902V211.859C55.5039 212.469 55.2009 213.249 55.2009 214.055V217.4C55.2009 217.654 55.2303 217.904 55.2859 218.147C55.2999 218.207 55.3225 218.263 55.345 218.32C55.3591 218.355 55.3732 218.39 55.3852 218.426C55.3968 218.461 55.4079 218.497 55.4189 218.532C55.4518 218.638 55.4848 218.745 55.5334 218.844C55.5342 218.846 55.535 218.847 55.5359 218.849C55.7514 219.29 56.0653 219.685 56.4609 220C56.4632 220.009 56.4658 220.017 56.4684 220.026C56.4695 220.029 56.4706 220.033 56.4717 220.036C56.4726 220.039 56.4735 220.042 56.4744 220.045C56.5249 220.237 56.5779 220.428 56.6351 220.614L56.7033 220.832C56.7106 220.856 56.7188 220.88 56.727 220.904C56.7321 220.919 56.7372 220.934 56.742 220.949L56.7619 221.01C56.7845 221.079 56.807 221.149 56.8304 221.217C56.8809 221.364 56.934 221.515 56.9954 221.68C57.0101 221.718 57.0256 221.755 57.0411 221.791C57.0532 221.82 57.0653 221.848 57.077 221.878C57.1461 222.053 57.2151 222.222 57.2875 222.389C57.2959 222.408 57.3038 222.428 57.3117 222.448C57.3203 222.47 57.3288 222.491 57.338 222.512L57.3851 222.617C57.3968 222.643 57.4087 222.668 57.4206 222.692C57.431 222.713 57.4414 222.735 57.4516 222.757C57.5341 222.936 57.6149 223.109 57.6991 223.276C57.7032 223.284 57.7072 223.293 57.7112 223.301C57.7138 223.307 57.7163 223.312 57.7188 223.318C57.7254 223.332 57.7319 223.346 57.7386 223.359C57.7799 223.44 57.8211 223.518 57.8623 223.596L57.8977 223.663C57.9886 223.835 58.0778 223.997 58.167 224.154C58.2108 224.231 58.2537 224.307 58.2967 224.379C58.4179 224.585 58.5332 224.774 58.6451 224.95C58.6567 224.968 58.668 224.986 58.6793 225.004C58.6918 225.024 58.7043 225.044 58.7167 225.063C58.9204 225.376 59.0971 225.631 59.2436 225.829C59.2823 225.882 59.316 225.927 59.3488 225.971C59.3673 225.995 59.3926 226.03 59.4086 226.052V228.82C59.4086 229.629 58.9641 230.372 58.2495 230.76L56.0224 231.967L55.6344 231.933L55.4761 232.263L50.7407 234.83C48.2998 236.155 46.7839 238.692 46.7839 241.455ZM48.4673 241.455V243.327H83.8188V241.619C83.8188 239.38 82.5672 237.367 80.5522 236.366L72.5114 232.372C71.1789 231.709 70.3516 230.379 70.3516 228.898V225.448L70.5611 225.211C70.7724 224.972 71.0157 224.66 71.2656 224.308C72.2858 222.878 73.0879 221.271 73.651 219.53L73.7857 219.116L74.2049 218.988C74.9203 218.769 75.4018 218.13 75.4018 217.4V214.055C75.4018 213.585 75.2014 213.148 74.8378 212.822L74.5601 212.573L74.5676 207.254L74.5679 207.252C74.5768 207.166 74.8166 204.852 73.2016 203.038C71.8052 201.468 69.4299 200.673 66.143 200.673C62.8444 200.673 60.4641 201.474 59.0694 203.056C57.7108 204.595 57.6747 206.446 57.7033 207.05L57.726 207.068V212.573L57.4482 212.821C57.0846 213.148 56.8843 213.585 56.8843 214.055V217.4C56.8843 217.965 57.1755 218.49 57.6637 218.803L57.9507 218.987L58.0273 219.318C58.0913 219.595 58.167 219.866 58.2462 220.13C58.2512 220.147 58.2571 220.164 58.2622 220.181L58.3085 220.33C58.3859 220.575 58.4667 220.812 58.5525 221.04C58.5942 221.151 58.6338 221.25 58.6726 221.348C58.6778 221.36 58.6829 221.373 58.6881 221.386C58.6937 221.4 58.6993 221.414 58.7049 221.428C58.7161 221.456 58.7273 221.484 58.7386 221.512C58.7857 221.624 58.832 221.734 58.8783 221.839C58.8854 221.855 58.8928 221.871 58.9002 221.887C58.9075 221.903 58.9149 221.919 58.9221 221.936C59.0264 222.169 59.1333 222.393 59.2402 222.606C59.2402 222.607 59.2411 222.608 59.2411 222.608C59.4422 223.005 59.6442 223.364 59.8345 223.681C59.8412 223.693 59.8479 223.704 59.8547 223.715C59.9439 223.863 60.0314 224.002 60.1139 224.13C60.116 224.133 60.1179 224.136 60.1198 224.139C60.1217 224.143 60.1236 224.146 60.1257 224.149C60.3008 224.42 60.4582 224.645 60.5836 224.818C60.584 224.819 60.5844 224.819 60.5848 224.82C60.5853 224.82 60.5857 224.821 60.5861 224.822C60.6459 224.905 60.6981 224.974 60.7427 225.032C60.7486 225.039 60.7536 225.045 60.7587 225.052C60.8253 225.138 60.8717 225.196 60.8895 225.218C60.8944 225.224 60.8972 225.227 60.8975 225.228L60.9295 225.265L61.0928 225.459V228.821C61.0928 230.242 60.3126 231.549 59.0559 232.23L51.5471 236.3C49.6473 237.329 48.4673 239.305 48.4673 241.455Z" fill="url(#paint0_linear_1291_4401)"/>
<path fill-rule="evenodd" clip-rule="evenodd" d="M50.6945 234.871L58.7353 230.876C59.4937 230.499 59.965 229.741 59.965 228.898V226.071C59.7723 225.836 59.5694 225.57 59.3599 225.275C58.317 223.812 57.4812 222.182 56.8735 220.425C55.6858 219.884 54.9148 218.717 54.9148 217.4V214.055C54.9148 213.249 55.2178 212.469 55.7565 211.859V207.41C55.7094 206.95 55.5242 204.212 57.5174 201.953C59.2462 199.994 62.0516 199 65.857 199C69.6623 199 72.4677 199.994 74.1966 201.952C75.4044 203.321 75.811 204.864 75.9338 205.971C77.3765 205.23 79.0768 204.855 81.0076 204.855C89.7521 204.855 90.2613 212.261 90.2664 212.382V216.212C90.8118 216.802 91.1081 217.484 91.1081 218.16V221.049C91.1081 221.951 90.7015 222.793 90.0046 223.362C89.3102 225.963 87.6024 227.928 86.9374 228.618V230.912C86.9374 231.571 87.2977 232.174 87.9231 232.514L93.5229 236.004C95.6676 237.167 97 239.397 97 241.824V245H46.4978V241.619C46.4978 238.743 48.1063 236.157 50.6945 234.871ZM85.2161 241.455V243.327H95.3166V241.824C95.3166 240.009 94.32 238.342 92.6728 237.448L87.0738 233.957C85.9518 233.349 85.2549 232.184 85.2549 230.912V227.909L85.5225 227.661C85.5444 227.64 87.7808 225.541 88.4416 222.68L88.5181 222.349L88.806 222.165C89.1932 221.916 89.4247 221.498 89.4247 221.049V218.16C89.4247 217.859 89.2184 217.501 88.8599 217.178L88.583 216.93L88.5846 212.43C88.5695 212.19 88.131 206.527 81.0076 206.527C78.9934 206.527 77.2974 206.99 75.9574 207.902V211.859C76.4961 212.469 76.7991 213.249 76.7991 214.055V217.4C76.7991 217.654 76.7696 217.904 76.7141 218.147C76.7001 218.207 76.6775 218.263 76.655 218.32C76.6409 218.355 76.6268 218.39 76.6148 218.426C76.6032 218.461 76.5921 218.497 76.5811 218.532C76.5482 218.638 76.5151 218.745 76.4666 218.844C76.4658 218.846 76.465 218.847 76.4641 218.849C76.2486 219.29 75.9347 219.685 75.5391 220C75.5368 220.009 75.5342 220.017 75.5316 220.026C75.5305 220.029 75.5294 220.033 75.5283 220.036C75.5274 220.039 75.5265 220.042 75.5256 220.045C75.4751 220.237 75.4221 220.428 75.3648 220.614L75.2967 220.832C75.2894 220.856 75.2812 220.88 75.273 220.904C75.2679 220.919 75.2628 220.934 75.258 220.949L75.2381 221.01C75.2155 221.079 75.193 221.149 75.1696 221.217C75.1191 221.364 75.066 221.515 75.0046 221.68C74.9899 221.718 74.9744 221.755 74.9589 221.791C74.9468 221.82 74.9347 221.848 74.923 221.878C74.8539 222.053 74.7849 222.222 74.7125 222.389C74.7041 222.408 74.6962 222.428 74.6883 222.448C74.6797 222.47 74.6712 222.491 74.662 222.512L74.6149 222.617C74.6032 222.643 74.5913 222.668 74.5794 222.692C74.569 222.713 74.5586 222.735 74.5484 222.757C74.4659 222.936 74.3851 223.109 74.3009 223.276C74.2968 223.284 74.2928 223.293 74.2888 223.301C74.2862 223.307 74.2837 223.312 74.2812 223.318C74.2746 223.332 74.2681 223.346 74.2614 223.359C74.2201 223.44 74.1789 223.518 74.1377 223.596L74.1023 223.663C74.0114 223.835 73.9222 223.997 73.8329 224.154C73.7892 224.231 73.7462 224.307 73.7033 224.379C73.5821 224.585 73.4668 224.774 73.3549 224.95C73.3433 224.968 73.332 224.986 73.3207 225.004C73.3082 225.024 73.2957 225.044 73.2833 225.063C73.0796 225.376 72.9029 225.631 72.7564 225.829C72.7177 225.882 72.684 225.927 72.6512 225.971C72.6327 225.995 72.6074 226.03 72.5914 226.052V228.82C72.5914 229.629 73.0359 230.372 73.7505 230.76L75.9776 231.967L76.3656 231.933L76.5239 232.263L81.2593 234.83C83.7002 236.155 85.2161 238.692 85.2161 241.455ZM83.5327 241.455V243.327H48.1812V241.619C48.1812 239.38 49.4328 237.367 51.4478 236.366L59.4886 232.372C60.8211 231.709 61.6484 230.379 61.6484 228.898V225.448L61.4389 225.211C61.2276 224.972 60.9843 224.66 60.7344 224.308C59.7142 222.878 58.9121 221.271 58.349 219.53L58.2143 219.116L57.7951 218.988C57.0797 218.769 56.5982 218.13 56.5982 217.4V214.055C56.5982 213.585 56.7985 213.148 57.1622 212.822L57.4399 212.573L57.4324 207.254L57.4321 207.252C57.4232 207.166 57.1834 204.852 58.7984 203.038C60.1948 201.468 62.5701 200.673 65.857 200.673C69.1556 200.673 71.5359 201.474 72.9306 203.056C74.2892 204.595 74.3253 206.446 74.2967 207.05L74.274 207.068V212.573L74.5518 212.821C74.9154 213.148 75.1157 213.585 75.1157 214.055V217.4C75.1157 217.965 74.8245 218.49 74.3363 218.803L74.0493 218.987L73.9727 219.318C73.9087 219.595 73.8329 219.866 73.7538 220.13C73.7488 220.147 73.7429 220.164 73.7378 220.181L73.6915 220.33C73.6141 220.575 73.5333 220.812 73.4474 221.04C73.4058 221.151 73.3662 221.25 73.3274 221.348C73.3222 221.36 73.3171 221.373 73.3119 221.386C73.3063 221.4 73.3007 221.414 73.2951 221.428C73.2839 221.456 73.2727 221.484 73.2614 221.512C73.2143 221.624 73.168 221.734 73.1217 221.839C73.1146 221.855 73.1072 221.871 73.0998 221.887C73.0925 221.903 73.0851 221.919 73.0779 221.936C72.9736 222.169 72.8667 222.393 72.7598 222.606C72.7598 222.607 72.7589 222.608 72.7589 222.608C72.5578 223.005 72.3558 223.364 72.1655 223.681C72.1588 223.693 72.1521 223.704 72.1453 223.715C72.0561 223.863 71.9686 224.002 71.8861 224.13C71.884 224.133 71.8821 224.136 71.8802 224.139C71.8783 224.143 71.8764 224.146 71.8743 224.149C71.6992 224.42 71.5418 224.645 71.4164 224.818C71.416 224.819 71.4156 224.819 71.4152 224.82C71.4147 224.82 71.4143 224.821 71.4139 224.822C71.3541 224.905 71.3019 224.974 71.2573 225.032C71.2514 225.039 71.2464 225.045 71.2413 225.052C71.1747 225.138 71.1283 225.196 71.1105 225.218C71.1056 225.224 71.1028 225.227 71.1025 225.228L71.0705 225.265L70.9072 225.459V228.821C70.9072 230.242 71.6874 231.549 72.9441 232.23L80.4529 236.3C82.3527 237.329 83.5327 239.305 83.5327 241.455Z" fill="url(#paint1_linear_1291_4401)"/>
<path d="M65.2315 113.65V104H62.6505V113.676C62.6505 113.904 62.6004 114.133 62.5252 114.387C62.425 114.641 62.3498 114.819 62.2496 114.971C62.1494 115.123 62.0241 115.352 61.8737 115.606C61.6983 115.885 61.573 116.063 61.5229 116.164L60.4203 114.539C60.1698 114.184 60.0695 113.853 60.0695 113.6V107.86H57.5637V113.6C57.5637 113.904 57.3382 114.387 56.9122 114.996C56.4862 115.631 56.2356 116.063 56.1855 116.266C56.1103 116.164 55.9851 115.987 55.8096 115.682C55.6092 115.403 55.4839 115.174 55.3837 115.022C55.2834 114.869 55.2082 114.641 55.108 114.387C55.0078 114.133 54.9827 113.904 54.9827 113.676V104H52.4017V113.65C52.4017 114.463 52.7024 115.326 53.3038 116.215L54.9577 118.729H57.238L58.8166 116.164L60.4203 118.729H62.6756L64.3545 116.215C64.9308 115.301 65.2315 114.463 65.2315 113.65Z" fill="url(#paint2_linear_1291_4401)"/>
<path d="M79.712 114.768V111.695C79.712 110.73 79.3612 109.917 78.7097 109.282C78.0331 108.647 77.1811 108.317 76.1537 108.317H72.7959C71.7435 108.317 70.8915 108.647 70.24 109.282C69.5634 109.917 69.2377 110.73 69.2377 111.695V115.352C69.2377 116.342 69.5634 117.155 70.24 117.79C70.8915 118.425 71.7435 118.729 72.7959 118.729H78.3839V116.469H72.6205C72.37 116.469 72.1695 116.393 71.9941 116.215C71.8187 116.063 71.7435 115.86 71.7435 115.631V114.768H79.712ZM77.2062 112.558H71.7435V111.492C71.7435 111.289 71.8187 111.085 71.9941 110.908C72.1695 110.755 72.37 110.654 72.6205 110.654H76.3291C76.5797 110.654 76.7802 110.755 76.9556 110.908C77.1059 111.06 77.2062 111.263 77.2062 111.492V112.558Z" fill="url(#paint3_linear_1291_4401)"/>
<path d="M35.8298 141.921V132.271H33.2488V141.946C33.2488 142.175 33.1987 142.403 33.1235 142.657C33.0233 142.911 32.9481 143.089 32.8479 143.241C32.7476 143.394 32.6223 143.622 32.472 143.876C32.2966 144.156 32.1713 144.333 32.1212 144.435L31.0186 142.81C30.768 142.454 30.6678 142.124 30.6678 141.87V136.131H28.162V141.87C28.162 142.175 27.9365 142.657 27.5105 143.267C27.0845 143.902 26.8339 144.333 26.7838 144.537C26.7086 144.435 26.5833 144.257 26.4079 143.953C26.2074 143.673 26.0822 143.445 25.9819 143.292C25.8817 143.14 25.8065 142.911 25.7063 142.657C25.606 142.403 25.581 142.175 25.581 141.946V132.271H23V141.921C23 142.734 23.3007 143.597 23.9021 144.486L25.5559 147H27.8362L29.4149 144.435L31.0186 147H33.2738L34.9527 144.486C35.5291 143.572 35.8298 142.734 35.8298 141.921Z" fill="url(#paint4_linear_1291_4401)"/>
<path d="M49.8091 139.813C49.8091 138.95 49.4583 138.188 48.8068 137.553C48.1302 136.918 47.3283 136.588 46.3761 136.588H41.1891V138.924H45.9251C46.4764 138.924 46.8272 139 47.0276 139.153C47.203 139.305 47.3033 139.584 47.3033 139.991V140.626L42.868 140.651C41.8657 140.651 41.0137 140.956 40.3371 141.565C39.6605 142.175 39.3348 142.886 39.3348 143.724C39.3348 144.638 39.6605 145.4 40.3371 146.035C40.9886 146.695 41.8406 147 42.893 147H49.8091V139.813ZM47.3033 144.74H42.6926C42.442 144.74 42.2415 144.664 42.0661 144.46C41.8907 144.283 41.8155 144.054 41.8155 143.8C41.8155 143.546 41.9158 143.318 42.1162 143.14C42.3167 142.962 42.5422 142.861 42.7928 142.861H47.3033V144.74Z" fill="url(#paint5_linear_1291_4401)"/>
<path d="M64.3082 147V139.838C64.3082 138.873 63.9824 138.112 63.3309 137.502C62.6794 136.893 61.8525 136.588 60.8502 136.588H58.9959C58.7954 136.588 58.62 136.613 58.4195 136.664C58.219 136.715 58.0687 136.766 57.9434 136.816C57.8181 136.867 57.6678 136.969 57.4924 137.096C57.2919 137.248 57.1666 137.35 57.0914 137.4C57.0163 137.451 56.8659 137.578 56.6654 137.756C56.465 137.959 56.3397 138.061 56.3146 138.086V136.588H53.8088V147H56.3146V140.88L58.1689 139.331C58.3694 139.127 58.5448 139 58.6701 138.95C58.7703 138.899 58.9708 138.873 59.2715 138.873H60.9253C61.1509 138.873 61.3513 138.975 61.5267 139.127C61.7021 139.305 61.8024 139.508 61.8024 139.711V147H64.3082Z" fill="url(#paint6_linear_1291_4401)"/>
<path d="M78.7943 143.572V142.53H76.2384V143.8C76.2384 144.029 76.1382 144.232 75.9628 144.384C75.7874 144.562 75.5869 144.638 75.3614 144.638H73.3066C73.056 144.638 72.8556 144.562 72.6801 144.384C72.5047 144.232 72.4296 144.029 72.4296 143.8V138.696H74.9354V136.385H72.4296V132.271H69.9238V136.385H67.8189V138.696H69.9238V143.572C69.9238 144.562 70.2495 145.375 70.9261 146.035C71.5776 146.695 72.4296 147 73.457 147H75.2361C76.2635 147 77.1154 146.695 77.792 146.035C78.4435 145.375 78.7943 144.562 78.7943 143.572Z" fill="url(#paint7_linear_1291_4401)"/>
<path d="M101.464 135.597V132.271H98.8834V135.445C98.8834 135.826 98.7079 136.156 98.4072 136.41L96.2272 138.315L93.4708 136.308C93.2954 136.207 93.1951 136.08 93.1701 135.978C93.12 135.877 93.12 135.699 93.12 135.445V132.271H90.564V135.521C90.564 136.639 90.9399 137.451 91.7418 138.01L93.7715 139.534L91.6917 141.286C91.2406 141.692 90.9399 142.073 90.7896 142.454C90.6392 142.861 90.564 143.368 90.564 144.029V147H93.12V144.13C93.12 143.724 93.145 143.47 93.1951 143.343C93.2453 143.216 93.3706 143.064 93.571 142.886L95.8012 140.981L98.4072 142.886C98.6077 143.038 98.733 143.191 98.7831 143.292C98.8332 143.394 98.8583 143.648 98.8583 144.029V147H101.439V143.826C101.439 143.191 101.339 142.683 101.189 142.302C101.013 141.946 100.713 141.591 100.287 141.261L98.2569 139.762L100.236 138.086C100.662 137.731 100.963 137.375 101.164 137.02C101.364 136.664 101.464 136.207 101.464 135.597Z" fill="url(#paint8_linear_1291_4401)"/>
<path d="M109 132.271H105.592V136.105L106.068 142.937H108.524L109 136.105V132.271ZM108.749 147V144.156H105.793V147H108.749Z" fill="url(#paint9_linear_1291_4401)"/>
<path fill-rule="evenodd" clip-rule="evenodd" d="M2 88.7838C2 86.6941 3.69926 85 5.79539 85H126.205C128.301 85 130 86.6941 130 88.7838V162.816C130 164.906 128.301 166.6 126.205 166.6H84.091L66 190L48.2748 166.6H5.79539C3.69926 166.6 2 164.906 2 162.816V88.7838Z" stroke="url(#paint10_linear_1291_4401)" stroke-width="3"/>
<path d="M189.719 2.36179V0H178.286V2.36179H182.654V14.7294H185.325V2.36179H189.719Z" fill="url(#paint11_linear_1291_4401)"/>
<path d="M201.901 10.7677V7.69486C201.901 6.72983 201.552 5.91717 200.903 5.28228C200.229 4.64739 199.38 4.31725 198.356 4.31725H195.012C193.963 4.31725 193.114 4.64739 192.465 5.28228C191.792 5.91717 191.467 6.72983 191.467 7.69486V11.3518C191.467 12.3423 191.792 13.1549 192.465 13.7898C193.114 14.4247 193.963 14.7294 195.012 14.7294H200.578V12.4692H194.837C194.587 12.4692 194.388 12.393 194.213 12.2153C194.038 12.0629 193.963 11.8597 193.963 11.6312V10.7677H201.901ZM199.405 8.55831H193.963V7.4917C193.963 7.28853 194.038 7.08537 194.213 6.9076C194.388 6.75523 194.587 6.65364 194.837 6.65364H198.531C198.781 6.65364 198.98 6.75523 199.155 6.9076C199.305 7.05997 199.405 7.26314 199.405 7.4917V8.55831Z" fill="url(#paint12_linear_1291_4401)"/>
<path d="M215.908 11.5042C215.908 10.6915 215.558 9.98047 214.909 9.37097C214.235 8.76148 213.411 8.45673 212.413 8.43134C212.188 8.43134 211.814 8.45673 211.315 8.45673C210.815 8.45673 210.391 8.45673 210.092 8.45673C209.792 8.45673 209.443 8.43134 209.093 8.38054C208.719 8.32975 208.444 8.25357 208.269 8.10119C208.095 7.94882 208.02 7.77105 208.02 7.51709C208.02 7.26314 208.095 7.05997 208.269 6.8822C208.444 6.72983 208.644 6.62825 208.893 6.62825H215.034V4.31725H209.068C208.02 4.31725 207.171 4.64739 206.522 5.28228C205.848 5.94257 205.524 6.70444 205.524 7.59328C205.524 8.48213 205.873 9.2186 206.572 9.7773C207.271 10.336 208.17 10.6408 209.218 10.6661L212.438 10.7677C213.087 10.8185 213.411 11.0725 213.411 11.5804C213.411 11.8343 213.312 12.0375 213.137 12.1899C212.962 12.3423 212.762 12.4184 212.538 12.4184H206.272V14.7294H212.363C213.387 14.7294 214.235 14.4247 214.909 13.7898C215.558 13.1549 215.908 12.393 215.908 11.5042Z" fill="url(#paint13_linear_1291_4401)"/>
<path d="M229.959 11.301V10.2598H227.412V11.5296C227.412 11.7582 227.313 11.9613 227.138 12.1137C226.963 12.2915 226.763 12.3677 226.539 12.3677H224.492C224.242 12.3677 224.043 12.2915 223.868 12.1137C223.693 11.9613 223.618 11.7582 223.618 11.5296V6.42508H226.114V4.11409H223.618V0H221.122V4.11409H219.025V6.42508H221.122V11.301C221.122 12.2915 221.447 13.1041 222.121 13.7644C222.77 14.4247 223.618 14.7294 224.642 14.7294H226.414C227.437 14.7294 228.286 14.4247 228.96 13.7644C229.609 13.1041 229.959 12.2915 229.959 11.301Z" fill="url(#paint14_linear_1291_4401)"/>
<path d="M248.423 14.7294V12.4184H246.301V2.311H248.423V0H241.683V2.311H243.78V12.4184H241.683V14.7294H248.423Z" fill="url(#paint15_linear_1291_4401)"/>
<path d="M262.993 14.7294V0H260.496V5.51084C260.147 5.2061 259.897 4.95214 259.723 4.79977C259.523 4.64739 259.273 4.49502 258.924 4.34265C258.574 4.19027 258.225 4.11409 257.875 4.11409H255.953C254.93 4.11409 254.081 4.41883 253.407 5.07912C252.733 5.7394 252.409 6.57746 252.409 7.54249V11.301C252.409 12.2915 252.733 13.1041 253.407 13.7644C254.056 14.4247 254.905 14.7294 255.953 14.7294H262.993ZM260.496 12.4692H255.779C255.529 12.4692 255.329 12.393 255.155 12.2153C254.98 12.0629 254.905 11.8597 254.905 11.6058V7.26314C254.905 7.05997 254.98 6.85681 255.155 6.67904C255.329 6.52667 255.529 6.42508 255.779 6.42508H257.601C257.9 6.42508 258.1 6.45048 258.2 6.50127C258.3 6.55206 258.474 6.67904 258.724 6.8822L260.496 8.45673V12.4692Z" fill="url(#paint16_linear_1291_4401)"/>
<path d="M277.42 10.7677V7.69486C277.42 6.72983 277.071 5.91717 276.422 5.28228C275.748 4.64739 274.899 4.31725 273.875 4.31725H270.531C269.482 4.31725 268.633 4.64739 267.984 5.28228C267.31 5.91717 266.986 6.72983 266.986 7.69486V11.3518C266.986 12.3423 267.31 13.1549 267.984 13.7898C268.633 14.4247 269.482 14.7294 270.531 14.7294H276.097V12.4692H270.356C270.106 12.4692 269.907 12.393 269.732 12.2153C269.557 12.0629 269.482 11.8597 269.482 11.6312V10.7677H277.42ZM274.924 8.55831H269.482V7.4917C269.482 7.28853 269.557 7.08537 269.732 6.9076C269.907 6.75523 270.106 6.65364 270.356 6.65364H274.05C274.3 6.65364 274.499 6.75523 274.674 6.9076C274.824 7.05997 274.924 7.26314 274.924 7.4917V8.55831Z" fill="url(#paint17_linear_1291_4401)"/>
<path d="M291.352 7.54249C291.352 6.67904 291.002 5.91717 290.353 5.28228C289.679 4.64739 288.881 4.31725 287.932 4.31725H282.765V6.65364H287.483C288.032 6.65364 288.381 6.72983 288.581 6.8822C288.756 7.03458 288.856 7.31393 288.856 7.72026V8.35515L284.437 8.38054C283.439 8.38054 282.59 8.68529 281.916 9.29478C281.242 9.90428 280.918 10.6154 280.918 11.4534C280.918 12.3677 281.242 13.1295 281.916 13.7644C282.565 14.4247 283.414 14.7294 284.462 14.7294H291.352V7.54249ZM288.856 12.4692H284.263C284.013 12.4692 283.813 12.393 283.639 12.1899C283.464 12.0121 283.389 11.7836 283.389 11.5296C283.389 11.2756 283.489 11.0471 283.689 10.8693C283.888 10.6915 284.113 10.59 284.362 10.59H288.856V12.4692Z" fill="url(#paint18_linear_1291_4401)"/>
<path d="M305.346 11.5042C305.346 10.6915 304.996 9.98047 304.347 9.37097C303.673 8.76148 302.85 8.45673 301.851 8.43134C301.626 8.43134 301.252 8.45673 300.753 8.45673C300.254 8.45673 299.829 8.45673 299.53 8.45673C299.23 8.45673 298.881 8.43134 298.531 8.38054C298.157 8.32975 297.882 8.25357 297.707 8.10119C297.533 7.94882 297.458 7.77105 297.458 7.51709C297.458 7.26314 297.533 7.05997 297.707 6.8822C297.882 6.72983 298.082 6.62825 298.331 6.62825H304.472V4.31725H298.506C297.458 4.31725 296.609 4.64739 295.96 5.28228C295.286 5.94257 294.962 6.70444 294.962 7.59328C294.962 8.48213 295.311 9.2186 296.01 9.7773C296.709 10.336 297.608 10.6408 298.656 10.6661L301.876 10.7677C302.525 10.8185 302.85 11.0725 302.85 11.5804C302.85 11.8343 302.75 12.0375 302.575 12.1899C302.4 12.3423 302.201 12.4184 301.976 12.4184H295.711V14.7294H301.801C302.825 14.7294 303.673 14.4247 304.347 13.7898C304.996 13.1549 305.346 12.393 305.346 11.5042Z" fill="url(#paint19_linear_1291_4401)"/>
<path d="M182.74 43V40.689H180.618V30.5816H182.74V28.2706H176V30.5816H178.097V40.689H176V43H182.74Z" fill="url(#paint20_linear_1291_4401)"/>
<path d="M197.185 43V35.8384C197.185 34.8734 196.86 34.1115 196.211 33.502C195.562 32.8926 194.738 32.5878 193.74 32.5878H191.893C191.693 32.5878 191.518 32.6132 191.319 32.664C191.119 32.7148 190.969 32.7656 190.844 32.8164C190.72 32.8672 190.57 32.9687 190.395 33.0957C190.195 33.2481 190.071 33.3497 189.996 33.4005C189.921 33.4513 189.771 33.5782 189.571 33.756C189.372 33.9592 189.247 34.0608 189.222 34.0861V32.5878H186.726V43H189.222V36.8797L191.069 35.3305C191.269 35.1274 191.444 35.0004 191.568 34.9496C191.668 34.8988 191.868 34.8734 192.167 34.8734H193.815C194.04 34.8734 194.239 34.975 194.414 35.1274C194.589 35.3051 194.689 35.5083 194.689 35.7115V43H197.185Z" fill="url(#paint21_linear_1291_4401)"/>
<path d="M209.568 36.6257V34.3147H201.556V36.6257H209.568Z" fill="url(#paint22_linear_1291_4401)"/>
<path d="M224.464 33.4005V31.699C224.464 30.7339 224.115 29.9213 223.466 29.261C222.792 28.6007 221.943 28.2706 220.919 28.2706H213.93V43H216.426V36.8543H220.919C221.918 36.8543 222.767 36.5495 223.441 35.8892C224.115 35.2289 224.464 34.4163 224.464 33.4005ZM221.968 33.5782C221.968 33.8322 221.868 34.0354 221.693 34.2131C221.518 34.4163 221.319 34.4925 221.094 34.4925H216.426V30.5816H221.094C221.319 30.5816 221.518 30.6831 221.693 30.8609C221.868 31.0641 221.968 31.2672 221.968 31.5212V33.5782Z" fill="url(#paint23_linear_1291_4401)"/>
<path d="M238.05 36.9558V35.94C238.05 34.975 237.7 34.1877 237.026 33.5274C236.352 32.8926 235.504 32.5878 234.505 32.5878H233.207C233.008 32.5878 232.858 32.6132 232.708 32.6132C232.558 32.6386 232.408 32.6894 232.284 32.7402C232.134 32.791 232.034 32.8418 231.934 32.8926C231.834 32.9433 231.734 33.0195 231.61 33.1211C231.485 33.2227 231.385 33.2989 231.335 33.3497C231.285 33.4005 231.185 33.5274 231.036 33.6798C230.886 33.8322 230.761 33.9338 230.711 33.9846V32.5878H228.215V43H230.711V36.9051L232.383 35.3559C232.608 35.1528 232.783 35.0512 232.883 35.0004C232.983 34.9496 233.182 34.9242 233.507 34.9242H234.63C234.855 34.9242 235.054 35.0258 235.229 35.1782C235.404 35.3559 235.504 35.5591 235.504 35.7623V36.9558H238.05Z" fill="url(#paint24_linear_1291_4401)"/>
<path d="M251.693 39.597V35.9908C251.693 35.0258 251.343 34.2385 250.644 33.5782C249.945 32.918 249.097 32.5878 248.098 32.5878H244.504C243.48 32.5878 242.632 32.918 241.933 33.5782C241.234 34.2385 240.909 35.0258 240.909 35.9908V39.597C240.909 40.562 241.234 41.3747 241.933 42.035C242.632 42.6953 243.48 43 244.504 43H248.098C249.097 43 249.945 42.6953 250.644 42.035C251.343 41.3747 251.693 40.562 251.693 39.597ZM249.197 39.8509C249.197 40.1049 249.097 40.3081 248.947 40.4604C248.772 40.6128 248.573 40.689 248.323 40.689H244.279C244.029 40.689 243.83 40.6128 243.655 40.435C243.48 40.2827 243.405 40.0795 243.405 39.8509V35.7369C243.405 35.5337 243.48 35.3305 243.655 35.1528C243.83 35.0004 244.029 34.8988 244.279 34.8988H248.323C248.573 34.8988 248.772 35.0004 248.947 35.1528C249.097 35.3051 249.197 35.5083 249.197 35.7369V39.8509Z" fill="url(#paint25_linear_1291_4401)"/>
<path d="M266.027 43V28.2706H263.531V33.7814C263.182 33.4767 262.932 33.2227 262.757 33.0703C262.558 32.918 262.308 32.7656 261.959 32.6132C261.609 32.4608 261.26 32.3846 260.91 32.3846H258.988C257.965 32.3846 257.116 32.6894 256.442 33.3497C255.768 34.01 255.444 34.848 255.444 35.813V39.5716C255.444 40.562 255.768 41.3747 256.442 42.035C257.091 42.6953 257.94 43 258.988 43H266.027ZM263.531 40.7398H258.813C258.564 40.7398 258.364 40.6636 258.189 40.4858C258.015 40.3335 257.94 40.1303 257.94 39.8763V35.5337C257.94 35.3305 258.015 35.1274 258.189 34.9496C258.364 34.7972 258.564 34.6956 258.813 34.6956H260.636C260.935 34.6956 261.135 34.721 261.235 34.7718C261.335 34.8226 261.509 34.9496 261.759 35.1528L263.531 36.7273V40.7398Z" fill="url(#paint26_linear_1291_4401)"/>
<path d="M280.38 43V32.5878H277.884V38.4542L276.087 40.3081C275.887 40.5112 275.712 40.6382 275.612 40.689C275.512 40.7398 275.288 40.7398 274.988 40.7398H273.391C273.141 40.7398 272.941 40.6636 272.767 40.4858C272.592 40.3335 272.517 40.1303 272.517 39.9017V32.5878H270.021V39.6224C270.021 40.6128 270.345 41.4255 271.019 42.0604C271.668 42.6953 272.517 43 273.565 43H275.263C275.637 43 275.987 42.9238 276.336 42.746C276.686 42.5937 276.935 42.4413 277.085 42.2889C277.235 42.1619 277.509 41.908 277.884 41.5271V43H280.38Z" fill="url(#paint27_linear_1291_4401)"/>
<path d="M294.563 36.9812V35.7877C294.563 34.7972 294.239 34.01 293.615 33.4513C292.966 32.8926 292.117 32.5878 291.019 32.5878H287.923C286.875 32.5878 286.026 32.918 285.377 33.5528C284.703 34.1877 284.379 35.0004 284.379 35.9654V39.597C284.379 40.562 284.703 41.3747 285.377 42.035C286.051 42.6953 286.9 43 287.923 43H293.59V40.689H287.749C287.499 40.689 287.299 40.6128 287.125 40.435C286.95 40.2827 286.875 40.0795 286.875 39.8509V35.7369C286.875 35.5337 286.95 35.3305 287.125 35.1528C287.299 35.0004 287.499 34.8988 287.749 34.8988H291.193C291.493 34.8988 291.718 34.975 291.867 35.102C291.992 35.229 292.067 35.4321 292.067 35.7369V36.9812H294.563Z" fill="url(#paint28_linear_1291_4401)"/>
<path d="M309 39.5716V38.5304H306.454V39.8002C306.454 40.0287 306.354 40.2319 306.179 40.3843C306.005 40.562 305.805 40.6382 305.58 40.6382H303.533C303.284 40.6382 303.084 40.562 302.909 40.3843C302.735 40.2319 302.66 40.0287 302.66 39.8002V34.6956H305.156V32.3846H302.66V28.2706H300.164V32.3846H298.067V34.6956H300.164V39.5716C300.164 40.562 300.488 41.3747 301.162 42.035C301.811 42.6953 302.66 43 303.683 43H305.455C306.479 43 307.328 42.6953 308.002 42.035C308.651 41.3747 309 40.562 309 39.5716Z" fill="url(#paint29_linear_1291_4401)"/>
<path d="M248 114.84V111H245.159V114.664C245.159 115.103 244.966 115.484 244.634 115.778L242.234 117.976L239.2 115.66C239.007 115.543 238.897 115.397 238.869 115.279C238.814 115.162 238.814 114.957 238.814 114.664V111H236V114.752C236 116.041 236.414 116.979 237.297 117.624L239.531 119.383L237.241 121.405C236.745 121.874 236.414 122.314 236.248 122.753C236.083 123.222 236 123.809 236 124.571V128H238.814V124.688C238.814 124.219 238.841 123.926 238.897 123.779C238.952 123.633 239.09 123.457 239.31 123.252L241.766 121.053L244.634 123.252C244.855 123.428 244.993 123.603 245.048 123.721C245.103 123.838 245.131 124.131 245.131 124.571V128H247.972V124.336C247.972 123.603 247.862 123.017 247.697 122.578C247.503 122.167 247.172 121.757 246.703 121.376L244.469 119.647L246.648 117.712C247.117 117.302 247.448 116.891 247.669 116.481C247.89 116.071 248 115.543 248 114.84Z" fill="url(#paint30_linear_1291_4401)"/>
<path d="M248 201.276V197H245.207V201.166C245.207 201.497 245.18 201.69 245.152 201.772C245.097 201.883 245.014 201.993 244.848 202.159L241.972 205.055L239.124 202.159C238.959 201.993 238.848 201.883 238.82 201.772C238.765 201.69 238.765 201.497 238.765 201.166V197H236V201.276C236 201.855 236.055 202.324 236.221 202.71C236.359 203.097 236.636 203.455 237.051 203.841L240.59 207.345V213H243.41V207.345L246.949 203.841C247.336 203.455 247.613 203.097 247.779 202.71C247.917 202.324 248 201.855 248 201.276Z" fill="url(#paint31_linear_1291_4401)"/>
<path d="M248 298V295.434H239.953L248 284.014V282H236V284.566H244.047L236 295.986V298H248Z" fill="url(#paint32_linear_1291_4401)"/>
<circle cx="242" cy="119" r="28" stroke="url(#paint33_linear_1291_4401)" stroke-width="3"/>
<path fill-rule="evenodd" clip-rule="evenodd" d="M242 169L276 193.828L263.013 234H220.987L208 193.828L242 169Z" stroke="url(#paint34_linear_1291_4401)" stroke-width="3"/>
<path d="M269.505 290.342H316.023C316.023 290.342 325.464 290.805 325.464 279.241C325.464 247.726 325.464 227.665 325.464 219.057C325.464 204.688 338.223 204.688 338.223 204.688H390.212M376.798 197L393 204.811L376.798 212.356M214 262.684H269.505V318H214V262.684Z" stroke="url(#paint35_linear_1291_4401)" stroke-width="3"/>
<path d="M415.861 107.936V104H413.333V107.835C413.333 108.139 413.308 108.317 413.283 108.393C413.233 108.495 413.158 108.597 413.008 108.749L410.405 111.416L407.828 108.749C407.678 108.597 407.578 108.495 407.552 108.393C407.502 108.317 407.502 108.139 407.502 107.835V104H405V107.936C405 108.47 405.05 108.901 405.2 109.257C405.325 109.612 405.576 109.943 405.951 110.298L409.154 113.523V118.729H411.707V113.523L414.91 110.298C415.26 109.943 415.51 109.612 415.66 109.257C415.786 108.901 415.861 108.47 415.861 107.936Z" fill="url(#paint36_linear_1291_4401)"/>
<path d="M430.319 114.768V111.695C430.319 110.73 429.968 109.917 429.318 109.282C428.642 108.647 427.791 108.317 426.765 108.317H423.412C422.361 108.317 421.51 108.647 420.859 109.282C420.184 109.917 419.858 110.73 419.858 111.695V115.352C419.858 116.342 420.184 117.155 420.859 117.79C421.51 118.425 422.361 118.729 423.412 118.729H428.992V116.469H423.237C422.986 116.469 422.786 116.393 422.611 116.215C422.436 116.063 422.361 115.86 422.361 115.631V114.768H430.319ZM427.816 112.558H422.361V111.492C422.361 111.289 422.436 111.085 422.611 110.908C422.786 110.755 422.986 110.654 423.237 110.654H426.94C427.19 110.654 427.391 110.755 427.566 110.908C427.716 111.06 427.816 111.263 427.816 111.492V112.558Z" fill="url(#paint37_linear_1291_4401)"/>
<path d="M444.36 115.504C444.36 114.692 444.01 113.98 443.359 113.371C442.684 112.761 441.858 112.457 440.857 112.431C440.632 112.431 440.256 112.457 439.756 112.457C439.255 112.457 438.83 112.457 438.53 112.457C438.229 112.457 437.879 112.431 437.529 112.381C437.153 112.33 436.878 112.254 436.703 112.101C436.528 111.949 436.453 111.771 436.453 111.517C436.453 111.263 436.528 111.06 436.703 110.882C436.878 110.73 437.078 110.628 437.329 110.628H443.485V108.317H437.504C436.453 108.317 435.602 108.647 434.951 109.282C434.276 109.943 433.95 110.704 433.95 111.593C433.95 112.482 434.301 113.219 435.001 113.777C435.702 114.336 436.603 114.641 437.654 114.666L440.882 114.768C441.533 114.819 441.858 115.072 441.858 115.58C441.858 115.834 441.758 116.038 441.583 116.19C441.408 116.342 441.207 116.418 440.982 116.418H434.701V118.729H440.807C441.833 118.729 442.684 118.425 443.359 117.79C444.01 117.155 444.36 116.393 444.36 115.504Z" fill="url(#paint38_linear_1291_4401)"/>
<path d="M451.59 117.79V116.038C451.59 115.885 451.49 115.784 451.34 115.784H448.787C448.612 115.784 448.537 115.885 448.537 116.038V118.323C448.537 118.501 448.612 118.577 448.787 118.577H449.638V118.78L448.412 120.786L449.238 121.371L451.215 118.933C451.465 118.679 451.59 118.298 451.59 117.79Z" fill="url(#paint39_linear_1291_4401)"/>
<path d="M477.539 113.65V104H474.961V113.676C474.961 113.904 474.911 114.133 474.836 114.387C474.736 114.641 474.661 114.819 474.561 114.971C474.461 115.123 474.336 115.352 474.186 115.606C474.011 115.885 473.885 116.063 473.835 116.164L472.734 114.539C472.484 114.184 472.384 113.853 472.384 113.6V107.86H469.881V113.6C469.881 113.904 469.656 114.387 469.231 114.996C468.805 115.631 468.555 116.063 468.505 116.266C468.43 116.164 468.305 115.987 468.13 115.682C467.93 115.403 467.804 115.174 467.704 115.022C467.604 114.869 467.529 114.641 467.429 114.387C467.329 114.133 467.304 113.904 467.304 113.676V104H464.726V113.65C464.726 114.463 465.027 115.326 465.627 116.215L467.279 118.729H469.556L471.133 116.164L472.734 118.729H474.986L476.663 116.215C477.239 115.301 477.539 114.463 477.539 113.65Z" fill="url(#paint40_linear_1291_4401)"/>
<path d="M492 114.768V111.695C492 110.73 491.65 109.917 490.999 109.282C490.323 108.647 489.473 108.317 488.447 108.317H485.093C484.042 108.317 483.191 108.647 482.541 109.282C481.865 109.917 481.54 110.73 481.54 111.695V115.352C481.54 116.342 481.865 117.155 482.541 117.79C483.191 118.425 484.042 118.729 485.093 118.729H490.674V116.469H484.918C484.668 116.469 484.468 116.393 484.292 116.215C484.117 116.063 484.042 115.86 484.042 115.631V114.768H492ZM489.498 112.558H484.042V111.492C484.042 111.289 484.117 111.085 484.292 110.908C484.468 110.755 484.668 110.654 484.918 110.654H488.622C488.872 110.654 489.072 110.755 489.247 110.908C489.397 111.06 489.498 111.263 489.498 111.492V112.558Z" fill="url(#paint41_linear_1291_4401)"/>
<path d="M418.472 141.921V132.271H415.895V141.946C415.895 142.175 415.845 142.403 415.77 142.657C415.67 142.911 415.595 143.089 415.494 143.241C415.394 143.394 415.269 143.622 415.119 143.876C414.944 144.156 414.819 144.333 414.769 144.435L413.668 142.81C413.417 142.454 413.317 142.124 413.317 141.87V136.131H410.815V141.87C410.815 142.175 410.59 142.657 410.164 143.267C409.739 143.902 409.489 144.333 409.439 144.537C409.363 144.435 409.238 144.257 409.063 143.953C408.863 143.673 408.738 143.445 408.638 143.292C408.538 143.14 408.463 142.911 408.362 142.657C408.262 142.403 408.237 142.175 408.237 141.946V132.271H405.66V141.921C405.66 142.734 405.96 143.597 406.561 144.486L408.212 147H410.49L412.066 144.435L413.668 147H415.92L417.597 144.486C418.172 143.572 418.472 142.734 418.472 141.921Z" fill="url(#paint42_linear_1291_4401)"/>
<path d="M432.433 139.813C432.433 138.95 432.083 138.188 431.432 137.553C430.756 136.918 429.955 136.588 429.005 136.588H423.824V138.924H428.554C429.105 138.924 429.455 139 429.655 139.153C429.83 139.305 429.93 139.584 429.93 139.991V140.626L425.501 140.651C424.5 140.651 423.649 140.956 422.974 141.565C422.298 142.175 421.973 142.886 421.973 143.724C421.973 144.638 422.298 145.4 422.974 146.035C423.624 146.695 424.475 147 425.526 147H432.433V139.813ZM429.93 144.74H425.326C425.076 144.74 424.876 144.664 424.7 144.46C424.525 144.283 424.45 144.054 424.45 143.8C424.45 143.546 424.55 143.318 424.75 143.14C424.951 142.962 425.176 142.861 425.426 142.861H429.93V144.74Z" fill="url(#paint43_linear_1291_4401)"/>
<path d="M446.913 147V139.838C446.913 138.873 446.587 138.112 445.937 137.502C445.286 136.893 444.46 136.588 443.459 136.588H441.607C441.407 136.588 441.232 136.613 441.032 136.664C440.832 136.715 440.681 136.766 440.556 136.816C440.431 136.867 440.281 136.969 440.106 137.096C439.906 137.248 439.781 137.35 439.705 137.4C439.63 137.451 439.48 137.578 439.28 137.756C439.08 137.959 438.955 138.061 438.93 138.086V136.588H436.427V147H438.93V140.88L440.782 139.331C440.982 139.127 441.157 139 441.282 138.95C441.382 138.899 441.582 138.873 441.883 138.873H443.534C443.759 138.873 443.96 138.975 444.135 139.127C444.31 139.305 444.41 139.508 444.41 139.711V147H446.913Z" fill="url(#paint44_linear_1291_4401)"/>
<path d="M461.379 143.572V142.53H458.827V143.8C458.827 144.029 458.727 144.232 458.551 144.384C458.376 144.562 458.176 144.638 457.951 144.638H455.899C455.649 144.638 455.448 144.562 455.273 144.384C455.098 144.232 455.023 144.029 455.023 143.8V138.696H457.525V136.385H455.023V132.271H452.521V136.385H450.418V138.696H452.521V143.572C452.521 144.562 452.846 145.375 453.522 146.035C454.172 146.695 455.023 147 456.049 147H457.826C458.852 147 459.703 146.695 460.378 146.035C461.029 145.375 461.379 144.562 461.379 143.572Z" fill="url(#paint45_linear_1291_4401)"/>
<path d="M483.693 147V144.638H476.611L483.693 134.124V132.271H473.133V134.632H480.215L473.133 145.146V147H483.693Z" fill="url(#paint46_linear_1291_4401)"/>
<path d="M491.227 132.271H487.823V136.105L488.299 142.937H490.751L491.227 136.105V132.271ZM490.976 147V144.156H488.023V147H490.976Z" fill="url(#paint47_linear_1291_4401)"/>
<path fill-rule="evenodd" clip-rule="evenodd" d="M637.167 190.742H608.503C607.381 190.742 606.473 191.65 606.473 192.769V221.44C606.473 222.559 607.381 223.467 608.503 223.467H637.167C638.289 223.467 639.197 222.559 639.197 221.44V192.769C639.197 191.65 638.289 190.742 637.167 190.742ZM636.653 193.287V198.342H609.017V193.287H636.653ZM609.017 200.897V220.922H636.656V200.897H609.017Z" fill="url(#paint48_linear_1291_4401)"/>
<path d="M628.528 217.319C628.241 217.319 627.957 217.209 627.737 216.992C627.3 216.555 627.3 215.847 627.737 215.409L632.051 211.095L627.737 206.781C627.3 206.343 627.3 205.635 627.737 205.198C628.175 204.76 628.882 204.76 629.32 205.198L635.217 211.095L629.32 216.992C629.099 217.209 628.812 217.319 628.528 217.319Z" fill="url(#paint49_linear_1291_4401)"/>
<path d="M617.142 217.319C616.854 217.319 616.571 217.209 616.35 216.992L610.456 211.095L616.354 205.198C616.791 204.76 617.499 204.76 617.936 205.198C618.374 205.635 618.374 206.343 617.936 206.781L613.619 211.095L617.933 215.409C618.37 215.847 618.37 216.555 617.933 216.992C617.716 217.209 617.429 217.319 617.142 217.319Z" fill="url(#paint50_linear_1291_4401)"/>
<path d="M620.885 216.471C620.728 216.471 620.571 216.438 620.421 216.368C619.86 216.111 619.613 215.446 619.87 214.885L623.77 206.373C624.027 205.812 624.692 205.565 625.253 205.822C625.814 206.079 626.061 206.744 625.804 207.305L621.903 215.817C621.713 216.227 621.309 216.471 620.885 216.471Z" fill="url(#paint51_linear_1291_4401)"/>
<path d="M611.498 195.761C611.498 196.332 611.962 196.796 612.533 196.796C613.104 196.796 613.569 196.332 613.569 195.761C613.569 195.19 613.104 194.726 612.533 194.726C611.962 194.726 611.498 195.187 611.498 195.761Z" fill="url(#paint52_linear_1291_4401)"/>
<path d="M615.596 195.761C615.596 196.332 616.06 196.796 616.631 196.796C617.202 196.796 617.666 196.332 617.666 195.761C617.666 195.19 617.202 194.726 616.631 194.726C616.06 194.723 615.599 195.187 615.596 195.761C615.596 195.758 615.596 195.758 615.596 195.761Z" fill="url(#paint53_linear_1291_4401)"/>
<path d="M619.696 195.761C619.696 196.332 620.16 196.796 620.731 196.796C621.302 196.796 621.766 196.332 621.766 195.761C621.766 195.19 621.302 194.726 620.731 194.726C620.16 194.723 619.696 195.187 619.696 195.761C619.696 195.758 619.696 195.758 619.696 195.761Z" fill="url(#paint54_linear_1291_4401)"/>
<path fill-rule="evenodd" clip-rule="evenodd" d="M590.169 192.5C590.169 185.044 596.213 179 603.669 179H642.002C649.458 179 655.502 185.044 655.502 192.5V205.988L735.715 205.988L723.391 200.026C722.645 199.665 722.333 198.768 722.694 198.023C723.055 197.277 723.952 196.965 724.698 197.326L742.424 205.901L745.264 207.275L742.406 208.61L724.679 216.892C723.929 217.243 723.036 216.919 722.685 216.168C722.335 215.417 722.659 214.525 723.409 214.174L734.509 208.988L655.502 208.988V222.002C655.502 229.458 649.458 235.502 642.002 235.502H603.669C596.213 235.502 590.169 229.458 590.169 222.002V209.248H514.5C513.672 209.248 513 208.577 513 207.748C513 206.92 513.672 206.248 514.5 206.248H590.169V192.5ZM603.669 182C597.87 182 593.169 186.701 593.169 192.5V222.002C593.169 227.801 597.87 232.502 603.669 232.502H642.002C647.801 232.502 652.502 227.801 652.502 222.002V192.5C652.502 186.701 647.801 182 642.002 182H603.669Z" fill="url(#paint55_linear_1291_4401)"/>
<path fill-rule="evenodd" clip-rule="evenodd" d="M385 85H513V166.6H467.091L449 190L431.275 166.6H385V85Z" stroke="url(#paint56_linear_1291_4401)" stroke-width="3"/>
<path fill-rule="evenodd" clip-rule="evenodd" d="M464.305 234.871L456.265 230.876C455.506 230.499 455.035 229.741 455.035 228.898V226.071C455.228 225.836 455.431 225.57 455.64 225.275C456.683 223.812 457.519 222.182 458.127 220.425C459.314 219.884 460.085 218.717 460.085 217.4V214.055C460.085 213.249 459.782 212.469 459.243 211.859V207.41C459.291 206.95 459.476 204.212 457.483 201.953C455.754 199.994 452.948 199 449.143 199C445.338 199 442.532 199.994 440.803 201.952C439.596 203.321 439.189 204.864 439.066 205.971C437.623 205.23 435.923 204.855 433.992 204.855C425.248 204.855 424.739 212.261 424.734 212.382V216.212C424.188 216.802 423.892 217.484 423.892 218.16V221.049C423.892 221.951 424.298 222.793 424.995 223.362C425.69 225.963 427.398 227.928 428.063 228.618V230.912C428.063 231.571 427.702 232.174 427.077 232.514L421.477 236.004C419.332 237.167 418 239.397 418 241.824V245H468.502V241.619C468.502 238.743 466.894 236.157 464.305 234.871ZM429.784 241.455V243.327H419.683V241.824C419.683 240.009 420.68 238.342 422.327 237.448L427.926 233.957C429.048 233.349 429.745 232.184 429.745 230.912V227.909L429.477 227.661C429.456 227.64 427.219 225.541 426.558 222.68L426.482 222.349L426.194 222.165C425.807 221.916 425.575 221.498 425.575 221.049V218.16C425.575 217.859 425.782 217.501 426.14 217.178L426.417 216.93L426.415 212.43C426.431 212.19 426.869 206.527 433.992 206.527C436.007 206.527 437.703 206.99 439.043 207.902V211.859C438.504 212.469 438.201 213.249 438.201 214.055V217.4C438.201 217.654 438.23 217.904 438.286 218.147C438.3 218.207 438.322 218.263 438.345 218.32C438.359 218.355 438.373 218.39 438.385 218.426C438.397 218.461 438.408 218.497 438.419 218.532C438.452 218.638 438.485 218.745 438.533 218.844C438.534 218.846 438.535 218.847 438.536 218.849C438.751 219.29 439.065 219.685 439.461 220C439.463 220.009 439.466 220.017 439.468 220.026C439.469 220.029 439.471 220.033 439.472 220.036C439.473 220.039 439.474 220.042 439.474 220.045C439.525 220.237 439.578 220.428 439.635 220.614L439.703 220.832C439.711 220.856 439.719 220.88 439.727 220.904C439.732 220.919 439.737 220.934 439.742 220.949L439.762 221.01C439.784 221.079 439.807 221.149 439.83 221.217C439.881 221.364 439.934 221.515 439.995 221.68C440.01 221.718 440.026 221.755 440.041 221.791C440.053 221.82 440.065 221.848 440.077 221.878C440.146 222.053 440.215 222.222 440.287 222.389C440.296 222.408 440.304 222.428 440.312 222.448C440.32 222.47 440.329 222.491 440.338 222.512L440.385 222.617C440.397 222.643 440.409 222.668 440.421 222.692C440.431 222.713 440.441 222.735 440.452 222.757C440.534 222.936 440.615 223.109 440.699 223.276C440.703 223.284 440.707 223.293 440.711 223.301C440.714 223.307 440.716 223.312 440.719 223.318C440.725 223.332 440.732 223.346 440.739 223.359C440.78 223.44 440.821 223.518 440.862 223.596L440.898 223.663C440.989 223.835 441.078 223.997 441.167 224.154C441.211 224.231 441.254 224.307 441.297 224.379C441.418 224.585 441.533 224.774 441.645 224.95C441.657 224.968 441.668 224.986 441.679 225.004C441.692 225.024 441.704 225.044 441.717 225.063C441.92 225.376 442.097 225.631 442.244 225.829C442.282 225.882 442.316 225.927 442.349 225.971C442.367 225.995 442.393 226.03 442.409 226.052V228.82C442.409 229.629 441.964 230.372 441.25 230.76L439.022 231.967L438.634 231.933L438.476 232.263L433.741 234.83C431.3 236.155 429.784 238.692 429.784 241.455ZM431.467 241.455V243.327H466.819V241.619C466.819 239.38 465.567 237.367 463.552 236.366L455.511 232.372C454.179 231.709 453.352 230.379 453.352 228.898V225.448L453.561 225.211C453.772 224.972 454.016 224.66 454.266 224.308C455.286 222.878 456.088 221.271 456.651 219.53L456.786 219.116L457.205 218.988C457.92 218.769 458.402 218.13 458.402 217.4V214.055C458.402 213.585 458.201 213.148 457.838 212.822L457.56 212.573L457.568 207.254L457.568 207.252C457.577 207.166 457.817 204.852 456.202 203.038C454.805 201.468 452.43 200.673 449.143 200.673C445.844 200.673 443.464 201.474 442.069 203.056C440.711 204.595 440.675 206.446 440.703 207.05L440.726 207.068V212.573L440.448 212.821C440.085 213.148 439.884 213.585 439.884 214.055V217.4C439.884 217.965 440.176 218.49 440.664 218.803L440.951 218.987L441.027 219.318C441.091 219.595 441.167 219.866 441.246 220.13C441.251 220.147 441.257 220.164 441.262 220.181L441.308 220.33C441.386 220.575 441.467 220.812 441.553 221.04C441.594 221.151 441.634 221.25 441.673 221.348C441.678 221.36 441.683 221.373 441.688 221.386C441.694 221.4 441.699 221.414 441.705 221.428C441.716 221.456 441.727 221.484 441.739 221.512C441.786 221.624 441.832 221.734 441.878 221.839C441.885 221.855 441.893 221.871 441.9 221.887C441.908 221.903 441.915 221.919 441.922 221.936C442.026 222.169 442.133 222.393 442.24 222.606C442.24 222.607 442.241 222.608 442.241 222.608C442.442 223.005 442.644 223.364 442.834 223.681C442.841 223.693 442.848 223.704 442.855 223.715C442.944 223.863 443.031 224.002 443.114 224.13C443.116 224.133 443.118 224.136 443.12 224.139C443.122 224.143 443.124 224.146 443.126 224.149C443.301 224.42 443.458 224.645 443.584 224.818C443.584 224.819 443.584 224.819 443.585 224.82C443.585 224.82 443.586 224.821 443.586 224.822C443.646 224.905 443.698 224.974 443.743 225.032C443.749 225.039 443.754 225.045 443.759 225.052C443.825 225.138 443.872 225.196 443.89 225.218C443.894 225.224 443.897 225.227 443.898 225.228L443.93 225.265L444.093 225.459V228.821C444.093 230.242 443.313 231.549 442.056 232.23L434.547 236.3C432.647 237.329 431.467 239.305 431.467 241.455Z" fill="url(#paint57_linear_1291_4401)"/>
<path fill-rule="evenodd" clip-rule="evenodd" d="M433.695 234.871L441.735 230.876C442.494 230.499 442.965 229.741 442.965 228.898V226.071C442.772 225.836 442.569 225.57 442.36 225.275C441.317 223.812 440.481 222.182 439.873 220.425C438.686 219.884 437.915 218.717 437.915 217.4V214.055C437.915 213.249 438.218 212.469 438.757 211.859V207.41C438.709 206.95 438.524 204.212 440.517 201.953C442.246 199.994 445.052 199 448.857 199C452.662 199 455.468 199.994 457.197 201.952C458.404 203.321 458.811 204.864 458.934 205.971C460.377 205.23 462.077 204.855 464.008 204.855C472.752 204.855 473.261 212.261 473.266 212.382V216.212C473.812 216.802 474.108 217.484 474.108 218.16V221.049C474.108 221.951 473.702 222.793 473.005 223.362C472.31 225.963 470.602 227.928 469.937 228.618V230.912C469.937 231.571 470.298 232.174 470.923 232.514L476.523 236.004C478.668 237.167 480 239.397 480 241.824V245H429.498V241.619C429.498 238.743 431.106 236.157 433.695 234.871ZM468.216 241.455V243.327H478.317V241.824C478.317 240.009 477.32 238.342 475.673 237.448L470.074 233.957C468.952 233.349 468.255 232.184 468.255 230.912V227.909L468.523 227.661C468.544 227.64 470.781 225.541 471.442 222.68L471.518 222.349L471.806 222.165C472.193 221.916 472.425 221.498 472.425 221.049V218.16C472.425 217.859 472.218 217.501 471.86 217.178L471.583 216.93L471.585 212.43C471.569 212.19 471.131 206.527 464.008 206.527C461.993 206.527 460.297 206.99 458.957 207.902V211.859C459.496 212.469 459.799 213.249 459.799 214.055V217.4C459.799 217.654 459.77 217.904 459.714 218.147C459.7 218.207 459.678 218.263 459.655 218.32C459.641 218.355 459.627 218.39 459.615 218.426C459.603 218.461 459.592 218.497 459.581 218.532C459.548 218.638 459.515 218.745 459.467 218.844C459.466 218.846 459.465 218.847 459.464 218.849C459.249 219.29 458.935 219.685 458.539 220C458.537 220.009 458.534 220.017 458.532 220.026C458.531 220.029 458.529 220.033 458.528 220.036C458.527 220.039 458.526 220.042 458.526 220.045C458.475 220.237 458.422 220.428 458.365 220.614L458.297 220.832C458.289 220.856 458.281 220.88 458.273 220.904C458.268 220.919 458.263 220.934 458.258 220.949L458.238 221.01C458.216 221.079 458.193 221.149 458.17 221.217C458.119 221.364 458.066 221.515 458.005 221.68C457.99 221.718 457.974 221.755 457.959 221.791C457.947 221.82 457.935 221.848 457.923 221.878C457.854 222.053 457.785 222.222 457.713 222.389C457.704 222.408 457.696 222.428 457.688 222.448C457.68 222.47 457.671 222.491 457.662 222.512L457.615 222.617C457.603 222.643 457.591 222.668 457.579 222.692C457.569 222.713 457.559 222.735 457.548 222.757C457.466 222.936 457.385 223.109 457.301 223.276C457.297 223.284 457.293 223.293 457.289 223.301C457.286 223.307 457.284 223.312 457.281 223.318C457.275 223.332 457.268 223.346 457.261 223.359C457.22 223.44 457.179 223.518 457.138 223.596L457.102 223.663C457.011 223.835 456.922 223.997 456.833 224.154C456.789 224.231 456.746 224.307 456.703 224.379C456.582 224.585 456.467 224.774 456.355 224.95C456.343 224.968 456.332 224.986 456.321 225.004C456.308 225.024 456.296 225.044 456.283 225.063C456.08 225.376 455.903 225.631 455.756 225.829C455.718 225.882 455.684 225.927 455.651 225.971C455.633 225.995 455.607 226.03 455.591 226.052V228.82C455.591 229.629 456.036 230.372 456.75 230.76L458.978 231.967L459.366 231.933L459.524 232.263L464.259 234.83C466.7 236.155 468.216 238.692 468.216 241.455ZM466.533 241.455V243.327H431.181V241.619C431.181 239.38 432.433 237.367 434.448 236.366L442.489 232.372C443.821 231.709 444.648 230.379 444.648 228.898V225.448L444.439 225.211C444.228 224.972 443.984 224.66 443.734 224.308C442.714 222.878 441.912 221.271 441.349 219.53L441.214 219.116L440.795 218.988C440.08 218.769 439.598 218.13 439.598 217.4V214.055C439.598 213.585 439.799 213.148 440.162 212.822L440.44 212.573L440.432 207.254L440.432 207.252C440.423 207.166 440.183 204.852 441.798 203.038C443.195 201.468 445.57 200.673 448.857 200.673C452.156 200.673 454.536 201.474 455.931 203.056C457.289 204.595 457.325 206.446 457.297 207.05L457.274 207.068V212.573L457.552 212.821C457.915 213.148 458.116 213.585 458.116 214.055V217.4C458.116 217.965 457.824 218.49 457.336 218.803L457.049 218.987L456.973 219.318C456.909 219.595 456.833 219.866 456.754 220.13C456.749 220.147 456.743 220.164 456.738 220.181L456.692 220.33C456.614 220.575 456.533 220.812 456.447 221.04C456.406 221.151 456.366 221.25 456.327 221.348C456.322 221.36 456.317 221.373 456.312 221.386C456.306 221.4 456.301 221.414 456.295 221.428C456.284 221.456 456.273 221.484 456.261 221.512C456.214 221.624 456.168 221.734 456.122 221.839C456.115 221.855 456.107 221.871 456.1 221.887C456.092 221.903 456.085 221.919 456.078 221.936C455.974 222.169 455.867 222.393 455.76 222.606C455.76 222.607 455.759 222.608 455.759 222.608C455.558 223.005 455.356 223.364 455.166 223.681C455.159 223.693 455.152 223.704 455.145 223.715C455.056 223.863 454.969 224.002 454.886 224.13C454.884 224.133 454.882 224.136 454.88 224.139C454.878 224.143 454.876 224.146 454.874 224.149C454.699 224.42 454.542 224.645 454.416 224.818C454.416 224.819 454.416 224.819 454.415 224.82C454.415 224.82 454.414 224.821 454.414 224.822C454.354 224.905 454.302 224.974 454.257 225.032C454.251 225.039 454.246 225.045 454.241 225.052C454.175 225.138 454.128 225.196 454.11 225.218C454.106 225.224 454.103 225.227 454.102 225.228L454.07 225.265L453.907 225.459V228.821C453.907 230.242 454.687 231.549 455.944 232.23L463.453 236.3C465.353 237.329 466.533 239.305 466.533 241.455Z" fill="url(#paint58_linear_1291_4401)"/>
<path d="M614.005 107.936V104H611.458V107.835C611.458 108.139 611.433 108.317 611.407 108.393C611.357 108.495 611.281 108.597 611.13 108.749L608.507 111.416L605.909 108.749C605.757 108.597 605.656 108.495 605.631 108.393C605.581 108.317 605.581 108.139 605.581 107.835V104H603.058V107.936C603.058 108.47 603.109 108.901 603.26 109.257C603.386 109.612 603.639 109.943 604.017 110.298L607.246 113.523V118.729H609.818V113.523L613.047 110.298C613.4 109.943 613.652 109.612 613.804 109.257C613.93 108.901 614.005 108.47 614.005 107.936Z" fill="url(#paint59_linear_1291_4401)"/>
<path d="M628.679 115.326V111.72C628.679 110.755 628.326 109.968 627.62 109.308C626.914 108.647 626.056 108.317 625.047 108.317H621.415C620.381 108.317 619.523 108.647 618.817 109.308C618.111 109.968 617.783 110.755 617.783 111.72V115.326C617.783 116.291 618.111 117.104 618.817 117.764C619.523 118.425 620.381 118.729 621.415 118.729H625.047C626.056 118.729 626.914 118.425 627.62 117.764C628.326 117.104 628.679 116.291 628.679 115.326ZM626.157 115.58C626.157 115.834 626.056 116.038 625.905 116.19C625.728 116.342 625.526 116.418 625.274 116.418H621.188C620.936 116.418 620.734 116.342 620.557 116.164C620.381 116.012 620.305 115.809 620.305 115.58V111.466C620.305 111.263 620.381 111.06 620.557 110.882C620.734 110.73 620.936 110.628 621.188 110.628H625.274C625.526 110.628 625.728 110.73 625.905 110.882C626.056 111.035 626.157 111.238 626.157 111.466V115.58Z" fill="url(#paint60_linear_1291_4401)"/>
<path d="M642.937 118.729V108.317H640.415V114.184L638.599 116.038C638.397 116.241 638.221 116.368 638.12 116.418C638.019 116.469 637.792 116.469 637.489 116.469H635.875C635.623 116.469 635.421 116.393 635.244 116.215C635.068 116.063 634.992 115.86 634.992 115.631V108.317H632.47V115.352C632.47 116.342 632.798 117.155 633.479 117.79C634.134 118.425 634.992 118.729 636.051 118.729H637.767C638.145 118.729 638.498 118.653 638.851 118.475C639.204 118.323 639.457 118.171 639.608 118.018C639.759 117.891 640.037 117.637 640.415 117.256V118.729H642.937Z" fill="url(#paint61_linear_1291_4401)"/>
<path d="M591.695 143.521V141.692C591.695 140.778 591.367 140.067 590.711 139.559C591.367 139.051 591.695 138.289 591.695 137.248V135.75C591.695 134.759 591.342 133.921 590.635 133.261C589.929 132.601 589.072 132.271 588.063 132.271H581V147H588.063C589.072 147 589.929 146.67 590.635 146.01C591.342 145.349 591.695 144.537 591.695 143.521ZM589.122 137.223C589.122 137.68 589.046 138.01 588.895 138.162C588.744 138.315 588.441 138.391 587.987 138.391H583.497V134.556H588.239C588.441 134.556 588.643 134.683 588.845 134.886C589.021 135.089 589.122 135.318 589.122 135.572V137.223ZM589.122 143.724C589.122 143.978 589.021 144.232 588.845 144.435C588.643 144.638 588.441 144.74 588.239 144.74H583.497V140.702H588.088C588.491 140.702 588.744 140.803 588.895 140.956C589.046 141.134 589.122 141.464 589.122 141.921V143.724Z" fill="url(#paint62_linear_1291_4401)"/>
<path d="M606.198 147V136.588H603.676V142.454L601.86 144.308C601.658 144.511 601.481 144.638 601.38 144.689C601.279 144.74 601.052 144.74 600.75 144.74H599.135C598.883 144.74 598.681 144.664 598.505 144.486C598.328 144.333 598.253 144.13 598.253 143.902V136.588H595.73V143.622C595.73 144.613 596.058 145.425 596.739 146.06C597.395 146.695 598.253 147 599.312 147H601.027C601.406 147 601.759 146.924 602.112 146.746C602.465 146.594 602.717 146.441 602.869 146.289C603.02 146.162 603.297 145.908 603.676 145.527V147H606.198Z" fill="url(#paint63_linear_1291_4401)"/>
<path d="M614.93 134.836V132.271H612.257V134.836H614.93ZM617.049 147V144.74H614.88V136.385H610.239V138.67H612.358V144.74H610.239V147H617.049Z" fill="url(#paint64_linear_1291_4401)"/>
<path d="M627.395 147V144.74H625.251V132.271H620.584V134.531H622.728V144.74H620.584V147H627.395Z" fill="url(#paint65_linear_1291_4401)"/>
<path d="M641.502 147V132.271H638.979V137.781C638.626 137.477 638.374 137.223 638.197 137.07C637.996 136.918 637.743 136.766 637.39 136.613C637.037 136.461 636.684 136.385 636.331 136.385H634.389C633.355 136.385 632.497 136.689 631.816 137.35C631.135 138.01 630.807 138.848 630.807 139.813V143.572C630.807 144.562 631.135 145.375 631.816 146.035C632.472 146.695 633.329 147 634.389 147H641.502ZM638.979 144.74H634.212C633.96 144.74 633.758 144.664 633.582 144.486C633.405 144.333 633.329 144.13 633.329 143.876V139.534C633.329 139.331 633.405 139.127 633.582 138.95C633.758 138.797 633.96 138.696 634.212 138.696H636.053C636.356 138.696 636.558 138.721 636.659 138.772C636.76 138.823 636.936 138.95 637.189 139.153L638.979 140.727V144.74Z" fill="url(#paint66_linear_1291_4401)"/>
<path d="M665 147V144.638H657.862L665 134.124V132.271H654.356V134.632H661.494L654.356 145.146V147H665Z" fill="url(#paint67_linear_1291_4401)"/>
<path fill-rule="evenodd" clip-rule="evenodd" d="M828.271 200.963L790.16 178.955C787.958 177.682 784.383 177.682 782.195 178.955L761.76 190.824C759.572 192.097 759.586 194.17 761.788 195.443L799.899 217.452C802.101 218.724 805.677 218.724 807.865 217.452L828.286 205.582C830.488 204.309 830.474 202.236 828.271 200.963ZM779.892 192.254C781.236 193.026 783.396 193.026 784.726 192.254C786.056 191.482 786.041 190.223 784.711 189.451C783.367 188.679 781.208 188.679 779.878 189.451C778.548 190.223 778.548 191.482 779.892 192.254ZM786.285 193.155C791.09 190.366 798.898 190.366 803.731 193.155C808.565 195.944 808.594 200.463 803.789 203.265C798.984 206.054 791.176 206.054 786.342 203.265C781.508 200.477 781.48 195.944 786.285 193.155ZM800.893 197.746L800.893 197.745C801.101 197.678 801.308 197.61 801.515 197.545C801.801 197.46 801.858 197.331 801.701 197.174C801.501 196.859 801.229 196.573 800.886 196.301C800.669 196.126 800.558 196.037 800.564 195.956C800.57 195.871 800.702 195.796 800.972 195.643C801.343 195.422 801.529 195.311 801.528 195.202C801.527 195.093 801.337 194.986 800.957 194.771C800.9 194.742 800.847 194.71 800.793 194.678L800.793 194.678L800.793 194.678C800.739 194.646 800.686 194.614 800.629 194.585C800.271 194.385 800.142 194.385 799.785 194.585C799.628 194.671 799.47 194.757 799.313 194.857L799.291 194.869C799.085 194.988 798.974 195.052 798.856 195.07C798.72 195.091 798.574 195.05 798.258 194.962L798.24 194.957C796.753 194.557 795.352 194.599 794.093 195.243C792.992 195.815 792.835 196.544 793.178 197.345C793.321 197.679 793.553 197.987 793.785 198.295C793.901 198.449 794.017 198.604 794.122 198.761C794.251 198.947 794.351 199.118 794.379 199.319C794.465 199.905 793.636 200.277 792.706 200.062C792.349 199.976 792.034 199.862 791.762 199.705C791.738 199.689 791.713 199.673 791.687 199.656L791.687 199.656L791.687 199.656L791.687 199.656L791.687 199.656L791.687 199.656L791.687 199.656C791.621 199.614 791.552 199.57 791.491 199.519C790.99 199.133 790.575 198.732 790.332 198.275C790.275 198.175 790.232 198.117 790.161 198.074C790.046 198.017 789.889 198.032 789.617 198.117C789.431 198.174 789.249 198.235 789.067 198.296L789.067 198.296L789.067 198.296L789.067 198.296L789.067 198.296L789.067 198.296L789.067 198.296L789.067 198.296L789.066 198.296L789.066 198.296L789.066 198.296L789.066 198.296L789.066 198.296C788.884 198.357 788.702 198.418 788.516 198.475C788.015 198.646 787.973 198.718 788.158 199.033C788.402 199.433 788.788 199.79 789.217 200.134C789.56 200.405 789.56 200.42 789.145 200.663C789.04 200.733 788.929 200.798 788.817 200.864L788.817 200.864C788.746 200.905 788.674 200.947 788.602 200.992C788.373 201.135 788.344 201.278 788.588 201.421C788.645 201.457 788.702 201.489 788.759 201.521C788.816 201.553 788.874 201.585 788.931 201.621C789.017 201.664 789.099 201.71 789.181 201.757L789.181 201.757L789.181 201.757L789.181 201.757L789.181 201.757L789.181 201.757L789.181 201.757L789.181 201.757C789.264 201.803 789.346 201.85 789.431 201.893C789.66 202.021 789.903 202.007 790.132 201.878C790.185 201.849 790.239 201.819 790.294 201.789C790.501 201.675 790.712 201.56 790.904 201.435C791.147 201.263 791.39 201.263 791.719 201.364C792.463 201.607 793.264 201.707 794.108 201.664C796.453 201.535 797.911 200.205 797.239 198.861C797.074 198.507 796.831 198.172 796.59 197.841L796.59 197.841C796.539 197.771 796.488 197.701 796.438 197.631C796.267 197.388 796.124 197.159 796.081 196.902C795.981 196.401 796.696 196.101 797.497 196.287C797.726 196.344 797.897 196.416 798.083 196.516C798.169 196.559 798.255 196.601 798.326 196.644C798.884 196.959 799.299 197.345 799.57 197.788C799.628 197.874 799.685 197.931 799.742 197.974C799.856 198.032 800.014 198.017 800.271 197.946C800.478 197.881 800.686 197.814 800.893 197.746L800.893 197.746ZM810.181 206.955C808.851 207.727 806.692 207.727 805.347 206.955C804.017 206.183 804.003 204.924 805.333 204.152C806.663 203.38 808.822 203.38 810.167 204.152C811.511 204.924 811.525 206.183 810.181 206.955ZM807.407 212.618C807.75 212.818 808.036 213.033 808.279 213.261L820.62 206.111C820.22 205.968 819.834 205.811 819.491 205.611C817.245 204.324 817.245 202.221 819.462 200.934C819.805 200.734 820.163 200.577 820.563 200.434L790.875 183.302C790.675 183.473 790.461 183.631 790.203 183.774C787.987 185.061 784.369 185.061 782.138 183.774C781.895 183.631 781.68 183.488 781.494 183.33L769.296 190.424C769.568 190.524 769.825 190.652 770.068 190.795C772.299 192.082 772.313 194.17 770.097 195.457C769.839 195.6 769.568 195.729 769.282 195.843L798.869 212.933C799.027 212.818 799.17 212.718 799.341 212.618C801.558 211.331 805.176 211.331 807.407 212.618ZM760.787 199.848C761.759 199.347 763.261 199.419 764.19 199.962L804.032 222.957L825.568 210.43C826.498 209.887 828.028 209.887 828.972 210.43C829.916 210.973 829.916 211.86 828.986 212.403L806.091 225.703C804.975 226.361 803.145 226.361 802.015 225.703L801.214 225.245L800.657 224.916L760.715 201.864C759.743 201.306 759.757 200.377 760.787 199.848ZM806.119 232.896L829.014 219.597C829.958 219.053 829.944 218.167 829 217.638C828.056 217.094 826.54 217.094 825.596 217.638L804.06 230.15L764.233 207.155C763.303 206.612 761.788 206.54 760.829 207.041C759.8 207.57 759.771 208.5 760.744 209.057L800.685 232.11L801.257 232.439L802.043 232.896C803.173 233.554 805.004 233.554 806.119 232.896Z" fill="url(#paint68_linear_1291_4401)"/>
<path fill-rule="evenodd" clip-rule="evenodd" d="M199.459 65.5C196.45 65.5 194.169 68.0689 194.169 71.0362V205H118C117.172 205 116.5 205.672 116.5 206.5C116.5 207.328 117.172 208 118 208H194.169V341.964C194.169 344.931 196.45 347.5 199.459 347.5H285.21C288.219 347.5 290.5 344.931 290.5 341.964V304.012V297.341V296.148H287.5V297.341V304.012V341.964C287.5 343.455 286.387 344.5 285.21 344.5H199.459C198.282 344.5 197.169 343.455 197.169 341.964V206.505L197.169 206.5L197.169 206.495V71.0362C197.169 69.5452 198.282 68.5 199.459 68.5H285.21C286.452 68.5 287.5 69.4792 287.5 70.9029V71.0763V71.2532V71.4336V71.6175V71.8049V71.9958V72.1901V72.3879V72.5891V72.7937V73.0018V73.2132V73.428V73.6461V73.8676V74.0924V74.3205V74.5519V74.7866V75.0246V75.2658V75.5102V75.7579V76.0088V76.2628V76.5201V76.7805V77.044V77.3107V77.5805V77.8534V78.1294V78.4084V78.6906V78.9757V79.2639V79.5551V79.8493V80.1465V80.4466V80.7497V81.0558V81.3647V81.6766V81.9914V82.309V82.6295V82.9529V83.2791V83.6081V83.9399V84.2745V84.6119V84.952V85.2949V85.6405V85.9888V86.3398V86.6936V87.0499V87.409V87.7706V88.1349V88.5019V88.8714V89.2435V89.6181V89.9953V90.375V90.7573V91.1421V91.5293V91.9191V92.3113V92.7059V93.103V93.5025V93.9044V94.3086V94.7153V95.1243V95.5357V95.9493V96.3653V96.7836V97.2042V97.627V98.0521V98.4794V98.909V99.3408V99.7747V100.211V100.649V101.09V101.532V101.977V102.424V102.873V103.324V103.777V104.232V104.689V105.148V105.609V106.072V106.537V107.004V107.473V107.944V108.417V108.891V109.368V109.846V110.327V110.809V111.293V111.779V112.266V112.755V113.247V113.739V114.234V114.73V115.228V115.728V116.229V116.732V117.237V117.743V118.251V118.76V119.271V119.784V120.298V120.814V121.331V121.85V122.37V122.892V123.415V123.94V124.466V124.993V125.522V126.052V126.584V127.117V127.651V128.187V128.724V129.262V129.802V130.343V130.885V131.428V131.973V132.518V133.065V133.614V134.163V134.713V135.265V135.818V136.372V136.926V137.482V138.04V138.598V139.157V139.717V140.278V140.84V141.403V141.967V142.532V143.098V143.665V144.233V144.801V145.371V145.941V146.513V147.085V147.657V148.231V148.805V149.38V149.956V150.533V151.11V151.688V152.267V152.847V153.427V154.007V154.589V155.171V155.753V156.336V156.92V157.504V158.089V158.674V159.26V159.847V160.433V161.021V161.608V162.197V162.785V163.374V163.964V164.553V165.143V165.734V166.325V166.916V167.507V168.099V168.691V169.283V169.876V170.468V171.061V171.654V172.248V172.841V173.435V174.028V174.622V175.216V175.81V176.404V176.999V177.593V178.187V178.782V179.376V179.97V180.564V181.159V181.753V182.347V182.941V183.535V184.129V184.722V185.316V185.909V186.502V187.095V187.688V188.281V188.873V189.465V190.057V190.649V191.24V191.831V192.421V193.012V193.602V194.191V194.78V195.369V195.957V196.545V197.133V197.72V198.306V198.892V199.478V200.063V200.648V201.232V201.815V202.398V202.98V203.562V204.143V204.723V205.303V205.882V206.46V207.038V207.615V208.191V208.766V209.341V209.915V210.488V211.061V211.632V212.203V212.773V213.342V213.91V214.477V215.043V215.609V216.173V216.737V217.299V217.861V218.422V218.981V219.54V220.097V220.654V221.209V221.763V222.317V222.869V223.42V223.97V224.518V225.066V225.612V226.157V226.701V227.244V227.785V228.325V228.864V229.402V229.938V230.473V231.006V231.539V232.07V232.599V233.127V233.654V234.179V234.703V235.225V235.746V236.266V236.784V237.3V237.815V238.328V238.84V239.35V239.859V240.366V240.871V241.375V241.877V242.377V242.876V243.373V243.868V244.362V244.854V245.344V245.832V246.319V246.803V247.286V247.767V248.247V248.724V249.2V249.673V250.145V250.615V251.083V251.549V252.013V252.475V252.935V253.393V253.849V254.303V254.754V255.204V255.652V256.098V256.541V256.982V257.422V257.859V258.294V258.727V259.157V259.585V260.011V260.435V260.857V261.276V261.693V262.108V262.52V262.93V263.338V263.743V264.146V264.547V264.945V265.341V265.734V266.125V266.513V266.899V267.282V267.663V268.042V268.417V268.791V269.161V269.529V269.895V270.258V270.618V270.975V271.33V271.683V272.032V272.379V272.723V273.064V273.403V273.739V274.072V274.402V274.73V275.054V275.376V275.695V276.011V276.324V276.634V276.942V277.246V277.548V277.846V278.142V278.434V278.724V279.01V279.294V279.574V279.851V280.126V280.397V280.665V280.93V281.192V281.45V281.706V281.958V282.207V282.453V282.696V282.935V283.171V283.404V283.634V283.86V284.083V284.303V284.519V284.732V284.846H290.5V284.732V284.519V284.303V284.083V283.86V283.634V283.404V283.171V282.935V282.696V282.453V282.207V281.958V281.706V281.45V281.192V280.93V280.665V280.397V280.126V279.851V279.574V279.294V279.01V278.724V278.434V278.142V277.846V277.548V277.246V276.942V276.634V276.324V276.011V275.695V275.376V275.054V274.73V274.402V274.072V273.739V273.403V273.064V272.723V272.379V272.032V271.683V271.33V270.975V270.618V270.258V269.895V269.529V269.161V268.791V268.417V268.042V267.663V267.282V266.899V266.513V266.125V265.734V265.341V264.945V264.547V264.146V263.743V263.338V262.93V262.52V262.108V261.693V261.276V260.857V260.435V260.011V259.585V259.157V258.727V258.294V257.859V257.422V256.982V256.541V256.098V255.652V255.204V254.754V254.303V253.849V253.393V252.935V252.475V252.013V251.549V251.083V250.615V250.145V249.673V249.2V248.724V248.247V247.767V247.286V246.803V246.319V245.832V245.344V244.854V244.362V243.868V243.373V242.876V242.377V241.877V241.375V240.871V240.366V239.859V239.35V238.84V238.328V237.815V237.3V236.784V236.266V235.746V235.225V234.703V234.179V233.654V233.127V232.599V232.07V231.539V231.006V230.473V229.938V229.402V228.864V228.325V227.785V227.244V226.701V226.157V225.612V225.066V224.518V223.97V223.42V222.869V222.317V221.763V221.209V220.654V220.097V219.54V218.981V218.422V217.861V217.299V216.737V216.173V215.609V215.043V214.477V213.91V213.342V212.773V212.203V211.632V211.061V210.488V209.915V209.341V208.766V208.191V207.615V207.038V206.46V205.882V205.303V204.723V204.143V203.562V202.98V202.398V201.815V201.232V200.648V200.063V199.478V198.892V198.306V197.72V197.133V196.545V195.957V195.369V194.78V194.191V193.602V193.012V192.421V191.831V191.24V190.649V190.057V189.465V188.873V188.281V187.688V187.095V186.502V185.909V185.316V184.722V184.129V183.535V182.941V182.347V181.753V181.159V180.564V179.97V179.376V178.782V178.187V177.593V176.999V176.404V175.81V175.216V174.622V174.028V173.435V172.841V172.248V171.654V171.061V170.468V169.876V169.283V168.691V168.099V167.507V166.916V166.325V165.734V165.143V164.553V163.964V163.374V162.785V162.197V161.608V161.021V160.433V159.847V159.26V158.674V158.089V157.504V156.92V156.336V155.753V155.171V154.589V154.007V153.427V152.847V152.267V151.688V151.11V150.533V149.956V149.38V148.805V148.231V147.657V147.085V146.513V145.941V145.371V144.801V144.233V143.665V143.098V142.532V141.967V141.403V140.84V140.278V139.717V139.157V138.598V138.04V137.482V136.926V136.372V135.818V135.265V134.713V134.163V133.614V133.065V132.518V131.973V131.428V130.885V130.343V129.802V129.262V128.724V128.187V127.651V127.117V126.584V126.052V125.522V124.993V124.466V123.94V123.415V122.892V122.37V121.85V121.331V120.814V120.298V119.784V119.271V118.76V118.251V117.743V117.237V116.732V116.229V115.728V115.228V114.73V114.234V113.739V113.247V112.755V112.266V111.779V111.293V110.809V110.327V109.846V109.368V108.891V108.417V107.944V107.473V107.004V106.537V106.072V105.609V105.148V104.689V104.232V103.777V103.324V102.873V102.424V101.977V101.532V101.09V100.649V100.211V99.7747V99.3408V98.909V98.4794V98.0521V97.627V97.2042V96.7836V96.3653V95.9493V95.5357V95.1243V94.7153V94.3086V93.9044V93.5025V93.103V92.7059V92.3113V91.9191V91.5293V91.1421V90.7573V90.375V89.9953V89.6181V89.2435V88.8714V88.5019V88.1349V87.7706V87.409V87.0499V86.6936V86.3398V85.9888V85.6405V85.2949V84.952V84.6119V84.2745V83.9399V83.6081V83.2791V82.9529V82.6295V82.309V81.9914V81.6766V81.3647V81.0558V80.7497V80.4466V80.1465V79.8493V79.5551V79.2639V78.9757V78.6906V78.4084V78.1294V77.8534V77.5805V77.3107V77.044V76.7805V76.5201V76.2628V76.0088V75.7579V75.5102V75.2658V75.0246V74.7866V74.5519V74.3205V74.0924V73.8676V73.6461V73.428V73.2132V73.0018V72.7937V72.5891V72.3879V72.1901V71.9958V71.8049V71.6175V71.4336V71.2532V71.0763V70.9029C290.5 67.8684 288.154 65.5 285.21 65.5H199.459Z" fill="url(#paint69_linear_1291_4401)"/>
<defs>
<linearGradient id="paint0_linear_1291_4401" x1="107.274" y1="190.047" x2="56.3088" y2="260.608" gradientUnits="userSpaceOnUse">
<stop stop-color="#003E06"/>
<stop offset="1" stop-color="#00CB14"/>
</linearGradient>
<linearGradient id="paint1_linear_1291_4401" x1="107.274" y1="190.047" x2="56.3088" y2="260.608" gradientUnits="userSpaceOnUse">
<stop stop-color="#003E06"/>
<stop offset="1" stop-color="#00CB14"/>
</linearGradient>
<linearGradient id="paint2_linear_1291_4401" x1="123.251" y1="95.6309" x2="83.7534" y2="176.775" gradientUnits="userSpaceOnUse">
<stop stop-color="#003E06"/>
<stop offset="1" stop-color="#00CB14"/>
</linearGradient>
<linearGradient id="paint3_linear_1291_4401" x1="123.251" y1="95.6309" x2="83.7534" y2="176.775" gradientUnits="userSpaceOnUse">
<stop stop-color="#003E06"/>
<stop offset="1" stop-color="#00CB14"/>
</linearGradient>
<linearGradient id="paint4_linear_1291_4401" x1="123.251" y1="95.6309" x2="83.7534" y2="176.775" gradientUnits="userSpaceOnUse">
<stop stop-color="#003E06"/>
<stop offset="1" stop-color="#00CB14"/>
</linearGradient>
<linearGradient id="paint5_linear_1291_4401" x1="123.251" y1="95.6309" x2="83.7534" y2="176.775" gradientUnits="userSpaceOnUse">
<stop stop-color="#003E06"/>
<stop offset="1" stop-color="#00CB14"/>
</linearGradient>
<linearGradient id="paint6_linear_1291_4401" x1="123.251" y1="95.6309" x2="83.7534" y2="176.775" gradientUnits="userSpaceOnUse">
<stop stop-color="#003E06"/>
<stop offset="1" stop-color="#00CB14"/>
</linearGradient>
<linearGradient id="paint7_linear_1291_4401" x1="123.251" y1="95.6309" x2="83.7534" y2="176.775" gradientUnits="userSpaceOnUse">
<stop stop-color="#003E06"/>
<stop offset="1" stop-color="#00CB14"/>
</linearGradient>
<linearGradient id="paint8_linear_1291_4401" x1="123.251" y1="95.6309" x2="83.7534" y2="176.775" gradientUnits="userSpaceOnUse">
<stop stop-color="#003E06"/>
<stop offset="1" stop-color="#00CB14"/>
</linearGradient>
<linearGradient id="paint9_linear_1291_4401" x1="123.251" y1="95.6309" x2="83.7534" y2="176.775" gradientUnits="userSpaceOnUse">
<stop stop-color="#003E06"/>
<stop offset="1" stop-color="#00CB14"/>
</linearGradient>
<linearGradient id="paint10_linear_1291_4401" x1="130.095" y1="85" x2="5.60927" y2="182.093" gradientUnits="userSpaceOnUse">
<stop stop-color="#015809"/>
<stop offset="1" stop-color="#01C414"/>
</linearGradient>
<linearGradient id="paint11_linear_1291_4401" x1="187.919" y1="44.5607" x2="301.861" y2="20.5186" gradientUnits="userSpaceOnUse">
<stop stop-color="#C85400"/>
<stop offset="1" stop-color="#C00000"/>
</linearGradient>
<linearGradient id="paint12_linear_1291_4401" x1="187.919" y1="44.5607" x2="301.861" y2="20.5186" gradientUnits="userSpaceOnUse">
<stop stop-color="#C85400"/>
<stop offset="1" stop-color="#C00000"/>
</linearGradient>
<linearGradient id="paint13_linear_1291_4401" x1="187.919" y1="44.5607" x2="301.861" y2="20.5186" gradientUnits="userSpaceOnUse">
<stop stop-color="#C85400"/>
<stop offset="1" stop-color="#C00000"/>
</linearGradient>
<linearGradient id="paint14_linear_1291_4401" x1="187.919" y1="44.5607" x2="301.861" y2="20.5186" gradientUnits="userSpaceOnUse">
<stop stop-color="#C85400"/>
<stop offset="1" stop-color="#C00000"/>
</linearGradient>
<linearGradient id="paint15_linear_1291_4401" x1="187.919" y1="44.5607" x2="301.861" y2="20.5186" gradientUnits="userSpaceOnUse">
<stop stop-color="#C85400"/>
<stop offset="1" stop-color="#C00000"/>
</linearGradient>
<linearGradient id="paint16_linear_1291_4401" x1="187.919" y1="44.5607" x2="301.861" y2="20.5186" gradientUnits="userSpaceOnUse">
<stop stop-color="#C85400"/>
<stop offset="1" stop-color="#C00000"/>
</linearGradient>
<linearGradient id="paint17_linear_1291_4401" x1="187.919" y1="44.5607" x2="301.861" y2="20.5186" gradientUnits="userSpaceOnUse">
<stop stop-color="#C85400"/>
<stop offset="1" stop-color="#C00000"/>
</linearGradient>
<linearGradient id="paint18_linear_1291_4401" x1="187.919" y1="44.5607" x2="301.861" y2="20.5186" gradientUnits="userSpaceOnUse">
<stop stop-color="#C85400"/>
<stop offset="1" stop-color="#C00000"/>
</linearGradient>
<linearGradient id="paint19_linear_1291_4401" x1="187.919" y1="44.5607" x2="301.861" y2="20.5186" gradientUnits="userSpaceOnUse">
<stop stop-color="#C85400"/>
<stop offset="1" stop-color="#C00000"/>
</linearGradient>
<linearGradient id="paint20_linear_1291_4401" x1="187.919" y1="44.5607" x2="301.861" y2="20.5186" gradientUnits="userSpaceOnUse">
<stop stop-color="#C85400"/>
<stop offset="1" stop-color="#C00000"/>
</linearGradient>
<linearGradient id="paint21_linear_1291_4401" x1="187.919" y1="44.5607" x2="301.861" y2="20.5186" gradientUnits="userSpaceOnUse">
<stop stop-color="#C85400"/>
<stop offset="1" stop-color="#C00000"/>
</linearGradient>
<linearGradient id="paint22_linear_1291_4401" x1="187.919" y1="44.5607" x2="301.861" y2="20.5186" gradientUnits="userSpaceOnUse">
<stop stop-color="#C85400"/>
<stop offset="1" stop-color="#C00000"/>
</linearGradient>
<linearGradient id="paint23_linear_1291_4401" x1="187.919" y1="44.5607" x2="301.861" y2="20.5186" gradientUnits="userSpaceOnUse">
<stop stop-color="#C85400"/>
<stop offset="1" stop-color="#C00000"/>
</linearGradient>
<linearGradient id="paint24_linear_1291_4401" x1="187.919" y1="44.5607" x2="301.861" y2="20.5186" gradientUnits="userSpaceOnUse">
<stop stop-color="#C85400"/>
<stop offset="1" stop-color="#C00000"/>
</linearGradient>
<linearGradient id="paint25_linear_1291_4401" x1="187.919" y1="44.5607" x2="301.861" y2="20.5186" gradientUnits="userSpaceOnUse">
<stop stop-color="#C85400"/>
<stop offset="1" stop-color="#C00000"/>
</linearGradient>
<linearGradient id="paint26_linear_1291_4401" x1="187.919" y1="44.5607" x2="301.861" y2="20.5186" gradientUnits="userSpaceOnUse">
<stop stop-color="#C85400"/>
<stop offset="1" stop-color="#C00000"/>
</linearGradient>
<linearGradient id="paint27_linear_1291_4401" x1="187.919" y1="44.5607" x2="301.861" y2="20.5186" gradientUnits="userSpaceOnUse">
<stop stop-color="#C85400"/>
<stop offset="1" stop-color="#C00000"/>
</linearGradient>
<linearGradient id="paint28_linear_1291_4401" x1="187.919" y1="44.5607" x2="301.861" y2="20.5186" gradientUnits="userSpaceOnUse">
<stop stop-color="#C85400"/>
<stop offset="1" stop-color="#C00000"/>
</linearGradient>
<linearGradient id="paint29_linear_1291_4401" x1="187.919" y1="44.5607" x2="301.861" y2="20.5186" gradientUnits="userSpaceOnUse">
<stop stop-color="#C85400"/>
<stop offset="1" stop-color="#C00000"/>
</linearGradient>
<linearGradient id="paint30_linear_1291_4401" x1="237.075" y1="128.617" x2="247.789" y2="128.101" gradientUnits="userSpaceOnUse">
<stop stop-color="#C85400"/>
<stop offset="1" stop-color="#C00000"/>
</linearGradient>
<linearGradient id="paint31_linear_1291_4401" x1="237.075" y1="213.581" x2="247.786" y2="213.033" gradientUnits="userSpaceOnUse">
<stop stop-color="#C85400"/>
<stop offset="1" stop-color="#C00000"/>
</linearGradient>
<linearGradient id="paint32_linear_1291_4401" x1="276" y1="257.5" x2="228.224" y2="284.131" gradientUnits="userSpaceOnUse">
<stop stop-color="#003E06"/>
<stop offset="1" stop-color="#00CB14"/>
</linearGradient>
<linearGradient id="paint33_linear_1291_4401" x1="209.278" y1="135.523" x2="311.02" y2="85.0686" gradientUnits="userSpaceOnUse">
<stop stop-color="#C63B01"/>
<stop offset="1" stop-color="#C10101"/>
</linearGradient>
<linearGradient id="paint34_linear_1291_4401" x1="202.266" y1="220.678" x2="323.549" y2="157.758" gradientUnits="userSpaceOnUse">
<stop stop-color="#C63B01"/>
<stop offset="1" stop-color="#C10101"/>
</linearGradient>
<linearGradient id="paint35_linear_1291_4401" x1="393.132" y1="197" x2="245.448" y2="336.781" gradientUnits="userSpaceOnUse">
<stop stop-color="#015809"/>
<stop offset="1" stop-color="#01C414"/>
</linearGradient>
<linearGradient id="paint36_linear_1291_4401" x1="506.416" y1="95.6309" x2="467.201" y2="177.132" gradientUnits="userSpaceOnUse">
<stop stop-color="#003E06"/>
<stop offset="1" stop-color="#00CB14"/>
</linearGradient>
<linearGradient id="paint37_linear_1291_4401" x1="506.416" y1="95.6309" x2="467.201" y2="177.132" gradientUnits="userSpaceOnUse">
<stop stop-color="#003E06"/>
<stop offset="1" stop-color="#00CB14"/>
</linearGradient>
<linearGradient id="paint38_linear_1291_4401" x1="506.416" y1="95.6309" x2="467.201" y2="177.132" gradientUnits="userSpaceOnUse">
<stop stop-color="#003E06"/>
<stop offset="1" stop-color="#00CB14"/>
</linearGradient>
<linearGradient id="paint39_linear_1291_4401" x1="506.416" y1="95.6309" x2="467.201" y2="177.132" gradientUnits="userSpaceOnUse">
<stop stop-color="#003E06"/>
<stop offset="1" stop-color="#00CB14"/>
</linearGradient>
<linearGradient id="paint40_linear_1291_4401" x1="506.416" y1="95.6309" x2="467.201" y2="177.132" gradientUnits="userSpaceOnUse">
<stop stop-color="#003E06"/>
<stop offset="1" stop-color="#00CB14"/>
</linearGradient>
<linearGradient id="paint41_linear_1291_4401" x1="506.416" y1="95.6309" x2="467.201" y2="177.132" gradientUnits="userSpaceOnUse">
<stop stop-color="#003E06"/>
<stop offset="1" stop-color="#00CB14"/>
</linearGradient>
<linearGradient id="paint42_linear_1291_4401" x1="506.416" y1="95.6309" x2="467.201" y2="177.132" gradientUnits="userSpaceOnUse">
<stop stop-color="#003E06"/>
<stop offset="1" stop-color="#00CB14"/>
</linearGradient>
<linearGradient id="paint43_linear_1291_4401" x1="506.416" y1="95.6309" x2="467.201" y2="177.132" gradientUnits="userSpaceOnUse">
<stop stop-color="#003E06"/>
<stop offset="1" stop-color="#00CB14"/>
</linearGradient>
<linearGradient id="paint44_linear_1291_4401" x1="506.416" y1="95.6309" x2="467.201" y2="177.132" gradientUnits="userSpaceOnUse">
<stop stop-color="#003E06"/>
<stop offset="1" stop-color="#00CB14"/>
</linearGradient>
<linearGradient id="paint45_linear_1291_4401" x1="506.416" y1="95.6309" x2="467.201" y2="177.132" gradientUnits="userSpaceOnUse">
<stop stop-color="#003E06"/>
<stop offset="1" stop-color="#00CB14"/>
</linearGradient>
<linearGradient id="paint46_linear_1291_4401" x1="506.416" y1="95.6309" x2="467.201" y2="177.132" gradientUnits="userSpaceOnUse">
<stop stop-color="#003E06"/>
<stop offset="1" stop-color="#00CB14"/>
</linearGradient>
<linearGradient id="paint47_linear_1291_4401" x1="506.416" y1="95.6309" x2="467.201" y2="177.132" gradientUnits="userSpaceOnUse">
<stop stop-color="#003E06"/>
<stop offset="1" stop-color="#00CB14"/>
</linearGradient>
<linearGradient id="paint48_linear_1291_4401" x1="644.62" y1="184.373" x2="606.441" y2="223.591" gradientUnits="userSpaceOnUse">
<stop stop-color="#003E06"/>
<stop offset="1" stop-color="#00CB14"/>
</linearGradient>
<linearGradient id="paint49_linear_1291_4401" x1="644.62" y1="184.373" x2="606.441" y2="223.591" gradientUnits="userSpaceOnUse">
<stop stop-color="#003E06"/>
<stop offset="1" stop-color="#00CB14"/>
</linearGradient>
<linearGradient id="paint50_linear_1291_4401" x1="644.62" y1="184.373" x2="606.441" y2="223.591" gradientUnits="userSpaceOnUse">
<stop stop-color="#003E06"/>
<stop offset="1" stop-color="#00CB14"/>
</linearGradient>
<linearGradient id="paint51_linear_1291_4401" x1="644.62" y1="184.373" x2="606.441" y2="223.591" gradientUnits="userSpaceOnUse">
<stop stop-color="#003E06"/>
<stop offset="1" stop-color="#00CB14"/>
</linearGradient>
<linearGradient id="paint52_linear_1291_4401" x1="644.62" y1="184.373" x2="606.441" y2="223.591" gradientUnits="userSpaceOnUse">
<stop stop-color="#003E06"/>
<stop offset="1" stop-color="#00CB14"/>
</linearGradient>
<linearGradient id="paint53_linear_1291_4401" x1="644.62" y1="184.373" x2="606.441" y2="223.591" gradientUnits="userSpaceOnUse">
<stop stop-color="#003E06"/>
<stop offset="1" stop-color="#00CB14"/>
</linearGradient>
<linearGradient id="paint54_linear_1291_4401" x1="644.62" y1="184.373" x2="606.441" y2="223.591" gradientUnits="userSpaceOnUse">
<stop stop-color="#003E06"/>
<stop offset="1" stop-color="#00CB14"/>
</linearGradient>
<linearGradient id="paint55_linear_1291_4401" x1="783.751" y1="168.003" x2="754.176" y2="292.885" gradientUnits="userSpaceOnUse">
<stop stop-color="#003E06"/>
<stop offset="1" stop-color="#00CB14"/>
</linearGradient>
<linearGradient id="paint56_linear_1291_4401" x1="513.095" y1="85" x2="388.609" y2="182.093" gradientUnits="userSpaceOnUse">
<stop stop-color="#015809"/>
<stop offset="1" stop-color="#01C414"/>
</linearGradient>
<linearGradient id="paint57_linear_1291_4401" x1="490.274" y1="190.047" x2="439.309" y2="260.608" gradientUnits="userSpaceOnUse">
<stop stop-color="#003E06"/>
<stop offset="1" stop-color="#00CB14"/>
</linearGradient>
<linearGradient id="paint58_linear_1291_4401" x1="490.274" y1="190.047" x2="439.309" y2="260.608" gradientUnits="userSpaceOnUse">
<stop stop-color="#003E06"/>
<stop offset="1" stop-color="#00CB14"/>
</linearGradient>
<linearGradient id="paint59_linear_1291_4401" x1="678.919" y1="95.6309" x2="638.851" y2="176.033" gradientUnits="userSpaceOnUse">
<stop stop-color="#003E06"/>
<stop offset="1" stop-color="#00CB14"/>
</linearGradient>
<linearGradient id="paint60_linear_1291_4401" x1="678.919" y1="95.6309" x2="638.851" y2="176.033" gradientUnits="userSpaceOnUse">
<stop stop-color="#003E06"/>
<stop offset="1" stop-color="#00CB14"/>
</linearGradient>
<linearGradient id="paint61_linear_1291_4401" x1="678.919" y1="95.6309" x2="638.851" y2="176.033" gradientUnits="userSpaceOnUse">
<stop stop-color="#003E06"/>
<stop offset="1" stop-color="#00CB14"/>
</linearGradient>
<linearGradient id="paint62_linear_1291_4401" x1="678.919" y1="95.6309" x2="638.851" y2="176.033" gradientUnits="userSpaceOnUse">
<stop stop-color="#003E06"/>
<stop offset="1" stop-color="#00CB14"/>
</linearGradient>
<linearGradient id="paint63_linear_1291_4401" x1="678.919" y1="95.6309" x2="638.851" y2="176.033" gradientUnits="userSpaceOnUse">
<stop stop-color="#003E06"/>
<stop offset="1" stop-color="#00CB14"/>
</linearGradient>
<linearGradient id="paint64_linear_1291_4401" x1="678.919" y1="95.6309" x2="638.851" y2="176.033" gradientUnits="userSpaceOnUse">
<stop stop-color="#003E06"/>
<stop offset="1" stop-color="#00CB14"/>
</linearGradient>
<linearGradient id="paint65_linear_1291_4401" x1="678.919" y1="95.6309" x2="638.851" y2="176.033" gradientUnits="userSpaceOnUse">
<stop stop-color="#003E06"/>
<stop offset="1" stop-color="#00CB14"/>
</linearGradient>
<linearGradient id="paint66_linear_1291_4401" x1="678.919" y1="95.6309" x2="638.851" y2="176.033" gradientUnits="userSpaceOnUse">
<stop stop-color="#003E06"/>
<stop offset="1" stop-color="#00CB14"/>
</linearGradient>
<linearGradient id="paint67_linear_1291_4401" x1="678.919" y1="95.6309" x2="638.851" y2="176.033" gradientUnits="userSpaceOnUse">
<stop stop-color="#003E06"/>
<stop offset="1" stop-color="#00CB14"/>
</linearGradient>
<linearGradient id="paint68_linear_1291_4401" x1="841.518" y1="167.22" x2="778.998" y2="248.3" gradientUnits="userSpaceOnUse">
<stop stop-color="#003E06"/>
<stop offset="1" stop-color="#00CB14"/>
</linearGradient>
<linearGradient id="paint69_linear_1291_4401" x1="117.908" y1="200.66" x2="288.969" y2="200.66" gradientUnits="userSpaceOnUse">
<stop stop-color="#DA1F0B"/>
<stop offset="1" stop-color="#FF8C5B"/>
</linearGradient>
</defs>
</svg>
