<svg width="235" height="136" viewBox="0 0 235 136" fill="none" xmlns="http://www.w3.org/2000/svg">
<path d="M22.4108 119.05L18.6603 118.041L13.7728 120.862L15.5208 123.027L13.0431 124.458L5.62693 114.847L8.34222 113.279L24.9564 117.58L22.4108 119.05ZM9.53016 115.591L12.4152 119.177L15.7414 117.257L9.53016 115.591Z" fill="#444444"/>
<path d="M21.8324 105.197L32.6087 111.419C33.163 111.739 33.6891 112.016 34.1869 112.251L32.0317 113.496C31.6923 113.365 31.3415 113.195 30.9795 112.986C31.1379 113.3 31.1153 113.639 30.9116 114.005C30.7193 114.364 30.3516 114.701 29.8085 115.014C28.6206 115.7 27.229 116.027 25.6338 115.994C24.0385 115.948 22.6074 115.56 21.3402 114.828C20.107 114.116 19.4452 113.303 19.3547 112.389C19.2755 111.468 19.8185 110.671 20.9838 109.998C22.1831 109.306 23.3145 109.051 24.3779 109.234L19.6092 106.481L21.8324 105.197ZM23.6143 113.515C24.3497 113.94 25.1247 114.165 25.9392 114.191C26.7425 114.211 27.4496 114.044 28.0606 113.692C28.6602 113.345 28.9374 112.937 28.8921 112.467C28.8469 111.997 28.4565 111.549 27.7211 111.125C26.9971 110.707 26.2391 110.491 25.4471 110.478C24.6438 110.459 23.9424 110.622 23.3427 110.968C22.7431 111.314 22.4546 111.722 22.4772 112.193C22.5112 112.656 22.8902 113.097 23.6143 113.515Z" fill="#444444"/>
<path d="M32.2401 99.1891L43.0164 105.41C43.5708 105.73 44.0969 106.008 44.5947 106.243L42.4394 107.487C42.1 107.357 41.7493 107.187 41.3872 106.978C41.5456 107.291 41.523 107.631 41.3193 107.997C41.127 108.356 40.7593 108.692 40.2163 109.006C39.0283 109.692 37.6367 110.018 36.0415 109.986C34.4463 109.94 33.0151 109.551 31.7479 108.82C30.5148 108.108 29.8529 107.295 29.7624 106.38C29.6832 105.459 30.2262 104.662 31.3916 103.99C32.5908 103.297 33.7222 103.043 34.7857 103.225L30.0169 100.473L32.2401 99.1891ZM34.022 107.507C34.7574 107.931 35.5324 108.157 36.347 108.183C37.1502 108.202 37.8573 108.036 38.4683 107.683C39.0679 107.337 39.3451 106.929 39.2998 106.459C39.2546 105.988 38.8643 105.541 38.1289 105.116C37.4048 104.698 36.6468 104.483 35.8548 104.47C35.0515 104.45 34.3501 104.613 33.7505 104.96C33.1508 105.306 32.8623 105.714 32.885 106.184C32.9189 106.648 33.2979 107.089 34.022 107.507Z" fill="#444444"/>
<path d="M48.3851 101.429C47.6723 101.018 47.3329 100.554 47.3668 100.038C47.4008 99.522 47.7289 99.0191 48.3511 98.5292L50.0991 97.1674C50.4611 96.8931 50.4724 96.658 50.133 96.462C49.8162 96.2792 49.4316 96.2008 48.979 96.2269C48.5378 96.2465 48.0909 96.3869 47.6384 96.6482C47.1632 96.9225 46.9143 97.2164 46.8917 97.5299C46.8803 97.8369 47.05 98.1112 47.4008 98.3529L44.974 99.264C44.3291 98.8003 44.0463 98.2255 44.1254 97.5397C44.2046 96.8539 44.7647 96.2106 45.8055 95.6097C47.05 94.8912 48.2663 94.5353 49.4542 94.5418C50.6308 94.5418 51.683 94.8096 52.6107 95.3452L56.7176 97.7161C57.2154 98.0035 57.6906 98.2386 58.1431 98.4215L56.0727 99.6167C55.7673 99.5057 55.4052 99.3293 54.9866 99.0877C55.2808 99.8714 54.8735 100.583 53.7647 101.223C52.9049 101.72 51.9602 101.978 50.9306 101.997C49.9124 102.01 49.0639 101.821 48.3851 101.429ZM52.5598 99.9792C53.0916 99.6722 53.3801 99.3359 53.4253 98.9701C53.4706 98.5913 53.1481 98.2027 52.458 97.8043L52.0846 97.5887L50.4894 98.8427C49.9011 99.2999 49.9068 99.7016 50.5064 100.048C50.7779 100.205 51.106 100.283 51.4907 100.283C51.864 100.276 52.2204 100.175 52.5598 99.9792Z" fill="#444444"/>
<path d="M69.9908 95.3047L67.7338 96.6077L56.1598 89.9261L58.349 88.6622L59.3673 89.2501C59.2315 88.9366 59.2768 88.5839 59.503 88.192C59.718 87.7936 60.1253 87.4213 60.7249 87.0751C61.9129 86.3893 63.2592 86.0823 64.7639 86.1542C66.2573 86.2195 67.6433 86.6212 68.9217 87.3592C70.2001 88.0973 70.8846 88.917 70.9751 89.8183C71.077 90.7131 70.5452 91.4969 69.3799 92.1696C68.2712 92.8097 67.1285 93.0775 65.9519 92.973L69.9908 95.3047ZM67.8526 89.9947C67.8186 89.5179 67.4396 89.0705 66.7155 88.6525C65.9914 88.2344 65.2221 88.0189 64.4075 88.0058C63.6043 87.9863 62.9028 88.1495 62.3032 88.4957C61.7036 88.8419 61.4207 89.2533 61.4547 89.7301C61.4773 90.2004 61.845 90.6413 62.5577 91.0527C63.2705 91.4642 64.0398 91.6798 64.8657 91.6994C65.6916 91.7189 66.4044 91.5557 67.004 91.2095C67.6037 90.8633 67.8865 90.4584 67.8526 89.9947Z" fill="#444444"/>
<path d="M77.1576 87.4444L74.9005 88.7474L66.551 83.9273L68.8081 82.6242L77.1576 87.4444ZM63.5472 82.5067C63.1625 82.2846 62.9702 82.0168 62.9702 81.7033C62.9589 81.3833 63.1456 81.1122 63.5302 80.8902C63.9149 80.6681 64.3788 80.5571 64.9218 80.5571C65.4649 80.5571 65.9344 80.6714 66.3304 80.9C66.7037 81.1155 66.8904 81.38 66.8904 81.6935C66.8904 82.007 66.6981 82.2748 66.3134 82.4969C65.9287 82.719 65.4649 82.83 64.9218 82.83C64.3788 82.83 63.9206 82.7222 63.5472 82.5067Z" fill="#444444"/>
<path d="M76.8078 80.1222C76.2082 80.4683 75.9141 80.8798 75.9254 81.3566C75.9367 81.8334 76.3044 82.2808 77.0285 82.6988C77.7525 83.1168 78.5332 83.3323 79.3704 83.3454C80.2076 83.3454 80.926 83.1723 81.5257 82.8262C82.0574 82.5192 82.3459 82.1959 82.3912 81.8562C82.4251 81.5101 82.3063 81.1933 82.0348 80.9059L84.6822 80.1418C85.2479 80.7035 85.4685 81.3403 85.344 82.0522C85.2196 82.7641 84.6369 83.4205 83.5961 84.0214C82.3516 84.7399 80.8864 85.1024 79.2007 85.1089C77.5149 85.1024 76.0385 84.7333 74.7714 84.0018C73.4929 83.2638 72.848 82.4147 72.8367 81.4546C72.8367 80.4879 73.4477 79.6519 74.6695 78.9465C75.733 78.3326 76.8814 77.9897 78.1146 77.9178C79.3365 77.8394 80.4339 77.9701 81.4069 78.3097L80.0662 79.8674C78.8556 79.4821 77.7695 79.567 76.8078 80.1222Z" fill="#444444"/>
<path d="M80.8435 72.7958L83.3382 74.236L85.0183 73.2661L87.0208 74.4222L85.3407 75.3921L88.8367 77.4103C89.1874 77.6127 89.5155 77.7107 89.8209 77.7042C90.1264 77.6977 90.4489 77.5964 90.7883 77.4005C91.0937 77.2241 91.303 77.0772 91.4162 76.9596L93.2829 78.0373C93.0906 78.3051 92.7342 78.5892 92.2138 78.8896C91.3992 79.3599 90.5281 79.6016 89.6003 79.6146C88.6613 79.6212 87.7901 79.3926 86.9869 78.9288L83.1006 76.6853L81.5902 77.5572L79.5877 76.4012L80.012 76.1562C80.4306 75.9146 80.6286 75.6631 80.6059 75.4019C80.5833 75.1275 80.374 74.8761 79.978 74.6475L78.8071 73.9715L80.8435 72.7958Z" fill="#444444"/>
<path d="M100.799 73.7961C100.528 73.6916 100.205 73.5315 99.832 73.316C99.9904 73.6556 99.9508 74.0051 99.7132 74.3643C99.4756 74.7105 99.1192 75.0207 98.644 75.295C97.6598 75.8633 96.5736 76.131 95.3857 76.0984C94.1864 76.0592 93.1173 75.7685 92.1783 75.2264L86.9004 72.1795L89.1575 70.8765L93.9771 73.6589C94.4749 73.9463 95.0124 74.1063 95.5893 74.139C96.155 74.1651 96.6868 74.0345 97.1846 73.7471C97.6711 73.4662 97.9087 73.1592 97.8973 72.8261C97.8747 72.4865 97.6145 72.173 97.1167 71.8856L92.2631 69.0837L94.5202 67.7806L101.359 71.7289C101.891 72.0358 102.423 72.3102 102.955 72.5518L100.799 73.7961Z" fill="#444444"/>
<path d="M101.986 63.4313L104.26 64.7441C103.989 64.8486 103.74 64.9662 103.514 65.0968C102.869 65.4691 102.535 65.8773 102.512 66.3215C102.478 66.7591 102.88 67.2196 103.717 67.7029L107.536 69.9072L105.278 71.2102L96.929 66.3901L99.1182 65.1262L100.357 65.8414C99.8931 65.1034 100.25 64.3947 101.426 63.7155C101.551 63.6436 101.737 63.5489 101.986 63.4313Z" fill="#444444"/>
<path d="M108.395 63.4933L112.129 61.338C111.643 61.0832 111.082 60.9559 110.449 60.9559C109.827 60.9494 109.216 61.1192 108.616 61.4653C108.073 61.7788 107.802 62.1315 107.802 62.5234C107.802 62.9153 108 63.2386 108.395 63.4933ZM114.522 62.4646L116.966 61.7005C117.509 62.2752 117.695 62.899 117.526 63.5717C117.367 64.2379 116.796 64.8551 115.812 65.4234C114.612 66.1157 113.192 66.4717 111.552 66.4913C109.9 66.5043 108.395 66.119 107.038 65.3352C105.748 64.5906 105.103 63.7481 105.103 62.8075C105.092 61.8605 105.641 61.0669 106.749 60.4268C108.039 59.6823 109.431 59.323 110.924 59.3492C112.429 59.3688 113.854 59.7672 115.201 60.5444C115.291 60.5967 115.387 60.6587 115.489 60.7305C115.602 60.7959 115.693 60.8481 115.761 60.8873L115.863 60.9657L109.889 64.4143C110.455 64.7147 111.122 64.8519 111.891 64.8257C112.661 64.7996 113.328 64.6233 113.894 64.2967C114.856 63.7415 115.065 63.1308 114.522 62.4646Z" fill="#444444"/>
<path d="M125.261 56.8724C126.098 56.8724 126.811 56.7026 127.399 56.363C127.988 56.0233 128.276 55.6151 128.265 55.1383C128.265 54.655 127.891 54.1978 127.145 53.7667C126.398 53.3357 125.606 53.1201 124.769 53.1201C123.943 53.1136 123.236 53.2801 122.647 53.6198C122.059 53.9594 121.765 54.3709 121.765 54.8542C121.776 55.331 122.155 55.7849 122.902 56.216C123.649 56.6471 124.435 56.8659 125.261 56.8724ZM118.71 54.9718C118.71 54.0051 119.338 53.1593 120.594 52.4343C121.85 51.7093 123.309 51.3501 124.972 51.3566C126.647 51.3566 128.123 51.7257 129.402 52.4637C130.68 53.2018 131.319 54.0541 131.319 55.0208C131.331 55.9809 130.708 56.8234 129.453 57.5484C128.197 58.2734 126.732 58.6359 125.057 58.6359C123.394 58.6294 121.923 58.2571 120.645 57.519C119.366 56.781 118.722 55.9319 118.71 54.9718Z" fill="#444444"/>
<path d="M128.807 45.5961C128.491 45.779 128.304 45.9912 128.247 46.2329C128.191 46.4615 128.372 46.6966 128.791 46.9383L129.707 47.4673L131.591 46.3799L133.525 47.4967L131.642 48.5842L138.056 52.2875L135.782 53.6003L129.368 49.897L127.976 50.7004L126.041 49.5835L127.433 48.7801L126.483 48.2315C125.543 47.6894 125.063 47.0983 125.04 46.4582C125.029 45.8116 125.487 45.2205 126.415 44.685C126.912 44.3976 127.342 44.2147 127.704 44.1363L129.605 45.2336C129.356 45.312 129.09 45.4328 128.807 45.5961Z" fill="#444444"/>
<path d="M142.817 46.9136C142.104 46.5022 141.765 46.0384 141.799 45.5225C141.833 45.0065 142.161 44.5036 142.783 44.0137L144.531 42.6519C144.893 42.3776 144.904 42.1425 144.565 41.9465C144.248 41.7636 143.863 41.6853 143.411 41.7114C142.97 41.731 142.523 41.8714 142.07 42.1327C141.595 42.407 141.346 42.7009 141.324 43.0144C141.312 43.3214 141.482 43.5957 141.833 43.8374L139.406 44.7485C138.761 44.2848 138.478 43.71 138.557 43.0242C138.637 42.3384 139.197 41.6951 140.237 41.0942C141.482 40.3757 142.698 40.0197 143.886 40.0263C145.063 40.0263 146.115 40.2941 147.043 40.8296L151.15 43.2005C151.647 43.4879 152.122 43.7231 152.575 43.9059L150.505 45.1012C150.199 44.9901 149.837 44.8138 149.419 44.5721C149.713 45.3559 149.305 46.0678 148.197 46.7079C147.337 47.2043 146.392 47.4623 145.363 47.4819C144.344 47.4949 143.496 47.3055 142.817 46.9136ZM146.992 45.4637C147.523 45.1567 147.812 44.8203 147.857 44.4546C147.902 44.0758 147.58 43.6871 146.89 43.2887L146.517 43.0732L144.921 44.3272C144.333 44.7844 144.339 45.1861 144.938 45.5323C145.21 45.689 145.538 45.7674 145.923 45.7674C146.296 45.7609 146.652 45.6596 146.992 45.4637Z" fill="#444444"/>
<path d="M156.175 34.3035C155.575 34.6496 155.281 35.0611 155.293 35.5379C155.304 36.0147 155.672 36.4621 156.396 36.8801C157.12 37.2981 157.9 37.5137 158.738 37.5267C159.575 37.5267 160.293 37.3536 160.893 37.0075C161.425 36.7005 161.713 36.3772 161.758 36.0376C161.792 35.6914 161.674 35.3746 161.402 35.0872L164.049 34.3231C164.615 34.8848 164.836 35.5216 164.711 36.2335C164.587 36.9454 164.004 37.6018 162.963 38.2027C161.719 38.9212 160.254 39.2837 158.568 39.2902C156.882 39.2837 155.406 38.9146 154.139 38.1831C152.86 37.4451 152.215 36.596 152.204 35.6359C152.204 34.6692 152.815 33.8332 154.037 33.1278C155.1 32.5139 156.249 32.171 157.482 32.0991C158.704 32.0207 159.801 32.1514 160.774 32.491L159.433 34.0487C158.223 33.6634 157.137 33.7483 156.175 34.3035Z" fill="#444444"/>
<path d="M165.455 33.8445C164.743 33.433 164.403 32.9692 164.437 32.4533C164.471 31.9373 164.799 31.4344 165.421 30.9445L167.169 29.5827C167.531 29.3084 167.543 29.0733 167.203 28.8773C166.887 28.6944 166.502 28.6161 166.049 28.6422C165.608 28.6618 165.161 28.8022 164.709 29.0635C164.234 29.3378 163.985 29.6317 163.962 29.9452C163.951 30.2522 164.12 30.5265 164.471 30.7682L162.044 31.6793C161.399 31.2156 161.117 30.6408 161.196 29.955C161.275 29.2692 161.835 28.6259 162.876 28.025C164.12 27.3065 165.337 26.9506 166.525 26.9571C167.701 26.9571 168.753 27.2249 169.681 27.7605L173.788 30.1314C174.286 30.4187 174.761 30.6539 175.213 30.8367L173.143 32.032C172.838 31.921 172.476 31.7446 172.057 31.5029C172.351 32.2867 171.944 32.9986 170.835 33.6387C169.975 34.1351 169.031 34.3931 168.001 34.4127C166.983 34.4258 166.134 34.2363 165.455 33.8445ZM169.63 32.3945C170.162 32.0875 170.45 31.7511 170.496 31.3854C170.541 31.0066 170.218 30.6179 169.528 30.2195L169.155 30.004L167.56 31.258C166.971 31.7152 166.977 32.1169 167.577 32.4631C167.848 32.6198 168.176 32.6982 168.561 32.6982C168.934 32.6917 169.291 32.5904 169.63 32.3945Z" fill="#444444"/>
<path d="M174.095 21.8032L176.369 23.116C176.097 23.2205 175.848 23.3381 175.622 23.4687C174.977 23.841 174.643 24.2492 174.621 24.6933C174.587 25.1309 174.988 25.5914 175.825 26.0747L179.644 28.2791L177.387 29.5821L169.037 24.7619L171.226 23.4981L172.465 24.2133C172.001 23.4752 172.358 22.7666 173.534 22.0873C173.659 22.0155 173.846 21.9208 174.095 21.8032Z" fill="#444444"/>
<path d="M185.426 22.3156C184.713 21.9042 184.373 21.4404 184.407 20.9244C184.441 20.4085 184.769 19.9056 185.392 19.4157L187.14 18.0539C187.502 17.7796 187.513 17.5444 187.174 17.3485C186.857 17.1656 186.472 17.0872 186.02 17.1134C185.578 17.133 185.132 17.2734 184.679 17.5346C184.204 17.809 183.955 18.1029 183.932 18.4164C183.921 18.7234 184.091 18.9977 184.441 19.2393L182.015 20.1505C181.37 19.6867 181.087 19.112 181.166 18.4262C181.245 17.7404 181.805 17.097 182.846 16.4962C184.091 15.7777 185.307 15.4217 186.495 15.4283C187.671 15.4283 188.724 15.696 189.651 16.2316L193.758 18.6025C194.256 18.8899 194.731 19.125 195.184 19.3079L193.113 20.5032C192.808 20.3921 192.446 20.2158 192.027 19.9741C192.321 20.7579 191.914 21.4698 190.805 22.1099C189.945 22.6063 189.001 22.8643 187.971 22.8839C186.953 22.8969 186.104 22.7075 185.426 22.3156ZM189.6 20.8657C190.132 20.5587 190.421 20.2223 190.466 19.8566C190.511 19.4777 190.189 19.0891 189.499 18.6907L189.125 18.4752L187.53 19.7292C186.942 20.1864 186.947 20.5881 187.547 20.9342C187.819 21.091 188.147 21.1694 188.531 21.1694C188.905 21.1628 189.261 21.0616 189.6 20.8657Z" fill="#444444"/>
<path d="M194.811 13.9777L199.614 16.7503L197.357 18.0533L189.008 13.2331L191.197 11.9693L192.232 12.5669C192.062 12.1946 192.091 11.8191 192.317 11.4402C192.543 11.0614 192.899 10.7316 193.386 10.4507C194.37 9.88249 195.428 9.63103 196.559 9.69634C197.691 9.74859 198.743 10.0556 199.716 10.6173L204.977 13.6544L202.72 14.9574L197.849 12.1456C197.351 11.8582 196.82 11.7015 196.254 11.6754C195.7 11.6427 195.162 11.7766 194.642 12.077C194.167 12.3514 193.952 12.6649 193.997 13.0176C194.042 13.3703 194.314 13.6903 194.811 13.9777Z" fill="#444444"/>
<path d="M202.94 0.643974L213.716 6.86514C214.271 7.18518 214.797 7.46276 215.295 7.69789L213.139 8.94212C212.8 8.81149 212.449 8.64168 212.087 8.43267C212.246 8.74618 212.223 9.08581 212.019 9.45157C211.827 9.81079 211.459 10.1472 210.916 10.4607C209.728 11.1465 208.337 11.473 206.742 11.4404C205.146 11.3947 203.715 11.006 202.448 10.2745C201.215 9.5626 200.553 8.74945 200.462 7.83505C200.383 6.91412 200.926 6.11728 202.092 5.44455C203.291 4.75222 204.422 4.4975 205.486 4.68038L200.717 1.92739L202.94 0.643974ZM204.722 8.96171C205.457 9.38625 206.232 9.61159 207.047 9.63772C207.85 9.65731 208.557 9.49076 209.168 9.13807C209.768 8.7919 210.045 8.38368 210 7.91342C209.955 7.44316 209.564 6.99576 208.829 6.57121C208.105 6.1532 207.347 5.93767 206.555 5.92461C205.752 5.90502 205.05 6.06831 204.45 6.41447C203.851 6.76063 203.562 7.16885 203.585 7.63911C203.619 8.10284 203.998 8.5437 204.722 8.96171Z" fill="#444444"/>
<path d="M26.8684 126.914C26.2688 127.26 25.9746 127.671 25.986 128.148C25.9973 128.625 26.365 129.072 27.089 129.49C27.8131 129.908 28.5938 130.124 29.431 130.137C30.2682 130.137 30.9866 129.964 31.5862 129.618C32.118 129.311 32.4065 128.987 32.4517 128.648C32.4857 128.301 32.3669 127.985 32.0954 127.697L34.7428 126.933C35.3084 127.495 35.5291 128.132 35.4046 128.844C35.2802 129.556 34.6975 130.212 33.6566 130.813C32.4121 131.531 30.947 131.894 29.2613 131.9C27.5755 131.894 26.0991 131.525 24.832 130.793C23.5535 130.055 22.9086 129.206 22.8973 128.246C22.8973 127.279 23.5082 126.443 24.7301 125.738C25.7936 125.124 26.942 124.781 28.1752 124.709C29.397 124.631 30.4945 124.761 31.4674 125.101L30.1268 126.659C28.9162 126.273 27.8301 126.358 26.8684 126.914Z" fill="#444444"/>
<path d="M36.3177 123.32L41.2222 126.151L38.9651 127.454L26.6784 120.361L28.9355 119.058L33.5685 121.733C33.4667 121.086 33.9135 120.475 34.9092 119.901C35.9274 119.313 37.0078 119.048 38.1505 119.107C39.2932 119.153 40.351 119.457 41.324 120.018L46.5849 123.055L44.3278 124.358L39.4573 121.547C38.9595 121.259 38.4277 121.103 37.862 121.076C37.3077 121.044 36.7703 121.178 36.2498 121.478C35.786 121.746 35.5654 122.05 35.588 122.389C35.6219 122.722 35.8652 123.033 36.3177 123.32Z" fill="#444444"/>
<path d="M46.0925 120.714C45.3797 120.303 45.0403 119.839 45.0743 119.323C45.1082 118.807 45.4363 118.304 46.0585 117.814L47.8065 116.452C48.1686 116.178 48.1799 115.943 47.8405 115.747C47.5237 115.564 47.139 115.486 46.6865 115.512C46.2452 115.531 45.7983 115.672 45.3458 115.933C44.8706 116.207 44.6217 116.501 44.5991 116.815C44.5878 117.122 44.7575 117.396 45.1082 117.638L42.6814 118.549C42.0365 118.085 41.7537 117.51 41.8329 116.825C41.9121 116.139 42.4721 115.495 43.513 114.895C44.7575 114.176 45.9737 113.82 47.1616 113.827C48.3383 113.827 49.3904 114.094 50.3182 114.63L54.425 117.001C54.9228 117.288 55.398 117.523 55.8506 117.706L53.7802 118.902C53.4747 118.791 53.1126 118.614 52.694 118.373C52.9882 119.156 52.5809 119.868 51.4722 120.508C50.6123 121.005 49.6676 121.263 48.6381 121.282C47.6198 121.295 46.7713 121.106 46.0925 120.714ZM50.2672 119.264C50.799 118.957 51.0875 118.621 51.1327 118.255C51.178 117.876 50.8556 117.488 50.1654 117.089L49.7921 116.874L48.1968 118.128C47.6085 118.585 47.6142 118.986 48.2138 119.333C48.4853 119.489 48.8134 119.568 49.1981 119.568C49.5715 119.561 49.9278 119.46 50.2672 119.264Z" fill="#444444"/>
<path d="M55.4783 112.376L60.2809 115.149L58.0239 116.452L49.6743 111.632L51.8635 110.368L52.8987 110.965C52.729 110.593 52.7573 110.217 52.9836 109.839C53.2099 109.46 53.5663 109.13 54.0527 108.849C55.037 108.281 56.0949 108.029 57.2262 108.095C58.3576 108.147 59.4098 108.454 60.3828 109.016L65.6436 112.053L63.3866 113.356L58.516 110.544C58.0182 110.257 57.4865 110.1 56.9208 110.074C56.3664 110.041 55.829 110.175 55.3086 110.475C54.8334 110.75 54.6184 111.063 54.6637 111.416C54.7089 111.769 54.9805 112.089 55.4783 112.376Z" fill="#444444"/>
<path d="M67.7986 111.338L69.292 109.849C69.8351 110.071 70.4291 110.165 71.074 110.133C71.7188 110.1 72.3015 109.934 72.8219 109.633C74.304 108.777 74.2701 107.902 72.7201 107.007L72.1092 106.655C72.2223 106.942 72.1827 107.259 71.9904 107.605C71.798 107.951 71.419 108.288 70.8533 108.614C69.7446 109.254 68.4322 109.568 66.9162 109.555C65.4114 109.535 64.0764 109.189 62.9111 108.516C61.7797 107.863 61.1858 107.096 61.1292 106.214C61.0726 105.332 61.6044 104.568 62.7244 103.921C63.3354 103.569 63.9576 103.34 64.5912 103.236C65.2135 103.125 65.7622 103.115 66.2373 103.206L65.253 102.638L67.4253 101.384L74.8754 105.685C76.1312 106.41 76.81 107.22 76.9118 108.115C77.025 109.016 76.3461 109.891 74.8754 110.74C73.7779 111.374 72.5617 111.736 71.2267 111.828C69.903 111.913 68.7603 111.749 67.7986 111.338ZM69.309 107.272C69.886 106.939 70.1632 106.557 70.1406 106.126C70.1293 105.688 69.8012 105.283 69.1563 104.911C68.5227 104.545 67.8213 104.362 67.0519 104.362C66.2939 104.356 65.6377 104.512 65.0833 104.832C64.5063 105.166 64.2178 105.554 64.2178 105.998C64.2292 106.436 64.5516 106.838 65.1852 107.203C65.83 107.576 66.5315 107.765 67.2895 107.772C68.0475 107.778 68.7207 107.612 69.309 107.272Z" fill="#444444"/>
<path d="M74.5814 100.976L78.3149 98.8202C77.8285 98.5655 77.2684 98.4381 76.6349 98.4381C76.0126 98.4316 75.4017 98.6014 74.802 98.9476C74.259 99.2611 73.9875 99.6138 73.9875 100.006C73.9875 100.398 74.1854 100.721 74.5814 100.976ZM80.7078 99.9469L83.1516 99.1827C83.6946 99.7574 83.8813 100.381 83.7116 101.054C83.5532 101.72 82.9819 102.337 81.9976 102.906C80.7983 103.598 79.3784 103.954 77.738 103.973C76.0861 103.987 74.5814 103.601 73.2238 102.817C71.934 102.073 71.2891 101.23 71.2891 100.29C71.2778 99.3427 71.8265 98.5491 72.9353 97.9091C74.225 97.1645 75.6166 96.8053 77.11 96.8314C78.6148 96.851 80.0403 97.2494 81.3866 98.0266C81.4771 98.0789 81.5733 98.1409 81.6751 98.2128C81.7883 98.2781 81.8788 98.3303 81.9467 98.3695L82.0485 98.4479L76.0748 101.896C76.6405 102.197 77.308 102.334 78.0774 102.308C78.8467 102.282 79.5142 102.105 80.0799 101.779C81.0416 101.224 81.2509 100.613 80.7078 99.9469Z" fill="#444444"/>
<path d="M83.5725 89.1818L86.0672 90.6219L87.7473 89.652L89.7498 90.8081L88.0697 91.778L91.5656 93.7962C91.9164 93.9987 92.2445 94.0966 92.5499 94.0901C92.8554 94.0836 93.1778 93.9823 93.5173 93.7864C93.8227 93.61 94.032 93.4631 94.1452 93.3455L96.0119 94.4232C95.8196 94.691 95.4632 94.9751 94.9428 95.2756C94.1282 95.7458 93.257 95.9875 92.3293 96.0005C91.3903 96.0071 90.5191 95.7785 89.7159 95.3147L85.8296 93.0712L84.3192 93.9431L82.3167 92.7871L82.7409 92.5422C83.1596 92.3005 83.3575 92.049 83.3349 91.7878C83.3123 91.5135 83.103 91.262 82.707 91.0334L81.536 90.3574L83.5725 89.1818Z" fill="#444444"/>
<path d="M94.4522 89.5041L98.1858 87.3488C97.6993 87.0941 97.1392 86.9667 96.5057 86.9667C95.8834 86.9602 95.2725 87.13 94.6728 87.4761C94.1298 87.7896 93.8583 88.1423 93.8583 88.5342C93.8583 88.9261 94.0562 89.2494 94.4522 89.5041ZM100.579 88.4754L103.022 87.7113C103.565 88.286 103.752 88.9098 103.582 89.5825C103.424 90.2487 102.853 90.8659 101.868 91.4342C100.669 92.1265 99.2492 92.4825 97.6088 92.5021C95.957 92.5151 94.4522 92.1298 93.0946 91.346C91.8048 90.6014 91.1599 89.7589 91.1599 88.8183C91.1486 87.8713 91.6973 87.0777 92.8061 86.4376C94.0958 85.6931 95.4874 85.3338 96.9808 85.36C98.4856 85.3796 99.9111 85.778 101.257 86.5552C101.348 86.6075 101.444 86.6695 101.546 86.7414C101.659 86.8067 101.75 86.8589 101.817 86.8981L101.919 86.9765L95.9456 90.4251C96.5113 90.7255 97.1788 90.8627 97.9482 90.8365C98.7175 90.8104 99.385 90.6341 99.9507 90.3075C100.912 89.7523 101.122 89.1416 100.579 88.4754Z" fill="#444444"/>
<path d="M106.178 88.6526L104.956 84.5182L97.828 83.8324L100.509 82.2844C100.77 82.3171 101.465 82.3987 102.597 82.5294C103.728 82.6469 104.413 82.722 104.65 82.7547L103.819 80.374L106.381 78.8946L107.552 82.9408L114.833 83.656L112.185 85.1844L107.875 84.7141C107.909 84.799 107.988 85.0342 108.112 85.4195C108.248 85.7983 108.372 86.1576 108.486 86.4972C108.599 86.8238 108.678 87.0524 108.723 87.183L106.178 88.6526Z" fill="#444444"/>
<path d="M108.283 74.9166L110.777 76.3568L112.457 75.3869L114.46 76.5429L112.78 77.5129L116.276 79.5311C116.626 79.7335 116.955 79.8315 117.26 79.825C117.565 79.8185 117.888 79.7172 118.227 79.5213C118.533 79.3449 118.742 79.198 118.855 79.0804L120.722 80.1581C120.53 80.4259 120.173 80.71 119.653 81.0104C118.838 81.4807 117.967 81.7224 117.039 81.7354C116.1 81.7419 115.229 81.5133 114.426 81.0496L110.54 78.8061L109.029 79.678L107.027 78.522L107.451 78.277C107.87 78.0354 108.068 77.7839 108.045 77.5227C108.022 77.2483 107.813 76.9969 107.417 76.7683L106.246 76.0923L108.283 74.9166Z" fill="#444444"/>
<path d="M118.806 68.8413L121.301 70.2815L122.981 69.3115L124.984 70.4676L123.304 71.4375L126.799 73.4557C127.15 73.6582 127.478 73.7562 127.784 73.7496C128.089 73.7431 128.412 73.6419 128.751 73.4459C129.057 73.2696 129.266 73.1226 129.379 73.005L131.246 74.0827C131.053 74.3505 130.697 74.6346 130.177 74.9351C129.362 75.4053 128.491 75.647 127.563 75.6601C126.624 75.6666 125.753 75.438 124.95 74.9743L121.063 72.7307L119.553 73.6027L117.55 72.4466L117.975 72.2017C118.393 71.96 118.591 71.7086 118.569 71.4473C118.546 71.173 118.337 70.9215 117.941 70.6929L116.77 70.0169L118.806 68.8413Z" fill="#444444"/>
<path d="M132.978 70.3785C133.816 70.3785 134.528 70.2087 135.117 69.8691C135.705 69.5294 135.993 69.1212 135.982 68.6444C135.982 68.1611 135.609 67.7039 134.862 67.2728C134.115 66.8418 133.323 66.6262 132.486 66.6262C131.66 66.6197 130.953 66.7862 130.365 67.1259C129.777 67.4655 129.482 67.877 129.482 68.3603C129.494 68.8371 129.873 69.291 130.619 69.7221C131.366 70.1532 132.152 70.372 132.978 70.3785ZM126.428 68.4779C126.428 67.5112 127.056 66.6654 128.311 65.9404C129.567 65.2154 131.027 64.8562 132.69 64.8627C134.364 64.8627 135.841 65.2318 137.119 65.9698C138.398 66.7079 139.037 67.5602 139.037 68.5269C139.048 69.487 138.426 70.3295 137.17 71.0545C135.914 71.7795 134.449 72.142 132.775 72.142C131.112 72.1355 129.641 71.7632 128.362 71.0251C127.084 70.2871 126.439 69.438 126.428 68.4779Z" fill="#444444"/>
<path d="M140.82 58.6998C141.159 58.8958 141.329 59.1374 141.329 59.4248C141.317 59.7057 141.119 59.9571 140.735 60.1792C140.294 60.4339 139.784 60.5515 139.207 60.5319C138.619 60.5058 138.093 60.3588 137.629 60.091C136.611 59.5032 136.124 58.9088 136.17 58.3079C136.204 57.7005 136.52 57.1845 137.12 56.76L138.155 57.3576C137.861 57.5927 137.703 57.8671 137.68 58.1806C137.646 58.4875 137.81 58.7521 138.172 58.9741C138.206 58.8892 138.297 58.8043 138.444 58.7194C138.817 58.5039 139.219 58.3961 139.649 58.3961C140.067 58.3896 140.458 58.4908 140.82 58.6998Z" fill="#444444"/>
<path d="M153.758 61.1844L151.399 62.5462L139.367 55.6L146.97 51.2109L149.193 52.4943L143.932 55.5315L146.902 57.2459L151.586 54.5419L153.741 55.7862L149.074 58.4804L153.758 61.1844Z" fill="#444444"/>
<path d="M157.379 56.4684C156.666 56.0569 156.327 55.5932 156.361 55.0772C156.395 54.5612 156.723 54.0583 157.345 53.5684L159.093 52.2066C159.455 51.9323 159.466 51.6972 159.127 51.5012C158.81 51.3184 158.425 51.24 157.973 51.2661C157.532 51.2857 157.085 51.4261 156.632 51.6874C156.157 51.9617 155.908 52.2556 155.886 52.5691C155.874 52.8761 156.044 53.1504 156.395 53.3921L153.968 54.3032C153.323 53.8395 153.04 53.2647 153.119 52.5789C153.199 51.8931 153.759 51.2498 154.799 50.6489C156.044 49.9304 157.26 49.5745 158.448 49.581C159.625 49.581 160.677 49.8488 161.605 50.3844L165.711 52.7553C166.209 53.0427 166.684 53.2778 167.137 53.4607L165.067 54.6559C164.761 54.5449 164.399 54.3685 163.98 54.1269C164.275 54.9106 163.867 55.6226 162.759 56.2626C161.899 56.759 160.954 57.017 159.925 57.0366C158.906 57.0497 158.058 56.8603 157.379 56.4684ZM161.554 55.0184C162.085 54.7114 162.374 54.3751 162.419 54.0093C162.464 53.6305 162.142 53.2419 161.452 52.8434L161.079 52.6279L159.483 53.8819C158.895 54.3391 158.901 54.7408 159.5 55.087C159.772 55.2437 160.1 55.3221 160.485 55.3221C160.858 55.3156 161.214 55.2143 161.554 55.0184Z" fill="#444444"/>
<path d="M166.273 51.2753L167.783 49.9135C168.168 50.1094 168.615 50.2041 169.124 50.1976C169.633 50.178 170.119 50.0343 170.583 49.7665C170.934 49.5641 171.126 49.3616 171.16 49.1591C171.194 48.9566 171.092 48.7868 170.855 48.6497C170.436 48.408 169.865 48.4243 169.141 48.6987L167.783 49.1885C166.833 49.5412 165.939 49.7045 165.102 49.6784C164.276 49.6457 163.557 49.453 162.946 49.1003C162.188 48.6627 161.838 48.1206 161.894 47.474C161.962 46.8209 162.443 46.2363 163.337 45.7203C163.902 45.3938 164.485 45.1554 165.085 45.0051C165.673 44.8484 166.216 44.7766 166.714 44.7896C167.2 44.7961 167.636 44.8386 168.021 44.917C168.405 44.9954 168.739 45.0966 169.022 45.2207L167.562 46.5531C167.223 46.4094 166.827 46.3376 166.374 46.3376C165.933 46.331 165.498 46.4519 165.068 46.7C164.774 46.8699 164.598 47.0625 164.542 47.2781C164.496 47.4871 164.592 47.6602 164.83 47.7973C165.237 48.0325 165.741 48.0292 166.34 47.7875L167.783 47.2487C168.756 46.8829 169.678 46.7098 170.549 46.7294C171.432 46.7425 172.19 46.9319 172.823 47.2977C173.57 47.7287 173.932 48.2643 173.909 48.9044C173.887 49.5445 173.361 50.1617 172.331 50.7561C171.743 51.0957 171.132 51.3504 170.498 51.5202C169.853 51.6835 169.265 51.7619 168.733 51.7554C168.202 51.7358 167.732 51.6868 167.325 51.6084C166.917 51.517 166.567 51.4059 166.273 51.2753Z" fill="#444444"/>
<path d="M169.072 39.8231L171.566 41.2633L173.246 40.2933L175.249 41.4494L173.569 42.4193L177.065 44.4375C177.416 44.64 177.744 44.738 178.049 44.7314C178.355 44.7249 178.677 44.6237 179.016 44.4277C179.322 44.2514 179.531 44.1044 179.644 43.9869L181.511 45.0645C181.319 45.3323 180.962 45.6164 180.442 45.9169C179.627 46.3872 178.756 46.6288 177.828 46.6419C176.889 46.6484 176.018 46.4198 175.215 45.9561L171.329 43.7125L169.818 44.5845L167.816 43.4284L168.24 43.1835C168.659 42.9418 168.857 42.6904 168.834 42.4291C168.811 42.1548 168.602 41.9033 168.206 41.6747L167.035 40.9987L169.072 39.8231Z" fill="#444444"/>
<path d="M193.528 38.5189C191.797 39.5182 189.761 40.0277 187.419 40.0473C185.077 40.0669 182.973 39.5378 181.106 38.4601C179.25 37.389 178.34 36.1709 178.374 34.8058C178.419 33.4342 179.279 32.2651 180.953 31.2985C182.492 30.4102 184.115 29.9236 185.824 29.8387C187.543 29.7473 189.088 29.9399 190.457 30.4167L188.946 32.092C188.098 31.7981 187.17 31.674 186.163 31.7197C185.145 31.7589 184.16 32.0528 183.21 32.6015C182.226 33.1697 181.711 33.8718 181.666 34.7079C181.632 35.5373 182.254 36.3211 183.533 37.0592C184.754 37.7646 186.084 38.114 187.521 38.1074C188.969 38.0944 190.208 37.7907 191.237 37.1963C192.176 36.6542 192.68 36.0827 192.748 35.4818C192.827 34.8744 192.629 34.3225 192.154 33.8261L195.005 32.9444C195.367 33.2971 195.638 33.689 195.819 34.12C196.012 34.5446 196.091 35.0018 196.057 35.4916C196.023 35.9815 195.791 36.4942 195.361 37.0298C194.942 37.5588 194.331 38.0552 193.528 38.5189Z" fill="#444444"/>
<path d="M197.601 33.2481C196.888 32.8366 196.549 32.3729 196.583 31.8569C196.617 31.3409 196.945 30.838 197.567 30.3481L199.315 28.9863C199.677 28.712 199.689 28.4769 199.349 28.281C199.032 28.0981 198.648 28.0197 198.195 28.0458C197.754 28.0654 197.307 28.2058 196.854 28.4671C196.379 28.7414 196.13 29.0353 196.108 29.3488C196.096 29.6558 196.266 29.9301 196.617 30.1718L194.19 31.0829C193.545 30.6192 193.262 30.0444 193.342 29.3586C193.421 28.6728 193.981 28.0295 195.022 27.4286C196.266 26.7102 197.482 26.3542 198.67 26.3607C199.847 26.3607 200.899 26.6285 201.827 27.1641L205.934 29.535C206.432 29.8224 206.907 30.0575 207.359 30.2404L205.289 31.4356C204.983 31.3246 204.621 31.1482 204.203 30.9066C204.497 31.6903 204.09 32.4023 202.981 33.0423C202.121 33.5387 201.176 33.7967 200.147 33.8163C199.129 33.8294 198.28 33.64 197.601 33.2481ZM201.776 31.7981C202.308 31.4911 202.596 31.1548 202.641 30.789C202.687 30.4102 202.364 30.0216 201.674 29.6232L201.301 29.4076L199.706 30.6616C199.117 31.1188 199.123 31.5205 199.722 31.8667C199.994 32.0234 200.322 32.1018 200.707 32.1018C201.08 32.0953 201.437 31.9941 201.776 31.7981Z" fill="#444444"/>
<path d="M206.24 21.2068L208.514 22.5196C208.243 22.6241 207.994 22.7417 207.768 22.8723C207.123 23.2446 206.789 23.6528 206.766 24.097C206.732 24.5346 207.134 24.995 207.971 25.4784L211.79 27.6827L209.533 28.9857L201.183 24.1656L203.372 22.9017L204.611 23.6169C204.147 22.8789 204.504 22.1702 205.68 21.4909C205.805 21.4191 205.991 21.3244 206.24 21.2068Z" fill="#444444"/>
<path d="M213.223 24.1706L214.734 22.8088C215.118 23.0047 215.565 23.0994 216.074 23.0929C216.584 23.0733 217.07 22.9296 217.534 22.6618C217.885 22.4594 218.077 22.2569 218.111 22.0544C218.145 21.852 218.043 21.6821 217.805 21.545C217.387 21.3033 216.815 21.3196 216.091 21.594L214.734 22.0838C213.783 22.4365 212.89 22.5998 212.052 22.5737C211.227 22.541 210.508 22.3483 209.897 21.9956C209.139 21.558 208.788 21.0159 208.845 20.3693C208.913 19.7162 209.394 19.1316 210.287 18.6156C210.853 18.2891 211.436 18.0507 212.035 17.9004C212.624 17.7437 213.167 17.6719 213.665 17.6849C214.151 17.6914 214.587 17.7339 214.971 17.8123C215.356 17.8907 215.69 17.9919 215.973 18.116L214.513 19.4484C214.174 19.3047 213.778 19.2329 213.325 19.2329C212.884 19.2263 212.448 19.3472 212.018 19.5954C211.724 19.7652 211.549 19.9578 211.492 20.1734C211.447 20.3824 211.543 20.5555 211.781 20.6926C212.188 20.9278 212.692 20.9245 213.291 20.6828L214.734 20.144C215.707 19.7782 216.629 19.6052 217.5 19.6247C218.382 19.6378 219.14 19.8272 219.774 20.193C220.521 20.624 220.883 21.1596 220.86 21.7997C220.837 22.4398 220.311 23.057 219.282 23.6514C218.694 23.991 218.083 24.2457 217.449 24.4155C216.804 24.5788 216.216 24.6572 215.684 24.6507C215.152 24.6311 214.683 24.5821 214.276 24.5037C213.868 24.4123 213.518 24.3012 213.223 24.1706Z" fill="#444444"/>
<path d="M212.378 14.7441C212.038 14.5482 211.874 14.3098 211.886 14.0289C211.897 13.735 212.101 13.4737 212.497 13.2451C212.938 12.9904 213.453 12.8761 214.041 12.9022C214.629 12.9284 215.155 13.0753 215.619 13.3431C216.162 13.6566 216.558 13.9832 216.807 14.3228C217.056 14.6625 217.163 14.9792 217.13 15.2731C217.096 15.5671 216.999 15.8381 216.841 16.0863C216.683 16.3214 216.468 16.5304 216.196 16.7133L215.161 16.1157C215.455 15.8806 215.613 15.6062 215.636 15.2927C215.647 14.9727 215.472 14.7016 215.11 14.4796C215.076 14.5645 214.986 14.6494 214.838 14.7343C214.465 14.9498 214.052 15.0576 213.6 15.0576C213.147 15.0576 212.74 14.9531 212.378 14.7441Z" fill="#444444"/>
</svg>
