<svg width="278" height="161" viewBox="0 0 278 161" fill="none" xmlns="http://www.w3.org/2000/svg">
<rect x="4.33022" width="259.91" height="50.5206" rx="25.2603" transform="matrix(0.866044 -0.499967 0.866044 0.499967 0.580058 134.611)" fill="url(#paint0_linear_1065_4487)" stroke="white" stroke-width="5"/>
<g clip-path="url(#clip0_1065_4487)">
<path d="M52.7316 128.029L59.777 127.941L60.1802 117.095" stroke="white" stroke-width="3" stroke-linecap="round" stroke-linejoin="round"/>
<path d="M67.0738 121.075L73.9681 125.056C74.5776 125.407 74.9094 125.891 74.8905 126.399C74.8716 126.908 74.5036 127.4 73.8674 127.767L59.4741 136.076C58.8379 136.444 57.9856 136.656 57.1047 136.667C56.2239 136.678 55.3866 136.486 54.7771 136.134L40.9885 128.174C40.379 127.822 40.0472 127.339 40.0661 126.831C40.085 126.322 40.4531 125.83 41.0893 125.463L51.8843 119.231" stroke="white" stroke-width="4" stroke-linecap="round" stroke-linejoin="round"/>
</g>
<path d="M98.3578 110.354L95.4687 112.021L80.732 103.514L90.0438 98.1383L92.7666 99.7102L86.3232 103.43L89.9606 105.53L95.6973 102.218L98.337 103.742L92.6211 107.042L98.3578 110.354ZM109.656 103.831L106.892 105.427L96.6653 99.5234L99.4297 97.9275L109.656 103.831ZM92.9863 97.7835C92.5152 97.5115 92.2796 97.1835 92.2796 96.7996C92.2657 96.4076 92.4944 96.0756 92.9655 95.8036C93.4366 95.5317 94.0048 95.3957 94.6699 95.3957C95.335 95.3957 95.9101 95.5357 96.395 95.8156C96.8523 96.0796 97.081 96.4036 97.081 96.7876C97.081 97.1715 96.8454 97.4995 96.3743 97.7715C95.9031 98.0435 95.335 98.1795 94.6699 98.1795C94.0048 98.1795 93.4436 98.0475 92.9863 97.7835ZM111.389 102.83L109.893 97.7668L101.163 96.9269L104.447 95.031C104.766 95.071 105.618 95.171 107.004 95.331C108.389 95.475 109.228 95.567 109.519 95.607L108.5 92.6912L111.639 90.8793L113.073 95.8349L121.99 96.7109L118.747 98.5828L113.468 98.0068C113.509 98.1108 113.606 98.3988 113.759 98.8707C113.925 99.3347 114.077 99.7747 114.216 100.191C114.355 100.591 114.452 100.871 114.507 101.031L111.389 102.83ZM119.031 91.1712L123.604 88.5314C123.008 88.2194 122.322 88.0634 121.546 88.0634C120.784 88.0554 120.036 88.2634 119.301 88.6873C118.636 89.0713 118.304 89.5033 118.304 89.9833C118.304 90.4632 118.546 90.8592 119.031 91.1712ZM126.535 89.9113L129.528 88.9753C130.193 89.6793 130.421 90.4432 130.214 91.2672C130.02 92.0831 129.32 92.8391 128.114 93.535C126.646 94.383 124.907 94.8189 122.897 94.8429C120.874 94.8589 119.031 94.387 117.368 93.427C115.789 92.5151 114.999 91.4832 114.999 90.3312C114.985 89.1713 115.657 88.1994 117.015 87.4154C118.595 86.5035 120.299 86.0635 122.128 86.0955C123.971 86.1195 125.717 86.6075 127.366 87.5594C127.477 87.6234 127.595 87.6994 127.719 87.7874C127.858 87.8674 127.969 87.9314 128.052 87.9794L128.177 88.0754L120.86 92.2991C121.553 92.6671 122.371 92.8351 123.313 92.8031C124.255 92.7711 125.073 92.5551 125.766 92.1551C126.943 91.4752 127.2 90.7272 126.535 89.9113ZM129.481 75.0114L142.679 82.6309C143.358 83.0229 144.002 83.3629 144.612 83.6509L141.972 85.1748C141.557 85.0148 141.127 84.8068 140.684 84.5508C140.878 84.9348 140.85 85.3508 140.601 85.7987C140.365 86.2387 139.915 86.6507 139.25 87.0346C137.795 87.8746 136.09 88.2746 134.137 88.2346C132.183 88.1786 130.43 87.7026 128.878 86.8067C127.367 85.9347 126.557 84.9388 126.446 83.8189C126.349 82.6909 127.014 81.715 128.441 80.891C129.91 80.0431 131.296 79.7311 132.598 79.9551L126.758 76.5833L129.481 75.0114ZM131.663 85.1988C132.564 85.7187 133.513 85.9947 134.511 86.0267C135.494 86.0507 136.361 85.8467 137.109 85.4147C137.843 84.9908 138.183 84.4908 138.127 83.9148C138.072 83.3389 137.594 82.7909 136.693 82.271C135.806 81.759 134.878 81.495 133.908 81.479C132.924 81.455 132.065 81.655 131.331 82.079C130.596 82.5029 130.243 83.0029 130.27 83.5789C130.312 84.1468 130.776 84.6868 131.663 85.1988ZM151.562 66.6798L149.774 68.6236C149.151 68.3756 148.409 68.2517 147.55 68.2517C146.691 68.2517 145.846 68.4916 145.014 68.9716C144.335 69.3636 143.968 69.7915 143.913 70.2555C143.844 70.7115 144.065 71.0875 144.578 71.3834C145.479 71.9034 146.566 71.9154 147.841 71.4194L150.294 70.4595C151.846 69.8515 153.377 69.5676 154.887 69.6076C156.398 69.6476 157.686 69.9755 158.753 70.5915C159.973 71.2955 160.555 72.1914 160.499 73.2793C160.444 74.3513 159.606 75.3552 157.984 76.2911C157.056 76.8271 156.079 77.2311 155.054 77.503C154.028 77.775 153.058 77.911 152.144 77.911C151.215 77.903 150.363 77.827 149.587 77.683C148.811 77.523 148.118 77.2991 147.509 77.0111L149.462 75.0672C150.322 75.4832 151.285 75.6872 152.352 75.6792C153.432 75.6632 154.465 75.3712 155.448 74.8032C156.197 74.3713 156.612 73.9393 156.696 73.5073C156.793 73.0673 156.571 72.6914 156.03 72.3794C155.601 72.1314 155.074 72.0114 154.451 72.0194C153.827 72.0114 153.176 72.1394 152.497 72.4034L150.024 73.3513C148.582 73.8953 147.148 74.1553 145.721 74.1313C144.294 74.1073 143.033 73.7793 141.938 73.1473C140.636 72.3954 140.04 71.4754 140.151 70.3875C140.275 69.2916 141.044 68.3356 142.458 67.5197C143.303 67.0317 144.176 66.6638 145.077 66.4158C145.977 66.1678 146.83 66.0438 147.633 66.0438C148.423 66.0358 149.137 66.0878 149.774 66.1998C150.412 66.3118 151.007 66.4718 151.562 66.6798ZM155.436 62.0673L158.491 63.8312L160.549 62.6432L163.002 64.0591L160.944 65.2471L165.226 67.7189C165.655 67.9669 166.057 68.0869 166.431 68.0789C166.805 68.0709 167.2 67.9469 167.616 67.7069C167.99 67.4909 168.247 67.3109 168.385 67.1669L170.671 68.4869C170.436 68.8148 169.999 69.1628 169.362 69.5308C168.364 70.1067 167.297 70.4027 166.161 70.4187C165.011 70.4267 163.944 70.1467 162.96 69.5788L158.2 66.831L156.351 67.8989L153.898 66.483L154.418 66.183C154.93 65.887 155.173 65.579 155.145 65.2591C155.117 64.9231 154.861 64.6151 154.376 64.3351L152.942 63.5072L155.436 62.0673ZM180.913 67.3503L177.982 69.0422L175.072 64.5785L161.79 61.9267L164.887 60.1388L173.596 62.0227L170.125 57.115L173.077 55.4111L180.913 67.3503ZM187.742 58.752L184.978 60.3479L169.929 51.6605L172.694 50.0646L187.742 58.752ZM193.466 55.4475L190.702 57.0434L180.475 51.1398L183.24 49.5439L193.466 55.4475ZM176.796 49.3999C176.325 49.128 176.09 48.8 176.09 48.416C176.076 48.024 176.304 47.6921 176.776 47.4201C177.247 47.1481 177.815 47.0121 178.48 47.0121C179.145 47.0121 179.72 47.1521 180.205 47.4321C180.662 47.6961 180.891 48.02 180.891 48.404C180.891 48.788 180.655 49.116 180.184 49.3879C179.713 49.6599 179.145 49.7959 178.48 49.7959C177.815 49.7959 177.254 49.6639 176.796 49.3999ZM193.308 48.7473L199.19 52.1431L196.426 53.739L186.199 47.8354L188.881 46.2875L190.149 47.0194C189.941 46.5634 189.975 46.1035 190.252 45.6395C190.53 45.1755 190.966 44.7716 191.562 44.4276C192.767 43.7316 194.063 43.4236 195.449 43.5036C196.834 43.5676 198.123 43.9436 199.315 44.6316L205.758 48.3513L202.994 49.9472L197.028 46.5034C196.419 46.1515 195.767 45.9595 195.075 45.9275C194.396 45.8875 193.737 46.0515 193.1 46.4194C192.518 46.7554 192.255 47.1394 192.31 47.5714C192.366 48.0033 192.698 48.3953 193.308 48.7473ZM208.397 47.4756L210.227 45.6517C210.892 45.9237 211.619 46.0397 212.409 45.9997C213.199 45.9597 213.912 45.7557 214.55 45.3877C216.365 44.3398 216.324 43.2678 214.425 42.1719L213.677 41.7399C213.815 42.0919 213.767 42.4799 213.531 42.9039C213.296 43.3278 212.832 43.7398 212.139 44.1398C210.781 44.9237 209.173 45.3077 207.317 45.2917C205.474 45.2677 203.839 44.8437 202.411 44.0198C201.026 43.2198 200.298 42.2799 200.229 41.2C200.16 40.12 200.811 39.1841 202.183 38.3922C202.931 37.9602 203.693 37.6802 204.469 37.5522C205.231 37.4162 205.903 37.4042 206.485 37.5162L205.28 36.8203L207.94 35.2844L217.065 40.552C218.603 41.44 219.434 42.4319 219.559 43.5278C219.698 44.6318 218.866 45.7037 217.065 46.7436C215.721 47.5196 214.231 47.9635 212.596 48.0755C210.975 48.1795 209.575 47.9795 208.397 47.4756ZM210.247 42.4959C210.954 42.0879 211.294 41.6199 211.266 41.092C211.252 40.556 210.85 40.0601 210.06 39.6041C209.284 39.1561 208.425 38.9321 207.483 38.9321C206.555 38.9241 205.751 39.1161 205.072 39.5081C204.365 39.9161 204.012 40.392 204.012 40.936C204.026 41.472 204.421 41.9639 205.197 42.4119C205.986 42.8679 206.846 43.0999 207.774 43.1079C208.702 43.1159 209.527 42.9119 210.247 42.4959Z" fill="white"/>
<defs>
<linearGradient id="paint0_linear_1065_4487" x1="-7.33935e-07" y1="55.5205" x2="273.436" y2="43.9991" gradientUnits="userSpaceOnUse">
<stop stop-color="#7A2FD2"/>
<stop offset="1" stop-color="#EC7D60"/>
</linearGradient>
<clipPath id="clip0_1065_4487">
<rect width="33.2391" height="31.8427" fill="white" transform="matrix(0.866044 -0.499967 0.866044 0.499967 29.2969 126.964)"/>
</clipPath>
</defs>
</svg>
