<svg width="1000" height="1000" viewBox="0 0 1000 1000" fill="none" xmlns="http://www.w3.org/2000/svg">
<g opacity="0.2" filter="url(#filter0_f_1102_4221)">
<rect width="450.522" height="415.757" rx="53" transform="matrix(0.866044 -0.499967 0.866044 0.499967 125 580.247)" fill="#F9F9F9" stroke="url(#paint0_linear_1102_4221)" stroke-width="4"/>
</g>
<g opacity="0.4" filter="url(#filter1_f_1102_4221)">
<rect width="450.522" height="415.757" rx="53" transform="matrix(0.866044 -0.499967 0.866044 0.499967 125 517.247)" fill="#F9F9F9" stroke="url(#paint1_linear_1102_4221)" stroke-width="4"/>
</g>
<g filter="url(#filter2_d_1102_4221)">
<rect width="450.522" height="415.757" rx="53" transform="matrix(0.866044 -0.499967 0.866044 0.499967 125 436.247)" fill="url(#paint2_linear_1102_4221)" shape-rendering="crispEdges"/>
</g>
<g clip-path="url(#clip0_1102_4221)">
<path d="M348.738 422.328C348.738 422.328 365.855 410.709 376.582 413.964" stroke="white" stroke-width="4" stroke-linecap="round"/>
<path d="M438.76 367.756L454.462 369.678" stroke="white" stroke-width="4" stroke-linecap="round"/>
<path d="M452.789 380.853C452.789 380.853 468.847 387.065 485.566 381.629C502.286 376.194 499.575 366.067 499.575 366.067" stroke="white" stroke-width="4" stroke-linecap="round"/>
<path d="M446.144 411.792C446.144 411.792 465.567 381.273 501.575 400.33C510.401 389.465 529.137 382.786 544.508 387.926" stroke="white" stroke-width="4" stroke-linecap="round"/>
<path d="M504.001 340.259L503.187 351.19" stroke="white" stroke-width="4" stroke-linecap="round"/>
<path d="M470.642 366.36C470.642 366.36 506.271 337.974 528.063 357.968" stroke="white" stroke-width="4" stroke-linecap="round"/>
<path d="M499.867 371.725C499.867 371.725 507.449 369.71 515.018 374.079" stroke="white" stroke-width="4" stroke-linecap="round"/>
<path d="M531.667 399.336C531.667 399.336 517.577 409.52 541.363 411.616C541.282 416.994 543.302 418.286 554.642 426.334C557.926 428.23 574.7 428.196 574.7 428.196" stroke="white" stroke-width="4" stroke-linecap="round"/>
<path d="M548.702 443.347C548.702 443.347 559.935 439.414 558.377 427.649" stroke="white" stroke-width="4" stroke-linecap="round"/>
<path d="M526.62 386.131C526.62 386.131 526.354 375.976 545.316 372.692" stroke="white" stroke-width="4" stroke-linecap="round"/>
<path d="M560.418 416.178C560.418 416.178 576.198 410.168 549.832 397.172" stroke="white" stroke-width="4" stroke-linecap="round"/>
<path d="M559.688 401.595C559.688 401.595 569.953 397.341 580.707 389.46" stroke="white" stroke-width="4" stroke-linecap="round"/>
<path d="M564.898 448.42L588.603 446.42" stroke="white" stroke-width="4" stroke-linecap="round"/>
<path d="M540.335 451.047C540.335 451.047 528.363 459.649 537.267 467.715" stroke="white" stroke-width="4" stroke-linecap="round"/>
<path d="M447.477 439.955C447.477 439.955 466.998 430.608 482.466 412.532C505.504 404.014 512.328 415.745 512.328 415.745C512.328 415.745 514.883 419.405 510.552 421.905C520.731 417.38 527.265 421.632 527.265 421.632" stroke="white" stroke-width="4" stroke-linecap="round"/>
<path d="M531.092 431.835C531.092 431.835 535.565 446.523 506.301 444.966C509.539 452.1 506.047 454.322 506.047 454.322" stroke="white" stroke-width="4" stroke-linecap="round"/>
<path d="M516.316 463.211C516.316 463.211 513.681 456.77 488.271 463.629" stroke="white" stroke-width="4" stroke-linecap="round"/>
<path d="M501.827 460.601C501.827 460.601 497.57 446.742 478.118 449.59C458.665 452.438 451.896 460.714 425.307 450.158" stroke="white" stroke-width="4" stroke-linecap="round"/>
<path d="M480.354 448.949C481.921 436.678 488.797 434.073 488.797 434.073" stroke="white" stroke-width="4" stroke-linecap="round"/>
<path d="M465.949 463.498L436.211 475.091" stroke="white" stroke-width="4" stroke-linecap="round"/>
<path d="M429.556 432.403C429.556 432.403 397.506 445.928 409.102 469.039" stroke="white" stroke-width="4" stroke-linecap="round"/>
<path d="M398.595 401.524L386.294 411.978" stroke="white" stroke-width="4" stroke-linecap="round"/>
<path d="M429.491 403.917C429.491 403.917 437.464 420.243 400.69 429.294C387.337 434.532 393.522 439.654 393.522 439.654" stroke="white" stroke-width="4" stroke-linecap="round"/>
<path d="M404.074 428.247C404.074 428.247 394.035 416.9 370.692 430.375C347.349 443.851 348.85 440.978 348.85 440.978" stroke="white" stroke-width="4" stroke-linecap="round"/>
<path d="M417.369 390.189C417.369 390.189 400.059 395.103 397.595 403.942C395.131 412.781 412.727 406.56 412.727 406.56" stroke="white" stroke-width="4" stroke-linecap="round"/>
<path d="M430.659 387.781C433.701 337.556 497.91 334.69 522.993 340.458C620.704 369.33 584.061 475.907 584.061 475.907C578.063 476.616 398.689 497.489 348.679 441.084C338.688 426.603 343.652 389.535 430.659 387.781ZM430.659 387.781L561.199 463.142" stroke="white" stroke-width="7"/>
</g>
<defs>
<filter id="filter0_f_1102_4221" x="136.438" y="356.108" width="727.359" height="430.895" filterUnits="userSpaceOnUse" color-interpolation-filters="sRGB">
<feFlood flood-opacity="0" result="BackgroundImageFix"/>
<feBlend mode="normal" in="SourceGraphic" in2="BackgroundImageFix" result="shape"/>
<feGaussianBlur stdDeviation="6.5" result="effect1_foregroundBlur_1102_4221"/>
</filter>
<filter id="filter1_f_1102_4221" x="143.438" y="300.108" width="713.359" height="416.895" filterUnits="userSpaceOnUse" color-interpolation-filters="sRGB">
<feFlood flood-opacity="0" result="BackgroundImageFix"/>
<feBlend mode="normal" in="SourceGraphic" in2="BackgroundImageFix" result="shape"/>
<feGaussianBlur stdDeviation="3" result="effect1_foregroundBlur_1102_4221"/>
</filter>
<filter id="filter2_d_1102_4221" x="97.8887" y="181.522" width="804.459" height="510.066" filterUnits="userSpaceOnUse" color-interpolation-filters="sRGB">
<feFlood flood-opacity="0" result="BackgroundImageFix"/>
<feColorMatrix in="SourceAlpha" type="matrix" values="0 0 0 0 0 0 0 0 0 0 0 0 0 0 0 0 0 0 127 0" result="hardAlpha"/>
<feOffset dy="9"/>
<feGaussianBlur stdDeviation="27"/>
<feComposite in2="hardAlpha" operator="out"/>
<feColorMatrix type="matrix" values="0 0 0 0 0.481358 0 0 0 0 0.219687 0 0 0 0 0.7125 0 0 0 0.8 0"/>
<feBlend mode="normal" in2="BackgroundImageFix" result="effect1_dropShadow_1102_4221"/>
<feBlend mode="normal" in="SourceGraphic" in2="effect1_dropShadow_1102_4221" result="shape"/>
</filter>
<linearGradient id="paint0_linear_1102_4221" x1="142.361" y1="355.882" x2="386.44" y2="94.5706" gradientUnits="userSpaceOnUse">
<stop stop-color="#5D5FEF"/>
<stop offset="1" stop-color="#D6D6D6"/>
</linearGradient>
<linearGradient id="paint1_linear_1102_4221" x1="142.361" y1="355.882" x2="386.44" y2="94.5706" gradientUnits="userSpaceOnUse">
<stop stop-color="#5D5FEF"/>
<stop offset="1" stop-color="#D6D6D6"/>
</linearGradient>
<linearGradient id="paint2_linear_1102_4221" x1="300.766" y1="-300.766" x2="-594.33" y2="36.1051" gradientUnits="userSpaceOnUse">
<stop stop-color="#5A1E8F"/>
<stop offset="1" stop-color="#F9F9F9" stop-opacity="0.6"/>
</linearGradient>
<clipPath id="clip0_1102_4221">
<rect width="219.113" height="212.007" fill="white" transform="matrix(0.866044 -0.499967 0.866044 0.499967 310 427.55)"/>
</clipPath>
</defs>
</svg>
