<svg width="259" height="150" viewBox="0 0 259 150" fill="none" xmlns="http://www.w3.org/2000/svg">
<g clip-path="url(#clip0_869_5081)">
<path d="M27.5115 72.639C27.5115 72.639 39.3113 64.6294 46.7066 66.8732" stroke="white" stroke-width="4" stroke-linecap="round"/>
<path d="M89.5693 35.019L100.394 36.344" stroke="white" stroke-width="4" stroke-linecap="round"/>
<path d="M99.2412 44.0479C99.2412 44.0479 110.311 48.3303 121.837 44.5831C133.362 40.8359 131.494 33.8552 131.494 33.8552" stroke="white" stroke-width="4" stroke-linecap="round"/>
<path d="M94.661 65.3759C94.661 65.3759 108.051 44.337 132.874 57.4747C138.958 49.9842 151.873 45.3802 162.47 48.9237" stroke="white" stroke-width="4" stroke-linecap="round"/>
<path d="M134.545 16.0637L133.984 23.5988" stroke="white" stroke-width="4" stroke-linecap="round"/>
<path d="M111.55 34.0564C111.55 34.0564 136.111 14.4879 151.134 28.2713" stroke="white" stroke-width="4" stroke-linecap="round"/>
<path d="M131.696 37.7544C131.696 37.7544 136.923 36.3655 142.141 39.3777" stroke="white" stroke-width="4" stroke-linecap="round"/>
<path d="M153.618 56.7887C153.618 56.7887 143.904 63.8088 160.302 65.2539C160.245 68.9617 161.638 69.8518 169.455 75.4004C171.719 76.7072 183.282 76.6838 183.282 76.6838" stroke="white" stroke-width="4" stroke-linecap="round"/>
<path d="M165.36 87.1282C165.36 87.1282 173.104 84.4168 172.03 76.3065" stroke="white" stroke-width="4" stroke-linecap="round"/>
<path d="M150.138 47.6854C150.138 47.6854 149.955 40.685 163.027 38.421" stroke="white" stroke-width="4" stroke-linecap="round"/>
<path d="M173.437 68.3985C173.437 68.3985 184.315 64.2558 166.139 55.2968" stroke="white" stroke-width="4" stroke-linecap="round"/>
<path d="M172.934 58.3462C172.934 58.3462 180.01 55.4136 187.424 49.9809" stroke="white" stroke-width="4" stroke-linecap="round"/>
<path d="M176.525 90.6255L192.866 89.2466" stroke="white" stroke-width="4" stroke-linecap="round"/>
<path d="M159.594 92.4365C159.594 92.4365 151.341 98.366 157.479 103.926" stroke="white" stroke-width="4" stroke-linecap="round"/>
<path d="M95.5804 84.7896C95.5804 84.7896 109.037 78.3468 119.701 65.8854C135.582 60.0135 140.286 68.1005 140.286 68.1005C140.286 68.1005 142.048 70.6234 139.062 72.3472C146.079 69.2275 150.583 72.1586 150.583 72.1586" stroke="white" stroke-width="4" stroke-linecap="round"/>
<path d="M153.221 79.1922C153.221 79.1922 156.305 89.3175 136.131 88.2441C138.363 93.1622 135.956 94.694 135.956 94.694" stroke="white" stroke-width="4" stroke-linecap="round"/>
<path d="M143.035 100.822C143.035 100.822 141.219 96.3817 123.702 101.11" stroke="white" stroke-width="4" stroke-linecap="round"/>
<path d="M133.046 99.0225C133.046 99.0225 130.112 89.4688 116.702 91.432C103.292 93.3951 98.6258 99.1005 80.2959 91.8232" stroke="white" stroke-width="4" stroke-linecap="round"/>
<path d="M118.244 90.9898C119.324 82.5306 124.064 80.7344 124.064 80.7344" stroke="white" stroke-width="4" stroke-linecap="round"/>
<path d="M108.314 101.019L87.8135 109.011" stroke="white" stroke-width="4" stroke-linecap="round"/>
<path d="M83.2255 79.5836C83.2255 79.5836 61.1317 88.9072 69.1251 104.839" stroke="white" stroke-width="4" stroke-linecap="round"/>
<path d="M61.8806 58.2973L53.4008 65.5035" stroke="white" stroke-width="4" stroke-linecap="round"/>
<path d="M83.1805 59.9471C83.1805 59.9471 88.6767 71.2017 63.3258 77.441C54.121 81.0516 58.3842 84.5828 58.3842 84.5828" stroke="white" stroke-width="4" stroke-linecap="round"/>
<path d="M65.6579 76.719C65.6579 76.719 58.7374 68.8964 42.6458 78.1861C26.5543 87.4757 27.5888 85.4948 27.5888 85.4948" stroke="white" stroke-width="4" stroke-linecap="round"/>
<path d="M74.8226 50.4832C74.8226 50.4832 62.8901 53.8704 61.1912 59.9639C59.4924 66.0574 71.6226 61.7684 71.6226 61.7684" stroke="white" stroke-width="4" stroke-linecap="round"/>
<path d="M83.985 48.8235C86.0821 14.1998 130.346 12.2246 147.636 16.2006C214.995 36.1039 189.735 109.574 189.735 109.574C185.6 110.063 61.9458 124.452 27.4709 85.5681C20.5837 75.5861 24.0056 50.0323 83.985 48.8235ZM83.985 48.8235L173.974 100.774" stroke="white" stroke-width="7"/>
</g>
<defs>
<clipPath id="clip0_869_5081">
<rect width="151.049" height="146.15" fill="white" transform="matrix(0.866044 -0.499967 0.866044 0.499967 0.806641 76.2388)"/>
</clipPath>
</defs>
</svg>
