<svg width="1000" height="1000" viewBox="0 0 1000 1000" fill="none" xmlns="http://www.w3.org/2000/svg">
<g clip-path="url(#clip0_1181_4351)">
<line y1="-2.5" x2="314.551" y2="-2.5" transform="matrix(-0.318777 -0.682692 1.18256 -0.18403 926.654 542.241)" stroke="url(#paint0_linear_1181_4351)" stroke-width="5"/>
<line y1="-2.5" x2="367.262" y2="-2.5" transform="matrix(-0.866044 0.499967 -0.866044 -0.499967 936.357 547.843)" stroke="url(#paint1_linear_1181_4351)" stroke-width="5"/>
<line y1="-2.5" x2="344.043" y2="-2.5" transform="matrix(1.18147 0.186346 -0.322789 0.682063 199.955 674.198)" stroke="url(#paint2_linear_1181_4351)" stroke-width="5"/>
<line y1="-2.5" x2="330.768" y2="-2.5" transform="matrix(-0.316187 -0.683093 1.18325 -0.182534 185.938 661.127)" stroke="url(#paint3_linear_1181_4351)" stroke-width="5"/>
<line y1="-2.5" x2="361.038" y2="-2.5" transform="matrix(-0.866044 0.499967 -0.866044 -0.499967 387.559 242.226)" stroke="url(#paint4_linear_1181_4351)" stroke-width="5"/>
<line y1="-2.5" x2="724.994" y2="-2.5" transform="matrix(-1.1823 -0.184587 0.319741 -0.682541 932.045 556.557)" stroke="url(#paint5_linear_1181_4351)" stroke-width="5"/>
<line y1="-2.5" x2="628.703" y2="-2.5" transform="matrix(-0.866044 -0.499967 0.866044 -0.499967 619.371 737.064)" stroke="url(#paint6_linear_1181_4351)" stroke-width="5"/>
<line y1="-2.5" x2="615.564" y2="-2.5" transform="matrix(-1.1858 0.176954 -0.30652 -0.68456 804.818 313.806)" stroke="url(#paint7_linear_1181_4351)" stroke-width="5"/>
<line y1="-2.5" x2="709.626" y2="-2.5" transform="matrix(-0.866044 0.499967 -0.866044 -0.499967 804.818 313.806)" stroke="url(#paint8_linear_1181_4351)" stroke-width="5"/>
<line y1="-2.5" x2="617.469" y2="-2.5" transform="matrix(-0.300337 0.685473 -1.18738 -0.173384 804.818 313.806)" stroke="url(#paint9_linear_1181_4351)" stroke-width="5"/>
<line x1="389.979" y1="241.143" x2="614.42" y2="742.917" stroke="url(#paint10_linear_1181_4351)" stroke-width="5"/>
<line y1="-2.5" x2="628.703" y2="-2.5" transform="matrix(-0.866044 -0.499967 0.866044 -0.499967 932.045 556.557)" stroke="url(#paint11_linear_1181_4351)" stroke-width="5"/>
<line y1="-2.5" x2="624.166" y2="-2.5" transform="matrix(0.316115 -0.683104 1.18327 0.182493 190.25 668.596)" stroke="url(#paint12_linear_1181_4351)" stroke-width="5"/>
<line y1="-2.5" x2="626.044" y2="-2.5" transform="matrix(1.18489 -0.178963 0.31 0.684037 190.25 668.596)" stroke="url(#paint13_linear_1181_4351)" stroke-width="5"/>
<line y1="-2.5" x2="351.768" y2="-2.5" transform="matrix(1.18005 0.189332 -0.327961 0.68124 384.326 244.093)" stroke="url(#paint14_linear_1181_4351)" stroke-width="5"/>
<circle cx="31.7464" cy="31.7464" r="31.7464" transform="matrix(0.866044 -0.499967 0.866044 0.499967 331.494 242.226)" fill="url(#paint15_linear_1181_4351)" stroke="#FF9797" stroke-width="34"/>
<circle cx="31.7464" cy="31.7464" r="31.7464" transform="matrix(0.866044 -0.499967 0.866044 0.499967 748.752 313.807)" fill="url(#paint16_linear_1181_4351)" stroke="#FF9797" stroke-width="34"/>
<circle cx="31.7464" cy="31.7464" r="31.7464" transform="matrix(0.866044 -0.499967 0.866044 0.499967 18.8184 422.733)" fill="url(#paint17_linear_1181_4351)" stroke="#FF9797" stroke-width="34"/>
<circle cx="31.7464" cy="31.7464" r="31.7464" transform="matrix(0.866044 -0.499967 0.866044 0.499967 875.979 556.557)" fill="url(#paint18_linear_1181_4351)" stroke="#FF9797" stroke-width="34"/>
<circle cx="31.7464" cy="31.7464" r="31.7464" transform="matrix(0.866044 -0.499967 0.866044 0.499967 134.186 668.596)" fill="url(#paint19_linear_1181_4351)" stroke="#FF9797" stroke-width="34"/>
<path fill-rule="evenodd" clip-rule="evenodd" d="M398.977 230.282C398.966 230.288 398.961 230.294 398.952 230.3L389.792 225.012C383.977 221.654 370.571 223.953 362.289 228.734C354.007 233.515 350.734 240.846 356.549 244.203L365.709 249.491C365.699 249.496 365.688 249.499 365.678 249.505C363.222 250.923 363.404 253.326 366.084 254.874C368.764 256.421 372.928 256.526 375.384 255.108C375.394 255.102 375.399 255.096 375.408 255.09C375.408 255.09 380.649 258.856 384.263 260.942C387.877 263.029 407.697 259.593 407.697 259.593L412.046 257.22L416.25 254.792C416.25 254.792 422.295 243.157 418.683 241.071C415.071 238.986 408.651 235.899 408.651 235.899C408.661 235.894 408.672 235.891 408.683 235.885C411.138 234.467 410.956 232.064 408.276 230.516C405.596 228.969 401.432 228.864 398.977 230.282Z" fill="white"/>
<path fill-rule="evenodd" clip-rule="evenodd" d="M392.847 251.918L394.937 253.096L405.096 247.085L403.006 245.907L392.847 251.918ZM407.239 234.928L405.403 235.987L405.867 236.21L405.354 236.263L408.303 245.884L411.182 245.586L408.734 237.599C410.831 238.629 414.672 240.547 417.129 241.966C418.492 242.801 417.145 248.545 414.306 254.126L412.05 255.429L406.523 252.238L403.418 254.031L408.9 257.196L406.577 258.465C397.044 260.085 387.23 260.838 385.816 260.045C383.682 258.813 380.926 256.952 379.095 255.683L391.498 256.949L392.014 255.287L376.261 253.677L375.592 253.197L373.741 254.267C372.131 255.13 369.424 255.008 367.638 253.977C365.857 252.948 365.639 251.391 367.122 250.461L367.671 250.143C371.87 252.314 378.35 252.237 382.395 249.903C384.671 248.588 385.703 246.828 385.506 245.107L388.33 246.737C390.751 248.135 394.694 248.132 397.12 246.731L395.055 245.539C393.771 246.28 391.682 246.282 390.4 245.542L383.463 241.537L385.052 240.62C389.253 242.548 395.408 242.39 399.303 240.142C403.347 237.807 403.48 234.066 399.721 231.642L400.619 231.123C402.229 230.259 404.936 230.381 406.723 231.413C408.504 232.441 408.721 233.999 407.239 234.928ZM358.102 243.305C353.403 240.592 356.136 234.073 363.837 229.627C371.62 225.134 383.707 223.292 388.238 225.908L396.683 230.783C393.96 230.778 390.556 232.131 387.991 233.612C385.06 235.304 382.417 237.628 383.249 239.277L380.896 240.635C378.041 240.154 374.015 241.68 371.083 243.373C368.729 244.732 366.562 246.499 366.226 247.996L358.102 243.305ZM409.829 229.62C406.861 227.907 402.456 227.559 399.163 228.629L391.344 224.115C391.26 224.066 391.164 224.031 391.078 223.985L390.742 221.344C382.138 216.975 364.215 218.58 357.486 222.465L355.071 223.859L354.553 224.158L352.138 225.552C345.409 229.437 342.629 239.783 350.197 244.75L354.802 244.967C354.872 245.01 354.925 245.057 354.996 245.098L362.815 249.612C360.963 251.513 361.565 254.056 364.533 255.769C367.446 257.451 371.746 257.817 375.018 256.818C376.826 258.084 380.137 260.352 382.71 261.837C386.807 264.202 401.988 261.903 408.324 260.804L408.823 260.718L413.549 258.138L413.573 258.126L418.191 255.459L418.35 255.152C420.281 251.436 424.33 242.537 420.236 240.174C417.666 238.69 413.783 236.749 411.629 235.691C413.378 233.799 412.751 231.307 409.829 229.62Z" fill="#16181C"/>
<path fill-rule="evenodd" clip-rule="evenodd" d="M950.141 546.062C949.9 546.161 949.709 546.287 949.537 546.416L948.022 547.552L946.257 546.569C940.622 543.432 935.521 541.569 930.668 540.968L928.39 541.406L926.072 555.591L921.211 543.258L920.716 550.418L923.993 555.578L920.55 552.829L920.354 555.655L919.292 551.823L913.765 547.411L917.381 556.336L910.879 550.193L912.332 557.003L909.058 552.381C909.058 552.381 911.791 557.5 911.708 559.499C911.678 560.243 910.954 560.887 910.058 561.401C911.257 562.375 912.644 563.377 914.258 564.413L915.897 565.467L913.878 566.302C913.648 566.398 913.427 566.501 913.244 566.639C912.729 567.026 912.475 567.459 912.526 567.858C912.576 568.237 912.894 568.559 913.472 568.814L915.957 569.999C917.122 570.511 918.979 570.384 919.965 569.64C920.06 569.567 920.131 569.487 920.204 569.409L921.648 567.862L923.738 569.112C926.753 570.916 931.791 573.267 934.999 574.079C938.675 575.009 951.787 573.731 956.424 571.144C961.041 568.569 963.787 561.533 962.481 559.329C961.405 557.52 957.704 554.39 954.052 552.206L951.962 550.957L954.689 550.176C954.827 550.139 954.969 550.101 955.097 550.047C956.447 549.491 956.714 548.441 955.811 547.705L953.949 546.31C953.479 545.928 952.932 545.733 952.278 545.691C951.588 545.647 950.829 545.778 950.141 546.062Z" fill="white"/>
<path fill-rule="evenodd" clip-rule="evenodd" d="M945.945 553.297L941.323 555.965L942.648 556.73L947.27 554.061C949.038 553.041 948.057 551.316 948.027 551.249L946.907 551.312C946.907 551.324 947.097 552.632 945.945 553.297ZM927.662 565.381L932.274 562.719L930.949 561.954L926.337 564.616C925.177 565.286 922.922 565.17 922.9 565.171L922.793 565.817C922.907 565.835 925.896 566.401 927.662 565.381ZM953.57 546.132L955.474 547.507C956.398 548.234 956.163 549.286 954.832 549.855C954.704 549.911 954.564 549.949 954.428 549.99L954.167 550.068C953.721 549.575 953.159 549.109 952.461 548.691C951.209 547.942 949.692 547.427 948.062 547.136L949.161 546.282C949.33 546.151 949.515 546.024 949.754 545.922C950.434 545.631 951.189 545.492 951.88 545.528C952.536 545.564 953.088 545.754 953.57 546.132ZM936.865 548.743C933.135 550.824 932.327 553.97 934.543 556.391L931.659 557.998C927.549 556.634 922.077 556.992 918.347 559.07C915.467 560.676 914.333 562.92 914.981 564.974L914.425 564.629C912.781 563.609 911.361 562.622 910.134 561.66C911.014 561.137 911.719 560.487 911.727 559.743C911.749 557.744 908.861 552.655 908.861 552.655L912.274 557.242L910.614 550.448L917.304 556.523L913.417 547.638L919.076 551.993L920.257 555.813L920.367 552.986L923.894 555.699L920.46 550.574L920.737 543.412L925.973 555.692L927.861 541.487L930.126 541.027C934.998 541.579 940.155 543.389 945.884 546.468L946.794 546.957C943.372 546.603 939.636 547.198 936.865 548.743ZM949.795 556.478C946.495 558.319 941.36 558.355 938.355 556.558C935.35 554.76 935.59 551.798 938.894 549.956C942.196 548.116 947.328 548.08 950.335 549.877C953.34 551.676 953.098 554.636 949.795 556.478ZM919.836 566.885C916.831 565.087 917.072 562.126 920.375 560.283C923.678 558.442 928.808 558.407 931.814 560.205C934.821 562.003 934.579 564.964 931.278 566.805C927.975 568.647 922.843 568.683 919.836 566.885ZM962.498 559.06C963.87 561.25 961.339 568.311 956.8 570.931C952.24 573.563 939.166 574.973 935.461 574.082C932.623 573.399 928.345 571.544 925.263 569.903C928.124 569.91 931.038 569.283 933.307 568.018C937.764 565.531 938.061 561.515 933.985 559.046L936.275 557.769C940.405 560.209 947.364 560.178 951.823 557.691C954.168 556.384 955.351 554.654 955.365 552.948C958.551 554.99 961.521 557.506 962.498 559.06ZM920.744 569.317L920.524 569.563C920.452 569.642 920.385 569.723 920.291 569.796C919.326 570.551 917.475 570.696 916.294 570.196L913.773 569.035C913.188 568.788 912.86 568.47 912.797 568.091C912.734 567.692 912.975 567.256 913.478 566.864C913.657 566.725 913.877 566.619 914.103 566.521L915.428 565.953C915.91 566.725 916.669 567.448 917.71 568.071C918.603 568.606 919.635 569.016 920.744 569.317ZM956.533 543.188C960.112 543.12 963.171 543.358 963.171 543.358C960.551 542.218 957.139 541.371 954.017 540.84C955.952 540.987 957.306 541.18 957.306 541.18C955.169 540.603 952.518 539.944 949.883 539.384C952.936 539.659 955.241 539.988 955.241 539.988C950.657 538.75 942.07 535.447 936.091 535.805C935.591 535.653 934.961 535.534 934.159 535.464C927.585 534.889 910.607 535.35 902.054 541.48C897.258 544.918 893.451 549.626 892.561 554.313C891.655 559.075 894.6 563.751 896.447 565.606C896.874 566.542 897.503 567.542 898.402 568.62C898.402 568.62 898.569 567.575 899.308 566.171C899.334 566.163 899.357 566.158 899.382 566.15C899.454 567.754 900.211 569.606 902.004 571.756C902.004 571.756 902.217 570.447 903.2 568.79C903.697 570.534 905.162 572.49 908.139 574.661C908.139 574.661 907.916 573.648 908.098 572.218C908.115 572.245 908.115 572.271 908.135 572.299C909.76 574.554 912.992 576.738 918.82 578.533C918.82 578.533 917.542 577.165 916.578 575.098C917.637 575.568 918.882 576.003 920.332 576.396C921.513 577.914 923.299 579.525 925.873 581.225C925.873 581.225 925.241 579.141 925.746 576.486C928.482 577.809 933.153 579.12 937.831 579.844C937.831 579.844 933.969 578.143 931.693 575.847C932.401 576.075 933.089 576.281 933.721 576.432C939.221 577.758 954.22 575.997 959.898 572.719C965.526 569.47 968.673 561.398 966.643 558.166C966.297 557.615 965.795 557.014 965.194 556.39C967.896 557.735 970.857 558.926 973.387 559.318C973.387 559.318 966.344 554.276 964.176 551.028C966.186 551.418 967.536 551.911 967.536 551.911C965.937 550.047 964.099 548.891 962.206 548.206C964.867 548.718 966.653 549.372 966.653 549.372C964.52 546.885 962.065 545.354 959.535 544.458C958.51 543.967 957.509 543.545 956.533 543.188ZM951.965 568.255C955.49 566.219 956.221 562.947 955.833 560.561L938.641 570.486C942.803 570.717 948.442 570.289 951.965 568.255ZM943.985 563.489C945.271 562.747 945.378 561.613 944.231 560.951L943.185 561.555C943.763 561.888 943.653 562.489 942.952 562.893C942.251 563.298 941.211 563.362 940.632 563.028L939.587 563.632C940.734 564.294 942.708 564.227 943.985 563.489Z" fill="#16181C"/>
<path fill-rule="evenodd" clip-rule="evenodd" d="M72.4652 415.44C62.403 416.391 55.3071 417.581 46.6942 422.276C46.697 422.279 46.6979 422.282 46.7007 422.285C47.174 423.007 47.803 423.744 48.5737 424.497C48.657 424.578 48.7395 424.658 48.8256 424.74C49.0536 424.954 49.2891 425.168 49.5406 425.386C49.7744 425.585 50.0232 425.788 50.2767 425.99C50.5442 426.203 50.8239 426.419 51.1119 426.635C51.4344 426.875 51.7644 427.116 52.1151 427.36C52.288 427.48 52.4629 427.601 52.6425 427.723C53.1783 428.083 53.7292 428.446 54.3242 428.816L55.8325 429.751L54.0266 430.527C53.8971 430.582 53.7713 430.642 53.6547 430.709C53.5865 430.749 53.523 430.789 53.4631 430.836C53.006 431.191 52.786 431.585 52.8437 431.945C52.8978 432.288 53.1933 432.576 53.7218 432.799L53.8814 432.875C53.928 432.898 58.9129 435.417 61.5364 433.917L62.9567 433.103L64.3486 433.907C64.6225 434.065 64.9097 434.214 65.2063 434.358C65.238 434.373 65.2698 434.386 65.3006 434.401C65.3715 434.433 65.4415 434.463 65.5125 434.496C65.7159 434.588 65.9175 434.68 66.1277 434.765C66.2528 434.817 66.3827 434.864 66.5107 434.911C66.7051 434.985 66.9004 435.059 67.1023 435.129C67.2444 435.178 67.3921 435.224 67.5371 435.271C67.7372 435.335 67.9373 435.397 68.1404 435.455C68.2845 435.496 68.4323 435.536 68.5783 435.575C68.7907 435.632 69.0051 435.688 69.2223 435.74C69.3693 435.776 69.5172 435.81 69.668 435.843C69.8909 435.894 70.1175 435.942 70.3452 435.987L70.4791 436.014C70.5831 436.034 70.6862 436.054 70.7902 436.073C71.03 436.118 71.2728 436.159 71.5155 436.2C71.6271 436.218 71.7377 436.236 71.8501 436.254C71.8801 436.258 71.9101 436.264 71.9401 436.268C72.211 436.309 72.482 436.346 72.7558 436.382C72.7887 436.387 72.8234 436.391 72.8562 436.395C72.9434 436.406 73.0287 436.419 73.1141 436.429C73.4245 436.467 73.7387 436.501 74.054 436.532L74.1496 436.542C74.1993 436.548 74.25 436.553 74.2997 436.558C74.8167 436.607 75.3375 436.648 75.8585 436.681C75.8688 436.681 75.8791 436.682 75.8885 436.683C76.3841 436.714 76.8808 436.738 77.3785 436.756C77.4189 436.758 77.4583 436.76 77.4977 436.761C78.5288 436.797 79.5574 436.807 80.5676 436.793C80.6024 436.794 80.6372 436.792 80.6729 436.792C81.0554 436.786 81.436 436.778 81.8138 436.767C81.8214 436.767 81.827 436.767 81.8336 436.766L81.8477 436.766C82.2472 436.752 82.642 436.738 83.0331 436.719C85.6788 436.594 88.099 436.339 89.9842 436.048C89.9927 436.047 90.003 436.045 90.0134 436.043C90.4578 435.975 90.8657 435.904 91.2454 435.833C91.2849 435.827 91.3245 435.819 91.3631 435.812C91.7183 435.743 92.0406 435.675 92.3291 435.608C92.3687 435.599 92.4064 435.59 92.446 435.58C92.7223 435.513 92.9675 435.448 93.1695 435.384C93.1931 435.376 93.2111 435.37 93.2337 435.362C93.4358 435.296 93.603 435.232 93.7166 435.172C93.8067 435.115 93.9047 435.031 94.0048 434.934C94.0229 434.916 94.0419 434.899 94.0601 434.88C94.1574 434.778 94.2578 434.66 94.3593 434.526C94.3766 434.503 94.3938 434.479 94.4092 434.457C94.5165 434.312 94.6231 434.153 94.731 433.976L94.7339 433.971C94.8437 433.787 94.9537 433.584 95.0631 433.368C95.0747 433.342 95.0902 433.316 95.1028 433.289C95.2121 433.069 95.3189 432.836 95.4212 432.588C95.426 432.579 95.429 432.569 95.4329 432.56C95.6481 432.041 95.8454 431.464 96.0151 430.847C96.0162 430.835 96.0202 430.823 96.0241 430.812C96.7863 427.975 96.8873 424.289 94.8726 421.294C94.868 421.289 94.8653 421.284 94.8606 421.279C94.6749 421.005 94.4702 420.735 94.2495 420.473C94.2384 420.462 94.2283 420.448 94.2172 420.435C93.9881 420.169 93.7401 419.909 93.4723 419.658C93.4611 419.65 93.4491 419.64 93.4398 419.631C93.4342 419.626 93.4287 419.622 93.424 419.617C93.4027 419.597 93.3748 419.578 93.3535 419.558C87.6435 416.445 81.5771 414.578 72.4652 415.44Z" fill="white"/>
<path fill-rule="evenodd" clip-rule="evenodd" d="M82.4977 428.733C80.83 429.695 81.2238 431.485 83.3787 432.729C85.5327 433.973 88.6326 434.2 90.3003 433.237C91.9679 432.274 91.5742 430.485 89.4202 429.241C87.2653 427.997 84.1654 427.77 82.4977 428.733ZM74.1886 420.903L75.5168 420.859C75.4702 420.192 75.6663 419.568 76.07 419.017C76.1449 419.163 76.2687 419.303 76.4454 419.428C77.1642 419.936 78.4719 420.006 79.3651 419.582C80.2582 419.159 80.4008 418.402 79.681 417.894C79.323 417.641 78.8225 417.498 78.2996 417.468C79.3086 417.087 80.4687 416.91 81.6043 416.994L81.7949 416.232C79.9798 416.099 78.1114 416.462 76.6665 417.228C74.994 418.135 74.0852 419.435 74.1886 420.903ZM93.4227 419.617C93.4273 419.622 93.4329 419.626 93.4385 419.631C93.4477 419.64 93.4589 419.649 93.47 419.659C93.7388 419.909 93.9868 420.169 94.2159 420.435C94.227 420.448 94.2362 420.461 94.2482 420.473C94.4689 420.735 94.6736 421.004 94.8593 421.279C94.863 421.284 94.8667 421.289 94.8713 421.294C96.8859 424.289 96.785 427.975 96.0218 430.812C96.0188 430.823 96.0149 430.835 96.0138 430.847C95.8441 431.464 95.6468 432.041 95.4316 432.56C95.4277 432.569 95.4247 432.579 95.4199 432.588C95.3167 432.836 95.2108 433.069 95.1014 433.289C95.0888 433.316 95.0734 433.342 95.0618 433.368C94.9515 433.583 94.8423 433.787 94.7316 433.972L94.7287 433.975C94.6218 434.153 94.5152 434.312 94.4079 434.456C94.3925 434.479 94.3752 434.503 94.358 434.526C94.2564 434.66 94.1551 434.779 94.0587 434.88C94.0406 434.899 94.0216 434.916 94.0025 434.934C93.9034 435.031 93.8054 435.115 93.7153 435.171C93.6017 435.232 93.4344 435.296 93.2324 435.362C93.2097 435.37 93.1918 435.376 93.1682 435.384C92.9653 435.447 92.721 435.513 92.4447 435.58C92.4042 435.59 92.3674 435.599 92.3278 435.608C92.0393 435.675 91.717 435.743 91.3618 435.812C91.3232 435.819 91.2836 435.827 91.244 435.833C90.8644 435.904 90.4565 435.975 90.0121 436.043C90.0017 436.045 89.9913 436.047 89.9819 436.048C88.0977 436.338 85.6775 436.594 83.0318 436.719C82.6407 436.738 82.2459 436.752 81.8464 436.765L81.8313 436.766C81.8247 436.766 81.8191 436.766 81.8125 436.767C81.4347 436.778 81.054 436.786 80.6716 436.792C80.6359 436.792 80.6011 436.794 80.5663 436.793C79.5561 436.806 78.5275 436.797 77.4964 436.761C77.457 436.76 77.4166 436.757 77.3772 436.756C76.8795 436.738 76.3828 436.714 75.8872 436.683C75.8778 436.682 75.8675 436.681 75.8572 436.681C75.3362 436.648 74.8154 436.607 74.2984 436.558C74.2487 436.553 74.198 436.548 74.1483 436.542L74.0526 436.532C73.7374 436.501 73.4232 436.467 73.1127 436.429C73.0274 436.419 72.9421 436.406 72.8549 436.395C72.822 436.391 72.7873 436.387 72.7545 436.382C72.4807 436.346 72.2088 436.309 71.9388 436.268C71.9079 436.263 71.8788 436.258 71.8479 436.253C71.7363 436.236 71.6257 436.218 71.5142 436.2C71.2715 436.159 71.0287 436.117 70.7889 436.073C70.6849 436.054 70.5818 436.033 70.4769 436.013L70.3439 435.987C70.1162 435.942 69.8895 435.894 69.6667 435.843C69.5159 435.81 69.368 435.776 69.221 435.74C69.0038 435.688 68.7894 435.632 68.577 435.575C68.4301 435.535 68.2831 435.496 68.1391 435.455C67.936 435.397 67.7359 435.335 67.5358 435.271C67.3908 435.224 67.243 435.178 67.101 435.129C66.899 435.059 66.7038 434.985 66.5094 434.911C66.3814 434.863 66.2515 434.817 66.1264 434.765C65.9162 434.68 65.7146 434.588 65.5112 434.496C65.4402 434.463 65.3693 434.432 65.2993 434.401C65.2685 434.386 65.2358 434.373 65.205 434.358C64.9083 434.214 64.6212 434.065 64.3463 433.906L62.9554 433.103L61.5342 433.916C58.9116 435.417 53.9267 432.898 53.8801 432.875L53.7205 432.799C53.192 432.576 52.8965 432.288 52.8423 431.945C52.7847 431.585 53.0047 431.191 53.4618 430.836C53.5216 430.789 53.5843 430.748 53.6525 430.708C53.769 430.641 53.8958 430.582 54.0253 430.527L55.8312 429.751L54.3229 428.816C53.7279 428.446 53.177 428.083 52.6411 427.723C52.4616 427.601 52.2867 427.48 52.1137 427.36C51.7631 427.116 51.4331 426.875 51.1106 426.635C50.8225 426.418 50.5429 426.203 50.2754 425.99C50.0219 425.788 49.7731 425.585 49.5392 425.385C49.2878 425.168 49.0523 424.953 48.8243 424.74C48.7381 424.658 48.6557 424.578 48.5714 424.496C47.8007 423.744 47.1727 423.007 46.6994 422.284C46.6966 422.282 46.6957 422.279 46.6929 422.276C55.3058 417.581 62.4017 416.391 72.4638 415.439C73.4066 415.35 74.3102 415.298 75.191 415.265C75.1314 415.295 75.0729 415.312 75.0123 415.344C72.6522 416.566 71.4848 418.523 70.9995 419.583L72.2849 419.767C72.6431 418.981 73.7117 417.033 75.8881 415.912C76.4779 415.607 77.0456 415.4 77.5834 415.243C83.9843 415.379 88.784 417.068 93.3522 419.558C93.3735 419.578 93.4005 419.597 93.4227 419.617ZM96.069 407.46C86.7446 402.624 62.895 396.761 44.861 407.71C36.2905 412.912 27.2043 426.508 51.23 437.917C64.2029 444.077 77.6285 447.686 77.6285 447.686C77.6285 447.686 81.1699 446.449 82.4258 440.883C82.5869 440.277 82.704 439.659 82.8015 439.034C86.9098 438.857 90.6423 438.366 93.2341 437.808C93.237 437.808 93.2398 437.807 93.2426 437.806C93.7563 437.696 94.2249 437.583 94.6428 437.469C94.6522 437.467 94.6579 437.465 94.6664 437.462C95.0776 437.35 95.4429 437.237 95.749 437.123L95.7622 437.119C96.0701 437.006 96.3217 436.894 96.5102 436.785C96.623 436.72 96.7379 436.637 96.8538 436.548C96.888 436.522 96.9214 436.492 96.9546 436.464C97.0412 436.391 97.1288 436.313 97.2174 436.227C97.2498 436.194 97.2841 436.162 97.3176 436.126C97.4206 436.021 97.5246 435.907 97.6279 435.785C97.6413 435.767 97.6556 435.752 97.6709 435.733C97.9215 435.43 98.17 435.078 98.4107 434.686L98.4444 434.629C98.5608 434.439 98.6727 434.24 98.7838 434.032C98.7867 434.026 98.7896 434.021 98.7925 434.015C99.0293 433.569 99.2524 433.085 99.4545 432.568C99.4564 432.629 99.4578 432.664 99.4578 432.664C99.4578 432.664 122.828 421.338 96.069 407.46ZM68.6986 424.073C66.1561 424.013 63.9124 424.536 62.333 425.503C61.0073 426.337 60.3789 427.416 60.6097 428.463L61.9295 428.353C61.7822 427.698 62.0889 427.028 62.7495 426.445C62.8005 426.747 63.049 427.036 63.4866 427.243C64.3684 427.658 65.6783 427.576 66.4121 427.06C67.145 426.545 67.0245 425.79 66.1437 425.375C65.9263 425.273 65.6849 425.201 65.43 425.158C66.3861 424.925 67.4673 424.812 68.6225 424.839L68.6986 424.073ZM79.9225 427.383C81.0823 426.713 81.1866 425.685 80.1581 425.091L79.2106 425.638C79.7267 425.936 79.6276 426.477 78.9909 426.845C78.3541 427.213 77.4166 427.27 76.9004 426.972L75.9529 427.519C76.9814 428.113 78.7627 428.052 79.9225 427.383ZM66.7294 422.973L66.4124 422.232C64.5762 422.511 61.1925 423.189 59.0699 424.548C56.0755 426.482 57.037 428.25 57.0791 428.325L58.3436 428.077C58.3125 428.018 57.6008 426.637 60.0537 425.053C62.016 423.793 65.3707 423.18 66.7294 422.973Z" fill="#16181C"/>
<path fill-rule="evenodd" clip-rule="evenodd" d="M201.581 656.895C201.57 656.901 201.565 656.908 201.555 656.914L192.241 651.537C186.329 648.123 172.568 650.535 164.025 655.467C155.483 660.398 152.036 667.921 157.949 671.334L167.262 676.711C167.253 676.716 167.241 676.72 167.23 676.726C164.698 678.187 164.853 680.649 167.578 682.222C170.303 683.795 174.567 683.885 177.099 682.423C177.11 682.417 177.115 682.41 177.125 682.405C177.125 682.405 182.444 686.238 186.118 688.36C189.793 690.481 210.137 686.877 210.137 686.877L214.62 684.43L218.958 681.924C218.958 681.924 225.297 669.983 221.624 667.862C217.952 665.742 211.418 662.607 211.418 662.607C211.427 662.602 211.439 662.599 211.45 662.592C213.981 661.131 213.826 658.669 211.101 657.096C208.377 655.523 204.113 655.434 201.581 656.895Z" fill="white"/>
<path fill-rule="evenodd" clip-rule="evenodd" d="M209.982 661.62L208.09 662.711L209.965 663.611C210.031 663.641 216.464 666.731 220.022 668.785C221.408 669.633 219.956 675.523 216.975 681.251L214.648 682.595L209.028 679.351L205.825 681.2L211.399 684.418L209.003 685.728C199.22 687.427 189.159 688.241 187.721 687.434C184.175 685.387 178.942 681.62 178.89 681.582L177.337 680.464L175.428 681.568C173.768 682.459 170.997 682.345 169.181 681.297C167.37 680.251 167.168 678.656 168.699 677.698L169.266 677.371C173.537 679.576 180.175 679.469 184.348 677.061C186.696 675.705 187.775 673.898 187.597 672.137L190.467 673.794C191.081 674.148 191.794 674.414 192.556 674.588L190.414 675.825C187.197 677.682 186.856 680.508 189.656 682.124L197.893 686.879L201.097 685.03L192.859 680.274C191.815 679.671 192.136 678.466 193.563 677.643L202.951 672.223C202.776 672.934 201.59 674.226 199.299 675.548C197.393 676.648 195.196 677.47 193.7 677.641L194.235 679.337C196.344 679.096 199.024 678.131 201.399 676.76C203.963 675.28 205.658 673.643 205.933 672.384L202.994 672.198L203.517 671.897C204.943 671.073 207.029 670.888 208.074 671.491L216.312 676.247L219.515 674.397L211.277 669.641C208.478 668.025 203.585 668.221 200.368 670.079L195.118 673.109C194.207 673.136 193.289 672.957 192.602 672.561L185.549 668.489L187.188 667.542C191.464 669.501 197.77 669.312 201.788 666.993C205.961 664.584 206.144 660.752 202.327 658.286L203.254 657.75C204.912 656.858 207.683 656.972 209.5 658.021C211.311 659.066 211.513 660.661 209.982 661.62ZM159.551 670.408C159.129 670.165 158.787 669.881 158.485 669.579C159.774 668.096 160.772 665.876 160.772 665.876L166.612 665.24L170.783 660.097L179.007 658.833L180.26 654.625L186.882 654.287L188.241 651.613C189.168 651.811 189.988 652.085 190.639 652.461L199.225 657.418C196.435 657.425 192.933 658.825 190.289 660.352C187.265 662.098 184.526 664.491 185.358 666.175L182.93 667.576C180.012 667.096 175.871 668.675 172.846 670.421C170.418 671.823 168.176 673.642 167.813 675.178L159.551 670.408ZM212.704 656.172C209.686 654.429 205.178 654.093 201.793 655.201L193.843 650.612C186.607 646.435 171.49 649.339 162.451 654.557C153.574 659.681 149.002 668.017 156.347 672.258L164.297 676.847C162.376 678.802 162.96 681.404 165.978 683.146C168.94 684.856 173.339 685.212 176.703 684.175C178.539 685.465 181.9 687.773 184.517 689.283C188.682 691.688 204.261 689.268 210.763 688.116L211.276 688.025L216.15 685.362L216.174 685.35L220.937 682.599L221.105 682.285C223.129 678.471 227.39 669.34 223.227 666.936C220.613 665.428 216.663 663.455 214.471 662.381C216.284 660.437 215.675 657.887 212.704 656.172Z" fill="#16181C"/>
<g filter="url(#filter0_d_1181_4351)">
<circle cx="31.7464" cy="31.7464" r="31.7464" transform="matrix(0.866044 -0.499967 0.866044 0.499967 563.305 737.064)" fill="url(#paint20_linear_1181_4351)" stroke="#FF9797" stroke-width="34"/>
<path fill-rule="evenodd" clip-rule="evenodd" d="M630.867 725.504L619.644 719.025C614.894 716.283 602.109 718.283 593.833 723.06C585.645 727.787 582.673 734.681 587.599 737.525L598.822 744.004L597.028 745.038C595.449 746.027 595.657 747.671 597.524 748.748C599.397 749.83 602.253 749.947 603.962 749.028L605.93 747.89L607.53 749.044C607.583 749.082 612.98 752.965 616.634 755.075C618.117 755.905 628.486 755.068 638.571 753.316L642.764 751.026L646.789 748.701C649.86 742.797 651.357 736.726 649.93 735.852C646.261 733.734 639.63 730.551 639.564 730.517L637.63 729.59L639.581 728.465C641.16 727.477 640.952 725.834 639.084 724.756C637.212 723.675 634.356 723.557 632.646 724.476L630.867 725.504Z" fill="white"/>
<path fill-rule="evenodd" clip-rule="evenodd" d="M623.051 729.95C620.855 731.006 619.667 732.581 619.788 734.28L621.331 734.229C621.276 733.451 621.559 732.709 622.114 732.05C622.199 732.167 622.303 732.282 622.45 732.384C623.285 732.974 624.805 733.055 625.84 732.564C626.879 732.071 627.044 731.193 626.208 730.601C625.926 730.402 625.565 730.267 625.173 730.186C626.387 729.811 627.711 729.682 628.9 729.843L629.277 728.975C627.229 728.699 624.902 729.063 623.051 729.95ZM635.592 746.503C633.981 747.433 633.36 748.611 634.034 749.297L640.434 745.603C639.243 745.215 637.204 745.572 635.592 746.503ZM623.146 749.388C623.146 749.388 630.158 748.865 635.041 746.047C639.924 743.228 640.828 739.18 640.828 739.18L632.4 744.522L623.146 749.388ZM625.813 726.469C626.345 726.471 626.835 726.543 627.038 726.585L628.129 724.907C627.882 724.856 626.998 724.69 625.883 724.687L625.813 726.469ZM639.581 728.465L637.63 729.59L639.564 730.517C639.63 730.55 646.261 733.734 649.93 735.852C651.357 736.726 649.86 742.797 646.788 748.7L642.763 751.026L638.571 753.316C628.486 755.068 618.117 755.905 616.634 755.074C612.98 752.965 607.584 749.082 607.53 749.043L605.931 747.89L603.963 749.028C602.253 749.947 599.396 749.829 597.524 748.748C595.656 747.67 595.449 746.026 597.028 745.038L598.822 744.004L587.599 737.525C582.673 734.681 585.644 727.786 593.833 723.059C602.108 718.282 614.894 716.283 619.644 719.025L630.867 725.504L632.646 724.476C634.355 723.557 637.213 723.675 639.084 724.755C640.952 725.834 641.16 727.477 639.581 728.465ZM642.386 722.849C639.276 721.053 634.629 720.707 631.14 721.849L622.946 717.119C615.487 712.813 599.904 715.806 590.587 721.185C581.435 726.468 576.725 735.06 584.297 739.431L592.491 744.161C590.511 746.176 591.111 748.859 594.222 750.655C597.275 752.417 601.81 752.783 605.278 751.715C607.17 753.043 610.634 755.423 613.331 756.981C614.438 757.619 616.333 757.924 618.64 758.009C619.793 758.052 621.049 758.04 622.368 757.985C628.645 757.722 636.272 756.506 640.386 755.778L640.914 755.683L645.937 752.939L645.961 752.927L650.873 750.09L651.047 749.766C652.362 747.286 654.591 742.63 654.984 738.906C655.066 738.127 655.062 737.394 654.957 736.726C654.77 735.521 654.252 734.535 653.232 733.946C650.538 732.391 646.466 730.358 644.206 729.251C646.078 727.246 645.449 724.617 642.386 722.849ZM610.727 739.152C610.549 739.068 610.35 739.008 610.149 738.958C611.289 738.638 612.575 738.474 613.924 738.505L614.011 737.615C611.066 737.546 608.335 738.233 606.512 739.498C604.976 740.566 604.345 741.91 604.82 743.093L606.323 742.877C606.046 742.189 606.271 741.424 606.919 740.724C607.059 740.95 607.293 741.158 607.64 741.32C608.663 741.804 610.185 741.709 611.038 741.109C611.889 740.511 611.75 739.634 610.727 739.152ZM621.4 728.893L618.939 727.842C616.726 729.549 614.379 731.51 614.357 731.529L616.889 732.524C616.912 732.505 619.222 730.573 621.4 728.893ZM610.982 735.935L609.258 734.473C608.92 734.608 600.962 737.783 598.786 739.039C596.561 740.323 597.654 742.213 597.788 742.424L600.693 741.793C600.53 741.535 600.232 740.703 600.95 740.288C602.588 739.343 608.747 736.825 610.982 735.935ZM624.428 726.734C624.559 726.659 624.712 726.6 624.893 726.558L623.775 724.908C623.205 725.042 622.696 725.235 622.264 725.485L621.975 725.658L624.212 726.863L624.428 726.734ZM623.272 727.497L620.883 726.391C620.575 726.612 620.241 726.857 619.896 727.113L622.327 728.187C622.656 727.941 622.975 727.708 623.272 727.497ZM628.438 742.637C630.865 741.235 631.082 739.079 628.919 737.831L626.718 739.102C627.687 739.661 627.488 740.687 626.274 741.387C625.059 742.089 623.284 742.203 622.315 741.643L620.112 742.915C622.275 744.163 626.011 744.038 628.438 742.637ZM619.839 742.819L618.534 742.358C618.185 742.679 618.009 743.046 618.024 743.417C618.042 743.951 618.44 744.444 619.142 744.805C619.832 745.159 620.739 745.341 621.689 745.322C622.424 745.307 623.13 745.17 623.727 744.928L622.853 744.202C622.508 744.342 622.096 744.422 621.66 744.431C621.102 744.442 620.577 744.337 620.176 744.133C619.793 743.936 619.577 743.671 619.567 743.384C619.559 743.187 619.652 742.992 619.839 742.819Z" fill="#16181C"/>
</g>
<path fill-rule="evenodd" clip-rule="evenodd" d="M789.769 321.718C789.703 321.756 789.642 321.796 789.586 321.841C789.147 322.183 788.941 322.565 789.002 322.917C789.062 323.25 789.354 323.531 789.872 323.751L790.029 323.826C790.075 323.85 794.968 326.329 797.493 324.885L798.86 324.103L800.228 324.892C808.465 329.648 826.762 327.393 828.815 326.298C830.71 325.114 834.608 314.556 826.37 309.8L825.003 309.011L826.358 308.221C828.877 306.752 824.568 303.941 824.524 303.913L824.393 303.822C824.012 303.523 823.525 303.355 822.947 303.32C822.338 303.285 821.678 303.404 821.083 303.657C820.874 303.747 820.714 303.857 820.566 303.97L819.279 304.976L817.688 304.12C815.06 302.706 812.578 301.607 810.194 300.791C809.558 301.601 808.115 302.508 805.112 303.351C802.858 304.993 799.398 307.111 794.78 308.761C790.23 310.386 785.477 311.23 781.941 311.668C782.745 314.196 785.541 316.88 790.387 319.881L791.869 320.8L790.127 321.543C790.003 321.596 789.881 321.653 789.769 321.718Z" fill="white"/>
<path fill-rule="evenodd" clip-rule="evenodd" d="M812.091 308.797C810.478 309.67 809.619 310.929 809.747 312.357L811.037 312.323C810.98 311.673 811.16 311.067 811.543 310.533C811.617 310.677 811.74 310.814 811.914 310.936C812.623 311.435 813.896 311.511 814.757 311.104C815.619 310.697 815.743 309.962 815.033 309.463C814.682 309.215 814.192 309.072 813.684 309.041C814.657 308.676 815.782 308.511 816.888 308.6L817.06 307.86C815.292 307.72 813.481 308.061 812.091 308.797ZM810.447 306.954C808.173 308.129 807.073 310.026 806.619 311.054L807.874 311.241C808.208 310.479 809.211 308.59 811.309 307.512C813.952 306.152 816.288 306.565 816.382 306.583L816.792 305.876C816.666 305.851 813.675 305.294 810.447 306.954ZM818.955 320.52L816.949 320.911C815.367 322.444 813.468 323.803 813.468 323.803C813.468 323.803 819.959 324.3 822.731 322.7C825.504 321.099 824.643 317.352 824.643 317.352C824.643 317.352 822.29 318.448 819.634 319.361L818.955 320.52ZM815.44 318.694C816.555 318.05 816.638 317.05 815.627 316.467L814.715 316.993C815.222 317.285 815.136 317.812 814.524 318.165C813.912 318.519 813 318.568 812.493 318.276L811.582 318.802C812.593 319.386 814.324 319.338 815.44 318.694ZM824.392 303.824L824.522 303.914C824.566 303.943 828.876 306.753 826.356 308.223L825.001 309.012L826.368 309.802C834.606 314.557 830.709 325.116 828.814 326.3C826.761 327.396 808.463 329.65 800.225 324.894L798.858 324.105L797.49 324.887C794.966 326.331 790.073 323.851 790.027 323.828L789.87 323.753C789.351 323.533 789.061 323.251 789.001 322.918C788.939 322.566 789.145 322.185 789.584 321.842C789.641 321.797 789.701 321.757 789.767 321.72C789.879 321.655 790.002 321.597 790.126 321.544L791.869 320.801L790.385 319.882C785.539 316.881 782.743 314.198 781.939 311.669C785.476 311.231 790.228 310.388 794.779 308.763C799.398 307.112 802.857 304.994 805.11 303.352C808.113 302.509 809.556 301.602 810.194 300.793C812.577 301.608 815.058 302.707 817.686 304.121L819.278 304.978L820.564 303.972C820.712 303.858 820.873 303.749 821.082 303.658C821.676 303.405 822.337 303.286 822.945 303.322C823.523 303.356 824.01 303.524 824.392 303.824ZM827.444 302.45C826.415 301.672 824.954 301.192 823.322 301.095C821.828 301.007 820.292 301.248 818.966 301.774C816.245 300.381 813.113 299.007 809.66 298.064C800.7 291.458 785.444 294.988 778.946 297.865C777.605 298.46 775.979 299.339 774.399 300.464C771.195 302.087 768.209 304.492 765.739 307.988C765.739 307.988 766.901 307.487 768.851 306.862C767.062 311.234 768.455 316.839 777.89 323.242C777.28 319.525 777.744 316.513 779.035 314.071C780.607 316.535 783.44 318.747 786.32 320.622C785.408 321.386 784.991 322.274 785.145 323.135C785.311 324.077 786.143 324.921 787.491 325.515C789.851 326.741 794.249 328.21 798.017 327.333C797.592 328.16 797.96 329.111 799.134 329.789C800.431 330.537 802.307 330.723 803.827 330.345C803.175 331.224 803.496 332.307 804.793 333.055C806.095 333.807 807.977 333.991 809.505 333.608C808.84 334.489 809.159 335.576 810.461 336.328C811.582 336.975 813.136 337.196 814.521 337.003L814.443 337.047L817.373 340.388L823.088 337.089L817.362 335.416C817.756 334.598 817.385 333.665 816.229 332.998C814.927 332.246 813.043 332.062 811.519 332.445C812.141 331.617 811.886 330.611 810.774 329.868C819.98 330.557 829.544 329.051 831.561 327.886C833.586 326.717 836.208 321.154 834.973 315.819C836.266 316.493 838.048 316.652 839.511 316.286C838.847 317.166 839.165 318.254 840.467 319.005C841.588 319.652 843.142 319.874 844.527 319.68L844.449 319.725L847.379 323.066L853.094 319.767L847.369 318.093C847.762 317.275 847.39 316.343 846.235 315.675C844.933 314.924 843.049 314.74 841.525 315.123C842.187 314.242 841.869 313.155 840.567 312.403C839.27 311.655 837.395 311.469 835.872 311.846C836.527 310.968 836.205 309.885 834.908 309.136C833.722 308.452 832.054 308.242 830.611 308.498C832.088 306.329 829.558 303.807 827.444 302.45ZM802.529 314.326L802.206 313.602C800.426 313.863 797.146 314.502 795.105 315.811C792.229 317.674 793.196 319.401 793.239 319.473L794.464 319.239C794.432 319.183 793.716 317.835 796.071 316.309C797.958 315.095 801.211 314.518 802.529 314.326ZM801.304 316.443C802.229 316.222 803.279 316.119 804.404 316.152L804.463 315.407C801.99 315.333 799.816 315.828 798.297 316.76C797.022 317.563 796.431 318.608 796.675 319.628L797.957 319.529C797.802 318.891 798.088 318.242 798.719 317.679C798.773 317.973 799.021 318.256 799.451 318.459C800.317 318.868 801.588 318.797 802.294 318.299C802.997 317.803 802.867 317.067 802.002 316.659C801.789 316.558 801.553 316.487 801.304 316.443Z" fill="#16181C"/>
</g>
<defs>
<filter id="filter0_d_1181_4351" x="554.59" y="702.597" width="127.406" height="76.9336" filterUnits="userSpaceOnUse" color-interpolation-filters="sRGB">
<feFlood flood-opacity="0" result="BackgroundImageFix"/>
<feColorMatrix in="SourceAlpha" type="matrix" values="0 0 0 0 0 0 0 0 0 0 0 0 0 0 0 0 0 0 127 0" result="hardAlpha"/>
<feOffset dy="4"/>
<feGaussianBlur stdDeviation="2"/>
<feComposite in2="hardAlpha" operator="out"/>
<feColorMatrix type="matrix" values="0 0 0 0 0 0 0 0 0 0 0 0 0 0 0 0 0 0 0.25 0"/>
<feBlend mode="normal" in2="BackgroundImageFix" result="effect1_dropShadow_1181_4351"/>
<feBlend mode="normal" in="SourceGraphic" in2="effect1_dropShadow_1181_4351" result="shape"/>
</filter>
<linearGradient id="paint0_linear_1181_4351" x1="10.0739" y1="0.443696" x2="307.67" y2="0.443798" gradientUnits="userSpaceOnUse">
<stop stop-color="#FE544A"/>
<stop offset="1" stop-color="#F9BA2D"/>
</linearGradient>
<linearGradient id="paint1_linear_1181_4351" x1="11.7621" y1="0.443696" x2="359.229" y2="0.443835" gradientUnits="userSpaceOnUse">
<stop stop-color="#FE544A"/>
<stop offset="1" stop-color="#F9BA2D"/>
</linearGradient>
<linearGradient id="paint2_linear_1181_4351" x1="11.0185" y1="0.443696" x2="336.518" y2="0.443818" gradientUnits="userSpaceOnUse">
<stop stop-color="#FE544A"/>
<stop offset="1" stop-color="#F9BA2D"/>
</linearGradient>
<linearGradient id="paint3_linear_1181_4351" x1="10.5933" y1="0.443696" x2="323.533" y2="0.443808" gradientUnits="userSpaceOnUse">
<stop stop-color="#FE544A"/>
<stop offset="1" stop-color="#F9BA2D"/>
</linearGradient>
<linearGradient id="paint4_linear_1181_4351" x1="11.5628" y1="0.443696" x2="353.14" y2="0.44383" gradientUnits="userSpaceOnUse">
<stop stop-color="#FE544A"/>
<stop offset="1" stop-color="#F9BA2D"/>
</linearGradient>
<linearGradient id="paint5_linear_1181_4351" x1="23.219" y1="0.443696" x2="709.136" y2="0.444237" gradientUnits="userSpaceOnUse">
<stop stop-color="#FE544A"/>
<stop offset="1" stop-color="#F9BA2D"/>
</linearGradient>
<linearGradient id="paint6_linear_1181_4351" x1="20.1352" y1="0.443696" x2="614.951" y2="0.444103" gradientUnits="userSpaceOnUse">
<stop stop-color="#FE544A"/>
<stop offset="1" stop-color="#F9BA2D"/>
</linearGradient>
<linearGradient id="paint7_linear_1181_4351" x1="19.7144" y1="0.443696" x2="602.1" y2="0.444086" gradientUnits="userSpaceOnUse">
<stop stop-color="#FE544A"/>
<stop offset="1" stop-color="#F9BA2D"/>
</linearGradient>
<linearGradient id="paint8_linear_1181_4351" x1="22.7268" y1="0.443696" x2="694.104" y2="0.444214" gradientUnits="userSpaceOnUse">
<stop stop-color="#FE544A"/>
<stop offset="1" stop-color="#F9BA2D"/>
</linearGradient>
<linearGradient id="paint9_linear_1181_4351" x1="19.7753" y1="0.443696" x2="603.962" y2="0.444088" gradientUnits="userSpaceOnUse">
<stop stop-color="#FE544A"/>
<stop offset="1" stop-color="#F9BA2D"/>
</linearGradient>
<linearGradient id="paint10_linear_1181_4351" x1="394.317" y1="258.488" x2="606.661" y2="733.217" gradientUnits="userSpaceOnUse">
<stop stop-color="#FE544A"/>
<stop offset="0.411458" stop-color="#FC7441"/>
<stop offset="0.494792" stop-color="white"/>
<stop offset="0.572116" stop-color="#FB9139"/>
<stop offset="1" stop-color="#F9BA2D"/>
</linearGradient>
<linearGradient id="paint11_linear_1181_4351" x1="20.1352" y1="0.443696" x2="614.951" y2="0.444103" gradientUnits="userSpaceOnUse">
<stop stop-color="#FE544A"/>
<stop offset="1" stop-color="#F9BA2D"/>
</linearGradient>
<linearGradient id="paint12_linear_1181_4351" x1="19.9898" y1="0.443696" x2="610.513" y2="0.444097" gradientUnits="userSpaceOnUse">
<stop stop-color="#FE544A"/>
<stop offset="1" stop-color="#F9BA2D"/>
</linearGradient>
<linearGradient id="paint13_linear_1181_4351" x1="20.05" y1="0.443696" x2="612.35" y2="0.444099" gradientUnits="userSpaceOnUse">
<stop stop-color="#FE544A"/>
<stop offset="1" stop-color="#F9BA2D"/>
</linearGradient>
<linearGradient id="paint14_linear_1181_4351" x1="11.2659" y1="0.443696" x2="344.074" y2="0.443823" gradientUnits="userSpaceOnUse">
<stop stop-color="#FE544A"/>
<stop offset="1" stop-color="#F9BA2D"/>
</linearGradient>
<linearGradient id="paint15_linear_1181_4351" x1="42.3875" y1="-45.9319" x2="-86.1257" y2="-1.29795" gradientUnits="userSpaceOnUse">
<stop stop-color="#5A1E8F"/>
<stop offset="1" stop-color="#F9F9F9"/>
</linearGradient>
<linearGradient id="paint16_linear_1181_4351" x1="42.3875" y1="-45.9319" x2="-86.1257" y2="-1.29795" gradientUnits="userSpaceOnUse">
<stop stop-color="#5A1E8F"/>
<stop offset="1" stop-color="#F9F9F9"/>
</linearGradient>
<linearGradient id="paint17_linear_1181_4351" x1="42.3875" y1="-45.9319" x2="-86.1257" y2="-1.29795" gradientUnits="userSpaceOnUse">
<stop stop-color="#5A1E8F"/>
<stop offset="1" stop-color="#F9F9F9"/>
</linearGradient>
<linearGradient id="paint18_linear_1181_4351" x1="42.3875" y1="-45.9319" x2="-86.1257" y2="-1.29795" gradientUnits="userSpaceOnUse">
<stop stop-color="#5A1E8F"/>
<stop offset="1" stop-color="#F9F9F9"/>
</linearGradient>
<linearGradient id="paint19_linear_1181_4351" x1="42.3875" y1="-45.9319" x2="-86.1257" y2="-1.29795" gradientUnits="userSpaceOnUse">
<stop stop-color="#5A1E8F"/>
<stop offset="1" stop-color="#F9F9F9"/>
</linearGradient>
<linearGradient id="paint20_linear_1181_4351" x1="42.3875" y1="-45.9319" x2="-86.1257" y2="-1.29795" gradientUnits="userSpaceOnUse">
<stop stop-color="#5A1E8F"/>
<stop offset="1" stop-color="#F9F9F9"/>
</linearGradient>
<clipPath id="clip0_1181_4351">
<rect width="1000" height="1000" fill="white"/>
</clipPath>
</defs>
</svg>
