<?xml version="1.0" encoding="UTF-8"?>
<svg width="798px" height="263px" viewBox="0 0 798 263" version="1.1" xmlns="http://www.w3.org/2000/svg" xmlns:xlink="http://www.w3.org/1999/xlink">
    <title>racing-car-Ferrari-vectorportal</title>
    <defs>
        <path d="M29.2993483,0.0777981883 C30.2883543,5.87732059 30.6597039,15.9298876 29.925,19.917 C26.0408571,14.7430286 11.9760722,9.46760878 4.1696286,6.84595892 L3.37172266,6.57991635 C1.95387612,6.11057755 0.790585714,5.74367143 -5.68434189e-14,5.499 C10.044,2.916 19.899,0.999 29.286,0 L28.573,0.079" id="path-1"></path>
        <linearGradient x1="-477.82612%" y1="50.3891148%" x2="537.183647%" y2="50.3891148%" id="linearGradient-3">
            <stop stop-color="#1A1919" offset="0%"></stop>
            <stop stop-color="#1A1B1B" offset="11.1111111%"></stop>
            <stop stop-color="#202020" offset="15.8730159%"></stop>
            <stop stop-color="#181C1A" offset="22.2222222%"></stop>
            <stop stop-color="#FFFFFE" offset="100%"></stop>
        </linearGradient>
        <path d="M73.3912657,0.00138075015 C131.828643,1.68966983 173.200419,11.3490791 175.867079,11.9847033 L175.867079,12.1625749 L169.614,18.7225749 C169.614,18.7225749 122.598603,6.30274772 84.9285967,12.6388002 L83.79,12.8365749 C35.928,21.4045749 21.573,59.0335749 10.989,70.5085749 C7.893,70.8685749 4.176,71.1745749 0,71.4265749 C3.4344,66.5017749 11.0448,57.7753749 18.963936,49.0524309 L20.1536385,47.7444909 C31.6671336,35.1105165 43.4232,22.8838149 43.632,22.6645749 L43.92,22.3585749 L43.884,22.2235749 C45.252,19.0645749 44.811,7.13957492 43.668,0.389574916 C45.2866383,0.231491342 46.8921542,0.100964939 48.4825433,0" id="path-4"></path>
        <linearGradient x1="-74.8897752%" y1="50.3557676%" x2="99.9215927%" y2="50.3557676%" id="linearGradient-6">
            <stop stop-color="#1A1919" offset="0%"></stop>
            <stop stop-color="#1A1B1B" offset="11.1111111%"></stop>
            <stop stop-color="#202020" offset="15.8730159%"></stop>
            <stop stop-color="#181C1A" offset="22.2222222%"></stop>
            <stop stop-color="#FFFFFE" offset="100%"></stop>
        </linearGradient>
        <path d="M82.971,0 C101.061,0 114.444,2.934 114.444,2.934 C114.444,2.934 114.901006,3.89887722 115.586113,5.48227551 L115.769861,5.90913892 C117.436012,9.79968047 120.207692,16.8146538 121.284,22.716 L121.258,22.578 L121.258545,22.738934 C92.6895563,48.4572253 3.66013037,55.9688975 0.109350432,56.2591585 L5.68434189e-14,56.26 L5.68434189e-14,53.982 C0.2775,53.787 0.53625,53.52325 0.786666667,53.1855417 L0.936,52.974 C6.12,45.144 17.19,43.947 18.396,43.839 C19.674,44.163 30.915,46.953 40.788,46.953 C50.238,46.953 55.62,44.46 56.799,39.519 C57.582,36.252 56.727,33.003 54.261,29.88 C48.735,22.878 36.072,18.243 32.427,18.243 C27.684,18.243 12.807,31.608 12.276,35.316 C12.258,35.46 12.213,35.622 12.177,35.802 C11.961,36.765 11.547,38.628 13.077,39.852 C12.591,40.005 11.961,40.194 11.367,40.365 C8.478,41.211 3.852,42.561 5.68434189e-14,45.108 L5.68434189e-14,38.043" id="path-7"></path>
        <linearGradient x1="-0.0181392434%" y1="49.9840051%" x2="99.9785627%" y2="49.9840051%" id="linearGradient-9">
            <stop stop-color="#1A1919" offset="0%"></stop>
            <stop stop-color="#1A1B1B" offset="11.1111111%"></stop>
            <stop stop-color="#202020" offset="15.8730159%"></stop>
            <stop stop-color="#181C1A" offset="22.2222222%"></stop>
            <stop stop-color="#FFFFFE" offset="100%"></stop>
        </linearGradient>
    </defs>
    <g id="racing-car-Ferrari-vectorportal" stroke="none" stroke-width="1" fill="none" fill-rule="evenodd">
        <g id="Group-81" transform="translate(2.374875, 0.000000)" fill="#1A1919">
            <path d="M577.654125,42.591 C580.646125,44.951 584.024125,46.362 586.696125,46.362 C587.712125,46.362 589.097125,46.146 589.907125,45.116 C590.783125,44.008 590.763125,42.25 589.849125,40.176 C588.871125,37.954 587.009125,35.685 584.605125,33.787 C581.616125,31.427 578.237125,30.017 575.565125,30.017 C574.548125,30.017 573.165125,30.233 572.353125,31.263 C570.470125,33.648 572.898125,38.836 577.654125,42.591 L577.654125,42.591 Z M571.252125,30.394 C572.170125,29.231 573.663125,28.615 575.565125,28.615 C578.541125,28.615 582.245125,30.136 585.474125,32.687 C588.053125,34.724 590.064125,37.183 591.132125,39.61 C592.266125,42.186 592.222125,44.449 591.008125,45.984 C590.090125,47.148 588.599125,47.764 586.696125,47.764 C583.719125,47.764 580.017125,46.242 576.786125,43.691 C571.250125,39.319 568.816125,33.478 571.252125,30.394 L571.252125,30.394 Z M282.623125,107.146 L280.319125,105.829 L277.121125,106.677 C277.121125,106.677 280.319125,107.91 280.467125,108.283 C281.657125,107.763 282.623125,107.146 282.623125,107.146 L282.623125,107.146 Z M274.073125,110.862 L271.247125,109.251 L267.327125,110.291 C267.327125,110.291 271.247125,111.807 271.430125,112.261 C272.888125,111.622 274.073125,110.862 274.073125,110.862 L274.073125,110.862 Z M265.523125,114.584 L262.177125,112.674 L257.532125,113.904 C257.532125,113.904 262.177125,115.696 262.392125,116.235 C264.119125,115.483 265.523125,114.584 265.523125,114.584 L265.523125,114.584 Z M256.973125,118.301 L253.105125,116.096 L247.738125,117.518 C247.738125,117.518 253.105125,119.59 253.354125,120.215 C255.350125,119.342 256.973125,118.301 256.973125,118.301 L256.973125,118.301 Z M248.423125,122.019 L244.035125,119.519 L237.944125,121.132 C237.944125,121.132 244.035125,123.483 244.317125,124.191 C246.583125,123.2 248.423125,122.019 248.423125,122.019 L248.423125,122.019 Z M239.875125,125.741 L234.963125,122.941 L228.150125,124.746 C228.150125,124.746 234.963125,127.376 235.279125,128.169 C237.815125,127.06 239.875125,125.741 239.875125,125.741 L239.875125,125.741 Z M231.326125,129.46 L225.892125,126.362 L218.355125,128.358 C218.355125,128.358 225.892125,131.271 226.242125,132.147 C229.046125,130.92 231.326125,129.46 231.326125,129.46 L231.326125,129.46 Z M209.067125,141.786 C209.067125,141.786 206.614125,139.216 203.107125,139.216 C200.746125,139.216 192.300125,144.471 187.686125,151.366 C186.212125,153.566 209.067125,141.786 209.067125,141.786 L209.067125,141.786 Z M301.603125,103.813 C284.121125,105.975 229.168125,135.556 205.841125,147.665 L205.848125,147.683 C205.724125,147.738 205.590125,147.802 205.462125,147.86 C203.188125,149.041 201.233125,150.043 199.651125,150.833 C189.363125,156.494 176.319125,165.277 176.159125,165.384 L175.375125,164.224 C175.500125,164.139 183.502125,158.751 191.938125,153.677 C182.026125,155.813 163.153125,156.83 162.565125,152.364 C161.864125,147.045 167.425125,136.398 182.428125,134.658 C214.675125,130.921 281.040125,94.933 301.603125,103.813 L301.603125,103.813 Z M342.246125,178.612 C339.702125,178.612 337.634125,181.285 337.634125,184.569 C337.634125,187.855 339.702125,190.525 342.246125,190.525 C344.790125,190.525 346.859125,187.855 346.859125,184.569 C346.859125,181.285 344.790125,178.612 342.246125,178.612 L342.246125,178.612 Z M330.993125,184.569 C330.993125,190.192 334.629125,194.751 339.118125,194.751 C341.783125,194.751 344.142125,193.136 345.624125,190.651 C344.659125,191.455 343.497125,191.928 342.246125,191.928 C338.930125,191.928 336.231125,188.626 336.231125,184.569 C336.231125,180.512 338.930125,177.21 342.246125,177.21 C343.497125,177.21 344.657125,177.681 345.622125,178.483 C344.139125,176.002 341.783125,174.388 339.118125,174.388 C334.629125,174.388 330.993125,178.947 330.993125,184.569 L330.993125,184.569 Z M331.938125,166.984 C331.705125,167.462 331.481125,167.916 331.268125,168.352 C331.034125,168.774 330.789125,169.156 330.569125,169.529 C330.117125,170.263 329.764125,170.948 329.356125,171.418 C328.607125,172.416 328.178125,173.024 328.178125,173.024 C328.178125,173.024 328.756125,172.601 329.768125,171.795 C330.302125,171.413 330.822125,170.838 331.428125,170.171 C331.730125,169.837 332.067125,169.487 332.397125,169.102 C332.690125,168.691 332.998125,168.26 333.321125,167.809 C333.631125,167.352 334.002125,166.893 334.302125,166.378 C334.594125,165.857 334.898125,165.32 335.210125,164.767 C335.873125,163.67 336.372125,162.434 336.943125,161.17 C337.448125,159.886 337.982125,158.557 338.403125,157.172 C338.796125,155.779 339.245125,154.375 339.551125,152.94 C339.881125,151.509 340.135125,150.063 340.363125,148.638 C340.629125,147.219 340.690125,145.791 340.852125,144.43 C340.928125,143.056 341.022125,141.733 340.992125,140.469 C341.004125,139.208 340.955125,138.017 340.844125,136.918 C340.791125,135.82 340.603125,134.816 340.461125,133.935 C340.342125,133.052 340.070125,132.273 339.926125,131.656 C339.764125,131.038 339.512125,130.601 339.397125,130.278 C339.267125,129.964 339.196125,129.797 339.196125,129.797 C339.196125,129.797 339.216125,129.977 339.251125,130.316 C339.276125,130.656 339.367125,131.157 339.387125,131.785 C339.379125,132.424 339.438125,133.147 339.397125,134.022 C339.359125,134.893 339.343125,135.862 339.242125,136.929 C339.178125,137.992 339.038125,139.139 338.908125,140.353 C338.805125,141.564 338.543125,142.833 338.406125,144.151 C338.174125,145.462 337.965125,146.816 337.694125,148.185 C337.445125,149.556 337.170125,150.942 336.820125,152.313 C336.549125,153.702 336.154125,155.057 335.807125,156.402 C335.406125,157.729 335.049125,159.049 334.631125,160.301 C334.149125,161.524 333.823125,162.777 333.317125,163.869 C332.851125,164.984 332.437125,166.056 331.938125,166.984 L331.938125,166.984 Z M390.765125,178.654 C390.497125,177.386 390.316125,176.224 389.971125,175.223 C389.658125,174.221 389.438125,173.343 389.124125,172.654 C388.541125,171.27 388.188125,170.502 388.188125,170.502 C388.188125,170.502 388.320125,171.354 388.584125,172.799 C388.750125,173.515 388.770125,174.426 388.918125,175.427 C389.079125,176.43 389.056125,177.593 389.166125,178.83 C389.215125,180.075 389.191125,181.43 389.195125,182.85 C389.121125,184.277 389.088125,185.774 388.930125,187.32 C388.845125,188.87 388.559125,190.452 388.377125,192.068 C388.109125,193.673 387.871125,195.314 387.479125,196.92 L386.961125,199.342 C386.745125,200.138 386.531125,200.931 386.319125,201.716 C385.893125,203.287 385.401125,204.813 384.921125,206.291 C384.351125,207.732 383.925125,209.184 383.332125,210.479 C383.059125,211.14 382.791125,211.781 382.532125,212.402 C382.244125,213.01 381.966125,213.598 381.700125,214.161 C381.180125,215.306 380.646125,216.31 380.153125,217.198 C379.676125,218.095 379.254125,218.893 378.841125,219.514 C378.063125,220.779 377.639125,221.522 377.639125,221.522 C377.639125,221.522 378.249125,220.924 379.280125,219.854 C379.808125,219.33 380.396125,218.647 381.029125,217.807 C381.355125,217.392 381.702125,216.951 382.066125,216.487 C382.423125,216.017 382.734125,215.485 383.095125,214.951 C383.446125,214.409 383.812125,213.845 384.190125,213.26 C384.521125,212.649 384.866125,212.018 385.218125,211.369 C385.959125,210.08 386.567125,208.645 387.222125,207.166 C387.543125,206.422 387.804125,205.645 388.104125,204.866 C388.398125,204.09 388.701125,203.301 388.914125,202.479 C389.152125,201.664 389.390125,200.843 389.629125,200.017 L390.222125,197.503 C390.602125,195.82 390.814125,194.103 391.061125,192.427 C391.251125,190.738 391.378125,189.071 391.393125,187.451 C391.489125,185.839 391.355125,184.271 391.288125,182.794 C391.161125,181.317 390.997125,179.926 390.765125,178.654 L390.765125,178.654 Z M375.595125,226.379 C375.528125,226.249 375.467125,226.149 375.401125,226.045 C375.298125,225.906 375.192125,225.764 375.105125,225.665 C374.917125,225.443 374.746125,225.263 374.570125,225.08 C374.222125,224.721 373.876125,224.386 373.529125,224.058 C372.836125,223.401 372.138125,222.772 371.436125,222.149 C370.030125,220.901 368.620125,219.678 367.177125,218.49 C364.302125,216.107 361.420125,213.745 358.477125,211.456 C355.556125,209.142 352.586125,206.886 349.602125,204.652 C346.582125,202.465 343.610125,200.217 340.524125,198.113 C343.224125,200.693 346.023125,203.15 348.758125,205.682 C351.531125,208.17 354.307125,210.652 357.105125,213.103 L365.472125,220.474 L369.614125,224.175 C370.296125,224.795 370.973125,225.418 371.624125,226.048 C371.928125,226.343 372.223125,226.637 372.501125,226.93 L371.247125,228.034 L368.942125,229.743 C368.145125,230.277 367.310125,230.76 366.496125,231.272 C365.675125,231.776 364.790125,232.18 363.940125,232.641 C363.102125,233.123 362.189125,233.467 361.313125,233.886 C360.439125,234.313 359.522125,234.645 358.613125,234.994 C357.709125,235.361 356.792125,235.685 355.856125,235.966 C354.928125,236.266 354.006125,236.597 353.058125,236.833 C352.111125,237.078 351.179125,237.389 350.217125,237.573 C349.261125,237.774 348.309125,238.017 347.343125,238.182 C346.378125,238.343 345.415125,238.544 344.444125,238.673 C343.471125,238.779 342.497125,238.926 341.519125,239.002 C340.544125,239.057 339.559125,239.176 338.579125,239.186 C337.602125,239.164 336.607125,239.254 335.632125,239.139 C334.649125,239.078 333.666125,239.001 332.712125,238.794 C331.728125,238.697 330.779125,238.34 329.820125,238.075 C330.734125,238.479 331.604125,238.963 332.591125,239.212 C333.559125,239.536 334.551125,239.724 335.544125,239.894 C336.536125,240.12 337.544125,240.14 338.550125,240.27 C339.557125,240.367 340.565125,240.358 341.579125,240.407 C342.588125,240.407 343.595125,240.338 344.609125,240.307 C345.617125,240.252 346.618125,240.125 347.627125,240.037 C348.636125,239.942 349.625125,239.734 350.628125,239.587 C351.633125,239.451 352.611125,239.187 353.605125,238.99 C354.600125,238.793 355.578125,238.522 356.552125,238.244 C357.534125,237.984 358.502125,237.68 359.456125,237.329 C360.417125,236.997 361.385125,236.683 362.317125,236.269 C363.252125,235.86 364.220125,235.533 365.125125,235.05 C366.031125,234.574 366.965125,234.157 367.848125,233.631 C368.724125,233.095 369.619125,232.589 370.480125,232.025 L372.991125,230.208 L375.334125,228.142 L375.366125,228.113 L375.412125,228.058 C375.563125,227.879 375.699125,227.608 375.741125,227.334 C375.764681,227.198 375.770125,227.063 375.759125,226.943 L375.737125,226.809 C375.706125,226.662 375.657125,226.516 375.595125,226.379 L375.595125,226.379 Z M363.340125,225.79 C358.418125,218.029 338.727125,202.22 338.727125,202.22 C338.727125,202.22 326.771125,230.032 325.367125,233.827 C338.963125,238.01 355.683125,235.875 363.340125,225.79 L363.340125,225.79 Z M300.751125,177.291 C299.346125,182.724 300.284125,212.21 315.754125,227.147 C320.208125,212.017 320.962125,195.455 318.729125,191.648 C314.582125,184.569 300.751125,177.291 300.751125,177.291 L300.751125,177.291 Z M334.508125,133.062 C328.178125,132.402 308.189125,147.043 302.861125,168.272 C311.536125,171.181 320.678125,171.665 320.678125,171.665 C320.678125,171.665 335.915125,161.192 334.508125,133.062 L334.508125,133.062 Z M351.418125,130.244 L352.959125,130.893 C353.981125,131.321 355.015125,131.713 356.019125,132.168 L358.940125,133.724 C359.937125,134.193 360.831125,134.848 361.752125,135.445 C362.656125,136.071 363.626125,136.586 364.468125,137.303 L367.068125,139.316 L369.517125,141.512 C370.359125,142.212 371.087125,143.043 371.865125,143.814 L373.014125,144.986 L374.095125,146.231 C374.805125,147.065 375.569125,147.853 376.226125,148.734 C376.897125,149.604 377.618125,150.432 378.242125,151.336 C378.870125,152.236 379.546125,153.106 380.134125,154.032 C380.726125,154.954 381.370125,155.848 381.925125,156.794 C382.512125,157.723 383.064125,158.67 383.596125,159.627 C383.884125,160.146 384.164125,160.675 384.437125,161.203 L377.650125,163.595 L369.447125,166.595 C363.997125,168.652 358.558125,170.742 353.181125,173.024 C358.851125,171.62 364.454125,170.023 370.050125,168.397 L378.411125,165.867 L386.739125,163.242 L388.167125,162.794 L387.546125,161.425 C387.049125,160.33 386.538125,159.332 385.995125,158.318 C385.450125,157.315 384.888125,156.321 384.290125,155.35 C383.719125,154.361 383.079125,153.416 382.451125,152.465 C381.829125,151.51 381.117125,150.614 380.455125,149.689 C379.792125,148.76 379.035125,147.904 378.329125,147.011 C377.630125,146.108 376.837125,145.283 376.069125,144.44 L374.900125,143.189 L373.660125,142.008 C372.821125,141.231 372.037125,140.401 371.131125,139.698 C370.251125,138.97 369.371125,138.24 368.473125,137.536 L365.645125,135.602 C364.727125,134.924 363.695125,134.413 362.702125,133.855 C361.697125,133.316 360.724125,132.722 359.653125,132.317 L356.508125,130.994 C355.430125,130.638 354.328125,130.344 353.247125,130.02 L351.617125,129.56 L349.940125,129.29 L346.605125,128.794 L349.820125,129.775 L351.418125,130.244 Z M380.939125,171.665 C375.313125,173.476 353.181125,184.83 353.181125,184.83 L353.181125,190.872 L370.998125,215.703 C370.998125,215.703 385.317125,201.151 380.939125,171.665 L380.939125,171.665 Z M346.605125,133.062 L346.605125,170.502 C351.385125,169.725 377.639125,162.159 377.639125,162.159 C373.420125,151.782 364.561125,139.286 346.605125,133.062 L346.605125,133.062 Z M737.653125,136.736 C735.879125,136.736 734.381125,139.171 734.381125,142.051 C734.381125,144.932 735.879125,147.364 737.653125,147.364 C739.429125,147.364 740.925125,144.932 740.925125,142.051 C740.925125,139.171 739.429125,136.736 737.653125,136.736 L737.653125,136.736 Z M729.240125,142.051 C729.240125,147.132 731.959125,151.249 735.313125,151.249 C737.227125,151.249 738.931125,149.911 740.044125,147.819 C739.348125,148.408 738.538125,148.768 737.653125,148.768 C735.031125,148.768 732.979125,145.816 732.979125,142.051 C732.979125,138.286 735.031125,135.334 737.653125,135.334 C738.538125,135.334 739.348125,135.694 740.044125,136.282 C738.931125,134.191 737.227125,132.852 735.313125,132.852 C731.959125,132.852 729.240125,136.972 729.240125,142.051 L729.240125,142.051 Z M730.837125,123.064 C730.480125,124.068 730.233125,125.07 729.869125,125.927 C729.523125,126.797 729.248125,127.624 728.894125,128.298 C728.549125,128.973 728.331125,129.638 728.017125,130.087 C727.453125,131.037 727.137125,131.62 727.137125,131.62 C727.137125,131.62 727.621125,131.21 728.462125,130.421 C728.914125,130.046 729.307125,129.48 729.812125,128.856 C730.343125,128.239 730.810125,127.474 731.316125,126.626 C731.867125,125.796 732.302125,124.829 732.793125,123.811 C733.280125,122.791 733.688125,121.683 734.121125,120.529 C734.467125,119.359 734.932125,118.172 735.206125,116.92 C735.513125,115.674 735.822125,114.409 736.055125,113.131 C736.296125,111.853 736.456125,110.562 736.628125,109.297 C736.801125,108.03 736.849125,106.77 736.941125,105.558 C736.991125,104.338 737.028125,103.163 736.987125,102.045 C736.982125,100.929 736.910125,99.874 736.808125,98.9 C736.749125,97.928 736.576125,97.037 736.451125,96.255 C736.338125,95.473 736.113125,94.782 735.986125,94.234 C735.847125,93.684 735.640125,93.287 735.543125,92.998 C735.432125,92.717 735.372125,92.566 735.372125,92.566 C735.372125,92.566 735.416125,93.217 735.442125,94.341 C735.418125,94.907 735.434125,95.556 735.389125,96.332 C735.331125,97.104 735.299125,97.965 735.204125,98.911 C735.135125,99.856 735.017125,100.875 734.900125,101.952 C734.812125,103.029 734.600125,104.162 734.487125,105.33 C734.132125,107.665 733.807125,110.16 733.300125,112.619 C732.898125,115.1 732.282125,117.524 731.759125,119.814 C731.408125,120.927 731.173125,122.047 730.837125,123.064 L730.837125,123.064 Z M772.226125,131.405 C772.330125,132.048 772.319125,132.858 772.407125,133.754 C772.503125,134.653 772.463125,135.686 772.521125,136.79 C772.546125,137.898 772.492125,139.105 772.492125,140.368 C772.409125,141.637 772.384125,142.969 772.254125,144.345 C772.180125,145.725 771.971125,147.138 771.825125,148.578 C771.653125,150.014 771.435125,151.473 771.175125,152.918 C770.937125,154.37 770.677125,155.818 770.341125,157.227 C770.050125,158.647 769.677125,160.022 769.356125,161.365 C768.935125,162.676 768.646125,163.989 768.225125,165.184 C767.818125,166.384 767.471125,167.537 767.058125,168.566 C766.676125,169.615 766.313125,170.564 765.946125,171.384 C765.590125,172.211 765.304125,172.961 764.994125,173.546 C764.421125,174.739 764.116125,175.436 764.116125,175.436 C764.116125,175.436 764.618125,174.867 765.461125,173.847 C765.894125,173.348 766.358125,172.691 766.875125,171.909 C767.135125,171.521 767.413125,171.106 767.706125,170.669 C767.962125,170.215 768.230125,169.738 768.511125,169.239 C769.099125,168.249 769.637125,167.132 770.173125,165.93 C770.737125,164.74 771.208125,163.436 771.710125,162.091 C772.118125,160.719 772.658125,159.326 772.972125,157.853 C773.354125,156.396 773.656125,154.896 773.938125,153.391 C774.183125,151.881 774.371125,150.362 774.517125,148.864 C774.668125,147.364 774.716125,145.882 774.720125,144.447 C774.782125,143.017 774.644125,141.625 774.585125,140.317 C774.460125,139.007 774.331125,137.771 774.126125,136.641 C773.910125,135.513 773.744125,134.481 773.468125,133.585 C773.213125,132.69 773.025125,131.905 772.771125,131.283 C772.295125,130.033 772.002125,129.342 772.002125,129.342 C772.002125,129.342 772.070125,130.106 772.226125,131.405 L772.226125,131.405 Z M762.974125,179.914 C762.903125,179.731 762.878125,179.695 762.820125,179.584 C762.741125,179.441 762.662125,179.316 762.596125,179.223 C762.456125,179.02 762.327125,178.855 762.196125,178.691 C761.936125,178.365 761.678125,178.064 761.421125,177.768 C760.903125,177.178 760.381125,176.61 759.856125,176.047 C758.804125,174.926 757.754125,173.816 756.672125,172.737 C754.499125,170.59 752.341125,168.438 750.103125,166.368 C745.662125,162.192 741.121125,158.129 736.366125,154.288 C740.307125,158.96 744.415125,163.453 748.554125,167.907 L754.762125,174.574 L757.841125,177.9 L759.321125,179.578 C759.533125,179.828 759.738125,180.081 759.934125,180.325 L759.122125,181.204 C758.609125,181.713 758.044125,182.176 757.509125,182.667 C756.976125,183.162 756.354125,183.557 755.779125,184.009 C755.212125,184.47 754.561125,184.822 753.953125,185.235 C753.348125,185.655 752.704125,186.014 752.054125,186.365 C751.410125,186.729 750.762125,187.083 750.081125,187.378 C749.408125,187.686 748.746125,188.024 748.047125,188.28 C747.357125,188.548 746.680125,188.87 745.970125,189.096 C745.265125,189.324 744.563125,189.586 743.848125,189.793 L741.685125,190.38 L739.494125,190.85 L737.272125,191.174 C736.530125,191.229 735.781125,191.32 735.031125,191.351 C734.290125,191.332 733.526125,191.399 732.784125,191.318 C732.035125,191.268 731.283125,191.211 730.561125,191.034 C729.810125,190.949 729.089125,190.629 728.364125,190.392 C729.039125,190.759 729.668125,191.195 730.422125,191.433 C731.155125,191.741 731.917125,191.914 732.679125,192.087 C733.442125,192.297 734.224125,192.314 735.001125,192.433 C735.783125,192.501 736.563125,192.505 737.352125,192.544 L739.697125,192.442 L742.035125,192.179 C743.582125,191.936 745.116125,191.599 746.632125,191.178 C747.396125,190.99 748.130125,190.706 748.884125,190.473 C749.639125,190.246 750.354125,189.911 751.086125,189.616 C751.821125,189.33 752.531125,188.985 753.237125,188.625 C753.951125,188.28 754.656125,187.923 755.331125,187.5 C756.013125,187.09 756.709125,186.706 757.343125,186.215 C757.979125,185.734 758.657125,185.311 759.259125,184.775 C759.859125,184.243 760.483125,183.739 761.065125,183.18 L762.733125,181.423 L762.762125,181.393 L762.801125,181.334 C762.911125,181.175 763.005125,180.967 763.046125,180.751 C763.092125,180.561 763.067125,180.252 763.059125,180.261 C763.040125,180.145 763.011125,180.026 762.974125,179.914 L762.974125,179.914 Z M753.425125,179.291 C749.744125,172.28 735.023125,157.998 735.023125,157.998 C735.023125,157.998 726.084125,183.125 725.033125,186.554 C735.197125,190.333 747.699125,188.402 753.425125,179.291 L753.425125,179.291 Z M706.632125,135.476 C705.581125,140.383 706.279125,167.023 717.847125,180.519 C721.178125,166.848 721.739125,151.886 720.073125,148.445 C716.971125,142.051 706.632125,135.476 706.632125,135.476 L706.632125,135.476 Z M731.867125,95.517 C726.261125,96.393 711.128125,106.891 708.208125,127.326 C714.693125,129.955 721.527125,130.393 721.527125,130.393 C721.527125,130.393 732.920125,120.929 731.867125,95.517 L731.867125,95.517 Z M760.179125,102.163 C759.519125,101.495 758.853125,100.833 758.173125,100.188 C757.524125,99.514 756.757125,98.954 756.041125,98.354 C755.315125,97.758 754.604125,97.15 753.798125,96.661 C753.005125,96.152 752.238125,95.616 751.431125,95.146 L748.921125,93.883 C748.108125,93.424 747.174125,93.217 746.311125,92.88 C745.431125,92.572 744.560125,92.266 743.634125,92.138 L740.914125,91.661 L743.482125,92.626 C744.352125,92.885 745.149125,93.336 745.953125,93.748 C746.740125,94.185 747.591125,94.482 748.316125,95.032 L750.565125,96.496 C751.284125,97.023 751.963125,97.613 752.660125,98.164 C753.376125,98.693 754.019125,99.317 754.661125,99.935 C755.299125,100.558 755.978125,101.13 756.550125,101.82 L758.352125,103.797 L760.025125,105.887 C760.595125,106.569 761.067125,107.337 761.602125,108.05 C762.144125,108.76 762.629125,109.512 763.113125,110.264 C763.611125,111.006 764.092125,111.76 764.533125,112.54 C764.994125,113.309 765.442125,114.085 765.865125,114.874 C766.307125,115.652 766.734125,116.44 767.135125,117.241 C767.757125,118.447 768.327125,119.698 768.858125,120.936 C765.177125,122.505 761.510125,124.106 757.872125,125.772 C753.824125,127.636 749.792125,129.545 745.830125,131.62 C750.125125,130.365 754.351125,128.945 758.560125,127.48 C762.764125,126.005 766.939125,124.452 771.099125,122.862 L772.298125,122.404 L771.850125,121.176 C771.188125,119.359 770.426125,117.692 769.598125,116.008 C768.785125,114.33 767.896125,112.691 766.904125,111.109 C766.433125,110.306 765.922125,109.524 765.389125,108.756 C764.871125,107.979 764.352125,107.204 763.775125,106.468 C763.196125,105.731 762.659125,104.968 762.030125,104.271 L760.179125,102.163 Z M766.584125,130.393 C762.378125,132.029 745.830125,142.288 745.830125,142.288 L745.830125,147.746 L759.149125,170.18 C759.149125,170.18 769.856125,157.033 766.584125,130.393 L766.584125,130.393 Z M740.914125,95.517 L740.914125,129.342 C744.487125,128.639 764.116125,121.806 764.116125,121.806 C760.962125,112.43 754.338125,101.139 740.914125,95.517 L740.914125,95.517 Z M789.928125,70.209 C786.444125,74.704 779.292125,82.34 773.543125,86.773 L773.490125,86.819 L773.486125,86.814 C772.185125,87.813 770.957125,88.65 769.860125,89.247 C770.360125,89.879 770.846125,90.528 771.304125,91.194 C785.719125,112.088 786.405125,138.206 782.625125,153.123 C784.637125,150.678 786.211125,148.574 786.724125,147.517 C787.944125,142.083 788.931125,100.165 788.931125,75.186 L788.931125,74.108 L789.332125,73.104 C789.731125,72.105 789.893125,71.131 789.928125,70.209 L789.928125,70.209 Z M682.743125,184.672 C682.824125,167.454 683.735125,146.388 689.076125,126.737 C665.899125,134.812 534.292125,180.032 493.132125,180.032 C491.479125,180.032 489.976125,179.958 488.626125,179.809 C457.239125,176.288 433.313125,152.526 413.896125,131.782 C410.160125,134.614 401.435125,135.738 396.045125,136.169 C400.900125,143.561 404.744125,152.938 406.760125,164.803 C410.624125,187.543 403.847125,207.784 399.305125,218.677 L637.278125,190.126 C636.543125,189.998 635.791125,189.869 635.016125,189.735 C632.373125,189.216 629.466125,188.907 626.399125,188.525 C624.868125,188.306 623.280125,188.222 621.664125,188.082 C620.042125,187.97 618.390125,187.785 616.701125,187.723 C613.327125,187.58 609.837125,187.401 606.283125,187.416 C602.732125,187.337 599.122125,187.469 595.509125,187.523 C591.898125,187.688 588.286125,187.791 584.734125,188.049 C581.184125,188.251 577.689125,188.536 574.310125,188.812 C567.550125,189.393 561.248125,190.037 555.850125,190.627 C545.053125,191.816 537.854125,192.61 537.854125,192.61 L555.797125,190.192 C561.184125,189.471 567.469125,188.674 574.225125,187.928 C577.602125,187.57 581.094125,187.198 584.651125,186.911 C588.205125,186.566 591.829125,186.376 595.448125,186.123 C599.074125,185.979 602.699125,185.759 606.277125,185.752 C609.853125,185.651 613.375125,185.747 616.784125,185.807 C618.490125,185.831 620.164125,185.975 621.805125,186.049 C623.444125,186.151 625.052125,186.198 626.609125,186.383 C629.726125,186.692 632.681125,186.937 635.383125,187.397 C636.736125,187.598 638.036125,187.791 639.273125,187.975 C640.498125,188.222 641.659125,188.455 642.752125,188.676 C643.613125,188.851 644.419125,189.015 645.189125,189.177 L682.743125,184.672 Z M74.1681251,227.154 C80.9651251,228.978 92.3511251,230.691 106.115125,232.19 C123.032125,231.848 140.731125,230.471 142.000125,226.027 C92.5191251,223.281 44.3221251,218.549 40.1161251,211.189 C40.0231251,211.026 39.9341251,210.75 39.8471251,210.386 L17.6791251,215.301 L17.6821251,215.395 L17.4861251,215.342 L17.4561251,215.35 L17.4511251,215.333 C8.65112512,213.207 8.23212512,207.709 10.3251251,202.745 C7.64012512,205.617 5.93012512,208.389 5.64712512,210.536 C5.50012512,211.658 5.75412512,212.485 6.52812512,213.392 C7.10312512,214.067 10.9241251,217.629 29.5621251,221.36 C44.2941251,224.31 61.4031251,226.044 73.1601251,226.98 L73.6711251,227.021 L74.1681251,227.154 Z M14.7471251,169.538 C26.1121251,162.416 53.1271251,149.252 87.1131251,135.446 C84.1611251,135.116 77.0761251,134.141 70.0271251,131.795 C69.9701251,131.136 70.0471251,130.469 70.2361251,129.797 C54.2791251,137.828 28.9621251,151.007 15.4191251,160.312 C15.3921251,160.912 15.3691251,161.516 15.3461251,162.124 L15.3421251,162.214 L15.2411251,164.832 L13.1681251,166.437 C12.7791251,166.74 12.3561251,167.123 11.9771251,167.502 C12.7501251,168.138 13.7391251,168.865 14.7471251,169.538 L14.7471251,169.538 Z M15.6391251,156.783 C31.0541251,146.566 58.4541251,132.529 73.2251251,125.164 C85.8991251,112.162 131.777125,99.023 131.777125,99.023 C131.777125,99.023 118.983125,105.33 119.509125,106.209 C119.732125,106.582 121.888125,109.235 124.130125,112.175 C138.495125,103.045 173.162125,85.364 180.645125,81.568 C181.484125,81.036 182.397125,80.518 183.229125,80.07 C173.900125,77.309 164.307125,75.911 154.600125,75.911 C113.296125,75.909 77.2141251,100.49 54.5941251,117.783 L131.777125,96.218 L49.2821251,121.889 C48.3511251,122.617 47.4401251,123.327 46.5681251,124.011 L44.0321251,125.995 L43.5491251,126.371 L42.9971251,126.635 C20.1991251,137.498 16.5181251,146.748 15.6391251,156.783 L15.6391251,156.783 Z M213.845125,74.062 C213.743125,74.363 213.689125,74.554 213.692007,74.535 L216.419125,75.185 C216.428125,75.16 216.461125,74.888 216.596125,74.328 C216.724125,73.771 216.944125,72.969 217.269125,72.022 C217.562125,71.177 217.961125,70.212 218.445125,69.217 C218.503125,69.096 218.547125,68.983 218.610125,68.863 C218.887125,68.296 219.226125,67.742 219.557125,67.165 C219.937125,66.628 220.269125,66.027 220.702125,65.515 C221.120125,64.984 221.531125,64.442 222.010125,63.978 C222.240125,63.735 222.469125,63.496 222.695125,63.258 C222.946125,63.045 223.190125,62.835 223.433125,62.628 C223.904125,62.191 224.405125,61.83 224.903125,61.513 C225.383125,61.17 225.853125,60.865 226.322125,60.649 C226.783125,60.416 227.200125,60.181 227.585125,60.009 C227.982125,59.861 228.329125,59.735 228.612125,59.628 C229.186125,59.417 229.516125,59.296 229.516125,59.296 C229.516125,59.296 229.174125,59.376 228.578125,59.515 C228.279125,59.584 227.915125,59.669 227.497125,59.766 C227.087125,59.89 226.640125,60.073 226.139125,60.253 C225.628125,60.414 225.112125,60.663 224.573125,60.952 C224.018125,61.216 223.450125,61.527 222.904125,61.916 C222.622125,62.103 222.336125,62.292 222.045125,62.482 C221.779125,62.698 221.506125,62.921 221.233125,63.145 C220.665125,63.574 220.158125,64.087 219.645125,64.595 C219.112125,65.089 218.683125,65.67 218.201125,66.198 C217.773125,66.765 217.334125,67.316 216.961125,67.886 C216.196125,69.012 215.573125,70.125 215.089125,71.105 C214.606125,72.087 214.254125,72.934 214.030125,73.547 C213.954125,73.745 213.896125,73.913 213.845125,74.062 L213.845125,74.062 Z M243.653125,51.622 L247.342125,49.926 C247.371125,49.855 252.207125,40.237 253.000125,32.073 L249.787125,32.483 C245.770125,34.101 238.803125,38.558 234.889125,42.296 C232.902125,43.874 240.134125,50.13 243.653125,51.622 L243.653125,51.622 Z M603.741125,151.628 C601.371125,152.155 599.612125,152.451 598.846125,152.389 C594.255125,152.018 586.578125,147.394 580.970125,142.288 C579.855125,141.275 579.095125,139.803 578.605125,138.009 C572.478125,139.238 565.313125,140.651 557.549125,142.168 C557.625125,151.132 560.403125,158.578 569.511125,161.658 C580.831125,158.496 592.423125,155.08 603.741125,151.628 L603.741125,151.628 Z M451.845125,162.368 C462.966125,169.901 475.252125,175.487 488.938125,177.022 C502.532125,178.545 533.514125,171.632 567.255125,162.285 C558.975125,158.656 556.346125,151.139 556.198125,142.43 C516.939125,150.089 463.401125,160.191 451.845125,162.368 L451.845125,162.368 Z M451.021125,161.809 C460.939125,159.941 516.074125,149.543 556.198125,141.716 C556.186125,134.572 557.747125,126.699 559.170125,119.563 C560.746125,111.654 562.214125,104.196 561.382125,99.232 C554.290125,96.803 547.235125,94.888 540.438125,93.767 C517.712125,90.03 410.126125,108.532 397.573125,110.718 C402.081125,114.989 406.919125,120.179 411.991125,125.63 C423.249125,137.728 436.076125,151.502 451.021125,161.809 L451.021125,161.809 Z M96.9931251,115.215 C98.7151251,118.062 101.807125,124.014 101.648125,129.673 C109.645125,126.567 117.928125,123.471 126.404125,120.439 C119.338125,119.343 101.347125,115.761 96.9931251,115.215 L96.9931251,115.215 Z M432.021125,64.328 C431.963125,65.105 431.137125,65.347 428.688125,66.06 C424.737125,67.213 417.427125,69.344 413.769125,74.194 C413.807125,74.945 414.292125,76.233 414.944125,76.931 C415.131125,77.132 415.414125,77.372 415.692125,77.372 C415.988125,77.372 416.343125,77.08 416.691125,76.552 C422.541125,67.72 434.822125,66.811 435.339125,66.777 L435.455125,66.77 L435.564125,66.798 C435.685125,66.83 447.472125,69.904 457.710125,69.904 C466.427125,69.904 471.358125,67.764 472.363125,63.544 C473.040125,60.71 472.273125,57.869 470.087125,55.099 C464.523125,48.051 452.234125,43.991 449.349125,43.991 C445.223125,43.991 431.034125,56.736 430.589125,59.861 C430.565125,60.033 430.521125,60.233 430.472125,60.455 C430.171125,61.8 430.063125,62.798 431.377125,63.404 C431.978125,63.68 432.039125,64.102 432.021125,64.328 L432.021125,64.328 Z M581.714125,83.747 C581.350125,78.35 577.107125,75.481 571.238125,71.509 C563.811125,66.488 553.689125,59.619 547.163125,43.583 C539.868125,49.958 530.169125,56.72 516.825125,62.451 C485.690125,75.823 407.863125,86.054 397.347125,86.287 C386.505125,86.527 375.049125,86.794 363.292125,87.067 L363.799125,87.567 L359.751125,91.655 C373.149125,93.695 387.492125,101.792 394.361125,107.779 C394.999125,108.334 395.646125,108.919 396.298125,109.52 C403.063125,108.322 516.603125,88.408 540.665125,92.382 C553.979125,94.577 568.256125,99.768 581.849125,105.955 C582.107125,101.327 582.352125,93.206 581.714125,83.747 L581.714125,83.747 Z M581.607125,110.057 L581.558125,110.052 C581.562125,110.02 581.653125,109.076 581.760125,107.453 C575.551125,104.614 569.201125,101.982 562.862125,99.748 C563.489125,104.937 562.072125,112.175 560.545125,119.835 C559.110125,127.042 557.599125,134.652 557.551125,141.452 C565.252125,139.947 572.359125,138.546 578.447125,137.326 C576.952125,130.692 578.877125,120.034 581.607125,110.057 L581.607125,110.057 Z M398.945125,16.946 L398.747125,17.62 C406.534125,19.914 426.869125,26.976 429.542125,32.615 C425.931125,36.377 392.646125,71.171 385.480125,82.127 C385.360125,82.312 385.227125,82.506 385.123125,82.678 L386.314125,83.415 C386.573125,82.996 386.893125,82.524 387.241125,82.025 C395.823125,69.706 430.504125,33.637 430.866125,33.259 L431.161125,32.954 L431.117125,32.823 C432.486125,29.659 432.048125,17.731 430.903125,10.979 C430.587125,9.116 430.216125,7.643 429.815125,6.866 L428.570125,7.506 C428.936125,8.216 429.264125,9.495 429.540125,11.112 C430.541125,16.898 430.921125,27.025 430.183125,31.026 C425.417125,24.672 405.287125,18.162 400.254125,16.613 C399.656125,16.428 399.260125,16.311 399.141125,16.276 L398.945125,16.946 Z M179.252125,85.427 C168.423125,90.953 138.724125,106.261 125.815125,114.427 C127.268125,116.408 128.549125,118.289 129.106125,119.477 C166.698125,106.156 207.791125,94.254 244.032125,88.976 C210.658125,88.976 185.444125,88.087 179.252125,85.427 L179.252125,85.427 Z M99.5291251,130.393 L98.2681251,130.99 C98.9131251,130.737 99.5661251,130.483 100.216125,130.231 C100.645125,124.474 97.0621251,117.989 95.4791251,115.445 C92.9251251,117.208 89.0131251,126.962 89.0131251,127.702 C89.0131251,128.518 99.5291251,130.393 99.5291251,130.393 L99.5291251,130.393 Z M17.6241251,213.875 L39.5891251,209.004 C38.7721251,203.67 38.1931251,190.475 37.8941251,182.166 L18.8001251,175.207 L18.6751251,175.203 L21.0381251,194.106 L18.2321251,196.039 C17.6391251,196.449 17.0651251,196.866 16.5021251,197.287 C16.8251251,201.398 17.4131251,209.161 17.6241251,213.875 L17.6241251,213.875 Z M394.764125,187.885 C395.941125,172.149 391.994125,156.99 383.650125,145.199 C375.363125,133.489 363.730125,126.512 350.890125,125.553 C349.890125,125.478 348.875125,125.44 347.876125,125.44 C322.354125,125.44 300.548125,149.697 298.231125,180.664 C295.810125,213.045 315.492125,241.008 342.105125,242.999 C343.105125,243.072 344.120125,243.11 345.120125,243.11 C370.641125,243.11 392.448125,218.852 394.764125,187.885 L394.764125,187.885 Z M400.863125,132.679 L400.599125,132.851 C405.356125,132.213 409.973125,131.187 411.996125,129.75 C411.305125,129.008 410.618125,128.272 409.938125,127.539 C403.694125,120.83 397.794125,114.49 392.520125,109.895 C385.641125,103.899 370.992125,95.712 357.765125,94.227 C232.565125,87.504 145.236125,152.023 129.628125,165.337 L129.628125,164.27 C139.281125,156.036 166.168125,135.006 207.244125,117.6 C254.867125,97.417 306.522125,88.104 358.264125,91.164 L362.296125,87.09 C325.861125,87.933 286.623125,88.801 253.732125,88.952 L253.750125,89.116 C167.669125,99.009 48.2181251,151.121 17.2561251,169.646 C23.3491251,169.885 36.9211251,170.419 54.8391251,171.124 C67.1671251,171.61 81.5451251,172.166 96.9441251,172.467 C104.642125,172.588 112.598125,172.691 120.673125,172.578 C128.743125,172.457 136.944125,172.211 145.083125,171.497 C147.104125,171.275 149.153125,171.106 151.153125,170.844 C153.188125,170.559 155.221125,170.273 157.249125,169.988 C161.276125,169.35 165.291125,168.724 169.277125,168.017 C177.250125,166.649 185.080125,165.173 192.656125,163.742 C207.803125,160.842 221.915125,157.986 234.004125,155.506 C258.180125,150.529 274.264125,147.043 274.264125,147.043 C274.264125,147.043 258.259125,150.868 234.188125,156.358 C222.152125,159.095 208.101125,162.25 193.006125,165.473 C185.455125,167.065 177.651125,168.71 169.685125,170.248 C165.713125,171.041 161.676125,171.762 157.622125,172.491 C155.600125,172.819 153.571125,173.147 151.543125,173.474 C149.473125,173.791 147.424125,174.005 145.363125,174.275 C138.048125,175.075 130.727125,175.49 123.492125,175.781 C140.907125,175.75 143.440125,181.442 145.638125,184.274 C149.669125,189.474 178.945125,228.696 178.945125,228.696 C229.131125,237.67 258.962125,230.762 272.019125,226.021 L272.506125,225.375 C271.852125,216.586 271.233125,193.184 279.872125,167.373 C291.557125,132.464 317.610125,112.225 347.561125,110.706 C358.798125,110.138 380.027125,114.35 394.175125,133.489 C395.812125,133.381 397.587125,133.224 399.387125,133.008 C389.444125,118.044 373.746125,107.738 357.274125,105.415 C321.170125,100.313 279.008125,126.042 268.277125,185.063 L266.899125,184.811 C271.918125,157.202 283.992125,134.901 301.819125,120.315 C318.049125,107.037 337.812125,101.25 357.471125,104.026 C374.499125,106.43 390.720125,117.141 400.863125,132.679 L400.863125,132.679 Z M620.314125,37.363 C604.432125,33.281 585.916125,28.524 565.886125,23.956 C562.076125,27.7 556.959125,34.796 548.271125,42.601 C554.627125,58.571 564.265125,65.103 572.022125,70.348 C577.990125,74.385 582.704125,77.571 583.114125,83.653 C583.782125,93.56 583.487125,102.019 583.217125,106.582 C601.876125,115.19 619.137125,125.568 630.704125,132.526 C635.980125,135.699 640.366125,138.338 642.577125,139.373 C659.906125,133.74 674.332125,128.843 682.920125,125.892 C683.613125,121.539 684.882125,116.494 686.846125,111.205 C670.322125,101.792 636.770125,79.515 631.188125,64.087 C627.308125,53.354 645.445125,48.13 660.308125,46.371 C658.894125,46.347 657.899125,46.334 657.430125,46.328 L656.875125,46.321 L656.333125,46.204 C646.862125,44.19 634.560125,41.026 620.314125,37.363 L620.314125,37.363 Z M772.664125,85.693 C770.203125,82.508 755.333125,64.537 736.154125,68.282 C701.771125,74.974 687.664125,106.425 684.421125,125.374 C686.936125,124.509 688.840125,123.848 690.021125,123.434 C692.465125,115.296 695.713125,107.453 700.042125,100.3 C720.433125,66.599 753.374125,69.957 768.937125,88.148 C770.042125,87.58 771.300125,86.748 772.664125,85.693 L772.664125,85.693 Z M778.948125,142.653 C779.248125,111.652 762.465125,86.35 741.460125,86.144 C720.453125,85.939 703.179125,110.909 702.880125,141.916 C702.580125,172.922 719.358125,198.225 740.363125,198.431 C750.686125,198.532 760.098125,192.546 767.047125,182.764 C771.549125,176.424 775.017125,168.493 777.018125,159.574 C778.215125,154.24 778.892125,148.557 778.948125,142.653 L778.948125,142.653 Z M723.486125,48.997 C708.744125,47.965 693.939125,47.321 682.060125,46.926 C675.525125,48.103 668.365125,49.476 662.376125,50.651 C648.807125,54.701 633.628125,59.328 633.628125,59.328 C632.608125,66.262 650.442125,87.838 686.913125,111.016 C693.655125,92.983 708.447125,72.248 735.887125,66.905 C755.569125,63.081 770.789125,81.024 773.678125,84.715 C778.643125,79.374 780.337125,65.114 780.881125,58.187 C779.411125,56.97 770.804125,52.311 723.486125,48.997 L723.486125,48.997 Z M784.240125,60.629 L782.139125,60.075 C781.593125,66.101 780.287125,75.532 777.256125,81.76 C782.382125,77.011 787.619125,71.13 789.769125,68.075 C789.537125,66.857 789.124125,65.821 788.771125,65.117 C787.458125,62.509 785.501125,60.963 784.240125,60.629 L784.240125,60.629 Z M794.539125,75.186 C794.539125,94.466 793.735125,145.291 791.983125,149.497 C790.229125,153.703 779.716125,164.92 779.716125,164.92 C778.953125,174.618 768.838125,201.549 740.455125,208.969 C739.328125,209.251 737.832125,209.377 736.067125,209.377 C723.919125,209.377 699.058125,203.398 694.720125,200.907 C687.839125,196.956 685.073125,190.04 685.073125,190.04 L397.777125,224.508 C378.718125,252.729 352.908125,255.421 336.451125,255.421 C334.648125,255.421 332.956125,255.388 331.399125,255.354 C315.625125,255.004 293.952125,247.993 289.687125,245.451 C285.647125,243.045 276.717125,234.061 275.667125,230.467 C275.667125,230.467 268.305125,238.879 237.811125,242.385 C231.431125,243.118 221.762125,243.453 210.184125,243.453 C166.410125,243.453 95.4441251,238.669 72.7141251,232.57 C41.8691251,230.116 9.03712512,224.977 2.26012512,217.031 C-4.51687488,209.085 5.18112512,198.219 15.0511251,191.422 L13.0091251,175.086 C13.0091251,175.086 6.46612512,171.112 5.53312512,168.542 C4.59712512,165.973 9.73812512,161.999 9.73812512,161.999 C10.2271251,149.234 10.6821251,136.185 39.4021251,122.152 L39.3681251,122.039 L39.9801251,121.869 C40.1841251,121.77 40.3761251,121.671 40.5841251,121.572 C61.3001251,105.418 104.099125,70.299 154.600125,70.302 C167.428125,70.302 180.759125,72.571 194.344125,77.99 C194.344125,77.99 202.321125,74.388 207.705125,74.388 C207.870125,74.388 208.032125,74.392 208.190125,74.398 C210.250125,70.052 217.673125,56.587 241.810125,56.59 C242.336125,56.59 242.875125,56.595 243.418125,56.608 C243.418125,56.608 236.408125,50.768 235.181125,49.014 C233.603125,47.611 230.602125,44.967 230.099125,43.464 C229.351125,41.236 246.613125,28.702 254.285125,28.703 C255.194125,28.703 255.969125,28.878 256.563125,29.269 C256.914125,41.361 252.532125,52.052 252.532125,52.052 C272.628125,41.887 330.359125,11.357 387.832125,2.864 C401.313125,0.871 415.413125,0 429.838125,0 C516.935125,0 615.599125,31.798 657.499125,40.72 C676.193125,40.954 778.575125,43.202 785.673125,55.207 C791.865125,56.843 798.044125,66.424 794.539125,75.186 L794.539125,75.186 Z M430.183125,31.026 C430.069125,31.647 429.930125,32.129 429.760125,32.414 L430.965125,33.132 C431.018125,33.043 431.067125,32.936 431.117125,32.823 C432.486125,29.659 432.048125,17.731 430.903125,10.979 C430.587125,9.116 430.216125,7.643 429.815125,6.866 L428.570125,7.506 C428.936125,8.216 429.264125,9.495 429.540125,11.112 C430.541125,16.898 430.921125,27.025 430.183125,31.026 L430.183125,31.026 Z M430.866125,33.259 C430.504125,33.637 395.823125,69.706 387.241125,82.025 C386.893125,82.524 386.573125,82.996 386.314125,83.415 L385.123125,82.678 C385.227125,82.506 385.360125,82.312 385.480125,82.127 C392.646125,71.171 425.931125,36.377 429.542125,32.615 C426.869125,26.976 406.534125,19.914 398.747125,17.62 L398.945125,16.946 L399.141125,16.276 C399.260125,16.311 399.656125,16.428 400.254125,16.613 C405.287125,18.162 425.417125,24.672 430.183125,31.026 C430.069125,31.647 429.930125,32.129 429.760125,32.414 L430.965125,33.132 C431.018125,33.043 431.067125,32.936 431.117125,32.823 L431.161125,32.954 L430.866125,33.259 L430.866125,33.259 Z" id="Fill-80"></path>
        </g>
        <g id="Group-84" transform="translate(402.633000, 11.110000)">
            <mask id="mask-2" fill="white">
                <use xlink:href="#path-1"></use>
            </mask>
            <g id="Clip-83"></g>
            <path d="M-5.68434189e-14,5.499 C5.031,7.056 25.155,13.563 29.925,19.917 C30.663,15.912 30.285,5.787 29.286,0 C19.899,0.999 10.044,2.916 -5.68434189e-14,5.499" id="Fill-82" fill="url(#linearGradient-3)" mask="url(#mask-2)"></path>
        </g>
        <g id="Group-87" transform="translate(389.610000, 10.594425)">
            <mask id="mask-5" fill="white">
                <use xlink:href="#path-4"></use>
            </mask>
            <g id="Clip-86"></g>
            <path d="M56.079,-0.249425084 C52.056,-0.249425084 47.907,-0.024425084 43.668,0.389574916 C44.811,7.13957492 45.252,19.0645749 43.884,22.2235749 L43.92,22.3585749 L43.632,22.6645749 C43.272,23.0425749 8.586,59.1145749 0,71.4265749 C4.176,71.1745749 7.893,70.8685749 10.989,70.5085749 C21.573,59.0335749 35.928,21.4045749 83.79,12.8365749 C121.644,6.05057492 169.614,18.7225749 169.614,18.7225749 L176.004,12.0175749 C176.004,12.0175749 125.622,-0.249425084 56.097,-0.249425084 L56.079,-0.249425084" id="Fill-85" fill="url(#linearGradient-6)" mask="url(#mask-5)"></path>
        </g>
        <g id="Group-93" transform="translate(419.301000, 24.349000)">
            <mask id="mask-8" fill="white">
                <use xlink:href="#path-7"></use>
            </mask>
            <g id="Clip-92"></g>
            <path d="M5.68434189e-14,38.043 L5.68434189e-14,45.108 C3.852,42.561 8.478,41.211 11.367,40.365 C11.961,40.194 12.591,40.005 13.077,39.852 C11.547,38.628 11.961,36.765 12.177,35.802 C12.213,35.622 12.258,35.46 12.276,35.316 C12.807,31.608 27.684,18.243 32.427,18.243 C36.072,18.243 48.735,22.878 54.261,29.88 C56.727,33.003 57.582,36.252 56.799,39.519 C55.62,44.46 50.238,46.953 40.788,46.953 C30.915,46.953 19.674,44.163 18.396,43.839 C17.19,43.947 6.12,45.144 0.936,52.974 C0.639,53.415 0.333,53.748 5.68434189e-14,53.982 L5.68434189e-14,56.268 C5.68434189e-14,56.268 92.16,48.978 121.284,22.716 C119.7,14.031 114.444,2.934 114.444,2.934 C114.444,2.934 101.061,0 82.971,0 C56.268,0 19.323,6.39 5.68434189e-14,38.043" id="Fill-91" fill="url(#linearGradient-9)" mask="url(#mask-8)"></path>
        </g>
    </g>
</svg>