<svg width="284" height="164" viewBox="0 0 284 164" fill="none" xmlns="http://www.w3.org/2000/svg">
<path d="M19.2434 150.356C17.5124 151.355 15.476 151.865 13.134 151.884C10.7921 151.904 8.68776 151.375 6.82099 150.297C4.96555 149.226 4.05479 148.008 4.08873 146.643C4.13399 145.271 4.99383 144.102 6.66826 143.135C8.20692 142.247 9.83044 141.761 11.5388 141.676C13.2585 141.584 14.8028 141.777 16.1718 142.254L14.6614 143.929C13.8129 143.635 12.8851 143.511 11.8782 143.557C10.86 143.596 9.87569 143.89 8.92534 144.438C7.94105 145.007 7.42628 145.709 7.38102 146.545C7.34708 147.374 7.96933 148.158 9.24778 148.896C10.4697 149.602 11.799 149.951 13.2359 149.944C14.684 149.931 15.9229 149.628 16.9524 149.033C17.8915 148.491 18.3949 147.92 18.4628 147.319C18.542 146.711 18.344 146.159 17.8688 145.663L20.7199 144.781C21.0819 145.134 21.3535 145.526 21.5345 145.957C21.7268 146.382 21.806 146.839 21.7721 147.329C21.7381 147.818 21.5062 148.331 21.0763 148.867C20.6577 149.396 20.0467 149.892 19.2434 150.356Z" fill="#444444"/>
<path d="M23.5184 141.931L28.4229 144.763L26.1658 146.066L13.8792 138.973L16.1362 137.67L20.7692 140.344C20.6674 139.698 21.1143 139.087 22.1099 138.512C23.1281 137.924 24.2086 137.66 25.3513 137.719C26.4939 137.764 27.5518 138.068 28.5248 138.63L33.7856 141.667L31.5285 142.97L26.658 140.158C26.1602 139.871 25.6284 139.714 25.0628 139.688C24.5084 139.655 23.971 139.789 23.4506 140.089C22.9867 140.357 22.7661 140.661 22.7887 141.001C22.8226 141.334 23.0659 141.644 23.5184 141.931Z" fill="#444444"/>
<path d="M33.2932 139.325C32.5805 138.914 32.241 138.45 32.275 137.934C32.3089 137.418 32.637 136.915 33.2593 136.426L35.0072 135.064C35.3693 134.789 35.3806 134.554 35.0412 134.358C34.7244 134.175 34.3397 134.097 33.8872 134.123C33.4459 134.143 32.9991 134.283 32.5465 134.544C32.0713 134.819 31.8224 135.113 31.7998 135.426C31.7885 135.733 31.9582 136.007 32.3089 136.249L29.8821 137.16C29.2372 136.697 28.9544 136.122 29.0336 135.436C29.1128 134.75 29.6728 134.107 30.7137 133.506C31.9582 132.788 33.1744 132.432 34.3624 132.438C35.539 132.438 36.5912 132.706 37.5189 133.241L41.6258 135.612C42.1236 135.9 42.5987 136.135 43.0513 136.318L40.9809 137.513C40.6754 137.402 40.3134 137.226 39.8948 136.984C40.1889 137.768 39.7816 138.48 38.6729 139.12C37.813 139.616 36.8683 139.874 35.8388 139.894C34.8206 139.907 33.972 139.717 33.2932 139.325ZM37.468 137.875C37.9997 137.569 38.2882 137.232 38.3335 136.866C38.3787 136.488 38.0563 136.099 37.3661 135.701L36.9928 135.485L35.3976 136.739C34.8093 137.196 34.8149 137.598 35.4145 137.944C35.6861 138.101 36.0142 138.179 36.3988 138.179C36.7722 138.173 37.1286 138.071 37.468 137.875Z" fill="#444444"/>
<path d="M42.679 130.987L47.4817 133.76L45.2246 135.063L36.8751 130.243L39.0643 128.979L40.0995 129.577C39.9298 129.204 39.958 128.829 40.1843 128.45C40.4106 128.071 40.767 127.741 41.2535 127.461C42.2378 126.892 43.2956 126.641 44.427 126.706C45.5583 126.758 46.6105 127.065 47.5835 127.627L52.8444 130.664L50.5873 131.967L45.7167 129.155C45.2189 128.868 44.6872 128.711 44.1215 128.685C43.5671 128.653 43.0297 128.786 42.5093 129.087C42.0341 129.361 41.8192 129.675 41.8644 130.027C41.9097 130.38 42.1812 130.7 42.679 130.987Z" fill="#444444"/>
<path d="M54.9994 129.949L56.4928 128.46C57.0358 128.682 57.6298 128.777 58.2747 128.744C58.9196 128.711 59.5022 128.545 60.0226 128.244C61.5047 127.389 61.4708 126.514 59.9208 125.619L59.3099 125.266C59.423 125.554 59.3834 125.87 59.1911 126.216C58.9988 126.563 58.6197 126.899 58.0541 127.226C56.9453 127.866 55.6329 128.179 54.1169 128.166C52.6122 128.146 51.2771 127.8 50.1118 127.128C48.9805 126.474 48.3865 125.707 48.3299 124.825C48.2734 123.944 48.8051 123.179 49.9252 122.533C50.5361 122.18 51.1584 121.951 51.7919 121.847C52.4142 121.736 52.9629 121.726 53.4381 121.818L52.4538 121.249L54.626 119.995L62.0761 124.296C63.3319 125.021 64.0107 125.831 64.1126 126.726C64.2257 127.627 63.5469 128.502 62.0761 129.352C60.9787 129.985 59.7624 130.348 58.4274 130.439C57.1037 130.524 55.961 130.361 54.9994 129.949ZM56.5097 125.883C57.0867 125.55 57.3639 125.168 57.3413 124.737C57.33 124.299 57.0019 123.895 56.357 123.522C55.7234 123.156 55.022 122.974 54.2527 122.974C53.4946 122.967 52.8384 123.124 52.2841 123.444C51.7071 123.777 51.4186 124.166 51.4186 124.61C51.4299 125.047 51.7523 125.449 52.3859 125.815C53.0308 126.187 53.7322 126.376 54.4902 126.383C55.2483 126.39 55.9214 126.223 56.5097 125.883Z" fill="#444444"/>
<path d="M61.7821 119.587L65.5157 117.432C65.0292 117.177 64.4692 117.05 63.8356 117.05C63.2133 117.043 62.6024 117.213 62.0028 117.559C61.4597 117.872 61.1882 118.225 61.1882 118.617C61.1882 119.009 61.3862 119.332 61.7821 119.587ZM67.9085 118.558L70.3523 117.794C70.8953 118.369 71.082 118.993 70.9123 119.665C70.7539 120.332 70.1826 120.949 69.1983 121.517C67.999 122.209 66.5792 122.565 64.9387 122.585C63.2869 122.598 61.7821 122.213 60.4245 121.429C59.1347 120.684 58.4899 119.842 58.4899 118.901C58.4785 117.954 59.0273 117.161 60.136 116.52C61.4258 115.776 62.8174 115.417 64.3108 115.443C65.8155 115.462 67.241 115.861 68.5873 116.638C68.6779 116.69 68.774 116.752 68.8758 116.824C68.989 116.889 69.0795 116.942 69.1474 116.981L69.2492 117.059L63.2756 120.508C63.8412 120.808 64.5088 120.945 65.2781 120.919C66.0474 120.893 66.7149 120.717 67.2806 120.39C68.2423 119.835 68.4516 119.224 67.9085 118.558Z" fill="#444444"/>
<path d="M81.0235 114.396L78.8343 115.66L66.5476 108.567L68.7707 107.284L73.6243 110.086C73.5111 109.785 73.5677 109.446 73.794 109.067C74.0203 108.675 74.4276 108.309 75.0159 107.97C76.2038 107.284 77.5501 106.977 79.0549 107.049C80.5596 107.12 81.9512 107.525 83.2296 108.263C84.5081 109.001 85.2039 109.821 85.317 110.722C85.4188 111.617 84.8814 112.404 83.7048 113.084C82.5621 113.743 81.3289 113.985 80.0052 113.809L81.0235 114.396ZM82.1435 110.928C82.1096 110.451 81.7249 110.001 80.9895 109.576C80.2541 109.152 79.4791 108.933 78.6645 108.92C77.8613 108.9 77.1598 109.064 76.5602 109.41C75.9606 109.756 75.6721 110.164 75.6947 110.634C75.7173 111.105 76.0963 111.552 76.8317 111.977C77.5671 112.401 78.3478 112.623 79.1737 112.643C79.9996 112.649 80.7067 112.483 81.295 112.143C81.8946 111.797 82.1775 111.392 82.1435 110.928Z" fill="#444444"/>
<path d="M94.6568 106.526C94.3853 106.421 94.0628 106.261 93.6895 106.046C93.8479 106.385 93.8083 106.735 93.5707 107.094C93.3331 107.44 92.9767 107.751 92.5015 108.025C91.5172 108.593 90.4311 108.861 89.2432 108.828C88.0439 108.789 86.9748 108.498 86.0357 107.956L80.7579 104.909L83.015 103.606L87.8346 106.389C88.3324 106.676 88.8698 106.836 89.4468 106.869C90.0125 106.895 90.5442 106.764 91.042 106.477C91.5285 106.196 91.7661 105.889 91.7548 105.556C91.7322 105.216 91.472 104.903 90.9742 104.615L86.1206 101.813L88.3777 100.51L95.2168 104.459C95.7486 104.766 96.2803 105.04 96.812 105.282L94.6568 106.526Z" fill="#444444"/>
<path d="M91.0749 96.073L93.5696 97.5132L95.2497 96.5432L97.2522 97.6993L95.5721 98.6692L99.0681 100.687C99.4188 100.89 99.7469 100.988 100.052 100.981C100.358 100.975 100.68 100.874 101.02 100.678C101.325 100.501 101.534 100.354 101.648 100.237L103.514 101.314C103.322 101.582 102.966 101.866 102.445 102.167C101.631 102.637 100.759 102.879 99.8317 102.892C98.8927 102.898 98.0215 102.67 97.2183 102.206L93.332 99.9624L91.8216 100.834L89.8191 99.6783L90.2434 99.4334C90.662 99.1917 90.86 98.9403 90.8373 98.679C90.8147 98.4047 90.6054 98.1532 90.2094 97.9246L89.0385 97.2486L91.0749 96.073Z" fill="#444444"/>
<path d="M97.4058 92.4182L99.9004 93.8584L101.581 92.8885L103.583 94.0445L101.903 95.0144L105.399 97.0326C105.75 97.2351 106.078 97.3331 106.383 97.3266C106.689 97.32 107.011 97.2188 107.351 97.0228C107.656 96.8465 107.865 96.6995 107.978 96.582L109.845 97.6597C109.653 97.9274 109.296 98.2116 108.776 98.512C107.961 98.9823 107.09 99.2239 106.163 99.237C105.224 99.2435 104.352 99.0149 103.549 98.5512L99.6628 96.3077L98.1525 97.1796L96.1499 96.0235L96.5742 95.7786C96.9928 95.5369 97.1908 95.2855 97.1682 95.0242C97.1455 94.7499 96.9362 94.4985 96.5402 94.2699L95.3693 93.5939L97.4058 92.4182Z" fill="#444444"/>
<path d="M111.578 93.9554C112.415 93.9554 113.128 93.7856 113.716 93.446C114.304 93.1063 114.593 92.6981 114.582 92.2213C114.582 91.738 114.208 91.2808 113.461 90.8497C112.715 90.4187 111.923 90.2031 111.086 90.2031C110.26 90.1966 109.553 90.3632 108.964 90.7028C108.376 91.0424 108.082 91.4539 108.082 91.9372C108.093 92.414 108.472 92.868 109.219 93.299C109.966 93.7301 110.752 93.9489 111.578 93.9554ZM105.027 92.0548C105.027 91.0881 105.655 90.2423 106.911 89.5173C108.167 88.7924 109.626 88.4331 111.289 88.4397C112.964 88.4397 114.44 88.8087 115.719 89.5467C116.997 90.2848 117.636 91.1371 117.636 92.1038C117.648 93.0639 117.025 93.9064 115.769 94.6314C114.514 95.3564 113.049 95.7189 111.374 95.7189C109.711 95.7124 108.24 95.3401 106.962 94.602C105.683 93.864 105.038 93.0149 105.027 92.0548Z" fill="#444444"/>
<path d="M119.129 86.8527L123.932 89.6253L121.675 90.9283L113.325 86.1081L115.515 84.8443L116.55 85.4419C116.38 85.0696 116.408 84.694 116.635 84.3152C116.861 83.9364 117.217 83.6066 117.704 83.3257C118.688 82.7575 119.746 82.506 120.877 82.5713C122.009 82.6236 123.061 82.9306 124.034 83.4923L129.295 86.5294L127.038 87.8324L122.167 85.0206C121.669 84.7332 121.138 84.5765 120.572 84.5504C120.018 84.5177 119.48 84.6516 118.96 84.952C118.485 85.2264 118.27 85.5399 118.315 85.8926C118.36 86.2453 118.632 86.5653 119.129 86.8527Z" fill="#444444"/>
<path d="M133.012 76.8591C132.413 77.2053 132.118 77.6167 132.13 78.0935C132.141 78.5703 132.509 79.0177 133.233 79.4357C133.957 79.8537 134.738 80.0693 135.575 80.0823C136.412 80.0823 137.13 79.9093 137.73 79.5631C138.262 79.2561 138.55 78.9328 138.596 78.5932C138.63 78.247 138.511 77.9302 138.239 77.6429L140.887 76.8787C141.452 77.4404 141.673 78.0772 141.548 78.7891C141.424 79.501 140.841 80.1575 139.8 80.7583C138.556 81.4768 137.091 81.8393 135.405 81.8458C133.719 81.8393 132.243 81.4703 130.976 80.7388C129.697 80.0007 129.052 79.1516 129.041 78.1915C129.041 77.2249 129.652 76.3888 130.874 75.6834C131.937 75.0695 133.086 74.7266 134.319 74.6547C135.541 74.5764 136.638 74.707 137.611 75.0466L136.271 76.6044C135.06 76.219 133.974 76.3039 133.012 76.8591Z" fill="#444444"/>
<path d="M144.839 74.7535C145.677 74.7535 146.389 74.5837 146.978 74.244C147.566 73.9044 147.855 73.4962 147.843 73.0194C147.843 72.5361 147.47 72.0789 146.723 71.6478C145.976 71.2167 145.184 71.0012 144.347 71.0012C143.521 70.9947 142.814 71.1612 142.226 71.5008C141.638 71.8405 141.343 72.252 141.343 72.7353C141.355 73.2121 141.734 73.666 142.48 74.0971C143.227 74.5281 144.013 74.747 144.839 74.7535ZM138.289 72.8528C138.289 71.8862 138.917 71.0404 140.172 70.3154C141.428 69.5904 142.888 69.2312 144.551 69.2377C146.225 69.2377 147.702 69.6067 148.98 70.3448C150.259 71.0828 150.898 71.9352 150.898 72.9018C150.909 73.8619 150.287 74.7045 149.031 75.4295C147.775 76.1545 146.31 76.517 144.636 76.517C142.973 76.5104 141.502 76.1381 140.223 75.4001C138.945 74.662 138.3 73.813 138.289 72.8528Z" fill="#444444"/>
<path d="M157.194 70.4233L154.937 71.7263L142.65 64.6332L144.907 63.3302L157.194 70.4233Z" fill="#444444"/>
<path d="M159.423 66.3341C160.261 66.3341 160.973 66.1643 161.562 65.8246C162.15 65.485 162.439 65.0768 162.427 64.6C162.427 64.1167 162.054 63.6595 161.307 63.2284C160.561 62.7973 159.769 62.5818 158.931 62.5818C158.105 62.5753 157.398 62.7418 156.81 63.0815C156.222 63.4211 155.928 63.8326 155.928 64.3159C155.939 64.7927 156.318 65.2466 157.065 65.6777C157.811 66.1088 158.598 66.3276 159.423 66.3341ZM152.873 64.4335C152.873 63.4668 153.501 62.621 154.757 61.896C156.012 61.171 157.472 60.8118 159.135 60.8183C160.809 60.8183 162.286 61.1873 163.564 61.9254C164.843 62.6634 165.482 63.5158 165.482 64.4824C165.493 65.4426 164.871 66.2851 163.615 67.0101C162.359 67.7351 160.894 68.0976 159.22 68.0976C157.557 68.091 156.086 67.7188 154.807 66.9807C153.529 66.2427 152.884 65.3936 152.873 64.4335Z" fill="#444444"/>
<path d="M166.228 55.528L168.502 56.8408C168.231 56.9453 167.982 57.0629 167.756 57.1935C167.111 57.5658 166.777 57.974 166.755 58.4182C166.721 58.8558 167.122 59.3163 167.959 59.7996L171.778 62.0039L169.521 63.3069L161.171 58.4868L163.36 57.2229L164.599 57.9381C164.135 57.2001 164.492 56.4914 165.668 55.8122C165.793 55.7403 165.98 55.6456 166.228 55.528Z" fill="#444444"/>
<path d="M172.282 49.1923L174.776 50.6325L176.456 49.6626L178.459 50.8186L176.779 51.7885L180.275 53.8067C180.626 54.0092 180.954 54.1072 181.259 54.1006C181.565 54.0941 181.887 53.9929 182.226 53.7969C182.532 53.6206 182.741 53.4736 182.854 53.3561L184.721 54.4337C184.529 54.7015 184.172 54.9856 183.652 55.2861C182.837 55.7564 181.966 55.998 181.039 56.0111C180.1 56.0176 179.228 55.789 178.425 55.3253L174.539 53.0817L173.028 53.9537L171.026 52.7976L171.45 52.5527C171.869 52.311 172.067 52.0596 172.044 51.7983C172.022 51.524 171.812 51.2725 171.416 51.0439L170.245 50.3679L172.282 49.1923Z" fill="#444444"/>
<path d="M186.454 50.7295C187.291 50.7295 188.004 50.5597 188.592 50.2201C189.18 49.8804 189.469 49.4722 189.458 48.9954C189.458 48.5121 189.084 48.0549 188.337 47.6238C187.591 47.1928 186.799 46.9772 185.962 46.9772C185.136 46.9707 184.429 47.1373 183.84 47.4769C183.252 47.8165 182.958 48.228 182.958 48.7113C182.969 49.1881 183.348 49.642 184.095 50.0731C184.842 50.5042 185.628 50.723 186.454 50.7295ZM179.903 48.8289C179.903 47.8622 180.531 47.0164 181.787 46.2914C183.043 45.5664 184.502 45.2072 186.165 45.2137C187.84 45.2137 189.316 45.5828 190.595 46.3208C191.873 47.0589 192.512 47.9112 192.512 48.8779C192.524 49.838 191.901 50.6805 190.645 51.4055C189.39 52.1305 187.925 52.493 186.25 52.493C184.587 52.4865 183.116 52.1142 181.838 51.3761C180.559 50.6381 179.914 49.789 179.903 48.8289Z" fill="#444444"/>
<path d="M202.933 44.018L200.744 45.2818L188.457 38.1887L190.68 36.9053L195.534 39.7073C195.421 39.4068 195.477 39.0672 195.704 38.6883C195.93 38.2965 196.337 37.9307 196.926 37.5911C198.113 36.9053 199.46 36.5983 200.964 36.6701C202.469 36.742 203.861 37.1469 205.139 37.885C206.418 38.623 207.113 39.4427 207.227 40.3441C207.328 41.2389 206.791 42.0259 205.614 42.7052C204.472 43.3648 203.239 43.6065 201.915 43.4302L202.933 44.018ZM204.053 40.5498C204.019 40.073 203.635 39.6223 202.899 39.1978C202.164 38.7733 201.389 38.5545 200.574 38.5414C199.771 38.5218 199.069 38.6851 198.47 39.0312C197.87 39.3774 197.582 39.7856 197.604 40.2559C197.627 40.7261 198.006 41.1736 198.741 41.5981C199.477 42.0226 200.257 42.2447 201.083 42.2643C201.909 42.2708 202.616 42.1043 203.205 41.7646C203.804 41.4185 204.087 41.0135 204.053 40.5498Z" fill="#444444"/>
<path d="M213.392 37.98L211.135 39.283L198.848 32.1899L201.105 30.8869L213.392 37.98Z" fill="#444444"/>
<path d="M221.24 33.4494C220.968 33.3449 220.646 33.1849 220.273 32.9694C220.431 33.309 220.391 33.6584 220.154 34.0177C219.916 34.3638 219.56 34.6741 219.085 34.9484C218.1 35.5166 217.014 35.7844 215.826 35.7517C214.627 35.7126 213.558 35.4219 212.619 34.8798L207.341 31.8329L209.598 30.5299L214.418 33.3123C214.916 33.5996 215.453 33.7597 216.03 33.7923C216.596 33.8184 217.127 33.6878 217.625 33.4004C218.112 33.1196 218.349 32.8126 218.338 32.4795C218.315 32.1399 218.055 31.8264 217.557 31.539L212.704 28.737L214.961 27.434L221.8 31.3822C222.332 31.6892 222.863 31.9635 223.395 32.2052L221.24 33.4494Z" fill="#444444"/>
<path d="M222.207 26.9737L225.941 24.8183C225.454 24.5636 224.894 24.4362 224.26 24.4362C223.638 24.4297 223.027 24.5995 222.428 24.9457C221.885 25.2592 221.613 25.6119 221.613 26.0038C221.613 26.3957 221.811 26.719 222.207 26.9737ZM228.333 25.945L230.777 25.1808C231.32 25.7556 231.507 26.3793 231.337 27.0521C231.179 27.7183 230.607 28.3355 229.623 28.9037C228.424 29.5961 227.004 29.952 225.364 29.9716C223.712 29.9847 222.207 29.5993 220.849 28.8155C219.56 28.071 218.915 27.2284 218.915 26.2879C218.903 25.3408 219.452 24.5473 220.561 23.9072C221.851 23.1626 223.242 22.8034 224.736 22.8295C226.24 22.8491 227.666 23.2475 229.012 24.0248C229.103 24.077 229.199 24.1391 229.301 24.2109C229.414 24.2762 229.504 24.3285 229.572 24.3677L229.674 24.446L223.7 27.8946C224.266 28.1951 224.934 28.3322 225.703 28.3061C226.472 28.28 227.14 28.1036 227.705 27.777C228.667 27.2219 228.876 26.6112 228.333 25.945Z" fill="#444444"/>
<path d="M236.476 22.0281C235.763 21.6166 235.424 21.1529 235.458 20.6369C235.492 20.1209 235.82 19.618 236.442 19.1281L238.19 17.7663C238.552 17.492 238.563 17.2569 238.224 17.0609C237.907 16.8781 237.522 16.7997 237.07 16.8258C236.629 16.8454 236.182 16.9858 235.729 17.2471C235.254 17.5214 235.005 17.8153 234.983 18.1288C234.971 18.4358 235.141 18.7101 235.492 18.9518L233.065 19.8629C232.42 19.3992 232.137 18.8244 232.216 18.1386C232.296 17.4528 232.856 16.8095 233.896 16.2086C235.141 15.4901 236.357 15.1342 237.545 15.1407C238.722 15.1407 239.774 15.4085 240.702 15.9441L244.808 18.315C245.306 18.6023 245.781 18.8375 246.234 19.0204L244.164 20.2156C243.858 20.1046 243.496 19.9282 243.077 19.6866C243.372 20.4703 242.964 21.1822 241.856 21.8223C240.996 22.3187 240.051 22.5767 239.022 22.5963C238.003 22.6094 237.155 22.4199 236.476 22.0281ZM240.651 20.5781C241.182 20.2711 241.471 19.9347 241.516 19.569C241.561 19.1902 241.239 18.8016 240.549 18.4031L240.175 18.1876L238.58 19.4416C237.992 19.8988 237.998 20.3005 238.597 20.6467C238.869 20.8034 239.197 20.8818 239.582 20.8818C239.955 20.8753 240.311 20.774 240.651 20.5781Z" fill="#444444"/>
<path d="M245.862 13.6901L250.664 16.4627L248.407 17.7657L240.058 12.9455L242.247 11.6817L243.282 12.2793C243.112 11.907 243.141 11.5315 243.367 11.1527C243.593 10.7738 243.95 10.444 244.436 10.1632C245.42 9.59492 246.478 9.34346 247.61 9.40877C248.741 9.46103 249.793 9.768 250.766 10.3297L256.027 13.3668L253.77 14.6698L248.899 11.8581C248.402 11.5707 247.87 11.4139 247.304 11.3878C246.75 11.3551 246.212 11.489 245.692 11.7895C245.217 12.0638 245.002 12.3773 245.047 12.73C245.092 13.0827 245.364 13.4027 245.862 13.6901Z" fill="#444444"/>
<path d="M253.99 0.356407L264.767 6.57757C265.321 6.89761 265.847 7.17519 266.345 7.41032L264.19 8.65456C263.85 8.52393 263.5 8.35411 263.137 8.1451C263.296 8.45861 263.273 8.79824 263.07 9.164C262.877 9.52323 262.51 9.8596 261.966 10.1731C260.779 10.8589 259.387 11.1855 257.792 11.1528C256.197 11.1071 254.765 10.7185 253.498 9.98696C252.265 9.27503 251.603 8.46188 251.513 7.54748C251.433 6.62655 251.977 5.82972 253.142 5.15698C254.341 4.46465 255.472 4.20993 256.536 4.39281L251.767 1.63982L253.99 0.356407ZM255.772 8.67414C256.508 9.09868 257.283 9.32402 258.097 9.35015C258.9 9.36974 259.608 9.20319 260.219 8.8505C260.818 8.50433 261.095 8.09612 261.05 7.62585C261.005 7.15559 260.615 6.70819 259.879 6.28365C259.155 5.86564 258.397 5.65011 257.605 5.63704C256.802 5.61745 256.1 5.78074 255.501 6.1269C254.901 6.47307 254.613 6.88128 254.635 7.35154C254.669 7.81527 255.048 8.25613 255.772 8.67414Z" fill="#444444"/>
<path d="M24.7476 155.689C24.1479 156.035 23.8538 156.446 23.8651 156.923C23.8764 157.4 24.2441 157.847 24.9682 158.265C25.6923 158.683 26.4729 158.899 27.3101 158.912C28.1473 158.912 28.8658 158.739 29.4654 158.393C29.9971 158.086 30.2856 157.763 30.3309 157.423C30.3648 157.077 30.246 156.76 29.9745 156.473L32.6219 155.708C33.1876 156.27 33.4082 156.907 33.2838 157.619C33.1593 158.331 32.5767 158.987 31.5358 159.588C30.2913 160.307 28.8262 160.669 27.1404 160.676C25.4547 160.669 23.9782 160.3 22.7111 159.568C21.4326 158.83 20.7878 157.981 20.7765 157.021C20.7765 156.055 21.3874 155.219 22.6093 154.513C23.6728 153.899 24.8211 153.556 26.0543 153.484C27.2762 153.406 28.3736 153.537 29.3466 153.876L28.0059 155.434C26.7953 155.049 25.7092 155.134 24.7476 155.689Z" fill="#444444"/>
<path d="M34.1969 152.095L39.1013 154.927L36.8443 156.23L24.5576 149.136L26.8147 147.833L31.4476 150.508C31.3458 149.861 31.7927 149.251 32.7883 148.676C33.8065 148.088 34.887 147.824 36.0297 147.882C37.1724 147.928 38.2302 148.232 39.2032 148.794L44.464 151.831L42.207 153.134L37.3364 150.322C36.8386 150.035 36.3069 149.878 35.7412 149.852C35.1868 149.819 34.6494 149.953 34.129 150.253C33.6651 150.521 33.4445 150.825 33.4671 151.164C33.5011 151.498 33.7443 151.808 34.1969 152.095Z" fill="#444444"/>
<path d="M43.9716 149.489C43.2589 149.078 42.9195 148.614 42.9534 148.098C42.9873 147.582 43.3154 147.079 43.9377 146.589L45.6857 145.228C46.0477 144.953 46.059 144.718 45.7196 144.522C45.4028 144.339 45.0182 144.261 44.5656 144.287C44.1244 144.307 43.6775 144.447 43.2249 144.708C42.7498 144.983 42.5009 145.277 42.4782 145.59C42.4669 145.897 42.6366 146.171 42.9873 146.413L40.5606 147.324C39.9157 146.86 39.6328 146.286 39.712 145.6C39.7912 144.914 40.3512 144.271 41.3921 143.67C42.6366 142.951 43.8528 142.595 45.0408 142.602C46.2174 142.602 47.2696 142.87 48.1973 143.405L52.3042 145.776C52.802 146.064 53.2772 146.299 53.7297 146.482L51.6593 147.677C51.3538 147.566 50.9918 147.389 50.5732 147.148C50.8673 147.932 50.46 148.643 49.3513 149.284C48.4915 149.78 47.5468 150.038 46.5172 150.058C45.499 150.071 44.6505 149.881 43.9716 149.489ZM48.1464 148.039C48.6781 147.732 48.9666 147.396 49.0119 147.03C49.0571 146.651 48.7347 146.263 48.0446 145.864L47.6712 145.649L46.076 146.903C45.4877 147.36 45.4933 147.762 46.093 148.108C46.3645 148.265 46.6926 148.343 47.0772 148.343C47.4506 148.337 47.807 148.235 48.1464 148.039Z" fill="#444444"/>
<path d="M53.3574 141.151L58.1601 143.924L55.903 145.227L47.5535 140.407L49.7427 139.143L50.7779 139.741C50.6082 139.368 50.6365 138.993 50.8627 138.614C51.089 138.235 51.4454 137.905 51.9319 137.624C52.9162 137.056 53.974 136.805 55.1054 136.87C56.2368 136.922 57.2889 137.229 58.2619 137.791L63.5228 140.828L61.2657 142.131L56.3951 139.319C55.8973 139.032 55.3656 138.875 54.7999 138.849C54.2455 138.816 53.7081 138.95 53.1877 139.251C52.7125 139.525 52.4976 139.839 52.5428 140.191C52.5881 140.544 52.8596 140.864 53.3574 141.151Z" fill="#444444"/>
<path d="M65.6778 140.113L67.1712 138.624C67.7142 138.846 68.3082 138.941 68.9531 138.908C69.598 138.875 70.1806 138.709 70.7011 138.408C72.1832 137.553 72.1492 136.678 70.5992 135.783L69.9883 135.43C70.1014 135.717 70.0618 136.034 69.8695 136.38C69.6772 136.726 69.2982 137.063 68.7325 137.389C67.6237 138.03 66.3113 138.343 64.7953 138.33C63.2906 138.31 61.9556 137.964 60.7903 137.291C59.6589 136.638 59.0649 135.871 59.0083 134.989C58.9518 134.107 59.4835 133.343 60.6036 132.697C61.2145 132.344 61.8368 132.115 62.4703 132.011C63.0926 131.9 63.6413 131.89 64.1165 131.981L63.1322 131.413L65.3044 130.159L72.7545 134.46C74.0103 135.185 74.6891 135.995 74.791 136.89C74.9041 137.791 74.2253 138.666 72.7545 139.515C71.6571 140.149 70.4408 140.511 69.1058 140.603C67.7821 140.688 66.6394 140.524 65.6778 140.113ZM67.1882 136.047C67.7652 135.714 68.0423 135.332 68.0197 134.901C68.0084 134.463 67.6803 134.058 67.0354 133.686C66.4019 133.32 65.7004 133.137 64.9311 133.137C64.1731 133.131 63.5169 133.288 62.9625 133.608C62.3855 133.941 62.097 134.329 62.097 134.774C62.1083 135.211 62.4307 135.613 63.0643 135.979C63.7092 136.351 64.4106 136.54 65.1687 136.547C65.9267 136.553 66.5998 136.387 67.1882 136.047Z" fill="#444444"/>
<path d="M72.4606 129.751L76.1941 127.595C75.7076 127.341 75.1476 127.213 74.514 127.213C73.8918 127.207 73.2808 127.377 72.6812 127.723C72.1381 128.036 71.8666 128.389 71.8666 128.781C71.8666 129.173 72.0646 129.496 72.4606 129.751ZM78.5869 128.722L81.0307 127.958C81.5738 128.533 81.7604 129.156 81.5907 129.829C81.4323 130.495 80.861 131.113 79.8767 131.681C78.6775 132.373 77.2576 132.729 75.6171 132.749C73.9653 132.762 72.4606 132.376 71.1029 131.593C69.8132 130.848 69.1683 130.006 69.1683 129.065C69.157 128.118 69.7057 127.324 70.8144 126.684C72.1042 125.94 73.4958 125.581 74.9892 125.607C76.4939 125.626 77.9194 126.025 79.2658 126.802C79.3563 126.854 79.4524 126.916 79.5543 126.988C79.6674 127.053 79.7579 127.106 79.8258 127.145L79.9276 127.223L73.954 130.672C74.5197 130.972 75.1872 131.109 75.9565 131.083C76.7258 131.057 77.3933 130.881 77.959 130.554C78.9207 129.999 79.13 129.388 78.5869 128.722Z" fill="#444444"/>
<path d="M81.4516 117.957L83.9463 119.397L85.6264 118.427L87.6289 119.583L85.9489 120.553L89.4448 122.571C89.7955 122.774 90.1236 122.872 90.4291 122.865C90.7345 122.859 91.057 122.758 91.3964 122.562C91.7019 122.385 91.9112 122.238 92.0243 122.121L93.8911 123.198C93.6987 123.466 93.3424 123.75 92.8219 124.051C92.0073 124.521 91.1362 124.763 90.2085 124.776C89.2694 124.782 88.3983 124.554 87.595 124.09L83.7087 121.846L82.1984 122.718L80.1958 121.562L80.6201 121.317C81.0387 121.076 81.2367 120.824 81.2141 120.563C81.1914 120.289 80.9821 120.037 80.5862 119.809L79.4152 119.133L81.4516 117.957Z" fill="#444444"/>
<path d="M92.3314 118.279L96.0649 116.124C95.5784 115.869 95.0184 115.742 94.3848 115.742C93.7626 115.735 93.1516 115.905 92.552 116.251C92.0089 116.565 91.7374 116.918 91.7374 117.309C91.7374 117.701 91.9354 118.025 92.3314 118.279ZM98.4577 117.251L100.902 116.487C101.445 117.061 101.631 117.685 101.462 118.358C101.303 119.024 100.732 119.641 99.7475 120.209C98.5483 120.902 97.1284 121.258 95.4879 121.277C93.8361 121.29 92.3314 120.905 90.9737 120.121C89.684 119.377 89.0391 118.534 89.0391 117.594C89.0278 116.647 89.5765 115.853 90.6852 115.213C91.975 114.468 93.3666 114.109 94.86 114.135C96.3647 114.155 97.7902 114.553 99.1366 115.33C99.2271 115.383 99.3232 115.445 99.4251 115.517C99.5382 115.582 99.6287 115.634 99.6966 115.673L99.7984 115.752L93.8248 119.2C94.3905 119.501 95.058 119.638 95.8273 119.612C96.5966 119.586 97.2641 119.409 97.8298 119.083C98.7915 118.528 99.0008 117.917 98.4577 117.251Z" fill="#444444"/>
<path d="M104.057 117.428L102.835 113.293L95.7072 112.608L98.3885 111.06C98.6488 111.092 99.3445 111.174 100.476 111.305C101.607 111.422 102.292 111.497 102.529 111.53L101.698 109.149L104.26 107.67L105.431 111.716L112.712 112.431L110.064 113.96L105.754 113.489C105.788 113.574 105.867 113.809 105.991 114.195C106.127 114.574 106.252 114.933 106.365 115.272C106.478 115.599 106.557 115.828 106.602 115.958L104.057 117.428Z" fill="#444444"/>
<path d="M106.162 103.692L108.656 105.132L110.336 104.162L112.339 105.318L110.659 106.288L114.155 108.306C114.506 108.509 114.834 108.607 115.139 108.6C115.445 108.594 115.767 108.492 116.106 108.297C116.412 108.12 116.621 107.973 116.734 107.856L118.601 108.933C118.409 109.201 118.052 109.485 117.532 109.786C116.717 110.256 115.846 110.498 114.919 110.511C113.979 110.517 113.108 110.289 112.305 109.825L108.419 107.581L106.908 108.453L104.906 107.297L105.33 107.052C105.749 106.811 105.947 106.559 105.924 106.298C105.902 106.024 105.692 105.772 105.296 105.544L104.125 104.868L106.162 103.692Z" fill="#444444"/>
<path d="M116.685 97.6165L119.18 99.0567L120.86 98.0868L122.863 99.2429L121.183 100.213L124.679 102.231C125.029 102.433 125.357 102.531 125.663 102.525C125.968 102.518 126.291 102.417 126.63 102.221C126.936 102.045 127.145 101.898 127.258 101.78L129.125 102.858C128.933 103.126 128.576 103.41 128.056 103.71C127.241 104.181 126.37 104.422 125.442 104.435C124.503 104.442 123.632 104.213 122.829 103.75L118.943 101.506L117.432 102.378L115.43 101.222L115.854 100.977C116.273 100.735 116.471 100.484 116.448 100.223C116.425 99.9482 116.216 99.6968 115.82 99.4682L114.649 98.7922L116.685 97.6165Z" fill="#444444"/>
<path d="M130.857 99.1538C131.695 99.1538 132.407 98.9839 132.996 98.6443C133.584 98.3047 133.873 97.8965 133.861 97.4197C133.861 96.9364 133.488 96.4792 132.741 96.0481C131.994 95.617 131.203 95.4015 130.365 95.4015C129.539 95.3949 128.832 95.5615 128.244 95.9011C127.656 96.2408 127.362 96.6522 127.362 97.1356C127.373 97.6124 127.752 98.0663 128.499 98.4974C129.245 98.9284 130.032 99.1472 130.857 99.1538ZM124.307 97.2531C124.307 96.2865 124.935 95.4407 126.191 94.7157C127.446 93.9907 128.906 93.6315 130.569 93.638C132.243 93.638 133.72 94.007 134.998 94.7451C136.277 95.4831 136.916 96.3355 136.916 97.3021C136.927 98.2622 136.305 99.1048 135.049 99.8298C133.793 100.555 132.328 100.917 130.654 100.917C128.991 100.911 127.52 100.538 126.241 99.8004C124.963 99.0623 124.318 98.2132 124.307 97.2531Z" fill="#444444"/>
<path d="M138.699 87.4751C139.038 87.671 139.208 87.9127 139.208 88.2001C139.197 88.4809 138.999 88.7324 138.614 88.9544C138.173 89.2092 137.664 89.3267 137.087 89.3071C136.498 89.281 135.972 89.1341 135.508 88.8663C134.49 88.2784 134.004 87.6841 134.049 87.0832C134.083 86.4758 134.4 85.9598 134.999 85.5353L136.034 86.1329C135.74 86.368 135.582 86.6423 135.559 86.9558C135.525 87.2628 135.689 87.5273 136.051 87.7494C136.085 87.6645 136.176 87.5796 136.323 87.4947C136.696 87.2791 137.098 87.1714 137.528 87.1714C137.946 87.1648 138.337 87.2661 138.699 87.4751Z" fill="#444444"/>
<path d="M148.209 81.3578L146.75 82.9449C146.24 82.7424 145.635 82.6412 144.934 82.6412C144.232 82.6412 143.542 82.8371 142.863 83.229C142.309 83.5491 142.009 83.8985 141.964 84.2773C141.907 84.6496 142.088 84.9566 142.507 85.1982C143.242 85.6228 144.13 85.6326 145.171 85.2276L147.174 84.4439C148.441 83.9475 149.691 83.7156 150.924 83.7483C152.158 83.7809 153.21 84.0487 154.081 84.5516C155.077 85.1264 155.552 85.8579 155.506 86.7462C155.461 87.6214 154.777 88.4411 153.453 89.2053C152.695 89.6429 151.897 89.9727 151.06 90.1948C150.223 90.4168 149.431 90.5279 148.684 90.5279C147.926 90.5213 147.23 90.4593 146.597 90.3417C145.963 90.2111 145.398 90.0282 144.9 89.7931L146.495 88.206C147.197 88.5456 147.983 88.7121 148.854 88.7056C149.736 88.6925 150.579 88.4542 151.383 87.9904C151.994 87.6377 152.333 87.285 152.401 86.9323C152.48 86.5731 152.299 86.2661 151.858 86.0114C151.507 85.8089 151.077 85.711 150.568 85.7175C150.059 85.711 149.527 85.8155 148.973 86.031L146.953 86.805C145.777 87.2491 144.606 87.4614 143.44 87.4418C142.275 87.4222 141.245 87.1544 140.352 86.6384C139.288 86.0245 138.802 85.2734 138.892 84.3851C138.994 83.4903 139.622 82.7098 140.776 82.0436C141.466 81.6452 142.179 81.3447 142.914 81.1422C143.65 80.9398 144.345 80.8385 145.002 80.8385C145.647 80.832 146.229 80.8745 146.75 80.9659C147.27 81.0573 147.757 81.188 148.209 81.3578Z" fill="#444444"/>
<path d="M164.6 82.4764C164.328 82.3719 164.006 82.2119 163.632 81.9964C163.791 82.336 163.751 82.6854 163.513 83.0446C163.276 83.3908 162.92 83.701 162.444 83.9754C161.46 84.5436 160.374 84.8114 159.186 84.7787C157.987 84.7395 156.918 84.4489 155.979 83.9068L150.701 80.8599L152.958 79.5569L157.777 82.3392C158.275 82.6266 158.813 82.7866 159.39 82.8193C159.955 82.8454 160.487 82.7148 160.985 82.4274C161.471 82.1466 161.709 81.8396 161.698 81.5065C161.675 81.1669 161.415 80.8534 160.917 80.566L156.063 77.764L158.32 76.461L165.16 80.4092C165.691 80.7162 166.223 80.9905 166.755 81.2322L164.6 82.4764Z" fill="#444444"/>
<path d="M171.268 78.6268L169.079 79.8906L156.792 72.7975L159.015 71.5141L163.869 74.316C163.756 74.0156 163.812 73.676 164.039 73.2971C164.265 72.9052 164.672 72.5395 165.26 72.1999C166.448 71.5141 167.795 71.2071 169.299 71.2789C170.804 71.3508 172.196 71.7557 173.474 72.4938C174.753 73.2318 175.448 74.0515 175.562 74.9528C175.663 75.8476 175.126 76.6347 173.949 77.3139C172.807 77.9736 171.573 78.2153 170.25 78.0389L171.268 78.6268ZM172.388 75.1586C172.354 74.6818 171.969 74.2311 171.234 73.8066C170.499 73.382 169.724 73.1632 168.909 73.1502C168.106 73.1306 167.404 73.2939 166.805 73.64C166.205 73.9862 165.917 74.3944 165.939 74.8647C165.962 75.3349 166.341 75.7823 167.076 76.2069C167.812 76.6314 168.592 76.8535 169.418 76.8731C170.244 76.8796 170.951 76.7131 171.539 76.3734C172.139 76.0273 172.422 75.6223 172.388 75.1586Z" fill="#444444"/>
<path d="M176.432 72.961L177.943 71.5992C178.327 71.7952 178.774 71.8899 179.283 71.8834C179.792 71.8638 180.279 71.7201 180.743 71.4523C181.093 71.2498 181.286 71.0473 181.32 70.8449C181.354 70.6424 181.252 70.4726 181.014 70.3354C180.596 70.0938 180.024 70.1101 179.3 70.3844L177.943 70.8743C176.992 71.227 176.098 71.3902 175.261 71.3641C174.435 71.3315 173.717 71.1388 173.106 70.7861C172.348 70.3485 171.997 69.8064 172.054 69.1598C172.122 68.5066 172.602 67.9221 173.496 67.4061C174.062 67.0795 174.645 66.8411 175.244 66.6909C175.833 66.5341 176.376 66.4623 176.873 66.4754C177.36 66.4819 177.795 66.5243 178.18 66.6027C178.565 66.6811 178.899 66.7823 179.181 66.9064L177.722 68.2388C177.383 68.0952 176.987 68.0233 176.534 68.0233C176.093 68.0168 175.657 68.1376 175.227 68.3858C174.933 68.5556 174.758 68.7483 174.701 68.9638C174.656 69.1728 174.752 69.3459 174.99 69.4831C175.397 69.7182 175.9 69.7149 176.5 69.4733L177.943 68.9344C178.916 68.5687 179.838 68.3956 180.709 68.4152C181.591 68.4283 182.349 68.6177 182.983 68.9834C183.73 69.4145 184.092 69.9501 184.069 70.5901C184.046 71.2302 183.52 71.8474 182.491 72.4418C181.902 72.7814 181.291 73.0362 180.658 73.206C180.013 73.3693 179.425 73.4476 178.893 73.4411C178.361 73.4215 177.892 73.3725 177.484 73.2941C177.077 73.2027 176.726 73.0917 176.432 72.961Z" fill="#444444"/>
<path d="M184.493 63.4678C183.893 63.814 183.599 64.2254 183.61 64.7022C183.622 65.179 183.989 65.6264 184.714 66.0444C185.438 66.4625 186.218 66.678 187.055 66.6911C187.893 66.6911 188.611 66.518 189.211 66.1718C189.742 65.8648 190.031 65.5415 190.076 65.2019C190.11 64.8557 189.991 64.539 189.72 64.2516L192.367 63.4874C192.933 64.0491 193.154 64.6859 193.029 65.3978C192.905 66.1098 192.322 66.7662 191.281 67.3671C190.037 68.0855 188.572 68.448 186.886 68.4545C185.2 68.448 183.724 68.079 182.456 67.3475C181.178 66.6094 180.533 65.7603 180.522 64.8002C180.522 63.8336 181.133 62.9975 182.355 62.2921C183.418 61.6782 184.566 61.3353 185.8 61.2635C187.022 61.1851 188.119 61.3157 189.092 61.6553L187.751 63.2131C186.541 62.8277 185.455 62.9126 184.493 63.4678Z" fill="#444444"/>
<path d="M193.297 56.2297L195.571 57.5425C195.3 57.647 195.051 57.7645 194.825 57.8952C194.18 58.2675 193.846 58.6757 193.823 59.1198C193.789 59.5574 194.191 60.0179 195.028 60.5012L198.847 62.7055L196.59 64.0086L188.24 59.1884L190.429 57.9246L191.668 58.6397C191.204 57.9017 191.561 57.193 192.737 56.5138C192.862 56.4419 193.048 56.3472 193.297 56.2297Z" fill="#444444"/>
<path d="M205.526 58.8498L203.268 60.1529L194.919 55.3327L197.176 54.0297L205.526 58.8498ZM191.915 53.9121C191.531 53.69 191.338 53.4222 191.338 53.1087C191.327 52.7887 191.514 52.5176 191.898 52.2956C192.283 52.0735 192.747 51.9625 193.29 51.9625C193.833 51.9625 194.302 52.0768 194.698 52.3054C195.072 52.5209 195.258 52.7854 195.258 53.0989C195.258 53.4125 195.066 53.6802 194.681 53.9023C194.297 54.1244 193.833 54.2354 193.29 54.2354C192.747 54.2354 192.289 54.1276 191.915 53.9121Z" fill="#444444"/>
<path d="M210.131 56.191L207.942 57.4548L195.655 50.3617L197.878 49.0783L202.732 51.8803C202.619 51.5798 202.675 51.2402 202.902 50.8614C203.128 50.4695 203.535 50.1037 204.124 49.7641C205.312 49.0783 206.658 48.7713 208.163 48.8432C209.667 48.915 211.059 49.32 212.337 50.058C213.616 50.7961 214.312 51.6158 214.425 52.5171C214.527 53.4119 213.989 54.1989 212.813 54.8782C211.67 55.5379 210.437 55.7795 209.113 55.6032L210.131 56.191ZM211.251 52.7228C211.217 52.246 210.833 51.7954 210.097 51.3708C209.362 50.9463 208.587 50.7275 207.772 50.7144C206.969 50.6948 206.268 50.8581 205.668 51.2043C205.068 51.5504 204.78 51.9587 204.802 52.4289C204.825 52.8992 205.204 53.3466 205.939 53.7711C206.675 54.1957 207.456 54.4177 208.281 54.4373C209.107 54.4438 209.814 54.2773 210.403 53.9377C211.002 53.5915 211.285 53.1866 211.251 52.7228Z" fill="#444444"/>
<path d="M214.854 47.547L218.588 45.3916C218.101 45.1369 217.541 45.0095 216.908 45.0095C216.285 45.003 215.674 45.1728 215.075 45.519C214.532 45.8325 214.26 46.1852 214.26 46.5771C214.26 46.969 214.458 47.2922 214.854 47.547ZM220.981 46.5183L223.424 45.7541C223.967 46.3289 224.154 46.9526 223.984 47.6254C223.826 48.2916 223.255 48.9088 222.27 49.477C221.071 50.1693 219.651 50.5253 218.011 50.5449C216.359 50.5579 214.854 50.1726 213.497 49.3888C212.207 48.6442 211.562 47.8017 211.562 46.8612C211.551 45.9141 212.099 45.1206 213.208 44.4805C214.498 43.7359 215.889 43.3767 217.383 43.4028C218.888 43.4224 220.313 43.8208 221.659 44.598C221.75 44.6503 221.846 44.7123 221.948 44.7842C222.061 44.8495 222.152 44.9018 222.219 44.9409L222.321 45.0193L216.348 48.4679C216.913 48.7684 217.581 48.9055 218.35 48.8794C219.119 48.8533 219.787 48.6769 220.353 48.3503C221.314 47.7952 221.524 47.1845 220.981 46.5183Z" fill="#444444"/>
<path d="M215.494 40.496C215.154 40.3001 214.99 40.0617 215.002 39.7809C215.013 39.4869 215.217 39.2257 215.613 38.9971C216.054 38.7424 216.569 38.6281 217.157 38.6542C217.745 38.6803 218.271 38.8273 218.735 39.0951C219.278 39.4086 219.674 39.7351 219.923 40.0748C220.172 40.4144 220.28 40.7312 220.246 41.0251C220.212 41.319 220.116 41.5901 219.957 41.8382C219.799 42.0734 219.584 42.2824 219.312 42.4653L218.277 41.8676C218.571 41.6325 218.73 41.3582 218.752 41.0447C218.764 40.7246 218.588 40.4536 218.226 40.2315C218.192 40.3164 218.102 40.4013 217.955 40.4862C217.581 40.7018 217.168 40.8096 216.716 40.8096C216.263 40.8096 215.856 40.705 215.494 40.496Z" fill="#444444"/>
</svg>
