<svg width="278" height="161" viewBox="0 0 278 161" fill="none" xmlns="http://www.w3.org/2000/svg">
<rect x="4.33022" width="259.91" height="50.5206" rx="25.2603" transform="matrix(0.866044 -0.499967 0.866044 0.499967 0.580058 135.072)" fill="url(#paint0_linear_1065_4478)" stroke="white" stroke-width="5"/>
<g clip-path="url(#clip0_1065_4478)">
<path d="M52.7316 128.489L59.777 128.402L60.1802 117.556" stroke="white" stroke-width="3" stroke-linecap="round" stroke-linejoin="round"/>
<path d="M67.0738 121.536L73.9681 125.516C74.5776 125.868 74.9094 126.351 74.8905 126.86C74.8716 127.368 74.5036 127.86 73.8674 128.228L59.4741 136.537C58.8379 136.904 57.9856 137.117 57.1047 137.127C56.2239 137.138 55.3866 136.947 54.7771 136.595L40.9885 128.635C40.379 128.283 40.0472 127.8 40.0661 127.291C40.085 126.783 40.4531 126.291 41.0893 125.923L51.8843 119.691" stroke="white" stroke-width="4" stroke-linecap="round" stroke-linejoin="round"/>
</g>
<path d="M101.309 109.494C99.6742 110.438 97.8382 110.938 95.8012 110.994C93.7504 111.042 91.8521 110.562 90.1061 109.554L80.5865 104.058L83.4549 102.403L92.7666 107.778C93.7227 108.33 94.6996 108.614 95.6973 108.63C96.695 108.63 97.6303 108.378 98.5033 107.874C99.3901 107.362 99.8266 106.822 99.8127 106.254C99.7989 105.67 99.3139 105.102 98.3578 104.55L89.0461 99.1747L91.9144 97.5188L101.434 103.014C103.18 104.022 104.011 105.118 103.928 106.302C103.831 107.478 102.958 108.542 101.309 109.494ZM116.284 105.025L113.52 106.621L99.3446 98.4371L102.026 96.8892L103.273 97.6091C103.107 97.2251 103.162 96.7932 103.439 96.3132C103.703 95.8252 104.201 95.3693 104.936 94.9453C106.391 94.1053 108.04 93.7294 109.883 93.8174C111.712 93.8974 113.409 94.3893 114.975 95.2933C116.541 96.1972 117.379 97.2011 117.49 98.3051C117.615 99.401 116.963 100.361 115.536 101.185C114.178 101.969 112.779 102.297 111.338 102.169L116.284 105.025ZM113.665 98.5211C113.624 97.9371 113.16 97.3891 112.273 96.8772C111.386 96.3652 110.444 96.1012 109.446 96.0852C108.462 96.0612 107.603 96.2612 106.869 96.6852C106.134 97.1092 105.788 97.6131 105.83 98.1971C105.857 98.773 106.308 99.313 107.181 99.817C108.054 100.321 108.996 100.585 110.007 100.609C111.019 100.633 111.892 100.433 112.626 100.009C113.361 99.585 113.707 99.089 113.665 98.5211ZM116.997 82.6784L130.196 90.2979C130.875 90.6899 131.519 91.0299 132.129 91.3179L129.489 92.8418C129.074 92.6818 128.644 92.4738 128.201 92.2178C128.395 92.6018 128.367 93.0178 128.117 93.4657C127.882 93.9057 127.432 94.3177 126.766 94.7017C125.311 95.5416 123.607 95.9416 121.653 95.9016C119.699 95.8456 117.947 95.3696 116.395 94.4737C114.884 93.6017 114.074 92.6058 113.963 91.4859C113.866 90.3579 114.531 89.382 115.958 88.5581C117.427 87.7101 118.813 87.3981 120.115 87.6221L114.275 84.2503L116.997 82.6784ZM119.18 92.8658C120.081 93.3857 121.03 93.6617 122.027 93.6937C123.011 93.7177 123.877 93.5137 124.626 93.0818C125.36 92.6578 125.699 92.1578 125.644 91.5819C125.589 91.0059 125.111 90.4579 124.21 89.938C123.323 89.426 122.395 89.162 121.425 89.146C120.441 89.122 119.582 89.322 118.847 89.746C118.113 90.17 117.76 90.6699 117.787 91.2459C117.829 91.8138 118.293 92.3538 119.18 92.8658ZM131.575 88.4218C130.702 87.9179 130.286 87.3499 130.328 86.718C130.37 86.086 130.771 85.47 131.533 84.8701L133.674 83.2022C134.118 82.8662 134.132 82.5782 133.716 82.3382C133.328 82.1143 132.857 82.0183 132.303 82.0503C131.762 82.0743 131.215 82.2462 130.661 82.5662C130.079 82.9022 129.774 83.2622 129.746 83.6462C129.732 84.0221 129.94 84.3581 130.37 84.6541L127.397 85.77C126.607 85.2021 126.261 84.4981 126.358 83.6582C126.455 82.8182 127.141 82.0303 128.416 81.2943C129.94 80.4144 131.43 79.9784 132.885 79.9864C134.326 79.9864 135.614 80.3144 136.751 80.9703L141.781 83.8741C142.39 84.2261 142.972 84.5141 143.526 84.7381L140.991 86.202C140.617 86.066 140.173 85.85 139.66 85.554C140.021 86.514 139.522 87.3859 138.164 88.1699C137.111 88.7778 135.954 89.0938 134.693 89.1178C133.446 89.1338 132.406 88.9018 131.575 88.4218ZM136.688 86.646C137.339 86.27 137.693 85.858 137.748 85.41C137.804 84.9461 137.409 84.4701 136.563 83.9821L136.106 83.7182L134.152 85.2541C133.432 85.814 133.439 86.306 134.173 86.73C134.506 86.9219 134.908 87.0179 135.379 87.0179C135.836 87.0099 136.272 86.8859 136.688 86.646ZM136.254 73.6012L139.31 75.3651L141.368 74.1772L143.82 75.5931L141.763 76.781L146.044 79.2528C146.474 79.5008 146.876 79.6208 147.25 79.6128C147.624 79.6048 148.019 79.4808 148.435 79.2409C148.809 79.0249 149.065 78.8449 149.204 78.7009L151.49 80.0208C151.254 80.3488 150.818 80.6968 150.18 81.0647C149.183 81.6407 148.116 81.9367 146.98 81.9527C145.829 81.9607 144.762 81.6807 143.779 81.1127L139.019 78.3649L137.169 79.4328L134.716 78.0169L135.236 77.717C135.749 77.421 135.991 77.113 135.963 76.793C135.936 76.457 135.679 76.1491 135.194 75.8691L133.76 75.0411L136.254 73.6012ZM149.58 73.9961L154.152 71.3562C153.557 71.0443 152.871 70.8883 152.095 70.8883C151.333 70.8803 150.584 71.0883 149.85 71.5122C149.185 71.8962 148.852 72.3282 148.852 72.8081C148.852 73.2881 149.095 73.6841 149.58 73.9961ZM157.083 72.7361L160.076 71.8002C160.741 72.5042 160.97 73.2681 160.762 74.0921C160.568 74.908 159.868 75.664 158.663 76.3599C157.194 77.2079 155.455 77.6438 153.446 77.6678C151.423 77.6838 149.58 77.2119 147.917 76.2519C146.337 75.34 145.547 74.308 145.547 73.1561C145.533 71.9962 146.206 71.0243 147.563 70.2403C149.143 69.3284 150.848 68.8884 152.677 68.9204C154.52 68.9444 156.266 69.4324 157.914 70.3843C158.025 70.4483 158.143 70.5243 158.268 70.6123C158.406 70.6923 158.517 70.7563 158.6 70.8043L158.725 70.9003L151.409 75.124C152.102 75.492 152.919 75.66 153.861 75.628C154.804 75.596 155.621 75.38 156.314 74.98C157.492 74.3 157.748 73.5521 157.083 72.7361ZM160.029 57.8363L173.228 65.4558C173.907 65.8478 174.551 66.1878 175.161 66.4757L172.521 67.9996C172.105 67.8397 171.676 67.6317 171.232 67.3757C171.426 67.7597 171.398 68.1756 171.149 68.6236C170.913 69.0636 170.463 69.4755 169.798 69.8595C168.343 70.6995 166.639 71.0994 164.685 71.0594C162.731 71.0035 160.978 70.5275 159.426 69.6315C157.916 68.7596 157.105 67.7637 156.994 66.6437C156.897 65.5158 157.563 64.5399 158.99 63.7159C160.459 62.868 161.844 62.556 163.147 62.78L157.306 59.4082L160.029 57.8363ZM162.211 68.0236C163.112 68.5436 164.061 68.8196 165.059 68.8516C166.043 68.8756 166.909 68.6716 167.657 68.2396C168.392 67.8157 168.731 67.3157 168.676 66.7397C168.62 66.1638 168.142 65.6158 167.241 65.0958C166.355 64.5839 165.426 64.3199 164.456 64.3039C163.472 64.2799 162.613 64.4799 161.879 64.9038C161.144 65.3278 160.791 65.8278 160.819 66.4038C160.86 66.9717 161.325 67.5117 162.211 68.0236ZM186.329 60.0279L183.42 61.7078L168.683 53.2004L171.593 51.5205L186.329 60.0279ZM192.248 56.6111L189.484 58.207L179.257 52.3034L181.897 50.7795L183.144 51.4994C182.936 51.0754 182.978 50.6195 183.269 50.1315C183.56 49.6435 184.003 49.2276 184.599 48.8836C186.082 48.0276 187.662 47.7717 189.338 48.1156C188.936 47.0357 189.449 46.0838 190.876 45.2598C191.916 44.6599 193.114 44.3439 194.472 44.3119C195.844 44.2719 197.174 44.6239 198.463 45.3678L205.093 49.1956L202.412 50.7435L196.343 47.2397C195.761 46.9037 195.144 46.7237 194.493 46.6997C193.842 46.6597 193.211 46.8157 192.601 47.1677C192.033 47.4957 191.77 47.8716 191.812 48.2956C191.853 48.7196 192.158 49.0956 192.726 49.4235L198.712 52.8793L195.969 54.4632L189.899 50.9594C189.317 50.6235 188.701 50.4435 188.05 50.4195C187.384 50.3875 186.754 50.5435 186.158 50.8874C185.576 51.2234 185.306 51.6034 185.347 52.0274C185.375 52.4433 185.68 52.8193 186.262 53.1553L192.248 56.6111ZM204.485 46.3308C203.612 45.8269 203.196 45.2589 203.238 44.627C203.28 43.995 203.681 43.379 204.444 42.7791L206.584 41.1112C207.028 40.7752 207.042 40.4872 206.626 40.2472C206.238 40.0233 205.767 39.9273 205.213 39.9593C204.672 39.9833 204.125 40.1552 203.571 40.4752C202.989 40.8112 202.684 41.1712 202.656 41.5552C202.642 41.9311 202.85 42.2671 203.28 42.5631L200.307 43.679C199.518 43.1111 199.171 42.4071 199.268 41.5672C199.365 40.7272 200.051 39.9393 201.326 39.2033C202.85 38.3234 204.34 37.8874 205.795 37.8954C207.236 37.8954 208.524 38.2234 209.661 38.8793L214.691 41.7831C215.3 42.1351 215.882 42.4231 216.437 42.6471L213.901 44.111C213.527 43.975 213.083 43.759 212.571 43.463C212.931 44.423 212.432 45.2949 211.074 46.0789C210.021 46.6868 208.864 47.0028 207.603 47.0268C206.356 47.0428 205.317 46.8108 204.485 46.3308ZM209.598 44.555C210.25 44.179 210.603 43.767 210.658 43.319C210.714 42.8551 210.319 42.3791 209.474 41.8911L209.016 41.6271L207.063 43.163C206.342 43.723 206.349 44.215 207.083 44.639C207.416 44.8309 207.818 44.9269 208.289 44.9269C208.746 44.9189 209.183 44.7949 209.598 44.555ZM218.891 41.8778L220.721 40.0539C221.386 40.3259 222.113 40.4419 222.903 40.4019C223.693 40.3619 224.406 40.1579 225.044 39.79C226.859 38.742 226.818 37.6701 224.919 36.5742L224.171 36.1422C224.309 36.4942 224.261 36.8821 224.025 37.3061C223.79 37.7301 223.326 38.1421 222.633 38.542C221.275 39.326 219.667 39.71 217.811 39.694C215.968 39.67 214.333 39.246 212.905 38.422C211.52 37.6221 210.792 36.6822 210.723 35.6022C210.654 34.5223 211.305 33.5864 212.677 32.7944C213.425 32.3624 214.187 32.0825 214.963 31.9545C215.725 31.8185 216.397 31.8065 216.979 31.9185L215.774 31.2225L218.434 29.6866L227.559 34.9543C229.097 35.8422 229.928 36.8341 230.053 37.9301C230.192 39.034 229.36 40.1059 227.559 41.1459C226.215 41.9218 224.725 42.3658 223.09 42.4778C221.469 42.5818 220.069 42.3818 218.891 41.8778ZM220.741 36.8981C221.448 36.4902 221.788 36.0222 221.76 35.4942C221.746 34.9583 221.344 34.4623 220.554 34.0063C219.778 33.5584 218.919 33.3344 217.977 33.3344C217.049 33.3264 216.245 33.5184 215.566 33.9103C214.859 34.3183 214.506 34.7943 214.506 35.3382C214.52 35.8742 214.915 36.3662 215.691 36.8141C216.48 37.2701 217.34 37.5021 218.268 37.5101C219.196 37.5181 220.021 37.3141 220.741 36.8981ZM227.199 29.1865L231.772 26.5467C231.176 26.2347 230.49 26.0787 229.714 26.0787C228.952 26.0707 228.203 26.2787 227.469 26.7027C226.804 27.0866 226.471 27.5186 226.471 27.9986C226.471 28.4785 226.714 28.8745 227.199 29.1865ZM234.702 27.9266L237.695 26.9906C238.36 27.6946 238.589 28.4585 238.381 29.2825C238.187 30.0984 237.487 30.8544 236.282 31.5503C234.813 32.3983 233.074 32.8343 231.065 32.8583C229.042 32.8742 227.199 32.4023 225.536 31.4423C223.956 30.5304 223.167 29.4985 223.167 28.3465C223.153 27.1866 223.825 26.2147 225.183 25.4307C226.762 24.5188 228.467 24.0788 230.296 24.1108C232.139 24.1348 233.885 24.6228 235.534 25.5747C235.645 25.6387 235.762 25.7147 235.887 25.8027C236.026 25.8827 236.136 25.9467 236.22 25.9947L236.344 26.0907L229.028 30.3144C229.721 30.6824 230.538 30.8504 231.481 30.8184C232.423 30.7864 233.24 30.5704 233.933 30.1704C235.111 29.4905 235.367 28.7425 234.702 27.9266Z" fill="white"/>
<defs>
<linearGradient id="paint0_linear_1065_4478" x1="-7.33935e-07" y1="55.5205" x2="273.436" y2="43.9991" gradientUnits="userSpaceOnUse">
<stop stop-color="#7A2FD2"/>
<stop offset="1" stop-color="#EC7D60"/>
</linearGradient>
<clipPath id="clip0_1065_4478">
<rect width="33.2391" height="31.8427" fill="white" transform="matrix(0.866044 -0.499967 0.866044 0.499967 29.2969 127.424)"/>
</clipPath>
</defs>
</svg>
