<?xml version="1.0" encoding="UTF-8"?>
<svg width="24px" height="24px" viewBox="0 0 24 24" version="1.1" xmlns="http://www.w3.org/2000/svg" xmlns:xlink="http://www.w3.org/1999/xlink">
    <title>flask</title>
    <g id="flask" stroke="none" stroke-width="1" fill="none" fill-rule="evenodd">
        <g transform="translate(1.200000, 0.000000)" fill="#FFFFFF" fill-rule="nonzero" id="Shape">
            <path d="M3.6,24 C1.6117749,24 0,22.3882251 0,20.4 C0,19.68 0.216,19.008 0.6,18.444 L7.2,6.972 L7.2,4.8 C6.5372583,4.8 6,4.2627417 6,3.6 L6,2.4 C6,1.0745166 7.0745166,0 8.4,0 L13.2,0 C14.5254834,0 15.6,1.0745166 15.6,2.4 L15.6,3.6 C15.6,4.2627417 15.0627417,4.8 14.4,4.8 L14.4,6.972 L21,18.444 C21.384,19.008 21.6,19.68 21.6,20.4 C21.6,22.3882251 19.9882251,24 18,24 L3.6,24 M2.4,20.4 C2.4,21.0627417 2.9372583,21.6 3.6,21.6 L18,21.6 C18.6627417,21.6 19.2,21.0627417 19.2,20.4 C19.2,20.148 19.116,19.908 18.984,19.716 L16.236,14.964 L13.2,18 L7.116,11.916 L2.616,19.716 C2.484,19.908 2.4,20.148 2.4,20.4 M12,9.6 C11.3372583,9.6 10.8,10.1372583 10.8,10.8 C10.8,11.4627417 11.3372583,12 12,12 C12.6627417,12 13.2,11.4627417 13.2,10.8 C13.2,10.1372583 12.6627417,9.6 12,9.6 Z"></path>
        </g>
    </g>
</svg>