<svg width="192" height="192" viewBox="0 0 192 192" fill="none" xmlns="http://www.w3.org/2000/svg">
<g filter="url(#filter0_f_1241_4258)">
<circle cx="96" cy="96" r="87" fill="black" fill-opacity="0.87"/>
<circle cx="96" cy="96" r="84" stroke="url(#paint0_linear_1241_4258)" stroke-width="6"/>
</g>
<g clip-path="url(#clip0_1241_4258)">
<g filter="url(#filter1_d_1241_4258)">
<path d="M84.3803 66.9972L88.994 68.7182L89.7955 67.5736C90.0949 67.1461 90.4419 66.7616 90.8263 66.4246L88.8585 65.6906L91.086 64.86C91.441 64.7276 91.727 64.4564 91.8778 64.1089C92.0288 63.7613 92.032 63.3673 91.8864 63.0175L90.4594 59.5876L95.2721 62.8048C95.6276 63.0424 96.0723 63.1038 96.4793 62.9714C96.886 62.839 97.2092 62.5272 97.3565 62.1257L98.4653 59.1028L99.8581 61.0083C100.267 61.568 101.026 61.7417 101.638 61.417L104.084 60.1183L101.862 64.1351C101.667 64.4871 101.633 64.9061 101.77 65.2845C101.907 65.6629 102.2 65.9638 102.575 66.1098L104.726 66.9481L102.529 67.6558C102.444 67.6831 102.364 67.7185 102.289 67.7596L103.948 70.129L109.314 68.4006C109.876 68.2196 110.263 67.7049 110.28 67.1151C110.298 66.5252 109.943 65.988 109.393 65.7738L105.074 64.0901L108.799 57.3598C109.098 56.8196 109.006 56.1472 108.573 55.7071C108.14 55.2667 107.47 55.1633 106.924 55.4527L101.397 58.3869L99.179 55.353C98.8755 54.9378 98.3677 54.7228 97.8587 54.7951C97.3494 54.8667 96.921 55.213 96.7437 55.6959L95.348 59.5009L88.1747 54.7059C87.6635 54.3643 86.9891 54.3976 86.5141 54.7879C86.0392 55.1782 85.8758 55.8335 86.1119 56.401L88.7544 62.7525L84.3799 64.3839C83.8343 64.5874 83.4727 65.1084 83.4727 65.6906C83.473 66.2727 83.8347 66.7937 84.3803 66.9972Z" fill="url(#paint1_linear_1241_4258)"/>
</g>
<g filter="url(#filter2_d_1241_4258)">
<path d="M75.4545 78.947C78.7433 79.5206 81.886 77.3198 82.4611 74.021C83.0357 70.7259 80.8303 67.589 77.5351 67.0144C74.24 66.4398 71.1031 68.6452 70.5285 71.9403C69.9539 75.2353 72.1594 78.3723 75.4545 78.947Z" fill="url(#paint2_linear_1241_4258)"/>
</g>
<g filter="url(#filter3_d_1241_4258)">
<path d="M137.927 100.67L135.556 90.5843C135.42 90.0053 135.099 89.4861 134.642 89.1049L124.826 80.918C124.194 80.3916 123.406 80.2945 122.644 80.3172C122.285 80.328 113.347 81.929 113.347 81.929L104.998 78.1125L99.1578 69.772C98.4753 68.7972 97.219 68.3725 96.0882 68.7279C94.8974 68.2611 93.554 68.6897 92.8418 69.7071L87.0015 78.0474L78.6523 81.8641C78.6523 81.8641 70.0974 80.2744 69.3558 80.2523C68.5941 80.2296 67.8053 80.3268 67.174 80.8531L57.3576 89.04C56.9007 89.421 56.5801 89.9402 56.4438 90.5194L54.0734 100.605C53.7266 102.08 54.6415 103.557 56.1167 103.904C57.5902 104.25 59.0686 103.337 59.4157 101.861L61.5767 92.6676L64.5766 90.1657L58.9421 129.822C58.7158 131.572 59.9515 133.175 61.7021 133.402C63.453 133.628 65.0554 132.392 65.2817 130.642L68.5428 105.422L69.2785 105.55L78.0009 114.744L75.8044 129.769C75.5489 131.516 76.758 133.139 78.5046 133.394C80.2476 133.649 81.8738 132.443 82.1295 130.694L84.5506 114.133C84.6925 113.163 84.3814 112.182 83.7067 111.471L77.681 105.119C78.0516 102.994 80.5356 88.7488 80.8599 86.8894L89.9625 82.7285C90.4069 82.5254 90.789 82.207 91.0693 81.8069L95.9776 74.7975L100.931 81.8719C101.212 82.2721 101.594 82.5905 102.038 82.7935L111.141 86.9545C111.48 88.8986 113.849 102.486 114.182 104.396C111.965 114.423 112.113 113.729 112.087 113.915L109.868 129.789C109.624 131.537 110.843 133.153 112.592 133.397C114.339 133.641 115.955 132.422 116.199 130.674L118.4 114.925L120.368 106.026L123.466 105.485L126.719 130.641C126.945 132.393 128.549 133.627 130.298 133.401C132.049 133.175 133.285 131.572 133.058 129.821L129.769 104.386L127.424 90.2303L130.424 92.7321L132.585 101.925C132.932 103.4 134.408 104.315 135.884 103.969C137.359 103.622 138.273 102.145 137.927 100.67Z" fill="url(#paint3_linear_1241_4258)"/>
</g>
<g filter="url(#filter4_d_1241_4258)">
<path d="M109.538 74.0859C110.116 77.4004 113.272 79.5824 116.545 79.0119C119.84 78.4373 122.045 75.3004 121.471 72.0053C120.896 68.7101 117.759 66.5047 114.464 67.0793C111.169 67.6539 108.964 70.791 109.538 74.0859Z" fill="url(#paint4_linear_1241_4258)"/>
</g>
</g>
<defs>
<filter id="filter0_f_1241_4258" x="0" y="0" width="192" height="192" filterUnits="userSpaceOnUse" color-interpolation-filters="sRGB">
<feFlood flood-opacity="0" result="BackgroundImageFix"/>
<feBlend mode="normal" in="SourceGraphic" in2="BackgroundImageFix" result="shape"/>
<feGaussianBlur stdDeviation="4.5" result="effect1_foregroundBlur_1241_4258"/>
</filter>
<filter id="filter1_d_1241_4258" x="73.4727" y="44.4707" width="46.8086" height="35.6582" filterUnits="userSpaceOnUse" color-interpolation-filters="sRGB">
<feFlood flood-opacity="0" result="BackgroundImageFix"/>
<feColorMatrix in="SourceAlpha" type="matrix" values="0 0 0 0 0 0 0 0 0 0 0 0 0 0 0 0 0 0 127 0" result="hardAlpha"/>
<feOffset/>
<feGaussianBlur stdDeviation="5"/>
<feComposite in2="hardAlpha" operator="out"/>
<feColorMatrix type="matrix" values="0 0 0 0 0 0 0 0 0 0 0 0 0 0 0 0 0 0 0.25 0"/>
<feBlend mode="normal" in2="BackgroundImageFix" result="effect1_dropShadow_1241_4258"/>
<feBlend mode="normal" in="SourceGraphic" in2="effect1_dropShadow_1241_4258" result="shape"/>
</filter>
<filter id="filter2_d_1241_4258" x="60.4375" y="56.9233" width="32.1152" height="32.1147" filterUnits="userSpaceOnUse" color-interpolation-filters="sRGB">
<feFlood flood-opacity="0" result="BackgroundImageFix"/>
<feColorMatrix in="SourceAlpha" type="matrix" values="0 0 0 0 0 0 0 0 0 0 0 0 0 0 0 0 0 0 127 0" result="hardAlpha"/>
<feOffset/>
<feGaussianBlur stdDeviation="5"/>
<feComposite in2="hardAlpha" operator="out"/>
<feColorMatrix type="matrix" values="0 0 0 0 0 0 0 0 0 0 0 0 0 0 0 0 0 0 0.25 0"/>
<feBlend mode="normal" in2="BackgroundImageFix" result="effect1_dropShadow_1241_4258"/>
<feBlend mode="normal" in="SourceGraphic" in2="effect1_dropShadow_1241_4258" result="shape"/>
</filter>
<filter id="filter3_d_1241_4258" x="44" y="58.5396" width="104" height="84.8887" filterUnits="userSpaceOnUse" color-interpolation-filters="sRGB">
<feFlood flood-opacity="0" result="BackgroundImageFix"/>
<feColorMatrix in="SourceAlpha" type="matrix" values="0 0 0 0 0 0 0 0 0 0 0 0 0 0 0 0 0 0 127 0" result="hardAlpha"/>
<feOffset/>
<feGaussianBlur stdDeviation="5"/>
<feComposite in2="hardAlpha" operator="out"/>
<feColorMatrix type="matrix" values="0 0 0 0 0 0 0 0 0 0 0 0 0 0 0 0 0 0 0.25 0"/>
<feBlend mode="normal" in2="BackgroundImageFix" result="effect1_dropShadow_1241_4258"/>
<feBlend mode="normal" in="SourceGraphic" in2="effect1_dropShadow_1241_4258" result="shape"/>
</filter>
<filter id="filter4_d_1241_4258" x="99.4473" y="56.9883" width="32.1152" height="32.1143" filterUnits="userSpaceOnUse" color-interpolation-filters="sRGB">
<feFlood flood-opacity="0" result="BackgroundImageFix"/>
<feColorMatrix in="SourceAlpha" type="matrix" values="0 0 0 0 0 0 0 0 0 0 0 0 0 0 0 0 0 0 127 0" result="hardAlpha"/>
<feOffset/>
<feGaussianBlur stdDeviation="5"/>
<feComposite in2="hardAlpha" operator="out"/>
<feColorMatrix type="matrix" values="0 0 0 0 0 0 0 0 0 0 0 0 0 0 0 0 0 0 0.25 0"/>
<feBlend mode="normal" in2="BackgroundImageFix" result="effect1_dropShadow_1241_4258"/>
<feBlend mode="normal" in="SourceGraphic" in2="effect1_dropShadow_1241_4258" result="shape"/>
</filter>
<linearGradient id="paint0_linear_1241_4258" x1="40.5" y1="187" x2="148" y2="12.5" gradientUnits="userSpaceOnUse">
<stop stop-color="#8328D0"/>
<stop offset="1" stop-color="#ED0387"/>
</linearGradient>
<linearGradient id="paint1_linear_1241_4258" x1="99.7052" y1="59.1769" x2="92.4362" y2="77.5596" gradientUnits="userSpaceOnUse">
<stop stop-color="#ED0387"/>
<stop offset="1" stop-color="#D0C928"/>
</linearGradient>
<linearGradient id="paint2_linear_1241_4258" x1="77.773" y1="70.5644" x2="70.1382" y2="81.8419" gradientUnits="userSpaceOnUse">
<stop stop-color="#ED0387"/>
<stop offset="1" stop-color="#D0C928"/>
</linearGradient>
<linearGradient id="paint3_linear_1241_4258" x1="104.862" y1="88.0422" x2="68.6873" y2="157.214" gradientUnits="userSpaceOnUse">
<stop stop-color="#ED0387"/>
<stop offset="1" stop-color="#D0C928"/>
</linearGradient>
<linearGradient id="paint4_linear_1241_4258" x1="116.783" y1="70.6293" x2="109.148" y2="81.9066" gradientUnits="userSpaceOnUse">
<stop stop-color="#ED0387"/>
<stop offset="1" stop-color="#D0C928"/>
</linearGradient>
<clipPath id="clip0_1241_4258">
<rect width="84" height="84" fill="white" transform="translate(54 52)"/>
</clipPath>
</defs>
</svg>
