<svg width="1000" height="768" viewBox="0 0 1000 768" fill="none" xmlns="http://www.w3.org/2000/svg">
<path fill-rule="evenodd" clip-rule="evenodd" d="M373.711 126.853C366.658 130.925 366.658 137.527 373.711 141.599C380.764 145.671 392.2 145.671 399.253 141.599C406.306 137.527 406.306 130.925 399.253 126.853C392.2 122.782 380.764 122.782 373.711 126.853ZM344.265 158.598C320.95 145.138 320.95 123.315 344.265 109.854C367.581 96.3944 405.383 96.3944 428.698 109.854C452.014 123.315 452.014 145.138 428.698 158.598C405.383 172.058 367.581 172.058 344.265 158.598Z" fill="#FF9797"/>
<path fill-rule="evenodd" clip-rule="evenodd" d="M790.969 198.434C783.915 202.506 783.915 209.108 790.969 213.179C798.022 217.251 809.458 217.251 816.511 213.179C823.564 209.108 823.564 202.506 816.511 198.434C809.458 194.362 798.022 194.362 790.969 198.434ZM761.523 230.178C738.208 216.718 738.208 194.895 761.523 181.435C784.839 167.975 822.641 167.975 845.956 181.435C869.272 194.895 869.272 216.718 845.956 230.178C822.641 243.638 784.839 243.638 761.523 230.178Z" fill="#FF9797"/>
<path fill-rule="evenodd" clip-rule="evenodd" d="M61.0351 307.361C53.9819 311.433 53.9819 318.034 61.0351 322.106C68.0884 326.178 79.524 326.178 86.5772 322.106C93.6305 318.034 93.6305 311.433 86.5772 307.361C79.524 303.289 68.0884 303.289 61.0351 307.361ZM31.5896 339.105C8.27404 325.645 8.27404 303.822 31.5896 290.362C54.9052 276.902 92.7072 276.902 116.023 290.362C139.338 303.822 139.338 325.645 116.023 339.105C92.7072 352.565 54.9052 352.565 31.5896 339.105Z" fill="#FF9797"/>
<path fill-rule="evenodd" clip-rule="evenodd" d="M918.195 441.184C911.142 445.256 911.142 451.858 918.195 455.93C925.249 460.002 936.684 460.002 943.737 455.93C950.791 451.858 950.791 445.256 943.737 441.184C936.684 437.113 925.249 437.113 918.195 441.184ZM888.75 472.929C865.434 459.469 865.434 437.646 888.75 424.186C912.065 410.725 949.867 410.725 973.183 424.186C996.498 437.646 996.498 459.469 973.183 472.929C949.867 486.389 912.065 486.389 888.75 472.929Z" fill="#FF9797"/>
<path fill-rule="evenodd" clip-rule="evenodd" d="M176.404 553.223C169.351 557.295 169.351 563.897 176.404 567.969C183.458 572.041 194.893 572.041 201.946 567.969C209 563.897 209 557.295 201.946 553.223C194.893 549.152 183.458 549.152 176.404 553.223ZM146.959 584.968C123.643 571.508 123.643 549.685 146.959 536.225C170.274 522.765 208.076 522.765 231.392 536.225C254.707 549.685 254.707 571.508 231.392 584.968C208.076 598.428 170.274 598.428 146.959 584.968Z" fill="#FF9797"/>
<path fill-rule="evenodd" clip-rule="evenodd" d="M398.977 122.282C398.966 122.288 398.961 122.295 398.952 122.3L389.792 117.012C383.977 113.655 370.571 115.953 362.289 120.734C354.007 125.515 350.734 132.846 356.549 136.203L365.709 141.491C365.699 141.497 365.688 141.5 365.678 141.506C363.222 142.923 363.404 145.327 366.084 146.874C368.764 148.421 372.928 148.526 375.384 147.109C375.394 147.103 375.399 147.096 375.408 147.091C375.408 147.091 380.649 150.856 384.263 152.943C387.877 155.029 407.697 151.593 407.697 151.593L412.046 149.221L416.25 146.793C416.25 146.793 422.295 135.157 418.683 133.072C415.071 130.987 408.651 127.9 408.651 127.9C408.661 127.894 408.672 127.891 408.683 127.885C411.138 126.468 410.956 124.064 408.276 122.517C405.596 120.97 401.432 120.865 398.977 122.282Z" fill="white"/>
<path fill-rule="evenodd" clip-rule="evenodd" d="M392.847 143.919L394.937 145.097L405.096 139.085L403.006 137.908L392.847 143.919ZM407.239 126.929L405.403 127.987L405.867 128.211L405.354 128.264L408.303 137.884L411.182 137.586L408.734 129.599C410.831 130.629 414.672 132.548 417.129 133.967C418.492 134.801 417.145 140.546 414.306 146.126L412.05 147.429L406.523 144.239L403.418 146.032L408.9 149.197L406.577 150.466C397.044 152.086 387.23 152.839 385.816 152.045C383.682 150.813 380.926 148.952 379.095 147.683L391.498 148.95L392.014 147.288L376.261 145.678L375.592 145.197L373.741 146.267C372.131 147.131 369.424 147.008 367.638 145.977C365.857 144.949 365.639 143.391 367.122 142.461L367.671 142.144C371.87 144.315 378.35 144.238 382.395 141.903C384.671 140.589 385.703 138.829 385.506 137.108L388.33 138.738C390.751 140.135 394.694 140.132 397.12 138.731L395.055 137.539C393.771 138.281 391.682 138.283 390.4 137.542L383.463 133.538L385.052 132.62C389.253 134.548 395.408 134.39 399.303 132.142C403.347 129.807 403.48 126.066 399.721 123.643L400.619 123.123C402.229 122.259 404.936 122.382 406.723 123.414C408.504 124.442 408.721 125.999 407.239 126.929ZM358.102 135.306C353.403 132.593 356.136 126.073 363.837 121.628C371.62 117.134 383.707 115.292 388.238 117.908L396.683 122.783C393.96 122.778 390.556 124.131 387.991 125.612C385.06 127.305 382.417 129.629 383.249 131.277L380.896 132.635C378.041 132.155 374.015 133.681 371.083 135.373C368.729 136.732 366.562 138.5 366.226 139.996L358.102 135.306ZM409.829 121.621C406.861 119.907 402.456 119.56 399.163 120.629L391.344 116.115C391.26 116.067 391.164 116.032 391.078 115.986L390.742 113.345C382.138 108.975 364.215 110.581 357.486 114.465L355.071 115.859L354.553 116.158L352.138 117.552C345.409 121.437 342.629 131.784 350.197 136.751L354.802 136.968C354.872 137.01 354.925 137.058 354.996 137.099L362.815 141.612C360.963 143.514 361.565 146.057 364.533 147.77C367.446 149.452 371.746 149.817 375.018 148.819C376.826 150.085 380.137 152.352 382.71 153.838C386.807 156.203 401.988 153.904 408.324 152.805L408.823 152.718L413.549 150.139L413.573 150.126L418.191 147.459L418.35 147.153C420.281 143.437 424.33 134.538 420.236 132.174C417.666 130.69 413.783 128.749 411.629 127.691C413.378 125.8 412.751 123.308 409.829 121.621Z" fill="#16181C"/>
<path fill-rule="evenodd" clip-rule="evenodd" d="M950.141 438.063C949.9 438.161 949.709 438.287 949.537 438.416L948.022 439.552L946.257 438.569C940.622 435.432 935.521 433.57 930.668 432.969L928.39 433.406L926.072 447.592L921.211 435.259L920.716 442.418L923.993 447.578L920.55 444.829L920.354 447.656L919.292 443.823L913.765 439.411L917.381 448.336L910.879 442.193L912.332 449.004L909.058 444.382C909.058 444.382 911.791 449.501 911.708 451.499C911.678 452.244 910.954 452.887 910.058 453.401C911.257 454.376 912.644 455.377 914.258 456.414L915.897 457.467L913.878 458.303C913.648 458.398 913.427 458.501 913.244 458.64C912.729 459.027 912.475 459.46 912.526 459.858C912.576 460.238 912.894 460.56 913.472 460.814L915.957 462C917.122 462.512 918.979 462.385 919.965 461.64C920.06 461.567 920.131 461.487 920.204 461.409L921.648 459.863L923.738 461.112C926.753 462.916 931.791 465.268 934.999 466.079C938.675 467.009 951.787 465.731 956.424 463.145C961.041 460.57 963.787 453.534 962.481 451.33C961.405 449.52 957.704 446.39 954.052 444.207L951.962 442.957L954.689 442.177C954.827 442.139 954.969 442.102 955.097 442.048C956.447 441.491 956.714 440.442 955.811 439.706L953.949 438.311C953.479 437.928 952.932 437.733 952.278 437.691C951.588 437.647 950.829 437.779 950.141 438.063Z" fill="white"/>
<path fill-rule="evenodd" clip-rule="evenodd" d="M945.945 445.297L941.323 447.966L942.648 448.73L947.27 446.062C949.038 445.041 948.057 443.316 948.027 443.25L946.907 443.312C946.907 443.324 947.097 444.632 945.945 445.297ZM927.662 457.382L932.274 454.719L930.949 453.954L926.337 456.617C925.177 457.286 922.922 457.171 922.9 457.172L922.793 457.818C922.907 457.835 925.896 458.401 927.662 457.382ZM953.57 438.133L955.474 439.507C956.398 440.234 956.163 441.287 954.832 441.856C954.704 441.911 954.564 441.95 954.428 441.991L954.167 442.068C953.721 441.576 953.159 441.11 952.461 440.691C951.209 439.943 949.692 439.427 948.062 439.137L949.161 438.283C949.33 438.152 949.515 438.025 949.754 437.922C950.434 437.631 951.189 437.492 951.88 437.529C952.536 437.565 953.088 437.754 953.57 438.133ZM936.865 440.743C933.135 442.824 932.327 445.971 934.543 448.391L931.659 449.998C927.549 448.635 922.077 448.992 918.347 451.071C915.467 452.677 914.333 454.921 914.981 456.974L914.425 456.63C912.781 455.609 911.361 454.623 910.134 453.661C911.014 453.138 911.719 452.487 911.727 451.743C911.749 449.744 908.861 444.655 908.861 444.655L912.274 449.242L910.614 442.448L917.304 448.524L913.417 439.638L919.076 443.993L920.257 447.813L920.367 444.986L923.894 447.7L920.46 442.574L920.737 435.412L925.973 447.692L927.861 433.488L930.126 433.028C934.998 433.579 940.155 435.389 945.884 438.469L946.794 438.958C943.372 438.604 939.636 439.199 936.865 440.743ZM949.795 448.478C946.495 450.32 941.36 450.356 938.355 448.558C935.35 446.761 935.59 443.799 938.894 441.957C942.196 440.116 947.328 440.08 950.335 441.877C953.34 443.676 953.098 446.636 949.795 448.478ZM919.836 458.885C916.831 457.088 917.072 454.126 920.375 452.284C923.678 450.443 928.808 450.407 931.814 452.206C934.821 454.003 934.579 456.964 931.278 458.805C927.975 460.648 922.843 460.684 919.836 458.885ZM962.498 451.06C963.87 453.251 961.339 460.311 956.8 462.932C952.24 465.564 939.166 466.974 935.461 466.082C932.623 465.399 928.345 463.545 925.263 461.903C928.124 461.91 931.038 461.283 933.307 460.019C937.764 457.531 938.061 453.516 933.985 451.046L936.275 449.77C940.405 452.21 947.364 452.179 951.823 449.691C954.168 448.384 955.351 446.654 955.365 444.949C958.551 446.99 961.521 449.507 962.498 451.06ZM920.744 461.317L920.524 461.563C920.452 461.643 920.385 461.723 920.291 461.797C919.326 462.551 917.475 462.696 916.294 462.197L913.773 461.036C913.188 460.789 912.86 460.47 912.797 460.091C912.734 459.692 912.975 459.257 913.478 458.865C913.657 458.726 913.877 458.619 914.103 458.522L915.428 457.954C915.91 458.726 916.669 459.449 917.71 460.071C918.603 460.606 919.635 461.016 920.744 461.317ZM956.533 435.189C960.112 435.12 963.171 435.359 963.171 435.359C960.551 434.218 957.139 433.371 954.017 432.84C955.952 432.988 957.306 433.18 957.306 433.18C955.169 432.603 952.518 431.945 949.883 431.385C952.936 431.66 955.241 431.988 955.241 431.988C950.657 430.751 942.07 427.448 936.091 427.805C935.591 427.654 934.961 427.535 934.159 427.464C927.585 426.889 910.607 427.35 902.054 433.481C897.258 436.918 893.451 441.627 892.561 446.313C891.655 451.076 894.6 455.752 896.447 457.607C896.874 458.543 897.503 459.542 898.402 460.62C898.402 460.62 898.569 459.576 899.308 458.172C899.334 458.164 899.357 458.159 899.382 458.15C899.454 459.755 900.211 461.607 902.004 463.756C902.004 463.756 902.217 462.447 903.2 460.79C903.697 462.535 905.162 464.49 908.139 466.661C908.139 466.661 907.916 465.649 908.098 464.218C908.115 464.245 908.115 464.271 908.135 464.299C909.76 466.554 912.992 468.738 918.82 470.534C918.82 470.534 917.542 469.166 916.578 467.098C917.637 467.568 918.882 468.004 920.332 468.396C921.513 469.915 923.299 471.526 925.873 473.225C925.873 473.225 925.241 471.142 925.746 468.486C928.482 469.81 933.153 471.12 937.831 471.845C937.831 471.845 933.969 470.144 931.693 467.847C932.401 468.075 933.089 468.281 933.721 468.433C939.221 469.758 954.22 467.997 959.898 464.72C965.526 461.471 968.673 453.398 966.643 450.167C966.297 449.616 965.795 449.014 965.194 448.391C967.896 449.736 970.857 450.926 973.387 451.318C973.387 451.318 966.344 446.277 964.176 443.029C966.186 443.418 967.536 443.911 967.536 443.911C965.937 442.048 964.099 440.891 962.206 440.206C964.867 440.718 966.653 441.372 966.653 441.372C964.52 438.886 962.065 437.355 959.535 436.458C958.51 435.968 957.509 435.545 956.533 435.189ZM951.965 460.255C955.49 458.22 956.221 454.947 955.833 452.562L938.641 462.487C942.803 462.718 948.442 462.289 951.965 460.255ZM943.985 455.49C945.271 454.747 945.378 453.614 944.231 452.951L943.185 453.555C943.763 453.889 943.653 454.489 942.952 454.894C942.251 455.298 941.211 455.363 940.632 455.029L939.587 455.633C940.734 456.295 942.708 456.227 943.985 455.49Z" fill="#16181C"/>
<path fill-rule="evenodd" clip-rule="evenodd" d="M72.4671 307.44C62.4049 308.391 55.3091 309.581 46.6962 314.277C46.699 314.28 46.6999 314.282 46.7027 314.285C47.1759 315.008 47.805 315.744 48.5756 316.497C48.659 316.578 48.7414 316.659 48.8276 316.74C49.0556 316.954 49.2911 317.169 49.5425 317.386C49.7763 317.586 50.0252 317.788 50.2787 317.99C50.5462 318.204 50.8258 318.419 51.1139 318.636C51.4364 318.875 51.7664 319.116 52.117 319.36C52.29 319.481 52.4649 319.602 52.6444 319.724C53.1803 320.084 53.7312 320.446 54.3261 320.816L55.8345 321.751L54.0286 322.527C53.8991 322.583 53.7732 322.642 53.6567 322.71C53.5885 322.749 53.5249 322.79 53.465 322.836C53.0079 323.192 52.7879 323.585 52.8456 323.946C52.8998 324.289 53.1953 324.577 53.7238 324.8L53.8833 324.875C53.93 324.899 58.9148 327.418 61.5384 325.917L62.9586 325.104L64.3505 325.907C64.6244 326.066 64.9116 326.215 65.2083 326.359C65.24 326.374 65.2718 326.387 65.3025 326.401C65.3735 326.433 65.4435 326.464 65.5144 326.496C65.7179 326.588 65.9195 326.681 66.1296 326.766C66.2548 326.817 66.3847 326.864 66.5127 326.912C66.707 326.986 66.9023 327.06 67.1042 327.13C67.2463 327.179 67.3941 327.225 67.539 327.271C67.7391 327.335 67.9393 327.397 68.1423 327.455C68.2864 327.497 68.4343 327.536 68.5803 327.576C68.7927 327.633 69.007 327.689 69.2242 327.741C69.3712 327.776 69.5192 327.81 69.6699 327.844C69.8928 327.895 70.1195 327.942 70.3471 327.987L70.4811 328.014C70.5851 328.034 70.6881 328.054 70.7921 328.074C71.032 328.118 71.2747 328.16 71.5175 328.2C71.629 328.219 71.7396 328.237 71.8521 328.255C71.8821 328.259 71.9121 328.264 71.9421 328.268C72.213 328.31 72.484 328.347 72.7578 328.382C72.7906 328.387 72.8253 328.392 72.8581 328.396C72.9454 328.407 73.0307 328.42 73.116 328.43C73.4264 328.468 73.7407 328.501 74.0559 328.532L74.1516 328.543C74.2013 328.548 74.252 328.554 74.3017 328.558C74.8186 328.607 75.3395 328.649 75.8604 328.681C75.8708 328.682 75.8811 328.682 75.8905 328.683C76.3861 328.715 76.8827 328.739 77.3804 328.757C77.4208 328.758 77.4602 328.76 77.4997 328.761C78.5308 328.797 79.5594 328.807 80.5696 328.794C80.6043 328.794 80.6391 328.793 80.6748 328.792C81.0573 328.787 81.4379 328.779 81.8158 328.767C81.8233 328.767 81.8289 328.767 81.8355 328.767L81.8496 328.766C82.2491 328.753 82.6439 328.739 83.0351 328.72C85.6807 328.595 88.1009 328.339 89.9861 328.049C89.9946 328.047 90.005 328.045 90.0153 328.044C90.4598 327.975 90.8676 327.905 91.2473 327.834C91.2869 327.827 91.3264 327.819 91.3651 327.812C91.7203 327.744 92.0426 327.676 92.3311 327.608C92.3707 327.599 92.4084 327.591 92.448 327.581C92.7242 327.514 92.9695 327.448 93.1715 327.385C93.1951 327.376 93.213 327.37 93.2357 327.363C93.4377 327.297 93.6049 327.232 93.7186 327.172C93.8086 327.116 93.9067 327.031 94.0067 326.935C94.0248 326.917 94.0439 326.899 94.062 326.88C94.1593 326.779 94.2597 326.661 94.3613 326.527C94.3785 326.504 94.3958 326.48 94.4111 326.457C94.5185 326.312 94.6251 326.154 94.7329 325.977L94.7358 325.972C94.8456 325.788 94.9557 325.584 95.065 325.369C95.0767 325.342 95.0921 325.316 95.1047 325.29C95.2141 325.069 95.3209 324.837 95.4231 324.588C95.428 324.579 95.4309 324.57 95.4348 324.56C95.6501 324.041 95.8474 323.465 96.0171 322.847C96.0182 322.836 96.0221 322.824 96.026 322.813C96.7882 319.975 96.8892 316.29 94.8746 313.294C94.87 313.289 94.8672 313.284 94.8626 313.28C94.6768 313.005 94.4722 312.736 94.2515 312.474C94.2404 312.462 94.2303 312.449 94.2192 312.436C93.9901 312.17 93.7421 311.91 93.4742 311.659C93.4631 311.65 93.451 311.641 93.4418 311.631C93.4362 311.627 93.4306 311.623 93.426 311.618C93.4047 311.598 93.3768 311.578 93.3554 311.558C87.6455 308.446 81.5791 306.578 72.4671 307.44Z" fill="white"/>
<path fill-rule="evenodd" clip-rule="evenodd" d="M82.4997 320.733C80.832 321.696 81.2257 323.486 83.3806 324.73C85.5346 325.973 88.6345 326.2 90.3022 325.238C91.9699 324.275 91.5761 322.485 89.4222 321.242C87.2673 319.998 84.1673 319.77 82.4997 320.733ZM74.1906 312.904L75.5188 312.86C75.4722 312.193 75.6683 311.569 76.0719 311.017C76.1468 311.163 76.2706 311.304 76.4473 311.429C77.1661 311.937 78.4739 312.007 79.367 311.583C80.2601 311.16 80.4027 310.403 79.683 309.894C79.325 309.642 78.8244 309.498 78.3016 309.469C79.3106 309.087 80.4706 308.91 81.6062 308.995L81.7969 308.233C79.9818 308.1 78.1133 308.463 76.6684 309.228C74.9959 310.136 74.0871 311.436 74.1906 312.904ZM93.4247 311.618C93.4293 311.622 93.4349 311.627 93.4404 311.631C93.4497 311.641 93.4608 311.649 93.472 311.659C93.7408 311.909 93.9887 312.17 94.2179 312.435C94.2289 312.448 94.2381 312.461 94.2502 312.474C94.4709 312.736 94.6755 313.005 94.8613 313.28C94.865 313.285 94.8686 313.289 94.8733 313.294C96.8879 316.29 96.7869 319.975 96.0238 322.812C96.0208 322.824 96.0169 322.836 96.0158 322.847C95.8461 323.465 95.6488 324.041 95.4335 324.56C95.4296 324.57 95.4267 324.579 95.4218 324.588C95.3186 324.836 95.2128 325.069 95.1034 325.29C95.0908 325.316 95.0754 325.342 95.0637 325.368C94.9535 325.584 94.8443 325.788 94.7336 325.972L94.7307 325.976C94.6238 326.154 94.5172 326.312 94.4098 326.457C94.3945 326.48 94.3772 326.504 94.3599 326.527C94.2584 326.661 94.1571 326.779 94.0607 326.88C94.0426 326.899 94.0235 326.917 94.0045 326.934C93.9053 327.031 93.8073 327.116 93.7172 327.172C93.6036 327.232 93.4364 327.296 93.2344 327.362C93.2117 327.37 93.1938 327.376 93.1702 327.384C92.9672 327.448 92.7229 327.514 92.4467 327.581C92.4061 327.59 92.3693 327.599 92.3298 327.608C92.0413 327.676 91.719 327.744 91.3637 327.812C91.3251 327.819 91.2855 327.827 91.246 327.834C90.8663 327.905 90.4585 327.975 90.014 328.044C90.0036 328.045 89.9933 328.047 89.9839 328.048C88.0996 328.339 85.6794 328.595 83.0337 328.719C82.6426 328.739 82.2478 328.753 81.8483 328.766L81.8333 328.766C81.8267 328.767 81.8211 328.767 81.8145 328.767C81.4366 328.779 81.056 328.787 80.6735 328.792C80.6378 328.792 80.603 328.794 80.5683 328.794C79.5581 328.807 78.5294 328.797 77.4984 328.761C77.4589 328.76 77.4186 328.758 77.3791 328.757C76.8814 328.739 76.3848 328.714 75.8892 328.683C75.8798 328.682 75.8695 328.682 75.8591 328.681C75.3382 328.649 74.8173 328.607 74.3004 328.558C74.2506 328.554 74.2 328.548 74.1503 328.543L74.0546 328.532C73.7394 328.501 73.4251 328.468 73.1147 328.429C73.0293 328.42 72.944 328.406 72.8568 328.395C72.824 328.392 72.7893 328.387 72.7565 328.382C72.4827 328.347 72.2108 328.309 71.9408 328.268C71.9098 328.263 71.8808 328.259 71.8498 328.254C71.7383 328.237 71.6277 328.219 71.5162 328.2C71.2734 328.16 71.0307 328.118 70.7908 328.074C70.6868 328.054 70.5838 328.034 70.4788 328.014L70.3458 327.987C70.1182 327.942 69.8915 327.895 69.6686 327.844C69.5179 327.81 69.3699 327.776 69.2229 327.741C69.0057 327.689 68.7914 327.633 68.5789 327.576C68.432 327.536 68.2851 327.497 68.141 327.455C67.938 327.397 67.7378 327.335 67.5377 327.271C67.3928 327.225 67.245 327.179 67.1029 327.129C66.901 327.06 66.7057 326.985 66.5114 326.912C66.3834 326.864 66.2534 326.817 66.1283 326.766C65.9182 326.681 65.7166 326.588 65.5131 326.496C65.4422 326.464 65.3712 326.433 65.3012 326.401C65.2704 326.387 65.2377 326.373 65.207 326.359C64.9103 326.215 64.6231 326.065 64.3483 325.907L62.9573 325.104L61.5361 325.917C58.9135 327.418 53.9286 324.899 53.882 324.875L53.7225 324.8C53.194 324.576 52.8985 324.289 52.8443 323.946C52.7866 323.585 53.0066 323.192 53.4637 322.836C53.5236 322.79 53.5862 322.748 53.6544 322.709C53.771 322.642 53.8977 322.582 54.0273 322.527L55.8331 321.751L54.3248 320.816C53.7299 320.446 53.179 320.083 52.6431 319.724C52.4636 319.601 52.2887 319.481 52.1157 319.36C51.7651 319.116 51.4351 318.875 51.1126 318.636C50.8245 318.419 50.5448 318.204 50.2774 317.99C50.0239 317.788 49.775 317.586 49.5412 317.386C49.2898 317.169 49.0543 316.954 48.8263 316.74C48.7401 316.659 48.6577 316.578 48.5734 316.497C47.8027 315.745 47.1746 315.008 46.7013 314.285C46.6986 314.282 46.6977 314.279 46.6949 314.277C55.3078 309.581 62.4036 308.391 72.4658 307.44C73.4085 307.351 74.3122 307.298 75.193 307.265C75.1334 307.295 75.0749 307.313 75.0143 307.345C72.6541 308.566 71.4867 310.523 71.0014 311.583L72.2868 311.767C72.645 310.982 73.7136 309.033 75.89 307.912C76.4798 307.607 77.0475 307.4 77.5854 307.244C83.9862 307.38 88.786 309.069 93.3541 311.558C93.3754 311.578 93.4024 311.597 93.4247 311.618ZM96.0709 299.46C86.7465 294.624 62.897 288.761 44.863 299.71C36.2925 304.913 27.2062 318.509 51.2319 329.917C64.2049 336.077 77.6305 339.687 77.6305 339.687C77.6305 339.687 81.1718 338.449 82.4278 332.884C82.5889 332.278 82.706 331.659 82.8035 331.035C86.9118 330.858 90.6442 330.367 93.2361 329.809C93.2389 329.808 93.2418 329.808 93.2446 329.807C93.7582 329.697 94.2269 329.583 94.6447 329.47C94.6541 329.468 94.6598 329.465 94.6683 329.463C95.0796 329.35 95.4449 329.237 95.7509 329.124L95.7641 329.119C96.0721 329.006 96.3236 328.894 96.5122 328.785C96.625 328.72 96.7398 328.638 96.8558 328.548C96.89 328.522 96.9233 328.492 96.9566 328.464C97.0432 328.392 97.1307 328.313 97.2194 328.228C97.2518 328.195 97.2861 328.162 97.3195 328.127C97.4225 328.021 97.5266 327.907 97.6299 327.785C97.6433 327.768 97.6576 327.752 97.6729 327.733C97.9235 327.431 98.172 327.079 98.4126 326.687L98.4463 326.63C98.5628 326.44 98.6747 326.241 98.7858 326.033C98.7887 326.027 98.7916 326.022 98.7945 326.016C99.0312 325.569 99.2544 325.085 99.4565 324.569C99.4584 324.63 99.4597 324.665 99.4597 324.665C99.4597 324.665 122.83 313.338 96.0709 299.46ZM68.7005 316.073C66.1581 316.013 63.9143 316.536 62.3349 317.503C61.0092 318.337 60.3809 319.416 60.6117 320.463L61.9314 320.353C61.7841 319.698 62.0908 319.028 62.7514 318.446C62.8024 318.748 63.0509 319.037 63.4885 319.243C64.3703 319.658 65.6803 319.577 66.4141 319.06C67.1469 318.546 67.0265 317.79 66.1456 317.376C65.9282 317.273 65.6869 317.202 65.432 317.159C66.3881 316.925 67.4692 316.813 68.6244 316.84L68.7005 316.073ZM79.9245 319.383C81.0843 318.714 81.1886 317.685 80.16 317.092L79.2125 317.639C79.7286 317.937 79.6296 318.478 78.9928 318.845C78.3561 319.213 77.4185 319.27 76.9024 318.972L75.9548 319.519C76.9834 320.113 78.7647 320.053 79.9245 319.383ZM66.7314 314.974L66.4144 314.233C64.5782 314.512 61.1944 315.189 59.0718 316.548C56.0774 318.482 57.0389 320.251 57.0811 320.325L58.3455 320.077C58.3145 320.019 57.6028 318.637 60.0556 317.054C62.018 315.794 65.3726 315.18 66.7314 314.974Z" fill="#16181C"/>
<path fill-rule="evenodd" clip-rule="evenodd" d="M201.581 548.896C201.57 548.902 201.565 548.909 201.555 548.914L192.241 543.537C186.329 540.124 172.568 542.535 164.025 547.467C155.483 552.399 152.036 559.921 157.949 563.335L167.262 568.711C167.253 568.717 167.241 568.72 167.23 568.726C164.698 570.188 164.853 572.649 167.578 574.223C170.303 575.796 174.567 575.885 177.099 574.423C177.11 574.417 177.115 574.411 177.125 574.405C177.125 574.405 182.444 578.239 186.118 580.36C189.793 582.482 210.137 578.878 210.137 578.878L214.62 576.43L218.958 573.925C218.958 573.925 225.297 561.983 221.624 559.863C217.952 557.742 211.418 554.608 211.418 554.608C211.427 554.602 211.439 554.599 211.45 554.593C213.981 553.131 213.826 550.67 211.101 549.097C208.377 547.523 204.113 547.434 201.581 548.896Z" fill="white"/>
<path fill-rule="evenodd" clip-rule="evenodd" d="M209.982 553.62L208.09 554.711L209.965 555.611C210.031 555.642 216.464 558.732 220.022 560.786C221.408 561.634 219.956 567.524 216.975 573.251L214.648 574.596L209.028 571.351L205.825 573.201L211.399 576.419L209.003 577.728C199.22 579.428 189.159 580.241 187.721 579.434C184.175 577.388 178.942 573.621 178.89 573.583L177.337 572.465L175.428 573.568C173.768 574.46 170.997 574.346 169.181 573.297C167.37 572.251 167.168 570.657 168.699 569.699L169.266 569.371C173.537 571.577 180.175 571.47 184.348 569.061C186.696 567.706 187.775 565.899 187.597 564.137L190.467 565.794C191.081 566.149 191.794 566.414 192.556 566.589L190.414 567.825C187.197 569.683 186.856 572.508 189.656 574.124L197.893 578.88L201.097 577.03L192.859 572.275C191.815 571.672 192.136 570.467 193.563 569.643L202.951 564.224C202.776 564.934 201.59 566.226 199.299 567.548C197.393 568.649 195.196 569.47 193.7 569.642L194.235 571.338C196.344 571.097 199.024 570.131 201.399 568.76C203.963 567.28 205.658 565.644 205.933 564.385L202.994 564.199L203.517 563.897C204.943 563.074 207.029 562.888 208.074 563.491L216.312 568.247L219.515 566.398L211.277 561.642C208.478 560.026 203.585 560.222 200.368 562.079L195.118 565.11C194.207 565.136 193.289 564.958 192.602 564.561L185.549 560.489L187.188 559.543C191.464 561.501 197.77 561.312 201.788 558.993C205.961 556.584 206.144 552.753 202.327 550.287L203.254 549.75C204.912 548.858 207.683 548.972 209.5 550.021C211.311 551.067 211.513 552.661 209.982 553.62ZM159.551 562.409C159.129 562.165 158.787 561.881 158.485 561.579C159.774 560.096 160.772 557.876 160.772 557.876L166.612 557.241L170.783 552.097L179.007 550.834L180.26 546.626L186.882 546.287L188.241 543.614C189.168 543.812 189.988 544.086 190.639 544.462L199.225 549.418C196.435 549.426 192.933 550.826 190.289 552.352C187.265 554.098 184.526 556.491 185.358 558.176L182.93 559.577C180.012 559.097 175.871 560.676 172.846 562.422C170.418 563.824 168.176 565.643 167.813 567.178L159.551 562.409ZM212.704 548.172C209.686 546.43 205.178 546.093 201.793 547.202L193.843 542.612C186.607 538.435 171.49 541.339 162.451 546.557C153.574 551.682 149.002 560.018 156.347 564.258L164.297 568.848C162.376 570.803 162.96 573.405 165.978 575.147C168.94 576.857 173.339 577.213 176.703 576.176C178.539 577.465 181.9 579.773 184.517 581.284C188.682 583.688 204.261 581.268 210.763 580.117L211.276 580.025L216.15 577.363L216.174 577.35L220.937 574.6L221.105 574.285C223.129 570.471 227.39 561.34 223.227 558.937C220.613 557.428 216.663 555.456 214.471 554.382C216.284 552.437 215.675 549.887 212.704 548.172Z" fill="#16181C"/>
<g filter="url(#filter0_d_1188_4601)">
<circle cx="31.7464" cy="31.7464" r="31.7464" transform="matrix(0.866044 -0.499967 0.866044 0.499967 563.305 629.064)" fill="url(#paint0_linear_1188_4601)" stroke="#FF9797" stroke-width="34"/>
<path fill-rule="evenodd" clip-rule="evenodd" d="M630.867 617.505L619.644 611.026C614.894 608.284 602.109 610.283 593.833 615.06C585.645 619.787 582.673 626.681 587.599 629.525L598.822 636.004L597.028 637.039C595.449 638.028 595.657 639.671 597.524 640.749C599.397 641.83 602.253 641.948 603.962 641.028L605.93 639.891L607.53 641.044C607.583 641.083 612.98 644.965 616.634 647.075C618.117 647.906 628.486 647.068 638.571 645.316L642.764 643.027L646.789 640.702C649.86 634.797 651.357 628.727 649.93 627.853C646.261 625.735 639.63 622.551 639.564 622.518L637.63 621.591L639.581 620.465C641.16 619.478 640.952 617.834 639.084 616.756C637.212 615.675 634.356 615.558 632.646 616.477L630.867 617.505Z" fill="white"/>
<path fill-rule="evenodd" clip-rule="evenodd" d="M623.051 621.951C620.855 623.006 619.667 624.581 619.788 626.281L621.331 626.229C621.276 625.452 621.559 624.709 622.114 624.051C622.199 624.168 622.303 624.282 622.45 624.385C623.285 624.975 624.805 625.056 625.84 624.564C626.879 624.072 627.044 623.194 626.208 622.602C625.926 622.402 625.565 622.267 625.173 622.186C626.387 621.811 627.711 621.683 628.9 621.843L629.277 620.975C627.229 620.699 624.902 621.064 623.051 621.951ZM635.592 638.504C633.981 639.433 633.36 640.611 634.034 641.298L640.434 637.603C639.243 637.216 637.204 637.573 635.592 638.504ZM623.146 641.389C623.146 641.389 630.158 640.866 635.041 638.047C639.924 635.228 640.828 631.181 640.828 631.181L632.4 636.523L623.146 641.389ZM625.813 618.47C626.345 618.472 626.835 618.543 627.038 618.586L628.129 616.908C627.882 616.857 626.998 616.691 625.883 616.688L625.813 618.47ZM639.581 620.465L637.63 621.591L639.564 622.518C639.63 622.551 646.261 625.735 649.93 627.853C651.357 628.726 649.86 634.797 646.788 640.701L642.763 643.026L638.571 645.316C628.486 647.068 618.117 647.906 616.634 647.075C612.98 644.965 607.584 641.083 607.53 641.044L605.931 639.891L603.963 641.028C602.253 641.947 599.396 641.829 597.524 640.749C595.656 639.671 595.449 638.027 597.028 637.039L598.822 636.004L587.599 629.525C582.673 626.681 585.644 619.787 593.833 615.06C602.108 610.282 614.894 608.284 619.644 611.026L630.867 617.505L632.646 616.477C634.355 615.557 637.213 615.675 639.084 616.756C640.952 617.834 641.16 619.478 639.581 620.465ZM642.386 614.85C639.276 613.054 634.629 612.707 631.14 613.85L622.946 609.119C615.487 604.813 599.904 607.807 590.587 613.186C581.435 618.469 576.725 627.06 584.297 631.431L592.491 636.162C590.511 638.177 591.111 640.859 594.222 642.655C597.275 644.418 601.81 644.784 605.278 643.715C607.17 645.044 610.634 647.424 613.331 648.981C614.438 649.62 616.333 649.924 618.64 650.01C619.793 650.053 621.049 650.041 622.368 649.985C628.645 649.722 636.272 648.507 640.386 647.778L640.914 647.684L645.937 644.94L645.961 644.927L650.873 642.091L651.047 641.767C652.362 639.287 654.591 634.631 654.984 630.906C655.066 630.128 655.062 629.395 654.957 628.727C654.77 627.522 654.252 626.535 653.232 625.946C650.538 624.391 646.466 622.358 644.206 621.252C646.078 619.247 645.449 616.618 642.386 614.85ZM610.727 631.153C610.549 631.068 610.35 631.008 610.149 630.958C611.289 630.639 612.575 630.475 613.924 630.505L614.011 629.615C611.066 629.547 608.335 630.234 606.512 631.499C604.976 632.567 604.345 633.911 604.82 635.094L606.323 634.877C606.046 634.19 606.271 633.424 606.919 632.724C607.059 632.951 607.293 633.159 607.64 633.321C608.663 633.805 610.185 633.71 611.038 633.109C611.889 632.512 611.75 631.634 610.727 631.153ZM621.4 620.894L618.939 619.843C616.726 621.549 614.379 623.51 614.357 623.529L616.889 624.525C616.912 624.506 619.222 622.573 621.4 620.894ZM610.982 627.935L609.258 626.473C608.92 626.608 600.962 629.783 598.786 631.04C596.561 632.324 597.654 634.214 597.788 634.425L600.693 633.794C600.53 633.536 600.232 632.703 600.95 632.289C602.588 631.343 608.747 628.826 610.982 627.935ZM624.428 618.735C624.559 618.659 624.712 618.601 624.893 618.559L623.775 616.908C623.205 617.043 622.696 617.236 622.264 617.486L621.975 617.658L624.212 618.863L624.428 618.735ZM623.272 619.497L620.883 618.392C620.575 618.613 620.241 618.857 619.896 619.114L622.327 620.187C622.656 619.941 622.975 619.709 623.272 619.497ZM628.438 634.637C630.865 633.236 631.082 631.08 628.919 629.831L626.718 631.102C627.687 631.662 627.488 632.687 626.274 633.388C625.059 634.089 623.284 634.203 622.315 633.644L620.112 634.915C622.275 636.164 626.011 636.038 628.438 634.637ZM619.839 634.82L618.534 634.359C618.185 634.68 618.009 635.047 618.024 635.418C618.042 635.952 618.44 636.444 619.142 636.806C619.832 637.159 620.739 637.342 621.689 637.323C622.424 637.307 623.13 637.171 623.727 636.928L622.853 636.203C622.508 636.343 622.096 636.422 621.66 636.431C621.102 636.442 620.577 636.337 620.176 636.134C619.793 635.937 619.577 635.671 619.567 635.385C619.559 635.187 619.652 634.993 619.839 634.82Z" fill="#16181C"/>
</g>
<path fill-rule="evenodd" clip-rule="evenodd" d="M789.771 213.718C789.705 213.756 789.644 213.797 789.588 213.841C789.149 214.184 788.943 214.566 789.004 214.917C789.064 215.251 789.356 215.532 789.874 215.752L790.031 215.827C790.077 215.85 794.97 218.329 797.495 216.886L798.862 216.103L800.23 216.893C808.467 221.648 826.764 219.394 828.817 218.299C830.712 217.115 834.61 206.556 826.372 201.801L825.005 201.011L826.36 200.222C828.879 198.753 824.57 195.942 824.526 195.913L824.395 195.823C824.014 195.523 823.527 195.355 822.949 195.321C822.34 195.285 821.68 195.404 821.085 195.658C820.876 195.747 820.716 195.857 820.568 195.971L819.281 196.976L817.69 196.121C815.062 194.706 812.58 193.608 810.196 192.792C809.56 193.601 808.117 194.508 805.114 195.352C802.86 196.993 799.4 199.111 794.782 200.761C790.232 202.386 785.479 203.23 781.943 203.668C782.747 206.197 785.542 208.88 790.389 211.881L791.871 212.8L790.129 213.543C790.005 213.597 789.883 213.654 789.771 213.718Z" fill="white"/>
<path fill-rule="evenodd" clip-rule="evenodd" d="M812.093 200.797C810.48 201.67 809.621 202.93 809.749 204.357L811.039 204.323C810.982 203.673 811.162 203.068 811.545 202.534C811.619 202.677 811.742 202.814 811.916 202.937C812.625 203.435 813.898 203.511 814.759 203.104C815.621 202.697 815.745 201.963 815.035 201.463C814.684 201.215 814.194 201.072 813.685 201.041C814.659 200.677 815.784 200.512 816.89 200.6L817.062 199.861C815.294 199.72 813.483 200.061 812.093 200.797ZM810.449 198.955C808.174 200.129 807.075 202.027 806.621 203.054L807.876 203.241C808.21 202.48 809.213 200.59 811.311 199.512C813.954 198.153 816.29 198.566 816.384 198.584L816.794 197.876C816.668 197.852 813.677 197.295 810.449 198.955ZM818.957 212.52L816.951 212.912C815.369 214.445 813.47 215.803 813.47 215.803C813.47 215.803 819.96 216.301 822.733 214.7C825.506 213.099 824.645 209.352 824.645 209.352C824.645 209.352 822.292 210.448 819.636 211.362L818.957 212.52ZM815.442 210.694C816.557 210.05 816.64 209.051 815.629 208.467L814.717 208.993C815.224 209.286 815.138 209.812 814.526 210.165C813.914 210.519 813.002 210.569 812.495 210.276L811.584 210.803C812.595 211.386 814.326 211.338 815.442 210.694ZM824.394 195.824L824.524 195.915C824.568 195.943 828.878 198.754 826.358 200.223L825.003 201.013L826.37 201.802C834.608 206.558 830.711 217.117 828.816 218.301C826.763 219.396 808.465 221.65 800.227 216.894L798.86 216.105L797.492 216.887C794.968 218.331 790.075 215.852 790.029 215.828L789.872 215.754C789.353 215.533 789.063 215.252 789.003 214.918C788.941 214.567 789.147 214.186 789.586 213.842C789.643 213.798 789.703 213.758 789.769 213.72C789.881 213.655 790.004 213.598 790.128 213.544L791.871 212.802L790.387 211.883C785.541 208.881 782.745 206.198 781.941 203.67C785.478 203.231 790.23 202.388 794.781 200.763C799.4 199.113 802.859 196.994 805.112 195.353C808.115 194.51 809.558 193.603 810.196 192.793C812.579 193.609 815.06 194.708 817.688 196.122L819.28 196.978L820.566 195.972C820.714 195.859 820.875 195.75 821.084 195.659C821.678 195.406 822.339 195.286 822.947 195.322C823.525 195.356 824.012 195.525 824.394 195.824ZM827.446 194.451C826.417 193.672 824.955 193.192 823.324 193.096C821.83 193.008 820.293 193.248 818.968 193.775C816.247 192.382 813.115 191.008 809.662 190.065C800.702 183.458 785.445 186.989 778.948 189.865C777.606 190.46 775.981 191.34 774.401 192.465C771.197 194.087 768.211 196.492 765.741 199.989C765.741 199.989 766.903 199.488 768.853 198.862C767.064 203.234 768.457 208.839 777.892 215.243C777.282 211.526 777.746 208.513 779.037 206.072C780.609 208.535 783.442 210.748 786.322 212.622C785.41 213.386 784.993 214.274 785.147 215.135C785.313 216.078 786.145 216.921 787.493 217.515C789.853 218.742 794.251 220.21 798.019 219.334C797.594 220.16 797.962 221.111 799.136 221.789C800.433 222.538 802.308 222.724 803.829 222.346C803.177 223.225 803.498 224.307 804.795 225.056C806.097 225.808 807.979 225.991 809.507 225.608C808.842 226.489 809.161 227.577 810.463 228.328C811.584 228.975 813.138 229.197 814.523 229.003L814.445 229.048L817.375 232.389L823.09 229.09L817.364 227.417C817.758 226.598 817.387 225.665 816.231 224.998C814.929 224.247 813.045 224.063 811.521 224.446C812.143 223.617 811.888 222.611 810.776 221.868C819.982 222.558 829.546 221.051 831.563 219.887C833.588 218.718 836.21 213.155 834.975 207.819C836.268 208.494 838.05 208.652 839.513 208.286C838.849 209.166 839.167 210.254 840.469 211.006C841.59 211.653 843.144 211.874 844.529 211.681L844.451 211.726L847.381 215.066L853.096 211.767L847.371 210.094C847.764 209.276 847.392 208.343 846.237 207.676C844.935 206.925 843.051 206.74 841.527 207.123C842.189 206.242 841.871 205.155 840.569 204.404C839.272 203.655 837.397 203.47 835.874 203.846C836.529 202.968 836.207 201.885 834.91 201.137C833.724 200.452 832.056 200.242 830.613 200.499C832.09 198.33 829.56 195.807 827.446 194.451ZM802.531 206.326L802.208 205.603C800.428 205.864 797.148 206.502 795.107 207.812C792.231 209.675 793.198 211.401 793.241 211.473L794.466 211.24C794.434 211.183 793.718 209.835 796.073 208.309C797.96 207.095 801.213 206.519 802.531 206.326ZM801.306 208.444C802.231 208.223 803.281 208.119 804.406 208.153L804.465 207.408C801.992 207.334 799.818 207.829 798.299 208.76C797.024 209.563 796.433 210.609 796.677 211.629L797.959 211.53C797.804 210.892 798.09 210.242 798.721 209.68C798.775 209.973 799.023 210.256 799.453 210.459C800.319 210.868 801.59 210.797 802.296 210.299C802.999 209.803 802.868 209.068 802.004 208.659C801.791 208.558 801.555 208.487 801.306 208.444Z" fill="#16181C"/>
<defs>
<filter id="filter0_d_1188_4601" x="554.59" y="594.598" width="127.406" height="76.9336" filterUnits="userSpaceOnUse" color-interpolation-filters="sRGB">
<feFlood flood-opacity="0" result="BackgroundImageFix"/>
<feColorMatrix in="SourceAlpha" type="matrix" values="0 0 0 0 0 0 0 0 0 0 0 0 0 0 0 0 0 0 127 0" result="hardAlpha"/>
<feOffset dy="4"/>
<feGaussianBlur stdDeviation="2"/>
<feComposite in2="hardAlpha" operator="out"/>
<feColorMatrix type="matrix" values="0 0 0 0 0 0 0 0 0 0 0 0 0 0 0 0 0 0 0.25 0"/>
<feBlend mode="normal" in2="BackgroundImageFix" result="effect1_dropShadow_1188_4601"/>
<feBlend mode="normal" in="SourceGraphic" in2="effect1_dropShadow_1188_4601" result="shape"/>
</filter>
<linearGradient id="paint0_linear_1188_4601" x1="42.3875" y1="-45.9319" x2="-86.1257" y2="-1.29795" gradientUnits="userSpaceOnUse">
<stop stop-color="#5A1E8F"/>
<stop offset="1" stop-color="#F9F9F9"/>
</linearGradient>
</defs>
</svg>
