<svg width="1000" height="672" viewBox="0 0 1000 672" fill="none" xmlns="http://www.w3.org/2000/svg">
<line y1="-2.5" x2="314.551" y2="-2.5" transform="matrix(-0.318777 -0.682692 1.18256 -0.18403 926.656 385.241)" stroke="#979797" stroke-width="5"/>
<line y1="-2.5" x2="367.262" y2="-2.5" transform="matrix(-0.866044 0.499967 -0.866044 -0.499967 936.359 390.843)" stroke="#979797" stroke-width="5"/>
<line y1="-2.5" x2="344.043" y2="-2.5" transform="matrix(1.18147 0.186346 -0.322789 0.682063 199.957 517.198)" stroke="#979797" stroke-width="5"/>
<line y1="-2.5" x2="330.768" y2="-2.5" transform="matrix(-0.316187 -0.683093 1.18325 -0.182534 185.939 504.127)" stroke="#979797" stroke-width="5"/>
<line y1="-2.5" x2="361.038" y2="-2.5" transform="matrix(-0.866044 0.499967 -0.866044 -0.499967 387.561 85.2256)" stroke="#979797" stroke-width="5"/>
<line y1="-2.5" x2="724.994" y2="-2.5" transform="matrix(-1.1823 -0.184587 0.319741 -0.682541 932.047 399.557)" stroke="#979797" stroke-width="5"/>
<line y1="-2.5" x2="628.703" y2="-2.5" transform="matrix(-0.866044 -0.499967 0.866044 -0.499967 619.373 580.064)" stroke="#979797" stroke-width="5"/>
<line y1="-2.5" x2="615.564" y2="-2.5" transform="matrix(-1.1858 0.176954 -0.30652 -0.68456 804.82 156.806)" stroke="#979797" stroke-width="5"/>
<line y1="-2.5" x2="709.626" y2="-2.5" transform="matrix(-0.866044 0.499967 -0.866044 -0.499967 804.82 156.806)" stroke="#979797" stroke-width="5"/>
<line y1="-2.5" x2="617.469" y2="-2.5" transform="matrix(-0.300337 0.685473 -1.18738 -0.173384 804.82 156.806)" stroke="#979797" stroke-width="5"/>
<line x1="389.981" y1="84.1429" x2="614.422" y2="585.917" stroke="#979797" stroke-width="5"/>
<line y1="-2.5" x2="628.703" y2="-2.5" transform="matrix(-0.866044 -0.499967 0.866044 -0.499967 932.047 399.557)" stroke="#979797" stroke-width="5"/>
<line y1="-2.5" x2="624.166" y2="-2.5" transform="matrix(0.316115 -0.683104 1.18327 0.182493 190.252 511.596)" stroke="#979797" stroke-width="5"/>
<line y1="-2.5" x2="626.044" y2="-2.5" transform="matrix(1.18489 -0.178963 0.31 0.684037 190.252 511.596)" stroke="#979797" stroke-width="5"/>
<line y1="-2.5" x2="351.768" y2="-2.5" transform="matrix(1.18005 0.189332 -0.327961 0.68124 384.328 87.0933)" stroke="#979797" stroke-width="5"/>
</svg>
