<svg id="eAivBJHZy861" xmlns="http://www.w3.org/2000/svg" xmlns:xlink="http://www.w3.org/1999/xlink" viewBox="0 0 1000 1000" shape-rendering="geometricPrecision" text-rendering="geometricPrecision">
<style><![CDATA[
#eAivBJHZy864_to {animation: eAivBJHZy864_to__to 8400ms linear infinite normal forwards}@keyframes eAivBJHZy864_to__to { 0% {transform: translate(500.000122px,603.030426px);animation-timing-function: cubic-bezier(0.735,0.005,0.28,0.995)} 5.952381% {transform: translate(500.000122px,643.030426px)} 100% {transform: translate(500.000122px,643.030426px)}} #eAivBJHZy864 {animation: eAivBJHZy864_c_o 8400ms linear infinite normal forwards}@keyframes eAivBJHZy864_c_o { 0% {opacity: 0.1;animation-timing-function: cubic-bezier(0.735,0.005,0.28,0.995)} 5.952381% {opacity: 0} 100% {opacity: 0}} #eAivBJHZy866_to {animation: eAivBJHZy866_to__to 8400ms linear infinite normal forwards}@keyframes eAivBJHZy866_to__to { 0% {transform: translate(500.000122px,564.352448px);animation-timing-function: cubic-bezier(0.735,0.005,0.28,0.995)} 5.952381% {transform: translate(500.000122px,604.352448px)} 100% {transform: translate(500.000122px,604.352448px)}} #eAivBJHZy866 {animation: eAivBJHZy866_c_o 8400ms linear infinite normal forwards}@keyframes eAivBJHZy866_c_o { 0% {opacity: 0.2;animation-timing-function: cubic-bezier(0.735,0.005,0.28,0.995)} 5.952381% {opacity: 0.1} 100% {opacity: 0.1}} #eAivBJHZy868_to {animation: eAivBJHZy868_to__to 8400ms linear infinite normal forwards}@keyframes eAivBJHZy868_to__to { 0% {transform: translate(500.000122px,525.675461px);animation-timing-function: cubic-bezier(0.735,0.005,0.28,0.995)} 5.952381% {transform: translate(500.000122px,565.675461px)} 100% {transform: translate(500.000122px,565.675461px)}} #eAivBJHZy868 {animation: eAivBJHZy868_c_o 8400ms linear infinite normal forwards}@keyframes eAivBJHZy868_c_o { 0% {opacity: 0.4;animation-timing-function: cubic-bezier(0.735,0.005,0.28,0.995)} 5.952381% {opacity: 0.2} 100% {opacity: 0.2}} #eAivBJHZy8610_to {animation: eAivBJHZy8610_to__to 8400ms linear infinite normal forwards}@keyframes eAivBJHZy8610_to__to { 0% {transform: translate(500.000122px,486.997452px);animation-timing-function: cubic-bezier(0.735,0.005,0.28,0.995)} 5.952381% {transform: translate(500.000122px,526.997452px)} 100% {transform: translate(500.000122px,526.997452px)}} #eAivBJHZy8612_to {animation: eAivBJHZy8612_to__to 8400ms linear infinite normal forwards}@keyframes eAivBJHZy8612_to__to { 0% {transform: translate(500.000122px,446.997452px);animation-timing-function: cubic-bezier(0.735,0.005,0.28,0.995)} 5.952381% {transform: translate(500.000122px,488.997452px)} 100% {transform: translate(500.000122px,488.997452px)}} #eAivBJHZy8612 {animation: eAivBJHZy8612_c_o 8400ms linear infinite normal forwards}@keyframes eAivBJHZy8612_c_o { 0% {opacity: 0;animation-timing-function: cubic-bezier(0.735,0.005,0.28,0.995)} 5.952381% {opacity: 0.4} 100% {opacity: 0.4}} #eAivBJHZy8614_to {animation: eAivBJHZy8614_to__to 8400ms linear infinite normal forwards}@keyframes eAivBJHZy8614_to__to { 0% {transform: translate(500.000116px,334.996414px);animation-timing-function: cubic-bezier(0.735,0.005,0.28,0.995)} 5.952381% {transform: translate(500.000116px,486.996414px)} 100% {transform: translate(500.000116px,486.996414px)}} #eAivBJHZy8614 {animation: eAivBJHZy8614_c_o 8400ms linear infinite normal forwards}@keyframes eAivBJHZy8614_c_o { 0% {opacity: 0;animation-timing-function: cubic-bezier(0.735,0.005,0.28,0.995)} 5.952381% {opacity: 1} 88.095238% {opacity: 1} 98.809524% {opacity: 0} 100% {opacity: 0}} #eAivBJHZy8628_ts {animation: eAivBJHZy8628_ts__ts 8400ms linear infinite normal forwards}@keyframes eAivBJHZy8628_ts__ts { 0% {transform: translate(81.2207px,523.001px) rotate(-29.99783deg) skewX(30.00434deg) skewY(0deg) scale(1,0.865987)} 77.380952% {transform: translate(81.2207px,523.001px) rotate(-29.99783deg) skewX(30.00434deg) skewY(0deg) scale(1,0.865987)} 80.952381% {transform: translate(81.2207px,523.001px) rotate(-29.99783deg) skewX(30.00434deg) skewY(0deg) scale(1.860935,0.865987)} 100% {transform: translate(81.2207px,523.001px) rotate(-29.99783deg) skewX(30.00434deg) skewY(0deg) scale(1.860935,0.865987)}} #eAivBJHZy8628 {animation: eAivBJHZy8628_s_o 8400ms linear infinite normal forwards}@keyframes eAivBJHZy8628_s_o { 0% {stroke-opacity: 0} 66.547619% {stroke-opacity: 0} 69.761905% {stroke-opacity: 1} 77.380952% {stroke-opacity: 1} 80.952381% {stroke-opacity: 0} 100% {stroke-opacity: 0}} #eAivBJHZy8629 {animation-name: eAivBJHZy8629_c_o, eAivBJHZy8629_s_o;animation-duration: 8400ms;animation-fill-mode: forwards;animation-timing-function: linear;animation-direction: normal;animation-iteration-count: infinite;}@keyframes eAivBJHZy8629_c_o { 0% {opacity: 1} 66.547619% {opacity: 1} 69.761905% {opacity: 0} 100% {opacity: 0}}@keyframes eAivBJHZy8629_s_o { 0% {stroke-opacity: 0} 60.952381% {stroke-opacity: 0} 63.690476% {stroke-opacity: 1} 100% {stroke-opacity: 1}} #eAivBJHZy8630 {animation-name: eAivBJHZy8630_c_o, eAivBJHZy8630_s_o;animation-duration: 8400ms;animation-fill-mode: forwards;animation-timing-function: linear;animation-direction: normal;animation-iteration-count: infinite;}@keyframes eAivBJHZy8630_c_o { 0% {opacity: 0} 27.97619% {opacity: 0;animation-timing-function: cubic-bezier(0.735,0.005,0.28,0.995)} 29.761905% {opacity: 1} 100% {opacity: 1}}@keyframes eAivBJHZy8630_s_o { 0% {stroke-opacity: 1} 35.714286% {stroke-opacity: 1} 38.095238% {stroke-opacity: 0} 100% {stroke-opacity: 0}} #eAivBJHZy8633 {animation: eAivBJHZy8633_s_o 8400ms linear infinite normal forwards}@keyframes eAivBJHZy8633_s_o { 0% {stroke-opacity: 0} 81.547619% {stroke-opacity: 0} 83.690476% {stroke-opacity: 1} 86.190476% {stroke-opacity: 0} 100% {stroke-opacity: 0}} #eAivBJHZy8634 {animation: eAivBJHZy8634_c_o 8400ms linear infinite normal forwards}@keyframes eAivBJHZy8634_c_o { 0% {opacity: 0} 65.238095% {opacity: 0} 67.857143% {opacity: 1} 83.690476% {opacity: 1} 86.190476% {opacity: 0} 100% {opacity: 0}} #eAivBJHZy8638 {animation: eAivBJHZy8638_c_o 8400ms linear infinite normal forwards}@keyframes eAivBJHZy8638_c_o { 0% {opacity: 0} 43.333333% {opacity: 0} 45.833333% {opacity: 1} 69.761905% {opacity: 1} 72.142857% {opacity: 0} 100% {opacity: 0}} #eAivBJHZy8643 {animation: eAivBJHZy8643_c_o 8400ms linear infinite normal forwards}@keyframes eAivBJHZy8643_c_o { 0% {opacity: 0} 8.214286% {opacity: 0;animation-timing-function: cubic-bezier(0.735,0.005,0.28,0.995)} 9.642857% {opacity: 1} 35.714286% {opacity: 1;animation-timing-function: cubic-bezier(0.735,0.005,0.28,0.995)} 38.095238% {opacity: 0} 100% {opacity: 0}} #eAivBJHZy8649 {animation: eAivBJHZy8649_c_o 8400ms linear infinite normal forwards}@keyframes eAivBJHZy8649_c_o { 0% {opacity: 0} 51.547619% {opacity: 0} 54.047619% {opacity: 1} 80.47619% {opacity: 1} 82.619048% {opacity: 0} 100% {opacity: 0}} #eAivBJHZy8653_to {animation: eAivBJHZy8653_to__to 8400ms linear infinite normal forwards}@keyframes eAivBJHZy8653_to__to { 0% {transform: translate(499.500671px,479.953423px)} 83.690476% {transform: translate(499.500671px,479.953423px);animation-timing-function: cubic-bezier(0.735,0.005,0.28,0.995)} 88.095238% {transform: translate(225.634758px,334.940503px)} 100% {transform: translate(225.634758px,334.940503px)}} #eAivBJHZy8653 {animation: eAivBJHZy8653_c_o 8400ms linear infinite normal forwards}@keyframes eAivBJHZy8653_c_o { 0% {opacity: 0} 83.690476% {opacity: 0} 95.238095% {opacity: 1} 100% {opacity: 0}} #eAivBJHZy8667 {animation: eAivBJHZy8667_c_o 8400ms linear infinite normal forwards}@keyframes eAivBJHZy8667_c_o { 0% {opacity: 0} 13.452381% {opacity: 0;animation-timing-function: cubic-bezier(0.735,0.005,0.28,0.995)} 15% {opacity: 1} 35.714286% {opacity: 1;animation-timing-function: cubic-bezier(0.735,0.005,0.28,0.995)} 38.095238% {opacity: 0} 100% {opacity: 0}} #eAivBJHZy8670 {animation: eAivBJHZy8670_c_o 8400ms linear infinite normal forwards}@keyframes eAivBJHZy8670_c_o { 0% {opacity: 0} 17.857143% {opacity: 0} 19.404762% {opacity: 1} 100% {opacity: 1}} #eAivBJHZy8671 {animation: eAivBJHZy8671_c_o 8400ms linear infinite normal forwards}@keyframes eAivBJHZy8671_c_o { 0% {opacity: 0} 20.595238% {opacity: 0} 22.02381% {opacity: 1} 100% {opacity: 1}} #eAivBJHZy8672 {animation: eAivBJHZy8672_c_o 8400ms linear infinite normal forwards}@keyframes eAivBJHZy8672_c_o { 0% {opacity: 0} 23.571429% {opacity: 0} 25% {opacity: 1} 100% {opacity: 1}} #eAivBJHZy8673 {animation: eAivBJHZy8673_c_o 8400ms linear infinite normal forwards}@keyframes eAivBJHZy8673_c_o { 0% {opacity: 0} 56.071429% {opacity: 0} 59.047619% {opacity: 1} 80.47619% {opacity: 1} 82.619048% {opacity: 0} 100% {opacity: 0}} #eAivBJHZy8676 {animation: eAivBJHZy8676_c_o 8400ms linear infinite normal forwards}@keyframes eAivBJHZy8676_c_o { 0% {opacity: 0} 60.952381% {opacity: 0} 63.690476% {opacity: 1} 100% {opacity: 1}} #eAivBJHZy8677 {animation: eAivBJHZy8677_c_o 8400ms linear infinite normal forwards}@keyframes eAivBJHZy8677_c_o { 0% {opacity: 0} 66.547619% {opacity: 0} 69.761905% {opacity: 1} 100% {opacity: 1}} #eAivBJHZy8678 {animation: eAivBJHZy8678_c_o 8400ms linear infinite normal forwards}@keyframes eAivBJHZy8678_c_o { 0% {opacity: 0} 71.785714% {opacity: 0} 74.761905% {opacity: 1} 100% {opacity: 1}} #eAivBJHZy8679 {animation: eAivBJHZy8679_c_o 8400ms linear infinite normal forwards}@keyframes eAivBJHZy8679_c_o { 0% {opacity: 0} 47.380952% {opacity: 0} 49.880952% {opacity: 1} 69.761905% {opacity: 1} 72.142857% {opacity: 0} 100% {opacity: 0}} #eAivBJHZy8682 {animation: eAivBJHZy8682_c_o 8400ms linear infinite normal forwards}@keyframes eAivBJHZy8682_c_o { 0% {opacity: 0} 51.547619% {opacity: 0} 54.047619% {opacity: 1} 100% {opacity: 1}} #eAivBJHZy8683 {animation: eAivBJHZy8683_c_o 8400ms linear infinite normal forwards}@keyframes eAivBJHZy8683_c_o { 0% {opacity: 0} 56.071429% {opacity: 0} 59.047619% {opacity: 1} 100% {opacity: 1}} #eAivBJHZy8684 {animation: eAivBJHZy8684_c_o 8400ms linear infinite normal forwards}@keyframes eAivBJHZy8684_c_o { 0% {opacity: 0} 60.952381% {opacity: 0} 63.690476% {opacity: 1} 100% {opacity: 1}} #eAivBJHZy8685 {animation: eAivBJHZy8685_c_o 8400ms linear infinite normal forwards}@keyframes eAivBJHZy8685_c_o { 0% {opacity: 0} 69.761905% {opacity: 0} 72.5% {opacity: 1} 83.690476% {opacity: 1} 86.190476% {opacity: 0} 100% {opacity: 0}} #eAivBJHZy8688 {animation: eAivBJHZy8688_c_o 8400ms linear infinite normal forwards}@keyframes eAivBJHZy8688_c_o { 0% {opacity: 0} 74.52381% {opacity: 0} 76.785714% {opacity: 1} 100% {opacity: 1}} #eAivBJHZy8689 {animation: eAivBJHZy8689_c_o 8400ms linear infinite normal forwards}@keyframes eAivBJHZy8689_c_o { 0% {opacity: 0} 77.97619% {opacity: 0} 80.357143% {opacity: 1} 100% {opacity: 1}} #eAivBJHZy8690 {animation: eAivBJHZy8690_c_o 8400ms linear infinite normal forwards}@keyframes eAivBJHZy8690_c_o { 0% {opacity: 0} 81.547619% {opacity: 0} 83.690476% {opacity: 1} 100% {opacity: 1}}
]]></style>
<defs><filter id="eAivBJHZy864-filter" x="-150%" width="400%" y="-150%" height="400%"><feGaussianBlur id="eAivBJHZy864-filter-blur-0" stdDeviation="4,4" result="result"/></filter><filter id="eAivBJHZy867-filter" x="-150%" width="400%" y="-150%" height="400%"><feGaussianBlur id="eAivBJHZy867-filter-blur-0" stdDeviation="4,4" result="result"/></filter><filter id="eAivBJHZy869-filter" x="-150%" width="400%" y="-150%" height="400%"><feGaussianBlur id="eAivBJHZy869-filter-blur-0" stdDeviation="4,4" result="result"/></filter><filter id="eAivBJHZy8611-filter" x="-150%" width="400%" y="-150%" height="400%"><feGaussianBlur id="eAivBJHZy8611-filter-blur-0" stdDeviation="4,4" result="result"/></filter><filter id="eAivBJHZy8613-filter" x="-150%" width="400%" y="-150%" height="400%"><feGaussianBlur id="eAivBJHZy8613-filter-blur-0" stdDeviation="4,4" result="result"/></filter><linearGradient id="eAivBJHZy8618-stroke" x1="313.93518" y1="0" x2="313.93518" y2="533.734" spreadMethod="pad" gradientUnits="userSpaceOnUse" gradientTransform="translate(0 0)"><stop id="eAivBJHZy8618-stroke-0" offset="0%" stop-color="#6326e4"/><stop id="eAivBJHZy8618-stroke-1" offset="51.0417%" stop-color="#963c0a"/><stop id="eAivBJHZy8618-stroke-2" offset="100%" stop-color="#bf0073"/></linearGradient><filter id="eAivBJHZy8634-filter" x="-150%" width="400%" y="-150%" height="400%"><feGaussianBlur id="eAivBJHZy8634-filter-drop-shadow-0-blur" in="SourceAlpha" stdDeviation="4,4"/><feOffset id="eAivBJHZy8634-filter-drop-shadow-0-offset" dx="0" dy="4" result="tmp"/><feFlood id="eAivBJHZy8634-filter-drop-shadow-0-flood" flood-color="rgba(0,0,0,0.4)"/><feComposite id="eAivBJHZy8634-filter-drop-shadow-0-composite" operator="in" in2="tmp"/><feMerge id="eAivBJHZy8634-filter-drop-shadow-0-merge" result="result"><feMergeNode id="eAivBJHZy8634-filter-drop-shadow-0-merge-node-1"/><feMergeNode id="eAivBJHZy8634-filter-drop-shadow-0-merge-node-2" in="SourceGraphic"/></feMerge></filter><filter id="eAivBJHZy8638-filter" x="-150%" width="400%" y="-150%" height="400%"><feGaussianBlur id="eAivBJHZy8638-filter-drop-shadow-0-blur" in="SourceAlpha" stdDeviation="4,4"/><feOffset id="eAivBJHZy8638-filter-drop-shadow-0-offset" dx="0" dy="4" result="tmp"/><feFlood id="eAivBJHZy8638-filter-drop-shadow-0-flood" flood-color="rgba(0,0,0,0.4)"/><feComposite id="eAivBJHZy8638-filter-drop-shadow-0-composite" operator="in" in2="tmp"/><feMerge id="eAivBJHZy8638-filter-drop-shadow-0-merge" result="result"><feMergeNode id="eAivBJHZy8638-filter-drop-shadow-0-merge-node-1"/><feMergeNode id="eAivBJHZy8638-filter-drop-shadow-0-merge-node-2" in="SourceGraphic"/></feMerge></filter><filter id="eAivBJHZy8643-filter" x="-150%" width="400%" y="-150%" height="400%"><feGaussianBlur id="eAivBJHZy8643-filter-drop-shadow-0-blur" in="SourceAlpha" stdDeviation="4,4"/><feOffset id="eAivBJHZy8643-filter-drop-shadow-0-offset" dx="0" dy="4" result="tmp"/><feFlood id="eAivBJHZy8643-filter-drop-shadow-0-flood" flood-color="rgba(0,0,0,0.3)"/><feComposite id="eAivBJHZy8643-filter-drop-shadow-0-composite" operator="in" in2="tmp"/><feMerge id="eAivBJHZy8643-filter-drop-shadow-0-merge" result="result"><feMergeNode id="eAivBJHZy8643-filter-drop-shadow-0-merge-node-1"/><feMergeNode id="eAivBJHZy8643-filter-drop-shadow-0-merge-node-2" in="SourceGraphic"/></feMerge></filter><filter id="eAivBJHZy8649-filter" x="-150%" width="400%" y="-150%" height="400%"><feGaussianBlur id="eAivBJHZy8649-filter-drop-shadow-0-blur" in="SourceAlpha" stdDeviation="4,4"/><feOffset id="eAivBJHZy8649-filter-drop-shadow-0-offset" dx="0" dy="4" result="tmp"/><feFlood id="eAivBJHZy8649-filter-drop-shadow-0-flood" flood-color="rgba(0,0,0,0.4)"/><feComposite id="eAivBJHZy8649-filter-drop-shadow-0-composite" operator="in" in2="tmp"/><feMerge id="eAivBJHZy8649-filter-drop-shadow-0-merge" result="result"><feMergeNode id="eAivBJHZy8649-filter-drop-shadow-0-merge-node-1"/><feMergeNode id="eAivBJHZy8649-filter-drop-shadow-0-merge-node-2" in="SourceGraphic"/></feMerge></filter><linearGradient id="eAivBJHZy8654-fill" x1="-2.53484" y1="0" x2="91.8948" y2="60.3239" spreadMethod="pad" gradientUnits="userSpaceOnUse" gradientTransform="translate(0 0)"><stop id="eAivBJHZy8654-fill-0" offset="0%" stop-color="#c00173"/><stop id="eAivBJHZy8654-fill-1" offset="100%" stop-color="#6326e5"/></linearGradient><filter id="eAivBJHZy8667-filter" x="-150%" width="400%" y="-150%" height="400%"><feGaussianBlur id="eAivBJHZy8667-filter-drop-shadow-0-blur" in="SourceAlpha" stdDeviation="4,4"/><feOffset id="eAivBJHZy8667-filter-drop-shadow-0-offset" dx="0" dy="4" result="tmp"/><feFlood id="eAivBJHZy8667-filter-drop-shadow-0-flood" flood-color="rgba(0,0,0,0.3)"/><feComposite id="eAivBJHZy8667-filter-drop-shadow-0-composite" operator="in" in2="tmp"/><feMerge id="eAivBJHZy8667-filter-drop-shadow-0-merge" result="result"><feMergeNode id="eAivBJHZy8667-filter-drop-shadow-0-merge-node-1"/><feMergeNode id="eAivBJHZy8667-filter-drop-shadow-0-merge-node-2" in="SourceGraphic"/></feMerge></filter><filter id="eAivBJHZy8673-filter" x="-150%" width="400%" y="-150%" height="400%"><feGaussianBlur id="eAivBJHZy8673-filter-drop-shadow-0-blur" in="SourceAlpha" stdDeviation="4,4"/><feOffset id="eAivBJHZy8673-filter-drop-shadow-0-offset" dx="0" dy="4" result="tmp"/><feFlood id="eAivBJHZy8673-filter-drop-shadow-0-flood" flood-color="rgba(0,0,0,0.4)"/><feComposite id="eAivBJHZy8673-filter-drop-shadow-0-composite" operator="in" in2="tmp"/><feMerge id="eAivBJHZy8673-filter-drop-shadow-0-merge" result="result"><feMergeNode id="eAivBJHZy8673-filter-drop-shadow-0-merge-node-1"/><feMergeNode id="eAivBJHZy8673-filter-drop-shadow-0-merge-node-2" in="SourceGraphic"/></feMerge></filter><filter id="eAivBJHZy8679-filter" x="-150%" width="400%" y="-150%" height="400%"><feGaussianBlur id="eAivBJHZy8679-filter-drop-shadow-0-blur" in="SourceAlpha" stdDeviation="4,4"/><feOffset id="eAivBJHZy8679-filter-drop-shadow-0-offset" dx="0" dy="4" result="tmp"/><feFlood id="eAivBJHZy8679-filter-drop-shadow-0-flood" flood-color="rgba(0,0,0,0.4)"/><feComposite id="eAivBJHZy8679-filter-drop-shadow-0-composite" operator="in" in2="tmp"/><feMerge id="eAivBJHZy8679-filter-drop-shadow-0-merge" result="result"><feMergeNode id="eAivBJHZy8679-filter-drop-shadow-0-merge-node-1"/><feMergeNode id="eAivBJHZy8679-filter-drop-shadow-0-merge-node-2" in="SourceGraphic"/></feMerge></filter><filter id="eAivBJHZy8685-filter" x="-150%" width="400%" y="-150%" height="400%"><feGaussianBlur id="eAivBJHZy8685-filter-drop-shadow-0-blur" in="SourceAlpha" stdDeviation="4,4"/><feOffset id="eAivBJHZy8685-filter-drop-shadow-0-offset" dx="0" dy="4" result="tmp"/><feFlood id="eAivBJHZy8685-filter-drop-shadow-0-flood" flood-color="rgba(0,0,0,0.4)"/><feComposite id="eAivBJHZy8685-filter-drop-shadow-0-composite" operator="in" in2="tmp"/><feMerge id="eAivBJHZy8685-filter-drop-shadow-0-merge" result="result"><feMergeNode id="eAivBJHZy8685-filter-drop-shadow-0-merge-node-1"/><feMergeNode id="eAivBJHZy8685-filter-drop-shadow-0-merge-node-2" in="SourceGraphic"/></feMerge></filter></defs><g transform="translate(0-44.013504)" clip-path="url(#eAivBJHZy8691)"><g><g id="eAivBJHZy864_to" transform="translate(500.000122,603.030426)"><g id="eAivBJHZy864" transform="translate(-500.000122,-603.030426)" opacity="0.1" filter="url(#eAivBJHZy864-filter)"><rect width="620.942" height="533.734" rx="12" ry="12" transform="matrix(.866044-.499967 0.866044 0.499967 0 624.831)" fill="#ab4dff"/></g></g><g id="eAivBJHZy866_to" transform="translate(500.000122,564.352448)"><g id="eAivBJHZy866" transform="translate(-500.000122,-564.352448)" opacity="0.2"><rect width="620.942" height="533.734" rx="12" ry="12" transform="matrix(.866044-.499967 0.866044 0.499967 0 586.153)" filter="url(#eAivBJHZy867-filter)" fill="#ab4dff"/></g></g><g id="eAivBJHZy868_to" transform="translate(500.000122,525.675461)"><g id="eAivBJHZy868" transform="translate(-500.000122,-525.675461)" opacity="0.4"><rect width="620.942" height="533.734" rx="12" ry="12" transform="matrix(.866044-.499967 0.866044 0.499967 0 547.476)" filter="url(#eAivBJHZy869-filter)" fill="#ab4dff"/></g></g><g id="eAivBJHZy8610_to" transform="translate(500.000122,486.997452)"><g transform="translate(-500.000122,-486.997452)" opacity="0.4"><rect width="620.942" height="533.734" rx="12" ry="12" transform="matrix(.866044-.499967 0.866044 0.499967 0 508.798)" filter="url(#eAivBJHZy8611-filter)" fill="#ab4dff"/></g></g><g id="eAivBJHZy8612_to" transform="translate(500.000122,446.997452)"><g id="eAivBJHZy8612" transform="translate(-500.000122,-486.997452)" opacity="0"><rect width="620.942" height="533.734" rx="12" ry="12" transform="matrix(.866044-.499967 0.866044 0.499967 0 508.798)" filter="url(#eAivBJHZy8613-filter)" fill="#ab4dff"/></g></g><g id="eAivBJHZy8614_to" transform="translate(500.000116,334.996414)"><g id="eAivBJHZy8614" transform="translate(-500.000116,-486.996414)" opacity="0"><g><g><rect width="620.942" height="533.734" rx="12" ry="12" transform="matrix(.866044-.499967 0.866044 0.499967 0 508.797)" fill="#e8e8ff"/><rect width="624.942" height="537.734" rx="14" ry="14" transform="matrix(.866044-.499967 0.866044 0.499967-3.464179 508.796976)" fill="none" stroke="url(#eAivBJHZy8618-stroke)" stroke-width="4"/></g><g><circle r="9.80748" transform="matrix(.866044-.499967 0.866044 0.499967 38.44642 508.796997)" fill="#f00"/><circle r="9.80748" transform="matrix(.866044-.499967 0.866044 0.499967 64.37612 493.828997)" fill="#fdad00"/><circle r="9.80748" transform="matrix(.866044-.499967 0.866044 0.499967 89.40932 479.375997)" fill="#01cd46"/></g><rect width="380.146" height="21.6797" rx="10.8399" ry="10.8399" transform="matrix(.866044-.499967 0.866044 0.499967 101.031 461.828)" fill="#c0c0c0"/><rect width="87.7512" height="9.2913" rx="4.64565" ry="4.64565" transform="matrix(.866044-.499967 0.866044 0.499967 114.443 460.28)" fill="#8a8a8a"/><rect width="242.089" height="9.2913" rx="4.64565" ry="4.64565" transform="matrix(.866044-.499967 0.866044 0.499967 194.014 414.343)" fill="#8a8a8a"/><rect width="594.134" height="473.856" rx="10" ry="10" transform="matrix(.866044-.499967 0.866044 0.499967 52.752 523.765)" fill="#fff"/></g><g><g id="eAivBJHZy8628_ts" transform="translate(81.2207,523.001) rotate(-29.99783) skewX(30.00434) skewY(0) scale(1,0.865987)"><rect id="eAivBJHZy8628" width="299.777" height="109.852" rx="6" ry="6" transform="translate(0,0)" fill="#d9d9d9" stroke="#1a8b08" stroke-width="3" stroke-opacity="0"/></g><rect id="eAivBJHZy8629" width="243.528" height="109.852" rx="6" ry="6" transform="matrix(.866044-.499967 0.866044 0.499967 353.451 365.843)" fill="#d9d9d9" stroke="#e40e0e" stroke-width="3" stroke-opacity="0"/><rect id="eAivBJHZy8630" width="141.264" height="106.852" rx="4.5" ry="4.5" transform="matrix(.866044-.499967 0.866044 0.499967 190.993096 584.87202)" opacity="0" fill="#d9d9d9" fill-rule="evenodd" stroke="#1a8b08" stroke-width="2"/><rect width="144.264" height="109.852" rx="6" ry="6" transform="matrix(.866044-.499967 0.866044 0.499967 323.076 507.12)" fill="#d9d9d9"/><rect width="243.528" height="109.852" rx="6" ry="6" transform="matrix(.866044-.499967 0.866044 0.499967 460.625 427.713)" fill="#d9d9d9"/><rect id="eAivBJHZy8633" width="557.864" height="194.027" rx="6" ry="6" transform="matrix(.866044-.499967 0.866044 0.499967 295.564 646.742)" fill="#d9d9d9" stroke="#601bd6" stroke-width="3" stroke-opacity="0"/></g></g></g><g id="eAivBJHZy8634" opacity="0" filter="url(#eAivBJHZy8634-filter)"><path d="M838.15,408.097c14.051-8.112,14.051-21.264,0-29.377-14.052-8.112-36.835-8.112-50.886,0-14.052,8.113-14.052,21.265,0,29.377c14.051,8.112,36.834,8.112,50.886,0Z" fill="#54c97c" stroke="#1a8b08" stroke-width="2"/><path d="M812.893,389.456c-6.151.582-10.488,1.309-15.753,4.18.001.001.002.003.004.005.289.441.674.892,1.145,1.352.051.05.101.099.154.149.139.13.283.261.437.394.143.122.295.246.45.37.163.13.334.262.51.394.197.147.399.294.613.443.106.074.213.148.323.222.327.22.664.442,1.028.668l.922.572-1.104.474c-.079.034-.156.07-.227.111-.042.025-.081.05-.118.078-.279.217-.413.458-.378.678.033.21.214.386.537.522l.097.046c.029.015,3.076,1.555,4.68.637l.868-.497.851.491c.167.097.343.188.524.276.019.009.039.017.058.026.043.02.086.038.129.058.124.057.248.113.376.165.077.031.156.06.234.089.119.045.238.091.362.133.087.03.177.058.266.087.122.039.244.077.368.112.088.026.179.05.268.074.13.035.261.069.394.101.09.022.18.042.272.063.136.031.275.06.414.088l.082.016c.064.012.127.024.19.036.147.028.295.053.444.078.068.011.135.022.204.033.018.003.037.006.055.008.166.026.331.048.499.07.02.003.041.006.061.008.053.007.106.015.158.021.19.023.382.044.574.063l.059.006c.03.004.061.007.092.01.316.03.634.055.952.075.007,0,.013,0,.019.001.303.019.606.034.911.045.024.001.048.002.072.003.631.022,1.259.028,1.877.02.021,0,.043-.001.064-.001.234-.004.467-.009.698-.016.004,0,.008,0,.012,0h.008c.245-.009.486-.017.725-.029c1.617-.076,3.097-.232,4.249-.41.005-.001.012-.002.018-.003.272-.042.521-.085.753-.128.024-.004.048-.009.072-.013.217-.042.414-.084.591-.125.024-.005.047-.011.071-.017.169-.041.319-.081.442-.12.015-.005.026-.009.04-.013.123-.041.225-.08.295-.117.055-.034.115-.086.176-.145.011-.011.023-.022.034-.033.059-.062.121-.134.183-.216.01-.014.021-.029.03-.043.066-.088.131-.185.197-.294l.002-.003c.067-.112.134-.236.201-.368.007-.016.016-.032.024-.048.067-.135.132-.277.195-.429.003-.006.005-.011.007-.017.131-.318.252-.67.356-1.047c0-.007.003-.015.005-.021.466-1.735.528-3.988-.704-5.819-.002-.003-.004-.006-.007-.009-.113-.168-.239-.332-.373-.492-.007-.008-.013-.016-.02-.024-.14-.162-.292-.321-.456-.475-.006-.005-.014-.011-.019-.017-.004-.002-.007-.005-.01-.008-.013-.012-.03-.024-.043-.036-3.491-1.903-7.199-3.044-12.769-2.518Z" clip-rule="evenodd" fill="#fff" fill-rule="evenodd"/><path d="M819.024,397.582c-1.019.588-.778,1.682.539,2.443c1.317.76,3.211.899,4.231.31c1.019-.588.779-1.682-.538-2.442-1.317-.761-3.212-.9-4.232-.311Zm-5.079-4.786l.812-.027c-.028-.408.091-.789.338-1.126.046.089.122.175.23.251.439.311,1.238.354,1.784.094.546-.258.633-.721.194-1.032-.219-.154-.525-.242-.845-.26.617-.233,1.326-.341,2.02-.29l.117-.465c-1.11-.082-2.252.14-3.135.608-1.023.555-1.578,1.35-1.515,2.247Zm11.758-.786c.002.003.006.005.009.008.006.006.013.011.019.017.165.153.316.312.456.475.007.007.013.015.02.023.135.16.26.325.374.493.002.003.004.005.007.008c1.232,1.832,1.17,4.084.703,5.819-.001.007-.004.014-.005.021-.103.378-.224.73-.355,1.047-.003.006-.005.012-.008.017-.063.152-.127.294-.194.429-.008.016-.017.032-.025.048-.067.132-.134.257-.201.369l-.002.003c-.065.108-.131.205-.196.294-.01.014-.02.028-.031.042-.062.082-.124.155-.183.216-.011.012-.022.023-.034.033-.061.06-.121.111-.176.146-.069.037-.171.076-.295.116-.014.005-.025.009-.039.014-.124.038-.273.079-.442.12-.025.005-.048.011-.072.016-.176.042-.373.083-.59.125-.024.004-.048.009-.072.013-.232.044-.482.087-.753.129-.007.001-.013.002-.019.002-1.152.178-2.631.335-4.248.411-.239.011-.481.02-.725.028h-.009c-.004.001-.008.001-.012.001-.231.007-.463.012-.697.015-.022,0-.043.001-.064.001-.618.008-1.247.002-1.877-.02-.024,0-.049-.002-.073-.002-.304-.012-.608-.026-.911-.045-.005-.001-.012-.001-.018-.002-.318-.02-.637-.045-.953-.075-.03-.003-.061-.006-.092-.009l-.058-.007c-.193-.019-.385-.039-.575-.063-.052-.006-.104-.014-.157-.02-.02-.003-.041-.005-.062-.008-.167-.022-.333-.045-.498-.07-.019-.003-.037-.006-.056-.009-.068-.01-.136-.021-.204-.033-.148-.024-.297-.05-.443-.077-.064-.012-.127-.024-.191-.037l-.081-.016c-.139-.027-.278-.056-.414-.088-.092-.02-.183-.041-.273-.063-.132-.031-.263-.066-.393-.1-.09-.025-.18-.049-.268-.074-.124-.036-.246-.074-.369-.113-.088-.028-.179-.056-.265-.086-.124-.043-.243-.088-.362-.133-.078-.03-.158-.058-.234-.089-.129-.053-.252-.109-.376-.165-.044-.02-.087-.039-.13-.058-.019-.009-.039-.018-.057-.026-.182-.088-.357-.18-.525-.277l-.851-.491-.868.497c-1.604.918-4.651-.622-4.679-.636l-.098-.046c-.323-.137-.503-.313-.537-.522-.035-.221.1-.461.379-.679.037-.028.075-.053.117-.077.071-.042.148-.078.228-.112l1.103-.474-.922-.572c-.363-.226-.7-.447-1.028-.667-.109-.075-.216-.149-.322-.222-.214-.15-.416-.297-.613-.443-.176-.133-.347-.264-.511-.395-.155-.123-.307-.247-.45-.369-.153-.133-.297-.264-.437-.395-.052-.05-.103-.099-.154-.149-.471-.46-.855-.91-1.145-1.352-.001-.002-.002-.003-.004-.005c5.265-2.87,9.603-3.598,15.754-4.179.576-.055,1.128-.087,1.667-.107-.037.018-.072.029-.109.049-1.443.746-2.157,1.943-2.453,2.591l.785.112c.219-.48.873-1.671,2.203-2.356.36-.187.707-.313,1.036-.409c3.913.083,6.847,1.116,9.639,2.637.013.013.03.024.044.037Zm1.617-7.432c-5.7-2.956-20.279-6.54-31.302.153-5.239,3.18-10.794,11.491,3.893,18.465c7.93,3.765,16.137,5.972,16.137,5.972s2.165-.757,2.932-4.159c.099-.37.17-.748.23-1.13c2.511-.108,4.793-.408,6.377-.749.002-.001.004-.001.005-.001.314-.068.601-.137.856-.207.006-.001.01-.002.015-.004.251-.069.474-.138.662-.207l.008-.003c.188-.069.342-.137.457-.204.069-.04.139-.09.21-.145.021-.016.041-.034.062-.051.052-.045.106-.093.16-.145.02-.02.041-.04.061-.062.063-.064.127-.134.19-.208.008-.011.017-.021.026-.032.154-.185.306-.4.453-.64l.02-.035c.071-.116.14-.237.208-.365.002-.003.003-.006.005-.01.145-.273.281-.569.405-.885.001.038.002.059.002.059s14.286-6.924-2.072-15.407Zm-16.731,10.155c-1.554-.036-2.926.283-3.891.874-.81.51-1.195,1.17-1.053,1.81l.806-.068c-.09-.4.098-.809.502-1.165.031.184.183.361.45.487.539.254,1.34.204,1.788-.112.448-.314.375-.776-.164-1.029-.133-.063-.28-.107-.436-.133.585-.143,1.245-.212,1.952-.195l.046-.469Zm6.861,2.024c.709-.41.773-1.038.144-1.401l-.579.334c.315.182.255.513-.134.738-.39.225-.963.26-1.278.077l-.579.335c.628.363,1.717.326,2.426-.083Zm-8.065-2.696l-.193-.453c-1.123.171-3.191.585-4.489,1.416-1.83,1.182-1.242,2.263-1.217,2.308l.773-.151c-.019-.036-.454-.88,1.046-1.848c1.199-.77,3.25-1.146,4.08-1.272Z" clip-rule="evenodd" fill="#310855" fill-rule="evenodd"/></g><g id="eAivBJHZy8638" transform="translate(0 0.000001)" opacity="0" filter="url(#eAivBJHZy8638-filter)"><path d="M611.154,254.387c14.155-8.172,14.155-21.42,0-29.591-14.154-8.172-37.103-8.172-51.257,0-14.155,8.171-14.155,21.419,0,29.591c14.154,8.171,37.103,8.171,51.257,0Z" fill="#54c97c" stroke="#1a8b08" stroke-width="2"/><g transform="translate(0 0.000001)"><path d="M575.55,243.989c-.042.024-.08.05-.116.078-.276.216-.406.456-.368.678.038.21.222.387.548.526l.1.047c.029.015,3.112,1.577,4.704.667l.862-.493.861.498c5.193,2.997,16.724,1.576,18.018.886c1.195-.746,3.652-7.401-1.54-10.398l-.862-.498.854-.497c1.587-.926-1.129-2.698-1.156-2.716l-.083-.057c-.24-.189-.547-.295-.911-.316-.384-.023-.8.052-1.175.212-.131.057-.233.126-.326.197l-.811.634-1.003-.539c-1.656-.892-3.22-1.584-4.723-2.098-.401.51-1.31,1.082-3.203,1.613-1.421,1.035-3.601,2.37-6.512,3.41-2.868,1.024-5.864,1.556-8.092,1.832.507,1.594,2.269,3.285,5.323,5.176l.934.579-1.097.469c-.079.034-.156.069-.226.11Z" clip-rule="evenodd" fill="#fff" fill-rule="evenodd"/><path d="M589.619,235.845c-1.016.55-1.558,1.344-1.477,2.244l.813-.022c-.036-.409.078-.791.319-1.127.047.09.124.176.234.254.446.314,1.249.362,1.792.105.543-.256.621-.719.174-1.034-.222-.156-.531-.247-.851-.266.614-.23,1.323-.334,2.02-.278l.108-.466c-1.114-.089-2.255.126-3.132.59Zm-1.036-1.161c-1.433.74-2.126,1.936-2.412,2.583l.79.118c.211-.48.843-1.671,2.166-2.35c1.665-.857,3.138-.597,3.197-.585l.258-.446c-.079-.016-1.965-.367-3.999.68Zm5.363,8.55l-1.265.246c-.997.967-2.194,1.823-2.194,1.823s4.091.313,5.839-.695c1.747-1.009,1.204-3.371,1.204-3.371s-1.482.691-3.156,1.266l-.428.731Zm-2.216-1.151c.703-.406.755-1.036.118-1.404l-.575.332c.32.184.266.516-.12.738-.386.223-.961.255-1.28.07l-.575.332c.638.368,1.729.338,2.432-.068Zm5.643-9.372l.081.057c.028.018,2.744,1.789,1.156,2.715l-.854.498.862.497c5.192,2.998,2.736,9.653,1.541,10.399-1.294.69-12.826,2.111-18.018-.886l-.862-.498-.862.493c-1.591.91-4.675-.653-4.704-.667l-.099-.047c-.327-.139-.51-.317-.548-.527-.039-.222.091-.462.368-.678.036-.028.074-.053.115-.077.071-.041.148-.077.226-.111l1.099-.468-.936-.579c-3.054-1.892-4.816-3.583-5.323-5.176c2.229-.277,5.225-.808,8.093-1.832c2.911-1.041,6.512-3.411,6.512-3.411s2.801-1.102,3.204-1.613c1.502.514,3.066,1.207,4.722,2.098l1.003.54.811-.634c.093-.072.194-.14.326-.198.374-.159.791-.235,1.174-.212.365.022.672.128.913.317Zm1.923-.866c-.649-.491-1.57-.793-2.598-.854-.942-.056-1.91.096-2.746.428-1.715-.878-3.688-1.744-5.865-2.338-5.647-4.164-15.263-1.939-19.358-.126-.846.375-1.87.929-2.866,1.638-2.019,1.023-3.901,2.539-5.458,4.742c0,0,.732-.315,1.962-.71-1.128,2.756-.25,6.289,5.697,10.324-.385-2.342-.093-4.241.721-5.78.991,1.553,2.776,2.947,4.592,4.129-.575.482-.838,1.041-.741,1.584.105.594.629,1.125,1.479,1.5c1.487.773,4.259,1.698,6.634,1.146-.268.521-.036,1.12.704,1.548.817.471,1.999.589,2.958.35-.411.554-.209,1.237.608,1.709.821.473,2.008.589,2.97.348-.419.555-.217,1.24.603,1.714.706.408,1.686.547,2.559.425l-.049.029l1.846,2.105l3.602-2.079-3.608-1.054c.248-.516.014-1.104-.715-1.525-.82-.473-2.007-.59-2.968-.348.392-.522.231-1.156-.47-1.625c5.802.435,11.831-.514,13.102-1.248c1.276-.737,2.928-4.244,2.15-7.606.815.425,1.938.525,2.86.294-.418.555-.217,1.241.603,1.714.706.408,1.686.547,2.559.426l-.049.028l1.846,2.105l3.602-2.079-3.608-1.055c.248-.515.014-1.103-.715-1.524-.82-.473-2.008-.589-2.968-.348.417-.555.217-1.24-.604-1.714-.818-.472-1.999-.589-2.959-.351.413-.554.209-1.236-.608-1.708-.747-.432-1.798-.564-2.708-.402.931-1.367-.664-2.957-1.996-3.812Zm-15.703,7.485l-.204-.456c-1.122.164-3.189.567-4.475,1.392-1.813,1.174-1.204,2.262-1.177,2.308l.773-.147c-.021-.036-.472-.886,1.013-1.847c1.189-.766,3.239-1.129,4.07-1.25Zm-.772,1.334c.583-.139,1.244-.204,1.953-.183l.038-.47c-1.559-.046-2.929.266-3.886.853-.804.506-1.177,1.165-1.023,1.808l.808-.063c-.098-.402.083-.811.481-1.166.034.185.19.364.46.491.546.259,1.348.214,1.792-.1.444-.313.361-.777-.183-1.034-.135-.064-.283-.108-.44-.136Z" clip-rule="evenodd" fill="#310855" fill-rule="evenodd"/></g></g><g id="eAivBJHZy8643" opacity="0" filter="url(#eAivBJHZy8643-filter)"><g><path d="M197.467,632.835c13.341-7.701,13.341-20.188,0-27.89s-34.971-7.702-48.311,0c-13.341,7.702-13.341,20.189,0,27.89c13.34,7.702,34.97,7.702,48.311,0Z" fill="#54c97c"/><path d="M198.333,633.335c13.819-7.978,13.819-20.912,0-28.89s-36.224-7.978-50.043,0c-13.82,7.978-13.82,20.912,0,28.89c13.819,7.978,36.224,7.978,50.043,0Z" fill="none" stroke="#1a8b08" stroke-width="2"/></g><path d="M179.793,612.936l-5.797-3.347c-2.454-1.416-9.058-.383-13.333,2.085-4.23,2.441-5.765,6.003-3.221,7.472l5.798,3.347-.927.534c-.815.511-.708,1.36.256,1.917.968.558,2.443.619,3.326.144l1.017-.588.826.596c.028.02,2.815,2.026,4.703,3.116.766.429,6.122-.004,11.332-.909l2.166-1.183l2.079-1.201c1.587-3.05,2.36-6.186,1.623-6.637-1.896-1.094-5.321-2.739-5.355-2.756l-.999-.479l1.008-.581c.815-.51.708-1.36-.257-1.916-.967-.559-2.442-.619-3.326-.145l-.919.531Z" clip-rule="evenodd" fill="#fff" fill-rule="evenodd"/><path d="M175.754,615.233c-1.134.545-1.748,1.359-1.686,2.236l.797-.026c-.028-.402.119-.785.405-1.125.044.06.098.119.174.172.431.305,1.216.347,1.751.093.537-.255.622-.708.19-1.014-.146-.103-.332-.173-.535-.215.627-.193,1.311-.26,1.926-.177l.194-.448c-1.058-.143-2.26.045-3.216.504Zm6.478,8.55c-.832.481-1.152,1.089-.804,1.444l3.306-1.909c-.616-.2-1.669-.015-2.502.465Zm-6.429,1.491c0,0,3.622-.27,6.145-1.726c2.522-1.456,2.989-3.547,2.989-3.547l-4.354,2.759-4.78,2.514Zm1.378-11.839c.274,0,.528.038.633.06l.563-.867c-.127-.027-.584-.113-1.16-.114l-.036.921Zm7.112,1.03l-1.008.582.999.479c.034.017,3.46,1.661,5.355,2.756.737.451-.036,3.587-1.623,6.637l-2.079,1.201-2.166,1.183c-5.209.905-10.565,1.337-11.332.908-1.887-1.09-4.675-3.095-4.703-3.115l-.826-.596-1.016.587c-.884.475-2.36.414-3.326-.144-.965-.557-1.073-1.406-.257-1.916l.927-.535-5.797-3.347c-2.545-1.469-1.01-5.03,3.22-7.472c4.274-2.468,10.879-3.5,13.333-2.084l5.798,3.347.918-.531c.884-.475,2.36-.414,3.326.144.965.557,1.073,1.406.257,1.916Zm1.449-2.901c-1.607-.927-4.007-1.106-5.81-.516l-4.232-2.444c-3.853-2.224-11.903-.678-16.716,2.101-4.727,2.729-7.16,7.167-3.249,9.425l4.233,2.444c-1.023,1.041-.713,2.426.894,3.354c1.577.91,3.92,1.1,5.711.548.977.686,2.767,1.915,4.16,2.72.572.33,1.551.487,2.743.531.595.022,1.244.016,1.926-.013c3.242-.135,7.182-.763,9.307-1.139l.272-.049l2.595-1.418.013-.006l2.537-1.466.09-.167c.679-1.281,1.831-3.686,2.034-5.61.042-.402.04-.781-.014-1.126-.097-.622-.364-1.132-.891-1.436-1.392-.804-3.495-1.854-4.663-2.425.967-1.036.642-2.394-.94-3.308Zm-16.354,8.422c-.092-.044-.195-.075-.299-.1.589-.165,1.253-.25,1.95-.234l.046-.46c-1.522-.035-2.933.319-3.875.973-.793.552-1.119,1.246-.873,1.857l.776-.112c-.143-.355-.027-.751.308-1.112.072.117.193.224.372.308.529.25,1.315.201,1.756-.109.439-.309.367-.762-.161-1.011Zm5.513-5.299l-1.271-.543c-1.143.881-2.355,1.894-2.367,1.904l1.308.514c.012-.01,1.205-1.008,2.33-1.875Zm-5.381,3.637l-.891-.755c-.175.07-4.285,1.71-5.41,2.359-1.149.663-.584,1.64-.515,1.749l1.5-.327c-.084-.133-.237-.563.133-.777.846-.488,4.028-1.789,5.183-2.249Zm6.945-4.752c.068-.04.147-.07.241-.091l-.578-.853c-.295.069-.557.169-.781.298l-.149.089l1.156.623.111-.066Zm-.597.393l-1.234-.571c-.159.114-.331.241-.51.373l1.256.555c.17-.127.335-.248.488-.357Zm2.669,7.821c1.254-.724,1.366-1.838.248-2.483l-1.137.657c.501.289.398.819-.229,1.181-.628.362-1.544.421-2.045.132l-1.138.657c1.117.645,3.047.58,4.301-.144Zm-4.442.094l-.674-.238c-.18.166-.272.356-.264.547.01.276.215.531.578.717.356.183.825.277,1.316.267.379-.008.744-.078,1.052-.203l-.451-.375c-.178.072-.391.113-.616.118-.289.006-.56-.049-.767-.154-.198-.102-.309-.239-.314-.387-.005-.102.043-.202.14-.292Z" clip-rule="evenodd" fill="#310855" fill-rule="evenodd"/></g><g id="eAivBJHZy8649" transform="translate(.000001 0.000001)" opacity="0" filter="url(#eAivBJHZy8649-filter)"><path d="M82.8681,566.799c14.2858-8.248,14.2858-21.619,0-29.866s-37.4477-8.247-51.7335,0-14.2858,21.618,0,29.866c14.2858,8.247,37.4477,8.247,51.7335,0Z" fill="#54c97c" stroke="#1a8b08" stroke-width="2"/><path d="M63.7398,544.683c-.0058.003-.0088.007-.0141.01L58.593,541.73c-3.2584-1.881-10.8418-.552-15.5496,2.165-4.7079,2.718-6.6074,6.864-3.3489,8.745l5.1327,2.963c-.0053.003-.0118.005-.0177.008-1.3953.806-1.3098,2.162.1918,3.029s3.8516.916,5.2469.111c.0059-.004.0089-.007.0142-.01c0,0,2.9312,2.112,4.9563,3.282c2.0252,1.169,13.2367-.817,13.2367-.817l2.4705-1.349l2.3904-1.381c0,0,3.4935-6.581,1.4695-7.749-2.024-1.169-5.6249-2.896-5.6249-2.896.0053-.003.0117-.005.0176-.009c1.3953-.805,1.3099-2.162-.1918-3.029s-3.8516-.916-5.2469-.11Z" clip-rule="evenodd" fill="#fff" fill-rule="evenodd"/><path d="M68.3701,547.286l-1.0428.602l1.0335.496c.0359.017,3.5811,1.719,5.5421,2.851.7638.468-.0366,3.714-1.6792,6.87l-1.2823.741-3.0971-1.788-1.7655,1.019l3.0722,1.774-1.3205.721c-5.3914.937-10.9359,1.385-11.7286.941-1.9541-1.128-4.838-3.204-4.8668-3.225l-.8555-.616-1.0522.608c-.9146.491-2.4416.428-3.4424-.149-.9984-.577-1.1096-1.456-.2657-1.984l.3125-.18c2.3536,1.215,6.012,1.156,8.3112-.171c1.294-.747,1.8888-1.743,1.7906-2.713l1.5815.913c.3384.195.7318.341,1.1516.437l-1.1805.682c-1.7731,1.024-1.9608,2.581-.418,3.471l4.5397,2.621l1.7655-1.019-4.5398-2.621c-.5755-.332-.3982-.996.388-1.45l5.1733-2.987c-.0962.392-.7497,1.104-2.012,1.832-1.0505.607-2.2614,1.059-3.086,1.154l.2947.935c1.1624-.133,2.6394-.665,3.9482-1.421c1.4129-.815,2.347-1.717,2.4985-2.411l-1.6192-.103.2877-.166c.7862-.454,1.936-.556,2.5115-.224l4.5398,2.621l1.7654-1.019-4.5397-2.621c-1.5428-.89-4.2392-.782-6.0123.241l-2.893,1.67c-.502.015-1.0081-.083-1.3864-.302l-3.8873-2.244.9034-.521c2.3567,1.079,5.832.975,8.0459-.303c2.2997-1.328,2.4006-3.439.2971-4.798l.5108-.296c.914-.492,2.4411-.429,3.4424.149.9978.576,1.109,1.455.2657,1.983ZM40.5776,552.13c-.2325-.134-.421-.291-.5871-.457.7099-.818,1.2602-2.041,1.2602-2.041l3.2182-.35l2.2989-2.835l4.5319-.696.6908-2.319l3.6492-.186.7489-1.474c.5106.109.9629.26,1.3215.467l4.7318,2.732c-1.5374.004-3.4678.776-4.9248,1.617-1.6666.962-3.1757,2.281-2.7176,3.209l-1.3376.772c-1.608-.264-3.8905.606-5.5571,1.568-1.3382.773-2.5737,1.775-2.7741,2.621l-4.5531-2.628Zm29.2922-7.846c-1.663-.96-4.1474-1.145-6.013-.535l-4.3812-2.529c-3.9873-2.302-12.3186-.701-17.2995,2.174-4.8921,2.824-7.412,7.418-3.3639,9.755l4.3812,2.529c-1.0586,1.078-.7369,2.512.9262,3.472c1.6324.942,4.0566,1.138,5.9104.567c1.0116.71,2.8643,1.982,4.3064,2.815c2.2954,1.325,10.8805-.009,14.464-.643l.2826-.051l2.6863-1.467.0129-.007l2.6247-1.516.093-.173c1.1153-2.102,3.4632-7.134,1.169-8.458-1.4403-.832-3.6173-1.919-4.8249-2.511.999-1.071.6634-2.477-.9742-3.422Z" clip-rule="evenodd" fill="#310855" fill-rule="evenodd"/></g><g id="eAivBJHZy8653_to" transform="translate(499.500671,479.953423)"><g id="eAivBJHZy8653" transform="translate(-225.763496,-337.417511)" opacity="0"><rect width="116.603" height="24.8213" rx="12.4107" ry="12.4107" transform="matrix(.866044-.499967 0.866044 0.499967 165.023 359.784)" fill="url(#eAivBJHZy8654-fill)"/><path d="M193.539,360.451l-1.601.924-9-1.09l5.444,3.143-1.524.88-7.674-4.43l1.899-1.097l8.334,1.05-5.076-2.93l1.524-.88l7.674,4.43Z" fill="#fff"/><path d="M200.227,356.59l-4.903,2.831-7.674-4.431l4.903-2.83l1.407.812-3.379,1.951l1.753,1.012l3.059-1.766l1.332.769-3.059,1.766l1.775,1.025l3.379-1.951l1.407.812Z" fill="#fff"/><path d="M206.758,350.083l-3.89-3.878l1.557-.899l5.509,5.68-1.568.905-7.255-2.122l3.677,4.188-1.591.918-9.849-3.174l1.612-.931l6.718,2.221-3.548-4.051l1.579-.911l7.049,2.054Z" fill="#fff"/><path d="M217.404,346.674l-1.546.892-7.674-4.43l1.546-.892l7.674,4.43Z" fill="#fff"/><path d="M218.699,338.703l-2.474,1.428l6.256,3.612-1.535.886-6.256-3.612-2.473,1.428-1.418-.818l6.482-3.743l1.418.819Z" fill="#fff"/><path d="M230.931,338.864l-4.903,2.831-7.674-4.43l4.903-2.831l1.408.813-3.38,1.95l1.754,1.013l3.059-1.766l1.331.768-3.059,1.766l1.775,1.025l3.379-1.951l1.407.812Z" fill="#fff"/><path d="M236.321,335.753l-4.49-.82-.795.459l2.955,1.706-1.535.886-7.674-4.43l3.059-1.766c.751-.433,1.578-.653,2.482-.658s1.695.188,2.373.58c.534.308.845.661.933,1.061.088.39-.054.776-.425,1.157l4.818.843-1.701.982Zm-6.573-1.104l1.237-.714c.383-.221.583-.45.602-.685.026-.24-.12-.452-.437-.635-.325-.188-.695-.274-1.111-.259-.408.011-.804.127-1.186.348l-1.237.714l2.132,1.231Z" fill="#fff"/><path d="M244.648,330.946l-2.405-.637-3.18,1.837l1.102,1.388-1.613.931-4.67-6.164l1.767-1.021l10.656,2.709-1.657.957Zm-8.259-2.18l1.818,2.299l2.165-1.25-3.983-1.049Z" fill="#fff"/><path d="M246.092,322.889l-2.473,1.428l6.256,3.611-1.535.887-6.256-3.612-2.474,1.428-1.418-.819l6.483-3.742l1.417.819Z" fill="#fff"/><path d="M254.967,324.988l-1.546.893-7.674-4.43l1.546-.893l7.674,4.43Z" fill="#fff"/><path d="M252.872,319.587c-.045.535.339,1.037,1.155,1.508.815.471,1.69.695,2.623.673.926-.027,1.717-.229,2.372-.607.662-.383,1.017-.841,1.062-1.376.039-.539-.349-1.044-1.165-1.514-.815-.471-1.686-.693-2.612-.667-.933.022-1.731.225-2.394.607-.655.379-1.002.837-1.041,1.376Zm-.414,2.426c-1.197-.692-1.77-1.477-1.719-2.357.052-.88.63-1.638,1.735-2.276c1.111-.641,2.429-.977,3.953-1.007s2.884.301,4.082.992c1.191.688,1.76,1.471,1.708,2.351-.051.879-.633,1.64-1.745,2.282-1.104.637-2.418.971-3.942,1.001s-2.881-.299-4.072-.986Z" fill="#fff"/><path d="M272.343,314.957l-1.601.925-9-1.09l5.444,3.143-1.524.879-7.674-4.43l1.9-1.096l8.334,1.049-5.077-2.93l1.524-.88l7.674,4.43Z" fill="#fff"/></g></g><g id="eAivBJHZy8667" opacity="0" filter="url(#eAivBJHZy8667-filter)"><rect width="154.189" height="43.3398" rx="5.5" ry="5.5" transform="matrix(.866039-.499977 0.866039 0.499977 142.024023 671.756001)" fill="#4b4b4b" stroke="#1a8b08"/><path d="M262.719,609.287c-2.406,1.389-3.015,3.506-1.504,5.239-.609.531-1.017,1.13-1.197,1.756-.179.626-.126,1.265.155,1.875.851,1.885,3.714,3.219,7.095,3.304.978,1.141,2.766,1.976,4.902,2.288c3.264.5,6.736-.283,8.606-1.931c1.093.034,2.189-.067,3.215-.296c1.026-.23,1.958-.582,2.735-1.034c2.406-1.389,3.016-3.506,1.504-5.239c1.234-1.077,1.612-2.399,1.034-3.627-.843-1.889-3.706-3.224-7.086-3.309l-.008-.004c-.483-.564-1.172-1.06-2.018-1.455-.847-.395-1.832-.681-2.891-.837-3.257-.495-6.73.287-8.592,1.931-1.093-.032-2.189.071-3.215.302s-1.958.584-2.735,1.037Zm1.412.815v.008c.968-.559,2.23-.906,3.585-.984-.015.026-.038.082-.06.12l-1.889,3.967c-.099.202.002.415.26.563l5.85,3.378-2.958.469-4.836-2.792c-1.079-.623-1.68-1.471-1.672-2.357.009-.887.628-1.74,1.72-2.372Zm6.98-2.064c.725-.42,1.626-.723,2.612-.88.987-.156,2.024-.16,3.007-.011c1.3.2,2.442.653,3.211,1.287-.052.004-.14.021-.2.03l-6.88,1.086c-.171.029-.328.082-.455.155-.126.073-.219.163-.267.263l-2.208,4.652-2.146-1.239l1.82-3.844c.267-.565.786-1.082,1.506-1.499v0Zm-8.613,7.538l5.138,2.966c.257.148.619.203.975.15l8.043-1.275-.812,1.717-6.643,1.051c-1.486.234-3.064.119-4.388-.32s-2.285-1.165-2.673-2.019c-.342-.755-.215-1.557.36-2.27Zm11.09-4.935l6.65-1.055c3.099-.491,6.254.556,7.062,2.339h.014c.339.755.212,1.558-.366,2.266l-5.138-2.967c-.258-.148-.627-.207-.975-.149l-8.059,1.274.812-1.708Zm-1.342,2.821l3.395-.535l2.462,1.422-.926,1.96-3.395.534-2.462-1.421.926-1.96Zm5.337-.841l2.958-.469l4.829,2.788c2.249,1.298,2.225,3.417-.048,4.729l-.007-.004c-.961.555-2.23.906-3.578.979.015-.025.045-.085.06-.12l1.889-3.967c.099-.201.005-.419-.26-.563l-5.843-3.373Zm1.931,2.534l2.146,1.239-1.828,3.839c-.857,1.785-4.036,2.857-7.117,2.394l.008-.004c-1.3-.191-2.442-.652-3.212-1.286.052-.004.141-.022.2-.031l6.88-1.086c.172-.028.329-.081.455-.154.127-.073.219-.164.268-.263l2.2-4.648Z" fill="#fff"/><path id="eAivBJHZy8670" d="M157.591,673.354c-.838-.484-.838-1.267,0-1.751l89.321-51.567c.838-.483,2.196-.483,3.033,0c.838.484.838,1.268,0,1.751l-89.321,51.567c-.838.483-2.196.483-3.033,0Z" opacity="0" clip-rule="evenodd" fill="#fff" fill-rule="evenodd"/><path id="eAivBJHZy8671" d="M165.522,677.933c-.837-.483-.837-1.267,0-1.751l74.296-42.892c.837-.483,2.195-.483,3.033,0c.837.484.837,1.268,0,1.751l-74.296,42.892c-.837.484-2.195.484-3.033,0Z" opacity="0" clip-rule="evenodd" fill="#fff" fill-rule="evenodd"/><path id="eAivBJHZy8672" d="M173.868,682.752c-.837-.484-.837-1.267,0-1.751l35.896-20.723c.837-.484,2.195-.484,3.033,0c.837.483.837,1.267,0,1.751l-35.896,20.723c-.838.483-2.195.483-3.033,0Z" opacity="0" clip-rule="evenodd" fill="#fff" fill-rule="evenodd"/></g><g id="eAivBJHZy8673" opacity="0" filter="url(#eAivBJHZy8673-filter)"><rect width="154.189" height="43.3397" rx="5.5" ry="5.5" transform="matrix(.866044-.499967 0.866044 0.499967 22.188333 607.506006)" fill="#4b4b4b" stroke="#1a8b08"/><path d="M142.884,545.038c-2.407,1.39-3.016,3.506-1.505,5.239-.609.532-1.017,1.13-1.197,1.756-.179.626-.126,1.265.156,1.875.851,1.885,3.713,3.219,7.094,3.304.978,1.141,2.767,1.976,4.902,2.288c3.265.5,6.737-.283,8.606-1.93c1.093.033,2.189-.068,3.215-.297c1.026-.23,1.958-.582,2.735-1.034c2.407-1.389,3.016-3.506,1.505-5.239c1.233-1.077,1.611-2.398,1.034-3.626-.844-1.889-3.707-3.224-7.087-3.309l-.008-.004c-.483-.564-1.171-1.06-2.018-1.456-.847-.395-1.832-.68-2.89-.836-3.258-.495-6.731.287-8.592,1.93-1.094-.031-2.19.072-3.216.303-1.026.23-1.958.584-2.734,1.036Zm1.411.815v.009c.968-.56,2.23-.906,3.586-.984-.016.026-.039.081-.061.12l-1.889,3.967c-.099.201.002.414.26.563l5.85,3.377-2.958.469-4.836-2.792c-1.079-.622-1.68-1.47-1.671-2.357s.627-1.74,1.719-2.372Zm6.98-2.063c.725-.42,1.626-.723,2.613-.88.986-.156,2.023-.16,3.006-.011c1.3.2,2.442.653,3.211,1.286-.052.005-.14.022-.2.031l-6.88,1.086c-.171.028-.328.081-.455.154-.126.074-.218.164-.267.263l-2.208,4.652-2.146-1.239l1.821-3.843c.266-.566.786-1.083,1.505-1.499v0Zm-8.613,7.537l5.138,2.966c.257.149.619.203.975.15l8.043-1.274-.812,1.716-6.642,1.051c-1.487.234-3.065.119-4.389-.32-1.324-.438-2.285-1.164-2.673-2.019-.342-.754-.215-1.557.36-2.27Zm11.091-4.934l6.65-1.056c3.098-.49,6.253.557,7.061,2.34l.015-.001c.339.755.211,1.559-.367,2.266l-5.138-2.966c-.257-.149-.627-.207-.975-.15L152.94,548.1l.813-1.707Zm-1.343,2.82l3.395-.534l2.462,1.421-.925,1.96-3.396.535-2.462-1.422.926-1.96Zm5.338-.841l2.957-.468l4.829,2.787c2.25,1.299,2.225,3.418-.047,4.729l-.008-.004c-.961.555-2.23.906-3.578.98.015-.026.046-.086.061-.12l1.889-3.967c.098-.202.004-.419-.26-.563l-5.843-3.374Zm1.931,2.535l2.146,1.238-1.829,3.839c-.857,1.785-4.036,2.857-7.117,2.395l.008-.004c-1.3-.192-2.442-.653-3.212-1.287.052-.004.141-.022.201-.03l6.879-1.086c.172-.029.329-.082.455-.155.127-.073.219-.163.268-.262l2.201-4.648Z" fill="#fff"/><path id="eAivBJHZy8676" d="M37.7547,609.104c-.8375-.484-.8375-1.267,0-1.751l89.3223-51.566c.837-.483,2.195-.483,3.033,0c.837.484.837,1.268,0,1.751L40.7877,609.104c-.8375.483-2.1954.483-3.033,0Z" opacity="0" clip-rule="evenodd" fill="#fff" fill-rule="evenodd"/><path id="eAivBJHZy8677" d="M45.6864,613.683c-.8375-.483-.8375-1.267,0-1.751l74.2956-42.891c.838-.483,2.196-.483,3.033,0c.838.484.838,1.268,0,1.751L48.7193,613.683c-.8375.484-2.1954.484-3.0329,0Z" opacity="0" clip-rule="evenodd" fill="#fff" fill-rule="evenodd"/><path id="eAivBJHZy8678" d="M54.0321,618.502c-.8375-.484-.8375-1.267,0-1.751l35.8958-20.723c.8375-.483,2.1954-.483,3.0329,0c.8376.484.8376,1.268,0,1.751L57.065,618.502c-.8375.483-2.1954.483-3.0329,0Z" opacity="0" clip-rule="evenodd" fill="#fff" fill-rule="evenodd"/></g><g id="eAivBJHZy8679" transform="translate(.000001 0)" opacity="0" filter="url(#eAivBJHZy8679-filter)"><rect width="154.189" height="43.3398" rx="5.5" ry="5.5" transform="matrix(.866039-.499977 0.866039 0.499977 554.907023 291.618001)" fill="#4b4b4b" stroke="#1a8b08"/><path d="M675.602,229.148c-2.406,1.389-3.015,3.506-1.504,5.239-.609.531-1.017,1.13-1.197,1.756s-.127,1.265.155,1.875c.851,1.885,3.714,3.219,7.095,3.304.978,1.141,2.766,1.976,4.901,2.288c3.265.5,6.737-.283,8.607-1.93c1.092.033,2.188-.068,3.214-.297c1.027-.23,1.959-.582,2.736-1.034c2.406-1.389,3.015-3.506,1.504-5.239c1.234-1.077,1.612-2.399,1.034-3.627-.843-1.889-3.706-3.223-7.087-3.308l-.007-.004c-.484-.564-1.172-1.061-2.018-1.456-.847-.395-1.832-.68-2.891-.836-3.258-.496-6.73.287-8.592,1.93-1.094-.032-2.19.071-3.215.302-1.026.231-1.958.585-2.735,1.037Zm1.412.815l-.001.008c.969-.559,2.231-.906,3.586-.983-.015.025-.038.081-.06.119l-1.889,3.968c-.099.201.002.414.259.563l5.851,3.377-2.958.469-4.836-2.792c-1.079-.623-1.681-1.47-1.672-2.357s.628-1.74,1.72-2.372Zm6.98-2.063c.724-.42,1.626-.724,2.612-.88.987-.157,2.024-.16,3.007-.011c1.3.2,2.441.652,3.211,1.286-.052.004-.141.022-.2.031l-6.88,1.086c-.172.028-.328.081-.455.154s-.219.164-.267.263l-2.208,4.652-2.147-1.239l1.821-3.843c.267-.566.786-1.083,1.506-1.5v.001Zm-8.613,7.537l5.137,2.966c.258.149.62.203.976.15l8.043-1.274-.812,1.716-6.643,1.051c-1.486.234-3.064.119-4.388-.32-1.324-.438-2.286-1.165-2.673-2.019-.342-.754-.215-1.557.36-2.27Zm11.09-4.935l6.65-1.055c3.099-.491,6.254.557,7.062,2.339h.014c.339.755.211,1.559-.367,2.266l-5.138-2.966c-.257-.149-.626-.207-.974-.15l-8.059,1.274.812-1.708Zm-1.342,2.821l3.395-.535l2.462,1.422-.926,1.96-3.395.535-2.462-1.422.926-1.96Zm5.337-.841l2.958-.469l4.829,2.788c2.249,1.299,2.224,3.418-.048,4.729l-.007-.004c-.961.555-2.231.906-3.578.98.015-.026.045-.086.06-.12l1.889-3.968c.099-.201.005-.418-.26-.562l-5.843-3.374Zm1.931,2.534l2.146,1.239-1.828,3.839c-.857,1.785-4.037,2.857-7.117,2.395l.007-.004c-1.3-.192-2.441-.653-3.211-1.287.052-.004.141-.022.2-.03l6.88-1.086c.172-.029.328-.082.455-.155s.219-.163.267-.263l2.201-4.648Z" fill="#fff"/><path id="eAivBJHZy8682" d="M570.473,293.215c-.837-.483-.837-1.267,0-1.751l89.322-51.566c.838-.484,2.196-.484,3.033,0c.838.483.838,1.267,0,1.751l-89.322,51.566c-.837.484-2.195.484-3.033,0Z" opacity="0" clip-rule="evenodd" fill="#fff" fill-rule="evenodd"/><path id="eAivBJHZy8683" d="M578.405,297.794c-.837-.483-.837-1.267,0-1.751l74.296-42.892c.837-.483,2.195-.483,3.033,0c.837.484.837,1.268,0,1.751l-74.296,42.892c-.837.484-2.195.484-3.033,0Z" opacity="0" clip-rule="evenodd" fill="#fff" fill-rule="evenodd"/><path id="eAivBJHZy8684" d="M586.751,302.613c-.838-.483-.838-1.267,0-1.751l35.895-20.723c.838-.483,2.196-.483,3.033,0c.838.484.838,1.268,0,1.751l-35.895,20.723c-.838.484-2.196.484-3.033,0Z" opacity="0" clip-rule="evenodd" fill="#fff" fill-rule="evenodd"/></g><g id="eAivBJHZy8685" transform="translate(0 0.000001)" opacity="0" filter="url(#eAivBJHZy8685-filter)"><rect width="154.189" height="43.3398" rx="5.5" ry="5.5" transform="matrix(.866039-.499977 0.866039 0.499977 782.866023 446.591001)" fill="#4b4b4b" stroke="#1a8b08"/><path d="M903.561,384.122c-2.406,1.389-3.015,3.506-1.504,5.239-.609.531-1.017,1.13-1.197,1.756s-.127,1.265.155,1.875c.851,1.885,3.714,3.219,7.095,3.304.978,1.141,2.766,1.976,4.901,2.288c3.265.499,6.737-.283,8.607-1.931c1.092.034,2.188-.067,3.214-.296c1.026-.23,1.959-.582,2.736-1.034c2.406-1.389,3.015-3.506,1.504-5.239c1.234-1.077,1.612-2.399,1.034-3.627-.843-1.889-3.706-3.224-7.087-3.309l-.007-.004c-.484-.564-1.172-1.06-2.018-1.455-.847-.395-1.832-.681-2.891-.837-3.258-.495-6.73.287-8.592,1.931-1.094-.032-2.19.071-3.215.302-1.026.231-1.958.584-2.735,1.037Zm1.412.814l-.001.009c.969-.559,2.231-.906,3.586-.984-.015.026-.038.082-.06.12l-1.889,3.967c-.099.202.002.415.259.563l5.851,3.378-2.958.469-4.836-2.792c-1.079-.623-1.681-1.471-1.672-2.357.009-.887.628-1.74,1.72-2.373Zm6.98-2.063c.724-.42,1.626-.723,2.612-.88.987-.156,2.024-.16,3.007-.011c1.3.2,2.441.653,3.211,1.287-.052.004-.141.021-.2.03l-6.88,1.086c-.172.029-.328.082-.455.155s-.219.163-.267.263l-2.208,4.652-2.147-1.239l1.821-3.844c.267-.565.786-1.082,1.506-1.499v0Zm-8.613,7.538l5.137,2.966c.258.148.62.203.976.15l8.043-1.275-.812,1.717-6.643,1.051c-1.486.234-3.064.119-4.388-.32s-2.286-1.165-2.673-2.02c-.342-.754-.215-1.556.36-2.269Zm11.09-4.935l6.65-1.055c3.099-.491,6.254.556,7.061,2.339h.015c.339.755.211,1.558-.367,2.266l-5.138-2.967c-.257-.148-.626-.207-.975-.149l-8.058,1.274.812-1.708Zm-1.342,2.821l3.395-.535l2.462,1.422-.926,1.96-3.395.534-2.462-1.421.926-1.96Zm5.337-.841l2.958-.469l4.829,2.788c2.249,1.298,2.224,3.417-.048,4.729l-.007-.004c-.961.555-2.231.906-3.578.979.015-.025.045-.085.06-.12l1.889-3.967c.099-.201.005-.419-.26-.563l-5.843-3.373Zm1.931,2.534l2.146,1.239-1.828,3.839c-.857,1.785-4.037,2.857-7.117,2.394l.007-.004c-1.3-.191-2.441-.652-3.211-1.286.052-.004.141-.022.2-.031l6.88-1.086c.172-.028.328-.081.455-.154s.219-.164.267-.263l2.201-4.648Z" fill="#fff"/><path id="eAivBJHZy8688" d="M798.432,448.189c-.837-.484-.837-1.267,0-1.751l89.322-51.567c.838-.483,2.196-.483,3.033,0c.838.484.838,1.268,0,1.751l-89.322,51.567c-.837.483-2.195.483-3.033,0Z" opacity="0" clip-rule="evenodd" fill="#fff" fill-rule="evenodd"/><path id="eAivBJHZy8689" d="M806.364,452.768c-.837-.483-.837-1.267,0-1.751l74.296-42.892c.837-.483,2.195-.483,3.033,0c.837.484.837,1.268,0,1.751l-74.296,42.892c-.837.484-2.195.484-3.033,0Z" opacity="0" clip-rule="evenodd" fill="#fff" fill-rule="evenodd"/><path id="eAivBJHZy8690" d="M814.71,457.587c-.838-.484-.838-1.268,0-1.751l35.895-20.723c.838-.484,2.196-.484,3.033,0c.838.483.838,1.267,0,1.751l-35.895,20.723c-.838.483-2.196.483-3.033,0Z" opacity="0" clip-rule="evenodd" fill="#fff" fill-rule="evenodd"/></g></g><clipPath id="eAivBJHZy8691"><rect width="1000" height="1000" rx="0" ry="0" fill="#fff"/></clipPath></g></svg>
