<svg width="1000" height="1000" viewBox="0 0 1000 1000" fill="none" xmlns="http://www.w3.org/2000/svg">
<g clip-path="url(#clip0_1336_4261)">
<g opacity="0.1" filter="url(#filter0_f_1336_4261)">
<rect width="620.942" height="533.734" rx="12" transform="matrix(0.866044 -0.499967 0.866044 0.499967 0 624.831)" fill="#AB4DFF"/>
</g>
<g opacity="0.2" filter="url(#filter1_f_1336_4261)">
<rect width="620.942" height="533.734" rx="12" transform="matrix(0.866044 -0.499967 0.866044 0.499967 0 586.153)" fill="#AB4DFF"/>
</g>
<g opacity="0.4" filter="url(#filter2_f_1336_4261)">
<rect width="620.942" height="533.734" rx="12" transform="matrix(0.866044 -0.499967 0.866044 0.499967 0 547.476)" fill="#AB4DFF"/>
</g>
<g opacity="0.4" filter="url(#filter3_f_1336_4261)">
<rect width="620.942" height="533.734" rx="12" transform="matrix(0.866044 -0.499967 0.866044 0.499967 0 508.798)" fill="#AB4DFF"/>
</g>
<g filter="url(#filter4_di_1336_4261)">
<rect width="620.942" height="533.734" rx="12" transform="matrix(0.866044 -0.499967 0.866044 0.499967 0 508.797)" fill="#E8E8FF"/>
<rect x="-3.46418" width="624.942" height="537.734" rx="14" transform="matrix(0.866044 -0.499967 0.866044 0.499967 -0.464046 507.065)" stroke="url(#paint0_linear_1336_4261)" stroke-width="4"/>
</g>
<g filter="url(#filter5_d_1336_4261)">
<circle cx="9.80748" cy="9.80748" r="9.80748" transform="matrix(0.866044 -0.499967 0.866044 0.499967 21.459 508.797)" fill="#FF0000"/>
<circle cx="9.80748" cy="9.80748" r="9.80748" transform="matrix(0.866044 -0.499967 0.866044 0.499967 47.3887 493.829)" fill="#FDAD00"/>
<circle cx="9.80748" cy="9.80748" r="9.80748" transform="matrix(0.866044 -0.499967 0.866044 0.499967 72.4219 479.376)" fill="#01CD46"/>
</g>
<rect width="380.146" height="21.6797" rx="10.8399" transform="matrix(0.866044 -0.499967 0.866044 0.499967 101.031 461.828)" fill="#C0C0C0"/>
<rect width="87.7512" height="9.2913" rx="4.64565" transform="matrix(0.866044 -0.499967 0.866044 0.499967 114.443 460.28)" fill="#8A8A8A"/>
<rect width="242.089" height="9.2913" rx="4.64565" transform="matrix(0.866044 -0.499967 0.866044 0.499967 194.014 414.343)" fill="#8A8A8A"/>
<rect width="594.134" height="473.856" rx="10" transform="matrix(0.866044 -0.499967 0.866044 0.499967 52.752 523.765)" fill="white"/>
<rect width="299.777" height="109.852" rx="6" transform="matrix(0.866044 -0.499967 0.866044 0.499967 81.2207 523.001)" fill="#D9D9D9"/>
<rect width="243.528" height="109.852" rx="6" transform="matrix(0.866044 -0.499967 0.866044 0.499967 353.451 365.843)" fill="#D9D9D9"/>
<rect x="2.59813" width="141.264" height="106.852" rx="4.5" transform="matrix(0.866044 -0.499967 0.866044 0.499967 188.743 586.171)" fill="#D9D9D9" stroke="#1A8B08" stroke-width="3"/>
<rect width="144.264" height="109.852" rx="6" transform="matrix(0.866044 -0.499967 0.866044 0.499967 323.076 507.12)" fill="#D9D9D9"/>
<rect width="243.528" height="109.852" rx="6" transform="matrix(0.866044 -0.499967 0.866044 0.499967 460.625 427.713)" fill="#D9D9D9"/>
<rect width="557.864" height="194.027" rx="6" transform="matrix(0.866044 -0.499967 0.866044 0.499967 295.564 646.742)" fill="#D9D9D9"/>
<path d="M838.15 408.097C852.201 399.985 852.201 386.833 838.15 378.72C824.098 370.608 801.315 370.608 787.264 378.72C773.212 386.833 773.212 399.985 787.264 408.097C801.315 416.209 824.098 416.209 838.15 408.097Z" fill="#54C97C" stroke="#1A8B08" stroke-width="2"/>
<path fill-rule="evenodd" clip-rule="evenodd" d="M812.893 389.456C806.742 390.038 802.405 390.765 797.14 393.636C797.141 393.637 797.142 393.639 797.144 393.641C797.433 394.082 797.818 394.533 798.289 394.993C798.34 395.043 798.39 395.092 798.443 395.142C798.582 395.272 798.726 395.403 798.88 395.536C799.023 395.658 799.175 395.782 799.33 395.906C799.493 396.036 799.664 396.168 799.84 396.3C800.037 396.447 800.239 396.594 800.453 396.743C800.559 396.817 800.666 396.891 800.776 396.965C801.103 397.185 801.44 397.407 801.804 397.633L802.726 398.205L801.622 398.679C801.543 398.713 801.466 398.749 801.395 398.79C801.353 398.815 801.314 398.84 801.277 398.868C800.998 399.085 800.864 399.326 800.899 399.546C800.932 399.756 801.113 399.932 801.436 400.068L801.533 400.114C801.562 400.129 804.609 401.669 806.213 400.751L807.081 400.254L807.932 400.745C808.099 400.842 808.275 400.933 808.456 401.021C808.475 401.03 808.495 401.038 808.514 401.047C808.557 401.067 808.6 401.085 808.643 401.105C808.767 401.162 808.891 401.218 809.019 401.27C809.096 401.301 809.175 401.33 809.253 401.359C809.372 401.404 809.491 401.45 809.615 401.492C809.702 401.522 809.792 401.55 809.881 401.579C810.003 401.618 810.125 401.656 810.249 401.691C810.337 401.717 810.428 401.741 810.517 401.765C810.647 401.8 810.778 401.834 810.911 401.866C811.001 401.888 811.091 401.908 811.183 401.929C811.319 401.96 811.458 401.989 811.597 402.017L811.679 402.033C811.743 402.045 811.806 402.057 811.869 402.069C812.016 402.097 812.164 402.122 812.313 402.147C812.381 402.158 812.448 402.169 812.517 402.18C812.535 402.183 812.554 402.186 812.572 402.188C812.738 402.214 812.903 402.236 813.071 402.258C813.091 402.261 813.112 402.264 813.132 402.266C813.185 402.273 813.238 402.281 813.29 402.287C813.48 402.31 813.672 402.331 813.864 402.35L813.923 402.356C813.953 402.36 813.984 402.363 814.015 402.366C814.331 402.396 814.649 402.421 814.967 402.441C814.974 402.441 814.98 402.441 814.986 402.442C815.289 402.461 815.592 402.476 815.897 402.487C815.921 402.488 815.945 402.489 815.969 402.49C816.6 402.512 817.228 402.518 817.846 402.51C817.867 402.51 817.889 402.509 817.91 402.509C818.144 402.505 818.377 402.5 818.608 402.493C818.612 402.493 818.616 402.493 818.62 402.493L818.628 402.493C818.873 402.484 819.114 402.476 819.353 402.464C820.97 402.388 822.45 402.232 823.602 402.054C823.607 402.053 823.614 402.052 823.62 402.051C823.892 402.009 824.141 401.966 824.373 401.923C824.397 401.919 824.421 401.914 824.445 401.91C824.662 401.868 824.859 401.826 825.036 401.785C825.06 401.78 825.083 401.774 825.107 401.768C825.276 401.727 825.426 401.687 825.549 401.648C825.564 401.643 825.575 401.639 825.589 401.635C825.712 401.594 825.814 401.555 825.884 401.518C825.939 401.484 825.999 401.432 826.06 401.373C826.071 401.362 826.083 401.351 826.094 401.34C826.153 401.278 826.215 401.206 826.277 401.124C826.287 401.11 826.298 401.095 826.307 401.081C826.373 400.993 826.438 400.896 826.504 400.787L826.506 400.784C826.573 400.672 826.64 400.548 826.707 400.416C826.714 400.4 826.723 400.384 826.731 400.368C826.798 400.233 826.863 400.091 826.926 399.939C826.929 399.933 826.931 399.928 826.933 399.922C827.064 399.604 827.185 399.252 827.289 398.875C827.289 398.868 827.292 398.86 827.294 398.854C827.76 397.119 827.822 394.866 826.59 393.035C826.588 393.032 826.586 393.029 826.583 393.026C826.47 392.858 826.344 392.694 826.21 392.534C826.203 392.526 826.197 392.518 826.19 392.51C826.05 392.348 825.898 392.189 825.734 392.035C825.728 392.03 825.72 392.024 825.715 392.018C825.711 392.016 825.708 392.013 825.705 392.01C825.692 391.998 825.675 391.986 825.662 391.974C822.171 390.071 818.463 388.93 812.893 389.456Z" fill="white"/>
<path fill-rule="evenodd" clip-rule="evenodd" d="M819.024 397.582C818.005 398.17 818.246 399.264 819.563 400.025C820.88 400.785 822.774 400.924 823.794 400.335C824.813 399.747 824.573 398.653 823.256 397.893C821.939 397.132 820.044 396.993 819.024 397.582ZM813.945 392.796L814.757 392.769C814.729 392.361 814.848 391.98 815.095 391.643C815.141 391.732 815.217 391.818 815.325 391.894C815.764 392.205 816.563 392.248 817.109 391.988C817.655 391.73 817.742 391.267 817.303 390.956C817.084 390.802 816.778 390.714 816.458 390.696C817.075 390.463 817.784 390.355 818.478 390.406L818.595 389.941C817.485 389.859 816.343 390.081 815.46 390.549C814.437 391.104 813.882 391.899 813.945 392.796ZM825.703 392.01C825.705 392.013 825.709 392.015 825.712 392.018C825.718 392.024 825.725 392.029 825.731 392.035C825.896 392.188 826.047 392.347 826.187 392.51C826.194 392.517 826.2 392.525 826.207 392.533C826.342 392.693 826.467 392.858 826.581 393.026C826.583 393.029 826.585 393.031 826.588 393.034C827.82 394.866 827.758 397.118 827.291 398.853C827.29 398.86 827.287 398.867 827.286 398.874C827.183 399.252 827.062 399.604 826.931 399.921C826.928 399.927 826.926 399.933 826.923 399.938C826.86 400.09 826.796 400.232 826.729 400.367C826.721 400.383 826.712 400.399 826.704 400.415C826.637 400.547 826.57 400.672 826.503 400.784L826.501 400.787C826.436 400.895 826.37 400.992 826.305 401.081C826.295 401.095 826.285 401.109 826.274 401.123C826.212 401.205 826.15 401.278 826.091 401.339C826.08 401.351 826.069 401.362 826.057 401.372C825.996 401.432 825.936 401.483 825.881 401.518C825.812 401.555 825.71 401.594 825.586 401.634C825.572 401.639 825.561 401.643 825.547 401.648C825.423 401.686 825.274 401.727 825.105 401.768C825.08 401.773 825.057 401.779 825.033 401.784C824.857 401.826 824.66 401.867 824.443 401.909C824.419 401.913 824.395 401.918 824.371 401.922C824.139 401.966 823.889 402.009 823.618 402.051C823.611 402.052 823.605 402.053 823.599 402.053C822.447 402.231 820.968 402.388 819.351 402.464C819.112 402.475 818.87 402.484 818.626 402.492L818.617 402.492C818.613 402.493 818.609 402.493 818.605 402.493C818.374 402.5 818.142 402.505 817.908 402.508C817.886 402.508 817.865 402.509 817.844 402.509C817.226 402.517 816.597 402.511 815.967 402.489C815.943 402.489 815.918 402.487 815.894 402.487C815.59 402.475 815.286 402.461 814.983 402.442C814.978 402.441 814.971 402.441 814.965 402.44C814.647 402.42 814.328 402.395 814.012 402.365C813.982 402.362 813.951 402.359 813.92 402.356L813.862 402.349C813.669 402.33 813.477 402.31 813.287 402.286C813.235 402.28 813.183 402.272 813.13 402.266C813.11 402.263 813.089 402.261 813.068 402.258C812.901 402.236 812.735 402.213 812.57 402.188C812.551 402.185 812.533 402.182 812.514 402.179C812.446 402.169 812.378 402.158 812.31 402.146C812.162 402.122 812.013 402.096 811.867 402.069C811.803 402.057 811.74 402.045 811.676 402.032L811.595 402.016C811.456 401.989 811.317 401.96 811.181 401.928C811.089 401.908 810.998 401.887 810.908 401.865C810.776 401.834 810.645 401.799 810.515 401.765C810.425 401.74 810.335 401.716 810.247 401.691C810.123 401.655 810.001 401.617 809.878 401.578C809.79 401.55 809.699 401.522 809.613 401.492C809.489 401.449 809.37 401.404 809.251 401.359C809.173 401.329 809.093 401.301 809.017 401.27C808.888 401.217 808.765 401.161 808.641 401.105C808.597 401.085 808.554 401.066 808.511 401.047C808.492 401.038 808.472 401.029 808.454 401.021C808.272 400.933 808.097 400.841 807.929 400.744L807.078 400.253L806.21 400.75C804.606 401.668 801.559 400.128 801.531 400.114L801.433 400.068C801.11 399.931 800.93 399.755 800.896 399.546C800.861 399.325 800.996 399.085 801.275 398.867C801.312 398.839 801.35 398.814 801.392 398.79C801.463 398.748 801.54 398.712 801.62 398.678L802.723 398.204L801.801 397.632C801.438 397.406 801.101 397.185 800.773 396.965C800.664 396.89 800.557 396.816 800.451 396.743C800.237 396.593 800.035 396.446 799.838 396.3C799.662 396.167 799.491 396.036 799.327 395.905C799.172 395.782 799.02 395.658 798.877 395.536C798.724 395.403 798.58 395.272 798.44 395.141C798.388 395.091 798.337 395.042 798.286 394.992C797.815 394.532 797.431 394.082 797.141 393.64C797.14 393.638 797.139 393.637 797.137 393.635C802.402 390.765 806.74 390.037 812.891 389.456C813.467 389.401 814.019 389.369 814.558 389.349C814.521 389.367 814.486 389.378 814.449 389.398C813.006 390.144 812.292 391.341 811.996 391.989L812.781 392.101C813 391.621 813.654 390.43 814.984 389.745C815.344 389.558 815.691 389.432 816.02 389.336C819.933 389.419 822.867 390.452 825.659 391.973C825.672 391.986 825.689 391.997 825.703 392.01ZM827.32 384.578C821.62 381.622 807.041 378.038 796.018 384.731C790.779 387.911 785.224 396.222 799.911 403.196C807.841 406.961 816.048 409.168 816.048 409.168C816.048 409.168 818.213 408.411 818.98 405.009C819.079 404.639 819.15 404.261 819.21 403.879C821.721 403.771 824.003 403.471 825.587 403.13C825.589 403.129 825.591 403.129 825.592 403.129C825.906 403.061 826.193 402.992 826.448 402.922C826.454 402.921 826.458 402.92 826.463 402.918C826.714 402.849 826.937 402.78 827.125 402.711L827.133 402.708C827.321 402.639 827.475 402.571 827.59 402.504C827.659 402.464 827.729 402.414 827.8 402.359C827.821 402.343 827.841 402.325 827.862 402.308C827.914 402.263 827.968 402.215 828.022 402.163C828.042 402.143 828.063 402.123 828.083 402.101C828.146 402.037 828.21 401.967 828.273 401.893C828.281 401.882 828.29 401.872 828.299 401.861C828.453 401.676 828.605 401.461 828.752 401.221L828.772 401.186C828.843 401.07 828.912 400.949 828.98 400.821C828.982 400.818 828.983 400.815 828.985 400.811C829.13 400.538 829.266 400.242 829.39 399.926C829.391 399.964 829.392 399.985 829.392 399.985C829.392 399.985 843.678 393.061 827.32 384.578ZM810.589 394.733C809.035 394.697 807.663 395.016 806.698 395.607C805.888 396.117 805.503 396.777 805.645 397.417L806.451 397.349C806.361 396.949 806.549 396.54 806.953 396.184C806.984 396.368 807.136 396.545 807.403 396.671C807.942 396.925 808.743 396.875 809.191 396.559C809.639 396.245 809.566 395.783 809.027 395.53C808.894 395.467 808.747 395.423 808.591 395.397C809.176 395.254 809.836 395.185 810.543 395.202L810.589 394.733ZM817.45 396.757C818.159 396.347 818.223 395.719 817.594 395.356L817.015 395.69C817.33 395.872 817.27 396.203 816.881 396.428C816.491 396.653 815.918 396.688 815.603 396.505L815.024 396.84C815.652 397.203 816.741 397.166 817.45 396.757ZM809.385 394.061L809.192 393.608C808.069 393.779 806.001 394.193 804.703 395.024C802.873 396.206 803.461 397.287 803.486 397.332L804.259 397.181C804.24 397.145 803.805 396.301 805.305 395.333C806.504 394.563 808.555 394.187 809.385 394.061Z" fill="#310855"/>
<path d="M611.154 254.387C625.309 246.215 625.309 232.967 611.154 224.796C597 216.624 574.051 216.624 559.897 224.796C545.742 232.967 545.742 246.215 559.897 254.387C574.051 262.558 597 262.558 611.154 254.387Z" fill="#54C97C" stroke="#1A8B08" stroke-width="2"/>
<path fill-rule="evenodd" clip-rule="evenodd" d="M575.55 243.989C575.508 244.013 575.47 244.039 575.434 244.067C575.158 244.283 575.028 244.523 575.066 244.745C575.104 244.955 575.288 245.132 575.614 245.271L575.714 245.318C575.743 245.333 578.826 246.895 580.418 245.985L581.28 245.492L582.141 245.99C587.334 248.987 598.865 247.566 600.159 246.876C601.354 246.13 603.811 239.475 598.619 236.478L597.757 235.98L598.611 235.483C600.198 234.557 597.482 232.785 597.455 232.767L597.372 232.71C597.132 232.521 596.825 232.415 596.461 232.394C596.077 232.371 595.661 232.446 595.286 232.606C595.155 232.663 595.053 232.732 594.96 232.803L594.149 233.437L593.146 232.898C591.49 232.006 589.926 231.314 588.423 230.8C588.022 231.31 587.113 231.882 585.22 232.413C583.799 233.448 581.619 234.783 578.708 235.823C575.84 236.847 572.844 237.379 570.616 237.655C571.123 239.249 572.885 240.94 575.939 242.831L576.873 243.41L575.776 243.879C575.697 243.913 575.62 243.948 575.55 243.989Z" fill="white"/>
<path fill-rule="evenodd" clip-rule="evenodd" d="M589.619 235.845C588.603 236.395 588.061 237.189 588.142 238.089L588.955 238.067C588.919 237.658 589.033 237.276 589.274 236.94C589.321 237.03 589.398 237.116 589.508 237.194C589.954 237.508 590.757 237.556 591.3 237.299C591.843 237.043 591.921 236.58 591.474 236.265C591.252 236.109 590.943 236.018 590.623 235.999C591.237 235.769 591.946 235.665 592.643 235.721L592.751 235.255C591.637 235.166 590.496 235.381 589.619 235.845ZM588.583 234.684C587.15 235.424 586.457 236.62 586.171 237.267L586.961 237.385C587.172 236.905 587.804 235.714 589.127 235.035C590.792 234.178 592.265 234.438 592.324 234.45L592.582 234.004C592.503 233.988 590.617 233.637 588.583 234.684ZM593.946 243.234L592.681 243.48C591.684 244.447 590.487 245.303 590.487 245.303C590.487 245.303 594.578 245.616 596.326 244.608C598.073 243.599 597.53 241.237 597.53 241.237C597.53 241.237 596.048 241.928 594.374 242.503L593.946 243.234ZM591.73 242.083C592.433 241.677 592.485 241.047 591.848 240.679L591.273 241.011C591.593 241.195 591.539 241.527 591.153 241.749C590.767 241.972 590.192 242.004 589.873 241.819L589.298 242.151C589.936 242.519 591.027 242.489 591.73 242.083ZM597.373 232.711L597.454 232.768C597.482 232.786 600.198 234.557 598.61 235.483L597.756 235.981L598.618 236.478C603.81 239.476 601.354 246.131 600.159 246.877C598.865 247.567 587.333 248.988 582.141 245.991L581.279 245.493L580.417 245.986C578.826 246.896 575.742 245.333 575.713 245.319L575.614 245.272C575.287 245.133 575.104 244.955 575.066 244.745C575.027 244.523 575.157 244.283 575.434 244.067C575.47 244.039 575.508 244.014 575.549 243.99C575.62 243.949 575.697 243.913 575.775 243.879L576.874 243.411L575.938 242.832C572.884 240.94 571.122 239.249 570.615 237.656C572.844 237.379 575.84 236.848 578.708 235.824C581.619 234.783 583.799 233.448 585.22 232.413C587.112 231.882 588.021 231.311 588.424 230.8C589.926 231.314 591.49 232.007 593.146 232.898L594.149 233.438L594.96 232.804C595.053 232.732 595.154 232.664 595.286 232.606C595.66 232.447 596.077 232.371 596.46 232.394C596.825 232.416 597.132 232.522 597.373 232.711ZM599.296 231.845C598.647 231.354 597.726 231.052 596.698 230.991C595.756 230.935 594.788 231.087 593.952 231.419C592.237 230.541 590.264 229.675 588.087 229.081C582.44 224.917 572.824 227.142 568.729 228.955C567.883 229.33 566.859 229.884 565.863 230.593C563.844 231.616 561.962 233.132 560.405 235.335C560.405 235.335 561.137 235.02 562.367 234.625C561.239 237.381 562.117 240.914 568.064 244.949C567.679 242.607 567.971 240.708 568.785 239.169C569.776 240.722 571.561 242.116 573.377 243.298C572.802 243.78 572.539 244.339 572.636 244.882C572.741 245.476 573.265 246.007 574.115 246.382C575.602 247.155 578.374 248.08 580.749 247.528C580.481 248.049 580.713 248.648 581.453 249.076C582.27 249.547 583.452 249.665 584.411 249.426C584 249.98 584.202 250.663 585.019 251.135C585.84 251.608 587.027 251.724 587.989 251.483C587.57 252.038 587.772 252.723 588.592 253.197C589.298 253.605 590.278 253.744 591.151 253.622L591.102 253.651L592.948 255.756L596.55 253.677L592.942 252.623C593.19 252.107 592.956 251.519 592.227 251.098C591.407 250.625 590.22 250.508 589.259 250.75C589.651 250.228 589.49 249.594 588.789 249.125C594.591 249.56 600.62 248.611 601.891 247.877C603.167 247.14 604.819 243.633 604.041 240.271C604.856 240.696 605.979 240.796 606.901 240.565C606.483 241.12 606.684 241.806 607.504 242.279C608.21 242.687 609.19 242.826 610.063 242.705L610.014 242.733L611.86 244.838L615.462 242.759L611.854 241.704C612.102 241.189 611.868 240.601 611.139 240.18C610.319 239.707 609.131 239.591 608.171 239.832C608.588 239.277 608.388 238.592 607.567 238.118C606.749 237.646 605.568 237.529 604.608 237.767C605.021 237.213 604.817 236.531 604 236.059C603.253 235.627 602.202 235.495 601.292 235.657C602.223 234.29 600.628 232.7 599.296 231.845ZM583.593 239.33L583.389 238.874C582.267 239.038 580.2 239.441 578.914 240.266C577.101 241.44 577.71 242.528 577.737 242.574L578.51 242.427C578.489 242.391 578.038 241.541 579.523 240.58C580.712 239.814 582.762 239.451 583.593 239.33ZM582.821 240.664C583.404 240.525 584.065 240.46 584.774 240.481L584.812 240.011C583.253 239.965 581.883 240.277 580.926 240.864C580.122 241.37 579.749 242.029 579.903 242.672L580.711 242.609C580.613 242.207 580.794 241.798 581.192 241.443C581.226 241.628 581.382 241.807 581.652 241.934C582.198 242.193 583 242.148 583.444 241.834C583.888 241.521 583.805 241.057 583.261 240.8C583.126 240.736 582.978 240.692 582.821 240.664Z" fill="#310855"/>
<g filter="url(#filter6_d_1336_4261)">
<path d="M197.467 632.835C210.808 625.134 210.808 612.647 197.467 604.945C184.126 597.243 162.496 597.243 149.156 604.945C135.815 612.647 135.815 625.134 149.156 632.835C162.496 640.537 184.126 640.537 197.467 632.835Z" fill="#54C97C"/>
<path d="M198.333 633.335C212.152 625.357 212.152 612.423 198.333 604.445C184.514 596.467 162.109 596.467 148.29 604.445C134.47 612.423 134.47 625.357 148.29 633.335C162.109 641.313 184.514 641.313 198.333 633.335Z" stroke="#1A8B08" stroke-width="2"/>
</g>
<path fill-rule="evenodd" clip-rule="evenodd" d="M179.793 612.936L173.996 609.589C171.542 608.173 164.938 609.206 160.663 611.674C156.433 614.115 154.898 617.677 157.442 619.146L163.24 622.493L162.313 623.027C161.498 623.538 161.605 624.387 162.569 624.944C163.537 625.502 165.012 625.563 165.895 625.088L166.912 624.5L167.738 625.096C167.766 625.116 170.553 627.122 172.441 628.212C173.207 628.641 178.563 628.208 183.773 627.303L185.939 626.12L188.018 624.919C189.605 621.869 190.378 618.733 189.641 618.282C187.745 617.188 184.32 615.543 184.286 615.526L183.287 615.047L184.295 614.466C185.11 613.956 185.003 613.106 184.038 612.55C183.071 611.991 181.596 611.931 180.712 612.405L179.793 612.936Z" fill="white"/>
<path fill-rule="evenodd" clip-rule="evenodd" d="M175.754 615.233C174.62 615.778 174.006 616.592 174.068 617.469L174.865 617.443C174.837 617.041 174.984 616.658 175.27 616.318C175.314 616.378 175.368 616.437 175.444 616.49C175.875 616.795 176.66 616.837 177.195 616.583C177.732 616.328 177.817 615.875 177.385 615.569C177.239 615.466 177.053 615.396 176.85 615.354C177.477 615.161 178.161 615.094 178.776 615.177L178.97 614.729C177.912 614.586 176.71 614.774 175.754 615.233ZM182.232 623.783C181.4 624.264 181.08 624.872 181.428 625.227L184.734 623.318C184.118 623.118 183.065 623.303 182.232 623.783ZM175.803 625.274C175.803 625.274 179.425 625.004 181.948 623.548C184.47 622.092 184.937 620.001 184.937 620.001L180.583 622.76L175.803 625.274ZM177.181 613.435C177.455 613.435 177.709 613.473 177.814 613.495L178.377 612.628C178.25 612.601 177.793 612.515 177.217 612.514L177.181 613.435ZM184.293 614.465L183.285 615.047L184.284 615.526C184.318 615.543 187.744 617.187 189.639 618.282C190.376 618.733 189.603 621.869 188.016 624.919L185.937 626.12L183.771 627.303C178.562 628.208 173.206 628.64 172.439 628.211C170.552 627.121 167.764 625.116 167.736 625.096L166.91 624.5L165.894 625.087C165.01 625.562 163.534 625.501 162.568 624.943C161.603 624.386 161.495 623.537 162.311 623.027L163.238 622.492L157.441 619.145C154.896 617.676 156.431 614.115 160.661 611.673C164.935 609.205 171.54 608.173 173.994 609.589L179.792 612.936L180.71 612.405C181.594 611.93 183.07 611.991 184.036 612.549C185.001 613.106 185.109 613.955 184.293 614.465ZM185.742 611.564C184.135 610.637 181.735 610.458 179.932 611.048L175.7 608.604C171.847 606.38 163.797 607.926 158.984 610.705C154.257 613.434 151.824 617.872 155.735 620.13L159.968 622.574C158.945 623.615 159.255 625 160.862 625.928C162.439 626.838 164.782 627.028 166.573 626.476C167.55 627.162 169.34 628.391 170.733 629.196C171.305 629.526 172.284 629.683 173.476 629.727C174.071 629.749 174.72 629.743 175.402 629.714C178.644 629.579 182.584 628.951 184.709 628.575L184.981 628.526L187.576 627.108L187.589 627.102L190.126 625.636L190.216 625.469C190.895 624.188 192.047 621.783 192.25 619.859C192.292 619.457 192.29 619.078 192.236 618.733C192.139 618.111 191.872 617.601 191.345 617.297C189.953 616.493 187.85 615.443 186.682 614.872C187.649 613.836 187.324 612.478 185.742 611.564ZM169.388 619.986C169.296 619.942 169.193 619.911 169.089 619.886C169.678 619.721 170.342 619.636 171.039 619.652L171.085 619.192C169.563 619.157 168.152 619.511 167.21 620.165C166.417 620.717 166.091 621.411 166.337 622.022L167.113 621.91C166.97 621.555 167.086 621.159 167.421 620.798C167.493 620.915 167.614 621.022 167.793 621.106C168.322 621.356 169.108 621.307 169.549 620.997C169.988 620.688 169.916 620.235 169.388 619.986ZM174.901 614.687L173.63 614.144C172.487 615.025 171.275 616.038 171.263 616.048L172.571 616.562C172.583 616.552 173.776 615.554 174.901 614.687ZM169.52 618.324L168.629 617.569C168.454 617.639 164.344 619.279 163.219 619.928C162.07 620.591 162.635 621.568 162.704 621.677L164.204 621.35C164.12 621.217 163.967 620.787 164.337 620.573C165.183 620.085 168.365 618.784 169.52 618.324ZM176.465 613.572C176.533 613.532 176.612 613.502 176.706 613.481L176.128 612.628C175.833 612.697 175.571 612.797 175.347 612.926L175.198 613.015L176.354 613.638L176.465 613.572ZM175.868 613.965L174.634 613.394C174.475 613.508 174.303 613.635 174.124 613.767L175.38 614.322C175.55 614.195 175.715 614.074 175.868 613.965ZM178.537 621.786C179.791 621.062 179.903 619.948 178.785 619.303L177.648 619.96C178.149 620.249 178.046 620.779 177.419 621.141C176.791 621.503 175.875 621.562 175.374 621.273L174.236 621.93C175.353 622.575 177.283 622.51 178.537 621.786ZM174.095 621.88L173.421 621.642C173.241 621.808 173.149 621.998 173.157 622.189C173.167 622.465 173.372 622.72 173.735 622.906C174.091 623.089 174.56 623.183 175.051 623.173C175.43 623.165 175.795 623.095 176.103 622.97L175.652 622.595C175.474 622.667 175.261 622.708 175.036 622.713C174.747 622.719 174.476 622.664 174.269 622.559C174.071 622.457 173.96 622.32 173.955 622.172C173.95 622.07 173.998 621.97 174.095 621.88Z" fill="#310855"/>
<path d="M82.8681 566.799C97.1539 558.551 97.1539 545.18 82.8681 536.933C68.5823 528.686 45.4204 528.686 31.1346 536.933C16.8488 545.18 16.8488 558.551 31.1346 566.799C45.4204 575.046 68.5823 575.046 82.8681 566.799Z" fill="#54C97C" stroke="#1A8B08" stroke-width="2"/>
<path fill-rule="evenodd" clip-rule="evenodd" d="M63.7398 544.683C63.734 544.686 63.731 544.69 63.7257 544.693L58.593 541.73C55.3346 539.849 47.7512 541.178 43.0434 543.895C38.3355 546.613 36.436 550.759 39.6945 552.64L44.8272 555.603C44.8219 555.606 44.8154 555.608 44.8095 555.611C43.4142 556.417 43.4997 557.773 45.0013 558.64C46.503 559.507 48.8529 559.556 50.2482 558.751C50.2541 558.747 50.2571 558.744 50.2624 558.741C50.2624 558.741 53.1936 560.853 55.2187 562.023C57.2439 563.192 68.4554 561.206 68.4554 561.206L70.9259 559.857L73.3163 558.476C73.3163 558.476 76.8098 551.895 74.7858 550.727C72.7618 549.558 69.1609 547.831 69.1609 547.831C69.1662 547.828 69.1726 547.826 69.1785 547.822C70.5738 547.017 70.4884 545.66 68.9867 544.793C67.485 543.926 65.1351 543.877 63.7398 544.683Z" fill="white"/>
<path fill-rule="evenodd" clip-rule="evenodd" d="M68.3701 547.286L67.3273 547.888L68.3608 548.384C68.3967 548.401 71.9419 550.103 73.9029 551.235C74.6667 551.703 73.8663 554.949 72.2237 558.105L70.9414 558.846L67.8443 557.058L66.0788 558.077L69.151 559.851L67.8305 560.572C62.4391 561.509 56.8946 561.957 56.1019 561.513C54.1478 560.385 51.2639 558.309 51.2351 558.288L50.3796 557.672L49.3274 558.28C48.4128 558.771 46.8858 558.708 45.885 558.131C44.8866 557.554 44.7754 556.675 45.6193 556.147L45.9318 555.967C48.2854 557.182 51.9438 557.123 54.243 555.796C55.537 555.049 56.1318 554.053 56.0336 553.083L57.6151 553.996C57.9535 554.191 58.3469 554.337 58.7667 554.433L57.5862 555.115C55.8131 556.139 55.6254 557.696 57.1682 558.586L61.7079 561.207L63.4734 560.188L58.9336 557.567C58.3581 557.235 58.5354 556.571 59.3216 556.117L64.4949 553.13C64.3987 553.522 63.7452 554.234 62.4829 554.962C61.4324 555.569 60.2215 556.021 59.3969 556.116L59.6916 557.051C60.854 556.918 62.331 556.386 63.6398 555.63C65.0527 554.815 65.9868 553.913 66.1383 553.219L64.5191 553.116L64.8068 552.95C65.593 552.496 66.7428 552.394 67.3183 552.726L71.8581 555.347L73.6235 554.328L69.0838 551.707C67.541 550.817 64.8446 550.925 63.0715 551.948L60.1785 553.618C59.6765 553.633 59.1704 553.535 58.7921 553.316L54.9048 551.072L55.8082 550.551C58.1649 551.63 61.6402 551.526 63.8541 550.248C66.1538 548.92 66.2547 546.809 64.1512 545.45L64.662 545.154C65.576 544.662 67.1031 544.725 68.1044 545.303C69.1022 545.879 69.2134 546.758 68.3701 547.286ZM40.5776 552.13C40.3451 551.996 40.1566 551.839 39.9905 551.673C40.7004 550.855 41.2507 549.632 41.2507 549.632L44.4689 549.282L46.7678 546.447L51.2997 545.751L51.9905 543.432L55.6397 543.246L56.3886 541.772C56.8992 541.881 57.3515 542.032 57.7101 542.239L62.4419 544.971C60.9045 544.975 58.9741 545.747 57.5171 546.588C55.8505 547.55 54.3414 548.869 54.7995 549.797L53.4619 550.569C51.8539 550.305 49.5714 551.175 47.9048 552.137C46.5666 552.91 45.3311 553.912 45.1307 554.758L40.5776 552.13ZM69.8698 544.284C68.2068 543.324 65.7224 543.139 63.8568 543.749L59.4756 541.22C55.4883 538.918 47.157 540.519 42.1761 543.394C37.284 546.218 34.7641 550.812 38.8122 553.149L43.1934 555.678C42.1348 556.756 42.4565 558.19 44.1196 559.15C45.752 560.092 48.1762 560.288 50.03 559.717C51.0416 560.427 52.8943 561.699 54.3364 562.532C56.6318 563.857 65.2169 562.523 68.8004 561.889L69.083 561.838L71.7693 560.371L71.7822 560.364L74.4069 558.848L74.4999 558.675C75.6152 556.573 77.9631 551.541 75.6689 550.217C74.2286 549.385 72.0516 548.298 70.844 547.706C71.843 546.635 71.5074 545.229 69.8698 544.284Z" fill="#310855"/>
<rect width="116.603" height="24.8213" rx="12.4107" transform="matrix(0.866044 -0.499967 0.866044 0.499967 165.023 359.784)" fill="url(#paint1_linear_1336_4261)"/>
<path d="M193.539 360.451L191.938 361.375L182.938 360.285L188.382 363.428L186.858 364.308L179.184 359.878L181.083 358.781L189.417 359.831L184.341 356.901L185.865 356.021L193.539 360.451Z" fill="white"/>
<path d="M200.227 356.59L195.324 359.421L187.65 354.99L192.553 352.16L193.96 352.972L190.581 354.923L192.334 355.935L195.393 354.169L196.725 354.938L193.666 356.704L195.441 357.729L198.82 355.778L200.227 356.59Z" fill="white"/>
<path d="M206.758 350.083L202.868 346.205L204.425 345.306L209.934 350.986L208.366 351.891L201.111 349.769L204.788 353.957L203.197 354.875L193.348 351.701L194.96 350.77L201.678 352.991L198.13 348.94L199.709 348.029L206.758 350.083Z" fill="white"/>
<path d="M217.404 346.674L215.858 347.566L208.184 343.136L209.73 342.244L217.404 346.674Z" fill="white"/>
<path d="M218.699 338.703L216.225 340.131L222.481 343.743L220.946 344.629L214.69 341.017L212.217 342.445L210.799 341.627L217.281 337.884L218.699 338.703Z" fill="white"/>
<path d="M230.931 338.864L226.028 341.695L218.354 337.265L223.257 334.434L224.665 335.247L221.285 337.197L223.039 338.21L226.098 336.444L227.429 337.212L224.37 338.978L226.145 340.003L229.524 338.052L230.931 338.864Z" fill="white"/>
<path d="M236.321 335.753L231.831 334.933L231.036 335.392L233.991 337.098L232.456 337.984L224.782 333.554L227.841 331.788C228.592 331.355 229.419 331.135 230.323 331.13C231.227 331.125 232.018 331.318 232.696 331.71C233.23 332.018 233.541 332.371 233.629 332.771C233.717 333.161 233.575 333.547 233.204 333.928L238.022 334.771L236.321 335.753ZM229.748 334.649L230.985 333.935C231.368 333.714 231.568 333.485 231.587 333.25C231.613 333.01 231.467 332.798 231.15 332.615C230.825 332.427 230.455 332.341 230.039 332.356C229.631 332.367 229.235 332.483 228.853 332.704L227.616 333.418L229.748 334.649Z" fill="white"/>
<path d="M244.648 330.946L242.243 330.309L239.063 332.146L240.165 333.534L238.552 334.465L233.882 328.301L235.649 327.28L246.305 329.989L244.648 330.946ZM236.389 328.766L238.207 331.065L240.372 329.815L236.389 328.766Z" fill="white"/>
<path d="M246.092 322.889L243.619 324.317L249.875 327.928L248.34 328.815L242.084 325.203L239.61 326.631L238.192 325.812L244.675 322.07L246.092 322.889Z" fill="white"/>
<path d="M254.967 324.988L253.421 325.881L245.747 321.451L247.293 320.558L254.967 324.988Z" fill="white"/>
<path d="M252.872 319.587C252.827 320.122 253.211 320.624 254.027 321.095C254.842 321.566 255.717 321.79 256.65 321.768C257.576 321.741 258.367 321.539 259.022 321.161C259.684 320.778 260.039 320.32 260.084 319.785C260.123 319.246 259.735 318.741 258.919 318.271C258.104 317.8 257.233 317.578 256.307 317.604C255.374 317.626 254.576 317.829 253.913 318.211C253.258 318.59 252.911 319.048 252.872 319.587ZM252.458 322.013C251.261 321.321 250.688 320.536 250.739 319.656C250.791 318.776 251.369 318.018 252.474 317.38C253.585 316.739 254.903 316.403 256.427 316.373C257.951 316.343 259.311 316.674 260.509 317.365C261.7 318.053 262.269 318.836 262.217 319.716C262.166 320.595 261.584 321.356 260.472 321.998C259.368 322.635 258.054 322.969 256.53 322.999C255.006 323.029 253.649 322.7 252.458 322.013Z" fill="white"/>
<path d="M272.343 314.957L270.742 315.882L261.742 314.792L267.186 317.935L265.662 318.814L257.988 314.384L259.888 313.288L268.222 314.337L263.145 311.407L264.669 310.527L272.343 314.957Z" fill="white"/>
<rect x="0.866039" width="154.189" height="43.3398" rx="5.5" transform="matrix(0.866039 -0.499977 0.866039 0.499977 141.274 672.189)" fill="#4B4B4B" stroke="#1A8B08"/>
<path d="M262.719 609.287C260.313 610.676 259.704 612.793 261.215 614.526C260.606 615.057 260.198 615.656 260.018 616.282C259.839 616.908 259.892 617.547 260.173 618.157C261.024 620.042 263.887 621.376 267.268 621.461C268.246 622.602 270.034 623.437 272.17 623.749C275.434 624.249 278.906 623.466 280.776 621.818C281.869 621.852 282.965 621.751 283.991 621.522C285.017 621.292 285.949 620.94 286.726 620.488C289.132 619.099 289.742 616.982 288.23 615.249C289.464 614.172 289.842 612.85 289.264 611.622C288.421 609.733 285.558 608.398 282.178 608.313L282.17 608.309C281.687 607.745 280.998 607.249 280.152 606.854C279.305 606.459 278.32 606.173 277.261 606.017C274.004 605.522 270.531 606.304 268.669 607.948C267.576 607.916 266.48 608.019 265.454 608.25C264.428 608.481 263.496 608.834 262.719 609.287ZM264.131 610.102L264.131 610.11C265.099 609.551 266.361 609.204 267.716 609.126C267.701 609.152 267.678 609.208 267.656 609.246L265.767 613.213C265.668 613.415 265.769 613.628 266.027 613.776L271.877 617.154L268.919 617.623L264.083 614.831C263.004 614.208 262.403 613.36 262.411 612.474C262.42 611.587 263.039 610.734 264.131 610.102ZM271.111 608.038C271.836 607.618 272.737 607.315 273.723 607.158C274.71 607.002 275.747 606.998 276.73 607.147C278.03 607.347 279.172 607.8 279.941 608.434C279.889 608.438 279.801 608.455 279.741 608.464L272.861 609.55C272.69 609.579 272.533 609.632 272.406 609.705C272.28 609.778 272.187 609.868 272.139 609.968L269.931 614.62L267.785 613.381L269.605 609.537C269.872 608.972 270.391 608.455 271.111 608.038L271.111 608.038ZM262.498 615.576L267.636 618.542C267.893 618.69 268.255 618.745 268.611 618.692L276.654 617.417L275.842 619.134L269.199 620.185C267.713 620.419 266.135 620.304 264.811 619.865C263.487 619.426 262.526 618.7 262.138 617.846C261.796 617.091 261.923 616.289 262.498 615.576ZM273.588 610.641L280.238 609.586C283.337 609.095 286.492 610.142 287.3 611.925L287.314 611.925C287.653 612.68 287.526 613.483 286.948 614.191L281.81 611.224C281.552 611.076 281.183 611.017 280.835 611.075L272.776 612.349L273.588 610.641ZM272.246 613.462L275.641 612.927L278.103 614.349L277.177 616.309L273.782 616.843L271.32 615.422L272.246 613.462ZM277.583 612.621L280.541 612.152L285.37 614.94C287.619 616.238 287.595 618.357 285.322 619.669L285.315 619.665C284.354 620.22 283.085 620.571 281.737 620.644C281.752 620.619 281.782 620.559 281.797 620.524L283.686 616.557C283.785 616.356 283.691 616.138 283.426 615.994L277.583 612.621ZM279.514 615.155L281.66 616.394L279.832 620.233C278.975 622.018 275.796 623.09 272.715 622.627L272.723 622.623C271.423 622.432 270.281 621.971 269.511 621.337C269.563 621.333 269.652 621.315 269.711 621.306L276.591 620.22C276.763 620.192 276.92 620.139 277.046 620.066C277.173 619.993 277.265 619.902 277.314 619.803L279.514 615.155Z" fill="white"/>
<path fill-rule="evenodd" clip-rule="evenodd" d="M157.591 673.354C156.753 672.87 156.753 672.087 157.591 671.603L246.912 620.036C247.75 619.553 249.108 619.553 249.945 620.036C250.783 620.52 250.783 621.304 249.945 621.787L160.624 673.354C159.786 673.837 158.428 673.837 157.591 673.354Z" fill="white"/>
<path fill-rule="evenodd" clip-rule="evenodd" d="M165.522 677.933C164.685 677.45 164.685 676.666 165.522 676.182L239.818 633.29C240.655 632.807 242.013 632.807 242.851 633.29C243.688 633.774 243.688 634.558 242.851 635.041L168.555 677.933C167.718 678.417 166.36 678.417 165.522 677.933Z" fill="white"/>
<path fill-rule="evenodd" clip-rule="evenodd" d="M173.868 682.752C173.031 682.268 173.031 681.485 173.868 681.001L209.764 660.278C210.601 659.794 211.959 659.794 212.797 660.278C213.634 660.761 213.634 661.545 212.797 662.029L176.901 682.752C176.063 683.235 174.706 683.235 173.868 682.752Z" fill="white"/>
<rect x="0.866044" width="154.189" height="43.3397" rx="5.5" transform="matrix(0.866044 -0.499967 0.866044 0.499967 21.4383 607.939)" fill="#4B4B4B" stroke="#1A8B08"/>
<path d="M142.884 545.038C140.477 546.428 139.868 548.544 141.379 550.277C140.77 550.809 140.362 551.407 140.182 552.033C140.003 552.659 140.056 553.298 140.338 553.908C141.189 555.793 144.051 557.127 147.432 557.212C148.41 558.353 150.199 559.188 152.334 559.5C155.599 560 159.071 559.217 160.94 557.57C162.033 557.603 163.129 557.502 164.155 557.273C165.181 557.043 166.113 556.691 166.89 556.239C169.297 554.85 169.906 552.733 168.395 551C169.628 549.923 170.006 548.602 169.429 547.374C168.585 545.485 165.722 544.15 162.342 544.065L162.334 544.061C161.851 543.497 161.163 543.001 160.316 542.605C159.469 542.21 158.484 541.925 157.426 541.769C154.168 541.274 150.695 542.056 148.834 543.699C147.74 543.668 146.644 543.771 145.618 544.002C144.592 544.232 143.66 544.586 142.884 545.038ZM144.295 545.853L144.295 545.862C145.263 545.302 146.525 544.956 147.881 544.878C147.865 544.904 147.842 544.959 147.82 544.998L145.931 548.965C145.832 549.166 145.933 549.379 146.191 549.528L152.041 552.905L149.083 553.374L144.247 550.582C143.168 549.96 142.567 549.112 142.576 548.225C142.585 547.338 143.203 546.485 144.295 545.853ZM151.275 543.79C152 543.37 152.901 543.067 153.888 542.91C154.874 542.754 155.911 542.75 156.894 542.899C158.194 543.099 159.336 543.552 160.105 544.185C160.053 544.19 159.965 544.207 159.905 544.216L153.025 545.302C152.854 545.33 152.697 545.383 152.57 545.456C152.444 545.53 152.352 545.62 152.303 545.719L150.095 550.371L147.949 549.132L149.77 545.289C150.036 544.723 150.556 544.206 151.275 543.79L151.275 543.79ZM142.662 551.327L147.8 554.293C148.057 554.442 148.419 554.496 148.775 554.443L156.818 553.169L156.006 554.885L149.364 555.936C147.877 556.17 146.299 556.055 144.975 555.616C143.651 555.178 142.69 554.452 142.302 553.597C141.96 552.843 142.087 552.04 142.662 551.327ZM153.753 546.393L160.403 545.337C163.501 544.847 166.656 545.894 167.464 547.677L167.479 547.676C167.818 548.431 167.69 549.235 167.112 549.942L161.974 546.976C161.717 546.827 161.347 546.769 160.999 546.826L152.94 548.1L153.753 546.393ZM152.41 549.213L155.805 548.679L158.267 550.1L157.342 552.06L153.946 552.595L151.484 551.173L152.41 549.213ZM157.748 548.372L160.705 547.904L165.534 550.691C167.784 551.99 167.759 554.109 165.487 555.42L165.479 555.416C164.518 555.971 163.249 556.322 161.901 556.396C161.916 556.37 161.947 556.31 161.962 556.276L163.851 552.309C163.949 552.107 163.855 551.89 163.591 551.746L157.748 548.372ZM159.679 550.907L161.825 552.145L159.996 555.984C159.139 557.769 155.96 558.841 152.879 558.379L152.887 558.375C151.587 558.183 150.445 557.722 149.675 557.088C149.727 557.084 149.816 557.066 149.876 557.058L156.755 555.972C156.927 555.943 157.084 555.89 157.21 555.817C157.337 555.744 157.429 555.654 157.478 555.555L159.679 550.907Z" fill="white"/>
<path fill-rule="evenodd" clip-rule="evenodd" d="M37.7547 609.104C36.9172 608.62 36.9172 607.837 37.7547 607.353L127.077 555.787C127.914 555.304 129.272 555.304 130.11 555.787C130.947 556.271 130.947 557.055 130.11 557.538L40.7877 609.104C39.9502 609.587 38.5923 609.587 37.7547 609.104Z" fill="white"/>
<path fill-rule="evenodd" clip-rule="evenodd" d="M45.6864 613.683C44.8489 613.2 44.8489 612.416 45.6864 611.932L119.982 569.041C120.82 568.558 122.178 568.558 123.015 569.041C123.853 569.525 123.853 570.309 123.015 570.792L48.7193 613.683C47.8818 614.167 46.5239 614.167 45.6864 613.683Z" fill="white"/>
<path fill-rule="evenodd" clip-rule="evenodd" d="M54.0321 618.502C53.1946 618.018 53.1946 617.235 54.0321 616.751L89.9279 596.028C90.7654 595.545 92.1233 595.545 92.9608 596.028C93.7984 596.512 93.7984 597.296 92.9608 597.779L57.065 618.502C56.2275 618.985 54.8696 618.985 54.0321 618.502Z" fill="white"/>
<rect x="0.866039" width="154.189" height="43.3398" rx="5.5" transform="matrix(0.866039 -0.499977 0.866039 0.499977 554.157 292.051)" fill="#4B4B4B" stroke="#1A8B08"/>
<path d="M675.602 229.148C673.196 230.537 672.587 232.654 674.098 234.387C673.489 234.918 673.081 235.517 672.901 236.143C672.721 236.769 672.774 237.408 673.056 238.018C673.907 239.903 676.77 241.237 680.151 241.322C681.129 242.463 682.917 243.298 685.052 243.61C688.317 244.11 691.789 243.327 693.659 241.68C694.751 241.713 695.847 241.612 696.873 241.383C697.9 241.153 698.832 240.801 699.609 240.349C702.015 238.96 702.624 236.843 701.113 235.11C702.347 234.033 702.725 232.711 702.147 231.483C701.304 229.594 698.441 228.26 695.06 228.175L695.053 228.171C694.569 227.607 693.881 227.11 693.035 226.715C692.188 226.32 691.203 226.035 690.144 225.879C686.886 225.383 683.414 226.166 681.552 227.809C680.458 227.777 679.362 227.88 678.337 228.111C677.311 228.342 676.379 228.696 675.602 229.148ZM677.014 229.963L677.013 229.971C677.982 229.412 679.244 229.065 680.599 228.988C680.584 229.013 680.561 229.069 680.539 229.107L678.65 233.075C678.551 233.276 678.652 233.489 678.909 233.638L684.76 237.015L681.802 237.484L676.966 234.692C675.887 234.069 675.285 233.222 675.294 232.335C675.303 231.448 675.922 230.595 677.014 229.963ZM683.994 227.9C684.718 227.48 685.62 227.176 686.606 227.02C687.593 226.863 688.63 226.86 689.613 227.009C690.913 227.209 692.054 227.661 692.824 228.295C692.772 228.299 692.683 228.317 692.624 228.326L685.744 229.412C685.572 229.44 685.416 229.493 685.289 229.566C685.162 229.639 685.07 229.73 685.022 229.829L682.814 234.481L680.667 233.242L682.488 229.399C682.755 228.833 683.274 228.316 683.994 227.899L683.994 227.9ZM675.381 235.437L680.518 238.403C680.776 238.552 681.138 238.606 681.494 238.553L689.537 237.279L688.725 238.995L682.082 240.046C680.596 240.28 679.018 240.165 677.694 239.726C676.37 239.288 675.408 238.561 675.021 237.707C674.679 236.953 674.806 236.15 675.381 235.437ZM686.471 230.502L693.121 229.447C696.22 228.956 699.375 230.004 700.183 231.786L700.197 231.786C700.536 232.541 700.408 233.345 699.83 234.052L694.692 231.086C694.435 230.937 694.066 230.879 693.718 230.936L685.659 232.21L686.471 230.502ZM685.129 233.323L688.524 232.788L690.986 234.21L690.06 236.17L686.665 236.705L684.203 235.283L685.129 233.323ZM690.466 232.482L693.424 232.013L698.253 234.801C700.502 236.1 700.477 238.219 698.205 239.53L698.198 239.526C697.237 240.081 695.967 240.432 694.62 240.506C694.635 240.48 694.665 240.42 694.68 240.386L696.569 236.418C696.668 236.217 696.574 236 696.309 235.856L690.466 232.482ZM692.397 235.016L694.543 236.255L692.715 240.094C691.858 241.879 688.678 242.951 685.598 242.489L685.605 242.485C684.305 242.293 683.164 241.832 682.394 241.198C682.446 241.194 682.535 241.176 682.594 241.168L689.474 240.082C689.646 240.053 689.802 240 689.929 239.927C690.056 239.854 690.148 239.764 690.196 239.664L692.397 235.016Z" fill="white"/>
<path fill-rule="evenodd" clip-rule="evenodd" d="M570.473 293.215C569.636 292.732 569.636 291.948 570.473 291.464L659.795 239.898C660.633 239.414 661.991 239.414 662.828 239.898C663.666 240.381 663.666 241.165 662.828 241.649L573.506 293.215C572.669 293.699 571.311 293.699 570.473 293.215Z" fill="white"/>
<path fill-rule="evenodd" clip-rule="evenodd" d="M578.405 297.794C577.568 297.311 577.568 296.527 578.405 296.043L652.701 253.151C653.538 252.668 654.896 252.668 655.734 253.151C656.571 253.635 656.571 254.419 655.734 254.902L581.438 297.794C580.601 298.278 579.243 298.278 578.405 297.794Z" fill="white"/>
<path fill-rule="evenodd" clip-rule="evenodd" d="M586.751 302.613C585.913 302.13 585.913 301.346 586.751 300.862L622.646 280.139C623.484 279.656 624.842 279.656 625.679 280.139C626.517 280.623 626.517 281.407 625.679 281.89L589.784 302.613C588.946 303.097 587.588 303.097 586.751 302.613Z" fill="white"/>
<rect x="0.866039" width="154.189" height="43.3398" rx="5.5" transform="matrix(0.866039 -0.499977 0.866039 0.499977 782.116 447.024)" fill="#4B4B4B" stroke="#1A8B08"/>
<path d="M903.561 384.122C901.155 385.511 900.546 387.628 902.057 389.361C901.448 389.892 901.04 390.491 900.86 391.117C900.68 391.743 900.733 392.382 901.015 392.992C901.866 394.877 904.729 396.211 908.11 396.296C909.088 397.437 910.876 398.272 913.011 398.584C916.276 399.083 919.748 398.301 921.618 396.653C922.71 396.687 923.806 396.586 924.832 396.357C925.858 396.127 926.791 395.775 927.568 395.323C929.974 393.934 930.583 391.817 929.072 390.084C930.306 389.007 930.684 387.685 930.106 386.457C929.263 384.568 926.4 383.233 923.019 383.148L923.012 383.144C922.528 382.58 921.84 382.084 920.994 381.689C920.147 381.294 919.162 381.008 918.103 380.852C914.845 380.357 911.373 381.139 909.511 382.783C908.417 382.751 907.321 382.854 906.296 383.085C905.27 383.316 904.338 383.669 903.561 384.122ZM904.973 384.936L904.972 384.945C905.941 384.386 907.203 384.039 908.558 383.961C908.543 383.987 908.52 384.043 908.498 384.081L906.609 388.048C906.51 388.25 906.611 388.463 906.868 388.611L912.719 391.989L909.761 392.458L904.925 389.666C903.846 389.043 903.244 388.195 903.253 387.309C903.262 386.422 903.881 385.569 904.973 384.936ZM911.953 382.873C912.677 382.453 913.579 382.15 914.565 381.993C915.552 381.837 916.589 381.833 917.572 381.982C918.872 382.182 920.013 382.635 920.783 383.269C920.731 383.273 920.642 383.29 920.583 383.299L913.703 384.385C913.531 384.414 913.375 384.467 913.248 384.54C913.121 384.613 913.029 384.703 912.981 384.803L910.773 389.455L908.626 388.216L910.447 384.372C910.714 383.807 911.233 383.29 911.953 382.873L911.953 382.873ZM903.34 390.411L908.477 393.377C908.735 393.525 909.097 393.58 909.453 393.527L917.496 392.252L916.684 393.969L910.041 395.02C908.555 395.254 906.977 395.139 905.653 394.7C904.329 394.261 903.367 393.535 902.98 392.68C902.638 391.926 902.765 391.124 903.34 390.411ZM914.43 385.476L921.08 384.421C924.179 383.93 927.334 384.977 928.141 386.76L928.156 386.76C928.495 387.515 928.367 388.318 927.789 389.026L922.651 386.059C922.394 385.911 922.025 385.852 921.676 385.91L913.618 387.184L914.43 385.476ZM913.088 388.297L916.483 387.762L918.945 389.184L918.019 391.144L914.624 391.678L912.162 390.257L913.088 388.297ZM918.425 387.456L921.383 386.987L926.212 389.775C928.461 391.073 928.436 393.192 926.164 394.504L926.157 394.5C925.196 395.055 923.926 395.406 922.579 395.479C922.594 395.454 922.624 395.394 922.639 395.359L924.528 391.392C924.627 391.191 924.533 390.973 924.268 390.829L918.425 387.456ZM920.356 389.99L922.502 391.229L920.674 395.068C919.817 396.853 916.637 397.925 913.557 397.462L913.564 397.458C912.264 397.267 911.123 396.806 910.353 396.172C910.405 396.168 910.494 396.15 910.553 396.141L917.433 395.055C917.605 395.027 917.761 394.974 917.888 394.901C918.015 394.828 918.107 394.737 918.155 394.638L920.356 389.99Z" fill="white"/>
<path fill-rule="evenodd" clip-rule="evenodd" d="M798.432 448.189C797.595 447.705 797.595 446.922 798.432 446.438L887.754 394.871C888.592 394.388 889.95 394.388 890.787 394.871C891.625 395.355 891.625 396.139 890.787 396.622L801.465 448.189C800.628 448.672 799.27 448.672 798.432 448.189Z" fill="white"/>
<path fill-rule="evenodd" clip-rule="evenodd" d="M806.364 452.768C805.527 452.285 805.527 451.501 806.364 451.017L880.66 408.125C881.497 407.642 882.855 407.642 883.693 408.125C884.53 408.609 884.53 409.393 883.693 409.876L809.397 452.768C808.56 453.252 807.202 453.252 806.364 452.768Z" fill="white"/>
<path fill-rule="evenodd" clip-rule="evenodd" d="M814.71 457.587C813.872 457.103 813.872 456.319 814.71 455.836L850.605 435.113C851.443 434.629 852.801 434.629 853.638 435.113C854.476 435.596 854.476 436.38 853.638 436.864L817.743 457.587C816.905 458.07 815.547 458.07 814.71 457.587Z" fill="white"/>
</g>
<defs>
<filter id="filter0_f_1336_4261" x="0.0878906" y="311.894" width="999.824" height="582.271" filterUnits="userSpaceOnUse" color-interpolation-filters="sRGB">
<feFlood flood-opacity="0" result="BackgroundImageFix"/>
<feBlend mode="normal" in="SourceGraphic" in2="BackgroundImageFix" result="shape"/>
<feGaussianBlur stdDeviation="3" result="effect1_foregroundBlur_1336_4261"/>
</filter>
<filter id="filter1_f_1336_4261" x="0.0878906" y="273.216" width="999.824" height="582.271" filterUnits="userSpaceOnUse" color-interpolation-filters="sRGB">
<feFlood flood-opacity="0" result="BackgroundImageFix"/>
<feBlend mode="normal" in="SourceGraphic" in2="BackgroundImageFix" result="shape"/>
<feGaussianBlur stdDeviation="3" result="effect1_foregroundBlur_1336_4261"/>
</filter>
<filter id="filter2_f_1336_4261" x="0.0878906" y="234.539" width="999.824" height="582.271" filterUnits="userSpaceOnUse" color-interpolation-filters="sRGB">
<feFlood flood-opacity="0" result="BackgroundImageFix"/>
<feBlend mode="normal" in="SourceGraphic" in2="BackgroundImageFix" result="shape"/>
<feGaussianBlur stdDeviation="3" result="effect1_foregroundBlur_1336_4261"/>
</filter>
<filter id="filter3_f_1336_4261" x="0.0878906" y="195.861" width="999.824" height="582.271" filterUnits="userSpaceOnUse" color-interpolation-filters="sRGB">
<feFlood flood-opacity="0" result="BackgroundImageFix"/>
<feBlend mode="normal" in="SourceGraphic" in2="BackgroundImageFix" result="shape"/>
<feGaussianBlur stdDeviation="3" result="effect1_foregroundBlur_1336_4261"/>
</filter>
<filter id="filter4_di_1336_4261" x="-6.81055" y="195.033" width="1013.62" height="591.928" filterUnits="userSpaceOnUse" color-interpolation-filters="sRGB">
<feFlood flood-opacity="0" result="BackgroundImageFix"/>
<feColorMatrix in="SourceAlpha" type="matrix" values="0 0 0 0 0 0 0 0 0 0 0 0 0 0 0 0 0 0 127 0" result="hardAlpha"/>
<feOffset dy="4"/>
<feGaussianBlur stdDeviation="4"/>
<feComposite in2="hardAlpha" operator="out"/>
<feColorMatrix type="matrix" values="0 0 0 0 0 0 0 0 0 0 0 0 0 0 0 0 0 0 0.37 0"/>
<feBlend mode="normal" in2="BackgroundImageFix" result="effect1_dropShadow_1336_4261"/>
<feBlend mode="normal" in="SourceGraphic" in2="effect1_dropShadow_1336_4261" result="shape"/>
<feColorMatrix in="SourceAlpha" type="matrix" values="0 0 0 0 0 0 0 0 0 0 0 0 0 0 0 0 0 0 127 0" result="hardAlpha"/>
<feOffset dy="7"/>
<feGaussianBlur stdDeviation="4.5"/>
<feComposite in2="hardAlpha" operator="arithmetic" k2="-1" k3="1"/>
<feColorMatrix type="matrix" values="0 0 0 0 0.0916667 0 0 0 0 0.0916667 0 0 0 0 0.0916667 0 0 0 0.2 0"/>
<feBlend mode="normal" in2="shape" result="effect2_innerShadow_1336_4261"/>
</filter>
<filter id="filter5_d_1336_4261" x="22.4336" y="469.441" width="82.9883" height="51.29" filterUnits="userSpaceOnUse" color-interpolation-filters="sRGB">
<feFlood flood-opacity="0" result="BackgroundImageFix"/>
<feColorMatrix in="SourceAlpha" type="matrix" values="0 0 0 0 0 0 0 0 0 0 0 0 0 0 0 0 0 0 127 0" result="hardAlpha"/>
<feOffset dy="1"/>
<feGaussianBlur stdDeviation="2"/>
<feComposite in2="hardAlpha" operator="out"/>
<feColorMatrix type="matrix" values="0 0 0 0 0 0 0 0 0 0 0 0 0 0 0 0 0 0 0.25 0"/>
<feBlend mode="normal" in2="BackgroundImageFix" result="effect1_dropShadow_1336_4261"/>
<feBlend mode="normal" in="SourceGraphic" in2="effect1_dropShadow_1336_4261" result="shape"/>
</filter>
<filter id="filter6_d_1336_4261" x="126.701" y="591.755" width="93.2207" height="62.2705" filterUnits="userSpaceOnUse" color-interpolation-filters="sRGB">
<feFlood flood-opacity="0" result="BackgroundImageFix"/>
<feColorMatrix in="SourceAlpha" type="matrix" values="0 0 0 0 0 0 0 0 0 0 0 0 0 0 0 0 0 0 127 0" result="hardAlpha"/>
<feOffset dy="4"/>
<feGaussianBlur stdDeviation="5"/>
<feComposite in2="hardAlpha" operator="out"/>
<feColorMatrix type="matrix" values="0 0 0 0 0 0 0 0 0 0 0 0 0 0 0 0 0 0 0.44 0"/>
<feBlend mode="normal" in2="BackgroundImageFix" result="effect1_dropShadow_1336_4261"/>
<feBlend mode="normal" in="SourceGraphic" in2="effect1_dropShadow_1336_4261" result="shape"/>
</filter>
<linearGradient id="paint0_linear_1336_4261" x1="310.471" y1="0" x2="310.471" y2="533.734" gradientUnits="userSpaceOnUse">
<stop stop-color="#6326E4"/>
<stop offset="0.510417" stop-color="#963C0A"/>
<stop offset="1" stop-color="#BF0073"/>
</linearGradient>
<linearGradient id="paint1_linear_1336_4261" x1="-2.53484" y1="1.82692e-06" x2="91.8948" y2="60.3239" gradientUnits="userSpaceOnUse">
<stop stop-color="#C00173"/>
<stop offset="1" stop-color="#6326E5"/>
</linearGradient>
<clipPath id="clip0_1336_4261">
<rect width="1000" height="1000" fill="white"/>
</clipPath>
</defs>
</svg>
