<?xml version="1.0" encoding="UTF-8"?>
<svg width="700px" height="225px" viewBox="0 0 700 225" version="1.1" xmlns="http://www.w3.org/2000/svg" xmlns:xlink="http://www.w3.org/1999/xlink">
    <title>Official Samelogic Logo</title>
    <defs>
        <linearGradient x1="401.731365%" y1="153.411114%" x2="50%" y2="55.1409629%" id="linearGradient-1">
            <stop stop-color="#613ABB" offset="0%"></stop>
            <stop stop-color="#B362D1" offset="100%"></stop>
        </linearGradient>
        <linearGradient x1="179.801617%" y1="755.31967%" x2="-151.822024%" y2="453.2608%" id="linearGradient-2">
            <stop stop-color="#613ABB" offset="0%"></stop>
            <stop stop-color="#B363D1" offset="100%"></stop>
        </linearGradient>
        <linearGradient x1="318.222872%" y1="221.604053%" x2="-367.046291%" y2="148.113225%" id="linearGradient-3">
            <stop stop-color="#613ABB" offset="0%"></stop>
            <stop stop-color="#B363D1" offset="100%"></stop>
        </linearGradient>
        <linearGradient x1="318.222872%" y1="203.265896%" x2="-367.046291%" y2="137.628532%" id="linearGradient-4">
            <stop stop-color="#613ABB" offset="0%"></stop>
            <stop stop-color="#B363D1" offset="100%"></stop>
        </linearGradient>
        <linearGradient x1="121.66982%" y1="31.3534878%" x2="-403.301878%" y2="133.694943%" id="linearGradient-5">
            <stop stop-color="#613ABB" offset="0%"></stop>
            <stop stop-color="#B363D1" offset="100%"></stop>
            <stop stop-color="#B363D1" offset="100%"></stop>
        </linearGradient>
        <linearGradient x1="121.66982%" y1="41.9032488%" x2="-403.301878%" y2="86.3422992%" id="linearGradient-6">
            <stop stop-color="#613ABB" offset="0%"></stop>
            <stop stop-color="#B363D1" offset="100%"></stop>
            <stop stop-color="#B363D1" offset="100%"></stop>
        </linearGradient>
        <linearGradient x1="73.7601297%" y1="27.8531173%" x2="-100.279593%" y2="149.406369%" id="linearGradient-7">
            <stop stop-color="#613ABB" offset="0%"></stop>
            <stop stop-color="#B363D1" offset="100%"></stop>
            <stop stop-color="#B363D1" offset="100%"></stop>
        </linearGradient>
        <linearGradient x1="54.6881742%" y1="27.8531173%" x2="20.3479353%" y2="149.406369%" id="linearGradient-8">
            <stop stop-color="#613ABB" offset="0%"></stop>
            <stop stop-color="#B363D1" offset="100%"></stop>
            <stop stop-color="#B363D1" offset="100%"></stop>
        </linearGradient>
        <linearGradient x1="121.66982%" y1="44.7899001%" x2="-403.301878%" y2="73.3855537%" id="linearGradient-9">
            <stop stop-color="#613ABB" offset="0%"></stop>
            <stop stop-color="#B363D1" offset="100%"></stop>
            <stop stop-color="#B363D1" offset="100%"></stop>
        </linearGradient>
        <linearGradient x1="121.66982%" y1="48.8677959%" x2="-403.301878%" y2="55.0819024%" id="linearGradient-10">
            <stop stop-color="#613ABB" offset="0%"></stop>
            <stop stop-color="#B363D1" offset="100%"></stop>
            <stop stop-color="#B363D1" offset="100%"></stop>
        </linearGradient>
        <linearGradient x1="69.3938331%" y1="27.8531173%" x2="-72.6633603%" y2="149.406369%" id="linearGradient-11">
            <stop stop-color="#613ABB" offset="0%"></stop>
            <stop stop-color="#B363D1" offset="100%"></stop>
            <stop stop-color="#B363D1" offset="100%"></stop>
        </linearGradient>
        <linearGradient x1="121.66982%" y1="49.9792292%" x2="-403.301878%" y2="50.0932297%" id="linearGradient-12">
            <stop stop-color="#613ABB" offset="0%"></stop>
            <stop stop-color="#B363D1" offset="100%"></stop>
            <stop stop-color="#B363D1" offset="100%"></stop>
        </linearGradient>
        <linearGradient x1="121.66982%" y1="38.2859463%" x2="-403.301878%" y2="102.578575%" id="linearGradient-13">
            <stop stop-color="#613ABB" offset="0%"></stop>
            <stop stop-color="#B363D1" offset="100%"></stop>
            <stop stop-color="#B363D1" offset="100%"></stop>
        </linearGradient>
        <linearGradient x1="100%" y1="61.9397101%" x2="16.8080454%" y2="-3.69472477%" id="linearGradient-14">
            <stop stop-color="#613ABB" offset="0%"></stop>
            <stop stop-color="#B363D1" offset="100%"></stop>
        </linearGradient>
        <linearGradient x1="100%" y1="55.3938615%" x2="16.8080454%" y2="25.7429701%" id="linearGradient-15">
            <stop stop-color="#613ABB" offset="0%"></stop>
            <stop stop-color="#B363D1" offset="100%"></stop>
        </linearGradient>
        <linearGradient x1="100%" y1="51.1368492%" x2="16.8080454%" y2="44.8874131%" id="linearGradient-16">
            <stop stop-color="#613ABB" offset="0%"></stop>
            <stop stop-color="#B363D1" offset="100%"></stop>
        </linearGradient>
        <linearGradient x1="190.450326%" y1="-90.0453302%" x2="16.8080454%" y2="-20.0605251%" id="linearGradient-17">
            <stop stop-color="#613ABB" offset="0%"></stop>
            <stop stop-color="#B363D1" offset="100%"></stop>
        </linearGradient>
        <linearGradient x1="118.308151%" y1="-114.451996%" x2="33.8570611%" y2="-32.2704564%" id="linearGradient-18">
            <stop stop-color="#613ABB" offset="0%"></stop>
            <stop stop-color="#B363D1" offset="100%"></stop>
        </linearGradient>
        <linearGradient x1="190.450326%" y1="7.38563395%" x2="16.8080454%" y2="28.6812966%" id="linearGradient-19">
            <stop stop-color="#613ABB" offset="0%"></stop>
            <stop stop-color="#B363D1" offset="100%"></stop>
        </linearGradient>
        <linearGradient x1="190.450326%" y1="43.4219201%" x2="16.8080454%" y2="46.7091817%" id="linearGradient-20">
            <stop stop-color="#613ABB" offset="0%"></stop>
            <stop stop-color="#B363D1" offset="100%"></stop>
        </linearGradient>
        <linearGradient x1="190.450326%" y1="5.71293734%" x2="16.8080454%" y2="27.844496%" id="linearGradient-21">
            <stop stop-color="#613ABB" offset="0%"></stop>
            <stop stop-color="#B363D1" offset="100%"></stop>
        </linearGradient>
        <linearGradient x1="401.731365%" y1="86.6703336%" x2="50%" y2="51.8230229%" id="linearGradient-22">
            <stop stop-color="#613ABB" offset="0%"></stop>
            <stop stop-color="#B362D1" offset="100%"></stop>
        </linearGradient>
        <linearGradient x1="401.731365%" y1="120.615287%" x2="50%" y2="53.5105567%" id="linearGradient-23">
            <stop stop-color="#613ABB" offset="0%"></stop>
            <stop stop-color="#B362D1" offset="100%"></stop>
        </linearGradient>
        <linearGradient x1="401.731365%" y1="230.054793%" x2="50%" y2="58.9512141%" id="linearGradient-24">
            <stop stop-color="#613ABB" offset="0%"></stop>
            <stop stop-color="#B362D1" offset="100%"></stop>
        </linearGradient>
        <linearGradient x1="401.731365%" y1="342.201979%" x2="50%" y2="64.5264806%" id="linearGradient-25">
            <stop stop-color="#613ABB" offset="0%"></stop>
            <stop stop-color="#B362D1" offset="100%"></stop>
        </linearGradient>
        <linearGradient x1="0%" y1="3.60690248%" x2="83.5342994%" y2="88.7426466%" id="linearGradient-26">
            <stop stop-color="#BA66D3" offset="0%"></stop>
            <stop stop-color="#5635B8" offset="100%"></stop>
        </linearGradient>
        <linearGradient x1="-1.2259119%" y1="47.8785695%" x2="95.6311836%" y2="51.8708336%" id="linearGradient-27">
            <stop stop-color="#2E4E84" offset="0%"></stop>
            <stop stop-color="#552E84" offset="100%"></stop>
        </linearGradient>
    </defs>
    <g id="Official-Samelogic-Logo" stroke="none" stroke-width="1" fill="none" fill-rule="evenodd">
        <g id="Heartbrain-2" transform="translate(6.000000, 27.000000)">
            <g id="Innards" transform="translate(3.451227, 7.645703)" stroke-linecap="round" stroke-width="4">
                <path d="M15.8411197,2.82789592 C15.8411197,2.82789592 33.9954398,1.36103723 36.4763138,9.33862166" id="Path-56" stroke="url(#linearGradient-1)"></path>
                <g id="Group-3" transform="translate(72.218686, 0.401223)">
                    <line x1="33.5825139" y1="0.229772553" x2="39.6138756" y2="9.50690368" id="Path-31" stroke="url(#linearGradient-2)"></line>
                    <path d="M29.362898,18.1273374 C29.362898,18.1273374 31.9449243,31.200074 44.6846282,34.7602565 C57.4243321,38.320439 64.6535211,28.4490591 64.6535211,28.4490591" id="Path-34" stroke="url(#linearGradient-3)"></path>
                    <path d="M-4.35190179e-13,41.0120506 C-4.35190179e-13,41.0120506 35.2375679,24.710666 36.6981965,58.3545981 C50.1750493,53.4819226 64.9469342,56.9754787 68.0997046,68.808773" id="Path-36" stroke="url(#linearGradient-4)"></path>
                </g>
                <g id="Group-4" transform="translate(95.567041, 9.215910)">
                    <line x1="65.2541587" y1="-6.61606692e-15" x2="55.6280766" y2="8.83267124" id="Path-33" stroke="url(#linearGradient-5)"></line>
                    <path d="M26.9554284,5.77825105 C26.9554284,5.77825105 68.2911937,-0.822880849 62.0314985,26.6826742" id="Path-32" stroke="url(#linearGradient-6)"></path>
                    <path d="M36.6716688,24.5536062 C36.6716688,24.5536062 42.0688405,26.5484326 42.0688407,33.9272837" id="Path-35" stroke="url(#linearGradient-7)"></path>
                    <path d="M28.8580687,63.3688348 C28.8580687,63.3688348 13.3908385,65.0987553 23.215717,78.4636906 C18.6344715,82.9654965 18.5291647,85.0405967 17.2606605,97.3643701 C17.2606605,100.565724 25.4657444,108.713608 25.4657444,108.713608" id="Path-39" stroke="url(#linearGradient-8)"></path>
                    <path d="M-7.14535227e-13,108.833217 C-7.14535227e-13,108.833217 8.79673231,110.98779 17.9712801,100.294397" id="Path-40" stroke="url(#linearGradient-9)"></path>
                    <path d="M37.5478853,49.7582584 C37.5478853,49.7582584 45.9925217,41.054072 58.0087456,47.5242134" id="Path-37" stroke="url(#linearGradient-10)"></path>
                    <path d="M28.6522785,91.6030544 C28.6522785,91.6030544 41.4185115,94.2208134 39.539871,70.3952799" id="Path-41" stroke="url(#linearGradient-11)"></path>
                    <path d="M40.6090158,78.9349031 C40.6090158,78.9349031 49.2049293,80.3469352 61.1013777,78.9349031" id="Path-42" stroke="url(#linearGradient-12)"></path>
                    <line x1="3.61178035" y1="121.011693" x2="16.8555186" y2="130.877465" id="Path-43" stroke="url(#linearGradient-13)"></line>
                </g>
                <g id="Group-2" transform="translate(49.089787, 59.743200)">
                    <path d="M35.8980869,60.7297612 C35.8980869,60.7297612 22.7993829,62.1567407 20.3289113,73.3076999" id="Path-46" stroke="url(#linearGradient-14)"></path>
                    <path d="M1.58785606e-13,6.09927216 C1.58785606e-13,6.09927216 17.4069622,7.72322935 40.2102971,1.17618967e-14 C58.6325499,4.03781753 52.0536891,17.2694975 52.0536891,17.2694975 C52.0536891,17.2694975 50.2088125,21.6051344 45.986091,21.6051344 C54.7691531,22.7458384 54.3640066,29.5210231 54.3640066,29.5210231" id="Path-38" stroke="url(#linearGradient-15)"></path>
                    <path d="M47.6140378,40.0015468 C47.6140378,40.0015468 37.3927843,54.5842694 24.4423092,39.0043488 C19.9967594,46.6066848 16.4185814,46.7809485 16.4185814,46.7809485" id="Path-45" stroke="url(#linearGradient-16)"></path>
                </g>
                <g id="Group" transform="translate(5.825410, 50.466703)">
                    <path d="M57.1824746,68.5688911 C57.1824746,68.5688911 61.3367189,61.8455955 43.1592945,55.2508445" id="Path-47" stroke="url(#linearGradient-17)"></path>
                    <path d="M52.3236437,59.302243 C52.3236437,59.302243 61.9504866,45.5255673 50.0636141,38.4477987 C38.1767416,31.3700302 27.8891773,35.0588827 23.8415025,13.1841513" id="Path-48" stroke="url(#linearGradient-18)"></path>
                    <path d="M51.6949409,38.9962608 C62.8200607,29.3987686 68.3716052,30.5501574 68.3716052,30.5501574" id="Path-49" stroke="url(#linearGradient-19)"></path>
                    <line x1="32.3893362" y1="44.2595933" x2="8.10443077" y2="39.5526424" id="Path-50" stroke="url(#linearGradient-20)"></line>
                    <path d="M40.9046636,0.263425784 C40.9046636,0.263425784 13.861949,-3.93911501 1.70547503e-13,21.22715" id="Path-51" stroke="url(#linearGradient-21)"></path>
                </g>
                <g id="Group-5" transform="translate(0.000000, 7.712342)">
                    <line x1="57.7105415" y1="1.85245616" x2="42.8878392" y2="4.68279509" id="Path-55" stroke="url(#linearGradient-22)"></line>
                    <path d="M70.7508643,18.9344163 C70.7508643,18.9344163 60.8520723,36.6061151 35.2839859,26.3225108 C24.3527965,24.2361882 23.0421462,31.5759783 23.0421462,31.5759783" id="Path-52" stroke="url(#linearGradient-23)"></path>
                    <path d="M37.8170856,27.0874424 C37.8170856,27.0874424 42.505046,12.6124903 19.7481322,12.6124904 C-3.00878166,12.6124904 0.149021838,10.9176799 0.149021838,10.9176799" id="Path-53" stroke="url(#linearGradient-24)"></path>
                    <path d="M76.4329503,1.43281258 C76.4329503,1.43281258 63.8465434,-2.85591756 55.1816887,3.4064336 C46.5168341,9.66878477 60.3475761,12.9927783 60.3475761,12.9927783" id="Path-54" stroke="url(#linearGradient-25)"></path>
                </g>
            </g>
            <path d="M173.362004,26.286691 C166.00549,9.19013776 132.2872,-19.6895016 88.395442,21.2364839 C44.5029643,-19.694649 10.7837179,9.18525937 3.42721956,26.2817005 C-19.8225831,98.286402 85.2389374,168.098255 88.7612849,170.423365 C88.7612849,170.423365 196.612767,98.2946921 173.362004,26.286691 Z M88.3585723,20.0408405 L88.3585723,151.08664" id="Path-30" stroke="url(#linearGradient-26)" stroke-width="4" stroke-linecap="round" stroke-linejoin="bevel" stroke-dasharray="130"></path>
            <path d="M173.362004,26.286691 C166.00549,9.19013776 132.2872,-19.6895016 88.395442,21.2364839 C44.5029643,-19.694649 10.7837179,9.18525937 3.42721956,26.2817005 C-19.8225831,98.286402 85.2389374,168.098255 88.7612849,170.423365 C88.7612849,170.423365 196.612767,98.2946921 173.362004,26.286691 Z" id="Path-30" stroke="url(#linearGradient-26)" stroke-width="7"></path>
        </g>
        <path d="M264.753032,89.4826974 L260.627033,93.7462289 C257.203966,90.4148507 253.857356,88.7491866 250.587104,88.7491866 C248.508813,88.7491866 246.728539,89.4368461 245.246229,90.8121857 C243.763918,92.1875254 243.022774,93.7920642 243.022774,95.6258503 C243.022774,97.2456948 243.634027,98.7891083 244.856551,100.256137 C246.079075,101.753729 248.646338,103.511081 252.558415,105.528246 C257.326259,108.003857 260.565899,110.387744 262.277433,112.679976 C263.958403,115.002772 264.798876,117.615878 264.798876,120.519373 C264.798876,124.614829 263.362432,128.083689 260.4895,130.926057 C257.616569,133.768426 254.025458,135.189589 249.71606,135.189589 C246.843129,135.189589 244.100131,134.563055 241.486986,133.309967 C238.873841,132.05688 236.711534,130.330091 235,128.129547 L239.034309,123.545105 C242.304561,127.24324 245.773421,129.09228 249.440994,129.09228 C252.008294,129.09228 254.193523,128.267089 255.996747,126.616681 C257.79997,124.966274 258.701568,123.025546 258.701568,120.79444 C258.701568,118.960653 258.105596,117.325552 256.913635,115.889086 C255.721674,114.483183 253.032161,112.71055 248.845016,110.571133 C244.35224,108.248337 241.295976,105.956139 239.676131,103.694469 C238.056287,101.432799 237.246377,98.8502561 237.246377,95.9467613 C237.246377,92.1569366 238.537649,89.0089842 241.120231,86.5028098 C243.702813,83.9966354 246.965375,82.743567 250.908015,82.743567 C255.492481,82.743567 260.10744,84.9899213 264.753032,89.4826974 Z M325.817805,84.0272109 L325.817805,133.905945 L319.491275,133.905945 L319.491275,125.333038 C316.801722,128.60329 313.783661,131.063582 310.437001,132.71399 C307.090341,134.364397 303.430465,135.189589 299.457261,135.189589 C292.397184,135.189589 286.368703,132.629967 281.371636,127.510648 C276.374568,122.391328 273.876072,116.164189 273.876072,108.829045 C273.876072,101.646716 276.39749,95.5036241 281.440402,90.3995859 C286.483314,85.2955478 292.549999,82.743567 299.640639,82.743567 C303.736095,82.743567 307.441815,83.6146024 310.757912,85.3566992 C314.074008,87.0987961 316.9851,89.7119021 319.491275,93.1960958 L319.491275,84.0272109 L325.817805,84.0272109 Z M300.144928,88.9325643 C296.569045,88.9325643 293.268279,89.8112404 290.242532,91.5686188 C287.216785,93.3259972 284.809976,95.7939307 283.022035,98.9724933 C281.234093,102.151056 280.340136,105.512947 280.340136,109.058267 C280.340136,112.573024 281.241734,115.934914 283.044957,119.14404 C284.84818,122.353166 287.27027,124.851662 290.311298,126.639604 C293.352327,128.427545 296.614889,129.321503 300.099083,129.321503 C303.61384,129.321503 306.945168,128.435186 310.093168,126.662526 C313.241167,124.889866 315.663257,122.490698 317.359509,119.464951 C319.055761,116.439204 319.903875,113.031469 319.903875,109.241644 C319.903875,103.465218 318.00135,98.6363203 314.196244,94.7548063 C310.391137,90.8732922 305.707412,88.9325643 300.144928,88.9325643 Z M340.212955,84.0272109 L346.58533,84.0272109 L346.58533,92.6459627 C348.816436,89.4674001 351.108635,87.1446391 353.461993,85.6776102 C356.701682,83.7215716 360.109417,82.743567 363.6853,82.743567 C366.099785,82.743567 368.391984,83.217288 370.561964,84.1647442 C372.731944,85.1122003 374.504578,86.3729094 375.879917,87.9469092 C377.255257,89.520909 378.4472,91.774904 379.455782,94.7089618 C381.595199,90.7968847 384.269431,87.8246676 387.478557,85.7922212 C390.687682,83.7597749 394.141261,82.743567 397.839397,82.743567 C401.293027,82.743567 404.341651,83.6146024 406.985359,85.3566992 C409.629068,87.0987961 411.592718,89.5285263 412.876368,92.6459627 C414.160018,95.7633992 414.801834,100.439484 414.801834,106.674357 L414.801834,133.905945 L408.246081,133.905945 L408.246081,106.674357 C408.246081,101.325814 407.864048,97.6506558 407.09997,95.6487726 C406.335893,93.6468893 405.02934,92.0347098 403.180272,90.8121857 C401.331204,89.5896616 399.123053,88.9784088 396.555753,88.9784088 C393.438316,88.9784088 390.58835,89.8952881 388.005768,91.7290742 C385.423185,93.5628604 383.535942,96.0078719 382.343981,99.0641822 C381.15202,102.120492 380.556049,107.224454 380.556049,114.37622 L380.556049,133.905945 L374.183673,133.905945 L374.183673,108.3706 C374.183673,102.349669 373.809281,98.2619155 373.060485,96.1072168 C372.311689,93.9525181 371.005136,92.2257287 369.140787,90.9267968 C367.276437,89.6278649 365.060646,88.9784088 362.493345,88.9784088 C359.528724,88.9784088 356.755164,89.8723661 354.172582,91.6603076 C351.59,93.4482491 349.679835,95.8550573 348.442029,98.8808045 C347.204223,101.906552 346.58533,106.536792 346.58533,112.771665 L346.58533,133.905945 L340.212955,133.905945 L340.212955,84.0272109 Z M470.319432,117.356108 L475.729074,120.198462 C473.956414,123.682656 471.908717,126.494419 469.585921,128.633836 C467.263126,130.773253 464.650019,132.400714 461.746525,133.516267 C458.84303,134.631821 455.557546,135.189589 451.889973,135.189589 C443.760188,135.189589 437.403158,132.522998 432.818693,127.189737 C428.234227,121.856475 425.942029,115.827994 425.942029,109.104111 C425.942029,102.777549 427.882757,97.1387411 431.764271,92.1875185 C436.68493,85.8915193 443.27118,82.743567 451.523218,82.743567 C460.019761,82.743567 466.804668,85.967926 471.878143,92.4167406 C475.484589,96.9706429 477.318347,102.655295 477.379474,109.470867 L432.543626,109.470867 C432.665879,115.277856 434.514919,120.037988 438.090802,123.751405 C441.666685,127.464822 446.082987,129.321503 451.33984,129.321503 C453.876578,129.321503 456.344511,128.878344 458.743715,127.992014 C461.142918,127.105684 463.182975,125.929022 464.863946,124.461993 C466.544916,122.994965 468.363394,120.62636 470.319432,117.356108 Z M470.319432,103.923691 C469.463665,100.500624 468.218237,97.7652671 466.583112,95.7175392 C464.947986,93.6698113 462.785678,92.0194285 460.096125,90.7663413 C457.406572,89.5132541 454.579528,88.8867199 451.614907,88.8867199 C446.72481,88.8867199 442.522447,90.4606961 439.00769,93.6086957 C436.440389,95.9009283 434.499662,99.3392258 433.185448,103.923691 L470.319432,103.923691 Z M488.382135,64.7725525 L494.800355,64.7725525 L494.800355,133.905945 L488.382135,133.905945 L488.382135,64.7725525 Z M531.750961,82.743567 C539.4223,82.743567 545.77933,85.5247676 550.822242,91.0872523 C555.406707,96.1607273 557.698906,102.166287 557.698906,109.104111 C557.698906,116.072499 555.276816,122.162105 550.432564,127.373114 C545.588313,132.584123 539.361174,135.189589 531.750961,135.189589 C524.110186,135.189589 517.867766,132.584123 513.023514,127.373114 C508.179262,122.162105 505.757172,116.072499 505.757172,109.104111 C505.757172,102.19685 508.049371,96.2065718 512.633836,91.1330967 C517.676748,85.5400489 524.049059,82.743567 531.750961,82.743567 Z M531.750961,89.0242532 C526.432981,89.0242532 521.863866,90.9955437 518.043478,94.938184 C514.22309,98.8808242 512.312925,103.648597 512.312925,109.241644 C512.312925,112.848091 513.183961,116.209981 514.926057,119.327418 C516.668154,122.444854 519.021478,124.851663 521.986099,126.547915 C524.95072,128.244167 528.205641,129.09228 531.750961,129.09228 C535.296281,129.09228 538.551203,128.244167 541.515824,126.547915 C544.480445,124.851663 546.833768,122.444854 548.575865,119.327418 C550.317962,116.209981 551.188997,112.848091 551.188997,109.241644 C551.188997,103.648597 549.271191,98.8808242 545.435522,94.938184 C541.599853,90.9955437 537.038378,89.0242532 531.750961,89.0242532 Z M612.574682,84.0272109 L619.038746,84.0272109 L619.038746,123.774327 C619.038746,130.773278 618.427493,135.892521 617.204969,139.132209 C615.523998,143.716675 612.605266,147.24666 608.448684,149.722272 C604.292102,152.197883 599.29511,153.43567 593.457557,153.43567 C589.178723,153.43567 585.33547,152.832058 581.927684,151.624815 C578.519898,150.417573 575.746338,148.797752 573.606921,146.765306 C571.467504,144.73286 569.496213,141.760643 567.69299,137.848566 L574.661343,137.848566 C576.556255,141.149381 579.001267,143.594392 581.996451,145.183673 C584.991635,146.772955 588.704996,147.567584 593.136646,147.567584 C597.50717,147.567584 601.197609,146.750033 604.208075,145.114907 C607.21854,143.479781 609.365566,141.424443 610.649216,138.948832 C611.932867,136.47322 612.574682,132.484795 612.574682,126.983437 L612.574682,124.416149 C610.160197,127.472459 607.210902,129.818142 603.726708,131.453268 C600.242514,133.088394 596.544434,133.905945 592.632357,133.905945 C588.047892,133.905945 583.738559,132.767486 579.70423,130.490535 C575.6699,128.213584 572.55251,125.149679 570.351967,121.298728 C568.151423,117.447777 567.051168,113.214851 567.051168,108.599823 C567.051168,103.984794 568.197267,99.6831019 570.4895,95.694617 C572.781733,91.7061321 575.952607,88.5505391 580.002218,86.2277433 C584.051829,83.9049475 588.322959,82.743567 592.815735,82.743567 C596.544434,82.743567 600.020934,83.5152738 603.245342,85.0587104 C606.469749,86.6021471 609.579498,89.1464873 612.574682,92.6918072 L612.574682,84.0272109 Z M593.640935,88.9325643 C590.003925,88.9325643 586.626753,89.8112404 583.509317,91.5686188 C580.39188,93.3259972 577.946869,95.7557274 576.174209,98.8578823 C574.401549,101.960037 573.515232,105.314287 573.515232,108.920734 C573.515232,114.391529 575.348991,118.9148 579.016563,122.490683 C582.684135,126.066566 587.436627,127.854481 593.274179,127.854481 C599.172858,127.854481 603.917709,126.081848 607.508873,122.536528 C611.100038,118.991208 612.895593,114.330405 612.895593,108.553978 C612.895593,104.794716 612.070402,101.440466 610.419994,98.4911269 C608.769587,95.5417875 606.431544,93.2113859 603.405797,91.4998521 C600.38005,89.7883184 597.125128,88.9325643 593.640935,88.9325643 Z M635.03845,63.4889086 C636.505479,63.4889086 637.758548,64.0084736 638.797693,65.047619 C639.836838,66.0867645 640.356403,67.3398329 640.356403,68.8068619 C640.356403,70.2433277 639.836838,71.4811148 638.797693,72.5202603 C637.758548,73.5594058 636.505479,74.0789707 635.03845,74.0789707 C633.601984,74.0789707 632.364197,73.5594058 631.325052,72.5202603 C630.285906,71.4811148 629.766341,70.2433277 629.766341,68.8068619 C629.766341,67.3398329 630.285906,66.0867645 631.325052,65.047619 C632.364197,64.0084736 633.601984,63.4889086 635.03845,63.4889086 Z M631.82934,84.0272109 L638.293404,84.0272109 L638.293404,133.905945 L631.82934,133.905945 L631.82934,84.0272109 Z M700,94.3880509 L694.911269,97.5513162 C690.510182,91.7137636 684.504622,88.7950311 676.89441,88.7950311 C670.812353,88.7950311 665.761876,90.7510403 661.742828,94.6631174 C657.72378,98.5751946 655.714286,103.327686 655.714286,108.920734 C655.714286,112.557743 656.638806,115.980759 658.487873,119.189885 C660.336941,122.39901 662.873641,124.889866 666.098048,126.662526 C669.322455,128.435186 672.936488,129.321503 676.940254,129.321503 C684.275399,129.321503 690.265677,126.40277 694.911269,120.565217 L700,123.91186 C697.616078,127.487743 694.414641,130.261303 690.395593,132.232623 C686.376545,134.203944 681.799789,135.189589 676.665188,135.189589 C668.779907,135.189589 662.239501,132.683452 657.043774,127.671103 C651.848047,122.658754 649.250222,116.561507 649.250222,109.379178 C649.250222,104.550208 650.465087,100.06514 652.894854,95.9238391 C655.32462,91.7825387 658.663589,88.5505391 662.91186,86.2277433 C667.160132,83.9049475 671.912623,82.743567 677.169476,82.743567 C680.470292,82.743567 683.656447,83.2478506 686.728039,84.256433 C689.799631,85.2650154 692.405096,86.5792091 694.544513,88.1990535 C696.683931,89.818898 698.502408,91.8818765 700,94.3880509 Z" id="samelogic" fill="url(#linearGradient-27)" opacity="0.794723732"></path>
    </g>
</svg>