<?xml version="1.0" encoding="UTF-8"?>
<svg width="706px" height="471px" viewBox="0 0 706 471" version="1.1" xmlns="http://www.w3.org/2000/svg" xmlns:xlink="http://www.w3.org/1999/xlink">
    <title>undraw_version_control_9bpv</title>
    <defs>
        <linearGradient x1="50.0228196%" y1="100.006339%" x2="50.0228196%" y2="-0.00916024026%" id="linearGradient-1">
            <stop stop-color="#808080" stop-opacity="0.25" offset="0%"></stop>
            <stop stop-color="#808080" stop-opacity="0.12" offset="54%"></stop>
            <stop stop-color="#808080" stop-opacity="0.1" offset="100%"></stop>
        </linearGradient>
        <linearGradient x1="401.731365%" y1="153.411114%" x2="50%" y2="55.1409629%" id="linearGradient-2">
            <stop stop-color="#613ABB" offset="0%"></stop>
            <stop stop-color="#B362D1" offset="100%"></stop>
        </linearGradient>
        <linearGradient x1="179.801617%" y1="755.31967%" x2="-151.822024%" y2="453.2608%" id="linearGradient-3">
            <stop stop-color="#613ABB" offset="0%"></stop>
            <stop stop-color="#B363D1" offset="100%"></stop>
        </linearGradient>
        <linearGradient x1="318.222872%" y1="221.604053%" x2="-367.046291%" y2="148.113225%" id="linearGradient-4">
            <stop stop-color="#613ABB" offset="0%"></stop>
            <stop stop-color="#B363D1" offset="100%"></stop>
        </linearGradient>
        <linearGradient x1="318.222872%" y1="203.265896%" x2="-367.046291%" y2="137.628532%" id="linearGradient-5">
            <stop stop-color="#613ABB" offset="0%"></stop>
            <stop stop-color="#B363D1" offset="100%"></stop>
        </linearGradient>
        <linearGradient x1="121.66982%" y1="31.3534878%" x2="-403.301878%" y2="133.694943%" id="linearGradient-6">
            <stop stop-color="#613ABB" offset="0%"></stop>
            <stop stop-color="#B363D1" offset="100%"></stop>
            <stop stop-color="#B363D1" offset="100%"></stop>
        </linearGradient>
        <linearGradient x1="121.66982%" y1="41.9032488%" x2="-403.301878%" y2="86.3422992%" id="linearGradient-7">
            <stop stop-color="#613ABB" offset="0%"></stop>
            <stop stop-color="#B363D1" offset="100%"></stop>
            <stop stop-color="#B363D1" offset="100%"></stop>
        </linearGradient>
        <linearGradient x1="73.7601297%" y1="27.8531173%" x2="-100.279593%" y2="149.406369%" id="linearGradient-8">
            <stop stop-color="#613ABB" offset="0%"></stop>
            <stop stop-color="#B363D1" offset="100%"></stop>
            <stop stop-color="#B363D1" offset="100%"></stop>
        </linearGradient>
        <linearGradient x1="54.6881742%" y1="27.8531173%" x2="20.3479353%" y2="149.406369%" id="linearGradient-9">
            <stop stop-color="#613ABB" offset="0%"></stop>
            <stop stop-color="#B363D1" offset="100%"></stop>
            <stop stop-color="#B363D1" offset="100%"></stop>
        </linearGradient>
        <linearGradient x1="121.66982%" y1="44.7899001%" x2="-403.301878%" y2="73.3855537%" id="linearGradient-10">
            <stop stop-color="#613ABB" offset="0%"></stop>
            <stop stop-color="#B363D1" offset="100%"></stop>
            <stop stop-color="#B363D1" offset="100%"></stop>
        </linearGradient>
        <linearGradient x1="121.66982%" y1="48.8677959%" x2="-403.301878%" y2="55.0819024%" id="linearGradient-11">
            <stop stop-color="#613ABB" offset="0%"></stop>
            <stop stop-color="#B363D1" offset="100%"></stop>
            <stop stop-color="#B363D1" offset="100%"></stop>
        </linearGradient>
        <linearGradient x1="69.3938331%" y1="27.8531173%" x2="-72.6633603%" y2="149.406369%" id="linearGradient-12">
            <stop stop-color="#613ABB" offset="0%"></stop>
            <stop stop-color="#B363D1" offset="100%"></stop>
            <stop stop-color="#B363D1" offset="100%"></stop>
        </linearGradient>
        <linearGradient x1="121.66982%" y1="49.9792292%" x2="-403.301878%" y2="50.0932297%" id="linearGradient-13">
            <stop stop-color="#613ABB" offset="0%"></stop>
            <stop stop-color="#B363D1" offset="100%"></stop>
            <stop stop-color="#B363D1" offset="100%"></stop>
        </linearGradient>
        <linearGradient x1="121.66982%" y1="38.2859463%" x2="-403.301878%" y2="102.578575%" id="linearGradient-14">
            <stop stop-color="#613ABB" offset="0%"></stop>
            <stop stop-color="#B363D1" offset="100%"></stop>
            <stop stop-color="#B363D1" offset="100%"></stop>
        </linearGradient>
        <linearGradient x1="100%" y1="61.9397101%" x2="16.8080454%" y2="-3.69472477%" id="linearGradient-15">
            <stop stop-color="#613ABB" offset="0%"></stop>
            <stop stop-color="#B363D1" offset="100%"></stop>
        </linearGradient>
        <linearGradient x1="100%" y1="55.3938615%" x2="16.8080454%" y2="25.7429701%" id="linearGradient-16">
            <stop stop-color="#613ABB" offset="0%"></stop>
            <stop stop-color="#B363D1" offset="100%"></stop>
        </linearGradient>
        <linearGradient x1="100%" y1="51.1368492%" x2="16.8080454%" y2="44.8874131%" id="linearGradient-17">
            <stop stop-color="#613ABB" offset="0%"></stop>
            <stop stop-color="#B363D1" offset="100%"></stop>
        </linearGradient>
        <linearGradient x1="190.450326%" y1="-90.0453302%" x2="16.8080454%" y2="-20.0605251%" id="linearGradient-18">
            <stop stop-color="#613ABB" offset="0%"></stop>
            <stop stop-color="#B363D1" offset="100%"></stop>
        </linearGradient>
        <linearGradient x1="118.308151%" y1="-114.451996%" x2="33.8570611%" y2="-32.2704564%" id="linearGradient-19">
            <stop stop-color="#613ABB" offset="0%"></stop>
            <stop stop-color="#B363D1" offset="100%"></stop>
        </linearGradient>
        <linearGradient x1="190.450326%" y1="7.38563395%" x2="16.8080454%" y2="28.6812966%" id="linearGradient-20">
            <stop stop-color="#613ABB" offset="0%"></stop>
            <stop stop-color="#B363D1" offset="100%"></stop>
        </linearGradient>
        <linearGradient x1="190.450326%" y1="43.4219201%" x2="16.8080454%" y2="46.7091817%" id="linearGradient-21">
            <stop stop-color="#613ABB" offset="0%"></stop>
            <stop stop-color="#B363D1" offset="100%"></stop>
        </linearGradient>
        <linearGradient x1="190.450326%" y1="5.71293734%" x2="16.8080454%" y2="27.844496%" id="linearGradient-22">
            <stop stop-color="#613ABB" offset="0%"></stop>
            <stop stop-color="#B363D1" offset="100%"></stop>
        </linearGradient>
        <linearGradient x1="401.731365%" y1="86.6703336%" x2="50%" y2="51.8230229%" id="linearGradient-23">
            <stop stop-color="#613ABB" offset="0%"></stop>
            <stop stop-color="#B362D1" offset="100%"></stop>
        </linearGradient>
        <linearGradient x1="401.731365%" y1="120.615287%" x2="50%" y2="53.5105567%" id="linearGradient-24">
            <stop stop-color="#613ABB" offset="0%"></stop>
            <stop stop-color="#B362D1" offset="100%"></stop>
        </linearGradient>
        <linearGradient x1="401.731365%" y1="230.054793%" x2="50%" y2="58.9512141%" id="linearGradient-25">
            <stop stop-color="#613ABB" offset="0%"></stop>
            <stop stop-color="#B362D1" offset="100%"></stop>
        </linearGradient>
        <linearGradient x1="401.731365%" y1="342.201979%" x2="50%" y2="64.5264806%" id="linearGradient-26">
            <stop stop-color="#613ABB" offset="0%"></stop>
            <stop stop-color="#B362D1" offset="100%"></stop>
        </linearGradient>
        <linearGradient x1="0%" y1="3.60690248%" x2="83.5342994%" y2="88.7426466%" id="linearGradient-27">
            <stop stop-color="#BA66D3" offset="0%"></stop>
            <stop stop-color="#5635B8" offset="100%"></stop>
        </linearGradient>
    </defs>
    <g id="Onboarding-Carousel" stroke="none" stroke-width="1" fill="none" fill-rule="evenodd">
        <g id="Onboarding---2" transform="translate(-1183.000000, -512.000000)">
            <g id="undraw_version_control_9bpv" transform="translate(1183.500000, 512.000000)">
                <g id="Group" opacity="0.8" transform="translate(202.923631, 82.798271)">
                    <line x1="21.0660519" y1="114.349841" x2="445.278242" y2="114.349841" id="Path" stroke="#3F3D56" stroke-width="3"></line>
                    <path d="M58.7528386,114.343055 C58.7528386,114.343055 79.038415,117.159553 68.532536,95.3944669 C58.0266571,73.6293804 97.0368588,77.7489337 97.0368588,77.7489337" id="Path" stroke="#3F3D56" stroke-width="3"></path>
                    <path d="M193.856542,114.343055 C193.856542,114.343055 214.142118,111.533343 203.636239,133.298429 C193.13036,155.063516 232.140562,150.943963 232.140562,150.943963" id="Path" stroke="#3F3D56" stroke-width="3"></path>
                    <path d="M388.384971,114.343055 C388.384971,114.343055 368.092608,111.533343 378.605274,133.298429 C389.117939,155.063516 350.100951,150.943963 350.100951,150.943963" id="Path" stroke="#3F3D56" stroke-width="3"></path>
                    <line x1="350.100951" y1="150.937176" x2="238.16719" y2="150.937176" id="Path" stroke="#3F3D56" stroke-width="3"></line>
                    <circle id="Oval" fill="#3ACC6C" fill-rule="nonzero" cx="97.2472478" cy="77.5724784" r="12.3858069"></circle>
                    <circle id="Oval" fill="#9090FF" fill-rule="nonzero" cx="97.2472478" cy="114.349841" r="12.3858069"></circle>
                    <circle id="Oval" fill="#9090FF" fill-rule="nonzero" cx="146.410418" cy="114.349841" r="12.3858069"></circle>
                    <circle id="Oval" fill="#FF6584" fill-rule="nonzero" cx="232.344164" cy="150.753934" r="12.3858069"></circle>
                    <circle id="Oval" fill="#FF6584" fill-rule="nonzero" cx="297.279726" cy="150.753934" r="12.3858069"></circle>
                    <circle id="Oval" fill="#9090FF" fill-rule="nonzero" cx="293.893141" cy="114.349841" r="12.3858069"></circle>
                    <circle id="Oval" fill="#9090FF" fill-rule="nonzero" cx="442.142767" cy="114.349841" r="12.3858069"></circle>
                    <circle id="Oval" fill="#9090FF" fill-rule="nonzero" cx="381.496427" cy="114.349841" r="12.3858069"></circle>
                    <rect id="Rectangle" fill="#9090FF" fill-rule="nonzero" x="0.257896254" y="0.447925072" width="41.5552305" height="28.6400576"></rect>
                    <rect id="Rectangle" fill="#3ACC6C" fill-rule="nonzero" x="76.6223343" y="0.447925072" width="41.5552305" height="28.6400576"></rect>
                    <rect id="Rectangle" fill="#FF6584" fill-rule="nonzero" x="211.393487" y="0.447925072" width="41.5552305" height="28.6400576"></rect>
                </g>
                <path d="M417.547608,75.6043228 C373.623804,74.0773055 331.790317,59.8997983 291.836758,44.3853026 C251.883199,28.8708069 212.323271,11.6799856 169.451412,3.46123919 C141.876873,-1.82563401 110.345663,-2.57217579 88.1258646,12.2093516 C66.7476225,26.461513 59.8387176,50.9955908 56.1195821,73.7786888 C53.3302305,90.9287896 51.6810519,108.967954 59.3432853,125.018602 C64.6573055,136.162435 74.0976657,145.528141 80.626513,156.203689 C103.334957,193.340749 87.2843084,239.137695 62.6687896,275.399265 C51.1313256,292.406844 37.7342939,308.654308 28.8232997,326.747767 C19.9123055,344.841225 15.7927522,365.601873 23.5839337,384.075389 C31.3140346,402.399597 49.7264697,416.135965 69.6659222,425.807075 C110.175994,445.447911 157.893588,451.074121 204.464222,454.257104 C307.500562,461.30853 411.093415,458.254496 514.401225,455.200461 C552.637738,454.067075 591.037133,452.920115 628.649265,447.008862 C649.538862,443.724078 671.107133,438.511859 686.268718,425.969957 C705.515922,410.000749 710.287003,382.955576 697.39219,362.934683 C675.756052,329.347089 615.951268,320.999395 600.810043,284.955 C592.482709,265.117349 601.034006,243.012925 613.127983,224.614063 C639.08049,185.135576 682.576729,150.509611 684.870648,105.384553 C686.445173,74.3962824 665.535216,43.3605043 633.20317,28.6943516 C599.310173,13.3223775 552.318761,15.2565994 527.329971,40.7001009 C501.567493,66.8697839 456.327061,76.948098 417.547608,75.6043228 Z" id="Path" fill="#9090FF" fill-rule="nonzero" opacity="0.1"></path>
                <path d="M304.541542,442.149553 C303.862867,439.692752 303.184193,437.208804 301.826844,435.07098 C300.568243,433.258336 299.073263,431.621847 297.381527,430.204885 C292.461138,425.739207 286.420937,421.205663 279.898876,422.332262 C277.881717,422.77846 275.932728,423.490503 274.102997,424.449726 C273.152853,424.890865 272.195922,425.332003 271.218631,425.705274 C268.46757,426.855351 265.426839,427.121 262.518026,426.465389 C261.024942,426.064971 259.63366,425.345576 258.160937,424.897651 C257.461648,424.687548 256.746799,424.533232 256.023112,424.436153 C257.446048,423.79922 258.826599,423.07154 260.156239,422.257608 C267.472349,417.778357 273.308948,409.681772 272.494539,401.021888 C272.216282,398.110375 271.218631,395.321023 270.227767,392.572392 L267.621657,385.36487 C266.495058,382.242968 265.327738,379.059986 263.271354,376.46745 C260.984222,373.576297 257.726585,371.614928 254.36036,370.155778 C247.132478,367.013516 239.232709,365.907277 231.434741,364.834971 L230.891801,364.760317 L230.891801,280.51647 C230.891801,277.517898 228.460978,275.087075 225.462406,275.087075 L215.214424,275.087075 C214.761974,272.318084 214.309524,269.553617 213.857075,266.793674 C212.567594,258.914265 211.230605,250.892334 207.599697,243.800187 C205.224337,239.158055 201.444121,234.726311 196.347277,233.816888 C195.345634,233.726526 194.361289,233.49814 193.42219,233.138213 C191.929107,232.405245 191.114697,230.776427 189.967738,229.575173 C187.008718,226.473631 182.196916,226.426124 178.233458,224.824452 C174.731499,223.43317 171.867493,220.813487 168.677723,218.797824 C165.487954,216.782161 161.524496,215.350159 157.995389,216.66 C157.995389,216.917896 157.947882,217.175793 157.920735,217.426902 L155.653963,216.381744 C153.210735,215.248357 150.72,214.087824 148.758631,212.228256 C146.240749,209.852896 144.896974,206.703847 143.851816,203.357983 C143.743228,203.011859 143.641427,202.679308 143.532839,202.306037 C147.870854,197.880305 150.807548,192.273675 151.975548,186.187522 L152.525274,187.972435 C152.64903,188.373485 152.794018,188.767672 152.959625,189.153329 C153.240249,189.899157 153.70761,190.560473 154.316974,191.073977 C154.490848,191.210453 154.682677,191.322353 154.887061,191.406527 C155.074488,191.480867 155.270619,191.53104 155.47072,191.555836 C155.752535,191.590689 156.038449,191.569937 156.312277,191.494755 C157.241834,191.206948 157.990666,190.51303 158.3483,189.60804 C158.456529,189.34122 158.536153,189.063674 158.585836,188.780058 C158.612064,188.609243 158.627929,188.436997 158.633343,188.264265 C158.633343,188.209971 158.633343,188.155677 158.633343,188.101383 C158.633343,188.047089 158.633343,187.863847 158.633343,187.748473 C158.633343,187.633098 158.633343,187.626311 158.633343,187.558444 C158.633343,187.490576 158.633343,187.334481 158.599409,187.219107 L158.599409,187.042651 C158.599409,186.906916 158.558689,186.771182 158.531542,186.642233 C158.504395,186.513285 158.531542,186.567579 158.531542,186.533646 C158.497608,186.363977 158.456888,186.187522 158.422954,186.017853 C158.422954,185.977133 158.422954,185.929625 158.422954,185.888905 C158.422954,185.848184 158.361873,185.610648 158.327939,185.468127 C158.294006,185.325605 158.280432,185.284885 158.260072,185.18987 L158.260072,185.14915 L158.260072,185.14915 C158.192205,184.87768 158.131124,184.612997 158.070043,184.341527 C157.576782,181.986137 157.450869,179.568615 157.696772,177.174726 C158.10297,173.661601 158.751518,170.180755 159.637781,166.757075 L159.780303,166.139481 C159.834597,165.901945 159.88889,165.664409 159.936398,165.420086 C160.044986,164.931441 160.153573,164.442795 160.255375,163.947363 L160.255375,163.947363 L160.499697,162.698602 L160.682939,161.585576 L160.682939,161.443055 C161.063933,158.920946 161.143671,156.362481 160.920476,153.821542 L160.920476,153.821542 C160.608285,150.272075 159.508833,146.912637 157.099539,144.23866 C155.396066,142.345159 153.149654,140.947089 151.568343,138.958573 C150.088833,137.099006 149.254063,134.805086 147.720259,132.979452 C143.485331,127.923329 132.612968,124.027738 125.941599,123.349063 C118.299726,122.575375 105.95464,124.529957 99.7922767,129.043141 C97.5119308,130.705893 95.9509798,133.115187 94.3628818,135.395533 C91.4445821,139.637248 88.1326513,143.872176 83.456585,146.254323 C81.6920317,147.150173 79.6695821,147.828847 78.4954755,149.389798 C77.7969727,150.447921 77.3447314,151.64926 77.1720605,152.905331 C76.2729106,157.324301 75.8046934,161.820096 75.7739914,166.32951 L75.7739914,166.32951 C75.7739914,166.89281 75.7739914,167.45611 75.7739914,168.026196 C75.7879049,169.716963 76.1482307,171.386934 76.8327233,172.933012 C76.9413112,173.163761 77.0634726,173.387723 77.1924207,173.611686 L77.2738617,173.754207 C78.0947302,174.927584 78.8209408,176.164412 79.4456196,177.452983 C79.6012438,177.813822 79.712896,178.192073 79.77817,178.579582 C79.8944444,179.573803 79.8300667,180.580854 79.5881412,181.552176 L79.5881412,181.552176 C79.5881412,181.701484 79.5270605,181.850793 79.4999135,182.000101 L79.4388329,182.291931 C79.4388329,182.393732 79.4388329,182.495533 79.3845389,182.590548 C79.330245,182.882378 79.2827378,183.174207 79.2420173,183.459251 L79.2420173,183.459251 C79.1391281,184.244268 79.1898383,185.0418 79.3913256,185.807464 C79.5792965,186.67036 80.1277271,187.411482 80.8979827,187.843487 C81.2845559,188.028861 81.6960873,188.156893 82.1195965,188.223545 C82.5471614,188.298199 82.981513,188.345706 83.4022911,188.44072 C83.9433877,188.564072 84.4659195,188.758025 84.9564553,189.017594 C85.4264005,189.24249 85.8664193,189.525197 86.2662968,189.85915 C86.4641355,190.038956 86.6521729,190.229259 86.8295965,190.429236 C87.1879944,190.839667 87.5104221,191.280167 87.7933141,191.745865 C87.938098,191.985663 88.0738329,192.229986 88.2005187,192.478833 C88.6868254,193.460924 89.0755343,194.488388 89.3610519,195.546441 C89.5375072,196.177608 89.6868156,196.815562 89.8157637,197.453516 C89.8768444,197.738559 89.9311383,198.023602 89.9786455,198.301859 C90.0261527,198.580115 90.0736599,198.865159 90.1143804,199.143415 L90.1143804,199.143415 C90.2995614,199.132894 90.4823371,199.096339 90.6573199,199.034827 C91.6549712,198.67513 92.2114841,197.514597 92.5236744,196.387997 C92.5779683,196.197968 92.6254755,196.014726 92.666196,195.831484 C92.8222911,195.15281 92.9851729,194.406268 93.141268,193.69366 C95.8164571,199.374636 100.129981,204.12542 105.527075,207.335014 C105.717104,207.898314 105.900346,208.454827 106.063228,209.024914 C106.952291,212.099308 107.379856,215.316225 105.839265,218.003775 C104.739813,219.91085 102.893818,221.084957 100.830648,221.899366 C100.533185,221.502841 100.150507,221.178144 99.7108357,220.949222 C97.9259222,220.053372 95.7813112,221.139251 94.2814409,222.476239 C91.5667435,224.93304 89.3542651,228.45536 85.784438,229.262983 C84.4949568,229.561599 83.0697406,229.500519 81.9974352,230.287781 C81.2882175,230.954698 80.6942696,231.734398 80.2396686,232.595274 C78.6655925,234.855794 76.049456,236.160026 73.29683,236.056513 C72.0548559,235.995432 70.5821326,235.710389 69.7337896,236.619813 C69.1026225,237.298487 69.0551153,238.370793 68.3764409,239.015533 C67.4670173,239.911383 65.9739337,239.477032 64.7048127,239.422738 C62.288732,239.320937 60.0423199,240.881888 58.664611,242.883977 C57.286902,244.886066 56.6285879,247.281787 55.9499135,249.67072 L55.9499135,249.711441 C55.7757621,249.838287 55.6102517,249.97659 55.4544813,250.125432 C54.7964718,250.826404 54.2863739,251.652717 53.954611,252.555086 C48.4661236,265.051173 45.2266476,278.418032 44.3853026,292.04036 C44.3987146,292.704185 44.2496003,293.36122 43.950951,293.954222 C43.6473067,294.341712 43.313733,294.704785 42.9532997,295.040101 C42.3017531,295.837741 42.0011475,296.865313 42.1200752,297.888347 C42.2390029,298.911381 42.7673171,299.842592 43.5844669,300.469496 C43.7797518,300.115543 44.0242466,299.791073 44.3106484,299.505778 C44.2359942,299.817968 44.1681268,300.123372 44.1206196,300.401628 C43.8480421,302.381598 43.8229646,304.387798 44.0459654,306.373963 C44.6884438,315.803012 45.3377089,325.225274 45.9937608,334.640749 C46.1770029,337.307939 46.360245,339.968343 46.6045677,342.628746 C47.0796398,347.777622 47.7583141,352.906138 48.6405908,358.014294 C48.6813112,358.245043 48.7288184,358.482579 48.7898991,358.692968 C43.2587032,360.450735 38.3383141,363.626931 36.2683573,368.927378 C35.5489625,370.759798 35.2231988,372.755101 34.3409222,374.512867 C33.3704179,376.440303 31.7755331,377.980893 30.7168012,379.867608 C28.8911671,383.111671 28.8097262,387.088703 29.4748271,390.726398 C30.7575216,397.818545 34.5920317,404.157363 39.6549424,409.315288 C39.4309798,409.315288 39.2002305,409.315288 38.976268,409.315288 C37.3221686,409.498493 35.7343231,410.068072 34.3409222,410.97804 C23.6314409,417.235418 17.5097983,430.659597 19.7426369,442.916455 C20.1837752,445.312176 20.9506772,447.74183 22.5523487,449.567464 C23.8836737,451.018762 25.595448,452.067459 27.493098,452.594352 C28.6798598,452.951491 29.9018125,453.179043 31.1375793,453.273026 C39.4852738,453.9517 47.5682853,450.083256 55.9363401,449.757493 C58.7084277,449.71332 61.4805652,449.842521 64.2365274,450.144337 C68.267853,450.47915 72.3059654,450.691801 76.3508646,450.782291 C82.927219,450.938386 86.6259942,449.187406 90.8202017,444.273804 C91.8511009,443.051661 92.7117857,441.695569 93.378804,440.242478 C96.9486311,440.038876 100.891729,439.726686 103.742161,439.495937 L103.782882,439.889568 C103.938977,441.246916 104.176513,442.807867 105.262392,443.662997 C105.87322,444.084281 106.567655,444.368999 107.298415,444.497767 C114.153026,446.180879 121.089078,447.891138 128.147291,447.891138 C131.459584,447.824293 134.765463,447.570517 138.04915,447.131023 L150.44853,445.69902 C154.061751,446.157012 157.627377,446.933727 161.103718,448.020086 C164.687118,449.234914 168.032983,451.040187 171.534942,452.47219 C179.679035,455.770548 188.433934,456.951441 197.107392,458.105187 C198.586902,458.302003 200.283588,458.437738 201.376254,457.426513 C202.787896,456.069164 202.319611,453.802392 201.919193,451.902104 C201.756311,451.121628 201.63415,450.341153 201.539135,449.55389 C207.392009,451.096859 213.118559,453.084362 218.668876,455.499078 L219.63938,455.926643 C219.924424,457.406153 221.288559,458.587046 222.598401,460.181931 C223.02844,460.855066 223.531441,461.478695 224.098271,462.041499 C224.746055,462.462031 225.482422,462.726845 226.249669,462.815187 C235.405875,464.521123 244.755039,464.943697 254.02781,464.070735 C255.925631,463.812207 257.844731,463.746266 259.755821,463.873919 C261.159798,464.065137 262.544826,464.3762 263.895735,464.803703 L271.747997,467.056902 C277.537089,468.712867 283.461916,470.389193 289.468184,470.015922 C290.686063,469.93938 291.895772,469.764619 293.085519,469.493343 C297.836239,468.39389 302.261196,465.740274 304.541542,461.471412 C307.765245,455.668746 306.278948,448.529092 304.541542,442.149553 Z" id="Path" fill="url(#linearGradient-1)" fill-rule="nonzero"></path>
                <path d="M84.8478674,440.826138 C83.4158646,437.568501 82.0585159,433.822219 83.4905187,430.564582 C84.4252516,428.646098 86.0309926,427.136943 88.0037032,426.322867 C89.9558076,425.52685 92.0134141,425.019307 94.1117723,424.81621 C100.697926,423.952359 107.362477,423.861251 113.969784,424.544741 C114.451643,428.35889 113.433631,432.227334 112.558141,435.912536 C111.764092,439.305908 111.30938,439.808127 107.807421,439.984582 C105.540648,440.106744 85.3840202,442.027392 84.8478674,440.826138 Z" id="Path" fill="#FBBEBE" fill-rule="nonzero"></path>
                <ellipse id="Oval" fill="#464353" fill-rule="nonzero" cx="145.283818" cy="391.703689" rx="97.0504323" ry="27.1469741"></ellipse>
                <ellipse id="Oval" fill="#000000" fill-rule="nonzero" opacity="0.1" cx="145.283818" cy="391.703689" rx="97.0504323" ry="27.1469741"></ellipse>
                <path d="M162.685029,248.394813 C159.358372,254.822972 153.833294,259.842268 147.116239,262.538386 C143.150532,263.983409 138.976914,264.77642 134.757579,264.886599 C130.14938,265.096988 125.446167,264.798372 121.116225,263.223847 C115.306772,261.119957 110.481398,256.817161 106.864063,251.801758 C103.246729,246.786354 100.755994,241.058343 98.5910231,235.282824 C97.4508501,232.276297 96.3649712,229.072954 96.9011239,225.896758 C100.396297,225.102709 104.22402,223.935389 106.029294,220.833847 C107.569885,218.173444 107.14232,214.983674 106.253256,211.943213 C106.002147,211.081297 105.710317,210.226167 105.418487,209.404971 C104.739813,207.436816 102.398386,203.69732 104.061138,202.014207 C105.09951,200.948689 109.449813,200.405749 110.949683,199.713501 C115.571455,197.582464 119.83353,194.501282 124.910014,193.490058 C129.301037,192.614568 133.834582,193.435764 138.218818,194.345187 C138.800366,194.429763 139.35893,194.63057 139.86121,194.935634 C140.433904,195.418272 140.857579,196.053784 141.082824,196.768055 C142.331585,199.808516 143.064553,203.167954 144.068991,206.337363 C145.11415,209.656081 146.457925,212.771196 148.975807,215.126196 C150.937176,216.965403 153.434697,218.11915 155.877925,219.238963 L161.89098,221.99438 C162.960574,222.394869 163.930707,223.02233 164.734625,223.833588 C165.520962,224.914423 165.99095,226.192789 166.091974,227.525576 C167.169376,234.667118 165.977706,241.966695 162.685029,248.394813 L162.685029,248.394813 Z" id="Path" fill="#FBBEBE" fill-rule="nonzero"></path>
                <path d="M144.041844,206.337363 C134.193493,216.590845 118.661279,218.895428 106.260043,211.943213 C106.008934,211.081297 105.717104,210.226167 105.425274,209.404971 C104.746599,207.436816 102.405173,203.69732 104.067925,202.014207 C105.106297,200.948689 109.456599,200.405749 110.95647,199.713501 C115.578242,197.582464 119.840317,194.501282 124.916801,193.490058 C129.307824,192.614568 133.841369,193.435764 138.225605,194.345187 C138.807152,194.429763 139.365716,194.63057 139.867997,194.935634 C140.440691,195.418272 140.864366,196.053784 141.089611,196.768055 C142.304438,199.808516 143.037406,203.167954 144.041844,206.337363 Z" id="Path" fill="#000000" fill-rule="nonzero" opacity="0.1"></path>
                <circle id="Oval" fill="#FFFFFF" fill-rule="nonzero" cx="206.224755" cy="197.260381" r="46.5"></circle>
                <circle id="Oval" fill="#FBBEBE" fill-rule="nonzero" cx="121.530216" cy="183.350663" r="31.2190202"></circle>
                <path d="M216.646427,284.669957 L214.081037,269.128314 C212.784769,261.330346 211.447781,253.383069 207.82366,246.35879 C205.441513,241.757378 201.661297,237.373141 196.564452,236.463718 C195.560468,236.374234 194.573762,236.14583 193.632579,235.785043 C192.139496,235.065648 191.325086,233.450403 190.178127,232.255937 C187.219107,229.188329 182.400519,229.140821 178.437061,227.57987 C174.935101,226.222522 172.071095,223.609625 168.881326,221.614323 C165.691556,219.61902 161.721311,218.220951 158.192205,219.496859 C157.622118,225.570994 157.018098,231.780865 154.439135,237.312061 C151.039519,244.604869 144.527846,249.972022 136.720116,251.916708 C128.912386,253.861394 120.644007,252.175536 114.220893,247.329294 C108.173905,242.775389 104.298674,235.75111 102.493401,228.401066 C102.052262,226.609366 101.550043,224.552983 99.9008646,223.731787 C98.115951,222.835937 95.9713401,223.921816 94.4714697,225.238444 C91.7567723,227.674885 89.5375072,231.163271 85.9676801,231.984467 C84.6781988,232.283084 83.2529827,232.222003 82.1806772,233.002478 C81.4680162,233.660161 80.8714553,234.433395 80.4161239,235.289611 C78.8291576,237.532018 76.2186346,238.823244 73.4732853,238.723703 C72.2313112,238.662622 70.7585879,238.377579 69.910245,239.280216 C69.2790778,239.95889 69.2315706,241.017622 68.5528963,241.64879 C67.6366859,242.537853 66.150389,242.103501 64.8744813,242.055994 C62.4584006,241.954193 60.2119885,243.501571 58.8274928,245.449366 C57.4429971,247.397161 56.7914697,249.806455 56.1127954,252.141095 C63.5307061,268.660029 70.3174496,285.199323 77.7353602,301.718256 C78.0828974,302.340865 78.267333,303.041254 78.271513,303.75428 C78.1227498,304.494335 77.8070709,305.190686 77.3485159,305.790303 C73.7108213,311.633689 73.826196,318.983732 74.2266138,325.851916 C74.6270317,332.720101 75.1156772,339.97513 72.0480692,346.130706 C71.2132997,347.820605 70.1274207,349.367983 69.3333718,351.057882 C67.473804,354.885605 66.8019164,367.12889 67.8877954,371.241657 L221.322493,371.241657 C218.397406,363.199366 219.510432,347.06049 220.121239,338.522767 C220.548804,332.550432 219.442565,326.584885 218.967493,320.61255 C217.929121,308.416772 218.662089,296.845375 216.646427,284.669957 Z" id="Path" fill="#9090FF" fill-rule="nonzero"></path>
                <path d="M44.3581556,302.451225 C44.0866362,304.415241 44.0592812,306.405315 44.2767147,308.376052 L46.2245101,336.384942 C46.4077522,339.024986 46.5909942,341.658242 46.835317,344.291499 C47.3036023,349.401916 48.0026369,354.471614 48.8713401,359.534524 C48.9120357,361.031339 50.1570187,362.212555 51.6539049,362.174568 C60.2391354,363.993415 69.1094092,363.918761 77.8710951,363.423329 C91.2409798,362.676787 104.590504,360.973314 117.980749,361.265144 C121.428415,361.339798 125.446167,361.265144 127.536484,358.550447 C129.626801,355.835749 128.411974,351.444726 125.683703,349.252608 C122.955432,347.06049 119.24987,346.537911 115.747911,346.537911 C111.112565,346.490403 106.477219,347.148718 101.855447,346.877248 C97.613732,346.626138 93.4670317,345.60134 89.3542651,344.576542 L77.8168012,341.705749 C78.2579395,338.210576 79.5881412,334.919006 80.8504755,331.600288 C83.1172478,325.716182 85.2347118,319.635259 85.2754323,313.330375 C85.3161527,307.02549 82.9407925,300.394841 77.7760807,296.784294 C73.5275793,293.818487 68.057464,293.268761 62.8791787,293.390922 C59.112536,293.49951 52.604049,292.596873 49.16317,294.069597 C46.4416859,295.264063 44.8671614,299.784035 44.3581556,302.451225 Z" id="Path" fill="#FBBEBE" fill-rule="nonzero"></path>
                <path d="M224.498689,366.490937 C226.758674,365.62902 229.249409,365.94121 231.672277,366.266974 C239.470245,367.332493 247.383588,368.425159 254.61147,371.540274 C258.004841,372.992637 261.235331,374.933646 263.529251,377.790865 C265.565274,380.36304 266.752954,383.512089 267.879553,386.613631 L270.485663,393.753285 C271.476527,396.467983 272.480965,399.236974 272.759222,402.12134 C273.573631,410.66585 267.730245,418.721715 260.380202,423.160245 C253.030159,427.598775 244.377061,429.180086 235.947925,430.836052 C227.51879,432.492017 219.05572,434.324438 210.660519,436.265447 C206.744843,437.281614 202.772077,438.063476 198.763357,438.606873 C189.777709,439.624885 180.384856,438.125014 171.847133,441.097608 C168.453761,442.285288 165.12147,444.049841 161.59915,444.871037 C159.259468,445.363321 156.893944,445.723588 154.51379,445.95013 L138.354553,447.796124 C135.068592,448.235614 131.760455,448.489389 128.445908,448.556239 C121.387695,448.556239 114.444856,446.8867 107.590245,445.217161 C106.861475,445.089299 106.167769,444.809504 105.554222,444.395965 C104.468343,443.540836 104.230807,442.027392 104.074712,440.65647 C103.382464,434.589121 102.776182,428.514986 102.255865,422.434063 C102.092983,420.459121 101.970821,418.321297 103.049914,416.658545 C104.407262,414.622522 107.054092,413.984568 109.470173,413.590937 C119.715158,411.914943 130.093735,411.194713 140.472017,411.439539 C144.415115,407.496441 150.916816,407.476081 156.081527,405.33147 C157.981526,404.458924 159.820397,403.458995 161.585576,402.338516 C170.824226,396.948436 181.148545,393.686295 191.806945,392.789568 C193.894212,392.725867 195.967896,392.429951 197.989669,391.907291 C201.987061,390.665317 205.631542,387.285519 209.737522,388.113501 C210.246527,386.708646 210.599438,384.828718 211.773545,383.865 C212.357205,383.369568 213.076599,383.037017 213.612752,382.507651 C214.746138,381.360692 214.847939,379.555418 214.678271,377.953746 C214.508602,376.352075 214.128545,374.709683 214.542536,373.148732 C214.71478,372.557758 214.968315,371.993587 215.295865,371.472406 C217.331888,367.956873 220.406282,366.151599 224.498689,366.490937 Z" id="Path" fill="#464353" fill-rule="nonzero"></path>
                <path d="M224.498689,366.490937 C226.758674,365.62902 229.249409,365.94121 231.672277,366.266974 C239.470245,367.332493 247.383588,368.425159 254.61147,371.540274 C258.004841,372.992637 261.235331,374.933646 263.529251,377.790865 C265.565274,380.36304 266.752954,383.512089 267.879553,386.613631 L270.485663,393.753285 C271.476527,396.467983 272.480965,399.236974 272.759222,402.12134 C273.573631,410.66585 267.730245,418.721715 260.380202,423.160245 C253.030159,427.598775 244.377061,429.180086 235.947925,430.836052 C227.51879,432.492017 219.05572,434.324438 210.660519,436.265447 C206.744843,437.281614 202.772077,438.063476 198.763357,438.606873 C189.777709,439.624885 180.384856,438.125014 171.847133,441.097608 C168.453761,442.285288 165.12147,444.049841 161.59915,444.871037 C159.259468,445.363321 156.893944,445.723588 154.51379,445.95013 L138.354553,447.796124 C135.068592,448.235614 131.760455,448.489389 128.445908,448.556239 C121.387695,448.556239 114.444856,446.8867 107.590245,445.217161 C106.861475,445.089299 106.167769,444.809504 105.554222,444.395965 C104.468343,443.540836 104.230807,442.027392 104.074712,440.65647 C103.382464,434.589121 102.776182,428.514986 102.255865,422.434063 C102.092983,420.459121 101.970821,418.321297 103.049914,416.658545 C104.407262,414.622522 107.054092,413.984568 109.470173,413.590937 C119.715158,411.914943 130.093735,411.194713 140.472017,411.439539 C144.415115,407.496441 150.916816,407.476081 156.081527,405.33147 C157.981526,404.458924 159.820397,403.458995 161.585576,402.338516 C170.824226,396.948436 181.148545,393.686295 191.806945,392.789568 C193.894212,392.725867 195.967896,392.429951 197.989669,391.907291 C201.987061,390.665317 205.631542,387.285519 209.737522,388.113501 C210.246527,386.708646 210.599438,384.828718 211.773545,383.865 C212.357205,383.369568 213.076599,383.037017 213.612752,382.507651 C214.746138,381.360692 214.847939,379.555418 214.678271,377.953746 C214.508602,376.352075 214.128545,374.709683 214.542536,373.148732 C214.71478,372.557758 214.968315,371.993587 215.295865,371.472406 C217.331888,367.956873 220.406282,366.151599 224.498689,366.490937 Z" id="Path" fill="#000000" fill-rule="nonzero" opacity="0.05"></path>
                <path d="M91.0916715,445.020346 C86.8906772,449.886441 83.191902,451.623847 76.6155476,451.467752 C72.5706484,451.372738 68.5302738,451.162349 64.4944236,450.836585 C61.735917,450.538292 58.9617398,450.409102 56.1874496,450.449741 C47.8126081,450.775504 39.7295965,454.610014 31.3751153,453.938127 C30.1397754,453.840896 28.9181668,453.613408 27.730634,453.259452 C25.8353502,452.737313 24.1224482,451.698764 22.783098,450.259712 C21.1814265,448.447651 20.4145245,446.045144 19.9733862,443.669784 C17.7405476,431.494366 23.8621902,418.233069 34.5784582,412.036772 C35.9766564,411.133782 37.566082,410.569117 39.2205908,410.387501 C40.8429808,410.380949 42.4467589,410.733224 43.9170173,411.419179 L44.0188184,411.459899 C48.3725895,413.251321 52.3267367,415.890495 55.6512968,419.223934 C56.1556907,419.801591 56.7575233,420.286273 57.4294236,420.655937 C58.0999485,420.909173 58.8098119,421.042416 59.5265274,421.049568 L68.4443084,421.612867 C69.9551815,421.657957 71.4568576,421.865006 72.9235591,422.230461 C74.5404853,422.794969 76.1145723,423.47541 77.6335591,424.266484 C82.4317867,426.411095 87.7525937,426.981182 92.9376657,427.809164 C93.437329,427.836776 93.9141465,428.027503 94.2950144,428.352104 C94.5019504,428.609488 94.6460237,428.911578 94.7157925,429.23438 C96.1953255,434.771865 94.8383278,440.682683 91.0916715,445.020346 Z" id="Path" fill="#3F3D56" fill-rule="nonzero"></path>
                <path d="M44.0188184,411.466686 C40.5589182,414.770464 37.5573501,418.522995 35.0942507,422.624092 C31.1416679,429.392333 28.6581644,436.91684 27.8052882,444.708156 C27.4818591,447.550431 27.4568381,450.418754 27.730634,453.266239 C25.8353502,452.7441 24.1224482,451.705551 22.783098,450.266499 C21.1814265,448.454438 20.4145245,446.051931 19.9733862,443.676571 C17.7405476,431.501153 23.8621902,418.239856 34.5784582,412.043559 C35.9766564,411.140568 37.566082,410.575904 39.2205908,410.394288 C40.8429808,410.387736 42.4467589,410.740011 43.9170173,411.425965 L44.0188184,411.466686 Z" id="Path" fill="#000000" fill-rule="nonzero" opacity="0.1"></path>
                <path d="M216.734654,428.352104 C221.722911,428.216369 227.321974,427.965259 230.986816,431.324697 C234.481988,434.500893 234.943487,439.740259 235.174236,444.457046 L235.438919,449.933948 C235.52036,451.603487 235.588228,453.32732 234.91634,454.874697 C233.721873,457.589395 230.443876,458.899236 227.450922,458.743141 C224.457968,458.587046 221.709337,457.277205 218.97428,456.096311 C211.548945,452.897431 203.817521,450.462033 195.899352,448.827709 C196.157248,445.040706 196.587075,441.271801 197.188833,437.520994 C197.602824,434.921671 197.670692,430.571369 199.408098,428.413184 C201.247305,426.132839 203.643026,427.368026 206.140548,427.788804 C209.644895,428.323574 213.193357,428.512249 216.734654,428.352104 L216.734654,428.352104 Z" id="Path" fill="#FBBEBE" fill-rule="nonzero"></path>
                <path d="M84.9089481,373.318401 C84.9089481,373.997075 83.8434294,373.318401 83.748415,372.592219 C83.0018732,367.101744 78.6447839,362.574986 73.5682997,360.376081 C68.4918156,358.177176 62.7095101,358.061801 57.2122478,358.58438 C48.898487,359.371643 39.5667147,362.554625 36.5262536,370.325447 C35.8068588,372.144294 35.4810951,374.11245 34.5988184,375.856643 C33.6215274,377.770504 32.0266427,379.297522 30.9679107,381.157089 C29.1422767,384.374006 29.0676225,388.317104 29.7259366,391.954798 C31.4972767,401.659841 38.1347118,409.960029 46.1770029,415.708401 C54.2192939,421.456772 63.6189337,424.890865 72.9914265,427.98562 C97.7743224,436.159214 123.201264,442.232167 149.002954,446.140159 C153.183588,446.771326 157.404942,447.354986 161.409121,448.698761 C164.992522,449.900014 168.345173,451.698501 171.847133,453.110144 C179.991225,456.381354 188.752911,457.548674 197.433156,458.695634 C198.912666,458.885663 200.609352,459.021398 201.702017,458.01696 C203.11366,456.707118 202.645375,454.426772 202.244957,452.546844 C200.771643,445.398891 202.00768,437.958478 205.712983,431.670821 C207.165346,429.227594 209.052061,426.723285 208.780591,423.893213 C208.454827,420.594856 205.170043,418.260216 201.898833,417.73085 C198.627622,417.201484 195.302118,417.98196 192.017334,418.409524 C190.883948,418.558833 189.648761,418.653847 188.657896,418.076974 C188.169698,417.747329 187.727019,417.35485 187.341268,416.909654 C182.698961,412.431283 175.700286,411.453003 170.007925,414.486787 C168.793098,415.165461 166.95389,413.652017 165.691556,413.081931 L151.419035,406.620951 C135.022262,399.20304 118.544049,391.751196 101.197133,387.054769 C99.8130642,386.782704 98.4976339,386.235762 97.3286888,385.446311 C96.4667723,384.767637 95.8491787,383.84464 95.0551297,383.091311 C93.3245101,381.455706 90.9152161,380.804179 88.8384726,379.643646 C86.7617291,378.483112 84.4338761,375.646254 84.9089481,373.318401 Z" id="Path" fill="#464353" fill-rule="nonzero"></path>
                <path d="M304.94196,462.014352 C302.661614,466.242493 298.236657,468.875749 293.485937,469.961628 C292.293724,470.230691 291.081756,470.40318 289.861816,470.477421 C283.855548,470.850692 277.923934,469.187939 272.134841,467.545548 L264.275793,465.333069 C262.924705,464.907769 261.539672,464.598975 260.135879,464.410072 C258.224789,464.282419 256.305688,464.34836 254.407867,464.606888 C245.11933,465.47102 235.756012,465.050813 226.582219,463.358127 C225.814746,463.275279 225.077647,463.012527 224.430821,462.591225 C223.864145,462.03573 223.361089,461.418859 222.930951,460.752017 C220.793127,458.179841 218.492421,456.679971 221.023876,453.286599 C222.483026,451.318444 225.190937,450.334366 226.324323,448.07438 C227.457709,445.814395 226.731527,442.604265 226.05964,440.269625 C225.143429,437.045922 222.130115,435.65464 221.051023,432.69562 C220.243401,430.462781 221.600749,427.870245 223.643559,426.655418 C225.686369,425.440591 228.211037,425.345576 230.566037,425.657767 C232.921037,425.969957 235.22853,426.635058 237.597104,426.8183 C244.560303,427.374813 251.679597,423.784625 258.364539,425.807075 C259.837262,426.255 261.228545,426.967608 262.721628,427.361239 C265.632446,428.012337 268.673277,427.749256 271.42902,426.607911 C272.406311,426.241427 273.363242,425.800288 274.313386,425.365937 C276.145762,424.412011 278.097191,423.706758 280.116052,423.268833 C286.638112,422.14902 292.685101,426.662205 297.60549,431.066801 C299.294532,432.468609 300.789436,434.089039 302.050807,435.885389 C303.408156,438.002853 304.12755,440.466441 304.765504,442.896095 C306.563991,449.173833 308.050288,456.24562 304.94196,462.014352 Z" id="Path" fill="#3F3D56" fill-rule="nonzero"></path>
                <path d="M304.94196,462.014352 C302.661614,466.242493 298.236657,468.875749 293.485937,469.961628 C295.333929,466.371211 296.166958,462.344514 295.895231,458.315576 C295.488026,451.861383 292.651167,445.780461 289.033833,440.418934 C286.808449,437.118485 284.277124,434.034996 281.473401,431.209323 C279.315216,429.037565 276.661599,427.313732 274.340533,425.325216 C276.172909,424.371291 278.124338,423.666038 280.143199,423.228112 C286.665259,422.1083 292.712248,426.621484 297.632637,431.026081 C299.321679,432.427889 300.816583,434.048319 302.077954,435.844669 C303.435303,437.962133 304.154697,440.42572 304.792651,442.855375 C306.563991,449.173833 308.050288,456.24562 304.94196,462.014352 Z" id="Path" fill="#000000" fill-rule="nonzero" opacity="0.1"></path>
                <path d="M55.725951,252.643314 C55.0648376,253.335381 54.5521291,254.155252 54.2192939,255.052608 C48.7333201,267.416231 45.4929637,280.658029 44.6499856,294.157824 C44.6647448,294.81607 44.5130059,295.46738 44.2088473,296.051326 C43.9089117,296.43986 43.5750487,296.800977 43.211196,297.130418 C42.5433611,297.922003 42.2330177,298.954737 42.3538773,299.98333 C42.474737,301.011923 43.0160153,301.944592 43.8491499,302.559813 C44.9689625,300.449135 47.6497262,299.763674 50.0318732,299.580432 C61.440389,298.677795 72.5842219,303.985029 84.0266715,303.584611 C83.219049,300.795259 82.0585159,298.114496 81.4002017,295.29121 C78.4886888,282.756095 85.7505043,269.107954 81.2984006,257.034337 C80.4093372,254.618256 78.9230403,252.242896 76.5816138,251.184164 C75.6121627,250.792579 74.5976172,250.523553 73.561513,250.383329 C70.6703602,249.860749 64.9152017,247.627911 62.1190634,248.523761 C61.0874784,248.856311 60.6802738,249.826816 59.8251441,250.410476 C58.5288761,251.245245 56.8050432,251.550648 55.725951,252.643314 Z" id="Path" fill="#9090FF" fill-rule="nonzero"></path>
                <rect id="Rectangle" fill="#3F3D56" fill-rule="nonzero" x="79.7917435" y="277.347061" width="151.34438" height="96.3717579" rx="7.97"></rect>
                <circle id="Oval" fill="#FFFFFF" fill-rule="nonzero" cx="155.124597" cy="325.532939" r="4.07204611"></circle>
                <path d="M99.9619452,132.680836 C97.6815994,134.330014 96.1206484,136.698588 94.5325504,138.972147 C91.607464,143.173141 88.2955331,147.367349 83.6194669,149.708775 C81.8481268,150.597839 79.8256772,151.269726 78.6515706,152.817104 C77.9546843,153.863584 77.5023608,155.053543 77.3281556,156.298703 C76.4323843,160.67696 75.9641611,165.131898 75.9300865,169.60072 C75.9300865,171.826772 76.0251009,174.120692 77.0091787,176.143141 C77.9389625,178.043429 79.6152882,179.651888 79.9614121,181.721844 C80.2260951,183.337089 79.6288617,184.945548 79.4184726,186.567579 C79.2080836,188.189611 79.5745677,190.110259 81.074438,190.883948 C81.8825906,191.187947 82.7265901,191.386401 83.5855331,191.474395 C88.0987176,192.478833 89.6121614,197.772493 90.2976225,202.149942 C91.8314265,202.061715 92.5236744,200.303948 92.8426513,198.871945 L97.5458646,177.961988 C98.0548703,175.695216 98.9032133,173.068746 101.163199,172.274697 C102.676643,171.752118 104.332608,172.240764 105.913919,172.376499 C112.12379,172.885504 117.376729,168.087277 123.450865,166.763862 C125.395158,166.371469 127.382963,166.239101 129.362118,166.370231 C134.153559,166.607767 139.725476,168.575922 140.743487,173.048386 C140.913156,173.774568 141.014957,174.643271 141.693631,175.002968 C142.372305,175.362666 143.084914,175.057262 143.797522,175.002968 C146.837983,174.697565 148.629683,178.118084 149.505173,180.914222 L152.694942,191.094337 C153.170014,192.634928 153.97085,194.446988 155.640389,194.643804 C157.18098,194.833833 158.490821,193.374683 158.721571,191.929107 C158.95232,190.48353 158.450101,188.98366 158.11755,187.531297 C156.61768,180.846354 158.911599,174.005317 160.309669,167.306801 C161.707738,160.608285 161.958847,152.912118 157.269207,147.754193 C155.565735,145.887839 153.32611,144.496556 151.738012,142.528401 C150.258501,140.682406 149.423732,138.415634 147.889928,136.603573 C143.648213,131.601744 132.769063,127.740086 126.097695,127.102133 C118.476182,126.27415 106.124308,128.208372 99.9619452,132.680836 Z" id="Path" fill="#3F3D56" fill-rule="nonzero"></path>
                <g id="Group" opacity="0.1" transform="translate(75.332853, 156.773775)" fill="#000000" fill-rule="nonzero">
                    <path d="M80.334683,33.1193084 C78.6651441,32.9157061 77.8643084,31.0832853 77.3892363,29.5698415 C76.3259798,26.1719452 75.2627233,22.7785735 74.1994669,19.3897262 C73.3239769,16.5868012 71.5322767,13.1662824 68.4918156,13.4784726 C67.7792075,13.5531268 67.0123055,13.8313833 66.3879251,13.4784726 C65.7635447,13.125562 65.6074496,12.250072 65.437781,11.5238905 C64.4197695,7.04463977 58.847853,5.08327089 54.0564121,4.84573487 C52.0775556,4.71578356 50.0902017,4.84584002 48.1451585,5.23257925 C42.0710231,6.58992795 36.8180836,11.3406484 30.6082133,10.8452161 C29.0065418,10.716268 27.3505764,10.2276225 25.8574928,10.7502017 C23.5703602,11.537464 22.7491643,14.1435735 22.2401585,16.4374928 L17.5369452,37.3406628 C17.2179683,38.7794524 16.5257205,40.537219 14.9919164,40.6186599 C14.3132421,36.2479971 12.7930115,30.9543372 8.27982709,29.9498991 C7.42199492,29.8553726 6.57880135,29.6571082 5.76873199,29.3594524 C5.17828514,29.0369379 4.71604396,28.522006 4.45889049,27.9003026 C4.33672911,28.5314697 4.19420749,29.1626369 4.11276657,29.793804 C3.90916427,31.409049 4.26886167,33.3364841 5.76873199,34.1101729 C6.57688452,34.4141721 7.42088406,34.612626 8.27982709,34.7006196 C12.7930115,35.7050576 14.3064553,40.9987176 14.9919164,45.3761671 C16.5257205,45.2879395 17.2179683,43.5301729 17.5369452,42.09817 L22.2401585,21.1882133 C22.7491643,18.9214409 23.5975072,16.2949712 25.8574928,15.5009222 C27.3709366,14.9783429 29.026902,15.4669885 30.6082133,15.6027233 C36.8180836,16.1117291 42.0710231,11.3135014 48.1451585,9.99008646 C50.0894522,9.59769382 52.077257,9.46532565 54.0564121,9.59645533 C58.847853,9.83399135 64.4197695,11.802147 65.437781,16.274611 C65.6074496,17.0007925 65.7092507,17.8694957 66.3879251,18.2291931 C67.0665994,18.5888905 67.7792075,18.283487 68.4918156,18.2291931 C71.5322767,17.9237896 73.3239769,21.3443084 74.1994669,24.1404467 C75.2581988,27.5383429 76.3214553,30.9317147 77.3892363,34.320562 C77.8643084,35.8611527 78.6651441,37.6732133 80.334683,37.8700288 C81.8752738,38.0600576 83.1851153,36.6009078 83.4158646,35.1553314 C83.5201514,33.9389643 83.3817372,32.7139983 83.0086599,31.5515706 C82.513661,32.5642899 81.4601607,33.1819512 80.334683,33.1193084 Z" id="Path"></path>
                    <path d="M4.63534582,20.1973487 C4.2892219,18.1273919 2.59932277,16.5189337 1.68311239,14.6186455 C1.09405643,13.3369405 0.753230634,11.9552143 0.678674352,10.5465994 C0.678674352,11.3067147 0.610806916,12.06683 0.604020173,12.833732 C0.604020173,15.0597839 0.699034582,17.3537032 1.68311239,19.3761527 C2.43644092,20.9167435 3.67841499,22.2740922 4.30279539,23.84183 C4.63200146,22.656903 4.74465708,21.4222894 4.63534582,20.1973487 Z" id="Path"></path>
                    <path d="M85.0039625,5.7551585 C83.7687752,11.6731988 81.8413401,17.6998271 82.4385735,23.6314409 C82.8254179,19.2539914 84.1013256,14.8493948 85.0039625,10.505879 C85.7568705,7.20747207 86.0221119,3.8164975 85.7912248,0.441138329 C85.6438627,2.22762381 85.380891,4.00268286 85.0039625,5.7551585 L85.0039625,5.7551585 Z" id="Path"></path>
                </g>
                <g id="Group" opacity="0.1" transform="translate(0.000000, 196.815562)" fill="#9090FF" fill-rule="nonzero">
                    <path d="M58.6035303,6.35239193 C58.6035303,6.35239193 7.85904899,-14.9851297 1.20804035,23.5160663 C1.20804035,23.5160663 -2.25998559,29.5155476 2.56538905,34.4698703 C2.56538905,34.4698703 3.60376081,31.8094669 8.50378963,34.558098 C10.2539385,35.5260387 12.1129863,36.282416 14.0417723,36.8112968 C16.6465928,37.5298256 19.4143954,37.382146 21.9279683,36.3905187 L21.9279683,36.3905187 C21.9279683,36.3905187 38.6165706,35.4878818 52.6515562,13.654928 C52.6515562,13.654928 58.6713977,9.93579251 58.9700144,8.53772334 L48.9120605,9.21639769 C48.9120605,9.21639769 49.6857493,16.5800144 45.5186888,20.9981844 C45.5186888,20.9981844 49.2106772,9.56930836 47.4393372,9.25033141 C47.0796398,9.18246398 42.125317,9.83399135 42.125317,9.83399135 C42.125317,9.83399135 43.4080115,22.6405764 36.6959222,29.264438 C36.6959222,29.264438 42.9261527,16.2406772 40.2182421,10.0647406 L32.7935447,11.4967435 C32.7935447,11.4967435 34.8295677,24.9684294 27.4863112,32.8003314 C27.4863112,32.8003314 33.526513,18.9553746 31.1918732,11.9243084 L24.0861527,14.3132421 C24.0861527,14.3132421 25.7964121,27.4863112 19.6544092,33.9947983 C19.6544092,33.9947983 25.0159366,17.2926225 22.491268,14.9919164 C22.491268,14.9919164 16.0981556,17.5844524 14.7340202,19.0639625 C14.7340202,19.0639625 15.745245,28.5654035 11.8428674,31.9927089 C11.8428674,31.9927089 14.2385879,20.455245 13.0509078,19.9801729 C13.0509078,19.9801729 5.62621037,25.5724496 3.35943804,30.3978242 C3.35943804,30.3978242 6.18272334,23.0274207 12.1211239,18.8603602 C12.1211239,18.8603602 7.13286744,18.018804 3.29835735,20.1023343 C3.29835735,20.1023343 5.8637464,15.2090922 13.919611,17.5301585 C13.919611,17.5301585 19.8851585,13.3970317 21.0796254,13.4581124 C21.0796254,13.4581124 13.4581124,10.0647406 7.9540634,10.4855187 C7.9540634,10.4855187 13.8585303,7.09214697 22.9391931,12.7590778 L30.0313401,10.2004755 C30.0313401,10.2004755 20.190562,5.15792507 15.2633862,5.1782853 C15.2633862,5.1782853 21.8193804,2.64004323 31.8705476,9.69825648 L39.1323631,8.2187464 C39.1323631,8.2187464 30.9882709,3.23048991 25.4977954,2.06995677 C25.4977954,2.06995677 32.0809366,1.02479827 41.2294669,7.87262248 L46.1905764,7.45863112 C46.1905764,7.45863112 40.1843084,3.91595101 38.3654611,3.05403458 C36.5466138,2.19211816 36.6280548,1.63560519 36.6280548,1.63560519 C40.9442929,2.3748904 44.9709782,4.29661069 48.2605331,7.18716138 C48.2605331,7.18716138 58.5628098,6.98355908 58.6035303,6.35239193 Z" id="Path"></path>
                </g>
                <g id="Group" opacity="0.1" transform="translate(6.786744, 137.092219)" fill="#9090FF" fill-rule="nonzero">
                    <path d="M49.9436455,27.8256484 C49.9436455,27.8256484 31.9723487,-13.7567291 6.08092219,5.31402017 C6.08092219,5.31402017 0.610806916,6.90211816 0.651301153,12.5758357 C0.651301153,12.5758357 2.78256484,11.5849712 4.1331268,16.0167147 C4.62834672,17.5887196 5.3119911,19.095016 6.16914986,20.5027522 C7.30202454,22.4160734 9.03018239,23.9058646 11.0895389,24.7444669 L11.0895389,24.7444669 C11.0895389,24.7444669 21.5207637,33.7165418 42.3085591,28.7418588 C42.3085591,28.7418588 48.0094236,29.9566859 48.979928,29.3051585 L42.627536,23.9639914 C42.627536,23.9639914 38.8880403,28.7825793 33.8794236,29.0133285 C33.8794236,29.0133285 42.5868156,24.3304755 41.7181124,23.1292219 C41.5416571,22.8848991 38.2229395,20.455245 38.2229395,20.455245 C38.2229395,20.455245 31.6940922,28.789366 23.9707781,28.9183141 C23.9707781,28.9183141 35.0942507,24.7241066 37.0013256,19.5186744 L31.7755331,16.1253026 C31.7755331,16.1253026 25.1856052,25.2941931 16.3628386,25.7692651 C16.3628386,25.7692651 27.8392219,20.984611 30.4589049,15.4737752 L24.873415,12.8473055 C24.873415,12.8473055 18.3852882,21.670072 11.0488184,22.0026225 C11.0488184,22.0026225 23.7536023,15.134438 23.5567867,12.331513 C23.5567867,12.331513 18.283487,10.2276225 16.6071614,10.3497839 C16.6071614,10.3497839 11.8089337,16.5596542 7.52649856,16.3831988 C7.52649856,16.3831988 15.5280692,10.8927233 15.0937176,9.93579251 C15.0937176,9.93579251 7.49256484,9.02636888 3.4001585,10.6144669 C3.4001585,10.6144669 9.27747839,7.8454755 15.1751585,8.75489914 C15.1751585,8.75489914 12.6912104,5.40903458 9.23675793,4.47925072 C9.23675793,4.47925072 13.5531268,3.03367435 17.014366,8.99243516 C17.014366,8.99243516 22.9052594,9.94257925 23.5975072,10.6484006 C23.5975072,10.6484006 21.0117579,4.27564841 17.489438,1.40485591 C17.489438,1.40485591 22.9188329,2.76220461 25.0905908,11.2931412 L30.7643084,13.8110231 C30.7643084,13.8110231 27.7917147,5.20543228 24.846268,2.41608069 C24.846268,2.41608069 30.1874352,4.64213256 32.1420173,14.5643516 L37.2999424,17.8152017 C37.2999424,17.8152017 35.3046398,10.214049 32.705317,6.39311239 C32.705317,6.39311239 37.2117147,9.5285879 38.738732,18.8060663 L41.9285014,21.3850288 C41.9285014,21.3850288 40.3743372,15.8606196 39.7838905,14.3132421 C39.1934438,12.7658646 39.559928,12.4808213 39.559928,12.4808213 C41.7037886,15.3909329 42.9940462,18.8410204 43.2858501,22.4437608 C43.2858501,22.4437608 49.5568012,28.1717723 49.9436455,27.8256484 Z" id="Path"></path>
                </g>
                <g id="Heartbrain-2" opacity="0.541780018" transform="translate(176.806886, 172.149942)">
                    <g id="Innards" transform="translate(1.130226, 2.503856)" stroke-linecap="round" stroke-width="2">
                        <path d="M5.18773512,0.926094569 C5.18773512,0.926094569 11.1330095,0.445719794 11.9454595,3.05826207" id="Path-56" stroke="url(#linearGradient-2)"></path>
                        <g id="Group-3" transform="translate(23.650564, 0.131395)">
                            <line x1="10.9977823" y1="0.0752471519" x2="12.9729651" y2="3.11337196" id="Path-31" stroke="url(#linearGradient-3)"></line>
                            <path d="M9.61591983,5.93643798 C9.61591983,5.93643798 10.4614957,10.2175681 14.6335624,11.3834758 C18.8056292,12.5493835 21.1730829,9.31665093 21.1730829,9.31665093" id="Path-34" stroke="url(#linearGradient-4)"></path>
                            <path d="M-1.42518421e-13,13.430847 C-1.42518421e-13,13.430847 11.5397883,8.09238184 12.0181228,19.1102777 C16.4315951,17.5145478 21.2691714,18.6586363 22.3016576,22.5338672" id="Path-36" stroke="url(#linearGradient-5)"></path>
                        </g>
                        <g id="Group-4" transform="translate(31.296809, 3.018076)">
                            <line x1="21.369783" y1="-2.16666519e-15" x2="18.2173818" y2="2.8925707" id="Path-33" stroke="url(#linearGradient-6)"></line>
                            <path d="M8.82750871,1.89229274 C8.82750871,1.89229274 22.3643675,-0.269481448 20.3144089,8.73818571" id="Path-32" stroke="url(#linearGradient-7)"></path>
                            <path d="M12.0094354,8.04094708 C12.0094354,8.04094708 13.7769302,8.69422354 13.7769303,11.1106894" id="Path-35" stroke="url(#linearGradient-8)"></path>
                            <path d="M9.45059561,20.752367 C9.45059561,20.752367 4.38530384,21.3188906 7.60280791,25.6957115 C6.10251698,27.1699872 6.06803054,27.8495521 5.65261397,31.8854078 C5.65261397,32.9338045 8.339659,35.6021173 8.339659,35.6021173" id="Path-39" stroke="url(#linearGradient-9)"></path>
                            <path d="M-2.3399984e-13,35.6412876 C-2.3399984e-13,35.6412876 2.88080123,36.3468787 5.8853315,32.8449487" id="Path-40" stroke="url(#linearGradient-10)"></path>
                            <path d="M12.2963835,16.2951022 C12.2963835,16.2951022 15.0618784,13.4446084 18.9970161,15.5634851" id="Path-37" stroke="url(#linearGradient-11)"></path>
                            <path d="M9.3832023,29.9986611 C9.3832023,29.9986611 13.563957,30.8559389 12.9487297,23.053425" id="Path-41" stroke="url(#linearGradient-12)"></path>
                            <path d="M13.298859,25.8500267 C13.298859,25.8500267 16.113895,26.3124466 20.0098079,25.8500267" id="Path-42" stroke="url(#linearGradient-13)"></path>
                            <line x1="1.18280526" y1="39.6295603" x2="5.51993592" y2="42.8604563" id="Path-43" stroke="url(#linearGradient-14)"></line>
                        </g>
                        <g id="Group-2" transform="translate(16.076187, 19.565025)">
                            <path d="M11.7560986,19.8881089 C11.7560986,19.8881089 7.46646458,20.3554239 6.65742126,24.0072" id="Path-46" stroke="url(#linearGradient-15)"></path>
                            <path d="M5.19999645e-14,1.99742246 C5.19999645e-14,1.99742246 5.70052563,2.5292447 13.1682844,3.85184923e-15 C19.2013029,1.32232621 17.0468221,5.65550795 17.0468221,5.65550795 C17.0468221,5.65550795 16.442652,7.07536565 15.0597725,7.07536564 C17.9360969,7.44892954 17.8034174,9.66770348 17.8034174,9.66770348" id="Path-38" stroke="url(#linearGradient-16)"></path>
                            <path d="M15.5929013,13.0999218 C15.5929013,13.0999218 12.2455902,17.8755502 8.00449892,12.773354 C6.54864637,15.2630079 5.37684536,15.3200767 5.37684536,15.3200767" id="Path-45" stroke="url(#linearGradient-17)"></path>
                        </g>
                        <g id="Group" transform="translate(1.907737, 16.527107)">
                            <path d="M18.7264244,22.4553094 C18.7264244,22.4553094 20.0868787,20.2535284 14.134038,18.0938438" id="Path-47" stroke="url(#linearGradient-18)"></path>
                            <path d="M17.1352284,19.4206176 C17.1352284,19.4206176 20.2878786,14.9089577 16.3951017,12.591092 C12.5023247,10.2732263 9.13329781,11.4812715 7.80774352,4.31761679" id="Path-48" stroke="url(#linearGradient-19)"></path>
                            <path d="M16.9293374,12.7707053 C20.5726515,9.6276669 22.3907011,10.0047299 22.3907011,10.0047299" id="Path-49" stroke="url(#linearGradient-20)"></path>
                            <line x1="10.6070341" y1="14.4943697" x2="2.65408259" y2="12.9529121" id="Path-50" stroke="url(#linearGradient-21)"></line>
                            <path d="M13.3956793,0.086268093 C13.3956793,0.086268093 4.53958565,-1.29000258 5.58518138e-14,6.95158129" id="Path-51" stroke="url(#linearGradient-22)"></path>
                        </g>
                        <g id="Group-5" transform="translate(0.000000, 2.525679)">
                            <line x1="18.8993586" y1="0.606652309" x2="14.0451403" y2="1.53354693" id="Path-55" stroke="url(#linearGradient-23)"></line>
                            <path d="M23.1698737,6.20074453 C23.1698737,6.20074453 19.928164,11.9879675 11.5549895,8.62023746 C7.97518483,7.93699731 7.54596602,10.3406713 7.54596602,10.3406713" id="Path-52" stroke="url(#linearGradient-24)"></path>
                            <path d="M12.3845426,8.87074138 C12.3845426,8.87074138 13.9197812,4.13040618 6.46722457,4.1304062 C-0.985332006,4.13040622 0.0488024733,3.57538057 0.0488024733,3.57538057" id="Path-53" stroke="url(#linearGradient-25)"></path>
                            <path d="M25.0306738,0.469225173 C25.0306738,0.469225173 20.9088095,-0.935271249 18.0711963,1.1155572 C15.2335831,3.16638565 19.7629489,4.25494495 19.7629489,4.25494495" id="Path-54" stroke="url(#linearGradient-26)"></path>
                        </g>
                    </g>
                    <path d="M56.7735217,8.60850701 C54.3643711,3.00963576 43.3221241,-6.44802391 28.9482149,6.954638 C14.5740702,-6.4497096 3.53150995,3.00803816 1.1223643,8.60687267 C-6.49160616,32.1873597 27.9145058,55.049721 29.0680231,55.8111604 C29.0680231,55.8111604 64.3878067,32.1900746 56.7735217,8.60850701 Z M28.9361406,6.56308228 L28.9361406,49.4786657" id="Path-30" stroke="url(#linearGradient-27)" stroke-width="2" stroke-linecap="round" stroke-linejoin="bevel" stroke-dasharray="130"></path>
                    <path d="M56.7735217,8.60850701 C54.3643711,3.00963576 43.3221241,-6.44802391 28.9482149,6.954638 C14.5740702,-6.4497096 3.53150995,3.00803816 1.1223643,8.60687267 C-6.49160616,32.1873597 27.9145058,55.049721 29.0680231,55.8111604 C29.0680231,55.8111604 64.3878067,32.1900746 56.7735217,8.60850701 Z" id="Path-30" stroke="url(#linearGradient-27)" stroke-width="3"></path>
                </g>
            </g>
        </g>
    </g>
</svg>